<?xml version="1.0" encoding="UTF-8"?>
<svg id="Layer_1" xmlns="http://www.w3.org/2000/svg" xmlns:xlink="http://www.w3.org/1999/xlink" version="1.1" viewBox="0 0 449.17 319.41">
  <!-- Generator: Adobe Illustrator 29.7.1, SVG Export Plug-In . SVG Version: 2.1.1 Build 8)  -->
  <defs>
    <style>
      .st0 {
        fill: none;
      }

      .st1 {
        fill: #33c7b7;
      }

      .st2 {
        fill: #e64b17;
      }

      .st3 {
        fill: #533cae;
      }

      .st4 {
        fill: #eeac18;
      }

      .st5 {
        clip-path: url(#clippath);
      }
    </style>
    <clipPath id="clippath">
      <path class="st0" d="M72.34,131.05v81.64h318.04v-81.64H72.34ZM116.77,211.68h0c-5.63,0-11.25-.46-16.76-1.32-.08-2.9-.16-5.81-.22-8.72,5.58.96,11.31,1.47,17.05,1.47,5.09,0,10.24-.4,15.35-1.16.03.65.04,1.31.07,1.96.11,2.21.18,4.43.25,6.64-5.24.74-10.51,1.13-15.73,1.13ZM190.01,154.59c-2.33-3.2-4.53-6.45-6.6-9.73,14.53,2.13,30.14,6.08,47.73,12.08,4.61,1.57,9.44,3.3,15.21,5.45,2.24,3.35,4.14,7.11,5.74,11.25-19.68-7.45-40.61-15.01-62.08-19.05ZM362.66,160.12c-12.93-8.83-27.55-15.36-37.61-19.57-2.38-1-3.07-3.35-2.69-5.24.39-1.95,1.83-3.27,3.58-3.27.52,0,1.06.11,1.6.34,16.17,6.76,28.72,13.27,39.28,20.38-1.25,2.55-2.64,5-4.17,7.36Z"/>
    </clipPath>
  </defs>
  <path class="st1" d="M188.46,177.1c-25.17,22.04-60.39,31.87-93.24,24.7-3.95-.86-9-1.73-11.97-4.72-3.82-3.85-2.21-9.45.07-13.65,4.11-7.56,11.41-13.56,18.59-18.03,15.22-9.47,33.14-13.88,50.92-14.69,38.29-1.74,74.6,12.47,109.75,25.86,18.44,7.02,36.97,13.96,56.17,18.63,8.76,2.13,17.64,3.76,26.6,4.75s18.44,1.94,27.03-.82c7.18-2.31,13.68-7.75,15.54-15.31,1.98-8.05-2.81-15.17-8.61-20.25-15.1-13.23-33.76-22.57-52.15-30.25-3.89-1.62-5.57,4.72-1.73,6.32,17.41,7.28,35.76,16.3,49.85,29.09,3.04,2.76,6.09,6.1,6.47,10.38.45,5.17-3.17,9.63-7.44,12.11-8.28,4.83-19.83,3.16-28.9,2.17-40.08-4.38-76.86-22.63-114.6-35.5-34.61-11.8-72.77-19.6-108.68-8.66-15.7,4.78-31.35,13.12-41.44,26.39-4.16,5.47-7.75,12.76-5.83,19.8s8.96,10.3,15.54,11.98c35.97,9.2,75.02-1.45,102.71-25.7,3.17-2.78-1.49-7.38-4.66-4.61h0Z"/>
  <path class="st4" d="M170.93,98.07c0,3.47-1.35,6.62-4.05,9.46-2.7,2.84-5.96,5.34-9.77,7.49-3.81,2.15-7.73,3.92-11.75,5.3-4.02,1.39-7.35,2.36-9.98,2.91-1.11,10.68-1.97,21.32-2.6,31.92-.62,10.6-.94,21.24-.94,31.92,0,5.69.14,11.3.42,16.84.28,5.54.41,11.09.41,16.63,0,2.49-.24,5.23-.73,8.21-.49,2.98-1.32,5.79-2.49,8.42-1.18,2.64-2.81,4.85-4.89,6.66-2.08,1.8-4.65,2.7-7.7,2.7-3.61,0-6.48-1.01-8.63-3.02-2.15-2.01-3.81-4.47-4.99-7.38-1.18-2.91-1.98-5.99-2.39-9.25-.41-3.26-.62-6.2-.62-8.84-.28-8.32-.49-16.67-.62-25.06-.14-8.39-.21-16.81-.21-25.27,0-7.07.03-14,.1-20.79.07-6.79.1-13.72.1-20.79-1.94.28-3.92.49-5.93.63-2.01.14-4.05.21-6.13.21-1.66,0-3.85-.17-6.55-.52-2.7-.34-5.3-.97-7.8-1.87-2.49-.9-4.64-2.15-6.44-3.74-1.8-1.59-2.7-3.64-2.7-6.13,0-4.16,1.63-7.8,4.89-10.92,3.26-3.12,7.41-5.82,12.48-8.11,5.06-2.29,10.67-4.23,16.84-5.82,6.17-1.59,12.27-2.84,18.3-3.74,6.03-.9,11.57-1.56,16.63-1.98,5.06-.41,8.97-.62,11.75-.62,2.63,0,5.44.1,8.42.31,2.98.21,5.79.8,8.42,1.77,2.63.97,4.82,2.43,6.55,4.37,1.73,1.94,2.6,4.65,2.6,8.11Z"/>
  <path class="st2" d="M260.92,76.49c0,3.85-1.21,7.2-3.64,10.04-2.43,2.85-5.32,5.19-8.66,7.03-3.01,1.84-6.11,3.81-9.29,5.9-3.18,2.09-6.11,4.43-8.79,7.03-2.68,2.6-4.86,5.48-6.53,8.66-1.68,3.18-2.51,6.78-2.51,10.79,0,3.51.83,6.7,2.51,9.54,1.67,2.85,3.72,5.65,6.15,8.41,2.42,2.76,5.1,5.61,8.03,8.54,2.93,2.93,5.61,6.19,8.03,9.79,2.42,3.6,4.48,7.66,6.15,12.17,1.67,4.52,2.51,9.79,2.51,15.82,0,4.19-.88,8.91-2.64,14.18-1.76,5.27-4.14,10.59-7.15,15.94-3.01,5.36-6.57,10.55-10.67,15.56-4.1,5.02-8.45,9.5-13.05,13.43-4.6,3.93-9.41,7.11-14.43,9.54-5.02,2.42-9.88,3.64-14.56,3.64-5.19,0-9.79-1.43-13.81-4.27-4.02-2.85-6.03-7.11-6.03-12.8,0-3.85.92-7.41,2.76-10.67,1.84-3.26,4.1-6.4,6.78-9.41,2.68-3.01,5.65-5.94,8.91-8.79,3.26-2.84,6.23-5.69,8.91-8.54,2.68-2.84,4.94-5.81,6.78-8.91,1.84-3.1,2.76-6.4,2.76-9.92,0-4.85-1.72-9.83-5.15-14.94-3.43-5.1-7.24-10.38-11.42-15.81-4.19-5.44-7.99-11-11.42-16.7-3.43-5.69-5.15-11.46-5.15-17.32,0-7.19,1.92-14.77,5.77-22.72,3.85-7.95,8.79-15.23,14.81-21.84,6.02-6.61,12.8-12.09,20.33-16.44,7.53-4.35,14.98-6.53,22.34-6.53,5.86,0,10.88,1.76,15.06,5.27,4.18,3.51,6.27,8.28,6.27,14.31Z"/>
  <path class="st3" d="M372.71,128.63c0,7.49-1.63,14.84-4.89,22.04-3.26,7.21-7.59,13.69-13,19.44-5.41,5.75-11.57,10.47-18.51,14.14-6.93,3.67-14.07,5.72-21.42,6.13-.14,2.49-.24,5.65-.31,9.46-.07,3.82-.31,7.8-.73,11.96-.41,4.16-1.01,8.32-1.77,12.48-.76,4.16-1.87,7.9-3.33,11.23-1.45,3.33-3.33,6.03-5.61,8.11-2.29,2.08-5.09,3.12-8.42,3.12-3.88,0-6.97-1.28-9.25-3.85-2.29-2.57-4.02-5.65-5.2-9.25-1.18-3.6-1.98-7.38-2.39-11.33-.42-3.95-.7-7.31-.83-10.09-.28-4.02-.45-7.97-.52-11.85-.07-3.88-.1-7.83-.1-11.85v-10.09c0-4.92.03-10.53.1-16.84.07-6.31.17-12.89.31-19.75.14-6.86.34-13.24.62-19.13.28-5.89.59-10.92.94-15.08.34-4.16.8-6.58,1.35-7.28.14-.14.55-.45,1.25-.94.69-.48,1.46-.97,2.29-1.45.83-.48,1.59-.94,2.29-1.35.69-.41,1.18-.69,1.46-.83,6.37-3.6,13.38-6.72,21-9.36,7.62-2.63,15.18-3.95,22.66-3.95,6.38,0,12.17,1.28,17.36,3.85,5.2,2.57,9.63,5.96,13.31,10.19,3.67,4.23,6.48,9.15,8.42,14.76,1.94,5.61,2.91,11.4,2.91,17.36Z"/>
  <path class="st1" d="M341.81,131.59l-9.6-2.15c-.7-.16-1.29-.63-1.59-1.28l-4.16-8.92c-.79-1.69-3.15-1.8-4.1-.2l-5.01,8.47c-.37.62-1,1.03-1.71,1.12l-9.77,1.2c-1.45.18-2.26,1.57-1.96,2.83.08.35.24.7.5,1l5.21,5.91,1.3,1.47c.48.54.67,1.27.54,1.97l-1.88,9.66c-.36,1.83,1.48,3.31,3.2,2.57l9.03-3.91c.66-.29,1.41-.25,2.04.1l8.61,4.77c1.63.9,3.61-.39,3.43-2.25l-.69-7.31-.23-2.48c-.07-.72.2-1.42.73-1.91l1.15-1.07,6.05-5.64c1.36-1.27.74-3.55-1.07-3.96Z"/>
  <g class="st5">
    <path class="st1" d="M188.46,177.1c-25.17,22.04-60.39,31.87-93.24,24.7-3.95-.86-9-1.73-11.97-4.72-3.82-3.85-2.21-9.45.07-13.65,4.11-7.56,11.41-13.56,18.59-18.03,15.22-9.47,33.14-13.88,50.92-14.69,38.29-1.74,74.6,12.47,109.75,25.86,18.44,7.02,36.97,13.96,56.17,18.63,8.76,2.13,17.64,3.76,26.6,4.75s18.44,1.94,27.03-.82c7.18-2.31,13.68-7.75,15.54-15.31,1.98-8.05-2.81-15.17-8.61-20.25-15.1-13.23-33.76-22.57-52.15-30.25-3.89-1.62-5.57,4.72-1.73,6.32,17.41,7.28,35.76,16.3,49.85,29.09,3.04,2.76,6.09,6.1,6.47,10.38.45,5.17-3.17,9.63-7.44,12.11-8.28,4.83-19.83,3.16-28.9,2.17-40.08-4.38-76.86-22.63-114.6-35.5-34.61-11.8-72.77-19.6-108.68-8.66-15.7,4.78-31.35,13.12-41.44,26.39-4.16,5.47-7.75,12.76-5.83,19.8s8.96,10.3,15.54,11.98c35.97,9.2,75.02-1.45,102.71-25.7,3.17-2.78-1.49-7.38-4.66-4.61h0Z"/>
  </g>
</svg>