<?xml version="1.0" encoding="UTF-8"?>
<svg id="Layer_1" xmlns="http://www.w3.org/2000/svg" version="1.1" viewBox="0 0 412.14 480">
  <!-- Generator: Adobe Illustrator 29.7.1, SVG Export Plug-In . SVG Version: 2.1.1 Build 8)  -->
  <defs>
    <style>
      .st0, .st1, .st2, .st3, .st4, .st5, .st6, .st7, .st8 {
        stroke-miterlimit: 10;
      }

      .st0, .st1, .st2, .st3, .st4, .st7, .st8 {
        stroke-width: 1.8px;
      }

      .st0, .st1, .st4, .st6, .st9, .st8 {
        fill: #002f55;
      }

      .st0, .st3 {
        stroke: #adc716;
      }

      .st1 {
        stroke: #dd2080;
      }

      .st2 {
        fill: #ecaa19;
      }

      .st2, .st7 {
        stroke: #002e52;
      }

      .st3 {
        fill: #002e52;
      }

      .st10 {
        fill: #33c5b5;
      }

      .st4 {
        stroke: #33c5b5;
      }

      .st11 {
        font-family: Chewy-Regular, Chewy;
        font-size: 16.76px;
        letter-spacing: .02em;
      }

      .st11, .st12 {
        fill: #fff;
      }

      .st5 {
        fill: none;
        stroke: #7f8080;
        stroke-width: .9px;
      }

      .st6 {
        stroke: #e44c17;
        stroke-width: 2.69px;
      }

      .st13 {
        fill: #dd2080;
      }

      .st7 {
        fill: #e44c17;
      }

      .st14 {
        fill: #fdf6ef;
      }

      .st8 {
        stroke: #ecaa19;
      }
    </style>
  </defs>
  <path class="st5" d="M244.26,437.57l-161.96-26.5c-3.56-.55-5.55-4.4-3.94-7.63l12.49-24.98c.89-1.77,2.69-2.91,4.67-2.94l233.02-3.52c2.13-.03,4.07,1.21,4.93,3.15l3.74,8.42c1.16,2.6.05,5.66-2.5,6.92l-87.28,46.58c-.98.48-2.08.65-3.16.49Z"/>
  <g>
    <path class="st3" d="M341.63,187.85l14.55-30.2c1.69-3.52-.32-7.7-4.13-8.56l-73.88-16.67c-2.52-.57-5.13.52-6.49,2.72l-23.23,37.39c-.56.91-.88,1.95-.91,3.02l-1.55,51.02c-.14,4.58,4.65,7.66,8.76,5.63l84.11-41.55c1.21-.6,2.19-1.59,2.78-2.81Z"/>
    <path class="st0" d="M86.6,230.97l-34.52,14.91c-5.53,2.39-10.78-3.86-7.48-8.9,5.26-8.06,14.99-20.65,32.62-40.31.12-.13.23-.27.33-.41l12-16c1.57-2.1,4.32-2.95,6.8-2.11l21.04,7.13c4.14,1.4,5.49,6.6,2.54,9.83l-31.25,34.38c-.58.64-1.29,1.15-2.09,1.49Z"/>
    <g>
      <path class="st13" d="M221.39,169.15c.13-.21.27-.42.4-.64-.37-2.42-7.58,12.31-.4.64Z"/>
      <path class="st1" d="M375.23,188.49c.06-1.03-.05-2.07-.34-3.05-1.03-3.46-3.94-6.14-7.26-7.56-3.32-1.42-7.02-1.7-10.62-1.56-8.77.34-24.53,4.64-36.01,8.47-3.87,1.29-2.83-2.07-2.02-2.68,3.83-2.89,8.18-4.99,12.44-7.15s8.25-4.11,11.53-7.36c2.44-2.42,4.33-5.59,4.78-9.03.22-1.69.07-2.86-.8-4.29s-2.25-2.55-3.83-3.18c-4.21-1.67-8.52-.5-12.54.93-13.32,4.76-25.24,13.15-36.34,21.71,3.79-2.93,6.55-7.49,9.6-11.16,3.52-4.24,7.14-8.4,10.85-12.47,7.33-8.03,15.02-15.72,23.06-23.04,3.91-3.56,8.02-7.19,9.67-12.36.62-1.95.77-4.04.34-6.04-1.58-7.29-8.98-8.4-14.38-6.14-3.88,1.62-6.98,4.65-9.97,7.61-8.4,8.33-16.87,16.63-24.9,25.25-3.46,3.71-6.9,7.44-10.27,11.24-1.06,1.2-5.33,4.79-5.33,6.56,4.51-9.85,9.96-19.32,14.9-28.96,5.96-11.64,11.46-23.09,14.71-35.85.6-2.36,1.15-4.81.31-7.24-.23-.67-.59-1.31-1.08-1.84-2.9-3.13-7.43-1.01-9.94,1.85-11.63,13.28-23.16,26.53-32.84,41.47-.58.9-1.34,1.69-2.28,2.23-2.42,1.38-3.6.06-3.06-2.65.22-1.11.71-2.16,1.12-3.21,2.59-6.54,2.28-13.62,1.87-20.51-.59-9.76-2.66-22.09-11.07-28.42-3.29-2.48-8.29-3.2-11.41-.51-1.97,1.7-2.8,4.33-3.54,6.82-2.97,9.98-5.94,19.95-8.9,29.93-2.49,8.37-6.61,17.54-5.77,26.47.54,5.68,1.23,11.39,1.95,17.03.16,1.23,1.96,6.95.88,7.76-9.93,7.72-.31.23-6.98,10.96.09.58-.21,2.13-1.2,5.25-.01.04-.02.07-.03.11l-10.98,40.27,36.61,39.35s43.49-23.56,43.93-23.79c1.83-.99,3.67-4.24,5.01-5.8,2.88-3.34,5.77-6.68,8.65-10.02,2.61-3.03,6.31-4.57,9.95-5.9,4.09-1.5,7.48-3.93,10.65-6.89,3.54-3.31,6.76-6.99,10.73-9.77,3.97-2.78,8.93-4.6,13.65-3.56,4.08.9,7.4,3.76,11,5.87s8.28,3.49,11.85,1.32c2.21-1.34,3.46-3.87,3.61-6.47Z"/>
    </g>
    <path class="st0" d="M240.56,190.08c-1.79-2.27-.96-10.33-1.04-12.99-.29-9.76.48-19.48,2.33-29.06,1.7-8.76,4.73-17.28,9.15-25.04,3.63-6.38,10.3-17.52,17.39-20.53,8.17-3.47,9.19,7.37,9.04,12.95-.19,6.89-.5,13.78-.85,20.67-.25,5-3.95,17.31,4.6,16.94,2.03-.09,3.94-.94,5.79-1.78,5.49-2.49,10.97-4.97,16.46-7.46,2.37-1.07,4.79-2.16,7.38-2.42s5.42.47,7.07,2.49c1.82,2.23,1.78,5.55.64,8.2-1.14,2.65-3.18,4.79-5.19,6.86-4.53,4.68-9.05,9.36-13.58,14.04-1.88,1.94-3.9,4.6-2.79,7.06,1.36,3.01,5.7,2.49,8.92,1.78,4.03-.89,8.5-1.25,12.04.88,10.04,6.03-2.94,17.55-7.9,22.17-11.05,10.29-23.62,19.01-36.11,27.44,0,0-33.35-42.19-33.35-42.2Z"/>
    <path class="st6" d="M110.44,189.53c-8.46-5.54-16.35-12.54-22.94-20.18-6.03-7-11.63-15.87-13.08-25.14-1.65-10.57,3.75-20.64,15.56-16.7,5.26,1.75,7.03,6.66,11.27,9.12,4.19,2.43,7.26-2.59,6.8-7.28-.37-3.74-2.41-7.08-3.91-10.53-4.93-11.29,1.1-23.52,12.27-27.88,15.68-6.12,35.24,6.87,45.65,17.77,5.5,5.76,12.1,13.85,20.04,16.24,7.71,2.32,15.27-3.89,19.73-9.71,6.21-8.1,18.23-15.8,27.29-20.02,14-6.51,17.72,5.43,17.43,17.24-.17,6.99-1.26,13.94-2.42,20.82-.38,2.29-3.66,20.81,3.98,13.01,4.2-4.29,10.28-9.21,16.32-5.03,3.72,2.58,5.39,7.37,5.31,11.89s-1.64,8.87-3.25,13.1c-9.4,24.68-20.93,48.54-34.44,71.23-.93,1.57-23.57-2.24-25.96-2.48-10.49-1.05-20.97-2.1-31.46-3.15-13.75-1.38-27.5-2.75-41.25-4.13h-.02s-22.93-38.23-22.93-38.23Z"/>
    <g>
      <g>
        <path class="st9" d="M99.09,234.99c2.25-35.23-.66-70.61-6.48-105.37-2.91-17.41-6.56-34.7-10.67-51.86-.76-3.19-2.94-7.69-1.81-11,1.59-4.67,7.76-4.11,12.1-4.93,11.46-2.16,22.91-4.32,34.37-6.48,20.03-3.78,40.06-7.55,60.1-11.34,9.22-1.74,16.24-.87,21.69,7.27,4.71,7.04,6.26,15.84,7.57,24.05,7.98,50.08,16.24,99.91,21.58,150.32.52,4.94.56,10.94-3.59,13.68-1.84,1.22-4.14,1.47-6.34,1.69-40.75,4.06-81.51,8.13-122.26,12.19-2.03.2-4.44.26-5.71-1.34-.83-1.04-.9-2.49-.92-3.82-.23-11.26-.47-22.53-.7-33.79"/>
        <path class="st10" d="M100.44,234.99c1.42-22.5.77-45.08-1.42-67.51-2.19-22.4-5.86-44.63-10.5-66.65-1.18-5.6-2.42-11.18-3.71-16.76-.59-2.55-1.11-5.13-1.83-7.64-.59-2.05-1.4-4.06-1.72-6.18-.27-1.8-.07-3.76,1.47-4.94,1.32-1.01,3.13-1.3,4.73-1.53,1.71-.24,3.43-.35,5.12-.66,2.79-.5,5.56-1.05,8.35-1.57,22.52-4.25,45.03-8.49,67.55-12.74,5.7-1.08,11.4-2.15,17.1-3.23,3.87-.73,7.91-1.44,11.83-.63,8.84,1.82,12.89,11.24,14.96,19.1,1.3,4.95,2.03,10.02,2.83,15.06.88,5.54,1.77,11.08,2.66,16.63,1.8,11.24,3.59,22.48,5.33,33.72,3.5,22.52,6.83,45.07,9.68,67.68.72,5.73,1.41,11.46,2.07,17.19.57,5.01,1.45,10.11,1.49,15.16.04,4.14-.96,8.48-5.48,9.67-2.52.66-5.24.71-7.82.97-2.82.28-5.63.56-8.45.84-22.94,2.29-45.89,4.58-68.83,6.86-11.43,1.14-22.86,2.28-34.29,3.42-2.58.26-5.19.68-7.78.72-.89.01-1.99-.01-2.74-.59-.99-.76-.95-2.2-.98-3.33-.15-5.71-.24-11.43-.36-17.15s-.23-11.1-.35-16.65c-.04-1.73-2.73-1.74-2.69,0,.12,5.96.25,11.93.37,17.89.06,2.98.12,5.96.19,8.95.06,2.77-.06,5.62.22,8.38.23,2.27,1.33,4.14,3.59,4.85s4.59.21,6.8-.01c5.96-.59,11.93-1.19,17.89-1.78,23.61-2.35,47.21-4.71,70.82-7.06,5.88-.59,11.76-1.17,17.64-1.76,2.98-.3,5.96-.59,8.95-.89,2.69-.27,5.49-.36,8.13-.96,10.47-2.37,7.72-15.38,6.86-23.09-2.6-23.39-5.8-46.7-9.28-69.97s-7.26-46.61-10.97-69.9c-1.57-9.85-2.8-20.58-8.78-28.93-2.33-3.26-5.37-5.89-9.21-7.14s-7.72-1.02-11.53-.45c-5.58.83-11.13,2.06-16.68,3.11-5.86,1.11-11.73,2.21-17.59,3.32-11.57,2.18-23.15,4.37-34.72,6.55-10.68,2.02-21.35,4.33-32.13,5.78-3.49.47-7.18,1.59-8.41,5.27-1.41,4.23,1.19,9.07,2.15,13.14,5.39,22.65,9.96,45.51,13.09,68.59,3.13,23.09,4.8,46.42,4.37,69.72-.1,5.72-.34,11.43-.7,17.13-.11,1.73,2.58,1.72,2.69,0h0Z"/>
      </g>
      <path class="st14" d="M99,86.85c10.04-2.42,20.24-4.19,30.41-5.96,12.01-2.1,24.04-4.06,36.08-5.95,5.19-.82,10.38-1.62,15.57-2.4,1.44-.22.83-2.41-.61-2.2-10.22,1.54-20.43,3.15-30.63,4.81-12.03,1.96-24.05,3.99-36.02,6.27-5.15.98-10.3,2-15.4,3.23-1.42.34-.82,2.54.61,2.2h0Z"/>
      <path class="st14" d="M95.82,80.49c18.29-4.42,36.77-8.04,55.38-10.85,1.44-.22.83-2.41-.61-2.2-18.61,2.81-37.09,6.44-55.38,10.85-1.42.34-.82,2.54.61,2.2h0Z"/>
      <path class="st14" d="M111.73,128.77c20.51-.34,40.98-2.94,60.92-7.77,5.63-1.37,11.22-2.92,16.76-4.63,1.4-.43.8-2.63-.61-2.2-19.48,6.04-39.61,9.93-59.94,11.52-5.7.45-11.41.71-17.13.8-1.46.02-1.47,2.3,0,2.28h0Z"/>
      <path class="st14" d="M111.73,138.21c20.51-.34,40.98-2.94,60.92-7.77,5.63-1.37,11.22-2.92,16.76-4.63,1.4-.43.8-2.63-.61-2.2-19.48,6.04-39.61,9.93-59.94,11.52-5.7.45-11.41.71-17.13.8-1.46.02-1.47,2.3,0,2.28h0Z"/>
      <path class="st14" d="M111.73,147.64c20.51-.34,40.98-2.94,60.92-7.77,5.63-1.37,11.22-2.92,16.76-4.63,1.4-.43.8-2.63-.61-2.2-19.48,6.04-39.61,9.93-59.94,11.52-5.7.45-11.41.71-17.13.8-1.46.02-1.47,2.3,0,2.28h0Z"/>
      <path class="st14" d="M111.73,157.07c20.51-.34,40.98-2.94,60.92-7.77,5.63-1.37,11.22-2.92,16.76-4.63,1.4-.43.8-2.63-.61-2.2-19.48,6.04-39.61,9.93-59.94,11.52-5.7.45-11.41.71-17.13.8-1.46.02-1.47,2.3,0,2.28h0Z"/>
      <path class="st14" d="M111.73,166.51c20.51-.34,40.98-2.94,60.92-7.77,5.63-1.37,11.22-2.92,16.76-4.63,1.4-.43.8-2.63-.61-2.2-19.48,6.04-39.61,9.93-59.94,11.52-5.7.45-11.41.71-17.13.8-1.46.02-1.47,2.3,0,2.28h0Z"/>
      <path class="st14" d="M111.73,175.94c20.51-.34,40.98-2.94,60.92-7.77,5.63-1.37,11.22-2.92,16.76-4.63,1.4-.43.8-2.63-.61-2.2-19.48,6.04-39.61,9.93-59.94,11.52-5.7.45-11.41.71-17.13.8-1.46.02-1.47,2.3,0,2.28h0Z"/>
      <path class="st14" d="M111.73,185.38c20.51-.34,40.98-2.94,60.92-7.77,5.63-1.37,11.22-2.92,16.76-4.63,1.4-.43.8-2.63-.61-2.2-19.48,6.04-39.61,9.93-59.94,11.52-5.7.45-11.41.71-17.13.8-1.46.02-1.47,2.3,0,2.28h0Z"/>
    </g>
    <path class="st4" d="M91.27,226.25c-.23-.04-1.59-4.13-1.76-4.48-1.71-3.44-4.1-6.61-7.13-8.99-4.23-3.31-9.42-4.79-14.76-4.72-7.86.11-15.84,6.24-23.46,4.07-3.01-.86-5.71-3.04-6.77-5.98-1.63-4.52.96-9.7,4.84-12.53,7.25-5.29,17.23-5.1,25.72-3.93,4.76.66,9.44,1.87,13.95,3.53,1.61.59,6.55,2.23,10.34,4.05,1.78.85,3.77-.63,3.45-2.57-2.04-12.32-3.49-37.33,23.88-16.61,1.17.89,2.82-.13,2.56-1.58-.21-1.17-.36-2.24-.51-2.82-1.31-5.29-2.42-10.72-2.69-16.18-.66-13.13,6.12-17.14,17.48-9.96,6.4,4.04,12.62,9.04,17.25,15.07,3.29,4.28,7.41,12.89,13.75,12.11,7.21-.89,9.42-9.33,12.45-14.64,3.87-6.8,10.94-22.02,20.32-22.34,6.71-.23,12.05,9.51,12.76,15.32.67,5.52-1.87,10.85-4.16,15.91-2.55,5.65-6.88,18.06.81,21.91,0,0,36.29-47.14,31.11-.48-1.54,13.86,15.09-3.98,18.84-6.54,4.7-3.22,11.92-4.45,15.19,1.13.64,1.1,1,2.35,1.12,3.61.38,4.12-4.55,7.57-3.22,11.29,10.36,28.9-22.26,35.87-37.12,49.91,0,0-143.89-23.51-144.25-23.57Z"/>
    <path class="st8" d="M120.96,226.73c-1.67-.21-5.83-10.08-6.56-11.46-3.5-6.59-7.8-14.06-8.97-21.53-.95-6.07.44-9.26,6.99-8.04,8.98,1.68,16.26,8.43,21.59,15.47,3.03,4,7.35,16.91,11.99,18.87,0,0,.73.31.73-2.68,0,0,2.78-23.71,18.15.21,0,0,4.48,9.18,4.48-1.92,0,0,3.42-51.04,18.58-32.68,0,0,5.55,3.63,1.92,30.97,0,0,.21,11.32,5.55,2.78,0,0,10.89-28.4,25.63-17.51,0,0,5.55,3.63-4.7,22,0,0-9.18,14.95.64,6.41,0,0,25.6-16.94,14.72,12.67,0,0-110.52-13.54-110.76-13.57Z"/>
    <path class="st7" d="M249.04,235.02l82.81-40.91c4.06-2.01,8.81.98,8.76,5.52l-2.13,177.99c-.03,2.09-1.12,4.02-2.91,5.11l-87.5,53.35c-1.54.94-3.52-.18-3.51-1.98l1.1-193.67c.01-2.3,1.32-4.39,3.38-5.41Z"/>
    <path class="st2" d="M76.06,220.64l-3.22,175.92c-.05,2.92,1.98,5.47,4.84,6.06l165.35,34.17c.78.16,1.51-.43,1.51-1.22l2.21-192.4c.04-3.05-2.2-5.66-5.22-6.08l-158.56-22.35c-3.61-.51-6.85,2.26-6.92,5.9Z"/>
    <path class="st0" d="M247.03,242.53l26.93,35.91c1.76,2.35,4.95,3.1,7.57,1.79l79.96-38.46c3.06-1.53,4.25-5.28,2.64-8.29l-20.62-38.56c-1.55-2.89-5.1-4.03-8.04-2.58l-86.26,41.11c-3.41,1.68-4.45,6.05-2.17,9.09Z"/>
    <g>
      <text class="st11" transform="translate(166.63 318.34) rotate(10.73) scale(1.02 .98) skewX(10.37)"><tspan x="0" y="0">The</tspan></text>
      <g>
        <path class="st12" d="M174.22,308.62c0,.27-.11.5-.32.68-.21.18-.47.33-.77.44-.3.11-.61.19-.93.24-.32.05-.58.08-.79.08-.09.82-.16,1.65-.2,2.47-.05.83-.07,1.66-.07,2.5,0,.45.01.89.03,1.33.02.44.03.88.03,1.32,0,.2-.02.41-.06.64-.04.23-.1.44-.2.63-.09.19-.22.34-.39.45-.16.11-.37.14-.61.1-.28-.05-.51-.18-.68-.37-.17-.19-.3-.41-.39-.66-.09-.25-.16-.5-.19-.76-.03-.26-.05-.5-.05-.71-.02-.66-.04-1.32-.05-1.98-.01-.66-.02-1.33-.02-1.99,0-.56,0-1.1,0-1.64,0-.53,0-1.08,0-1.64-.15,0-.31-.02-.47-.04-.16-.02-.32-.04-.48-.08-.13-.02-.3-.07-.52-.14-.21-.07-.42-.16-.61-.26-.2-.11-.37-.24-.51-.39s-.21-.33-.21-.52c0-.33.13-.59.38-.79.26-.2.58-.35.98-.45.4-.1.84-.17,1.33-.21s.97-.04,1.44-.02.91.05,1.31.09c.4.04.71.09.93.13s.43.09.66.15c.23.06.46.15.66.26.21.12.38.26.52.44.14.18.2.4.2.68Z"/>
        <path class="st12" d="M181.13,316.87c0,.19,0,.46,0,.83,0,.36-.02.74-.05,1.14-.03.39-.06.76-.11,1.11-.04.35-.1.6-.16.75-.09.19-.2.35-.34.48-.14.13-.33.17-.57.12-.37-.07-.64-.27-.8-.59-.16-.33-.27-.71-.33-1.16-.05-.45-.08-.93-.07-1.44.01-.51,0-.99-.02-1.43-.02-.44-.08-.82-.18-1.13-.1-.31-.28-.49-.54-.54-.36-.07-.64-.06-.83.01-.19.08-.33.2-.41.37-.08.17-.13.37-.15.61-.02.24-.04.48-.06.74-.02.25-.04.58-.05,1.01-.01.42-.06.83-.15,1.23-.09.4-.23.73-.43.99s-.5.36-.89.28c-.24-.05-.43-.18-.58-.39-.15-.21-.26-.48-.35-.79-.09-.31-.15-.65-.19-1.02-.04-.37-.06-.72-.07-1.07,0-.34,0-.66,0-.94,0-.28,0-.49,0-.64,0-.22,0-.58.02-1.08s.05-1.05.11-1.66c.05-.61.13-1.23.21-1.87.09-.64.2-1.21.34-1.73.14-.51.31-.92.52-1.22.2-.3.44-.42.71-.36.17.04.32.15.45.31.13.17.23.37.31.61.08.24.15.5.2.77s.1.54.12.8c.03.26.04.5.05.72,0,.22,0,.39,0,.51,0,.28,0,.57-.02.85s-.03.56-.05.84c.25-.29.59-.51,1.01-.64.42-.14.84-.17,1.27-.09.55.1.96.33,1.24.68.28.35.48.76.6,1.23.12.47.19.95.2,1.45.01.5.02.94.02,1.34Z"/>
        <path class="st12" d="M189.49,319.78c0,.37-.12.71-.35,1.02-.23.31-.53.57-.88.78s-.73.36-1.14.46c-.4.09-.77.11-1.11.04-.58-.11-1.09-.35-1.55-.73-.45-.37-.83-.82-1.14-1.32s-.54-1.04-.7-1.61c-.16-.57-.24-1.11-.24-1.63,0-.55.08-1.12.23-1.71.15-.59.38-1.12.7-1.59.31-.47.7-.83,1.18-1.09.47-.26,1.04-.33,1.69-.2.37.07.73.2,1.06.39.34.19.63.42.88.7.25.28.45.59.61.93.15.35.23.71.23,1.11,0,.51-.11.97-.33,1.38-.22.41-.51.74-.87,1-.36.26-.77.45-1.24.56-.47.11-.95.13-1.44.06.04.33.17.58.38.76s.47.3.76.36c.22.04.43.03.64-.04.21-.07.41-.15.61-.25.2-.1.39-.19.58-.26.19-.07.39-.09.58-.05.22.04.41.15.59.32.17.17.26.38.26.61ZM186.84,315.27c0-.14-.04-.3-.11-.46-.08-.17-.2-.27-.36-.3-.24-.05-.44-.02-.61.07s-.3.23-.41.4c-.11.17-.19.36-.25.57s-.1.4-.11.59c.15,0,.34-.01.55-.03.21-.01.41-.05.6-.11.19-.06.35-.14.49-.26.14-.12.2-.27.2-.47Z"/>
      </g>
      <g>
        <path class="st12" d="M175.99,324.45c0,.3-.1.55-.29.74-.19.19-.42.33-.68.42-.24.1-.48.21-.73.33-.25.12-.48.26-.69.42-.21.17-.38.36-.51.58s-.2.5-.2.81c0,.28.07.54.2.79s.29.5.48.75c.19.25.4.52.63.79.23.27.44.57.63.89.19.32.35.67.48,1.05s.2.81.2,1.28c0,.33-.07.69-.21,1.08-.14.39-.33.77-.56,1.15-.24.38-.52.73-.84,1.07-.32.33-.67.62-1.03.86-.36.24-.74.42-1.14.54-.4.12-.78.14-1.15.07-.41-.08-.77-.26-1.09-.54-.32-.29-.47-.65-.47-1.1,0-.3.07-.57.22-.8.14-.23.32-.44.53-.64.21-.2.44-.38.7-.56.26-.17.49-.36.7-.54.21-.18.39-.38.53-.6.14-.22.22-.46.22-.74,0-.38-.14-.8-.41-1.25-.27-.45-.57-.92-.9-1.42-.33-.49-.63-.99-.9-1.49-.27-.5-.4-.98-.4-1.44,0-.57.15-1.13.45-1.7.3-.57.69-1.07,1.17-1.5.47-.43,1.01-.76,1.6-.99.59-.23,1.18-.29,1.76-.18.46.09.86.3,1.19.64.33.34.49.75.49,1.22Z"/>
        <path class="st12" d="M181.7,340.12c-.94-.18-1.66-.44-2.18-.78-.52-.34-.91-.76-1.17-1.26-.26-.5-.41-1.07-.46-1.71s-.08-1.35-.08-2.13c0-.62.02-1.24.06-1.86.04-.62.1-1.28.18-1.97-.19-.04-.33-.06-.43-.07-.11-.01-.19-.03-.26-.04-.42-.08-.79-.24-1.1-.49-.31-.24-.46-.56-.46-.94,0-.24.09-.43.27-.58.18-.15.41-.27.68-.34.28-.08.58-.13.9-.15.32-.02.63-.01.92.02,0-.37.03-.77.08-1.21.05-.44.15-.84.29-1.2s.33-.65.56-.87c.24-.22.54-.29.91-.22.21.04.4.14.56.29s.3.34.4.55.19.44.24.69c.05.25.08.48.08.71,0,.26-.02.53-.06.8-.04.27-.11.6-.22.99.22.02.38.03.45.04.08,0,.15.02.22.03.22.04.46.11.7.19.24.09.47.19.67.33s.37.28.5.46c.13.18.2.37.2.58,0,.24-.1.43-.29.58-.19.15-.43.26-.72.34-.29.08-.6.12-.93.13-.33.01-.64,0-.93-.03-.08.53-.14,1.01-.17,1.46-.03.45-.07.9-.11,1.35-.03.22-.05.44-.07.67-.02.23-.03.46-.03.7,0,.17,0,.37.02.61s.06.46.14.69.2.43.38.61c.17.18.41.3.71.36.18.04.38.05.57.06.2,0,.4.03.59.06.34.07.59.23.74.5.15.27.23.58.23.95,0,.28-.08.5-.25.67-.17.17-.37.3-.62.38-.25.08-.53.12-.84.13-.31,0-.6-.02-.88-.07Z"/>
        <path class="st12" d="M193.49,338.85c0,.24-.01.54-.03.92-.02.38-.08.74-.17,1.08-.09.34-.24.63-.44.86-.2.23-.47.3-.83.24-.49-.09-.86-.32-1.13-.69-.26-.37-.39-.79-.38-1.26-.42.29-.9.49-1.43.6-.53.11-1.08.11-1.63,0-.38-.07-.74-.23-1.09-.48-.34-.25-.65-.54-.91-.88-.26-.34-.47-.71-.63-1.1s-.24-.77-.24-1.12c0-.63.19-1.15.58-1.55.39-.4.87-.71,1.43-.94.57-.23,1.17-.38,1.81-.46.64-.08,1.21-.1,1.71-.07,0-.07,0-.12,0-.18,0-.05,0-.11,0-.18,0-.41-.11-.76-.34-1.05-.22-.29-.54-.48-.95-.56-.33-.06-.61-.06-.85,0-.24.07-.46.15-.67.25s-.42.18-.63.26c-.21.07-.45.08-.71.03-.29-.05-.54-.19-.74-.42-.2-.22-.31-.48-.31-.77,0-.44.13-.81.38-1.11.26-.31.58-.54.97-.72.39-.17.81-.28,1.26-.33.46-.05.87-.04,1.25.03.36.07.71.18,1.07.33.35.15.69.35,1.01.59.32.24.6.51.86.82.26.31.46.64.62,1.02.24.53.43,1.09.57,1.66.14.57.26,1.16.34,1.74.08.59.13,1.17.16,1.75.03.58.04,1.14.04,1.68ZM190.32,337.62l-.06-1.36s-.05-.01-.08-.02-.05-.02-.08-.03c-.17-.03-.39-.03-.64,0-.26.04-.5.11-.74.21s-.44.24-.6.39-.25.33-.25.53c0,.18.07.32.2.41.13.09.28.15.46.19.29.05.6.04.93-.05.33-.09.62-.18.87-.28Z"/>
        <path class="st12" d="M201.93,335.85c-.19-.02-.34-.07-.47-.14-.13-.07-.26-.14-.4-.22-.12-.08-.24-.15-.36-.22s-.25-.11-.39-.12c-.26-.04-.5,0-.7.08-.2.09-.39.22-.55.39-.17.17-.31.36-.42.58-.12.22-.21.44-.28.67-.04.15-.07.39-.09.71-.02.32-.03.66-.03,1.03-.01.38-.02.74-.02,1.08s-.01.61-.04.8c-.01.21-.05.45-.1.72-.05.27-.13.52-.25.75-.11.23-.26.41-.45.55-.18.14-.42.18-.71.12-.22-.04-.42-.15-.58-.31-.17-.16-.3-.36-.42-.6s-.2-.51-.28-.81c-.07-.3-.13-.61-.17-.92-.04-.32-.07-.65-.09-.97-.02-.32-.03-.62-.04-.91,0-.29,0-.55,0-.78,0-.24,0-.43,0-.57-.01-.46-.04-.93-.07-1.41-.03-.47-.05-.94-.05-1.4,0-.29.01-.61.04-.96.03-.35.1-.67.22-.96.12-.29.29-.51.52-.68.23-.17.55-.21.96-.13.22.04.42.15.57.33.16.17.29.38.38.61.1.23.17.47.23.71.05.25.09.47.1.67.32-.45.67-.8,1.07-1.05.4-.25.91-.32,1.54-.23.32.05.63.14.94.27.31.13.59.3.85.52.26.21.47.47.63.76.16.29.25.62.27.98.03.43-.1.73-.38.9-.28.17-.61.23-1.01.17Z"/>
        <path class="st12" d="M210.88,337.55c-.19-.02-.34-.07-.47-.14-.13-.07-.26-.14-.4-.22-.12-.08-.24-.15-.36-.22-.12-.07-.25-.11-.4-.12-.26-.04-.5,0-.7.08-.2.09-.39.22-.55.39-.17.17-.31.36-.42.58-.12.22-.21.44-.28.67-.04.15-.07.39-.09.71-.02.32-.03.66-.03,1.03-.01.38-.02.74-.02,1.08s-.01.61-.04.8c-.01.21-.05.45-.1.72s-.13.52-.25.75c-.11.23-.26.41-.45.55-.18.14-.42.18-.71.12-.22-.04-.42-.15-.58-.31-.17-.16-.3-.36-.42-.6s-.2-.51-.28-.81c-.07-.3-.13-.61-.17-.92-.04-.32-.07-.65-.09-.97-.02-.32-.03-.62-.04-.91,0-.28,0-.54,0-.78,0-.24,0-.43,0-.57-.01-.46-.04-.93-.07-1.41-.03-.47-.05-.94-.05-1.4,0-.29.01-.61.04-.96.03-.35.1-.67.22-.96.12-.29.29-.51.52-.68s.55-.21.96-.13c.22.04.42.15.57.33.16.17.29.38.38.61.1.23.17.47.23.72.05.25.09.47.1.67.32-.45.67-.8,1.07-1.05s.91-.33,1.54-.23c.32.05.63.14.94.27.31.13.59.3.85.52.26.21.47.47.63.76.16.29.25.62.27.98.03.43-.1.73-.38.9-.28.17-.61.23-1.01.16Z"/>
        <path class="st12" d="M217.25,351.9c-.32-.06-.68-.18-1.08-.35-.4-.17-.78-.39-1.14-.64-.36-.25-.66-.53-.9-.84-.24-.31-.37-.64-.37-.98,0-.13.03-.26.1-.38.07-.12.15-.22.27-.29.11-.08.23-.13.37-.17.13-.03.27-.04.41-.01.16.03.31.08.46.16.15.07.31.16.46.26.17.1.34.19.5.27.16.08.34.14.52.18.33.06.62,0,.86-.17.24-.18.45-.43.62-.76.17-.33.31-.71.42-1.13.11-.42.19-.84.25-1.27.06-.42.1-.82.13-1.2s.04-.68.06-.92c-.46.61-.92,1.06-1.37,1.35-.46.29-1.01.37-1.67.25-.5-.09-.94-.28-1.31-.56-.38-.28-.69-.62-.96-1.01-.26-.39-.48-.83-.65-1.3-.17-.47-.3-.96-.38-1.45-.09-.49-.14-.97-.17-1.42-.03-.46-.03-.88,0-1.25.01-.29.05-.66.11-1.12.06-.46.15-.9.29-1.32.13-.42.32-.77.55-1.03s.55-.35.93-.25c.25.06.45.21.61.44.16.23.29.51.39.83.1.32.17.67.22,1.04.05.37.08.74.09,1.09s.02.69,0,.98,0,.52,0,.68c0,.22,0,.45.02.68.01.23.06.44.14.63.08.19.2.36.37.49.16.14.4.23.7.29.34.06.62.03.82-.1.2-.13.36-.32.45-.56s.16-.5.19-.79c.03-.29.04-.57.04-.83v-.67c0-.26,0-.54,0-.83s.03-.57.08-.84c.05-.27.12-.52.22-.73.1-.21.23-.38.39-.49.17-.11.38-.15.64-.1.33.06.61.25.85.55s.44.68.6,1.12c.16.45.3.93.4,1.45s.17,1.03.23,1.54.09.97.11,1.38c.02.42.03.75.03.98,0,.55-.02,1.18-.06,1.88-.04.7-.12,1.41-.23,2.13-.11.72-.28,1.42-.5,2.1-.22.68-.52,1.26-.88,1.76-.36.5-.81.87-1.33,1.11-.53.24-1.16.29-1.9.15Z"/>
      </g>
      <g>
        <path class="st12" d="M166.39,343.53c0,.59-.13,1.14-.38,1.66-.26.52-.6.96-1.02,1.34-.43.37-.91.65-1.46.84-.55.19-1.11.24-1.69.16-.01.19-.02.44-.02.74s-.03.61-.06.93c-.03.32-.08.64-.14.96-.06.32-.15.59-.26.83-.11.24-.26.42-.44.55-.18.13-.4.17-.66.12-.3-.06-.55-.21-.73-.44-.18-.24-.32-.5-.41-.81-.09-.3-.16-.61-.19-.93-.03-.32-.05-.58-.06-.81-.02-.32-.04-.63-.04-.94,0-.31,0-.62,0-.93v-.79c0-.39,0-.83,0-1.32,0-.5.01-1.01.03-1.55s.03-1.04.05-1.5c.02-.46.05-.85.07-1.17.03-.32.06-.51.11-.55.01,0,.04-.03.1-.05.05-.03.12-.05.18-.08.06-.03.12-.05.18-.07.05-.02.09-.04.11-.04.5-.19,1.05-.33,1.65-.42.6-.09,1.2-.08,1.79.03.5.1.96.28,1.37.56.41.28.76.61,1.05,1,.29.39.51.82.66,1.29.15.47.23.94.23,1.41ZM163.56,343.37c0-.22-.05-.42-.16-.6-.1-.18-.28-.3-.52-.34-.21-.04-.42-.04-.62,0-.21.04-.4.09-.57.15.03.39.06.76.09,1.13s.03.74,0,1.12c.17-.05.37-.12.57-.2.21-.07.4-.17.57-.28s.32-.24.44-.4.18-.35.18-.58Z"/>
        <path class="st12" d="M174.08,351.45c0,.2,0,.45-.02.76-.02.31-.06.61-.14.9-.08.29-.2.52-.36.71-.16.19-.39.25-.69.2-.4-.08-.71-.27-.93-.57-.22-.3-.32-.65-.31-1.04-.35.24-.75.4-1.19.5-.44.09-.89.09-1.35,0-.32-.06-.62-.19-.9-.4-.28-.21-.54-.45-.75-.73-.22-.28-.39-.58-.52-.91-.13-.32-.2-.63-.2-.93,0-.52.16-.95.48-1.28.32-.33.72-.59,1.19-.78.47-.19.97-.32,1.5-.38.53-.06,1-.08,1.42-.06,0-.05,0-.1,0-.15s0-.09,0-.15c0-.34-.09-.63-.28-.87-.19-.24-.45-.4-.79-.46-.27-.05-.51-.05-.7,0-.2.06-.38.12-.56.21-.17.08-.35.15-.52.21-.17.06-.37.07-.59.03-.24-.05-.45-.16-.61-.35s-.25-.4-.25-.64c0-.36.11-.67.32-.92.21-.25.48-.45.8-.59.32-.14.67-.23,1.05-.28.38-.04.72-.03,1.04.03.29.06.59.15.88.27.29.13.57.29.83.49.26.2.5.42.71.68.21.25.38.53.52.84.2.44.35.9.47,1.38.12.48.21.96.28,1.44.07.49.11.97.13,1.45.02.48.03.94.03,1.39ZM171.46,350.43l-.05-1.12s-.04-.01-.07-.02-.04-.02-.07-.02c-.14-.03-.32-.03-.53,0-.21.03-.42.09-.61.18-.2.09-.36.2-.5.32-.14.13-.2.27-.2.44,0,.15.05.27.16.34s.24.13.38.15c.24.05.5.03.77-.04.27-.07.51-.15.72-.23Z"/>
        <path class="st12" d="M179.21,355.32c-.77-.15-1.38-.36-1.81-.65-.43-.28-.75-.63-.97-1.04-.21-.41-.34-.88-.38-1.42-.04-.53-.07-1.12-.07-1.76,0-.51.02-1.03.05-1.54.03-.51.08-1.06.15-1.63-.15-.03-.27-.05-.36-.06-.09-.01-.16-.02-.21-.03-.35-.07-.65-.2-.91-.4-.26-.2-.38-.46-.38-.78,0-.2.07-.36.22-.48s.34-.22.56-.29c.23-.07.48-.11.75-.12s.52,0,.76.01c0-.3.02-.64.07-1,.04-.36.12-.69.24-1,.12-.3.27-.54.47-.72.2-.18.45-.24.75-.18.17.03.33.11.47.24.14.13.25.28.33.46.09.17.15.37.2.57.04.21.07.4.07.59,0,.22-.02.44-.05.66-.03.22-.09.5-.18.82.19.01.31.02.38.03.07,0,.13.02.18.03.18.04.38.09.58.16.2.07.39.16.56.27.17.11.31.24.42.38.11.15.16.31.16.48,0,.2-.08.36-.24.48-.16.12-.36.22-.6.28-.24.06-.5.1-.77.11s-.53,0-.77-.02c-.07.44-.11.84-.14,1.21-.03.37-.06.75-.09,1.12-.02.18-.04.37-.06.55-.02.19-.03.38-.03.58,0,.14,0,.31.02.5.01.19.05.38.11.57.07.19.17.36.31.51s.34.25.59.3c.15.03.31.04.47.05.16,0,.33.02.49.05.28.05.49.19.61.41.13.22.19.48.19.79,0,.23-.07.42-.21.56-.14.14-.31.25-.52.31-.21.06-.44.1-.7.11s-.5-.01-.73-.06Z"/>
        <path class="st12" d="M189.45,352.43c0,.19,0,.46,0,.83,0,.37-.02.74-.05,1.14-.03.39-.06.76-.11,1.11-.04.35-.1.6-.16.75-.09.19-.2.35-.34.47-.14.13-.33.17-.57.12-.37-.07-.64-.27-.8-.59-.16-.33-.27-.71-.33-1.16-.05-.45-.08-.93-.07-1.44.01-.51,0-.99-.02-1.43-.02-.44-.08-.82-.18-1.13-.1-.31-.28-.49-.54-.54-.36-.07-.64-.06-.83.02-.19.08-.33.2-.41.37-.08.17-.13.37-.15.61-.02.24-.04.48-.06.74-.02.25-.04.58-.05,1.01-.01.42-.06.83-.15,1.23-.09.4-.23.73-.43.99-.2.26-.5.36-.89.28-.24-.04-.43-.17-.58-.39-.15-.21-.26-.48-.35-.79-.09-.31-.15-.65-.19-1.02s-.06-.72-.07-1.07c0-.34,0-.66,0-.94,0-.28,0-.5,0-.64,0-.22,0-.58.03-1.08.02-.5.05-1.05.11-1.66.05-.61.12-1.23.21-1.87.09-.64.2-1.21.34-1.73.14-.51.31-.92.51-1.22.2-.3.44-.42.71-.36.17.04.32.15.45.31.12.17.23.37.31.61.08.24.15.5.21.77s.1.54.12.8c.03.26.04.5.05.72,0,.22,0,.39,0,.51,0,.28,0,.57-.02.85-.01.28-.03.56-.05.84.25-.29.59-.51,1.01-.64.42-.14.84-.17,1.27-.09.55.1.96.33,1.24.68.28.35.48.76.6,1.23.12.46.19.95.2,1.45.01.5.02.94.02,1.34Z"/>
      </g>
      <path class="st12" d="M132.19,334.13c-.43-.14-.86-.26-1.29-.36-1.57-.36-3.48-.58-4.45.65-.94,1.2-.93,3.23-.54,4.87.93,3.92,4.23,6.2,7.55,8.1,1.79,1.02,3.68,2.05,5.14,3.62,1.47,1.58,2.49,3.92,1.66,5.7-.24.51.58,1.14.82.63.78-1.68.37-3.74-.78-5.54-1.2-1.87-3.05-3.18-4.89-4.29-2.23-1.34-4.71-2.46-6.54-4.47-1.72-1.88-2.59-4.49-2.15-6.7.29-1.46,1.22-2.01,2.74-1.87,1.21.11,2.44.47,3.63.94,0,0,0,0,0,0l-.84-1.11c-.04-.06-.07-.12-.08-.18Z"/>
      <path class="st12" d="M106.16,310.94c-.61-1.69-2.24-2.83-3.88-3.09-1.2-.19-2.28.07-3.15.66-.13-1.33.03-2.64.42-3.82.12-.36.26-.71.42-1.03l.81,1.15c.19.27.56.27.65,0l.46-1.43c.03-.1.12-.18.22-.2l1.48-.28c.28-.05.33-.42.08-.64l-1.3-1.15s-.09-.09-.11-.15c-.03-.05-.04-.11-.05-.17l-.05-1.03-.03-.57c-.02-.3-.36-.53-.6-.39l-1.26.72c-.09.05-.21.05-.32,0l-1.53-.7c-.29-.13-.55.1-.45.4l.52,1.59c.04.12.02.23-.04.32l-.86,1.16c-.16.22.02.59.32.64l1.2.2c-.82,1.73-1.23,3.99-.85,6.16-.15.18-.3.36-.42.56-2.16,3.38-.77,8.35,1.36,12.22.32.58,1.13.26.82-.32-1.87-3.4-3.36-8.2-1.43-11.18.34,1.03.88,2,1.66,2.85,1.33,1.44,3.39,2.31,4.92,1.48,1.27-.68,1.55-2.45,1.01-3.96ZM104.26,314.16c-2.14.66-4.18-1.8-4.78-3.81-.07-.23-.13-.45-.18-.68,1.26-1.16,3.55-1.35,5.15.19,1.35,1.3,1.45,3.79-.19,4.29Z"/>
      <path class="st12" d="M121.54,292.05l-1.57-.47c-.11-.03-.22-.12-.28-.23l-.82-1.51c-.16-.29-.53-.33-.66-.09l-.65,1.32c-.05.1-.14.16-.25.16l-1.54.07c-.29.01-.39.36-.17.61l.99,1.09c-.83.19-1.63.45-2.38.81-2.06.98-3.91,2.69-4.95,4.86-.12-.03-.24-.05-.36-.07-2.41-.43-4.83,0-6.74,1.16l.05,1.03c0,.06.02.12.05.17,1.36-.98,3.07-1.52,4.95-1.55.54,0,1.11.03,1.68.13-.32.9-.5,1.86-.51,2.87,0,1.53.49,3.39,1.92,4.45,1.54,1.14,3.35.68,4.19-.59.95-1.43.39-3.46-.82-4.99-.9-1.13-2.12-1.88-3.39-2.32.13-.25.27-.5.42-.73,1.4-2.21,3.59-3.62,6.14-4.23l-.09,1.09c-.02.29.3.56.56.46l1.38-.52c.1-.04.22-.02.33.04l1.46.89c.28.17.57-.02.51-.32l-.32-1.61c-.02-.12,0-.23.08-.3l.04-.03.89-.86.11-.11c.2-.19.06-.57-.24-.66ZM112.27,301.04c1.7,1.47,2.59,4.3.63,5.3-1.97,1.01-3.42-1.47-3.56-3.25-.09-1.16.15-2.29.56-3.32.85.26,1.67.66,2.37,1.27Z"/>
      <path class="st12" d="M157.25,308.52c.21-.18.09-.56-.2-.67l-1.56-.57c-.11-.04-.21-.13-.27-.24l-.74-1.54c-.14-.29-.52-.36-.66-.13l-.55.95c-.45-.49-.94-.93-1.48-1.31-.8-.58-1.65-1.01-2.53-1.3-.51-1.67-1.56-3.27-3.04-4.54-3.21-2.75-7.61-3.62-11.3-3.85-1.77-.11-3.51.05-5.04.59-.87-.61-1.8-1.12-2.73-1.54-1.77-.79-3.63-1.32-5.48-1.56l-.89.86c2.6.16,5.7.98,8.18,2.62-1.15.56-2.15,1.37-2.9,2.51-1.65,2.49-2.6,7.42,1.14,9.8,1.54.98,3.46,1.04,4.78.27,1.48-.85,2.19-2.58,2.3-4.37.13-2.07-.55-4.39-1.93-6.24-.44-.59-.95-1.13-1.51-1.61,1.14-.33,2.4-.46,3.7-.42,3.28.1,7.25.82,10.26,2.92,1.61,1.12,2.8,2.62,3.41,4.25-2.31-.51-4.69-.2-6.62.6-1.6.67-2.93,1.95-2.96,3.9-.02,1.81,1.23,3.44,3,4.1,3.32,1.23,6.42-.66,7.52-3.44.48-1.2.58-2.5.37-3.79,1.08.45,2.08,1.12,2.94,1.99l-1.2-.02c-.3,0-.41.33-.2.59l1.1,1.34c.08.1.12.22.1.33l-.23,1.52c-.04.29.26.57.53.49l1.42-.43c.1-.03.23,0,.33.06l.75.51.67.46c.16.11.34.09.44,0,.07-.06.11-.16.09-.28l-.23-1.61c-.02-.12.02-.23.1-.29l1.1-.93ZM131.59,298.69c2.46,3.19,2.69,9.64-1.75,9.75-1.99.05-3.68-1.45-4.16-3.49-.44-1.85.13-3.69.95-5.11.79-1.36,1.93-2.28,3.29-2.85.62.5,1.19,1.07,1.67,1.7ZM148.27,308.05c-.51,1.33-1.49,2.42-2.79,2.96-1.4.59-3.49.67-4.92-.65-2.04-1.88-.59-4.38,1.01-5.21,1.45-.76,3.27-1.09,5.02-1.02.66.03,1.31.13,1.94.31.26,1.2.2,2.44-.25,3.61Z"/>
      <path class="st12" d="M162.09,316.15c-1.35-1.48-3.27-1.99-5-2.18-.15-.02-.29-.03-.44-.04-.08-.76-.24-1.53-.46-2.3-.1.1-.28.12-.44,0l-.67-.46c.29.87.51,1.78.61,2.68-1.33-.07-2.66-.03-3.91.19-1.68.28-3.44.91-4.32,2.37-.89,1.48-.32,3.5,1.38,4.65,1.87,1.26,4.12.82,5.53-.25,1.42-1.08,2.18-2.84,2.33-4.74.03-.38.04-.78.02-1.19.12.01.24.02.37.03,1.86.2,3.85.77,4.99,2.65,2.12,3.51,1.14,7.71-1.28,9.86-1.46,1.3-3.15,1.92-4.95,2.08l.56-1.11c.13-.25-.11-.59-.4-.6l-1.56-.03c-.11,0-.23-.06-.32-.15l-1.16-1.29c-.22-.24-.58-.19-.62.1l-.23,1.52c-.02.11-.09.2-.19.24l-1.38.51c-.06.02-.1.06-.13.1-.11.16-.06.42.15.56l.98.67.44.3c.1.07.18.18.2.3l.31,1.61c.06.31.42.48.63.31l1.11-.92c.08-.07.2-.09.31-.05l1.57.48c.3.09.51-.18.37-.47l-.57-1.2c2.83-.22,5.36-1.4,6.91-3.71,1.77-2.65,2.06-7.46-.73-10.52ZM152.93,320.48c-.91.43-2.09.58-3.18.09-1.27-.56-2.12-1.91-1.68-3.13.58-1.63,2.58-2.24,4.19-2.48,1.12-.17,2.3-.21,3.49-.15.08,2.44-.69,4.66-2.82,5.66Z"/>
      <path class="st12" d="M117.06,319.31c.15-.13.31-.24.47-.36l-.56-1.33c-.12-.3-.5-.39-.66-.16l-.82,1.2c-.06.09-.16.13-.28.12l-1.57-.12c-.3-.02-.44.3-.24.57l1.03,1.4c.08.1.11.23.08.33l-.32,1.49c-.06.28.23.58.51.52l.74-.17c-.14-1.46.62-2.66,1.61-3.48Z"/>
      <path class="st12" d="M116.38,322.33c-.01.1-.01.21-.01.32.04.02.09.04.13.07l1.38,1.04c.26.2.58.05.56-.25l-.13-1.6c0-.12.03-.22.12-.28l1.17-.85c.22-.16.13-.55-.17-.67l-1.07-.45c-.95.6-1.84,1.46-1.97,2.68Z"/>
      <path class="st12" d="M116.37,322.65c0-.11,0-.21.01-.32.13-1.21,1.02-2.08,1.97-2.68l-.47-.2c-.11-.05-.21-.14-.25-.26l-.1-.24c-.16.11-.32.23-.47.36-.99.82-1.75,2.03-1.61,3.48l.72-.17c.06-.01.13,0,.2.02Z"/>
      <path class="st12" d="M133.32,335.7c.08.1.11.22.09.33l-.3,1.5c-.06.28.24.58.51.51l1.45-.35c.11-.03.23,0,.33.08l1.38,1.03c.26.2.58.05.55-.26l-.11-1.2c-1.36-.68-2.72-1.37-4.12-1.92l.21.28Z"/>
      <path class="st12" d="M138.46,335.79c.22-.16.12-.55-.17-.67l-1.55-.64c-.11-.05-.21-.14-.26-.25l-.67-1.56c-.13-.3-.51-.39-.66-.16l-.81,1.21c-.06.09-.16.14-.28.13l-1.57-.1c-.23-.02-.36.18-.32.4,1.81.59,3.55,1.5,5.3,2.38l.97-.72Z"/>
      <path class="st12" d="M137.31,336.65l.18-.14c-1.75-.87-3.49-1.78-5.3-2.38.01.06.04.12.08.18l.84,1.11c1.4.55,2.75,1.24,4.12,1.92l-.04-.41c-.01-.12.03-.22.12-.29Z"/>
      <path class="st12" d="M128.97,318.28c-.13-.04-.26-.08-.4-.12.42-.5.86-1,1.31-1.47,3.51,1.83,9.1,6.38,12.25,3.3,1.22-1.19,1.09-3.31.02-4.98-1.1-1.73-3.08-2.73-4.9-2.92-3.15-.32-5.66,1.41-7.69,3.45-3.83-1.93-7.9-3.33-11.9-3.41-3.54-.07-7.06.92-9.33,3.35-2.04,2.19-3.46,5.69-2.71,9.14.66,3.04,3.33,5.12,6.11,6.11,3.95,1.4,8.16,1.53,11.97,1.14,4.12-.42,7.92-1.59,11.79-2.68,3.35-.94,7.91-1.44,11.01,2.02,1.5,1.68,1.9,4.03,1.24,5.82-.73,1.97-2.93,2.12-4.95,1.63-1.83-.44-3.58-1.27-5.32-2.14l-.18.14c-.08.06-.13.17-.12.29l.04.41c.99.49,1.97.97,2.98,1.38,1.94.8,4.08,1.44,5.96.99,1.89-.45,2.77-2.13,2.84-4.1.14-3.97-3.29-7.09-7.02-7.9-2.32-.5-4.57-.08-6.64.48-2.34.63-4.61,1.39-7,1.91-4.78,1.05-9.93,1.46-15.14.1-1.82-.48-3.77-1.29-5.16-2.81-1.62-1.78-1.85-4.03-1.49-6.01.82-4.59,4.26-7.52,8.76-8.15,4.46-.63,9.2.8,13.63,2.97-.44.48-.87.97-1.26,1.44-.05.06-.16.18-.21.24M133.91,313.67c1.68-.76,3.78-1,5.73.11,1.92,1.1,3.3,3.89,1.82,5.41-1.36,1.4-3.78.76-5.61-.16-1.81-.91-3.53-2.03-5.32-3,1-.95,2.1-1.78,3.38-2.37Z"/>
      <path class="st12" d="M118.78,326.19c1.69.08,3.12-.96,4.28-1.9,1.25-1.01,2.32-2.22,3.34-3.45.52-.62,1.02-1.26,1.54-1.9.46.12.91.27,1.36.42h-.02c-2.23-.94-3.26-.9-3.5-.88.35.05.7.12,1.06.19-.97,1.2-1.94,2.41-3.02,3.51-.67.68-1.38,1.31-2.16,1.86-.92.65-2.17,1.47-3.5,1.12-1.13-.3-1.77-1.46-1.79-2.51-.07-.02-.14-.03-.2-.02l-.72.17c.02.17.04.34.08.52.37,1.58,1.7,2.8,3.25,2.87Z"/>
      <path class="st12" d="M128.5,319.09c3.68,1.11,7.23,3.22,10.66,5.25,3.96,2.35,8.07,4.73,12.38,5.68l-.98-.67c-.21-.14-.26-.41-.15-.56-4.16-1.24-8.45-3.81-11.96-5.89-3.05-1.8-6.18-3.58-9.45-4.62,0,0-1.02-.33-1.54-.44-.26-.05-.52-.12-.77-.17-3.24-.64-6.69-.45-9.16,1.27l.1.24c.05.11.14.21.25.26l.47.2c.13-.08.26-.16.39-.23,1.78-.99,3.98-1.26,6.18-1.05.62.06,1.24.16,1.86.28"/>
    </g>
  </g>
</svg>