<?xml version="1.0" encoding="UTF-8"?>
<svg id="Layer_1" xmlns="http://www.w3.org/2000/svg" version="1.1" viewBox="0 0 412.14 480">
  <!-- Generator: Adobe Illustrator 29.7.1, SVG Export Plug-In . SVG Version: 2.1.1 Build 8)  -->
  <defs>
    <style>
      .st0 {
        fill: #002e52;
      }

      .st1 {
        fill: #523cac;
      }

      .st2 {
        fill: #adc716;
      }

      .st3 {
        fill: #33c5b5;
      }

      .st4 {
        fill: #e44c17;
      }

      .st5 {
        fill: #dd2080;
      }

      .st6 {
        fill: #ecaa19;
      }
    </style>
  </defs>
  <path class="st2" d="M324.96,146.42c-.12-.21-.25-.42-.37-.63l-8.88,5.13c.12.21.25.42.37.63,10.7,18.59,16.83,40.14,16.83,63.09s-6.13,44.5-16.83,63.09l8.88,5.13c11.58-20.1,18.21-43.4,18.21-68.22s-6.63-48.12-18.21-68.22Z"/>
  <g>
    <path class="st6" d="M206.43,77.54c-.12,0-.24,0-.37,0s-.24,0-.37,0v10.25c.12,0,.24,0,.37,0s.24,0,.37,0c46.58.13,87.32,25.5,109.27,63.12l8.88-5.13c-23.72-40.68-67.79-68.11-118.15-68.25Z"/>
    <path class="st1" d="M206.07,341.48c-.12,0-.24,0-.37,0-46.58-.13-87.32-25.5-109.27-63.12l-8.88,5.12c23.72,40.68,67.79,68.11,118.15,68.25.12,0,.24,0,.37,0s.24,0,.37,0v-10.25c-.12,0-.24,0-.37,0Z"/>
    <path class="st4" d="M316.08,277.73c-.12.21-.25.42-.37.63-21.95,37.62-62.7,62.99-109.27,63.12v10.25c50.36-.13,94.43-27.56,118.15-68.25.12-.21.25-.42.37-.63l-8.88-5.13Z"/>
    <path class="st3" d="M87.55,145.79c-.12.21-.25.42-.37.63l8.88,5.12c.12-.21.25-.42.37-.63,21.95-37.62,62.7-62.98,109.27-63.12v-10.25c-50.36.13-94.43,27.56-118.15,68.24Z"/>
    <path class="st5" d="M96.06,277.73c-10.71-18.59-16.83-40.14-16.83-63.09s6.13-44.5,16.83-63.09l-8.88-5.12c-11.58,20.1-18.21,43.4-18.21,68.22s6.63,48.12,18.21,68.22c.12.21.25.42.37.63l8.88-5.12c-.12-.21-.25-.42-.37-.63Z"/>
    <path class="st6" d="M176.03,224.97l-14.05-13.49c-4.43-4.25-2-11.73,4.08-12.57l19.3-2.65c2.43-.33,4.54-1.86,5.61-4.07l8.49-17.53c2.67-5.52,10.54-5.52,13.22,0l8.49,17.53c1.07,2.21,3.17,3.74,5.61,4.07l19.3,2.65c6.08.84,8.51,8.32,4.08,12.57l-14.05,13.49c-1.77,1.7-2.58,4.17-2.14,6.59l3.44,19.17c1.08,6.04-5.28,10.67-10.69,7.77l-17.17-9.19c-2.17-1.16-4.77-1.16-6.93,0l-17.17,9.19c-5.41,2.9-11.78-1.73-10.69-7.77l3.44-19.17c.43-2.42-.37-4.89-2.14-6.59Z"/>
    <g>
      <path class="st0" d="M137.49,395.97c0,.4-.15.73-.44,1-.29.27-.63.4-1.01.4-.43,0-.78-.13-1.04-.4-.26-.27-.39-.6-.39-1v-13.31c0-.4.14-.73.41-1s.63-.4,1.06-.4c.37,0,.69.13.98.4.28.27.43.6.43,1v13.31Z"/>
      <path class="st0" d="M153.17,381.26c.37,0,.67.12.9.37.23.25.35.55.35.92v13.42c0,.4-.13.73-.4,1-.27.27-.6.4-1,.4-.2,0-.4-.03-.61-.1s-.37-.17-.47-.29l-9.05-11.49.6-.37v10.96c0,.37-.12.68-.36.92-.24.25-.55.37-.93.37s-.67-.12-.9-.37c-.23-.25-.35-.55-.35-.92v-13.42c0-.4.13-.73.4-1,.27-.27.6-.4,1-.4.21,0,.44.04.67.13.23.08.4.21.51.38l8.77,11.19-.39.28v-10.68c0-.37.12-.67.35-.92.23-.25.54-.37.92-.37Z"/>
      <path class="st0" d="M170.09,381.26c.37,0,.67.12.9.37.23.25.35.55.35.92v13.42c0,.4-.13.73-.4,1-.27.27-.6.4-1,.4-.2,0-.4-.03-.61-.1s-.37-.17-.47-.29l-9.05-11.49.6-.37v10.96c0,.37-.12.68-.36.92-.24.25-.55.37-.93.37s-.67-.12-.9-.37c-.23-.25-.35-.55-.35-.92v-13.42c0-.4.13-.73.4-1,.27-.27.6-.4,1-.4.21,0,.44.04.67.13.23.08.4.21.51.38l8.77,11.19-.39.28v-10.68c0-.37.12-.67.35-.92.23-.25.54-.37.92-.37Z"/>
      <path class="st0" d="M176.19,381.26h7.71c.4,0,.73.13,1,.38s.4.58.4.98-.13.69-.4.93-.6.36-1,.36h-6.45l.21-.39v4.49l-.18-.18h5.39c.4,0,.73.13,1,.38.27.25.4.58.4.98s-.13.69-.4.93c-.27.24-.6.36-1,.36h-5.32l.12-.18v4.65l-.18-.21h6.42c.4,0,.73.13,1,.4.27.27.4.58.4.93,0,.38-.13.7-.4.94s-.6.37-1,.37h-7.71c-.4,0-.73-.13-1-.4-.27-.27-.4-.6-.4-1v-13.31c0-.4.13-.73.4-1,.27-.27.6-.4,1-.4Z"/>
      <path class="st0" d="M189.61,397.38c-.43,0-.81-.13-1.15-.4-.34-.27-.51-.6-.51-1v-13.31c0-.4.13-.73.4-1,.27-.27.6-.4,1-.4h6.63c.8,0,1.55.21,2.24.63.7.42,1.26,1.01,1.69,1.75.43.75.64,1.6.64,2.57,0,.58-.12,1.15-.36,1.7-.24.55-.56,1.05-.97,1.5-.41.45-.86.79-1.37,1.04l.02-.53c.43.23.79.5,1.07.82.28.32.51.65.67,1.01s.26.75.29,1.16c.06.38.1.72.13,1.01.02.29.07.54.14.74.07.2.2.35.4.46.34.2.55.49.63.86.08.38,0,.71-.26,1-.17.2-.38.33-.64.38s-.52.05-.78,0c-.26-.05-.48-.13-.65-.22-.26-.15-.52-.38-.78-.68-.26-.3-.47-.7-.63-1.21-.16-.51-.24-1.16-.24-1.96,0-.26-.05-.5-.14-.73-.09-.22-.22-.41-.39-.58-.17-.16-.38-.28-.64-.37-.26-.08-.57-.13-.92-.13h-4.65l.35-.53v5c0,.4-.11.73-.32,1-.21.27-.51.4-.9.4ZM190.51,389.13h5.36c.28,0,.54-.13.81-.38s.48-.6.64-1.04.25-.92.25-1.44c0-.67-.18-1.24-.54-1.69-.36-.45-.75-.68-1.16-.68h-5.32l.28-.74v6.52l-.32-.55Z"/>
      <path class="st0" d="M215.4,397.61c-1.07,0-2.04-.13-2.9-.4s-1.68-.74-2.46-1.42c-.2-.17-.35-.36-.46-.58s-.16-.43-.16-.64c0-.35.13-.66.38-.93.25-.27.57-.4.96-.4.29,0,.55.09.78.28.58.48,1.16.84,1.74,1.08.58.25,1.29.37,2.13.37.57,0,1.09-.09,1.57-.27.48-.18.86-.41,1.15-.71.29-.3.44-.64.44-1.03,0-.46-.14-.85-.42-1.17-.28-.32-.7-.59-1.27-.82-.57-.22-1.29-.39-2.16-.52-.83-.12-1.56-.31-2.19-.56-.63-.25-1.16-.58-1.58-.97s-.74-.85-.96-1.38c-.22-.53-.32-1.12-.32-1.78,0-1,.26-1.85.77-2.56.51-.71,1.21-1.24,2.08-1.61s1.84-.55,2.9-.55c1,0,1.92.15,2.77.45.85.3,1.55.68,2.08,1.14.45.35.67.76.67,1.22,0,.34-.13.65-.39.92-.26.28-.57.42-.92.42-.23,0-.44-.07-.62-.21-.25-.21-.58-.42-.99-.61-.42-.19-.85-.35-1.31-.48-.46-.13-.89-.2-1.29-.2-.66,0-1.22.08-1.67.25-.45.17-.79.4-1.02.69-.23.29-.34.63-.34,1.01,0,.46.13.84.4,1.14.27.3.66.54,1.16.71.51.18,1.11.33,1.82.47.92.17,1.73.37,2.43.6.7.23,1.28.53,1.74.89.46.36.81.81,1.04,1.36.23.54.35,1.21.35,1.99,0,1-.28,1.86-.83,2.58s-1.28,1.27-2.18,1.66c-.9.38-1.87.58-2.91.58Z"/>
      <path class="st0" d="M224.33,383.91c-.4,0-.73-.12-1-.37-.27-.25-.4-.57-.4-.97s.13-.72.4-.96c.27-.24.6-.36,1-.36h10.22c.4,0,.73.12,1,.37.27.25.4.57.4.97s-.13.72-.4.96-.6.36-1,.36h-10.22ZM229.42,397.38c-.43,0-.78-.13-1.06-.4-.28-.27-.41-.6-.41-1v-13.35h2.99v13.35c0,.4-.14.73-.43,1-.28.27-.65.4-1.09.4Z"/>
      <path class="st0" d="M243.14,384.87l-4.97,11.7c-.11.29-.27.52-.5.68s-.46.24-.72.24c-.42,0-.72-.12-.92-.35-.2-.23-.3-.51-.3-.85,0-.14.02-.28.07-.44l5.73-13.77c.12-.31.31-.54.56-.71.25-.17.53-.24.82-.21.28,0,.53.08.77.24.24.16.41.39.52.68l5.66,13.49c.08.2.11.38.11.55,0,.41-.13.74-.4.99-.27.25-.56.37-.89.37-.28,0-.53-.08-.75-.25-.22-.17-.4-.4-.52-.69l-4.95-11.53.67-.14ZM238.88,393.76l1.27-2.65h6.22l.44,2.65h-7.92Z"/>
      <path class="st0" d="M253.59,397.38c-.43,0-.81-.13-1.15-.4-.34-.27-.51-.6-.51-1v-13.31c0-.4.13-.73.4-1s.6-.4,1-.4h6.63c.8,0,1.55.21,2.25.63.7.42,1.26,1.01,1.69,1.75.43.75.64,1.6.64,2.57,0,.58-.12,1.15-.36,1.7-.24.55-.56,1.05-.97,1.5-.41.45-.86.79-1.37,1.04l.02-.53c.43.23.79.5,1.07.82.28.32.51.65.67,1.01s.26.75.29,1.16c.06.38.1.72.13,1.01.02.29.07.54.14.74.07.2.2.35.4.46.34.2.55.49.63.86.08.38,0,.71-.26,1-.17.2-.38.33-.64.38-.26.05-.52.05-.78,0s-.48-.13-.64-.22c-.26-.15-.52-.38-.78-.68-.26-.3-.47-.7-.63-1.21s-.24-1.16-.24-1.96c0-.26-.05-.5-.14-.73-.09-.22-.22-.41-.39-.58s-.38-.28-.64-.37-.57-.13-.92-.13h-4.65l.34-.53v5c0,.4-.11.73-.32,1-.21.27-.51.4-.9.4ZM254.49,389.13h5.36c.28,0,.54-.13.81-.38.26-.25.48-.6.64-1.04s.25-.92.25-1.44c0-.67-.18-1.24-.54-1.69-.36-.45-.75-.68-1.16-.68h-5.32l.28-.74v6.52l-.32-.55Z"/>
      <path class="st0" d="M272.93,397.61c-1.07,0-2.04-.13-2.9-.4s-1.68-.74-2.46-1.42c-.2-.17-.35-.36-.46-.58s-.16-.43-.16-.64c0-.35.13-.66.38-.93.25-.27.57-.4.96-.4.29,0,.55.09.78.28.58.48,1.16.84,1.74,1.08.58.25,1.29.37,2.13.37.57,0,1.09-.09,1.57-.27.48-.18.86-.41,1.15-.71.29-.3.44-.64.44-1.03,0-.46-.14-.85-.42-1.17-.28-.32-.7-.59-1.27-.82-.57-.22-1.29-.39-2.16-.52-.83-.12-1.56-.31-2.19-.56-.63-.25-1.16-.58-1.58-.97s-.74-.85-.96-1.38c-.22-.53-.32-1.12-.32-1.78,0-1,.26-1.85.77-2.56.51-.71,1.21-1.24,2.08-1.61s1.84-.55,2.9-.55c1,0,1.92.15,2.77.45.85.3,1.55.68,2.08,1.14.45.35.67.76.67,1.22,0,.34-.13.65-.39.92-.26.28-.57.42-.92.42-.23,0-.44-.07-.62-.21-.25-.21-.58-.42-.99-.61-.42-.19-.85-.35-1.31-.48-.46-.13-.89-.2-1.29-.2-.66,0-1.22.08-1.67.25-.45.17-.79.4-1.02.69-.23.29-.34.63-.34,1.01,0,.46.13.84.4,1.14.27.3.66.54,1.16.71.51.18,1.11.33,1.82.47.92.17,1.73.37,2.43.6.7.23,1.28.53,1.74.89.46.36.81.81,1.04,1.36.23.54.35,1.21.35,1.99,0,1-.28,1.86-.83,2.58s-1.28,1.27-2.18,1.66c-.9.38-1.87.58-2.91.58Z"/>
    </g>
  </g>
</svg>