<?xml version="1.0" encoding="UTF-8"?>
<svg id="Layer_1" xmlns="http://www.w3.org/2000/svg" version="1.1" viewBox="0 0 412.14 480">
  <!-- Generator: Adobe Illustrator 29.7.1, SVG Export Plug-In . SVG Version: 2.1.1 Build 8)  -->
  <defs>
    <style>
      .st0 {
        fill: #002e52;
      }

      .st1 {
        fill: #523cac;
      }

      .st2 {
        fill: #adc716;
      }

      .st3 {
        fill: #33c5b5;
      }

      .st4 {
        fill: #e44c17;
      }

      .st5 {
        fill: #dd2080;
      }

      .st6 {
        fill: #ecaa19;
      }
    </style>
  </defs>
  <path class="st0" d="M324.84,146.27c-.12-.21-.25-.42-.37-.63l-8.87,5.12c.12.21.25.42.37.63,10.69,18.57,16.82,40.1,16.82,63.03s-6.12,44.45-16.82,63.03l8.87,5.12c11.57-20.08,18.19-43.36,18.19-68.15s-6.62-48.07-18.19-68.15Z"/>
  <g>
    <path class="st0" d="M206.43,77.47c-.12,0-.24,0-.37,0s-.24,0-.37,0v10.24c.12,0,.24,0,.37,0s.24,0,.37,0c46.53.13,87.24,25.47,109.16,63.05l8.87-5.12c-23.7-40.64-67.72-68.04-118.03-68.18Z"/>
    <path class="st0" d="M206.07,341.14c-.12,0-.24,0-.37,0-46.53-.13-87.24-25.47-109.16-63.05l-8.87,5.12c23.7,40.64,67.72,68.04,118.03,68.18.12,0,.24,0,.37,0s.24,0,.37,0v-10.24c-.12,0-.24,0-.37,0Z"/>
    <path class="st0" d="M315.97,277.45c-.12.21-.25.42-.37.63-21.93,37.58-62.63,62.92-109.16,63.05v10.24c50.31-.13,94.33-27.54,118.03-68.18.12-.21.25-.42.37-.63l-8.87-5.12Z"/>
    <path class="st0" d="M87.67,145.64c-.12.21-.25.42-.37.63l8.87,5.12c.12-.21.25-.42.37-.63,21.93-37.58,62.63-62.92,109.16-63.05v-10.24c-50.31.13-94.33,27.53-118.03,68.18Z"/>
    <path class="st0" d="M96.17,277.45c-10.69-18.57-16.82-40.1-16.82-63.03s6.12-44.46,16.82-63.03l-8.87-5.12c-11.57,20.08-18.19,43.36-18.19,68.15s6.62,48.07,18.19,68.15c.12.21.25.42.37.63l8.87-5.12c-.12-.21-.25-.42-.37-.63Z"/>
    <path class="st6" d="M146.82,192.68l-5.67-5.44c-1.44-1.38-.65-3.82,1.33-4.09l7.78-1.07c.79-.11,1.48-.61,1.83-1.33l3.42-7.07c.87-1.8,3.43-1.8,4.3,0l3.42,7.07c.35.72,1.03,1.22,1.83,1.33l7.78,1.07c1.98.27,2.77,2.71,1.33,4.09l-5.67,5.44c-.58.55-.84,1.36-.7,2.15l1.39,7.73c.35,1.97-1.72,3.47-3.48,2.53l-6.93-3.71c-.7-.38-1.55-.38-2.26,0l-6.93,3.71c-1.76.94-3.83-.56-3.48-2.53l1.39-7.73c.14-.79-.12-1.59-.7-2.15Z"/>
    <path class="st5" d="M195.22,192.68l-5.67-5.44c-1.44-1.38-.65-3.82,1.33-4.09l7.78-1.07c.79-.11,1.48-.61,1.83-1.33l3.42-7.07c.87-1.8,3.43-1.8,4.3,0l3.42,7.07c.35.72,1.03,1.22,1.83,1.33l7.78,1.07c1.98.27,2.77,2.71,1.33,4.09l-5.67,5.44c-.58.55-.84,1.36-.7,2.15l1.39,7.73c.35,1.97-1.72,3.47-3.48,2.53l-6.93-3.71c-.7-.38-1.55-.38-2.26,0l-6.93,3.71c-1.76.94-3.83-.56-3.48-2.53l1.39-7.73c.14-.79-.12-1.59-.7-2.15Z"/>
    <path class="st4" d="M243.63,192.68l-5.67-5.44c-1.44-1.38-.65-3.82,1.33-4.09l7.78-1.07c.79-.11,1.48-.61,1.83-1.33l3.42-7.07c.87-1.8,3.43-1.8,4.3,0l3.42,7.07c.35.72,1.03,1.22,1.83,1.33l7.78,1.07c1.98.27,2.77,2.71,1.33,4.09l-5.67,5.44c-.58.55-.84,1.36-.7,2.15l1.39,7.73c.35,1.97-1.72,3.47-3.48,2.53l-6.93-3.71c-.7-.38-1.55-.38-2.26,0l-6.93,3.71c-1.76.94-3.83-.56-3.48-2.53l1.39-7.73c.14-.79-.12-1.59-.7-2.15Z"/>
    <path class="st2" d="M146.82,243.81l-5.67-5.44c-1.44-1.38-.65-3.82,1.33-4.09l7.78-1.07c.79-.11,1.48-.61,1.83-1.33l3.42-7.07c.87-1.8,3.43-1.8,4.3,0l3.42,7.07c.35.72,1.03,1.22,1.83,1.33l7.78,1.07c1.98.27,2.77,2.71,1.33,4.09l-5.67,5.44c-.58.55-.84,1.36-.7,2.15l1.39,7.73c.35,1.97-1.72,3.47-3.48,2.53l-6.93-3.71c-.7-.38-1.55-.38-2.26,0l-6.93,3.71c-1.76.94-3.83-.56-3.48-2.53l1.39-7.73c.14-.79-.12-1.59-.7-2.15Z"/>
    <path class="st3" d="M195.22,243.81l-5.67-5.44c-1.44-1.38-.65-3.82,1.33-4.09l7.78-1.07c.79-.11,1.48-.61,1.83-1.33l3.42-7.07c.87-1.8,3.43-1.8,4.3,0l3.42,7.07c.35.72,1.03,1.22,1.83,1.33l7.78,1.07c1.98.27,2.77,2.71,1.33,4.09l-5.67,5.44c-.58.55-.84,1.36-.7,2.15l1.39,7.73c.35,1.97-1.72,3.47-3.48,2.53l-6.93-3.71c-.7-.38-1.55-.38-2.26,0l-6.93,3.71c-1.76.94-3.83-.56-3.48-2.53l1.39-7.73c.14-.79-.12-1.59-.7-2.15Z"/>
    <path class="st1" d="M243.63,243.81l-5.67-5.44c-1.44-1.38-.65-3.82,1.33-4.09l7.78-1.07c.79-.11,1.48-.61,1.83-1.33l3.42-7.07c.87-1.8,3.43-1.8,4.3,0l3.42,7.07c.35.72,1.03,1.22,1.83,1.33l7.78,1.07c1.98.27,2.77,2.71,1.33,4.09l-5.67,5.44c-.58.55-.84,1.36-.7,2.15l1.39,7.73c.35,1.97-1.72,3.47-3.48,2.53l-6.93-3.71c-.7-.38-1.55-.38-2.26,0l-6.93,3.71c-1.76.94-3.83-.56-3.48-2.53l1.39-7.73c.14-.79-.12-1.59-.7-2.15Z"/>
    <g>
      <path class="st0" d="M113.59,394.04c.44,0,.8.14,1.09.42.29.28.44.63.44,1.07s-.15.77-.44,1.04c-.29.28-.66.42-1.09.42h-8.17c-.44,0-.8-.15-1.09-.44-.29-.29-.44-.66-.44-1.09v-14.54c0-.44.15-.8.45-1.09.3-.29.69-.44,1.16-.44.4,0,.76.15,1.07.44.31.29.47.66.47,1.09v13.55l-.55-.43h7.12Z"/>
      <path class="st0" d="M119.55,379.38h8.42c.44,0,.8.14,1.09.42.29.28.44.63.44,1.07s-.15.76-.44,1.02c-.29.26-.66.39-1.09.39h-7.04l.23-.43v4.9l-.2-.2h5.88c.44,0,.8.14,1.09.42s.44.63.44,1.07-.15.76-.44,1.02c-.29.26-.66.39-1.09.39h-5.81l.13-.2v5.08l-.2-.23h7.02c.44,0,.8.15,1.09.44.29.29.44.63.44,1.02,0,.42-.15.76-.44,1.03-.29.27-.66.4-1.09.4h-8.42c-.44,0-.8-.15-1.09-.44-.29-.29-.44-.66-.44-1.09v-14.54c0-.44.15-.8.44-1.09s.66-.44,1.09-.44Z"/>
      <path class="st0" d="M138.86,383.33l-5.43,12.78c-.12.32-.3.57-.54.74-.24.18-.51.26-.79.26-.45,0-.79-.13-1.01-.38-.22-.25-.33-.56-.33-.93,0-.15.03-.31.08-.48l6.26-15.04c.13-.34.34-.59.62-.78.28-.18.57-.26.89-.23.3,0,.58.09.84.26s.45.42.57.74l6.19,14.74c.08.22.13.42.13.6,0,.45-.15.81-.44,1.08-.29.27-.62.4-.97.4-.3,0-.58-.09-.82-.28-.24-.18-.43-.44-.57-.75l-5.41-12.6.73-.15ZM134.21,393.03l1.38-2.89h6.79l.48,2.89h-8.65Z"/>
      <path class="st0" d="M150.28,396.98c-.47,0-.89-.15-1.26-.44-.37-.29-.55-.66-.55-1.09v-14.54c0-.44.15-.8.44-1.09.29-.29.66-.44,1.09-.44h7.24c.87,0,1.69.23,2.45.69.76.46,1.38,1.1,1.85,1.91s.7,1.75.7,2.8c0,.64-.13,1.26-.39,1.86-.26.6-.61,1.15-1.06,1.63s-.94.86-1.5,1.13l.02-.58c.47.25.86.55,1.17.89s.55.71.73,1.11c.18.39.28.82.31,1.27.07.42.11.79.14,1.11.03.32.08.59.15.8.08.22.22.39.44.5.37.22.6.53.69.94.09.41,0,.78-.29,1.09-.19.22-.42.36-.71.42s-.57.06-.85,0-.52-.14-.7-.24c-.29-.17-.57-.41-.86-.74s-.52-.77-.69-1.32c-.18-.55-.26-1.27-.26-2.14,0-.29-.05-.55-.15-.79-.1-.24-.24-.45-.43-.63-.19-.18-.42-.31-.71-.4s-.62-.14-1.01-.14h-5.08l.38-.58v5.46c0,.44-.12.8-.35,1.09-.23.29-.56.44-.98.44ZM151.26,387.98h5.86c.3,0,.6-.14.88-.42s.52-.65.7-1.13.28-1,.28-1.57c0-.74-.2-1.35-.59-1.85s-.82-.74-1.27-.74h-5.81l.3-.8v7.12l-.35-.6Z"/>
      <path class="st0" d="M179.1,379.38c.4,0,.73.13.98.4.25.27.38.6.38,1.01v14.66c0,.44-.15.8-.44,1.09s-.66.44-1.09.44c-.22,0-.44-.04-.67-.11s-.4-.18-.52-.31l-9.88-12.55.65-.4v11.97c0,.4-.13.74-.39,1.01-.26.27-.6.4-1.02.4s-.73-.13-.98-.4c-.25-.27-.38-.6-.38-1.01v-14.66c0-.44.15-.8.44-1.09.29-.29.66-.44,1.09-.44.23,0,.48.05.73.14.25.09.44.23.55.42l9.58,12.22-.43.3v-11.67c0-.4.12-.74.38-1.01.25-.27.59-.4,1.01-.4Z"/>
      <path class="st0" d="M187.37,395.45c0,.44-.16.8-.48,1.09-.32.29-.69.44-1.11.44-.47,0-.85-.15-1.13-.44-.29-.29-.43-.66-.43-1.09v-14.54c0-.44.15-.8.45-1.09.3-.29.69-.44,1.16-.44.4,0,.76.15,1.07.44.31.29.46.66.46,1.09v14.54Z"/>
      <path class="st0" d="M204.5,379.38c.4,0,.73.13.98.4.25.27.38.6.38,1.01v14.66c0,.44-.15.8-.44,1.09-.29.29-.66.44-1.09.44-.22,0-.44-.04-.67-.11s-.4-.18-.52-.31l-9.88-12.55.65-.4v11.97c0,.4-.13.74-.39,1.01-.26.27-.6.4-1.02.4s-.73-.13-.98-.4c-.25-.27-.38-.6-.38-1.01v-14.66c0-.44.15-.8.44-1.09s.66-.44,1.09-.44c.23,0,.48.05.73.14.25.09.44.23.55.42l9.58,12.22-.43.3v-11.67c0-.4.13-.74.38-1.01.25-.27.59-.4,1.01-.4Z"/>
      <path class="st0" d="M217.93,397.23c-1.27,0-2.46-.24-3.57-.71-1.11-.47-2.08-1.12-2.92-1.95s-1.5-1.79-1.97-2.88c-.48-1.09-.72-2.26-.72-3.52s.24-2.43.72-3.52c.48-1.09,1.14-2.05,1.97-2.88s1.81-1.48,2.92-1.95c1.11-.47,2.3-.7,3.57-.7.79,0,1.55.08,2.29.25.74.17,1.42.42,2.04.75.25.13.44.31.57.54s.19.46.19.69c0,.4-.13.76-.4,1.08-.27.32-.61.48-1.03.48-.13,0-.27-.02-.42-.05-.14-.03-.28-.08-.42-.15-.42-.18-.86-.33-1.33-.43-.47-.1-.96-.15-1.48-.15-1.09,0-2.08.27-2.98.82-.9.54-1.61,1.27-2.14,2.19-.53.91-.79,1.92-.79,3.03s.26,2.1.79,3.02c.53.92,1.24,1.66,2.14,2.2.9.54,1.89.82,2.98.82.5,0,1.06-.05,1.66-.15s1.1-.23,1.48-.4l-.23.75v-4.3l.43.38h-2.79c-.44,0-.8-.14-1.09-.43s-.44-.64-.44-1.08.15-.8.44-1.08.66-.43,1.09-.43h4.12c.44,0,.8.15,1.08.44.29.29.43.66.43,1.09v5.33c0,.34-.08.61-.24.83-.16.22-.34.39-.54.53-.77.47-1.61.84-2.53,1.12-.91.28-1.87.42-2.88.42Z"/>
      <path class="st0" d="M239.83,397.23c-1.17,0-2.23-.15-3.17-.44-.94-.29-1.84-.81-2.69-1.55-.22-.18-.39-.39-.5-.63-.12-.23-.18-.47-.18-.7,0-.38.14-.72.42-1.02.28-.29.62-.44,1.04-.44.32,0,.6.1.86.3.64.52,1.27.91,1.9,1.18.63.27,1.4.4,2.33.4.62,0,1.19-.1,1.71-.29s.94-.45,1.26-.78c.32-.33.48-.7.48-1.12,0-.5-.15-.93-.45-1.28-.3-.35-.76-.65-1.38-.89-.62-.24-1.41-.43-2.36-.57-.91-.13-1.7-.34-2.39-.62-.69-.28-1.26-.63-1.72-1.06s-.81-.93-1.04-1.51-.35-1.23-.35-1.95c0-1.09.28-2.02.84-2.79.56-.77,1.32-1.36,2.28-1.76.96-.4,2.01-.6,3.17-.6,1.09,0,2.1.16,3.03.49.93.33,1.69.74,2.28,1.25.49.39.73.83.73,1.33,0,.37-.14.7-.43,1.01s-.62.45-1.01.45c-.25,0-.48-.08-.68-.23-.27-.24-.63-.46-1.08-.67-.45-.21-.93-.38-1.43-.53-.5-.14-.97-.21-1.41-.21-.72,0-1.33.09-1.82.28s-.87.44-1.12.75c-.25.32-.38.69-.38,1.11,0,.5.15.92.44,1.24.29.33.72.59,1.27.78.55.19,1.22.36,1.99.51,1.01.19,1.89.4,2.65.65.76.25,1.4.57,1.9.97.5.39.88.89,1.13,1.48.25.59.38,1.32.38,2.17,0,1.09-.3,2.03-.91,2.82-.6.79-1.4,1.39-2.38,1.81-.98.42-2.04.63-3.18.63Z"/>
      <path class="st0" d="M249.59,382.27c-.44,0-.8-.13-1.09-.4-.29-.27-.44-.62-.44-1.06s.15-.78.44-1.04.66-.39,1.09-.39h11.17c.44,0,.8.13,1.09.4.29.27.44.62.44,1.06s-.15.78-.44,1.04c-.29.26-.66.39-1.09.39h-11.17ZM255.14,396.98c-.47,0-.85-.15-1.16-.44-.3-.29-.45-.66-.45-1.09v-14.59h3.27v14.59c0,.44-.15.8-.46,1.09-.31.29-.71.44-1.2.44Z"/>
      <path class="st0" d="M270.13,383.33l-5.43,12.78c-.12.32-.3.57-.54.74-.24.18-.51.26-.79.26-.45,0-.79-.13-1.01-.38-.22-.25-.33-.56-.33-.93,0-.15.03-.31.08-.48l6.26-15.04c.13-.34.34-.59.62-.78.28-.18.57-.26.89-.23.3,0,.58.09.84.26s.45.42.57.74l6.19,14.74c.08.22.13.42.13.6,0,.45-.15.81-.44,1.08s-.62.4-.97.4c-.3,0-.58-.09-.82-.28-.24-.18-.43-.44-.57-.75l-5.41-12.6.73-.15ZM265.48,393.03l1.38-2.89h6.79l.48,2.89h-8.65Z"/>
      <path class="st0" d="M281.55,396.98c-.47,0-.89-.15-1.26-.44-.37-.29-.55-.66-.55-1.09v-14.54c0-.44.15-.8.44-1.09.29-.29.66-.44,1.09-.44h7.24c.87,0,1.69.23,2.45.69.76.46,1.38,1.1,1.85,1.91s.7,1.75.7,2.8c0,.64-.13,1.26-.39,1.86-.26.6-.61,1.15-1.06,1.63s-.94.86-1.5,1.13l.02-.58c.47.25.86.55,1.17.89s.55.71.73,1.11c.18.39.28.82.31,1.27.07.42.11.79.14,1.11.03.32.08.59.15.8.08.22.22.39.44.5.37.22.6.53.69.94.09.41,0,.78-.29,1.09-.19.22-.42.36-.71.42s-.57.06-.85,0-.52-.14-.7-.24c-.29-.17-.57-.41-.86-.74s-.52-.77-.69-1.32c-.18-.55-.26-1.27-.26-2.14,0-.29-.05-.55-.15-.79-.1-.24-.24-.45-.43-.63-.19-.18-.42-.31-.71-.4s-.62-.14-1.01-.14h-5.08l.38-.58v5.46c0,.44-.12.8-.35,1.09-.23.29-.56.44-.98.44ZM282.53,387.98h5.86c.3,0,.6-.14.88-.42s.52-.65.7-1.13.28-1,.28-1.57c0-.74-.2-1.35-.59-1.85s-.82-.74-1.27-.74h-5.81l.3-.8v7.12l-.35-.6Z"/>
      <path class="st0" d="M302.68,397.23c-1.17,0-2.23-.15-3.17-.44-.94-.29-1.84-.81-2.69-1.55-.22-.18-.39-.39-.5-.63-.12-.23-.18-.47-.18-.7,0-.38.14-.72.42-1.02.28-.29.62-.44,1.04-.44.32,0,.6.1.86.3.64.52,1.27.91,1.9,1.18.63.27,1.4.4,2.33.4.62,0,1.19-.1,1.71-.29s.94-.45,1.26-.78c.32-.33.48-.7.48-1.12,0-.5-.15-.93-.45-1.28-.3-.35-.76-.65-1.38-.89-.62-.24-1.41-.43-2.36-.57-.91-.13-1.7-.34-2.39-.62-.69-.28-1.26-.63-1.72-1.06s-.81-.93-1.04-1.51-.35-1.23-.35-1.95c0-1.09.28-2.02.84-2.79.56-.77,1.32-1.36,2.28-1.76.96-.4,2.01-.6,3.17-.6,1.09,0,2.1.16,3.03.49.93.33,1.69.74,2.28,1.25.49.39.73.83.73,1.33,0,.37-.14.7-.43,1.01s-.62.45-1.01.45c-.25,0-.48-.08-.68-.23-.27-.24-.63-.46-1.08-.67-.45-.21-.93-.38-1.43-.53-.5-.14-.97-.21-1.41-.21-.72,0-1.33.09-1.82.28s-.87.44-1.12.75c-.25.32-.38.69-.38,1.11,0,.5.15.92.44,1.24.29.33.72.59,1.27.78.55.19,1.22.36,1.99.51,1.01.19,1.89.4,2.65.65.76.25,1.4.57,1.9.97.5.39.88.89,1.13,1.48.25.59.38,1.32.38,2.17,0,1.09-.3,2.03-.91,2.82-.6.79-1.4,1.39-2.38,1.81-.98.42-2.04.63-3.18.63Z"/>
    </g>
  </g>
</svg>