<?xml version="1.0" encoding="UTF-8"?>
<svg id="Layer_1" xmlns="http://www.w3.org/2000/svg" version="1.1" viewBox="0 0 1294.48 480">
  <!-- Generator: Adobe Illustrator 29.7.1, SVG Export Plug-In . SVG Version: 2.1.1 Build 8)  -->
  <defs>
    <style>
      .st0 {
        fill: #fff;
      }

      .st1 {
        fill: #e44c17;
      }

      .st2 {
        fill: #002f55;
      }
    </style>
  </defs>
  <rect class="st2" x="646.78" y="43.06" width="600.34" height="393.89" rx="21.84" ry="21.84"/>
  <rect class="st1" x="47.36" y="43.06" width="600.58" height="393.89" rx="21.84" ry="21.84"/>
  <circle class="st1" cx="675.37" cy="240" r="38.16"/>
  <g>
    <path class="st0" d="M834.67,193.67c-.34,0-.61-.1-.82-.32-.21-.21-.32-.47-.32-.78v-10.4c0-.31.11-.57.32-.78s.47-.31.78-.31h5.85c.31,0,.57.1.78.3.21.2.31.45.31.76,0,.26-.1.5-.31.7s-.47.31-.78.31h-4.86l.16-.22v3.62l-.13-.23h4.01c.31,0,.57.1.78.3.21.2.32.45.32.77,0,.26-.11.5-.32.7s-.47.31-.78.31h-4.05l.16-.16v4.36c0,.31-.11.57-.33.78-.22.21-.48.32-.78.32Z"/>
    <path class="st0" d="M852.54,188.86c0,.98-.22,1.85-.66,2.6-.44.75-1.03,1.33-1.76,1.75s-1.56.63-2.47.63-1.74-.21-2.48-.63-1.33-1-1.76-1.75c-.44-.75-.66-1.62-.66-2.6s.22-1.85.66-2.6c.44-.75,1.03-1.34,1.76-1.76s1.56-.64,2.48-.64,1.74.21,2.47.64,1.33,1.01,1.76,1.76c.44.75.66,1.62.66,2.6ZM850.38,188.86c0-.61-.12-1.14-.37-1.59-.25-.45-.58-.8-.99-1.05s-.87-.38-1.38-.38-.96.13-1.38.38c-.41.25-.74.6-.99,1.05-.25.45-.37.98-.37,1.59s.12,1.12.37,1.57c.25.45.58.8.99,1.05.41.25.87.38,1.38.38s.96-.13,1.38-.38.74-.6.99-1.05c.25-.45.37-.97.37-1.57Z"/>
    <path class="st0" d="M855.51,193.67c-.31,0-.57-.1-.77-.32-.2-.21-.31-.47-.31-.78v-7.43c0-.31.1-.57.31-.78.2-.21.46-.31.77-.31s.57.11.77.31c.2.21.31.47.31.78v1.69l-.13-1.21c.13-.29.3-.54.51-.76.21-.22.45-.41.71-.56.26-.15.55-.26.85-.33s.6-.11.9-.11c.36,0,.66.1.91.31s.37.44.37.72c0,.4-.1.68-.31.86s-.43.26-.67.26-.44-.04-.62-.13c-.19-.08-.4-.13-.64-.13-.22,0-.44.05-.66.15-.22.1-.43.26-.61.48-.19.22-.34.48-.45.8-.11.32-.17.69-.17,1.12v4.27c0,.31-.1.57-.31.78-.2.21-.46.32-.77.32Z"/>
    <path class="st0" d="M871.57,183.86c.68,0,1.28.07,1.79.22.51.14.91.34,1.19.6.28.26.42.57.42.93,0,.24-.07.47-.22.68-.14.21-.35.31-.63.31-.19,0-.35-.03-.48-.08-.13-.05-.24-.12-.33-.21-.1-.08-.21-.16-.34-.23-.12-.07-.3-.13-.55-.17s-.43-.06-.55-.06c-.61,0-1.13.13-1.56.4-.43.26-.75.62-.98,1.07s-.34.97-.34,1.56.12,1.09.35,1.54c.23.45.56.81.97,1.07.41.26.89.4,1.43.4.3,0,.56-.02.77-.05.22-.04.4-.09.54-.16.17-.1.32-.2.45-.31.13-.11.33-.16.59-.16.31,0,.55.1.72.3.17.2.25.44.25.73s-.17.57-.5.82-.78.44-1.32.59c-.55.15-1.14.22-1.77.22-.95,0-1.77-.22-2.47-.66-.7-.44-1.23-1.04-1.61-1.79-.38-.76-.57-1.6-.57-2.54,0-.98.2-1.85.6-2.6.4-.75.96-1.34,1.67-1.76.71-.43,1.53-.64,2.46-.64Z"/>
    <path class="st0" d="M881.7,183.86c.86,0,1.52.19,1.97.56s.76.87.93,1.49.25,1.3.25,2.06v4.61c0,.31-.1.57-.31.78-.2.21-.46.32-.77.32s-.57-.1-.77-.32c-.2-.21-.31-.47-.31-.78v-4.61c0-.4-.05-.75-.14-1.07-.1-.32-.27-.57-.52-.76-.25-.19-.61-.29-1.08-.29s-.85.1-1.17.29c-.32.19-.57.45-.73.76-.16.32-.24.68-.24,1.07v4.61c0,.31-.1.57-.31.78-.2.21-.46.32-.77.32s-.57-.1-.77-.32c-.2-.21-.31-.47-.31-.78v-11.12c0-.31.1-.57.31-.78.2-.21.46-.32.77-.32s.57.11.77.32.31.47.31.78v4.46l-.27-.05c.11-.2.26-.42.45-.66.19-.23.43-.45.7-.66.28-.2.58-.37.92-.5s.7-.19,1.1-.19Z"/>
    <path class="st0" d="M888.13,182.87c-.41,0-.7-.07-.86-.2s-.25-.37-.25-.7v-.34c0-.35.09-.58.28-.71.19-.13.47-.19.85-.19.42,0,.71.07.88.2.17.13.25.37.25.7v.34c0,.35-.09.58-.27.71s-.47.19-.88.19ZM889.23,192.57c0,.31-.1.57-.31.78-.2.21-.46.32-.77.32s-.57-.1-.77-.32c-.2-.21-.31-.47-.31-.78v-7.43c0-.31.1-.57.31-.78.2-.21.46-.31.77-.31s.57.11.77.31c.2.21.31.47.31.78v7.43Z"/>
    <path class="st0" d="M893.78,192.57c0,.31-.1.57-.31.78-.21.21-.47.32-.78.32s-.55-.1-.76-.32c-.2-.21-.31-.47-.31-.78v-11.12c0-.31.1-.57.31-.78s.47-.32.78-.32.57.11.76.32c.2.21.3.47.3.78v11.12Z"/>
    <path class="st0" d="M904,180.35c.31,0,.57.1.77.31.2.2.31.47.31.79v11.12c0,.31-.1.57-.31.78-.2.21-.46.32-.77.32s-.57-.1-.77-.32c-.2-.21-.31-.47-.31-.78v-.88l.4.16c0,.16-.08.35-.25.57-.17.22-.4.44-.68.66s-.63.4-1.02.55c-.39.15-.81.22-1.27.22-.83,0-1.58-.21-2.25-.64s-1.2-1.01-1.59-1.76-.58-1.61-.58-2.58.2-1.85.58-2.6.92-1.34,1.58-1.76,1.39-.64,2.2-.64c.52,0,.99.08,1.42.23.43.16.81.35,1.12.59.32.24.56.48.74.73s.26.45.26.62l-.65.23v-4.82c0-.31.1-.57.31-.78s.46-.32.77-.32ZM900.37,191.87c.53,0,.99-.13,1.39-.4.4-.26.71-.62.93-1.08.22-.46.33-.97.33-1.53s-.11-1.09-.33-1.55c-.22-.46-.53-.82-.93-1.08-.4-.26-.86-.4-1.39-.4s-.97.13-1.37.4c-.4.26-.71.62-.93,1.08-.22.46-.33.97-.33,1.55s.11,1.07.33,1.53c.22.46.53.82.93,1.08.4.26.85.4,1.37.4Z"/>
    <path class="st0" d="M908.5,193.67c-.31,0-.57-.1-.77-.32-.2-.21-.31-.47-.31-.78v-7.43c0-.31.1-.57.31-.78.2-.21.46-.31.77-.31s.57.11.77.31c.2.21.31.47.31.78v1.69l-.13-1.21c.13-.29.3-.54.51-.76.21-.22.45-.41.71-.56.26-.15.55-.26.85-.33s.6-.11.9-.11c.36,0,.66.1.91.31.25.2.37.44.37.72,0,.4-.1.68-.31.86s-.43.26-.67.26c-.23,0-.43-.04-.62-.13-.19-.08-.4-.13-.64-.13-.22,0-.44.05-.66.15-.22.1-.43.26-.61.48-.19.22-.34.48-.45.8-.11.32-.17.69-.17,1.12v4.27c0,.31-.1.57-.31.78-.2.21-.46.32-.77.32Z"/>
    <path class="st0" d="M919.38,193.85c-1.02,0-1.91-.21-2.66-.64s-1.33-1-1.73-1.74c-.4-.73-.6-1.56-.6-2.48,0-1.08.22-2,.66-2.76.44-.76,1.01-1.35,1.72-1.75.71-.41,1.46-.61,2.25-.61.61,0,1.19.13,1.74.38.55.25,1.03.6,1.45,1.03.42.44.75.95,1,1.52s.37,1.19.37,1.84c-.01.29-.13.52-.34.7s-.47.27-.76.27h-6.88l-.54-1.8h6.61l-.4.36v-.49c-.02-.35-.15-.66-.37-.94-.22-.28-.5-.5-.83-.66s-.68-.24-1.05-.24-.7.05-1.01.14c-.31.1-.58.26-.81.49-.23.23-.41.53-.54.92-.13.38-.2.87-.2,1.46,0,.65.13,1.2.4,1.65.27.45.62.79,1.04,1.03.43.23.88.35,1.36.35.44,0,.8-.04,1.06-.11.26-.07.48-.16.64-.26s.31-.19.44-.26c.22-.11.42-.16.61-.16.26,0,.48.09.66.27.17.18.26.39.26.63,0,.32-.17.62-.5.88-.31.26-.75.49-1.31.69-.56.2-1.15.3-1.75.3Z"/>
    <path class="st0" d="M930.61,183.86c.89,0,1.56.19,2.03.56s.78.87.95,1.49.26,1.3.26,2.06v4.61c0,.31-.1.57-.31.78-.2.21-.46.32-.77.32s-.57-.1-.77-.32c-.2-.21-.31-.47-.31-.78v-4.61c0-.4-.05-.75-.15-1.07-.1-.32-.29-.57-.55-.76-.26-.19-.64-.29-1.13-.29s-.88.1-1.21.29c-.33.19-.58.45-.76.76-.17.32-.26.68-.26,1.07v4.61c0,.31-.1.57-.31.78-.2.21-.46.32-.77.32s-.57-.1-.77-.32c-.2-.21-.31-.47-.31-.78v-7.43c0-.31.1-.57.31-.78.2-.21.46-.31.77-.31s.57.11.77.31c.2.21.31.47.31.78v.77l-.27-.05c.11-.2.26-.42.47-.66.2-.23.44-.45.72-.66.28-.2.59-.37.94-.5s.73-.19,1.13-.19Z"/>
    <path class="st0" d="M952.32,184.04c.28,0,.52.11.72.31.2.21.31.48.31.8,0,.08,0,.16-.02.22-.01.07-.03.13-.05.19l-2.75,7.42c-.08.24-.23.42-.45.55-.22.13-.44.17-.68.13-.41-.02-.71-.25-.92-.68l-1.78-5.13.47.02-1.67,5.11c-.2.43-.51.66-.92.68-.23.04-.45,0-.67-.13s-.38-.31-.46-.55l-2.75-7.42c-.05-.13-.07-.27-.07-.41,0-.29.1-.55.29-.77.19-.23.46-.34.79-.34.23,0,.43.05.61.16.18.11.31.28.38.52l2.18,5.9-.45-.04,1.64-4.45c.19-.44.52-.67.99-.67.26,0,.46.06.6.17.14.11.25.28.33.49l1.64,4.45-.54.07,2.21-5.94c.14-.46.49-.68,1.04-.68Z"/>
    <path class="st0" d="M960.11,183.86c.86,0,1.52.19,1.97.56.45.37.76.87.93,1.49s.25,1.3.25,2.06v4.61c0,.31-.1.57-.31.78-.2.21-.46.32-.77.32s-.57-.1-.77-.32c-.2-.21-.31-.47-.31-.78v-4.61c0-.4-.05-.75-.14-1.07-.1-.32-.27-.57-.52-.76-.25-.19-.61-.29-1.08-.29s-.85.1-1.17.29c-.32.19-.57.45-.73.76-.16.32-.24.68-.24,1.07v4.61c0,.31-.1.57-.31.78-.2.21-.46.32-.77.32s-.57-.1-.77-.32c-.2-.21-.31-.47-.31-.78v-11.12c0-.31.1-.57.31-.78s.46-.32.77-.32.57.11.77.32.31.47.31.78v4.46l-.27-.05c.11-.2.26-.42.45-.66.19-.23.43-.45.7-.66.28-.2.58-.37.92-.5s.7-.19,1.1-.19Z"/>
    <path class="st0" d="M974.94,188.86c0,.98-.22,1.85-.66,2.6-.44.75-1.03,1.33-1.76,1.75s-1.56.63-2.47.63-1.74-.21-2.48-.63-1.33-1-1.76-1.75c-.44-.75-.66-1.62-.66-2.6s.22-1.85.66-2.6c.44-.75,1.03-1.34,1.76-1.76s1.56-.64,2.48-.64,1.74.21,2.47.64,1.33,1.01,1.76,1.76c.44.75.66,1.62.66,2.6ZM972.78,188.86c0-.61-.12-1.14-.37-1.59-.25-.45-.58-.8-.99-1.05s-.87-.38-1.38-.38-.96.13-1.38.38c-.41.25-.74.6-.99,1.05-.25.45-.37.98-.37,1.59s.12,1.12.37,1.57c.25.45.58.8.99,1.05.41.25.87.38,1.38.38s.96-.13,1.38-.38.74-.6.99-1.05c.25-.45.37-.97.37-1.57Z"/>
    <path class="st0" d="M987.02,183.86c.89,0,1.56.19,2.02.56s.78.87.95,1.49.26,1.3.26,2.06v4.61c0,.31-.1.57-.31.78-.2.21-.46.32-.77.32s-.57-.1-.77-.32c-.2-.21-.31-.47-.31-.78v-4.61c0-.4-.05-.75-.15-1.07-.1-.32-.29-.57-.55-.76-.26-.19-.64-.29-1.13-.29s-.89.1-1.21.29c-.33.19-.58.45-.76.76-.17.32-.26.68-.26,1.07v4.61c0,.31-.1.57-.31.78-.2.21-.46.32-.77.32s-.57-.1-.77-.32c-.2-.21-.31-.47-.31-.78v-7.43c0-.31.1-.57.31-.78.2-.21.46-.31.77-.31s.57.11.77.31c.2.21.31.47.31.78v.77l-.27-.05c.11-.2.26-.42.47-.66.2-.23.44-.45.72-.66s.59-.37.94-.5c.35-.13.73-.19,1.13-.19Z"/>
    <path class="st0" d="M997.14,193.85c-1.02,0-1.91-.21-2.66-.64s-1.33-1-1.73-1.74c-.4-.73-.6-1.56-.6-2.48,0-1.08.22-2,.66-2.76.44-.76,1.01-1.35,1.72-1.75.71-.41,1.46-.61,2.25-.61.61,0,1.19.13,1.74.38.55.25,1.03.6,1.45,1.03.42.44.75.95,1,1.52s.37,1.19.37,1.84c-.01.29-.13.52-.34.7s-.47.27-.76.27h-6.88l-.54-1.8h6.61l-.4.36v-.49c-.02-.35-.15-.66-.37-.94-.22-.28-.5-.5-.83-.66s-.68-.24-1.05-.24-.7.05-1.01.14c-.31.1-.58.26-.81.49-.23.23-.41.53-.54.92-.13.38-.2.87-.2,1.46,0,.65.13,1.2.4,1.65.27.45.62.79,1.04,1.03.43.23.88.35,1.36.35.44,0,.8-.04,1.06-.11.26-.07.48-.16.64-.26s.31-.19.44-.26c.22-.11.42-.16.61-.16.26,0,.48.09.66.27.17.18.26.39.26.63,0,.32-.17.62-.5.88-.31.26-.75.49-1.31.69-.56.2-1.15.3-1.75.3Z"/>
    <path class="st0" d="M1007.76,193.85c-1.02,0-1.91-.21-2.66-.64s-1.33-1-1.73-1.74c-.4-.73-.6-1.56-.6-2.48,0-1.08.22-2,.66-2.76.44-.76,1.01-1.35,1.72-1.75.71-.41,1.46-.61,2.25-.61.61,0,1.19.13,1.74.38.55.25,1.03.6,1.45,1.03.42.44.75.95,1,1.52s.37,1.19.37,1.84c-.01.29-.13.52-.34.7s-.47.27-.76.27h-6.88l-.54-1.8h6.61l-.4.36v-.49c-.02-.35-.15-.66-.37-.94-.22-.28-.5-.5-.83-.66s-.68-.24-1.05-.24-.7.05-1.01.14c-.31.1-.58.26-.81.49-.23.23-.41.53-.54.92-.13.38-.2.87-.2,1.46,0,.65.13,1.2.4,1.65.27.45.62.79,1.04,1.03.43.23.88.35,1.36.35.44,0,.8-.04,1.06-.11.26-.07.48-.16.64-.26s.31-.19.44-.26c.22-.11.42-.16.61-.16.26,0,.48.09.66.27.17.18.26.39.26.63,0,.32-.17.62-.5.88-.31.26-.75.49-1.31.69-.56.2-1.15.3-1.75.3Z"/>
    <path class="st0" d="M1021.72,180.35c.31,0,.57.1.77.31.2.2.31.47.31.79v11.12c0,.31-.1.57-.31.78-.2.21-.46.32-.77.32s-.57-.1-.77-.32c-.2-.21-.31-.47-.31-.78v-.88l.4.16c0,.16-.08.35-.25.57-.17.22-.4.44-.68.66s-.63.4-1.02.55c-.39.15-.81.22-1.27.22-.83,0-1.58-.21-2.25-.64s-1.2-1.01-1.59-1.76-.58-1.61-.58-2.58.2-1.85.58-2.6.92-1.34,1.58-1.76,1.39-.64,2.2-.64c.52,0,.99.08,1.42.23.43.16.81.35,1.12.59.32.24.56.48.74.73s.26.45.26.62l-.65.23v-4.82c0-.31.1-.57.31-.78s.46-.32.77-.32ZM1018.09,191.87c.53,0,.99-.13,1.39-.4.4-.26.71-.62.93-1.08.22-.46.33-.97.33-1.53s-.11-1.09-.33-1.55c-.22-.46-.53-.82-.93-1.08-.4-.26-.86-.4-1.39-.4s-.97.13-1.37.4c-.4.26-.71.62-.93,1.08-.22.46-.33.97-.33,1.55s.11,1.07.33,1.53c.22.46.53.82.93,1.08.4.26.85.4,1.37.4Z"/>
    <path class="st0" d="M832.8,222.18c-.12-.17-.17-.38-.16-.65.01-.26.17-.49.47-.68.19-.12.4-.17.61-.15.22.02.43.13.63.33.35.35.71.62,1.1.81.38.19.86.29,1.44.29.18-.01.38-.04.59-.08s.4-.14.57-.29.24-.38.24-.69c0-.26-.09-.47-.27-.63-.18-.16-.42-.29-.71-.4-.29-.11-.62-.21-.98-.31-.37-.11-.75-.23-1.14-.36-.39-.13-.75-.3-1.07-.51-.32-.21-.59-.49-.79-.84-.2-.35-.31-.79-.31-1.31,0-.6.17-1.11.5-1.53s.77-.74,1.3-.97c.53-.23,1.09-.34,1.68-.34.37,0,.76.04,1.17.13.41.09.8.23,1.17.43.37.2.68.46.94.78.13.18.21.4.23.65.02.25-.09.48-.34.68-.18.14-.39.21-.63.19-.24-.02-.44-.1-.59-.24-.2-.26-.48-.47-.82-.63-.34-.16-.73-.23-1.18-.23-.18,0-.38.02-.58.06-.21.04-.39.13-.55.27-.16.14-.23.36-.23.66,0,.28.09.5.27.66.18.16.42.29.73.4.31.1.63.2.98.3.36.1.73.21,1.1.34.37.13.71.31,1.03.52.31.22.56.5.76.84.19.34.29.78.29,1.3,0,.61-.18,1.13-.54,1.57-.36.43-.81.76-1.35.98-.54.22-1.09.33-1.66.33-.71,0-1.42-.12-2.12-.37-.71-.25-1.3-.68-1.76-1.3Z"/>
    <path class="st0" d="M849.18,214.04c.31,0,.57.11.77.31.2.21.31.47.31.78v4.57c0,1.27-.35,2.28-1.06,3.02s-1.73,1.12-3.06,1.12-2.35-.37-3.05-1.12-1.05-1.75-1.05-3.02v-4.57c0-.31.1-.57.31-.78.2-.21.46-.31.77-.31s.57.11.77.31c.2.21.31.47.31.78v4.57c0,.73.16,1.28.49,1.63.32.35.81.53,1.46.53s1.15-.18,1.48-.53c.32-.35.49-.9.49-1.63v-4.57c0-.31.1-.57.31-.78.2-.21.46-.31.77-.31Z"/>
    <path class="st0" d="M857.58,213.86c.84,0,1.59.21,2.26.64s1.19,1.01,1.58,1.75.58,1.61.58,2.59-.2,1.85-.58,2.6-.91,1.34-1.57,1.76c-.65.43-1.39.64-2.21.64-.48,0-.93-.08-1.35-.23-.42-.16-.79-.35-1.11-.59-.32-.24-.56-.48-.74-.73s-.26-.45-.26-.62l.56-.23v4.73c0,.31-.1.57-.31.78s-.46.31-.77.31-.57-.1-.77-.31c-.2-.2-.31-.47-.31-.79v-11.03c0-.31.1-.57.31-.78.2-.21.46-.31.77-.31s.57.11.77.31c.2.21.31.47.31.78v.88l-.31-.16c0-.16.08-.35.25-.57s.4-.44.68-.67.62-.41,1-.55c.38-.14.78-.22,1.2-.22ZM857.31,215.84c-.53,0-.99.13-1.39.4-.4.26-.71.62-.93,1.07-.22.45-.33.96-.33,1.54s.11,1.08.33,1.54c.22.46.53.83.93,1.09.4.26.86.4,1.39.4s.99-.13,1.38-.4c.39-.26.7-.63.92-1.09.22-.46.33-.97.33-1.54s-.11-1.09-.33-1.54c-.22-.45-.53-.81-.92-1.07-.39-.26-.85-.4-1.38-.4Z"/>
    <path class="st0" d="M868.89,213.86c.84,0,1.59.21,2.26.64s1.19,1.01,1.58,1.75.58,1.61.58,2.59-.2,1.85-.58,2.6-.91,1.34-1.57,1.76c-.65.43-1.39.64-2.21.64-.48,0-.93-.08-1.35-.23-.42-.16-.79-.35-1.11-.59-.32-.24-.56-.48-.74-.73s-.26-.45-.26-.62l.56-.23v4.73c0,.31-.1.57-.31.78s-.46.31-.77.31-.57-.1-.77-.31c-.2-.2-.31-.47-.31-.79v-11.03c0-.31.1-.57.31-.78.2-.21.46-.31.77-.31s.57.11.77.31c.2.21.31.47.31.78v.88l-.31-.16c0-.16.08-.35.25-.57s.4-.44.68-.67.62-.41,1-.55c.38-.14.78-.22,1.2-.22ZM868.62,215.84c-.53,0-.99.13-1.39.4-.4.26-.71.62-.93,1.07-.22.45-.33.96-.33,1.54s.11,1.08.33,1.54c.22.46.53.83.93,1.09.4.26.86.4,1.39.4s.99-.13,1.38-.4c.39-.26.7-.63.92-1.09.22-.46.33-.97.33-1.54s-.11-1.09-.33-1.54c-.22-.45-.53-.81-.92-1.07-.39-.26-.85-.4-1.38-.4Z"/>
    <path class="st0" d="M884.55,218.86c0,.98-.22,1.85-.66,2.6-.44.75-1.03,1.33-1.76,1.75-.74.42-1.56.63-2.47.63s-1.74-.21-2.47-.63c-.74-.42-1.33-1-1.76-1.75-.44-.75-.66-1.62-.66-2.6s.22-1.85.66-2.6c.44-.75,1.03-1.34,1.76-1.76.74-.43,1.56-.64,2.47-.64s1.74.21,2.47.64c.74.43,1.33,1.01,1.76,1.76.44.75.66,1.62.66,2.6ZM882.39,218.86c0-.61-.12-1.14-.37-1.59-.25-.45-.58-.8-.99-1.05s-.87-.38-1.38-.38-.96.13-1.38.38-.74.6-.99,1.05c-.25.45-.37.98-.37,1.59s.12,1.12.37,1.57c.25.45.58.8.99,1.05s.87.38,1.38.38.96-.13,1.38-.38.74-.6.99-1.05c.25-.45.37-.97.37-1.57Z"/>
    <path class="st0" d="M887.52,223.67c-.31,0-.57-.1-.77-.32-.2-.21-.31-.47-.31-.78v-7.43c0-.31.1-.57.31-.78.2-.21.46-.31.77-.31s.57.11.77.31c.2.21.31.47.31.78v1.69l-.13-1.21c.13-.29.3-.54.51-.76.21-.22.45-.41.71-.56.26-.15.55-.26.85-.33s.6-.11.9-.11c.36,0,.66.1.91.31.25.2.37.44.37.72,0,.4-.1.68-.31.86s-.43.26-.67.26c-.23,0-.43-.04-.62-.13-.19-.08-.4-.13-.64-.13-.22,0-.44.05-.66.15-.22.1-.43.26-.61.48-.19.22-.34.48-.45.8-.11.32-.17.69-.17,1.12v4.27c0,.31-.1.57-.31.78-.2.21-.46.32-.77.32Z"/>
    <path class="st0" d="M894.36,214.22h4.27c.29,0,.53.1.72.29.19.19.29.43.29.72s-.1.51-.29.69c-.19.19-.43.28-.72.28h-4.27c-.29,0-.53-.1-.72-.29-.19-.19-.29-.43-.29-.72s.1-.51.29-.69c.19-.19.43-.28.72-.28ZM896.28,211.97c.31,0,.57.11.77.32.2.21.3.47.3.78v8.01c0,.17.03.31.1.41.07.11.16.19.27.23.11.05.24.07.37.07.14,0,.28-.03.4-.08s.26-.08.41-.08c.17,0,.32.08.46.23.14.16.21.37.21.65,0,.34-.18.61-.55.83-.37.22-.76.32-1.18.32-.25,0-.53-.02-.84-.06-.31-.04-.59-.14-.86-.31-.27-.16-.49-.41-.67-.75-.18-.34-.27-.8-.27-1.39v-8.1c0-.31.1-.57.31-.78s.47-.32.78-.32Z"/>
    <path class="st0" d="M917.74,214.04c.28,0,.52.11.72.31.2.21.31.48.31.8,0,.08,0,.16-.02.22-.01.07-.03.13-.05.19l-2.75,7.42c-.08.24-.23.42-.45.55s-.44.17-.68.13c-.41-.02-.71-.25-.92-.68l-1.78-5.13.47.02-1.67,5.11c-.2.43-.51.66-.92.68-.23.04-.45,0-.67-.13-.22-.13-.38-.31-.46-.55l-2.75-7.42c-.05-.13-.07-.27-.07-.41,0-.29.1-.55.29-.77.19-.23.46-.34.79-.34.23,0,.43.05.61.16.18.11.31.28.38.52l2.18,5.9-.45-.04,1.64-4.45c.19-.44.52-.67.99-.67.26,0,.46.06.6.17.14.11.25.28.33.49l1.64,4.45-.54.07,2.21-5.94c.14-.46.49-.68,1.04-.68Z"/>
    <path class="st0" d="M921.41,212.87c-.41,0-.7-.07-.86-.2s-.25-.37-.25-.7v-.34c0-.35.09-.58.28-.71.19-.13.47-.19.85-.19.42,0,.71.07.88.2.17.13.25.37.25.7v.34c0,.35-.09.58-.27.71s-.47.19-.88.19ZM922.51,222.57c0,.31-.1.57-.31.78-.2.21-.46.32-.77.32s-.57-.1-.77-.32c-.2-.21-.31-.47-.31-.78v-7.43c0-.31.1-.57.31-.78.2-.21.46-.31.77-.31s.57.11.77.31c.2.21.31.47.31.78v7.43Z"/>
    <path class="st0" d="M924.83,214.22h4.27c.29,0,.53.1.72.29.19.19.29.43.29.72s-.1.51-.29.69c-.19.19-.43.28-.72.28h-4.27c-.29,0-.53-.1-.72-.29-.19-.19-.29-.43-.29-.72s.1-.51.29-.69c.19-.19.43-.28.72-.28ZM926.76,211.97c.31,0,.57.11.77.32.2.21.3.47.3.78v8.01c0,.17.03.31.1.41.07.11.16.19.27.23.11.05.24.07.37.07.14,0,.28-.03.4-.08s.26-.08.41-.08c.17,0,.32.08.46.23.14.16.21.37.21.65,0,.34-.18.61-.55.83-.37.22-.76.32-1.18.32-.25,0-.53-.02-.84-.06-.31-.04-.59-.14-.86-.31-.27-.16-.49-.41-.67-.75-.18-.34-.27-.8-.27-1.39v-8.1c0-.31.1-.57.31-.78s.47-.32.78-.32Z"/>
    <path class="st0" d="M937.14,213.86c.86,0,1.52.19,1.97.56.45.37.76.87.93,1.49s.25,1.3.25,2.06v4.61c0,.31-.1.57-.31.78-.2.21-.46.32-.77.32s-.57-.1-.77-.32c-.2-.21-.31-.47-.31-.78v-4.61c0-.4-.05-.75-.14-1.07-.1-.32-.27-.57-.52-.76-.25-.19-.61-.29-1.08-.29s-.85.1-1.17.29c-.32.19-.57.45-.73.76-.16.32-.24.68-.24,1.07v4.61c0,.31-.1.57-.31.78-.2.21-.46.32-.77.32s-.57-.1-.77-.32c-.2-.21-.31-.47-.31-.78v-11.12c0-.31.1-.57.31-.78s.46-.32.77-.32.57.11.77.32.31.47.31.78v4.46l-.27-.05c.11-.2.26-.42.45-.66.19-.23.43-.45.7-.66.28-.2.58-.37.92-.5s.7-.19,1.1-.19Z"/>
    <path class="st0" d="M948.75,223.67c-.31,0-.57-.1-.77-.32-.2-.21-.31-.47-.31-.78v-7.43c0-.31.1-.57.31-.78.2-.21.46-.31.77-.31s.57.11.77.31c.2.21.31.47.31.78v1.69l-.13-1.21c.13-.29.3-.54.51-.76.21-.22.45-.41.71-.56.26-.15.55-.26.85-.33s.6-.11.9-.11c.36,0,.66.1.91.31.25.2.37.44.37.72,0,.4-.1.68-.31.86s-.43.26-.67.26c-.23,0-.43-.04-.62-.13-.19-.08-.4-.13-.64-.13-.22,0-.44.05-.66.15-.22.1-.43.26-.61.48-.19.22-.34.48-.45.8-.11.32-.17.69-.17,1.12v4.27c0,.31-.1.57-.31.78-.2.21-.46.32-.77.32Z"/>
    <path class="st0" d="M959.62,223.85c-1.02,0-1.91-.21-2.66-.64s-1.33-1-1.73-1.74c-.4-.73-.6-1.56-.6-2.48,0-1.08.22-2,.66-2.76.44-.76,1.01-1.35,1.72-1.75.71-.41,1.46-.61,2.25-.61.61,0,1.19.13,1.74.38.55.25,1.03.6,1.45,1.03.42.44.75.95,1,1.52s.37,1.19.37,1.84c-.01.29-.13.52-.34.7s-.47.27-.76.27h-6.88l-.54-1.8h6.61l-.4.36v-.49c-.02-.35-.15-.66-.37-.94-.22-.28-.5-.5-.83-.66s-.68-.24-1.05-.24-.7.05-1.01.14c-.31.1-.58.26-.81.49-.23.23-.41.53-.54.92-.13.38-.2.87-.2,1.46,0,.65.13,1.2.4,1.65.27.45.62.79,1.04,1.03.43.23.88.35,1.36.35.44,0,.8-.04,1.06-.11.26-.07.48-.16.64-.26s.31-.19.44-.26c.22-.11.42-.16.61-.16.26,0,.48.09.66.27.17.18.26.39.26.63,0,.32-.17.62-.5.88-.31.26-.75.49-1.31.69-.56.2-1.15.3-1.75.3Z"/>
    <path class="st0" d="M973.66,213.86c.31,0,.57.1.77.31.2.2.31.47.31.79v7.61c0,.31-.1.57-.31.78-.2.21-.46.32-.77.32s-.57-.1-.77-.32c-.2-.21-.31-.47-.31-.78v-.88l.4.16c0,.16-.08.35-.25.57-.17.22-.4.44-.68.66s-.63.4-1.02.55c-.39.15-.81.22-1.27.22-.83,0-1.58-.21-2.25-.64s-1.2-1.01-1.59-1.76-.58-1.61-.58-2.58.2-1.85.58-2.6.92-1.34,1.58-1.76,1.39-.64,2.2-.64c.52,0,.99.08,1.42.23.43.16.81.35,1.12.59.32.24.56.48.74.73s.26.45.26.62l-.65.23v-1.31c0-.31.1-.57.31-.78s.46-.31.77-.31ZM970.03,221.87c.53,0,.99-.13,1.39-.4.4-.26.71-.62.93-1.08.22-.46.33-.97.33-1.53s-.11-1.09-.33-1.55c-.22-.46-.53-.82-.93-1.08-.4-.26-.86-.4-1.39-.4s-.97.13-1.37.4c-.4.26-.71.62-.93,1.08-.22.46-.33.97-.33,1.55s.11,1.07.33,1.53c.22.46.53.82.93,1.08.4.26.85.4,1.37.4Z"/>
    <path class="st0" d="M984.97,210.35c.31,0,.57.1.77.31.2.2.31.47.31.79v11.12c0,.31-.1.57-.31.78-.2.21-.46.32-.77.32s-.57-.1-.77-.32c-.2-.21-.31-.47-.31-.78v-.88l.4.16c0,.16-.08.35-.25.57-.17.22-.4.44-.68.66s-.63.4-1.02.55c-.39.15-.81.22-1.27.22-.83,0-1.58-.21-2.25-.64s-1.2-1.01-1.59-1.76-.58-1.61-.58-2.58.2-1.85.58-2.6.92-1.34,1.58-1.76,1.39-.64,2.2-.64c.52,0,.99.08,1.42.23.43.16.81.35,1.12.59.32.24.56.48.74.73s.26.45.26.62l-.65.23v-4.82c0-.31.1-.57.31-.78s.46-.32.77-.32ZM981.33,221.87c.53,0,.99-.13,1.39-.4.4-.26.71-.62.93-1.08.22-.46.33-.97.33-1.53s-.11-1.09-.33-1.55c-.22-.46-.53-.82-.93-1.08-.4-.26-.86-.4-1.39-.4s-.97.13-1.37.4c-.4.26-.71.62-.93,1.08-.22.46-.33.97-.33,1.55s.11,1.07.33,1.53c.22.46.53.82.93,1.08.4.26.85.4,1.37.4Z"/>
    <path class="st0" d="M989.32,212.87c-.41,0-.7-.07-.86-.2-.17-.13-.25-.37-.25-.7v-.34c0-.35.09-.58.28-.71.19-.13.47-.19.86-.19.42,0,.71.07.88.2.17.13.25.37.25.7v.34c0,.35-.09.58-.27.71-.18.13-.47.19-.88.19ZM990.42,222.57c0,.31-.1.57-.31.78-.2.21-.46.32-.77.32s-.57-.1-.77-.32c-.2-.21-.31-.47-.31-.78v-7.43c0-.31.1-.57.31-.78.2-.21.46-.31.77-.31s.57.11.77.31c.2.21.31.47.31.78v7.43Z"/>
    <path class="st0" d="M997.78,213.86c.89,0,1.56.19,2.03.56s.78.87.95,1.49.26,1.3.26,2.06v4.61c0,.31-.1.57-.31.78-.2.21-.46.32-.77.32s-.57-.1-.77-.32c-.2-.21-.31-.47-.31-.78v-4.61c0-.4-.05-.75-.15-1.07-.1-.32-.29-.57-.55-.76-.26-.19-.64-.29-1.13-.29s-.88.1-1.21.29c-.33.19-.58.45-.76.76-.17.32-.26.68-.26,1.07v4.61c0,.31-.1.57-.31.78-.2.21-.46.32-.77.32s-.57-.1-.77-.32c-.2-.21-.31-.47-.31-.78v-7.43c0-.31.1-.57.31-.78.2-.21.46-.31.77-.31s.57.11.77.31c.2.21.31.47.31.78v.77l-.27-.05c.11-.2.26-.42.47-.66.2-.23.44-.45.72-.66.28-.2.59-.37.94-.5s.73-.19,1.13-.19Z"/>
    <path class="st0" d="M1007.36,213.86c.5,0,.97.08,1.39.23.42.16.78.35,1.09.59.31.24.55.48.72.73s.26.45.26.62l-.47.23v-1.31c0-.31.1-.57.31-.78s.46-.31.77-.31.57.1.77.31.31.47.31.79v8.01c0,1.04-.23,1.88-.67,2.51-.45.63-1.04,1.09-1.77,1.37-.73.28-1.52.42-2.36.42-.24,0-.55-.03-.94-.09-.38-.06-.75-.13-1.1-.22-.35-.08-.61-.16-.79-.23-.36-.16-.61-.35-.75-.58-.14-.23-.17-.48-.08-.75.11-.35.28-.58.52-.71s.49-.14.76-.04c.12.04.32.11.59.22.28.11.58.21.91.3.33.09.62.13.87.13.9,0,1.57-.18,2-.54.43-.36.65-.86.65-1.49v-1.57l.22.16c0,.16-.08.35-.24.57s-.38.44-.67.66-.62.4-1,.55c-.38.15-.79.22-1.22.22-.85,0-1.62-.21-2.3-.64-.68-.43-1.22-1.01-1.62-1.76-.4-.75-.59-1.61-.59-2.58s.2-1.85.59-2.6c.4-.75.93-1.34,1.6-1.76s1.42-.64,2.25-.64ZM1007.7,215.84c-.54,0-1.01.13-1.42.4-.41.26-.73.62-.95,1.08-.23.46-.34.97-.34,1.55s.11,1.07.34,1.53.55.82.95,1.08c.41.26.88.4,1.42.4s1.03-.13,1.44-.4c.41-.26.73-.62.95-1.08s.34-.97.34-1.53-.11-1.09-.34-1.55c-.23-.46-.55-.82-.95-1.08-.41-.26-.89-.4-1.44-.4Z"/>
    <path class="st0" d="M841.24,243.86c.31,0,.57.1.77.31.2.2.31.47.31.79v7.61c0,.31-.1.57-.31.78-.2.21-.46.32-.77.32s-.57-.1-.77-.32c-.2-.21-.31-.47-.31-.78v-.88l.4.16c0,.16-.08.35-.25.57-.17.22-.4.44-.68.66s-.63.4-1.02.55c-.39.15-.81.22-1.27.22-.83,0-1.58-.21-2.25-.64s-1.2-1.01-1.59-1.76-.58-1.61-.58-2.58.2-1.85.58-2.6.92-1.34,1.58-1.76,1.39-.64,2.2-.64c.52,0,.99.08,1.42.23.43.16.81.35,1.12.59.32.24.56.48.74.73s.26.45.26.62l-.65.23v-1.31c0-.31.1-.57.31-.78s.46-.31.77-.31ZM837.6,251.87c.53,0,.99-.13,1.39-.4.4-.26.71-.62.93-1.08.22-.46.33-.97.33-1.53s-.11-1.09-.33-1.55c-.22-.46-.53-.82-.93-1.08-.4-.26-.86-.4-1.39-.4s-.97.13-1.37.4c-.4.26-.71.62-.93,1.08-.22.46-.33.97-.33,1.55s.11,1.07.33,1.53c.22.46.53.82.93,1.08.4.26.85.4,1.37.4Z"/>
    <path class="st0" d="M849.81,243.86c.89,0,1.56.19,2.03.56s.78.87.95,1.49.26,1.3.26,2.06v4.61c0,.31-.1.57-.31.78-.2.21-.46.32-.77.32s-.57-.1-.77-.32c-.2-.21-.31-.47-.31-.78v-4.61c0-.4-.05-.75-.15-1.07-.1-.32-.29-.57-.55-.76-.26-.19-.64-.29-1.13-.29s-.88.1-1.21.29c-.33.19-.58.45-.76.76-.17.32-.26.68-.26,1.07v4.61c0,.31-.1.57-.31.78-.2.21-.46.32-.77.32s-.57-.1-.77-.32c-.2-.21-.31-.47-.31-.78v-7.43c0-.31.1-.57.31-.78.2-.21.46-.31.77-.31s.57.11.77.31c.2.21.31.47.31.78v.77l-.27-.05c.11-.2.26-.42.47-.66.2-.23.44-.45.72-.66.28-.2.59-.37.94-.5s.73-.19,1.13-.19Z"/>
    <path class="st0" d="M863.27,240.35c.31,0,.57.1.77.31s.31.47.31.79v11.12c0,.31-.1.57-.31.78-.2.21-.46.32-.77.32s-.57-.1-.77-.32c-.2-.21-.31-.47-.31-.78v-.88l.4.16c0,.16-.08.35-.25.57s-.4.44-.68.66-.63.4-1.02.55c-.39.15-.81.22-1.27.22-.83,0-1.58-.21-2.25-.64-.67-.43-1.2-1.01-1.59-1.76-.39-.75-.58-1.61-.58-2.58s.19-1.85.58-2.6c.39-.75.91-1.34,1.57-1.76s1.39-.64,2.2-.64c.52,0,.99.08,1.42.23.43.16.81.35,1.12.59.32.24.56.48.74.73s.26.45.26.62l-.65.23v-4.82c0-.31.1-.57.31-.78s.46-.32.77-.32ZM859.63,251.87c.53,0,.99-.13,1.39-.4.4-.26.7-.62.93-1.08.22-.46.33-.97.33-1.53s-.11-1.09-.33-1.55c-.22-.46-.53-.82-.93-1.08-.4-.26-.86-.4-1.39-.4s-.97.13-1.37.4c-.4.26-.71.62-.93,1.08s-.33.97-.33,1.55.11,1.07.33,1.53c.22.46.53.82.93,1.08.4.26.85.4,1.37.4Z"/>
    <path class="st0" d="M882.82,244.04c.28,0,.52.11.72.31.2.21.31.48.31.8,0,.08,0,.16-.02.22-.01.07-.03.13-.05.19l-2.75,7.42c-.08.24-.23.42-.45.55-.22.13-.44.17-.68.13-.41-.02-.71-.25-.92-.68l-1.78-5.13.47.02-1.67,5.11c-.2.43-.51.66-.92.68-.23.04-.45,0-.67-.13s-.38-.31-.46-.55l-2.75-7.42c-.05-.13-.07-.27-.07-.41,0-.29.1-.55.29-.77.19-.23.46-.34.79-.34.23,0,.43.05.61.16.18.11.31.28.38.52l2.18,5.9-.45-.04,1.64-4.45c.19-.44.52-.67.99-.67.26,0,.46.06.6.17.14.11.25.28.33.49l1.64,4.45-.54.07,2.21-5.94c.14-.46.49-.68,1.04-.68Z"/>
    <path class="st0" d="M886.63,253.67c-.31,0-.57-.1-.77-.32-.2-.21-.31-.47-.31-.78v-7.43c0-.31.1-.57.31-.78.2-.21.46-.31.77-.31s.57.11.77.31c.2.21.31.47.31.78v1.69l-.13-1.21c.13-.29.3-.54.51-.76.21-.22.45-.41.71-.56.26-.15.55-.26.85-.33s.6-.11.9-.11c.36,0,.66.1.91.31.25.2.37.44.37.72,0,.4-.1.68-.31.86s-.43.26-.67.26c-.23,0-.43-.04-.62-.13-.19-.08-.4-.13-.64-.13-.22,0-.44.05-.66.15-.22.1-.43.26-.61.48-.19.22-.34.48-.45.8-.11.32-.17.69-.17,1.12v4.27c0,.31-.1.57-.31.78-.2.21-.46.32-.77.32Z"/>
    <path class="st0" d="M894.3,242.87c-.41,0-.7-.07-.86-.2s-.25-.37-.25-.7v-.34c0-.35.09-.58.28-.71.19-.13.47-.19.85-.19.42,0,.71.07.88.2.17.13.25.37.25.7v.34c0,.35-.09.58-.27.71s-.47.19-.88.19ZM895.4,252.57c0,.31-.1.57-.31.78-.2.21-.46.32-.77.32s-.57-.1-.77-.32c-.2-.21-.31-.47-.31-.78v-7.43c0-.31.1-.57.31-.78.2-.21.46-.31.77-.31s.57.11.77.31c.2.21.31.47.31.78v7.43Z"/>
    <path class="st0" d="M897.72,244.22h4.27c.29,0,.53.1.72.29.19.19.29.43.29.72s-.1.51-.29.69c-.19.19-.43.28-.72.28h-4.27c-.29,0-.53-.1-.72-.29-.19-.19-.29-.43-.29-.72s.1-.51.29-.69c.19-.19.43-.28.72-.28ZM899.65,241.97c.31,0,.57.11.77.32.2.21.3.47.3.78v8.01c0,.17.03.31.1.41.07.11.16.19.27.23.11.05.24.07.37.07.14,0,.28-.03.4-.08s.26-.08.41-.08c.17,0,.32.08.46.23.14.16.21.37.21.65,0,.34-.18.61-.55.83-.37.22-.76.32-1.18.32-.25,0-.53-.02-.84-.06-.31-.04-.59-.14-.86-.31-.27-.16-.49-.41-.67-.75-.18-.34-.27-.8-.27-1.39v-8.1c0-.31.1-.57.31-.78s.47-.32.78-.32Z"/>
    <path class="st0" d="M905.91,242.87c-.41,0-.7-.07-.86-.2-.17-.13-.25-.37-.25-.7v-.34c0-.35.09-.58.28-.71.19-.13.47-.19.86-.19.42,0,.71.07.88.2.17.13.25.37.25.7v.34c0,.35-.09.58-.27.71-.18.13-.47.19-.88.19ZM907.01,252.57c0,.31-.1.57-.31.78-.2.21-.46.32-.77.32s-.57-.1-.77-.32c-.2-.21-.31-.47-.31-.78v-7.43c0-.31.1-.57.31-.78.2-.21.46-.31.77-.31s.57.11.77.31c.2.21.31.47.31.78v7.43Z"/>
    <path class="st0" d="M914.37,243.86c.89,0,1.56.19,2.03.56s.78.87.95,1.49.26,1.3.26,2.06v4.61c0,.31-.1.57-.31.78-.2.21-.46.32-.77.32s-.57-.1-.77-.32c-.2-.21-.31-.47-.31-.78v-4.61c0-.4-.05-.75-.15-1.07-.1-.32-.29-.57-.55-.76-.26-.19-.64-.29-1.13-.29s-.88.1-1.21.29c-.33.19-.58.45-.76.76-.17.32-.26.68-.26,1.07v4.61c0,.31-.1.57-.31.78-.2.21-.46.32-.77.32s-.57-.1-.77-.32c-.2-.21-.31-.47-.31-.78v-7.43c0-.31.1-.57.31-.78.2-.21.46-.31.77-.31s.57.11.77.31c.2.21.31.47.31.78v.77l-.27-.05c.11-.2.26-.42.47-.66.2-.23.44-.45.72-.66.28-.2.59-.37.94-.5s.73-.19,1.13-.19Z"/>
    <path class="st0" d="M923.95,243.86c.5,0,.97.08,1.39.23.42.16.78.35,1.09.59.31.24.55.48.72.73s.26.45.26.62l-.47.23v-1.31c0-.31.1-.57.31-.78s.46-.31.77-.31.57.1.77.31.31.47.31.79v8.01c0,1.04-.23,1.88-.67,2.51-.45.63-1.04,1.09-1.77,1.37-.73.28-1.52.42-2.36.42-.24,0-.55-.03-.94-.09-.38-.06-.75-.13-1.1-.22-.35-.08-.61-.16-.79-.23-.36-.16-.61-.35-.75-.58-.14-.23-.17-.48-.08-.75.11-.35.28-.58.52-.71s.49-.14.76-.04c.12.04.32.11.59.22.28.11.58.21.91.3.33.09.62.13.87.13.9,0,1.57-.18,2-.54.43-.36.65-.86.65-1.49v-1.57l.22.16c0,.16-.08.35-.24.57s-.38.44-.67.66-.62.4-1,.55c-.38.15-.79.22-1.22.22-.85,0-1.62-.21-2.3-.64-.68-.43-1.22-1.01-1.62-1.76-.4-.75-.59-1.61-.59-2.58s.2-1.85.59-2.6c.4-.75.93-1.34,1.6-1.76s1.42-.64,2.25-.64ZM924.29,245.84c-.54,0-1.01.13-1.42.4-.41.26-.73.62-.95,1.08-.23.46-.34.97-.34,1.55s.11,1.07.34,1.53.55.82.95,1.08c.41.26.88.4,1.42.4s1.03-.13,1.44-.4c.41-.26.73-.62.95-1.08s.34-.97.34-1.53-.11-1.09-.34-1.55c-.23-.46-.55-.82-.95-1.08-.41-.26-.89-.4-1.44-.4Z"/>
    <path class="st0" d="M932.39,253.65c-.35,0-.62-.09-.8-.28-.19-.19-.28-.45-.28-.8v-.31c0-.35.09-.61.28-.8s.45-.28.8-.28h.23c.35,0,.62.09.8.28.19.19.28.45.28.8v.31c0,.35-.09.62-.28.8s-.45.28-.8.28h-.23Z"/>
    <path class="st0" d="M843.25,293.7c.42,0,.76.13,1.04.4s.42.6.42,1.02-.14.73-.42,1c-.28.26-.63.4-1.04.4h-7.8c-.42,0-.76-.14-1.04-.42-.28-.28-.42-.63-.42-1.04v-13.87c0-.42.14-.76.43-1.04s.66-.42,1.1-.42c.38,0,.72.14,1.02.42s.44.63.44,1.04v12.94l-.53-.41h6.79Z"/>
    <path class="st0" d="M848.94,279.71h8.04c.42,0,.76.13,1.04.4.28.26.42.6.42,1.02s-.14.72-.42.97c-.28.25-.63.37-1.04.37h-6.72l.22-.41v4.68l-.19-.19h5.62c.42,0,.76.13,1.04.4.28.26.42.6.42,1.02s-.14.72-.42.97c-.28.25-.63.37-1.04.37h-5.54l.12-.19v4.85l-.19-.22h6.7c.42,0,.76.14,1.04.42.28.28.42.6.42.97,0,.4-.14.73-.42.98-.28.26-.63.38-1.04.38h-8.04c-.42,0-.76-.14-1.04-.42-.28-.28-.42-.63-.42-1.04v-13.87c0-.42.14-.76.42-1.04.28-.28.63-.42,1.04-.42Z"/>
    <path class="st0" d="M867.37,283.48l-5.18,12.19c-.11.3-.28.54-.52.71-.23.17-.48.25-.76.25-.43,0-.75-.12-.96-.36s-.31-.54-.31-.89c0-.14.02-.3.07-.46l5.98-14.35c.13-.32.32-.57.59-.74.26-.18.55-.25.85-.22.29,0,.56.08.8.25s.43.4.54.71l5.9,14.06c.08.21.12.4.12.58,0,.43-.14.78-.42,1.03-.28.26-.59.38-.92.38-.29,0-.55-.09-.78-.26-.23-.18-.41-.42-.54-.72l-5.16-12.02.7-.14ZM862.93,292.74l1.32-2.76h6.48l.46,2.76h-8.26Z"/>
    <path class="st0" d="M878.26,296.51c-.45,0-.85-.14-1.2-.42s-.53-.63-.53-1.04v-13.87c0-.42.14-.76.42-1.04.28-.28.63-.42,1.04-.42h6.91c.83,0,1.61.22,2.34.66.73.44,1.32,1.05,1.76,1.82.45.78.67,1.67.67,2.68,0,.61-.12,1.2-.37,1.78s-.58,1.1-1.01,1.56-.9.82-1.43,1.08l.02-.55c.45.24.82.52,1.12.85s.53.68.7,1.06.27.78.3,1.21c.06.4.11.75.13,1.06.02.3.07.56.14.77.07.21.21.37.42.48.35.21.57.51.66.9.09.39,0,.74-.28,1.04-.18.21-.4.34-.67.4-.27.06-.54.06-.82,0-.27-.06-.5-.13-.67-.23-.27-.16-.54-.4-.82-.71-.27-.31-.49-.73-.66-1.26s-.25-1.21-.25-2.04c0-.27-.05-.52-.14-.76-.1-.23-.23-.43-.41-.6-.18-.17-.4-.3-.67-.38-.27-.09-.59-.13-.96-.13h-4.85l.36-.55v5.21c0,.42-.11.76-.34,1.04-.22.28-.54.42-.94.42ZM879.2,287.92h5.59c.29,0,.57-.13.84-.4.27-.26.5-.62.67-1.08.18-.46.26-.96.26-1.5,0-.7-.19-1.29-.56-1.76-.38-.47-.78-.71-1.21-.71h-5.54l.29-.77v6.79l-.34-.58Z"/>
    <path class="st0" d="M905.77,279.71c.38,0,.7.13.94.38.24.26.36.58.36.96v13.99c0,.42-.14.76-.42,1.04-.28.28-.63.42-1.04.42-.21,0-.42-.04-.64-.11-.22-.07-.38-.17-.49-.3l-9.43-11.98.62-.38v11.42c0,.38-.12.7-.37.96s-.57.38-.97.38-.7-.13-.94-.38c-.24-.26-.36-.58-.36-.96v-13.99c0-.42.14-.76.42-1.04.28-.28.63-.42,1.04-.42.22,0,.46.04.7.13s.42.22.53.4l9.14,11.66-.41.29v-11.14c0-.38.12-.7.36-.96s.56-.38.96-.38Z"/>
    <path class="st0" d="M913.66,295.05c0,.42-.15.76-.46,1.04s-.66.42-1.06.42c-.45,0-.81-.14-1.08-.42-.27-.28-.41-.63-.41-1.04v-13.87c0-.42.14-.76.43-1.04s.66-.42,1.1-.42c.38,0,.72.14,1.02.42s.44.63.44,1.04v13.87Z"/>
    <path class="st0" d="M930.01,279.71c.38,0,.7.13.94.38s.36.58.36.96v13.99c0,.42-.14.76-.42,1.04s-.63.42-1.04.42c-.21,0-.42-.04-.64-.11-.22-.07-.38-.17-.49-.3l-9.43-11.98.62-.38v11.42c0,.38-.12.7-.37.96s-.57.38-.97.38-.7-.13-.94-.38-.36-.58-.36-.96v-13.99c0-.42.14-.76.42-1.04.28-.28.63-.42,1.04-.42.22,0,.46.04.7.13.24.09.42.22.53.4l9.14,11.66-.41.29v-11.14c0-.38.12-.7.36-.96.24-.26.56-.38.96-.38Z"/>
    <path class="st0" d="M942.82,296.75c-1.22,0-2.35-.22-3.41-.67-1.06-.45-1.98-1.07-2.78-1.86-.8-.79-1.43-1.71-1.88-2.75s-.68-2.16-.68-3.36.23-2.32.68-3.36,1.08-1.96,1.88-2.75c.8-.79,1.73-1.41,2.78-1.86,1.06-.45,2.19-.67,3.41-.67.75,0,1.48.08,2.18.24s1.35.4,1.94.72c.24.13.42.3.54.52.12.22.18.44.18.66,0,.38-.13.73-.38,1.03-.26.3-.58.46-.98.46-.13,0-.26-.02-.4-.05-.14-.03-.27-.08-.4-.14-.4-.18-.82-.31-1.27-.41-.45-.1-.92-.14-1.42-.14-1.04,0-1.99.26-2.84.78-.86.52-1.54,1.22-2.04,2.09s-.76,1.84-.76,2.89.25,2,.76,2.88,1.18,1.58,2.04,2.1c.86.52,1.8.78,2.84.78.48,0,1.01-.05,1.58-.14.58-.1,1.05-.22,1.42-.38l-.22.72v-4.1l.41.36h-2.66c-.42,0-.76-.14-1.04-.41-.28-.27-.42-.62-.42-1.03s.14-.76.42-1.03c.28-.27.63-.41,1.04-.41h3.94c.42,0,.76.14,1.03.42.27.28.41.63.41,1.04v5.09c0,.32-.08.58-.23.79-.15.21-.32.38-.52.5-.74.45-1.54.8-2.41,1.07-.87.26-1.79.4-2.75.4Z"/>
    <path class="st0" d="M963.73,296.75c-1.12,0-2.13-.14-3.02-.42-.9-.28-1.75-.77-2.57-1.48-.21-.18-.37-.38-.48-.6-.11-.22-.17-.45-.17-.67,0-.37.13-.69.4-.97.26-.28.6-.42,1-.42.3,0,.58.1.82.29.61.5,1.21.87,1.81,1.13.6.26,1.34.38,2.22.38.59,0,1.14-.09,1.63-.28s.9-.43,1.2-.74c.3-.31.46-.67.46-1.07,0-.48-.14-.89-.43-1.22s-.73-.62-1.32-.85c-.59-.23-1.34-.41-2.26-.54-.86-.13-1.62-.32-2.28-.59-.66-.26-1.2-.6-1.64-1.01-.44-.41-.77-.89-1-1.44-.22-.55-.34-1.17-.34-1.86,0-1.04.27-1.93.8-2.66.54-.74,1.26-1.3,2.17-1.68s1.92-.58,3.02-.58c1.04,0,2,.16,2.89.47.89.31,1.61.71,2.17,1.19.46.37.7.79.7,1.27,0,.35-.14.67-.41.96-.27.29-.59.43-.96.43-.24,0-.46-.07-.65-.22-.26-.22-.6-.44-1.03-.64-.43-.2-.89-.37-1.37-.5-.48-.14-.93-.2-1.34-.2-.69,0-1.27.09-1.74.26-.47.18-.83.42-1.07.72s-.36.66-.36,1.06c0,.48.14.88.42,1.19.28.31.68.56,1.21.74.53.18,1.16.35,1.9.49.96.18,1.8.38,2.53.62.73.24,1.33.55,1.81.92.48.38.84.85,1.08,1.42.24.57.36,1.26.36,2.08,0,1.04-.29,1.94-.86,2.69-.58.75-1.33,1.33-2.27,1.73-.94.4-1.95.6-3.04.6Z"/>
    <path class="st0" d="M973.04,282.47c-.42,0-.76-.13-1.04-.38s-.42-.59-.42-1.01.14-.75.42-1,.63-.37,1.04-.37h10.66c.42,0,.76.13,1.04.38.28.26.42.59.42,1.01s-.14.75-.42,1c-.28.25-.63.37-1.04.37h-10.66ZM978.34,296.51c-.45,0-.82-.14-1.1-.42s-.43-.63-.43-1.04v-13.92h3.12v13.92c0,.42-.15.76-.44,1.04-.3.28-.68.42-1.14.42Z"/>
    <path class="st0" d="M992.65,283.48l-5.18,12.19c-.11.3-.29.54-.52.71-.23.17-.48.25-.76.25-.43,0-.75-.12-.96-.36s-.31-.54-.31-.89c0-.14.02-.3.07-.46l5.98-14.35c.13-.32.32-.57.59-.74.26-.18.55-.25.85-.22.29,0,.56.08.8.25.25.17.43.4.54.71l5.9,14.06c.08.21.12.4.12.58,0,.43-.14.78-.42,1.03-.28.26-.59.38-.92.38-.29,0-.55-.09-.78-.26-.23-.18-.41-.42-.54-.72l-5.16-12.02.7-.14ZM988.21,292.74l1.32-2.76h6.48l.46,2.76h-8.26Z"/>
    <path class="st0" d="M1003.54,296.51c-.45,0-.85-.14-1.2-.42-.35-.28-.53-.63-.53-1.04v-13.87c0-.42.14-.76.42-1.04.28-.28.63-.42,1.04-.42h6.91c.83,0,1.61.22,2.34.66.73.44,1.32,1.05,1.76,1.82.45.78.67,1.67.67,2.68,0,.61-.12,1.2-.37,1.78-.25.58-.58,1.1-1.01,1.56s-.9.82-1.43,1.08l.02-.55c.45.24.82.52,1.12.85.3.33.53.68.7,1.06s.27.78.3,1.21c.06.4.11.75.13,1.06.02.3.07.56.14.77s.21.37.42.48c.35.21.57.51.66.9.09.39,0,.74-.28,1.04-.18.21-.4.34-.67.4-.27.06-.54.06-.82,0-.27-.06-.5-.13-.67-.23-.27-.16-.54-.4-.82-.71-.27-.31-.49-.73-.66-1.26s-.25-1.21-.25-2.04c0-.27-.05-.52-.14-.76-.1-.23-.23-.43-.41-.6-.18-.17-.4-.3-.67-.38-.27-.09-.59-.13-.96-.13h-4.85l.36-.55v5.21c0,.42-.11.76-.34,1.04-.22.28-.54.42-.94.42ZM1004.48,287.92h5.59c.29,0,.57-.13.84-.4.27-.26.5-.62.67-1.08s.26-.96.26-1.5c0-.7-.19-1.29-.56-1.76s-.78-.71-1.21-.71h-5.54l.29-.77v6.79l-.34-.58Z"/>
    <path class="st0" d="M1023.7,296.75c-1.12,0-2.13-.14-3.02-.42-.9-.28-1.75-.77-2.57-1.48-.21-.18-.37-.38-.48-.6-.11-.22-.17-.45-.17-.67,0-.37.13-.69.4-.97.26-.28.6-.42,1-.42.3,0,.58.1.82.29.61.5,1.21.87,1.81,1.13.6.26,1.34.38,2.22.38.59,0,1.14-.09,1.63-.28s.9-.43,1.2-.74c.3-.31.46-.67.46-1.07,0-.48-.14-.89-.43-1.22s-.73-.62-1.32-.85c-.59-.23-1.34-.41-2.26-.54-.86-.13-1.62-.32-2.28-.59-.66-.26-1.2-.6-1.64-1.01-.44-.41-.77-.89-1-1.44-.22-.55-.34-1.17-.34-1.86,0-1.04.27-1.93.8-2.66.54-.74,1.26-1.3,2.17-1.68s1.92-.58,3.02-.58c1.04,0,2,.16,2.89.47.89.31,1.61.71,2.17,1.19.46.37.7.79.7,1.27,0,.35-.14.67-.41.96-.27.29-.59.43-.96.43-.24,0-.46-.07-.65-.22-.26-.22-.6-.44-1.03-.64-.43-.2-.89-.37-1.37-.5-.48-.14-.93-.2-1.34-.2-.69,0-1.27.09-1.74.26-.47.18-.83.42-1.07.72s-.36.66-.36,1.06c0,.48.14.88.42,1.19.28.31.68.56,1.21.74.53.18,1.16.35,1.9.49.96.18,1.8.38,2.53.62.73.24,1.33.55,1.81.92.48.38.84.85,1.08,1.42.24.57.36,1.26.36,2.08,0,1.04-.29,1.94-.86,2.69-.58.75-1.33,1.33-2.27,1.73-.94.4-1.95.6-3.04.6Z"/>
  </g>
  <g>
    <path class="st0" d="M230.15,192.62c-.34,0-.61-.1-.82-.32-.21-.21-.31-.47-.31-.78v-10.4c0-.31.1-.57.31-.78s.47-.31.78-.31h5.85c.31,0,.57.1.78.3.21.2.32.45.32.76,0,.26-.11.5-.32.7s-.47.31-.78.31h-4.86l.16-.22v3.62l-.13-.23h4.01c.31,0,.57.1.78.3.21.2.31.45.31.77,0,.26-.1.5-.31.7s-.47.31-.78.31h-4.05l.16-.16v4.36c0,.31-.11.57-.33.78-.22.21-.48.32-.78.32Z"/>
    <path class="st0" d="M248.02,187.81c0,.98-.22,1.85-.66,2.6-.44.75-1.03,1.33-1.76,1.75-.74.42-1.56.63-2.47.63s-1.74-.21-2.47-.63c-.74-.42-1.33-1-1.76-1.75-.44-.75-.66-1.62-.66-2.6s.22-1.85.66-2.6c.44-.75,1.03-1.34,1.76-1.76.74-.43,1.56-.64,2.47-.64s1.74.21,2.47.64c.74.43,1.33,1.01,1.76,1.76.44.75.66,1.62.66,2.6ZM245.86,187.81c0-.61-.12-1.14-.37-1.59-.25-.45-.58-.8-.99-1.05s-.87-.38-1.38-.38-.96.13-1.38.38-.74.6-.99,1.05c-.25.45-.37.98-.37,1.59s.12,1.12.37,1.57c.25.45.58.8.99,1.05s.87.38,1.38.38.96-.13,1.38-.38.74-.6.99-1.05c.25-.45.37-.97.37-1.57Z"/>
    <path class="st0" d="M250.99,192.62c-.31,0-.57-.1-.77-.32-.2-.21-.31-.47-.31-.78v-7.43c0-.31.1-.57.31-.78.2-.21.46-.31.77-.31s.57.11.77.31c.2.21.31.47.31.78v1.69l-.13-1.21c.13-.29.3-.54.51-.76.21-.22.45-.41.71-.56.26-.15.55-.26.85-.33s.6-.11.9-.11c.36,0,.66.1.91.31.25.2.37.44.37.72,0,.4-.1.68-.31.86s-.43.26-.67.26c-.23,0-.43-.04-.62-.13-.19-.08-.4-.13-.64-.13-.22,0-.44.05-.66.15-.22.1-.43.26-.61.48-.19.22-.34.48-.45.8-.11.32-.17.69-.17,1.12v4.27c0,.31-.1.57-.31.78-.2.21-.46.32-.77.32Z"/>
    <path class="st0" d="M267.05,182.81c.68,0,1.28.07,1.79.22.51.14.91.34,1.19.6.28.26.42.57.42.93,0,.24-.07.47-.22.68-.14.21-.35.31-.63.31-.19,0-.35-.03-.48-.08-.13-.05-.24-.12-.33-.21s-.21-.16-.34-.23c-.12-.07-.3-.13-.55-.17-.25-.04-.43-.06-.55-.06-.61,0-1.13.13-1.56.4-.43.26-.75.62-.98,1.07-.23.45-.34.97-.34,1.56s.12,1.09.35,1.54c.23.45.56.81.97,1.07.41.26.89.4,1.43.4.3,0,.56-.02.77-.05.22-.04.4-.09.54-.16.17-.1.32-.2.45-.31.13-.11.33-.16.59-.16.31,0,.55.1.72.3.17.2.25.44.25.73s-.17.57-.5.82-.78.44-1.32.59c-.55.15-1.14.22-1.77.22-.95,0-1.77-.22-2.47-.66-.7-.44-1.23-1.04-1.61-1.79-.38-.76-.57-1.6-.57-2.54,0-.98.2-1.85.6-2.6s.96-1.34,1.67-1.76,1.53-.64,2.46-.64Z"/>
    <path class="st0" d="M277.18,182.81c.86,0,1.52.19,1.97.56.45.37.76.87.93,1.49s.25,1.3.25,2.06v4.61c0,.31-.1.57-.31.78-.2.21-.46.32-.77.32s-.57-.1-.77-.32c-.2-.21-.31-.47-.31-.78v-4.61c0-.4-.05-.75-.14-1.07-.1-.32-.27-.57-.52-.76-.25-.19-.61-.29-1.08-.29s-.85.1-1.17.29c-.32.19-.57.45-.73.76-.16.32-.24.68-.24,1.07v4.61c0,.31-.1.57-.31.78-.2.21-.46.32-.77.32s-.57-.1-.77-.32c-.2-.21-.31-.47-.31-.78v-11.12c0-.31.1-.57.31-.78s.46-.32.77-.32.57.11.77.32.31.47.31.78v4.46l-.27-.05c.11-.2.26-.42.45-.66.19-.23.43-.45.7-.66.28-.2.58-.37.92-.5s.7-.19,1.1-.19Z"/>
    <path class="st0" d="M283.61,181.82c-.41,0-.7-.07-.86-.2-.17-.13-.25-.37-.25-.7v-.34c0-.35.09-.58.28-.71.19-.13.47-.19.86-.19.42,0,.71.07.88.2.17.13.25.37.25.7v.34c0,.35-.09.58-.27.71-.18.13-.47.19-.88.19ZM284.71,191.52c0,.31-.1.57-.31.78-.2.21-.46.32-.77.32s-.57-.1-.77-.32c-.2-.21-.31-.47-.31-.78v-7.43c0-.31.1-.57.31-.78.2-.21.46-.31.77-.31s.57.11.77.31c.2.21.31.47.31.78v7.43Z"/>
    <path class="st0" d="M289.26,191.52c0,.31-.11.57-.32.78-.21.21-.47.32-.78.32s-.55-.1-.76-.32c-.2-.21-.31-.47-.31-.78v-11.12c0-.31.11-.57.32-.78s.47-.32.78-.32.57.11.76.32.3.47.3.78v11.12Z"/>
    <path class="st0" d="M299.48,179.3c.31,0,.57.1.77.31s.31.47.31.79v11.12c0,.31-.1.57-.31.78-.2.21-.46.32-.77.32s-.57-.1-.77-.32c-.2-.21-.31-.47-.31-.78v-.88l.4.16c0,.16-.08.35-.25.57s-.4.44-.68.66-.63.4-1.02.55c-.39.15-.81.22-1.27.22-.83,0-1.58-.21-2.25-.64-.67-.43-1.2-1.01-1.59-1.76-.39-.75-.58-1.61-.58-2.58s.19-1.85.58-2.6c.39-.75.91-1.34,1.57-1.76s1.39-.64,2.2-.64c.52,0,.99.08,1.42.23.43.16.81.35,1.12.59.32.24.56.48.74.73s.26.45.26.62l-.65.23v-4.82c0-.31.1-.57.31-.78s.46-.32.77-.32ZM295.85,190.82c.53,0,.99-.13,1.39-.4.4-.26.7-.62.93-1.08.22-.46.33-.97.33-1.53s-.11-1.09-.33-1.55c-.22-.46-.53-.82-.93-1.08-.4-.26-.86-.4-1.39-.4s-.97.13-1.37.4c-.4.26-.71.62-.93,1.08s-.33.97-.33,1.55.11,1.07.33,1.53c.22.46.53.82.93,1.08.4.26.85.4,1.37.4Z"/>
    <path class="st0" d="M303.98,192.62c-.31,0-.57-.1-.77-.32-.2-.21-.31-.47-.31-.78v-7.43c0-.31.1-.57.31-.78.2-.21.46-.31.77-.31s.57.11.77.31c.2.21.31.47.31.78v1.69l-.13-1.21c.13-.29.3-.54.51-.76.21-.22.45-.41.71-.56.26-.15.55-.26.85-.33s.6-.11.9-.11c.36,0,.66.1.91.31s.37.44.37.72c0,.4-.1.68-.31.86s-.43.26-.67.26-.44-.04-.62-.13c-.19-.08-.4-.13-.64-.13-.22,0-.44.05-.66.15-.22.1-.43.26-.61.48-.19.22-.34.48-.45.8-.11.32-.17.69-.17,1.12v4.27c0,.31-.1.57-.31.78-.2.21-.46.32-.77.32Z"/>
    <path class="st0" d="M314.85,192.8c-1.02,0-1.91-.21-2.66-.64s-1.33-1-1.73-1.74c-.4-.73-.6-1.56-.6-2.48,0-1.08.22-2,.66-2.76.44-.76,1.01-1.35,1.72-1.75.71-.41,1.46-.61,2.25-.61.61,0,1.19.13,1.74.38s1.03.6,1.45,1.03c.42.44.75.95,1,1.52s.37,1.19.37,1.84c-.01.29-.13.52-.34.7-.22.18-.47.27-.76.27h-6.88l-.54-1.8h6.61l-.4.36v-.49c-.02-.35-.15-.66-.37-.94-.22-.28-.5-.5-.83-.66s-.68-.24-1.05-.24-.7.05-1.01.14c-.31.1-.58.26-.81.49s-.41.53-.54.92c-.13.38-.2.87-.2,1.46,0,.65.13,1.2.41,1.65.27.45.62.79,1.04,1.03.43.23.88.35,1.36.35.44,0,.8-.04,1.06-.11s.48-.16.64-.26c.16-.1.31-.19.44-.26.22-.11.42-.16.61-.16.26,0,.48.09.66.27.17.18.26.39.26.63,0,.32-.17.62-.5.88-.31.26-.75.49-1.31.69s-1.15.3-1.75.3Z"/>
    <path class="st0" d="M326.09,182.81c.89,0,1.56.19,2.02.56s.78.87.95,1.49.26,1.3.26,2.06v4.61c0,.31-.1.57-.31.78-.2.21-.46.32-.77.32s-.57-.1-.77-.32c-.2-.21-.31-.47-.31-.78v-4.61c0-.4-.05-.75-.15-1.07-.1-.32-.29-.57-.55-.76-.26-.19-.64-.29-1.13-.29s-.89.1-1.21.29c-.33.19-.58.45-.76.76-.17.32-.26.68-.26,1.07v4.61c0,.31-.1.57-.31.78-.2.21-.46.32-.77.32s-.57-.1-.77-.32c-.2-.21-.31-.47-.31-.78v-7.43c0-.31.1-.57.31-.78.2-.21.46-.31.77-.31s.57.11.77.31c.2.21.31.47.31.78v.77l-.27-.05c.11-.2.26-.42.47-.66.2-.23.44-.45.72-.66s.59-.37.94-.5c.35-.13.73-.19,1.13-.19Z"/>
    <path class="st0" d="M344.59,179.3c.31,0,.57.1.77.31.2.2.31.47.31.79v11.12c0,.31-.1.57-.31.78-.2.21-.46.32-.77.32s-.57-.1-.77-.32c-.2-.21-.31-.47-.31-.78v-.88l.4.16c0,.16-.08.35-.25.57-.17.22-.4.44-.68.66s-.63.4-1.02.55c-.39.15-.81.22-1.27.22-.83,0-1.58-.21-2.25-.64s-1.2-1.01-1.59-1.76-.58-1.61-.58-2.58.2-1.85.58-2.6.92-1.34,1.58-1.76,1.39-.64,2.2-.64c.52,0,.99.08,1.42.23.43.16.81.35,1.12.59.32.24.56.48.74.73s.26.45.26.62l-.65.23v-4.82c0-.31.1-.57.31-.78s.46-.32.77-.32ZM340.96,190.82c.53,0,.99-.13,1.39-.4.4-.26.71-.62.93-1.08.22-.46.33-.97.33-1.53s-.11-1.09-.33-1.55c-.22-.46-.53-.82-.93-1.08-.4-.26-.86-.4-1.39-.4s-.97.13-1.37.4c-.4.26-.71.62-.93,1.08-.22.46-.33.97-.33,1.55s.11,1.07.33,1.53c.22.46.53.82.93,1.08.4.26.85.4,1.37.4Z"/>
    <path class="st0" d="M357.35,187.81c0,.98-.22,1.85-.66,2.6-.44.75-1.03,1.33-1.76,1.75s-1.56.63-2.47.63-1.74-.21-2.48-.63-1.33-1-1.76-1.75c-.44-.75-.66-1.62-.66-2.6s.22-1.85.66-2.6c.44-.75,1.03-1.34,1.76-1.76s1.56-.64,2.48-.64,1.74.21,2.47.64,1.33,1.01,1.76,1.76c.44.75.66,1.62.66,2.6ZM355.19,187.81c0-.61-.12-1.14-.37-1.59-.25-.45-.58-.8-.99-1.05s-.87-.38-1.38-.38-.96.13-1.38.38c-.41.25-.74.6-.99,1.05-.25.45-.37.98-.37,1.59s.12,1.12.37,1.57c.25.45.58.8.99,1.05.41.25.87.38,1.38.38s.96-.13,1.38-.38.74-.6.99-1.05c.25-.45.37-.97.37-1.57Z"/>
    <path class="st0" d="M360.18,181.82c-.41,0-.7-.07-.86-.2s-.25-.37-.25-.7v-.34c0-.35.09-.58.28-.71.19-.13.47-.19.85-.19.42,0,.71.07.88.2.17.13.25.37.25.7v.34c0,.35-.09.58-.27.71s-.47.19-.88.19ZM361.28,191.52c0,.31-.1.57-.31.78-.2.21-.46.32-.77.32s-.57-.1-.77-.32c-.2-.21-.31-.47-.31-.78v-7.43c0-.31.1-.57.31-.78.2-.21.46-.31.77-.31s.57.11.77.31c.2.21.31.47.31.78v7.43Z"/>
    <path class="st0" d="M368.64,182.81c.89,0,1.56.19,2.02.56s.78.87.95,1.49.26,1.3.26,2.06v4.61c0,.31-.1.57-.31.78-.2.21-.46.32-.77.32s-.57-.1-.77-.32c-.2-.21-.31-.47-.31-.78v-4.61c0-.4-.05-.75-.15-1.07-.1-.32-.29-.57-.55-.76-.26-.19-.64-.29-1.13-.29s-.89.1-1.21.29c-.33.19-.58.45-.76.76-.17.32-.26.68-.26,1.07v4.61c0,.31-.1.57-.31.78-.2.21-.46.32-.77.32s-.57-.1-.77-.32c-.2-.21-.31-.47-.31-.78v-7.43c0-.31.1-.57.31-.78.2-.21.46-.31.77-.31s.57.11.77.31c.2.21.31.47.31.78v.77l-.27-.05c.11-.2.26-.42.47-.66.2-.23.44-.45.72-.66s.59-.37.94-.5c.35-.13.73-.19,1.13-.19Z"/>
    <path class="st0" d="M378.22,182.81c.5,0,.97.08,1.39.23.42.16.78.35,1.09.59.31.24.55.48.72.73s.26.45.26.62l-.47.23v-1.31c0-.31.1-.57.31-.78s.46-.31.77-.31.57.1.77.31.31.47.31.79v8.01c0,1.04-.22,1.88-.67,2.51-.45.63-1.04,1.09-1.77,1.37-.73.28-1.52.42-2.36.42-.24,0-.55-.03-.94-.09-.38-.06-.75-.13-1.1-.22s-.61-.16-.79-.23c-.36-.16-.61-.35-.75-.58-.14-.23-.17-.48-.08-.75.11-.35.28-.58.52-.71.24-.13.49-.14.76-.04.12.04.32.11.59.22.28.11.58.21.91.3.33.09.62.13.87.13.9,0,1.57-.18,2-.54s.65-.86.65-1.49v-1.57l.22.16c0,.16-.08.35-.24.57s-.38.44-.67.66c-.28.22-.62.4-1,.55-.38.15-.79.22-1.22.22-.85,0-1.62-.21-2.3-.64-.68-.43-1.22-1.01-1.62-1.76-.4-.75-.59-1.61-.59-2.58s.2-1.85.59-2.6c.4-.75.93-1.34,1.6-1.76.67-.43,1.42-.64,2.25-.64ZM378.56,184.79c-.54,0-1.01.13-1.42.4-.41.26-.73.62-.95,1.08-.23.46-.34.97-.34,1.55s.11,1.07.34,1.53c.23.46.55.82.95,1.08.41.26.88.4,1.42.4s1.03-.13,1.44-.4c.41-.26.73-.62.95-1.08.23-.46.34-.97.34-1.53s-.11-1.09-.34-1.55c-.23-.46-.55-.82-.95-1.08-.41-.26-.89-.4-1.44-.4Z"/>
    <path class="st0" d="M401.83,182.99c.28,0,.52.11.72.31.2.21.31.48.31.8,0,.08,0,.16-.02.22-.01.07-.03.13-.05.19l-2.75,7.42c-.08.24-.23.42-.45.55-.22.13-.44.17-.68.13-.41-.02-.71-.25-.92-.68l-1.78-5.13.47.02-1.67,5.11c-.2.43-.51.66-.92.68-.23.04-.45,0-.67-.13s-.38-.31-.46-.55l-2.75-7.42c-.05-.13-.07-.27-.07-.41,0-.29.1-.55.29-.77.19-.23.46-.34.79-.34.23,0,.43.05.61.16.18.11.31.28.38.52l2.18,5.9-.45-.04,1.64-4.45c.19-.44.52-.67.99-.67.26,0,.46.06.6.17.14.11.25.28.33.49l1.64,4.45-.54.07,2.21-5.94c.14-.46.49-.68,1.04-.68Z"/>
    <path class="st0" d="M409.1,192.8c-1.02,0-1.91-.21-2.66-.64s-1.33-1-1.73-1.74c-.4-.73-.6-1.56-.6-2.48,0-1.08.22-2,.66-2.76.44-.76,1.01-1.35,1.72-1.75.71-.41,1.46-.61,2.25-.61.61,0,1.19.13,1.74.38.55.25,1.03.6,1.45,1.03.42.44.75.95,1,1.52s.37,1.19.37,1.84c-.01.29-.13.52-.34.7s-.47.27-.76.27h-6.88l-.54-1.8h6.61l-.4.36v-.49c-.02-.35-.15-.66-.37-.94-.22-.28-.5-.5-.83-.66s-.68-.24-1.05-.24-.7.05-1.01.14c-.31.1-.58.26-.81.49-.23.23-.41.53-.54.92-.13.38-.2.87-.2,1.46,0,.65.13,1.2.4,1.65.27.45.62.79,1.04,1.03.43.23.88.35,1.36.35.44,0,.8-.04,1.06-.11.26-.07.48-.16.64-.26s.31-.19.44-.26c.22-.11.42-.16.61-.16.26,0,.48.09.66.27.17.18.26.39.26.63,0,.32-.17.62-.5.88-.31.26-.75.49-1.31.69-.56.2-1.15.3-1.75.3Z"/>
    <path class="st0" d="M417.53,191.52c0,.31-.11.57-.32.78-.21.21-.47.32-.78.32s-.55-.1-.76-.32c-.2-.21-.31-.47-.31-.78v-11.12c0-.31.11-.57.32-.78s.47-.32.78-.32.57.11.76.32.3.47.3.78v11.12Z"/>
    <path class="st0" d="M422.39,191.52c0,.31-.1.57-.31.78-.21.21-.47.32-.78.32s-.55-.1-.76-.32c-.2-.21-.31-.47-.31-.78v-11.12c0-.31.1-.57.31-.78s.47-.32.78-.32.57.11.76.32c.2.21.3.47.3.78v11.12Z"/>
    <path class="st0" d="M236.72,212.81c.31,0,.57.1.77.31s.31.47.31.79v7.61c0,.31-.1.57-.31.78-.2.21-.46.32-.77.32s-.57-.1-.77-.32c-.2-.21-.31-.47-.31-.78v-.88l.4.16c0,.16-.08.35-.25.57s-.4.44-.68.66-.63.4-1.02.55c-.39.15-.81.22-1.27.22-.83,0-1.58-.21-2.25-.64-.67-.43-1.2-1.01-1.59-1.76-.39-.75-.58-1.61-.58-2.58s.19-1.85.58-2.6c.39-.75.91-1.34,1.57-1.76s1.39-.64,2.2-.64c.52,0,.99.08,1.42.23.43.16.81.35,1.12.59.32.24.56.48.74.73s.26.45.26.62l-.65.23v-1.31c0-.31.1-.57.31-.78s.46-.31.77-.31ZM233.08,220.82c.53,0,.99-.13,1.39-.4.4-.26.7-.62.93-1.08.22-.46.33-.97.33-1.53s-.11-1.09-.33-1.55c-.22-.46-.53-.82-.93-1.08-.4-.26-.86-.4-1.39-.4s-.97.13-1.37.4c-.4.26-.71.62-.93,1.08s-.33.97-.33,1.55.11,1.07.33,1.53c.22.46.53.82.93,1.08.4.26.85.4,1.37.4Z"/>
    <path class="st0" d="M240.25,213.17h4.27c.29,0,.53.1.72.29.19.19.29.43.29.72s-.1.51-.29.69c-.19.19-.43.28-.72.28h-4.27c-.29,0-.53-.1-.72-.29-.19-.19-.29-.43-.29-.72s.1-.51.29-.69c.19-.19.43-.28.72-.28ZM242.17,210.92c.31,0,.57.11.77.32.2.21.3.47.3.78v8.01c0,.17.03.31.1.41.07.11.16.19.27.23.11.05.24.07.37.07.14,0,.28-.03.4-.08s.26-.08.41-.08c.17,0,.32.08.46.23.14.16.21.37.21.65,0,.34-.18.61-.55.83-.37.22-.76.32-1.18.32-.25,0-.53-.02-.84-.06-.31-.04-.59-.14-.86-.31-.27-.16-.49-.41-.67-.75-.18-.34-.27-.8-.27-1.39v-8.1c0-.31.1-.57.31-.78s.47-.32.78-.32Z"/>
    <path class="st0" d="M251.98,221.13c-.12-.17-.17-.38-.16-.65.01-.26.17-.49.47-.68.19-.12.4-.17.61-.15.22.02.43.13.63.33.35.35.71.62,1.1.81.38.19.86.29,1.44.29.18-.01.38-.04.59-.08s.4-.14.57-.29.24-.38.24-.69c0-.26-.09-.47-.27-.63-.18-.16-.42-.29-.71-.4-.29-.11-.62-.21-.98-.31-.37-.11-.75-.23-1.14-.36-.39-.13-.75-.3-1.07-.51-.32-.21-.59-.49-.79-.84-.2-.35-.31-.79-.31-1.31,0-.6.17-1.11.5-1.53s.77-.74,1.3-.97c.53-.23,1.09-.34,1.68-.34.37,0,.76.04,1.17.13.41.09.8.23,1.17.43.37.2.68.46.94.78.13.18.21.4.23.65.02.25-.09.48-.34.68-.18.14-.39.21-.63.19-.24-.02-.44-.1-.59-.24-.2-.26-.48-.47-.82-.63-.34-.16-.73-.23-1.18-.23-.18,0-.38.02-.58.06-.21.04-.39.13-.55.27-.16.14-.23.36-.23.66,0,.28.09.5.27.66.18.16.42.29.73.4.31.1.63.2.98.3.36.1.73.21,1.1.34.37.13.71.31,1.03.52.31.22.56.5.76.84.19.34.29.78.29,1.3,0,.61-.18,1.13-.54,1.57-.36.43-.81.76-1.35.98-.54.22-1.09.33-1.66.33-.71,0-1.42-.12-2.12-.37-.71-.25-1.3-.68-1.76-1.3Z"/>
    <path class="st0" d="M265.5,212.81c.68,0,1.28.07,1.79.22.51.14.91.34,1.19.6.28.26.42.57.42.93,0,.24-.07.47-.22.68-.14.21-.35.31-.63.31-.19,0-.35-.03-.48-.08-.13-.05-.24-.12-.33-.21-.1-.08-.21-.16-.34-.23-.12-.07-.3-.13-.55-.17s-.43-.06-.55-.06c-.61,0-1.13.13-1.56.4-.43.26-.75.62-.98,1.07s-.34.97-.34,1.56.12,1.09.35,1.54c.23.45.56.81.97,1.07.41.26.89.4,1.43.4.3,0,.56-.02.77-.05.22-.04.4-.09.54-.16.17-.1.32-.2.45-.31.13-.11.33-.16.59-.16.31,0,.55.1.72.3.17.2.25.44.25.73s-.17.57-.5.82-.78.44-1.32.59c-.55.15-1.14.22-1.77.22-.95,0-1.77-.22-2.47-.66-.7-.44-1.23-1.04-1.61-1.79-.38-.76-.57-1.6-.57-2.54,0-.98.2-1.85.6-2.6.4-.75.96-1.34,1.67-1.76.71-.43,1.53-.64,2.46-.64Z"/>
    <path class="st0" d="M275.63,212.81c.86,0,1.52.19,1.97.56s.76.87.93,1.49.25,1.3.25,2.06v4.61c0,.31-.1.57-.31.78-.2.21-.46.32-.77.32s-.57-.1-.77-.32c-.2-.21-.31-.47-.31-.78v-4.61c0-.4-.05-.75-.14-1.07-.1-.32-.27-.57-.52-.76-.25-.19-.61-.29-1.08-.29s-.85.1-1.17.29c-.32.19-.57.45-.73.76-.16.32-.24.68-.24,1.07v4.61c0,.31-.1.57-.31.78-.2.21-.46.32-.77.32s-.57-.1-.77-.32c-.2-.21-.31-.47-.31-.78v-11.12c0-.31.1-.57.31-.78.2-.21.46-.32.77-.32s.57.11.77.32.31.47.31.78v4.46l-.27-.05c.11-.2.26-.42.45-.66.19-.23.43-.45.7-.66.28-.2.58-.37.92-.5s.7-.19,1.1-.19Z"/>
    <path class="st0" d="M290.47,217.81c0,.98-.22,1.85-.66,2.6-.44.75-1.03,1.33-1.76,1.75-.74.42-1.56.63-2.47.63s-1.74-.21-2.47-.63c-.74-.42-1.33-1-1.76-1.75-.44-.75-.66-1.62-.66-2.6s.22-1.85.66-2.6c.44-.75,1.03-1.34,1.76-1.76.74-.43,1.56-.64,2.47-.64s1.74.21,2.47.64c.74.43,1.33,1.01,1.76,1.76.44.75.66,1.62.66,2.6ZM288.3,217.81c0-.61-.12-1.14-.37-1.59-.25-.45-.58-.8-.99-1.05s-.87-.38-1.38-.38-.96.13-1.38.38-.74.6-.99,1.05c-.25.45-.37.98-.37,1.59s.12,1.12.37,1.57c.25.45.58.8.99,1.05s.87.38,1.38.38.96-.13,1.38-.38.74-.6.99-1.05c.25-.45.37-.97.37-1.57Z"/>
    <path class="st0" d="M301.7,217.81c0,.98-.22,1.85-.66,2.6-.44.75-1.03,1.33-1.76,1.75s-1.56.63-2.47.63-1.74-.21-2.48-.63-1.33-1-1.76-1.75c-.44-.75-.66-1.62-.66-2.6s.22-1.85.66-2.6c.44-.75,1.03-1.34,1.76-1.76s1.56-.64,2.48-.64,1.74.21,2.47.64,1.33,1.01,1.76,1.76c.44.75.66,1.62.66,2.6ZM299.54,217.81c0-.61-.12-1.14-.37-1.59-.25-.45-.58-.8-.99-1.05s-.87-.38-1.38-.38-.96.13-1.38.38c-.41.25-.74.6-.99,1.05-.25.45-.37.98-.37,1.59s.12,1.12.37,1.57c.25.45.58.8.99,1.05.41.25.87.38,1.38.38s.96-.13,1.38-.38.74-.6.99-1.05c.25-.45.37-.97.37-1.57Z"/>
    <path class="st0" d="M305.93,221.52c0,.31-.1.57-.31.78-.21.21-.47.32-.78.32s-.55-.1-.76-.32c-.2-.21-.31-.47-.31-.78v-11.12c0-.31.1-.57.31-.78s.47-.32.78-.32.57.11.76.32c.2.21.3.47.3.78v11.12Z"/>
    <path class="st0" d="M321.37,212.81c.31,0,.57.1.77.31.2.2.31.47.31.79v7.61c0,.31-.1.57-.31.78-.2.21-.46.32-.77.32s-.57-.1-.77-.32c-.2-.21-.31-.47-.31-.78v-.88l.4.16c0,.16-.08.35-.25.57-.17.22-.4.44-.68.66s-.63.4-1.02.55c-.39.15-.81.22-1.27.22-.83,0-1.58-.21-2.25-.64s-1.2-1.01-1.59-1.76-.58-1.61-.58-2.58.2-1.85.58-2.6.92-1.34,1.58-1.76,1.39-.64,2.2-.64c.52,0,.99.08,1.42.23.43.16.81.35,1.12.59.32.24.56.48.74.73s.26.45.26.62l-.65.23v-1.31c0-.31.1-.57.31-.78s.46-.31.77-.31ZM317.73,220.82c.53,0,.99-.13,1.39-.4.4-.26.71-.62.93-1.08.22-.46.33-.97.33-1.53s-.11-1.09-.33-1.55c-.22-.46-.53-.82-.93-1.08-.4-.26-.86-.4-1.39-.4s-.97.13-1.37.4c-.4.26-.71.62-.93,1.08-.22.46-.33.97-.33,1.55s.11,1.07.33,1.53c.22.46.53.82.93,1.08.4.26.85.4,1.37.4Z"/>
    <path class="st0" d="M329.94,212.81c.89,0,1.56.19,2.03.56s.78.87.95,1.49.26,1.3.26,2.06v4.61c0,.31-.1.57-.31.78-.2.21-.46.32-.77.32s-.57-.1-.77-.32c-.2-.21-.31-.47-.31-.78v-4.61c0-.4-.05-.75-.15-1.07-.1-.32-.29-.57-.55-.76-.26-.19-.64-.29-1.13-.29s-.88.1-1.21.29c-.33.19-.58.45-.76.76-.17.32-.26.68-.26,1.07v4.61c0,.31-.1.57-.31.78-.2.21-.46.32-.77.32s-.57-.1-.77-.32c-.2-.21-.31-.47-.31-.78v-7.43c0-.31.1-.57.31-.78.2-.21.46-.31.77-.31s.57.11.77.31c.2.21.31.47.31.78v.77l-.27-.05c.11-.2.26-.42.47-.66.2-.23.44-.45.72-.66.28-.2.59-.37.94-.5s.73-.19,1.13-.19Z"/>
    <path class="st0" d="M343.4,209.3c.31,0,.57.1.77.31s.31.47.31.79v11.12c0,.31-.1.57-.31.78-.2.21-.46.32-.77.32s-.57-.1-.77-.32c-.2-.21-.31-.47-.31-.78v-.88l.4.16c0,.16-.08.35-.25.57s-.4.44-.68.66-.63.4-1.02.55c-.39.15-.81.22-1.27.22-.83,0-1.58-.21-2.25-.64-.67-.43-1.2-1.01-1.59-1.76-.39-.75-.58-1.61-.58-2.58s.19-1.85.58-2.6c.39-.75.91-1.34,1.57-1.76s1.39-.64,2.2-.64c.52,0,.99.08,1.42.23.43.16.81.35,1.12.59.32.24.56.48.74.73s.26.45.26.62l-.65.23v-4.82c0-.31.1-.57.31-.78s.46-.32.77-.32ZM339.77,220.82c.53,0,.99-.13,1.39-.4.4-.26.7-.62.93-1.08.22-.46.33-.97.33-1.53s-.11-1.09-.33-1.55c-.22-.46-.53-.82-.93-1.08-.4-.26-.86-.4-1.39-.4s-.97.13-1.37.4c-.4.26-.71.62-.93,1.08s-.33.97-.33,1.55.11,1.07.33,1.53c.22.46.53.82.93,1.08.4.26.85.4,1.37.4Z"/>
    <path class="st0" d="M352.94,222.62c-.31,0-.57-.1-.77-.32-.2-.21-.31-.47-.31-.78v-7.43c0-.31.1-.57.31-.78.2-.21.46-.31.77-.31s.57.11.77.31c.2.21.31.47.31.78v1.69l-.13-1.21c.13-.29.3-.54.51-.76.21-.22.45-.41.71-.56.26-.15.55-.26.85-.33s.6-.11.9-.11c.36,0,.66.1.91.31s.37.44.37.72c0,.4-.1.68-.31.86s-.43.26-.67.26-.44-.04-.62-.13c-.19-.08-.4-.13-.64-.13-.22,0-.44.05-.66.15-.22.1-.43.26-.61.48-.19.22-.34.48-.45.8-.11.32-.17.69-.17,1.12v4.27c0,.31-.1.57-.31.78-.2.21-.46.32-.77.32Z"/>
    <path class="st0" d="M363.81,222.8c-1.02,0-1.91-.21-2.66-.64s-1.33-1-1.73-1.74c-.4-.73-.6-1.56-.6-2.48,0-1.08.22-2,.66-2.76.44-.76,1.01-1.35,1.72-1.75.71-.41,1.46-.61,2.25-.61.61,0,1.19.13,1.74.38s1.03.6,1.45,1.03c.42.44.75.95,1,1.52s.37,1.19.37,1.84c-.01.29-.13.52-.34.7-.22.18-.47.27-.76.27h-6.88l-.54-1.8h6.61l-.4.36v-.49c-.02-.35-.15-.66-.37-.94-.22-.28-.5-.5-.83-.66s-.68-.24-1.05-.24-.7.05-1.01.14c-.31.1-.58.26-.81.49s-.41.53-.54.92c-.13.38-.2.87-.2,1.46,0,.65.13,1.2.41,1.65.27.45.62.79,1.04,1.03.43.23.88.35,1.36.35.44,0,.8-.04,1.06-.11s.48-.16.64-.26c.16-.1.31-.19.44-.26.22-.11.42-.16.61-.16.26,0,.48.09.66.27.17.18.26.39.26.63,0,.32-.17.62-.5.88-.31.26-.75.49-1.31.69s-1.15.3-1.75.3Z"/>
    <path class="st0" d="M377.85,212.81c.31,0,.57.1.77.31s.31.47.31.79v7.61c0,.31-.1.57-.31.78-.2.21-.46.32-.77.32s-.57-.1-.77-.32c-.2-.21-.31-.47-.31-.78v-.88l.4.16c0,.16-.08.35-.25.57s-.4.44-.68.66-.63.4-1.02.55c-.39.15-.81.22-1.27.22-.83,0-1.58-.21-2.25-.64-.67-.43-1.2-1.01-1.59-1.76-.39-.75-.58-1.61-.58-2.58s.19-1.85.58-2.6c.39-.75.91-1.34,1.57-1.76s1.39-.64,2.2-.64c.52,0,.99.08,1.42.23.43.16.81.35,1.12.59.32.24.56.48.74.73s.26.45.26.62l-.65.23v-1.31c0-.31.1-.57.31-.78s.46-.31.77-.31ZM374.22,220.82c.53,0,.99-.13,1.39-.4.4-.26.7-.62.93-1.08.22-.46.33-.97.33-1.53s-.11-1.09-.33-1.55c-.22-.46-.53-.82-.93-1.08-.4-.26-.86-.4-1.39-.4s-.97.13-1.37.4c-.4.26-.71.62-.93,1.08s-.33.97-.33,1.55.11,1.07.33,1.53c.22.46.53.82.93,1.08.4.26.85.4,1.37.4Z"/>
    <path class="st0" d="M389.16,209.3c.31,0,.57.1.77.31s.31.47.31.79v11.12c0,.31-.1.57-.31.78-.2.21-.46.32-.77.32s-.57-.1-.77-.32c-.2-.21-.31-.47-.31-.78v-.88l.4.16c0,.16-.08.35-.25.57s-.4.44-.68.66-.63.4-1.02.55c-.39.15-.81.22-1.27.22-.83,0-1.58-.21-2.25-.64-.67-.43-1.2-1.01-1.59-1.76-.39-.75-.58-1.61-.58-2.58s.19-1.85.58-2.6c.39-.75.91-1.34,1.57-1.76s1.39-.64,2.2-.64c.52,0,.99.08,1.42.23.43.16.81.35,1.12.59.32.24.56.48.74.73s.26.45.26.62l-.65.23v-4.82c0-.31.1-.57.31-.78s.46-.32.77-.32ZM385.52,220.82c.53,0,.99-.13,1.39-.4.4-.26.7-.62.93-1.08.22-.46.33-.97.33-1.53s-.11-1.09-.33-1.55c-.22-.46-.53-.82-.93-1.08-.4-.26-.86-.4-1.39-.4s-.97.13-1.37.4c-.4.26-.71.62-.93,1.08s-.33.97-.33,1.55.11,1.07.33,1.53c.22.46.53.82.93,1.08.4.26.85.4,1.37.4Z"/>
    <path class="st0" d="M399.72,212.99c.31,0,.57.11.77.31.2.21.31.47.31.78v7.65c0,1.1-.21,1.98-.62,2.64s-.97,1.12-1.67,1.41c-.7.29-1.48.43-2.34.43-.38,0-.79-.03-1.22-.09-.43-.06-.79-.15-1.06-.27-.36-.16-.61-.35-.75-.58-.14-.23-.17-.48-.08-.75.11-.35.28-.58.52-.71.24-.13.49-.14.76-.04.19.06.44.15.76.28.31.13.67.19,1.08.19.55,0,1.01-.08,1.38-.23.37-.15.64-.4.83-.76.19-.35.28-.84.28-1.45v-1.21l.38.43c-.2.4-.46.72-.76.98-.31.26-.67.45-1.09.58-.42.13-.9.2-1.44.2-.64,0-1.19-.15-1.67-.44-.47-.29-.84-.7-1.11-1.22-.26-.52-.4-1.12-.4-1.79v-5.26c0-.31.1-.57.31-.78.2-.21.46-.31.77-.31s.57.11.77.31c.2.21.31.47.31.78v4.61c0,.78.17,1.33.51,1.65.34.32.82.48,1.43.48.42,0,.77-.08,1.06-.24s.51-.4.67-.72c.16-.32.23-.71.23-1.16v-4.61c0-.31.1-.57.31-.78.2-.21.46-.31.77-.31Z"/>
    <path class="st0" d="M233.98,243.17c.29,0,.53.09.72.28.19.19.29.42.29.71s-.1.53-.29.71c-.19.19-.43.28-.72.28h-4.77c-.29,0-.53-.09-.72-.28-.19-.19-.29-.42-.29-.71s.1-.52.29-.71c.19-.19.43-.28.72-.28h4.77ZM233.78,239.3c.26,0,.52.04.77.11s.46.19.63.35.25.38.25.64c0,.3-.09.54-.26.71-.17.17-.38.26-.6.26-.11,0-.27-.03-.49-.08-.22-.05-.43-.08-.63-.08-.3,0-.53.07-.69.2s-.27.29-.33.46c-.06.17-.09.33-.09.46v9.2c0,.31-.1.57-.31.78-.2.21-.46.32-.77.32s-.57-.1-.77-.32c-.2-.21-.31-.47-.31-.78v-9.18c0-.85.3-1.57.9-2.16.6-.59,1.5-.88,2.7-.88Z"/>
    <path class="st0" d="M245.5,247.81c0,.98-.22,1.85-.66,2.6-.44.75-1.03,1.33-1.76,1.75s-1.56.63-2.47.63-1.74-.21-2.48-.63-1.33-1-1.76-1.75c-.44-.75-.66-1.62-.66-2.6s.22-1.85.66-2.6c.44-.75,1.03-1.34,1.76-1.76s1.56-.64,2.48-.64,1.74.21,2.47.64,1.33,1.01,1.76,1.76c.44.75.66,1.62.66,2.6ZM243.34,247.81c0-.61-.12-1.14-.37-1.59-.25-.45-.58-.8-.99-1.05s-.87-.38-1.38-.38-.96.13-1.38.38c-.41.25-.74.6-.99,1.05-.25.45-.37.98-.37,1.59s.12,1.12.37,1.57c.25.45.58.8.99,1.05.41.25.87.38,1.38.38s.96-.13,1.38-.38.74-.6.99-1.05c.25-.45.37-.97.37-1.57Z"/>
    <path class="st0" d="M248.47,252.62c-.31,0-.57-.1-.77-.32-.2-.21-.31-.47-.31-.78v-7.43c0-.31.1-.57.31-.78.2-.21.46-.31.77-.31s.57.11.77.31c.2.21.31.47.31.78v1.69l-.13-1.21c.13-.29.3-.54.51-.76.21-.22.45-.41.71-.56.26-.15.55-.26.85-.33s.6-.11.9-.11c.36,0,.66.1.91.31s.37.44.37.72c0,.4-.1.68-.31.86s-.43.26-.67.26-.44-.04-.62-.13c-.19-.08-.4-.13-.64-.13-.22,0-.44.05-.66.15-.22.1-.43.26-.61.48-.19.22-.34.48-.45.8-.11.32-.17.69-.17,1.12v4.27c0,.31-.1.57-.31.78-.2.21-.46.32-.77.32Z"/>
    <path class="st0" d="M265.3,242.81c.96,0,1.67.23,2.12.69s.76,1.06.9,1.79l-.31-.16.14-.29c.14-.28.37-.57.67-.89.3-.32.66-.59,1.09-.81.43-.22.9-.33,1.43-.33.86,0,1.52.19,1.97.56.45.37.76.87.93,1.49s.25,1.3.25,2.06v4.61c0,.31-.1.57-.31.78-.2.21-.46.32-.77.32s-.57-.1-.77-.32c-.2-.21-.31-.47-.31-.78v-4.61c0-.4-.05-.75-.14-1.07-.1-.32-.27-.57-.52-.76-.25-.19-.61-.29-1.08-.29s-.85.1-1.17.29c-.32.19-.57.45-.73.76-.16.32-.24.68-.24,1.07v4.61c0,.31-.1.57-.31.78-.2.21-.46.32-.77.32s-.57-.1-.77-.32c-.2-.21-.31-.47-.31-.78v-4.61c0-.4-.05-.75-.14-1.07-.1-.32-.27-.57-.52-.76-.25-.19-.61-.29-1.08-.29s-.85.1-1.17.29c-.32.19-.57.45-.73.76-.16.32-.24.68-.24,1.07v4.61c0,.31-.1.57-.31.78-.2.21-.46.32-.77.32s-.57-.1-.77-.32c-.2-.21-.31-.47-.31-.78v-7.43c0-.31.1-.57.31-.78.2-.21.46-.31.77-.31s.57.11.77.31c.2.21.31.47.31.78v.77l-.27-.05c.11-.2.26-.42.45-.66.19-.23.43-.45.7-.66.28-.2.58-.37.92-.5s.7-.19,1.1-.19Z"/>
    <path class="st0" d="M286.18,247.81c0,.98-.22,1.85-.66,2.6-.44.75-1.03,1.33-1.76,1.75s-1.56.63-2.47.63-1.74-.21-2.48-.63-1.33-1-1.76-1.75c-.44-.75-.66-1.62-.66-2.6s.22-1.85.66-2.6c.44-.75,1.03-1.34,1.76-1.76s1.56-.64,2.48-.64,1.74.21,2.47.64,1.33,1.01,1.76,1.76c.44.75.66,1.62.66,2.6ZM284.02,247.81c0-.61-.12-1.14-.37-1.59-.25-.45-.58-.8-.99-1.05s-.87-.38-1.38-.38-.96.13-1.38.38c-.41.25-.74.6-.99,1.05-.25.45-.37.98-.37,1.59s.12,1.12.37,1.57c.25.45.58.8.99,1.05.41.25.87.38,1.38.38s.96-.13,1.38-.38.74-.6.99-1.05c.25-.45.37-.97.37-1.57Z"/>
    <path class="st0" d="M289.15,252.62c-.31,0-.57-.1-.77-.32-.2-.21-.31-.47-.31-.78v-7.43c0-.31.1-.57.31-.78.2-.21.46-.31.77-.31s.57.11.77.31c.2.21.31.47.31.78v1.69l-.13-1.21c.13-.29.3-.54.51-.76.21-.22.45-.41.71-.56.26-.15.55-.26.85-.33s.6-.11.9-.11c.36,0,.66.1.91.31s.37.44.37.72c0,.4-.1.68-.31.86s-.43.26-.67.26-.44-.04-.62-.13c-.19-.08-.4-.13-.64-.13-.22,0-.44.05-.66.15-.22.1-.43.26-.61.48-.19.22-.34.48-.45.8-.11.32-.17.69-.17,1.12v4.27c0,.31-.1.57-.31.78-.2.21-.46.32-.77.32Z"/>
    <path class="st0" d="M300.02,252.8c-1.02,0-1.91-.21-2.66-.64s-1.33-1-1.73-1.74c-.4-.73-.6-1.56-.6-2.48,0-1.08.22-2,.66-2.76.44-.76,1.01-1.35,1.72-1.75.71-.41,1.46-.61,2.25-.61.61,0,1.19.13,1.74.38.55.25,1.03.6,1.45,1.03.42.44.75.95,1,1.52s.37,1.19.37,1.84c-.01.29-.13.52-.34.7s-.47.27-.76.27h-6.88l-.54-1.8h6.61l-.4.36v-.49c-.02-.35-.15-.66-.37-.94-.22-.28-.5-.5-.83-.66s-.68-.24-1.05-.24-.7.05-1.01.14c-.31.1-.58.26-.81.49-.23.23-.41.53-.54.92-.13.38-.2.87-.2,1.46,0,.65.13,1.2.4,1.65.27.45.62.79,1.04,1.03.43.23.88.35,1.36.35.44,0,.8-.04,1.06-.11.26-.07.48-.16.64-.26s.31-.19.44-.26c.22-.11.42-.16.61-.16.26,0,.48.09.66.27.17.18.26.39.26.63,0,.32-.17.62-.5.88-.31.26-.75.49-1.31.69-.56.2-1.15.3-1.75.3Z"/>
    <path class="st0" d="M311.26,243.17h4.27c.29,0,.53.1.72.29.19.19.29.43.29.72s-.1.51-.29.69c-.19.19-.43.28-.72.28h-4.27c-.29,0-.53-.1-.72-.29s-.29-.43-.29-.72.1-.51.29-.69c.19-.19.43-.28.72-.28ZM313.18,240.92c.31,0,.57.11.76.32s.3.47.3.78v8.01c0,.17.03.31.1.41.07.11.16.19.27.23.11.05.24.07.37.07.14,0,.28-.03.4-.08s.26-.08.41-.08c.17,0,.32.08.46.23s.21.37.21.65c0,.34-.18.61-.55.83s-.76.32-1.18.32c-.25,0-.53-.02-.84-.06-.31-.04-.59-.14-.86-.31-.27-.16-.5-.41-.67-.75-.18-.34-.27-.8-.27-1.39v-8.1c0-.31.11-.57.32-.78s.47-.32.78-.32Z"/>
    <path class="st0" d="M323.57,242.81c.86,0,1.52.19,1.97.56s.76.87.93,1.49.25,1.3.25,2.06v4.61c0,.31-.1.57-.31.78-.2.21-.46.32-.77.32s-.57-.1-.77-.32c-.2-.21-.31-.47-.31-.78v-4.61c0-.4-.05-.75-.14-1.07-.1-.32-.27-.57-.52-.76-.25-.19-.61-.29-1.08-.29s-.85.1-1.17.29c-.32.19-.57.45-.73.76-.16.32-.24.68-.24,1.07v4.61c0,.31-.1.57-.31.78-.2.21-.46.32-.77.32s-.57-.1-.77-.32c-.2-.21-.31-.47-.31-.78v-11.12c0-.31.1-.57.31-.78.2-.21.46-.32.77-.32s.57.11.77.32.31.47.31.78v4.46l-.27-.05c.11-.2.26-.42.45-.66.19-.23.43-.45.7-.66.28-.2.58-.37.92-.5s.7-.19,1.1-.19Z"/>
    <path class="st0" d="M336.94,242.81c.31,0,.57.1.77.31s.31.47.31.79v7.61c0,.31-.1.57-.31.78-.2.21-.46.32-.77.32s-.57-.1-.77-.32c-.2-.21-.31-.47-.31-.78v-.88l.4.16c0,.16-.08.35-.25.57s-.4.44-.68.66-.63.4-1.02.55c-.39.15-.81.22-1.27.22-.83,0-1.58-.21-2.25-.64-.67-.43-1.2-1.01-1.59-1.76-.39-.75-.58-1.61-.58-2.58s.19-1.85.58-2.6c.39-.75.91-1.34,1.57-1.76s1.39-.64,2.2-.64c.52,0,.99.08,1.42.23.43.16.81.35,1.12.59.32.24.56.48.74.73s.26.45.26.62l-.65.23v-1.31c0-.31.1-.57.31-.78s.46-.31.77-.31ZM333.3,250.82c.53,0,.99-.13,1.39-.4.4-.26.7-.62.93-1.08.22-.46.33-.97.33-1.53s-.11-1.09-.33-1.55c-.22-.46-.53-.82-.93-1.08-.4-.26-.86-.4-1.39-.4s-.97.13-1.37.4c-.4.26-.71.62-.93,1.08s-.33.97-.33,1.55.11,1.07.33,1.53c.22.46.53.82.93,1.08.4.26.85.4,1.37.4Z"/>
    <path class="st0" d="M345.51,242.81c.89,0,1.56.19,2.02.56s.78.87.95,1.49.26,1.3.26,2.06v4.61c0,.31-.1.57-.31.78-.2.21-.46.32-.77.32s-.57-.1-.77-.32c-.2-.21-.31-.47-.31-.78v-4.61c0-.4-.05-.75-.15-1.07-.1-.32-.29-.57-.55-.76-.26-.19-.64-.29-1.13-.29s-.89.1-1.21.29c-.33.19-.58.45-.76.76-.17.32-.26.68-.26,1.07v4.61c0,.31-.1.57-.31.78-.2.21-.46.32-.77.32s-.57-.1-.77-.32c-.2-.21-.31-.47-.31-.78v-7.43c0-.31.1-.57.31-.78.2-.21.46-.31.77-.31s.57.11.77.31c.2.21.31.47.31.78v.77l-.27-.05c.11-.2.26-.42.47-.66.2-.23.44-.45.72-.66s.59-.37.94-.5c.35-.13.73-.19,1.13-.19Z"/>
    <path class="st0" d="M364.01,242.81c.31,0,.57.1.77.31.2.2.31.47.31.79v7.61c0,.31-.1.57-.31.78-.2.21-.46.32-.77.32s-.57-.1-.77-.32c-.2-.21-.31-.47-.31-.78v-.88l.4.16c0,.16-.08.35-.25.57-.17.22-.4.44-.68.66s-.63.4-1.02.55c-.39.15-.81.22-1.27.22-.83,0-1.58-.21-2.25-.64s-1.2-1.01-1.59-1.76-.58-1.61-.58-2.58.2-1.85.58-2.6.92-1.34,1.58-1.76,1.39-.64,2.2-.64c.52,0,.99.08,1.42.23.43.16.81.35,1.12.59.32.24.56.48.74.73s.26.45.26.62l-.65.23v-1.31c0-.31.1-.57.31-.78s.46-.31.77-.31ZM360.38,250.82c.53,0,.99-.13,1.39-.4.4-.26.71-.62.93-1.08.22-.46.33-.97.33-1.53s-.11-1.09-.33-1.55c-.22-.46-.53-.82-.93-1.08-.4-.26-.86-.4-1.39-.4s-.97.13-1.37.4c-.4.26-.71.62-.93,1.08-.22.46-.33.97-.33,1.55s.11,1.07.33,1.53c.22.46.53.82.93,1.08.4.26.85.4,1.37.4Z"/>
    <path class="st0" d="M371.72,242.81c.68,0,1.28.07,1.79.22.51.14.91.34,1.19.6.28.26.42.57.42.93,0,.24-.07.47-.22.68-.14.21-.35.31-.63.31-.19,0-.35-.03-.48-.08-.13-.05-.24-.12-.33-.21-.1-.08-.21-.16-.34-.23-.12-.07-.3-.13-.55-.17s-.43-.06-.55-.06c-.61,0-1.13.13-1.56.4-.43.26-.75.62-.98,1.07s-.34.97-.34,1.56.12,1.09.35,1.54c.23.45.56.81.97,1.07.41.26.89.4,1.43.4.3,0,.56-.02.77-.05.22-.04.4-.09.54-.16.17-.1.32-.2.45-.31.13-.11.33-.16.59-.16.31,0,.55.1.72.3.17.2.25.44.25.73s-.17.57-.5.82-.78.44-1.32.59c-.55.15-1.14.22-1.77.22-.95,0-1.77-.22-2.47-.66-.7-.44-1.23-1.04-1.61-1.79-.38-.76-.57-1.6-.57-2.54,0-.98.2-1.85.6-2.6.4-.75.96-1.34,1.67-1.76.71-.43,1.53-.64,2.46-.64Z"/>
    <path class="st0" d="M384.68,242.81c.31,0,.57.1.77.31s.31.47.31.79v7.61c0,.31-.1.57-.31.78-.2.21-.46.32-.77.32s-.57-.1-.77-.32c-.2-.21-.31-.47-.31-.78v-.88l.4.16c0,.16-.08.35-.25.57s-.4.44-.68.66-.63.4-1.02.55c-.39.15-.81.22-1.27.22-.83,0-1.58-.21-2.25-.64-.67-.43-1.2-1.01-1.59-1.76-.39-.75-.58-1.61-.58-2.58s.19-1.85.58-2.6c.39-.75.91-1.34,1.57-1.76s1.39-.64,2.2-.64c.52,0,.99.08,1.42.23.43.16.81.35,1.12.59.32.24.56.48.74.73s.26.45.26.62l-.65.23v-1.31c0-.31.1-.57.31-.78s.46-.31.77-.31ZM381.04,250.82c.53,0,.99-.13,1.39-.4.4-.26.7-.62.93-1.08.22-.46.33-.97.33-1.53s-.11-1.09-.33-1.55c-.22-.46-.53-.82-.93-1.08-.4-.26-.86-.4-1.39-.4s-.97.13-1.37.4c-.4.26-.71.62-.93,1.08s-.33.97-.33,1.55.11,1.07.33,1.53c.22.46.53.82.93,1.08.4.26.85.4,1.37.4Z"/>
    <path class="st0" d="M395.98,239.3c.31,0,.57.1.77.31s.31.47.31.79v11.12c0,.31-.1.57-.31.78-.2.21-.46.32-.77.32s-.57-.1-.77-.32c-.2-.21-.31-.47-.31-.78v-.88l.4.16c0,.16-.08.35-.25.57s-.4.44-.68.66-.63.4-1.02.55c-.39.15-.81.22-1.27.22-.83,0-1.58-.21-2.25-.64-.67-.43-1.2-1.01-1.59-1.76-.39-.75-.58-1.61-.58-2.58s.19-1.85.58-2.6c.39-.75.91-1.34,1.57-1.76s1.39-.64,2.2-.64c.52,0,.99.08,1.42.23.43.16.81.35,1.12.59.32.24.56.48.74.73s.26.45.26.62l-.65.23v-4.82c0-.31.1-.57.31-.78s.46-.32.77-.32ZM392.34,250.82c.53,0,.99-.13,1.39-.4.4-.26.7-.62.93-1.08.22-.46.33-.97.33-1.53s-.11-1.09-.33-1.55c-.22-.46-.53-.82-.93-1.08-.4-.26-.86-.4-1.39-.4s-.97.13-1.37.4c-.4.26-.71.62-.93,1.08s-.33.97-.33,1.55.11,1.07.33,1.53c.22.46.53.82.93,1.08.4.26.85.4,1.37.4Z"/>
    <path class="st0" d="M403.94,252.8c-1.02,0-1.91-.21-2.66-.64s-1.33-1-1.73-1.74c-.4-.73-.6-1.56-.6-2.48,0-1.08.22-2,.66-2.76.44-.76,1.01-1.35,1.72-1.75.71-.41,1.46-.61,2.25-.61.61,0,1.19.13,1.74.38s1.03.6,1.45,1.03c.42.44.75.95,1,1.52s.37,1.19.37,1.84c-.01.29-.13.52-.34.7-.22.18-.47.27-.76.27h-6.88l-.54-1.8h6.61l-.4.36v-.49c-.02-.35-.15-.66-.37-.94-.22-.28-.5-.5-.83-.66s-.68-.24-1.05-.24-.7.05-1.01.14c-.31.1-.58.26-.81.49s-.41.53-.54.92c-.13.38-.2.87-.2,1.46,0,.65.13,1.2.41,1.65.27.45.62.79,1.04,1.03.43.23.88.35,1.36.35.44,0,.8-.04,1.06-.11s.48-.16.64-.26c.16-.1.31-.19.44-.26.22-.11.42-.16.61-.16.26,0,.48.09.66.27.17.18.26.39.26.63,0,.32-.17.62-.5.88-.31.26-.75.49-1.31.69s-1.15.3-1.75.3Z"/>
    <path class="st0" d="M415.08,242.81c.96,0,1.67.23,2.12.69s.76,1.06.9,1.79l-.31-.16.14-.29c.14-.28.37-.57.67-.89.3-.32.66-.59,1.09-.81.43-.22.9-.33,1.43-.33.86,0,1.52.19,1.97.56s.76.87.93,1.49.25,1.3.25,2.06v4.61c0,.31-.1.57-.31.78-.2.21-.46.32-.77.32s-.57-.1-.77-.32c-.2-.21-.31-.47-.31-.78v-4.61c0-.4-.05-.75-.14-1.07-.1-.32-.27-.57-.52-.76-.25-.19-.61-.29-1.08-.29s-.85.1-1.17.29c-.32.19-.57.45-.73.76-.16.32-.24.68-.24,1.07v4.61c0,.31-.1.57-.31.78-.2.21-.46.32-.77.32s-.57-.1-.77-.32c-.2-.21-.31-.47-.31-.78v-4.61c0-.4-.05-.75-.14-1.07-.1-.32-.27-.57-.52-.76-.25-.19-.61-.29-1.08-.29s-.85.1-1.17.29c-.32.19-.57.45-.73.76-.16.32-.24.68-.24,1.07v4.61c0,.31-.1.57-.31.78-.2.21-.46.32-.77.32s-.57-.1-.77-.32c-.2-.21-.31-.47-.31-.78v-7.43c0-.31.1-.57.31-.78.2-.21.46-.31.77-.31s.57.11.77.31c.2.21.31.47.31.78v.77l-.27-.05c.11-.2.26-.42.45-.66.19-.23.43-.45.7-.66.28-.2.58-.37.92-.5s.7-.19,1.1-.19Z"/>
    <path class="st0" d="M427.55,241.82c-.41,0-.7-.07-.86-.2-.17-.13-.25-.37-.25-.7v-.34c0-.35.09-.58.28-.71.19-.13.47-.19.86-.19.42,0,.71.07.88.2.17.13.25.37.25.7v.34c0,.35-.09.58-.27.71-.18.13-.47.19-.88.19ZM428.65,251.52c0,.31-.1.57-.31.78-.2.21-.46.32-.77.32s-.57-.1-.77-.32c-.2-.21-.31-.47-.31-.78v-7.43c0-.31.1-.57.31-.78.2-.21.46-.31.77-.31s.57.11.77.31c.2.21.31.47.31.78v7.43Z"/>
    <path class="st0" d="M435.15,242.81c.68,0,1.28.07,1.79.22.51.14.91.34,1.19.6.28.26.42.57.42.93,0,.24-.07.47-.22.68-.14.21-.35.31-.63.31-.19,0-.35-.03-.48-.08-.13-.05-.24-.12-.33-.21-.1-.08-.21-.16-.34-.23-.12-.07-.3-.13-.55-.17s-.43-.06-.55-.06c-.61,0-1.13.13-1.56.4-.43.26-.75.62-.98,1.07s-.34.97-.34,1.56.12,1.09.35,1.54c.23.45.56.81.97,1.07.41.26.89.4,1.43.4.3,0,.56-.02.77-.05.22-.04.4-.09.54-.16.17-.1.32-.2.45-.31.13-.11.33-.16.59-.16.31,0,.55.1.72.3.17.2.25.44.25.73s-.17.57-.5.82-.78.44-1.32.59c-.55.15-1.14.22-1.77.22-.95,0-1.77-.22-2.47-.66-.7-.44-1.23-1.04-1.61-1.79-.38-.76-.57-1.6-.57-2.54,0-.98.2-1.85.6-2.6.4-.75.96-1.34,1.67-1.76.71-.43,1.53-.64,2.46-.64Z"/>
    <path class="st0" d="M439.67,251.13c-.12-.17-.17-.38-.16-.65.01-.26.17-.49.47-.68.19-.12.4-.17.61-.15.22.02.43.13.63.33.35.35.71.62,1.1.81.38.19.86.29,1.44.29.18-.01.38-.04.59-.08s.41-.14.57-.29.24-.38.24-.69c0-.26-.09-.47-.27-.63-.18-.16-.42-.29-.71-.4-.29-.11-.62-.21-.98-.31-.37-.11-.75-.23-1.14-.36s-.75-.3-1.07-.51c-.32-.21-.59-.49-.79-.84-.2-.35-.31-.79-.31-1.31,0-.6.17-1.11.5-1.53s.77-.74,1.31-.97c.53-.23,1.09-.34,1.68-.34.37,0,.76.04,1.17.13s.8.23,1.17.43.68.46.94.78c.13.18.21.4.23.65.02.25-.09.48-.34.68-.18.14-.39.21-.63.19-.24-.02-.44-.1-.59-.24-.21-.26-.48-.47-.82-.63-.34-.16-.74-.23-1.18-.23-.18,0-.38.02-.58.06-.21.04-.39.13-.55.27-.16.14-.23.36-.23.66,0,.28.09.5.27.66.18.16.42.29.73.4.31.1.63.2.98.3.36.1.73.21,1.1.34.37.13.71.31,1.03.52.31.22.56.5.76.84.19.34.29.78.29,1.3,0,.61-.18,1.13-.54,1.57-.36.43-.81.76-1.35.98-.54.22-1.09.33-1.66.33-.71,0-1.42-.12-2.12-.37-.71-.25-1.3-.68-1.76-1.3Z"/>
    <path class="st0" d="M449.85,252.6c-.35,0-.62-.09-.8-.28-.19-.19-.28-.45-.28-.8v-.31c0-.35.09-.61.28-.8s.45-.28.8-.28h.23c.35,0,.61.09.8.28.19.19.28.45.28.8v.31c0,.35-.09.62-.28.8s-.45.28-.8.28h-.23Z"/>
    <path class="st0" d="M232.46,294c0,.42-.15.76-.46,1.04-.3.28-.66.42-1.06.42-.45,0-.81-.14-1.08-.42s-.41-.63-.41-1.04v-13.87c0-.42.14-.76.43-1.04s.66-.42,1.1-.42c.38,0,.72.14,1.02.42.3.28.44.63.44,1.04v13.87Z"/>
    <path class="st0" d="M248.81,278.66c.38,0,.7.13.94.38.24.26.36.58.36.96v13.99c0,.42-.14.76-.42,1.04-.28.28-.63.42-1.04.42-.21,0-.42-.04-.64-.11-.22-.07-.38-.17-.49-.3l-9.43-11.98.62-.38v11.42c0,.38-.12.7-.37.96s-.57.38-.97.38-.7-.13-.94-.38c-.24-.26-.36-.58-.36-.96v-13.99c0-.42.14-.76.42-1.04.28-.28.63-.42,1.04-.42.22,0,.46.04.7.13s.42.22.53.4l9.14,11.66-.41.29v-11.14c0-.38.12-.7.36-.96s.56-.38.96-.38Z"/>
    <path class="st0" d="M266.45,278.66c.38,0,.7.13.94.38.24.26.36.58.36.96v13.99c0,.42-.14.76-.42,1.04-.28.28-.63.42-1.04.42-.21,0-.42-.04-.64-.11-.22-.07-.38-.17-.49-.3l-9.43-11.98.62-.38v11.42c0,.38-.12.7-.37.96s-.57.38-.97.38-.7-.13-.94-.38c-.24-.26-.36-.58-.36-.96v-13.99c0-.42.14-.76.42-1.04.28-.28.63-.42,1.04-.42.22,0,.46.04.7.13s.42.22.53.4l9.14,11.66-.41.29v-11.14c0-.38.12-.7.36-.96s.56-.38.96-.38Z"/>
    <path class="st0" d="M272.81,278.66h8.04c.42,0,.76.13,1.04.4.28.26.42.6.42,1.02s-.14.72-.42.97-.63.37-1.04.37h-6.72l.22-.41v4.68l-.19-.19h5.62c.42,0,.76.13,1.04.4.28.26.42.6.42,1.02s-.14.72-.42.97-.63.37-1.04.37h-5.54l.12-.19v4.85l-.19-.22h6.7c.42,0,.76.14,1.04.42s.42.6.42.97c0,.4-.14.73-.42.98s-.63.38-1.04.38h-8.04c-.42,0-.76-.14-1.04-.42-.28-.28-.42-.63-.42-1.04v-13.87c0-.42.14-.76.42-1.04.28-.28.63-.42,1.04-.42Z"/>
    <path class="st0" d="M286.8,295.46c-.45,0-.85-.14-1.2-.42-.35-.28-.53-.63-.53-1.04v-13.87c0-.42.14-.76.42-1.04.28-.28.63-.42,1.04-.42h6.91c.83,0,1.61.22,2.34.66.73.44,1.32,1.05,1.76,1.82.45.78.67,1.67.67,2.68,0,.61-.12,1.2-.37,1.78-.25.58-.58,1.1-1.01,1.56s-.9.82-1.43,1.08l.02-.55c.45.24.82.52,1.12.85.3.33.53.68.7,1.06s.27.78.3,1.21c.06.4.11.75.13,1.06.02.3.07.56.14.77s.21.37.42.48c.35.21.57.51.66.9.09.39,0,.74-.28,1.04-.18.21-.4.34-.67.4-.27.06-.54.06-.82,0-.27-.06-.5-.13-.67-.23-.27-.16-.54-.4-.82-.71-.27-.31-.49-.73-.66-1.26s-.25-1.21-.25-2.04c0-.27-.05-.52-.14-.76-.1-.23-.23-.43-.41-.6-.18-.17-.4-.3-.67-.38-.27-.09-.59-.13-.96-.13h-4.85l.36-.55v5.21c0,.42-.11.76-.34,1.04-.22.28-.54.42-.94.42ZM287.73,286.87h5.59c.29,0,.57-.13.84-.4.27-.26.5-.62.67-1.08s.26-.96.26-1.5c0-.7-.19-1.29-.56-1.76s-.78-.71-1.21-.71h-5.54l.29-.77v6.79l-.34-.58Z"/>
    <path class="st0" d="M313.68,295.7c-1.12,0-2.13-.14-3.02-.42-.9-.28-1.75-.77-2.57-1.48-.21-.18-.37-.38-.48-.6-.11-.22-.17-.45-.17-.67,0-.37.13-.69.4-.97.26-.28.6-.42,1-.42.3,0,.58.1.82.29.61.5,1.21.87,1.81,1.13.6.26,1.34.38,2.22.38.59,0,1.14-.09,1.63-.28.5-.18.9-.43,1.2-.74.3-.31.46-.67.46-1.07,0-.48-.14-.89-.43-1.22s-.73-.62-1.32-.85c-.59-.23-1.34-.41-2.26-.54-.86-.13-1.62-.32-2.28-.59-.66-.26-1.2-.6-1.64-1.01-.44-.41-.77-.89-1-1.44s-.34-1.17-.34-1.86c0-1.04.27-1.93.8-2.66.54-.74,1.26-1.3,2.17-1.68.91-.38,1.92-.58,3.02-.58,1.04,0,2,.16,2.89.47.89.31,1.61.71,2.17,1.19.46.37.7.79.7,1.27,0,.35-.14.67-.41.96-.27.29-.59.43-.96.43-.24,0-.46-.07-.65-.22-.26-.22-.6-.44-1.03-.64-.43-.2-.89-.37-1.37-.5-.48-.14-.93-.2-1.34-.2-.69,0-1.27.09-1.74.26s-.83.42-1.07.72c-.24.3-.36.66-.36,1.06,0,.48.14.88.42,1.19.28.31.68.56,1.21.74.53.18,1.16.35,1.9.49.96.18,1.8.38,2.53.62.73.24,1.33.55,1.81.92.48.38.84.85,1.08,1.42.24.57.36,1.26.36,2.08,0,1.04-.29,1.94-.86,2.69s-1.33,1.33-2.27,1.73c-.94.4-1.95.6-3.04.6Z"/>
    <path class="st0" d="M322.99,281.42c-.42,0-.76-.13-1.04-.38-.28-.26-.42-.59-.42-1.01s.14-.75.42-1c.28-.25.63-.37,1.04-.37h10.66c.42,0,.76.13,1.04.38.28.26.42.59.42,1.01s-.14.75-.42,1c-.28.25-.63.37-1.04.37h-10.66ZM328.29,295.46c-.45,0-.82-.14-1.1-.42-.29-.28-.43-.63-.43-1.04v-13.92h3.12v13.92c0,.42-.15.76-.44,1.04s-.68.42-1.14.42Z"/>
    <path class="st0" d="M342.6,282.43l-5.18,12.19c-.11.3-.28.54-.52.71-.23.17-.48.25-.76.25-.43,0-.75-.12-.96-.36s-.31-.54-.31-.89c0-.14.02-.3.07-.46l5.98-14.35c.13-.32.32-.57.59-.74.26-.18.55-.25.85-.22.29,0,.56.08.8.25s.43.4.54.71l5.9,14.06c.08.21.12.4.12.58,0,.43-.14.78-.42,1.03-.28.26-.59.38-.92.38-.29,0-.55-.09-.78-.26-.23-.18-.41-.42-.54-.72l-5.16-12.02.7-.14ZM338.16,291.69l1.32-2.76h6.48l.46,2.76h-8.26Z"/>
    <path class="st0" d="M353.49,295.46c-.45,0-.85-.14-1.2-.42s-.53-.63-.53-1.04v-13.87c0-.42.14-.76.42-1.04.28-.28.63-.42,1.04-.42h6.91c.83,0,1.61.22,2.34.66.73.44,1.32,1.05,1.76,1.82.45.78.67,1.67.67,2.68,0,.61-.12,1.2-.37,1.78s-.58,1.1-1.01,1.56-.9.82-1.43,1.08l.02-.55c.45.24.82.52,1.12.85s.53.68.7,1.06.27.78.3,1.21c.06.4.11.75.13,1.06.02.3.07.56.14.77.07.21.21.37.42.48.35.21.57.51.66.9.09.39,0,.74-.28,1.04-.18.21-.4.34-.67.4-.27.06-.54.06-.82,0-.27-.06-.5-.13-.67-.23-.27-.16-.54-.4-.82-.71-.27-.31-.49-.73-.66-1.26s-.25-1.21-.25-2.04c0-.27-.05-.52-.14-.76-.1-.23-.23-.43-.41-.6-.18-.17-.4-.3-.67-.38-.27-.09-.59-.13-.96-.13h-4.85l.36-.55v5.21c0,.42-.11.76-.34,1.04-.22.28-.54.42-.94.42ZM354.43,286.87h5.59c.29,0,.57-.13.84-.4.27-.26.5-.62.67-1.08.18-.46.26-.96.26-1.5,0-.7-.19-1.29-.56-1.76-.38-.47-.78-.71-1.21-.71h-5.54l.29-.77v6.79l-.34-.58Z"/>
    <path class="st0" d="M373.65,295.7c-1.12,0-2.13-.14-3.02-.42-.9-.28-1.75-.77-2.57-1.48-.21-.18-.37-.38-.48-.6-.11-.22-.17-.45-.17-.67,0-.37.13-.69.4-.97.26-.28.6-.42,1-.42.3,0,.58.1.82.29.61.5,1.21.87,1.81,1.13.6.26,1.34.38,2.22.38.59,0,1.14-.09,1.63-.28.5-.18.9-.43,1.2-.74.3-.31.46-.67.46-1.07,0-.48-.14-.89-.43-1.22s-.73-.62-1.32-.85c-.59-.23-1.34-.41-2.26-.54-.86-.13-1.62-.32-2.28-.59-.66-.26-1.2-.6-1.64-1.01-.44-.41-.77-.89-1-1.44s-.34-1.17-.34-1.86c0-1.04.27-1.93.8-2.66.54-.74,1.26-1.3,2.17-1.68.91-.38,1.92-.58,3.02-.58,1.04,0,2,.16,2.89.47.89.31,1.61.71,2.17,1.19.46.37.7.79.7,1.27,0,.35-.14.67-.41.96-.27.29-.59.43-.96.43-.24,0-.46-.07-.65-.22-.26-.22-.6-.44-1.03-.64-.43-.2-.89-.37-1.37-.5-.48-.14-.93-.2-1.34-.2-.69,0-1.27.09-1.74.26s-.83.42-1.07.72c-.24.3-.36.66-.36,1.06,0,.48.14.88.42,1.19.28.31.68.56,1.21.74.53.18,1.16.35,1.9.49.96.18,1.8.38,2.53.62.73.24,1.33.55,1.81.92.48.38.84.85,1.08,1.42.24.57.36,1.26.36,2.08,0,1.04-.29,1.94-.86,2.69s-1.33,1.33-2.27,1.73c-.94.4-1.95.6-3.04.6Z"/>
  </g>
</svg>