<?xml version="1.0" encoding="UTF-8"?>
<svg id="Layer_1" xmlns="http://www.w3.org/2000/svg" xmlns:xlink="http://www.w3.org/1999/xlink" version="1.1" viewBox="62.55 -0.78 1441.18 456.18">
  <!-- Generator: Adobe Illustrator 29.7.1, SVG Export Plug-In . SVG Version: 2.1.1 Build 8)  -->
  <defs>
    <style>
      .st0 {
        fill: none;
      }

      .st1 {
        fill: #523cac;
      }

      .st2 {
        fill: #adc716;
      }

      .st3 {
        fill: #33c5b5;
      }

      .st4 {
        fill: #fff;
      }

      .st5 {
        fill: #e44c17;
      }

      .st6 {
        fill: #002f55;
      }

      .st7 {
        fill: #dd2080;
      }

      .st8 {
        clip-path: url(#clippath);
      }
    </style>
    <clipPath id="clippath">
      <rect class="st0" x="62.55" y="-.78" width="1441.18" height="456.18"/>
    </clipPath>
  </defs>
  <g class="st8">
    <path class="st7" d="M34.92,312.57c29.54,14.35,59.5,29.84,91.9,36.58,33.3,6.93,66.53,2.68,97.22-11.95,56.23-26.81,93.28-80.69,147.29-111.05s115.4-40.74,174.82-31.41c28.09,4.41,55.12,13.3,80.37,26.33,22.4,11.56,43.45,25.55,64.16,39.86,40.64,28.07,81.11,58.99,128.63,74.49,22.92,7.48,47.4,10.7,71.43,8.07,29.73-3.25,57.91-14.21,83.31-29.79,28.95-17.75,54.3-40.55,82.23-59.76,25.89-17.81,55.65-34.08,87.81-35.07,55.12-1.68,89.1,46.44,113.32,89.42,12.89,22.88,27.7,45.96,47.94,63.07,20.92,17.68,46.22,26.47,73.59,22.28,16.75-2.56,32.63-9.1,48.59-14.49,12.79-4.32,26.58-7.77,39.05-9.17,25.26-2.83,51.44-2.78,76.34,2.68,13.45,2.95,26.39,7.51,38.24,14.58,8.77,5.23,16.74-8.44,7.99-13.67-24.93-14.89-54.5-20.18-83.19-21.06-24.43-.75-49.73,1.2-73.19,8.32-28.54,8.66-57.98,24.59-88.34,15.14-24.09-7.5-42.24-27.73-56.16-47.86-15.14-21.89-26.32-46.15-42.38-67.45-15.45-20.48-34.22-39.14-58.14-49.34-61.65-26.3-122.62,15.02-169.85,51.39-26.29,20.25-52.88,41.36-84.01,53.7-24.05,9.53-49.56,13.94-75.38,11.39-48.13-4.75-90.59-32.71-129.41-59.43-41.98-28.89-83.33-60.17-131.92-77.2-57.93-20.3-122.81-20.22-181.16-1.59-29.37,9.38-57.27,23.44-81.93,41.97-24.87,18.69-46.77,40.82-70.7,60.63-24.54,20.31-52.14,37.51-84,43-31.6,5.45-63.2-3.31-92.16-15.54-15.04-6.35-29.67-13.64-44.34-20.77-9.12-4.43-17.16,9.21-7.99,13.67h0Z"/>
    <path class="st3" d="M35.17,206.39c29.66,14.41,59.75,29.97,92.28,36.74,33.74,7.02,67.35,2.71,98.44-12.11,56.24-26.81,93.28-80.69,147.29-111.05,52.02-29.24,114.62-40.51,173.6-31.25,27.95,4.39,54.86,13.2,79.99,26.17,22.4,11.56,43.45,25.55,64.16,39.86,40.77,28.15,81.35,59.1,129.01,74.65,23.04,7.52,47.7,10.77,71.85,8.12,30.01-3.29,58.45-14.27,84.11-30,28.95-17.75,54.3-40.55,82.23-59.76,25.65-17.65,55.14-33.88,87.01-34.85,54.52-1.66,88.02,46.17,111.96,88.64,12.95,22.99,27.85,46.2,48.19,63.39,21.39,18.08,47.15,26.97,75.13,22.69,16.75-2.56,32.63-9.1,48.59-14.49,8.26-2.79,16.61-5.36,25.16-7.07,2.68-.54,5.37-.96,8.07-1.36,2.22-.33-.19,0,1.51-.21,1.3-.16,2.6-.32,3.9-.47,25.12-2.82,51.16-2.81,75.92,2.63,13.33,2.92,26.12,7.41,37.87,14.42,10.52,6.28,20.08-10.13,9.59-16.4-25.17-15.03-55.03-20.39-83.99-21.27-24.55-.75-50.03,1.22-73.61,8.37-28.23,8.56-57.47,24.49-87.5,15.14-23.67-7.37-41.54-27.36-55.21-47.13-15.14-21.89-26.32-46.15-42.38-67.45-15.61-20.69-34.53-39.58-58.7-49.91-62.27-26.61-123.65,14.59-171.45,51.39-26.16,20.15-52.65,41.26-83.63,53.54-23.94,9.49-49.25,13.87-74.95,11.33-47.54-4.69-90.05-32.67-128.61-59.21-42.1-28.98-83.56-60.28-132.3-77.35-58.18-20.38-123.41-20.3-182-1.59-29.49,9.42-57.54,23.52-82.31,42.13s-46.99,40.98-71.02,60.88c-24.34,20.15-51.71,37.15-83.3,42.59-31.14,5.37-62.4-3.34-90.94-15.38-15.04-6.35-29.67-13.64-44.34-20.77-4.61-2.24-10.27-1.26-12.99,3.41-2.44,4.17-1.23,10.74,3.41,12.99h0Z"/>
    <path class="st2" d="M33.57,220.36c29.89,14.52,60.25,30.24,93.03,37.06,34.63,7.2,68.98,2.78,100.88-12.43,56.27-26.83,93.32-80.71,147.29-111.05,51.38-28.88,113.49-39.99,171.16-30.94,15.14,2.38,30.08,6.02,44.59,10.96,3.51,1.19,6.99,2.46,10.44,3.8,1.49.58,2.97,1.18,4.45,1.78,1.35.55.2.07-.06-.04.99.42,1.97.85,2.95,1.28,5.71,2.51,11.33,5.22,16.88,8.08,22.4,11.56,43.45,25.55,64.16,39.86,41.02,28.33,81.81,59.32,129.77,74.97,23.28,7.6,48.29,10.91,72.69,8.24,30.59-3.35,59.54-14.39,85.71-30.44,28.95-17.75,54.3-40.55,82.23-59.76,13.41-9.22,27.49-17.9,42.52-24.21,13.91-5.85,28.73-9.77,42.89-10.2,12.43-.38,23.73,1.56,34.79,6.13,10.25,4.24,20.6,11.41,28.7,18.79,19.58,17.84,32.57,38.79,45.73,62.15,13.07,23.2,28.16,46.69,48.68,64.04,22.34,18.89,49.01,27.97,78.21,23.5,16.75-2.56,32.63-9.1,48.59-14.49,8.26-2.79,16.61-5.36,25.16-7.07,2.68-.54,5.37-.96,8.07-1.36,3.22-.48-1.79.19.66-.1,1.3-.15,2.6-.32,3.9-.47,25.12-2.82,51.52-2.66,75.08,2.51,13.66,3,25.44,7.14,37.11,14.1,14.03,8.37,26.78-13.51,12.78-21.87-25.65-15.31-56.08-20.8-85.59-21.71-24.81-.76-50.62,1.26-74.45,8.49-16.72,5.07-32.86,12.01-49.92,15.95-12.6,2.91-23.65,3-35.89-.81-1.44-.45-2.86-.95-4.28-1.47-.24-.09-2.69-1.09-1.48-.57,1.08.46-.85-.4-.85-.4-2.93-1.36-5.77-2.88-8.53-4.56-6.01-3.64-8.73-5.76-13.66-10.22s-9.34-9.11-13.57-14.08-6.92-8.55-10.96-14.39c-15.14-21.89-26.32-46.15-42.38-67.45-15.94-21.12-35.16-40.47-59.84-51.05-28.13-12.05-58.98-10.97-87.6-.92-32.39,11.38-60.11,31.57-87.05,52.31s-52.89,41.34-82.88,53.22c-12.69,5.03-25.88,8.7-39.38,10.75-.29.04-2.49.31-.56.08-.65.08-1.3.16-1.95.22-1.51.15-3.02.31-4.53.43-3.19.26-6.39.41-9.59.47-6.04.11-12.09-.14-18.11-.73-1.43-.14-2.86-.3-4.29-.48-1.5-.19.07,0,.32.04-.81-.12-1.62-.24-2.43-.37-3.03-.49-6.04-1.06-9.03-1.71-5.78-1.25-11.5-2.8-17.13-4.6s-10.85-3.77-16.18-5.91c-2.35-.94-.91-.38-.4-.16-.57-.24-1.14-.49-1.71-.74-1.33-.58-2.65-1.17-3.97-1.78-2.84-1.3-5.66-2.65-8.46-4.04-22.33-11.12-43.21-24.91-63.73-39.03-42.36-29.16-84.03-60.5-133.05-77.67-58.66-20.55-124.6-20.45-183.68-1.59-29.74,9.5-58.09,23.68-83.07,42.45-25.2,18.93-47.42,41.3-71.66,61.37s-50.84,36.42-81.9,41.77-60.55-3.33-88.5-15.06c-15.05-6.32-29.67-13.64-44.34-20.77-6.15-2.99-13.69-1.67-17.32,4.54-3.25,5.56-1.63,14.32,4.54,17.32h0Z"/>
    <path class="st5" d="M35.17,221.97c29.66,14.41,59.75,29.97,92.28,36.74,33.74,7.02,67.35,2.71,98.44-12.11,56.24-26.81,93.28-80.69,147.29-111.05,52.02-29.24,114.62-40.51,173.6-31.25,27.95,4.39,54.86,13.2,79.99,26.17,22.4,11.56,43.45,25.55,64.16,39.86,40.77,28.15,81.35,59.1,129.01,74.65,23.04,7.52,47.7,10.77,71.85,8.12,30.01-3.29,58.45-14.27,84.11-30,28.95-17.75,54.3-40.55,82.23-59.76,25.65-17.65,55.14-33.88,87.01-34.85,54.52-1.66,88.02,46.17,111.96,88.64,12.95,22.99,27.85,46.2,48.19,63.39,21.39,18.08,47.15,26.97,75.13,22.69,16.75-2.56,32.63-9.1,48.59-14.49,8.26-2.79,16.61-5.36,25.16-7.07,2.68-.54,5.37-.96,8.07-1.36,2.22-.33-.19,0,1.51-.21,1.3-.16,2.6-.32,3.9-.47,25.12-2.82,51.16-2.81,75.92,2.63,13.33,2.92,26.12,7.41,37.87,14.42,10.52,6.28,20.08-10.13,9.59-16.4-25.17-15.03-55.03-20.39-83.99-21.27-24.55-.75-50.03,1.22-73.61,8.37-28.23,8.56-57.47,24.49-87.5,15.14-23.67-7.37-41.54-27.36-55.21-47.13-15.14-21.89-26.32-46.15-42.38-67.45-15.61-20.69-34.53-39.58-58.7-49.91-62.27-26.61-123.65,14.59-171.45,51.39-26.16,20.15-52.65,41.26-83.63,53.54-23.94,9.49-49.25,13.87-74.95,11.33-47.54-4.69-90.05-32.67-128.61-59.21-42.1-28.98-83.56-60.28-132.3-77.35-58.18-20.38-123.41-20.3-182-1.59-29.49,9.42-57.54,23.52-82.31,42.13-24.98,18.77-46.99,40.98-71.02,60.88s-51.71,37.15-83.3,42.59-62.4-3.34-90.94-15.38c-15.04-6.35-29.67-13.64-44.34-20.77-4.61-2.24-10.27-1.26-12.99,3.41-2.44,4.17-1.23,10.74,3.41,12.99h0Z"/>
    <path class="st1" d="M39.23,304.13c29.89,14.52,60.25,30.24,93.03,37.06,34.63,7.2,68.98,2.78,100.88-12.43,56.27-26.83,93.32-80.71,147.29-111.05,51.38-28.88,113.49-39.99,171.16-30.94,15.14,2.38,30.08,6.02,44.59,10.96,3.51,1.19,6.99,2.46,10.44,3.8,1.49.58,2.97,1.18,4.45,1.78,1.35.55.2.07-.06-.04.99.42,1.97.85,2.95,1.28,5.71,2.51,11.33,5.22,16.88,8.08,22.4,11.56,43.45,25.55,64.16,39.86,41.02,28.33,81.81,59.32,129.77,74.97,23.28,7.6,48.29,10.91,72.69,8.24,30.59-3.35,59.54-14.39,85.71-30.44,28.95-17.75,54.3-40.55,82.23-59.76,13.41-9.22,27.49-17.9,42.52-24.21,13.91-5.85,28.73-9.77,42.89-10.2,12.43-.38,23.73,1.56,34.79,6.13,10.25,4.24,20.6,11.41,28.7,18.79,19.58,17.84,32.57,38.79,45.73,62.15s28.16,46.69,48.68,64.04c22.34,18.89,49.01,27.97,78.21,23.5,16.75-2.56,32.63-9.1,48.59-14.49,8.26-2.79,16.61-5.36,25.16-7.07,2.68-.54,5.37-.96,8.07-1.36,3.22-.48-1.79.19.66-.1,1.3-.15,2.6-.32,3.9-.47,25.12-2.82,51.52-2.66,75.08,2.51,13.66,3,25.44,7.14,37.11,14.1,14.03,8.37,26.78-13.51,12.78-21.87-25.65-15.31-56.08-20.8-85.59-21.71-24.81-.76-50.62,1.26-74.45,8.49-16.72,5.07-32.86,12.01-49.92,15.95-12.6,2.91-23.65,3-35.89-.81-1.44-.45-2.86-.95-4.28-1.47-.24-.09-2.69-1.09-1.48-.57,1.08.46-.85-.4-.85-.4-2.93-1.36-5.77-2.88-8.53-4.56-6.01-3.64-8.73-5.76-13.66-10.22s-9.34-9.11-13.57-14.08-6.92-8.55-10.96-14.39c-15.14-21.89-26.32-46.15-42.38-67.45-15.94-21.12-35.16-40.47-59.84-51.05-28.13-12.05-58.98-10.97-87.6-.92-32.39,11.38-60.11,31.57-87.05,52.31-25.85,19.91-52.89,41.34-82.88,53.22-12.69,5.03-25.88,8.7-39.38,10.75-.29.04-2.49.31-.56.08-.65.08-1.3.16-1.95.22-1.51.15-3.02.31-4.53.43-3.19.26-6.39.41-9.59.47-6.04.11-12.09-.14-18.11-.73-1.43-.14-2.86-.3-4.29-.48-1.5-.19.07,0,.32.04-.81-.12-1.62-.24-2.43-.37-3.03-.49-6.04-1.06-9.03-1.71-5.78-1.25-11.5-2.8-17.13-4.6s-10.85-3.77-16.18-5.91c-2.35-.94-.91-.38-.4-.16-.57-.24-1.14-.49-1.71-.74-1.33-.58-2.65-1.17-3.97-1.78-2.84-1.3-5.66-2.65-8.46-4.04-22.33-11.12-43.21-24.91-63.73-39.03-42.36-29.16-84.03-60.5-133.05-77.67-58.66-20.55-124.6-20.45-183.68-1.59-29.74,9.5-58.09,23.68-83.07,42.45s-47.42,41.3-71.66,61.37c-23.84,19.73-50.84,36.42-81.9,41.77s-60.55-3.33-88.5-15.06c-15.05-6.32-29.67-13.64-44.34-20.77-6.15-2.99-13.69-1.67-17.32,4.54-3.25,5.56-1.63,14.32,4.54,17.32h0Z"/>
    <path class="st4" d="M20.79,288.18c45.35,22.03,93.03,46.28,144.93,44.09,29.09-1.23,56.8-9.64,82.37-23.43,21.05-11.36,40-26.7,58.02-42.31s36.54-33.44,56.08-48.67l-7.69,5.94c18.51-14.28,38.59-26.11,60.09-35.29l-9.07,3.83c23.45-9.85,48.07-16.48,73.27-19.87l-10.1,1.36c24.7-3.18,49.66-3.22,74.35,0l-10.1-1.36c23.21,3.16,45.9,9.17,67.53,18.19l-9.07-3.83c61.99,26.19,111.5,73.57,170.39,105.25,33.12,17.81,68.65,30.3,106.48,31.92,43.17,1.85,86.38-12.66,122.79-35.14,42.9-26.49,78.55-64.08,125.42-84.12l-9.07,3.83c11.87-4.94,24.16-8.65,36.91-10.42l-10.1,1.36c8.93-1.12,17.86-1.24,26.79-.12l-10.1-1.36c8.22,1.14,16.16,3.3,23.83,6.44l-9.07-3.83c8.7,3.7,16.75,8.55,24.26,14.27l-7.69-5.94c11.3,8.8,21.04,19.28,29.78,30.58l-5.94-7.69c11.34,14.86,20.39,30.97,29.76,47.08,10.33,17.77,22.12,34.95,35.89,50.24,15.74,17.48,34.81,30.56,56.69,39.02,22.89,8.85,48.73,7.53,72.08,1.43s46.63-17.16,71.5-20.56l-10.1,1.36c23.02-3.06,46.52-3.43,69.55-.34l-10.1-1.36c13.81,1.95,27.36,5.23,40.26,10.6l-9.07-3.83c5,2.15,9.84,4.59,14.52,7.38,17.08,10.2,42.45,4.39,51.97-13.63,9.69-18.35,4.6-41.09-13.63-51.97-29.86-17.83-65.4-24.34-99.76-25.2-27.75-.7-56.75,2.06-83.24,10.5-18.77,5.98-37.14,14.12-56.8,16.78l10.1-1.36c-6.51.77-12.97.82-19.49.07l10.1,1.36c-6.94-.94-13.62-2.77-20.08-5.45l9.07,3.83c-7.17-3.11-13.8-7.14-20.02-11.86l7.69,5.94c-9.96-7.76-18.54-16.99-26.28-26.93,1.98,2.56,3.96,5.13,5.94,7.69-16.25-21.14-27.47-45.31-42.42-67.29-17.43-25.61-38.49-49.96-65.88-65.28-31.32-17.52-66.94-21.1-101.68-13.1-35.29,8.13-66.89,27.83-95.52,49.29-30.46,22.82-59.66,47.85-95.01,62.93l9.07-3.83c-14.84,6.2-30.28,10.7-46.24,12.85l10.1-1.36c-13.85,1.75-27.77,1.68-41.6-.17l10.1,1.36c-16.67-2.36-32.77-7.22-48.28-13.72l9.07,3.83c-66.59-28.3-118.72-81.52-184.04-112.22-43.82-20.59-91.45-31.45-139.99-30.47-49.67,1-98.6,13.41-142.73,36.19-47.25,24.39-82.35,64.19-123.76,96.46l7.69-5.94c-14.42,11.13-29.72,20.95-46.51,28.14l9.07-3.83c-11.82,4.9-24.04,8.39-36.72,10.15l10.1-1.36c-12.09,1.52-24.19,1.4-36.27-.17l10.1,1.36c-19.17-2.7-37.51-8.84-55.31-16.28l9.07,3.83c-15.56-6.58-30.72-14.05-45.91-21.43-9.3-4.52-19.02-6.65-29.27-3.83-8.81,2.43-18.36,9.24-22.7,17.46-4.66,8.82-6.99,19.5-3.83,29.27,2.91,9,8.64,18.42,17.46,22.7h0Z"/>
    <g>
      <path class="st5" d="M248.33,277.14c.35.51.46,1.07.32,1.68-.14.6-.45,1.08-.95,1.42-.55.38-1.12.51-1.69.4s-1.04-.43-1.39-.94l-11.78-17.15c-.35-.51-.47-1.07-.35-1.66.12-.59.45-1.08,1.01-1.46.48-.33,1.01-.44,1.62-.35.6.09,1.08.4,1.44.91l11.78,17.15Z"/>
      <path class="st5" d="M254.27,243.69c.45-.36.94-.5,1.46-.42s.96.34,1.32.79l13.01,16.47c.39.49.55,1.03.48,1.62-.07.59-.35,1.08-.84,1.47-.25.19-.53.35-.85.46-.32.12-.61.15-.86.1l-22.24-5.32.38-1.03,10.63,13.44c.36.45.51.94.46,1.48-.05.53-.32.98-.79,1.36-.45.36-.94.5-1.46.42-.52-.08-.96-.34-1.32-.79l-13.01-16.47c-.39-.49-.55-1.03-.48-1.62.07-.59.35-1.08.84-1.47.26-.21.58-.37.94-.49.36-.12.69-.13.99-.02l21.61,5.22-.21.72-10.36-13.1c-.36-.45-.51-.94-.47-1.46.04-.52.3-.97.77-1.34Z"/>
      <path class="st5" d="M273.67,226.77c.43-.38.91-.55,1.43-.5.52.05.98.29,1.36.72l13.88,15.75c.41.47.6,1,.56,1.59-.04.59-.29,1.1-.76,1.51-.23.21-.51.38-.82.51-.31.13-.6.18-.85.15l-22.49-4.12.32-1.05,11.33,12.86c.38.43.56.92.53,1.45s-.26,1-.71,1.4c-.43.38-.91.55-1.43.5s-.98-.29-1.36-.72l-13.88-15.75c-.41-.47-.6-1-.56-1.59.04-.59.29-1.1.76-1.51.25-.22.56-.4.91-.54.36-.14.69-.17.99-.08l21.86,4.06-.17.73-11.05-12.53c-.38-.43-.56-.91-.55-1.44.02-.53.25-.99.7-1.38Z"/>
      <path class="st5" d="M280.51,220.56l8.97-8.06c.46-.42.98-.62,1.56-.61.58.01,1.07.25,1.49.72.4.45.57.95.51,1.51s-.33,1.04-.79,1.46l-7.5,6.74-.17-.67,4.69,5.22-.41-.02,6.26-5.63c.46-.42.98-.62,1.56-.61.58.01,1.07.25,1.49.72.4.45.57.95.51,1.5-.06.56-.33,1.04-.79,1.46l-6.18,5.56-.06-.33,4.86,5.41-.43-.05,7.47-6.72c.46-.42.99-.61,1.59-.58.59.03,1.07.25,1.44.66.4.45.57.95.52,1.52-.06.57-.32,1.06-.78,1.47l-8.97,8.06c-.46.42-.99.61-1.59.58-.59-.03-1.1-.28-1.52-.74l-13.91-15.47c-.42-.46-.61-.99-.58-1.58.03-.59.28-1.1.74-1.52Z"/>
      <path class="st5" d="M312.9,225.37c-.51.44-1.1.67-1.77.7-.67.03-1.21-.2-1.62-.67l-13.58-15.77c-.41-.47-.59-1-.54-1.6.04-.59.3-1.09.78-1.5l7.86-6.76c.95-.81,2.05-1.33,3.31-1.54s2.52-.1,3.79.35c1.27.44,2.4,1.24,3.38,2.38.6.69,1.03,1.49,1.32,2.38.28.9.41,1.82.38,2.76s-.22,1.82-.57,2.62l-.51-.65c.74-.17,1.44-.21,2.1-.12.66.08,1.27.26,1.82.52.56.26,1.07.62,1.53,1.08.46.39.86.75,1.18,1.07.32.32.63.57.92.73.29.17.6.21.95.13.6-.11,1.15.02,1.63.38.48.36.72.85.71,1.46,0,.41-.12.78-.38,1.11-.25.33-.56.6-.93.8-.36.2-.69.33-.99.4-.47.08-1.01.08-1.62,0-.61-.09-1.28-.35-1.98-.79-.71-.44-1.47-1.13-2.28-2.07-.27-.31-.57-.55-.9-.72-.34-.17-.69-.26-1.05-.28-.36-.02-.74.05-1.14.22-.4.17-.8.43-1.22.79l-5.51,4.75-.13-.98,5.1,5.92c.41.47.62.98.64,1.52.02.54-.2,1-.65,1.39ZM305.55,214.69l6.36-5.47c.33-.28.52-.71.57-1.27.05-.57-.05-1.19-.29-1.89-.25-.69-.64-1.34-1.17-1.96-.69-.8-1.48-1.28-2.37-1.45-.89-.17-1.58-.04-2.07.38l-6.3,5.43-.42-1.16,6.65,7.72-.95-.33Z"/>
      <path class="st5" d="M344.01,200.68c-1.37.97-2.73,1.67-4.06,2.11-1.34.44-2.81.58-4.42.42-.41-.03-.78-.14-1.11-.32-.33-.18-.59-.4-.79-.68-.32-.45-.44-.96-.36-1.53.08-.57.36-1.03.85-1.38.37-.26.79-.38,1.25-.36,1.17.08,2.24.02,3.2-.19.96-.21,1.97-.69,3.05-1.46.72-.51,1.31-1.1,1.76-1.75.45-.66.72-1.31.82-1.95.1-.65-.02-1.21-.37-1.7-.42-.59-.95-.96-1.59-1.12-.64-.16-1.43-.13-2.35.1-.93.23-2,.66-3.23,1.3-1.17.59-2.27,1.01-3.3,1.26-1.03.25-1.99.31-2.89.19s-1.72-.42-2.47-.9c-.75-.48-1.43-1.14-2.03-1.98-.9-1.27-1.35-2.59-1.33-3.96.02-1.37.42-2.68,1.2-3.94.78-1.26,1.85-2.37,3.2-3.33,1.27-.9,2.59-1.55,3.94-1.94,1.36-.39,2.59-.53,3.69-.43.89.05,1.54.37,1.96.95.31.43.42.94.33,1.53-.08.59-.35,1.04-.8,1.36-.29.21-.62.31-.98.3-.51-.05-1.11-.01-1.81.12-.7.13-1.41.32-2.11.57-.71.25-1.31.56-1.82.92-.84.6-1.48,1.21-1.9,1.83-.42.63-.65,1.23-.68,1.81-.03.58.13,1.12.48,1.6.42.59.93.95,1.54,1.09.61.14,1.32.09,2.13-.14.81-.23,1.72-.58,2.75-1.04,1.33-.62,2.54-1.1,3.64-1.43,1.1-.34,2.11-.49,3.02-.44.91.04,1.76.31,2.55.79.79.49,1.53,1.23,2.24,2.23.9,1.27,1.33,2.62,1.28,4.04-.05,1.42-.48,2.78-1.27,4.08-.8,1.3-1.86,2.42-3.19,3.37Z"/>
      <path class="st5" d="M344.01,174.66c-.54.32-1.08.43-1.64.31-.56-.11-1-.44-1.32-.97-.32-.53-.4-1.07-.23-1.61.17-.53.52-.96,1.05-1.29l13.7-8.24c.53-.32,1.08-.43,1.64-.31.56.11,1,.44,1.32.97.32.54.4,1.07.23,1.6-.17.54-.52.96-1.05,1.29l-13.7,8.24ZM361.68,188.61c-.58.35-1.16.45-1.74.31-.59-.14-1.04-.47-1.36-1.01l-10.76-17.89,4.01-2.41,10.76,17.89c.32.54.4,1.1.24,1.69-.16.59-.54,1.06-1.14,1.42Z"/>
      <path class="st5" d="M371.32,161.04l1.24,19.83c.05.48-.02.92-.22,1.3-.2.38-.48.66-.84.85-.58.29-1.09.34-1.53.16-.44-.18-.78-.51-1.02-.98-.1-.19-.17-.41-.21-.66l-1.63-23.26c-.04-.52.05-.98.29-1.39.24-.41.57-.7,1-.86.39-.19.8-.26,1.25-.2.45.06.85.25,1.2.59l17.37,14.9c.25.23.43.46.55.69.29.58.33,1.14.13,1.67-.2.53-.53.91-.98,1.14-.39.19-.79.25-1.22.17-.43-.08-.83-.28-1.21-.6l-15-12.66.84-.66ZM371.59,176.44l-.08-4.59,8.69-4.35,2.47,3.39-11.07,5.55Z"/>
      <path class="st5" d="M394.38,171.79c-.62.25-1.26.28-1.91.08-.65-.19-1.08-.58-1.31-1.16l-7.7-19.33c-.23-.58-.23-1.14,0-1.69.23-.54.64-.93,1.22-1.16l9.63-3.83c1.16-.46,2.37-.59,3.63-.38,1.26.21,2.42.73,3.47,1.56,1.05.83,1.86,1.95,2.42,3.36.34.85.49,1.74.47,2.68-.03.94-.21,1.85-.54,2.73-.33.88-.8,1.65-1.39,2.3l-.27-.78c.76.09,1.43.28,2.03.57.59.29,1.11.66,1.56,1.09.44.43.81.94,1.09,1.52.31.52.57.99.77,1.4.2.41.41.74.63.99.22.25.5.4.85.44.61.09,1.08.39,1.42.89.34.5.4,1.03.19,1.61-.13.39-.37.7-.72.92s-.73.38-1.14.45c-.41.07-.76.09-1.06.06-.47-.07-.98-.25-1.53-.53-.55-.28-1.09-.75-1.62-1.39-.53-.64-1.02-1.54-1.48-2.7-.15-.38-.36-.7-.62-.97-.26-.27-.56-.47-.9-.61-.34-.14-.72-.19-1.15-.16-.43.03-.9.14-1.41.35l-6.76,2.69.2-.97,2.89,7.26c.23.58.27,1.13.11,1.64-.16.51-.51.88-1.07,1.1ZM390.92,159.3l7.79-3.1c.4-.16.72-.5.95-1.02.23-.52.34-1.14.34-1.88,0-.73-.16-1.48-.46-2.24-.39-.98-.98-1.7-1.76-2.15s-1.48-.55-2.08-.31l-7.73,3.08-.02-1.23,3.77,9.47-.79-.62Z"/>
      <path class="st5" d="M422.42,162.01c-1.61.49-3.11.74-4.52.73s-2.85-.33-4.33-.99c-.38-.16-.69-.38-.95-.65-.26-.27-.44-.57-.54-.89-.16-.53-.12-1.05.14-1.57s.67-.86,1.24-1.04c.44-.13.87-.12,1.3.05,1.09.44,2.12.72,3.1.82.97.1,2.09-.04,3.35-.43.85-.26,1.59-.63,2.22-1.11.63-.48,1.09-1.01,1.39-1.59.3-.58.36-1.16.18-1.73-.21-.69-.6-1.21-1.16-1.57-.56-.35-1.32-.57-2.27-.64-.95-.07-2.11,0-3.47.22-1.3.2-2.47.25-3.53.16-1.06-.09-1.99-.33-2.8-.72s-1.5-.93-2.06-1.63c-.56-.69-1-1.53-1.3-2.52-.46-1.49-.46-2.88-.02-4.17.44-1.29,1.24-2.41,2.38-3.37s2.5-1.67,4.08-2.16c1.49-.46,2.94-.66,4.35-.6s2.62.31,3.64.75c.83.32,1.35.83,1.56,1.52.16.51.1,1.02-.16,1.56-.26.53-.66.88-1.19,1.04-.34.11-.69.1-1.02-.02-.47-.21-1.05-.36-1.76-.46-.71-.1-1.44-.14-2.18-.12-.75.02-1.42.12-2.02.3-.99.3-1.78.68-2.38,1.14-.6.46-1,.96-1.21,1.5-.21.54-.23,1.1-.05,1.67.21.69.59,1.19,1.13,1.52.54.32,1.23.5,2.07.53.84.03,1.82-.01,2.94-.13,1.45-.17,2.76-.24,3.91-.22,1.15.02,2.15.2,3,.53.85.33,1.58.85,2.17,1.55.59.71,1.07,1.65,1.43,2.82.46,1.49.44,2.9-.06,4.23-.49,1.33-1.33,2.49-2.49,3.48-1.17.99-2.53,1.72-4.09,2.2Z"/>
      <path class="st5" d="M450.77,128.87c2.26-.42,4.05-.21,5.36.64,1.31.85,2.16,2.32,2.55,4.39.21,1.11.12,2.13-.27,3.07-.39.94-1.07,1.74-2.04,2.4s-2.24,1.13-3.8,1.43l-.16-1.62c.73-.14,1.59-.19,2.57-.17s1.96.21,2.94.55c.98.34,1.84.91,2.59,1.71s1.26,1.91,1.52,3.32c.29,1.56.28,2.88-.04,3.96s-.84,1.98-1.57,2.67c-.72.7-1.54,1.24-2.44,1.61-.91.38-1.8.65-2.67.81l-8.81,1.65c-.61.12-1.17,0-1.66-.33-.49-.33-.79-.81-.91-1.42l-3.84-20.45c-.12-.61,0-1.17.33-1.66.33-.49.81-.79,1.42-.91l8.92-1.67ZM450.91,133.17l-6.3,1.18.35-.65,1.2,6.4-.48-.24,6.37-1.19c.68-.13,1.25-.47,1.71-1.02.46-.55.61-1.25.45-2.1-.19-1.01-.58-1.7-1.18-2.07-.59-.37-1.3-.47-2.13-.32ZM453.01,142.81l-6.44,1.21.27-.34,1.4,7.47-.42-.29,6.72-1.26c1.08-.2,1.89-.65,2.42-1.35.53-.7.68-1.62.47-2.78-.2-1.06-.56-1.79-1.07-2.18-.51-.39-1.08-.59-1.69-.6-.61,0-1.17.04-1.66.13Z"/>
      <path class="st5" d="M482.25,124.71c.62-.06,1.14.09,1.57.47.42.38.67.88.73,1.5l1.32,12.96c.2,1.98-.04,3.78-.73,5.39s-1.73,2.93-3.12,3.94c-1.39,1.01-3.07,1.62-5.03,1.82-1.96.2-3.73-.05-5.31-.76s-2.87-1.78-3.88-3.22c-1-1.44-1.61-3.15-1.81-5.13l-1.32-12.96c-.06-.62.1-1.16.49-1.62.39-.46.91-.73,1.58-.79.55-.06,1.07.1,1.55.48.48.37.76.87.82,1.49l1.33,12.96c.12,1.19.48,2.2,1.09,3.02s1.35,1.42,2.25,1.81c.9.39,1.82.54,2.78.44,1.03-.11,1.96-.44,2.79-1.01.83-.57,1.48-1.31,1.94-2.24.46-.93.63-1.99.51-3.18l-1.33-12.96c-.06-.62.06-1.16.38-1.61s.78-.71,1.4-.78Z"/>
      <path class="st5" d="M496.33,147.09c.03.62-.18,1.16-.62,1.59-.44.44-.96.67-1.56.69-.67.03-1.22-.16-1.64-.56-.43-.4-.65-.92-.68-1.54l-.86-20.79c-.03-.62.17-1.15.58-1.59s.96-.67,1.63-.7c.58-.02,1.09.17,1.56.57.46.4.7.91.73,1.54l.86,20.79Z"/>
      <path class="st5" d="M515.45,145.01c.62,0,1.14.21,1.56.61.42.4.62.91.61,1.54,0,.6-.22,1.1-.65,1.49s-.95.58-1.57.58l-11.7-.12c-.62,0-1.14-.22-1.56-.65-.42-.42-.62-.95-.61-1.57l.22-20.81c0-.62.23-1.14.66-1.56.44-.42.99-.62,1.66-.61.58,0,1.08.22,1.52.65.44.42.66.95.65,1.57l-.2,19.4-.79-.62,10.19.11Z"/>
      <path class="st5" d="M534.3,125.24c1.72.16,3.22.62,4.5,1.38s2.33,1.77,3.14,3.01c.81,1.24,1.39,2.64,1.71,4.2.33,1.56.42,3.2.26,4.92-.21,2.32-.82,4.39-1.83,6.21-1.01,1.82-2.36,3.23-4.05,4.21s-3.7,1.36-6.01,1.15l-8.57-.78c-.62-.06-1.12-.31-1.5-.77-.38-.46-.54-.99-.49-1.62l1.88-20.72c.06-.62.31-1.12.77-1.5.46-.38,1-.54,1.62-.49l8.57.78ZM532.04,146.19c1.51.14,2.77-.14,3.8-.83,1.03-.69,1.82-1.65,2.38-2.89.56-1.24.91-2.61,1.04-4.12.1-1.12.07-2.2-.08-3.24-.16-1.04-.47-1.97-.92-2.79s-1.07-1.5-1.84-2.03c-.77-.53-1.72-.84-2.84-.95l-6.27-.57.39-.29-1.59,17.57-.18-.41,6.13.56Z"/>
      <path class="st5" d="M554.28,153.69c-1.65-.29-3.11-.76-4.36-1.41-1.25-.65-2.39-1.6-3.41-2.85-.26-.31-.45-.65-.55-1.01-.11-.36-.13-.71-.07-1.04.09-.54.37-.99.84-1.33s.99-.47,1.58-.36c.45.08.83.29,1.13.64.77.89,1.56,1.6,2.38,2.14.82.53,1.88.92,3.18,1.14.87.15,1.7.16,2.48.02.78-.14,1.44-.41,1.97-.79s.85-.87.95-1.46c.12-.71.02-1.35-.32-1.92-.34-.57-.92-1.1-1.73-1.6-.81-.5-1.88-.96-3.19-1.38-1.24-.41-2.31-.9-3.21-1.46-.9-.56-1.62-1.2-2.17-1.92-.54-.72-.91-1.51-1.1-2.39s-.19-1.82-.01-2.83c.27-1.54.9-2.78,1.88-3.73.98-.95,2.2-1.59,3.65-1.92s2.99-.35,4.62-.07c1.54.27,2.92.75,4.15,1.44s2.2,1.46,2.9,2.32c.59.67.82,1.35.7,2.06-.09.52-.38.96-.85,1.31s-.99.48-1.53.39c-.35-.06-.65-.22-.9-.49-.32-.4-.77-.8-1.36-1.21-.59-.41-1.22-.77-1.89-1.1-.67-.33-1.32-.54-1.93-.65-1.02-.18-1.9-.2-2.64-.06-.74.14-1.33.4-1.76.79-.43.39-.7.88-.81,1.47-.12.71-.02,1.33.31,1.86.33.53.87,1,1.6,1.41.73.41,1.62.82,2.67,1.22,1.37.51,2.57,1.04,3.58,1.58,1.01.54,1.83,1.16,2.44,1.84.61.68,1.02,1.47,1.23,2.37s.2,1.96,0,3.16c-.27,1.54-.93,2.79-1.97,3.75-1.05.96-2.31,1.62-3.8,1.96s-3.03.38-4.64.1Z"/>
      <path class="st5" d="M600.36,140.18c.51.48.72,1.05.63,1.73-.09.67-.43,1.21-1.03,1.61-.42.32-.88.44-1.36.34-.49-.1-.93-.33-1.35-.71-.48-.42-1-.79-1.57-1.11-.57-.32-1.19-.58-1.85-.78-1.24-.37-2.41-.51-3.5-.41-1.09.1-2.09.41-3,.92-.91.52-1.69,1.22-2.34,2.1-.65.88-1.16,1.92-1.52,3.12-.42,1.4-.58,2.68-.49,3.84s.39,2.18.9,3.09c.5.9,1.19,1.67,2.06,2.29.87.62,1.86,1.1,2.99,1.44.62.19,1.26.32,1.91.39.66.07,1.31.04,1.98-.08.55-.08,1.05-.02,1.5.19.45.21.77.57.97,1.08.29.71.28,1.35-.03,1.93-.31.57-.79.91-1.45,1.01-.69.12-1.38.18-2.07.19-.69,0-1.37-.04-2.05-.13s-1.35-.23-2.01-.43c-1.66-.5-3.15-1.23-4.47-2.21-1.32-.97-2.41-2.15-3.26-3.53-.85-1.38-1.38-2.95-1.58-4.7-.2-1.75,0-3.65.62-5.7.53-1.77,1.32-3.31,2.38-4.62,1.06-1.31,2.31-2.35,3.75-3.1,1.44-.76,3.01-1.21,4.71-1.37,1.7-.15,3.45.04,5.24.58,1.01.3,1.97.71,2.86,1.23s1.7,1.12,2.42,1.82Z"/>
      <path class="st5" d="M609.41,142.03c.53.22.92.61,1.17,1.17.25.56.26,1.12.02,1.7l-7.95,19.23c-.24.58-.65.97-1.23,1.19-.58.21-1.15.21-1.7-.02-.62-.26-1.04-.66-1.26-1.2s-.21-1.1.03-1.68l7.95-19.23c.24-.58.64-.98,1.2-1.2.56-.22,1.15-.21,1.77.05ZM605.31,151.68l14.84,6.13-1.58,3.83-14.84-6.13,1.58-3.83ZM624.15,148.13c.62.26,1.04.66,1.26,1.2s.21,1.1-.03,1.68l-7.95,19.23c-.24.58-.63.98-1.18,1.21-.55.23-1.14.21-1.79-.06-.53-.22-.92-.61-1.17-1.17-.25-.56-.26-1.12-.02-1.7l7.95-19.23c.24-.58.65-.97,1.23-1.19.58-.21,1.15-.21,1.71.02Z"/>
      <path class="st5" d="M638.1,161.01l-15.18,12.82c-.36.33-.75.53-1.17.6-.42.07-.82.01-1.18-.17-.58-.29-.93-.67-1.04-1.13s-.06-.93.18-1.4c.1-.19.23-.38.4-.56l17.7-15.18c.39-.34.82-.54,1.29-.6s.9.04,1.29.29c.39.19.69.49.91.88s.3.83.25,1.31l-1.6,22.82c-.03.33-.11.62-.23.85-.29.58-.71.94-1.26,1.1-.55.15-1.05.12-1.5-.11-.39-.2-.67-.49-.87-.88-.19-.39-.27-.84-.24-1.33l1.22-19.59,1.03.28ZM625.9,170.41l3.63-2.8,8.68,4.38-1.25,4-11.06-5.58Z"/>
      <path class="st5" d="M643.39,185.94c-.58-.34-.99-.82-1.24-1.45-.24-.63-.21-1.21.11-1.75l10.51-17.96c.32-.54.76-.88,1.33-1.03.57-.15,1.13-.07,1.67.25l8.95,5.24c1.08.63,1.92,1.51,2.53,2.63.61,1.12.91,2.35.9,3.7,0,1.34-.39,2.67-1.16,3.97-.46.79-1.07,1.46-1.83,2.02-.76.56-1.59.98-2.49,1.25s-1.79.38-2.67.32l.45-.7c.4.65.66,1.3.8,1.95.13.65.17,1.28.1,1.89-.07.61-.24,1.21-.53,1.8-.22.57-.43,1.06-.63,1.47-.2.41-.33.78-.4,1.1-.06.32,0,.64.18.94.3.54.36,1.09.17,1.67-.18.57-.57.96-1.15,1.14-.39.14-.78.14-1.17,0s-.75-.34-1.06-.62c-.31-.28-.54-.55-.7-.8-.23-.41-.4-.93-.52-1.54-.12-.61-.08-1.32.1-2.13.18-.81.59-1.75,1.22-2.83.21-.35.33-.71.39-1.09.05-.37.03-.74-.07-1.09s-.29-.69-.58-1.01c-.29-.32-.67-.62-1.14-.9l-6.28-3.67.88-.44-3.95,6.74c-.32.54-.72.9-1.23,1.1-.5.19-1.01.14-1.53-.17ZM651.11,175.53l7.24,4.24c.37.22.83.26,1.39.12.55-.14,1.12-.43,1.69-.89s1.07-1.04,1.48-1.74c.53-.91.74-1.81.61-2.71-.13-.9-.47-1.51-1.03-1.83l-7.18-4.2.96-.78-5.15,8.79v-1Z"/>
      <path class="st5" d="M680.55,185.73l-16.45,11.14c-.39.29-.8.45-1.23.47-.43.02-.82-.08-1.16-.3-.54-.35-.85-.76-.92-1.24-.07-.47.04-.93.33-1.37.12-.18.27-.35.46-.52l19.21-13.22c.42-.3.87-.45,1.35-.46.48,0,.89.13,1.25.42.36.23.63.56.81.97.18.41.21.86.1,1.33l-4.01,22.53c-.07.33-.17.6-.32.82-.35.54-.81.86-1.37.96-.56.09-1.05,0-1.48-.27-.36-.23-.62-.56-.77-.97-.15-.41-.18-.86-.09-1.35l3.28-19.35.99.39ZM667.41,193.79l3.91-2.4,8.17,5.27-1.67,3.85-10.4-6.72Z"/>
      <path class="st5" d="M709.23,199.63c.34.61.37,1.22.08,1.84-.29.62-.78,1.02-1.47,1.22-.5.18-.97.15-1.4-.08s-.79-.6-1.07-1.08c-.33-.54-.71-1.05-1.16-1.53-.44-.48-.95-.91-1.53-1.3-1.07-.73-2.14-1.21-3.21-1.45-1.07-.24-2.12-.25-3.14-.03-1.02.22-1.98.65-2.86,1.29-.89.64-1.68,1.48-2.39,2.51-.83,1.21-1.37,2.38-1.63,3.51s-.29,2.2-.08,3.21c.21,1.01.63,1.95,1.27,2.8.64.86,1.44,1.62,2.41,2.28.54.37,1.1.68,1.71.95.6.27,1.24.44,1.91.52.55.09,1.01.3,1.38.63.37.34.57.78.6,1.32.06.77-.15,1.38-.61,1.83s-1.03.63-1.69.53c-.69-.09-1.37-.24-2.03-.45-.66-.2-1.3-.45-1.91-.74-.62-.29-1.21-.63-1.79-1.02-1.43-.97-2.62-2.12-3.59-3.45s-1.65-2.78-2.04-4.35c-.39-1.58-.42-3.23-.08-4.96s1.11-3.48,2.31-5.24c1.04-1.53,2.26-2.75,3.67-3.69s2.91-1.54,4.51-1.82c1.6-.29,3.24-.25,4.91.12,1.67.37,3.27,1.08,4.82,2.13.87.59,1.66,1.28,2.36,2.04.7.77,1.28,1.59,1.76,2.46Z"/>
      <path class="st5" d="M706.73,227.12c-.55-.38-.88-.87-1-1.46-.11-.59,0-1.14.36-1.66l11.94-17.13,3.84,2.68-11.94,17.13c-.36.51-.84.81-1.44.9-.6.09-1.19-.06-1.76-.46ZM712.24,205.29c-.51-.36-.83-.81-.96-1.37-.12-.55,0-1.09.35-1.6.36-.51.81-.8,1.37-.87.56-.07,1.09.08,1.6.44l13.12,9.14c.51.36.83.81.96,1.37.12.56,0,1.09-.35,1.6-.36.51-.81.8-1.37.87s-1.09-.08-1.6-.44l-13.11-9.14Z"/>
      <path class="st5" d="M734.3,215.62l9.93,6.85c.51.35.83.81.95,1.38.12.56,0,1.1-.35,1.62-.34.49-.79.77-1.35.84-.56.07-1.09-.08-1.61-.43l-8.3-5.73.61-.32-3.99,5.78-.07-.4,6.93,4.79c.51.35.83.81.95,1.38.12.56,0,1.1-.35,1.62-.34.49-.79.77-1.35.84-.56.07-1.09-.08-1.61-.43l-6.84-4.72.31-.13-4.13,5.99-.05-.43,8.27,5.71c.51.35.82.82.93,1.41.11.58,0,1.1-.31,1.56-.34.49-.79.78-1.36.86-.56.08-1.1-.06-1.62-.42l-9.93-6.85c-.51-.35-.82-.82-.93-1.41-.11-.58.02-1.13.37-1.65l11.82-17.13c.35-.51.82-.82,1.41-.93s1.13.02,1.65.37Z"/>
      <path class="st5" d="M737.21,248.18c-.56-.37-.95-.88-1.15-1.52s-.14-1.22.2-1.74l11.47-17.36c.34-.52.81-.84,1.39-.96s1.13,0,1.65.34l8.65,5.72c1.04.69,1.83,1.61,2.38,2.76.55,1.15.78,2.4.7,3.74-.08,1.34-.54,2.64-1.37,3.9-.5.76-1.15,1.4-1.93,1.91-.79.52-1.64.89-2.55,1.12-.92.23-1.81.29-2.68.17l.49-.67c.36.67.59,1.33.69,1.99.1.66.1,1.29,0,1.9-.1.61-.31,1.2-.63,1.76-.25.55-.49,1.03-.71,1.43-.22.4-.37.76-.46,1.08-.08.32-.04.64.13.95.27.55.3,1.11.08,1.67-.21.56-.62.92-1.21,1.08-.39.12-.78.09-1.17-.06-.39-.16-.73-.38-1.02-.68-.29-.29-.51-.58-.65-.84-.21-.42-.35-.95-.44-1.56-.08-.62,0-1.32.22-2.12.23-.8.68-1.72,1.37-2.76.22-.34.37-.7.44-1.07.07-.37.07-.73-.01-1.09-.08-.36-.26-.7-.52-1.04-.27-.33-.63-.65-1.09-.96l-6.07-4.01.91-.39-4.31,6.52c-.34.52-.77.86-1.28,1.03s-1.02.08-1.52-.25ZM745.49,238.2l7,4.62c.36.24.82.3,1.38.2s1.14-.37,1.73-.79c.6-.43,1.12-.98,1.57-1.66.58-.88.83-1.77.75-2.67s-.39-1.53-.93-1.89l-6.94-4.58,1-.72-5.62,8.5.06-1Z"/>
      <path class="st5" d="M757.13,261.07c-.59-.37-.95-.81-1.06-1.32-.12-.51,0-1.06.38-1.65l.32-.52c.37-.59.81-.94,1.32-1.06.51-.12,1.06,0,1.65.38l.4.25c.59.37.94.81,1.06,1.32.12.51,0,1.06-.38,1.65l-.32.52c-.37.59-.81.95-1.32,1.06-.51.12-1.06,0-1.65-.38l-.4-.25Z"/>
      <path class="st6" d="M815.85,286.5c.58.23.99.61,1.23,1.14.24.52.24,1.08,0,1.65-.23.56-.61.94-1.14,1.15-.54.21-1.1.2-1.67-.04l-10.84-4.4c-.58-.24-.98-.63-1.21-1.17s-.23-1.11,0-1.69l7.82-19.28c.23-.58.63-.98,1.19-1.21.56-.23,1.15-.21,1.77.04.53.22.93.6,1.18,1.16.25.56.26,1.12.03,1.7l-7.29,17.98-.5-.86,9.44,3.83Z"/>
      <path class="st6" d="M830.86,269.5l11.59,3.33c.6.17,1.05.51,1.34,1,.29.5.36,1.04.18,1.64-.17.58-.5.99-1.01,1.23-.51.24-1.06.28-1.66.1l-9.69-2.79.48-.5-1.94,6.75-.2-.36,8.1,2.33c.6.17,1.05.51,1.34,1,.29.5.36,1.04.18,1.64-.17.58-.5.99-1.01,1.23-.51.24-1.06.28-1.66.1l-7.99-2.3.25-.23-2.01,6.99-.19-.39,9.65,2.78c.6.17,1.04.52,1.33,1.04.29.52.35,1.04.2,1.58-.17.58-.5.99-1.01,1.24s-1.06.29-1.66.12l-11.59-3.33c-.6-.17-1.04-.52-1.33-1.04s-.34-1.08-.17-1.68l5.75-20c.17-.6.52-1.04,1.04-1.33.52-.29,1.08-.35,1.68-.17Z"/>
      <path class="st6" d="M855.72,280.99l-10.3,17c-.23.43-.54.74-.92.94-.38.2-.77.27-1.18.21-.64-.09-1.09-.34-1.35-.74-.26-.4-.35-.86-.27-1.39.03-.21.1-.43.2-.66l11.94-20.03c.26-.45.6-.77,1.03-.98s.87-.25,1.31-.14c.43.06.81.24,1.14.55.33.3.55.69.65,1.17l5.76,22.14c.07.33.09.62.06.88-.09.64-.37,1.12-.84,1.44-.47.32-.96.45-1.45.37-.43-.06-.79-.25-1.1-.56-.31-.31-.52-.71-.65-1.18l-5.1-18.95,1.06-.07ZM847.15,293.8l2.55-3.82,9.62,1.38.09,4.2-12.26-1.76Z"/>
      <path class="st6" d="M871.87,302.02c-.67.02-1.28-.18-1.82-.58-.54-.41-.82-.92-.83-1.54l-.54-20.8c-.02-.62.18-1.15.59-1.58.41-.43.92-.65,1.55-.67l10.36-.27c1.25-.03,2.43.27,3.54.9,1.11.63,2.01,1.52,2.72,2.67.7,1.15,1.07,2.47,1.11,3.99.02.91-.14,1.8-.49,2.68-.35.87-.83,1.67-1.45,2.38-.62.71-1.32,1.27-2.1,1.68v-.83c.69.34,1.26.75,1.72,1.23s.82,1,1.08,1.56c.27.56.43,1.16.5,1.81.11.6.19,1.12.24,1.58.05.46.13.84.25,1.15.12.31.33.54.65.7.54.3.88.74,1.02,1.32.15.58.02,1.11-.37,1.58-.26.32-.59.53-.99.62-.41.09-.81.1-1.22.03-.41-.07-.75-.18-1.02-.32-.42-.23-.83-.57-1.25-1.03s-.77-1.08-1.04-1.86-.42-1.8-.46-3.05c-.01-.41-.09-.78-.25-1.13-.15-.34-.37-.64-.64-.88-.27-.25-.61-.43-1.02-.55-.41-.12-.89-.17-1.44-.16l-7.27.19.52-.84.2,7.81c.02.62-.14,1.15-.46,1.58s-.79.65-1.39.67ZM872.94,289.1l8.39-.22c.43-.01.85-.22,1.24-.63.4-.41.72-.96.96-1.65s.36-1.44.34-2.26c-.03-1.05-.33-1.93-.92-2.62-.58-.69-1.2-1.03-1.84-1.01l-8.31.22.4-1.16.27,10.18-.53-.85Z"/>
      <path class="st6" d="M910.41,272.11c.56-.12,1.06-.03,1.49.28s.71.74.82,1.3l4.28,20.55c.13.61.03,1.17-.3,1.66-.33.5-.79.81-1.41.94-.31.06-.63.08-.97.04-.34-.04-.61-.14-.81-.29l-17.51-14.7.8-.75,3.5,16.78c.12.56.03,1.07-.25,1.52-.29.45-.72.74-1.31.86-.56.12-1.06.03-1.49-.28-.43-.3-.71-.74-.82-1.3l-4.28-20.55c-.13-.61-.03-1.16.3-1.66s.79-.81,1.41-.94c.33-.07.68-.07,1.06-.02.38.06.68.2.9.42l17,14.33-.51.55-3.41-16.35c-.12-.56-.04-1.07.23-1.52.27-.45.71-.74,1.29-.86Z"/>
      <path class="st6" d="M927.87,290.54c.2.59.14,1.16-.16,1.7-.3.54-.74.91-1.31,1.09-.64.21-1.22.18-1.74-.09-.52-.27-.88-.7-1.07-1.29l-6.53-19.76c-.2-.59-.15-1.16.12-1.69s.74-.91,1.37-1.12c.55-.18,1.1-.14,1.65.12.55.26.93.69,1.12,1.28l6.53,19.76Z"/>
      <path class="st6" d="M942.55,259.73c.53-.23,1.03-.24,1.52-.03.48.21.84.58,1.07,1.11l8.32,19.27c.25.57.26,1.14.04,1.69-.22.55-.62.95-1.19,1.2-.29.12-.6.2-.94.23s-.63-.01-.86-.12l-20.11-10.88.63-.9,6.79,15.73c.23.53.25,1.04.06,1.54s-.56.87-1.11,1.11c-.53.23-1.03.24-1.52.03-.48-.21-.84-.58-1.07-1.11l-8.32-19.27c-.25-.57-.26-1.14-.04-1.69.22-.55.62-.95,1.19-1.2.31-.13.65-.21,1.04-.23.38-.02.7.06.96.23l19.53,10.63-.39.64-6.62-15.34c-.23-.53-.25-1.04-.08-1.54s.54-.86,1.09-1.1Z"/>
      <path class="st6" d="M971.26,272.61c-1.56.94-3.2,1.53-4.9,1.78-1.7.24-3.38.16-5.02-.23-1.64-.4-3.16-1.09-4.55-2.07-1.39-.98-2.55-2.25-3.48-3.79-.93-1.54-1.5-3.16-1.72-4.85-.22-1.69-.12-3.35.29-4.99.42-1.64,1.13-3.15,2.14-4.54,1.01-1.39,2.3-2.56,3.86-3.5.97-.58,1.96-1.04,2.99-1.38,1.03-.34,2.05-.53,3.05-.58.41-.02.77.06,1.09.25.32.18.57.42.74.71.3.49.4,1.04.31,1.62-.09.59-.4,1.04-.91,1.35-.16.1-.35.18-.55.25-.2.06-.41.11-.62.12-.65.08-1.3.24-1.95.46-.65.22-1.29.53-1.93.91-1.34.81-2.35,1.87-3.05,3.2-.7,1.33-1.03,2.75-1,4.26.03,1.51.45,2.94,1.27,4.3.81,1.34,1.87,2.38,3.2,3.12,1.33.74,2.75,1.11,4.25,1.12s2.92-.39,4.26-1.2c.62-.37,1.26-.84,1.92-1.41.67-.57,1.17-1.1,1.52-1.59l.28,1.09-3.18-5.27.8.15-3.42,2.06c-.54.32-1.09.42-1.66.28-.57-.13-1.02-.47-1.34-1s-.41-1.08-.26-1.65c.15-.57.49-1.01,1.03-1.33l5.06-3.05c.53-.32,1.08-.41,1.65-.26s1.01.49,1.33,1.03l3.94,6.54c.25.41.35.81.32,1.19-.03.39-.12.73-.27,1.05-.6,1.15-1.36,2.23-2.27,3.24-.92,1.01-1.99,1.89-3.22,2.64Z"/>
      <path class="st6" d="M998.4,254.11c-1.35,1-2.7,1.72-4.03,2.18-1.33.46-2.8.63-4.42.5-.41-.03-.78-.13-1.11-.3s-.6-.39-.8-.66c-.33-.44-.46-.95-.39-1.53.07-.57.35-1.04.83-1.39.37-.27.78-.4,1.24-.38,1.18.06,2.24-.03,3.19-.25.95-.22,1.96-.73,3.02-1.51.71-.53,1.29-1.12,1.72-1.79s.7-1.32.79-1.97c.09-.65-.04-1.21-.4-1.7-.43-.58-.96-.94-1.61-1.09s-1.43-.1-2.35.15c-.92.25-1.99.7-3.2,1.36-1.16.61-2.25,1.05-3.28,1.32-1.03.27-1.99.35-2.88.25-.89-.1-1.72-.39-2.48-.85-.76-.47-1.45-1.12-2.06-1.95-.92-1.26-1.39-2.57-1.4-3.93,0-1.37.37-2.69,1.13-3.96s1.81-2.4,3.14-3.39c1.26-.92,2.56-1.59,3.91-2.01,1.35-.41,2.58-.58,3.68-.5.89.03,1.54.34,1.97.92.31.42.43.93.36,1.52s-.33,1.05-.78,1.38c-.29.21-.61.32-.97.32-.51-.04-1.11,0-1.81.15-.7.14-1.4.35-2.1.61-.7.26-1.3.58-1.8.95-.83.61-1.45,1.24-1.87,1.87-.41.63-.63,1.24-.65,1.82-.02.58.15,1.11.5,1.6.43.58.95.93,1.56,1.06.62.13,1.32.07,2.12-.18.8-.25,1.71-.61,2.73-1.09,1.32-.64,2.52-1.14,3.61-1.5s2.1-.52,3.01-.5c.91.03,1.77.28,2.56.75.79.47,1.56,1.2,2.28,2.19.92,1.26,1.38,2.59,1.35,4.01-.03,1.42-.43,2.79-1.2,4.1-.77,1.32-1.82,2.46-3.13,3.43Z"/>
      <path class="st6" d="M996.47,228.79c-.5.38-1.03.55-1.59.5-.57-.05-1.04-.32-1.42-.81-.38-.5-.52-1.02-.41-1.57.11-.55.41-1.02.9-1.4l12.67-9.75c.49-.38,1.03-.55,1.59-.5.57.05,1.04.32,1.42.81.38.5.52,1.02.41,1.57-.11.55-.41,1.02-.9,1.4l-12.67,9.75ZM1015.61,240.63c-.53.41-1.1.58-1.7.51s-1.09-.35-1.47-.85l-12.74-16.55,3.71-2.85,12.74,16.55c.38.49.52,1.04.43,1.65-.1.6-.42,1.12-.97,1.54Z"/>
      <path class="st6" d="M1020.75,212.03l4.85,19.27c.14.46.15.9.02,1.31s-.35.74-.68.99c-.52.39-1.01.54-1.47.44s-.86-.36-1.18-.78c-.13-.17-.24-.38-.33-.61l-5.86-22.57c-.14-.5-.13-.97.03-1.42.16-.45.43-.79.82-1.03.34-.26.74-.4,1.19-.43.45-.02.88.1,1.29.36l19.8,11.47c.28.18.51.37.67.58.39.52.54,1.06.43,1.61-.1.56-.36.99-.76,1.3-.34.26-.73.39-1.17.39s-.87-.12-1.3-.37l-17.06-9.7.7-.8ZM1023.84,227.13l-.92-4.5,7.75-5.87,3.05,2.89-9.87,7.48Z"/>
      <path class="st6" d="M1045.48,217.98c-.55.38-1.16.56-1.84.51-.67-.04-1.19-.32-1.54-.83l-11.9-17.07c-.36-.51-.48-1.06-.38-1.64.1-.58.41-1.06.92-1.41l8.5-5.93c1.02-.71,2.17-1.11,3.45-1.2s2.52.16,3.74.73c1.22.57,2.26,1.48,3.12,2.72.52.75.88,1.58,1.07,2.5.19.92.22,1.85.1,2.78-.12.93-.4,1.79-.83,2.55l-.44-.7c.76-.09,1.46-.06,2.1.09s1.23.38,1.76.7,1,.73,1.41,1.23c.42.44.78.83,1.07,1.19.29.35.57.63.84.82.27.19.58.27.93.23.61-.05,1.14.13,1.58.54.44.41.63.92.56,1.52-.04.41-.2.76-.49,1.06-.29.3-.62.54-1,.7-.38.17-.72.26-1.02.3-.47.04-1.01-.02-1.61-.17s-1.23-.48-1.89-.98c-.66-.51-1.35-1.27-2.06-2.29-.23-.33-.51-.6-.83-.81s-.66-.33-1.02-.39c-.36-.05-.75-.02-1.16.1s-.84.35-1.29.66l-5.96,4.16-.03-.99,4.47,6.41c.36.51.52,1.04.48,1.57-.04.54-.3.98-.79,1.32ZM1039.26,206.6l6.88-4.8c.35-.25.59-.65.69-1.21.11-.56.07-1.19-.1-1.91-.17-.71-.5-1.4-.96-2.07-.6-.87-1.34-1.43-2.21-1.69-.87-.26-1.57-.2-2.1.17l-6.82,4.76-.3-1.19,5.83,8.36-.91-.42Z"/>
      <path class="st6" d="M1070.54,201.83c-1.44.86-2.85,1.46-4.21,1.79-1.37.33-2.85.36-4.44.08-.4-.07-.76-.2-1.08-.4-.32-.2-.56-.45-.73-.73-.28-.47-.36-.99-.24-1.56.12-.56.44-1,.96-1.31.39-.23.81-.32,1.27-.26,1.17.17,2.23.19,3.2.05.97-.13,2.02-.54,3.15-1.22.76-.46,1.39-1,1.89-1.61s.82-1.25.97-1.88c.15-.64.07-1.21-.24-1.73-.37-.62-.87-1.03-1.5-1.24-.63-.21-1.42-.24-2.35-.08-.94.16-2.05.51-3.32,1.05-1.21.5-2.34.84-3.39,1-1.05.17-2.01.16-2.89-.03-.88-.19-1.68-.55-2.39-1.08-.71-.54-1.34-1.25-1.87-2.13-.8-1.34-1.14-2.69-1.02-4.05.12-1.36.62-2.64,1.5-3.84.88-1.2,2.03-2.22,3.45-3.07,1.34-.8,2.7-1.35,4.08-1.63,1.38-.28,2.62-.33,3.71-.15.88.12,1.51.48,1.88,1.1.27.45.34.97.22,1.55-.13.58-.43,1.01-.9,1.3-.31.19-.64.26-1,.22-.5-.09-1.11-.1-1.82-.02-.71.08-1.43.21-2.15.41-.72.2-1.35.45-1.89.78-.88.53-1.56,1.09-2.03,1.68-.47.59-.74,1.17-.82,1.75-.07.58.04,1.12.35,1.64.37.62.86,1.02,1.46,1.2s1.31.19,2.13.02c.82-.17,1.76-.45,2.82-.83,1.37-.51,2.62-.9,3.74-1.15,1.12-.25,2.14-.32,3.04-.21.91.11,1.74.44,2.48.99.75.55,1.44,1.34,2.06,2.39.8,1.34,1.12,2.71.96,4.12-.16,1.41-.69,2.74-1.58,3.97s-2.04,2.28-3.44,3.11Z"/>
      <path class="st6" d="M1090.86,163.06c2.13-.88,3.92-1.04,5.38-.47,1.45.57,2.59,1.83,3.39,3.78.43,1.04.55,2.06.37,3.06s-.69,1.92-1.51,2.76-1.96,1.57-3.42,2.18l-.49-1.55c.69-.28,1.51-.51,2.48-.69.96-.18,1.96-.2,2.99-.07,1.03.13,1.99.51,2.89,1.14.9.63,1.62,1.61,2.17,2.94.61,1.46.86,2.76.77,3.89s-.42,2.11-.99,2.94-1.25,1.52-2.06,2.08c-.81.56-1.62,1-2.44,1.34l-8.28,3.42c-.58.24-1.14.24-1.69.02-.55-.23-.94-.63-1.18-1.21l-7.95-19.23c-.24-.58-.24-1.14-.02-1.69.23-.55.63-.94,1.21-1.18l8.38-3.47ZM1091.89,167.23l-5.92,2.45.21-.71,2.49,6.02-.52-.13,5.99-2.48c.64-.27,1.13-.71,1.47-1.35.34-.63.34-1.35,0-2.15-.39-.95-.92-1.55-1.58-1.78s-1.37-.19-2.15.13ZM1095.92,176.24l-6.05,2.5.19-.39,2.9,7.02-.47-.2,6.32-2.61c1.02-.42,1.72-1.03,2.09-1.82s.34-1.73-.11-2.82c-.41-1-.91-1.64-1.49-1.92s-1.17-.36-1.77-.24-1.13.27-1.6.47Z"/>
      <path class="st6" d="M1122.5,153.4c.61-.15,1.15-.06,1.62.25.47.32.78.78.93,1.38l3.11,12.66c.48,1.94.48,3.75.02,5.44-.46,1.7-1.31,3.14-2.55,4.33-1.24,1.19-2.81,2.03-4.73,2.5s-3.7.46-5.36-.02c-1.66-.48-3.09-1.37-4.28-2.65-1.19-1.29-2.03-2.9-2.5-4.83l-3.11-12.66c-.15-.61-.06-1.16.25-1.68.32-.51.81-.85,1.46-1.01.54-.13,1.07-.05,1.6.26.53.3.87.76,1.02,1.36l3.11,12.66c.29,1.17.78,2.11,1.49,2.84s1.54,1.22,2.48,1.49c.94.26,1.88.28,2.81.05,1-.25,1.88-.71,2.62-1.39.75-.68,1.28-1.51,1.61-2.49.33-.98.35-2.06.06-3.22l-3.11-12.66c-.15-.61-.1-1.16.15-1.65.25-.49.68-.82,1.28-.96Z"/>
      <path class="st6" d="M1139.38,174.46c.06.62-.11,1.16-.52,1.63s-.91.73-1.51.79c-.67.07-1.23-.08-1.68-.46-.45-.38-.71-.87-.77-1.49l-2.15-20.7c-.06-.62.1-1.16.48-1.62.39-.46.91-.73,1.58-.8.57-.06,1.1.1,1.59.47.49.37.76.87.82,1.49l2.15,20.7Z"/>
      <path class="st6" d="M1158.15,172.36c.62.02,1.14.24,1.55.64.41.41.6.93.58,1.55-.02.6-.25,1.09-.68,1.47s-.96.56-1.58.54l-11.69-.38c-.62-.02-1.14-.25-1.54-.68-.41-.43-.6-.96-.58-1.58l.68-20.8c.02-.62.25-1.14.7-1.54.45-.41,1-.6,1.68-.58.58.02,1.08.25,1.51.68.43.43.63.96.61,1.59l-.63,19.39-.77-.64,10.18.33Z"/>
      <path class="st6" d="M1179.97,155.3c1.67.45,3.07,1.16,4.2,2.13,1.13.97,1.99,2.14,2.58,3.5.59,1.36.92,2.84.98,4.43.06,1.59-.14,3.22-.58,4.89-.6,2.25-1.55,4.19-2.86,5.81s-2.87,2.78-4.71,3.46-3.87.72-6.12.11l-8.31-2.22c-.6-.16-1.05-.5-1.35-1.01-.3-.51-.37-1.07-.2-1.67l5.37-20.1c.16-.6.5-1.05,1.01-1.35.51-.3,1.07-.37,1.68-.2l8.31,2.22ZM1174.18,175.56c1.46.39,2.75.33,3.88-.17s2.07-1.32,2.83-2.45,1.34-2.42,1.73-3.88c.29-1.09.45-2.16.47-3.21.02-1.05-.12-2.02-.43-2.91-.31-.89-.8-1.66-1.47-2.31-.67-.65-1.55-1.12-2.64-1.41l-6.09-1.63.43-.22-4.56,17.04-.11-.44,5.95,1.59Z"/>
      <path class="st6" d="M1193.3,188c-1.48-.79-2.72-1.69-3.7-2.69s-1.77-2.26-2.35-3.77c-.15-.38-.22-.76-.21-1.13,0-.38.09-.71.25-1.01.26-.49.66-.82,1.21-1.01s1.08-.13,1.61.15c.4.21.69.54.88.96.45,1.09.99,2.01,1.6,2.77.61.76,1.5,1.46,2.67,2.08.78.42,1.57.68,2.35.79.79.11,1.49.06,2.11-.13.62-.2,1.08-.56,1.36-1.09.34-.63.44-1.28.29-1.92-.14-.65-.53-1.33-1.14-2.06-.62-.72-1.49-1.5-2.6-2.31-1.05-.78-1.92-1.58-2.6-2.39-.68-.81-1.17-1.65-1.46-2.5-.29-.85-.39-1.72-.3-2.61s.38-1.79.87-2.7c.74-1.38,1.72-2.36,2.95-2.96,1.23-.59,2.58-.82,4.06-.69,1.48.14,2.95.6,4.41,1.38,1.38.74,2.54,1.62,3.5,2.67.95,1.04,1.63,2.08,2.03,3.11.35.81.36,1.54.02,2.17-.25.47-.66.79-1.22.98-.56.19-1.09.15-1.58-.11-.32-.17-.55-.42-.7-.74-.18-.48-.49-1-.92-1.57-.43-.57-.91-1.11-1.45-1.63s-1.08-.93-1.63-1.22c-.91-.49-1.74-.78-2.49-.88-.75-.1-1.39-.04-1.92.2-.53.23-.94.61-1.22,1.14-.34.63-.43,1.26-.28,1.87.15.61.51,1.22,1.08,1.84.57.62,1.29,1.28,2.16,1.99,1.14.91,2.11,1.78,2.91,2.62.79.83,1.38,1.67,1.74,2.5.37.84.51,1.72.43,2.64-.08.92-.41,1.92-.99,3-.74,1.38-1.75,2.36-3.04,2.95-1.29.59-2.7.81-4.22.68-1.52-.13-3-.58-4.44-1.35Z"/>
      <path class="st6" d="M1224.94,205.96c.46.42.72.92.76,1.49.04.58-.14,1.09-.56,1.56-.4.44-.89.67-1.47.68s-1.1-.19-1.56-.61l-8.67-7.86c-.46-.42-.71-.92-.74-1.52-.03-.59.17-1.12.58-1.58l13.97-15.42c.42-.46.93-.7,1.53-.73.6-.02,1.15.19,1.65.65.43.39.66.88.71,1.49.05.61-.14,1.14-.56,1.61l-13.03,14.38-.18-.99,7.55,6.84Z"/>
      <path class="st6" d="M1230.71,215.11c-.46.42-1,.61-1.62.56-.62-.05-1.13-.3-1.54-.74-.46-.5-.67-1.04-.63-1.62.03-.58.28-1.09.74-1.51l15.32-14.08c.46-.42.99-.62,1.59-.58.6.03,1.13.3,1.58.79.39.42.58.94.57,1.55,0,.61-.24,1.13-.7,1.55l-15.32,14.08Z"/>
      <path class="st6" d="M1237.7,226.92c-.41-.53-.59-1.09-.52-1.69.06-.6.34-1.09.83-1.48l16.45-12.86,2.88,3.69-16.45,12.86c-.49.38-1.04.53-1.64.44-.61-.09-1.12-.41-1.55-.96ZM1249.4,207.68c-.38-.49-.56-1.02-.51-1.59.04-.57.31-1.04.8-1.43.49-.38,1.01-.53,1.57-.42.55.1,1.02.4,1.4.89l9.84,12.59c.38.49.55,1.02.51,1.59-.04.57-.31,1.04-.8,1.43-.49.38-1.01.53-1.56.42-.55-.1-1.02-.4-1.4-.89l-9.84-12.59Z"/>
      <path class="st6" d="M1268.06,225.73l6.63,10.08c.34.52.46,1.07.36,1.63-.1.57-.41,1.02-.93,1.37-.5.33-1.02.42-1.56.27-.54-.15-.98-.48-1.33-1l-5.54-8.42.69-.07-5.87,3.86.08-.4,4.63,7.04c.34.52.46,1.07.36,1.63-.1.57-.41,1.02-.93,1.37-.5.33-1.02.42-1.56.27-.54-.15-.98-.48-1.33-1l-4.57-6.95h.34s-6.08,3.99-6.08,3.99l.11-.42,5.52,8.39c.34.52.45,1.07.33,1.65-.12.58-.41,1.02-.87,1.33-.5.33-1.03.42-1.58.28-.55-.14-1-.47-1.34-.99l-6.63-10.08c-.34-.52-.45-1.07-.33-1.65.12-.58.44-1.04.96-1.39l17.39-11.43c.52-.34,1.07-.45,1.65-.33.58.12,1.04.44,1.39.96Z"/>
      <path class="st6" d="M1258.08,256.95c-.33-.58-.45-1.21-.35-1.88.1-.67.42-1.16.97-1.46l18.06-10.33c.54-.31,1.1-.39,1.67-.23.57.16,1.01.5,1.32,1.05l5.15,9c.62,1.08.91,2.26.88,3.54-.03,1.28-.39,2.49-1.06,3.65s-1.67,2.12-2.98,2.87c-.79.45-1.65.73-2.59.84-.94.11-1.86.05-2.78-.15-.92-.21-1.74-.56-2.47-1.06l.74-.38c.02.76-.07,1.46-.28,2.09-.21.63-.49,1.19-.86,1.69-.37.5-.82.93-1.36,1.29-.47.38-.9.7-1.28.96-.38.26-.68.51-.89.76-.22.25-.32.55-.31.9,0,.61-.24,1.12-.68,1.53-.45.41-.97.55-1.57.42-.4-.08-.74-.27-1.02-.58-.28-.31-.48-.67-.61-1.06-.13-.4-.2-.74-.2-1.04,0-.47.11-1,.31-1.59.2-.59.59-1.19,1.15-1.8s1.39-1.23,2.47-1.85c.35-.2.65-.45.88-.75.23-.3.39-.62.48-.98.09-.35.09-.74,0-1.16s-.27-.87-.54-1.35l-3.61-6.31.99.06-6.78,3.88c-.54.31-1.08.42-1.61.34-.53-.08-.95-.39-1.24-.91ZM1269.96,251.77l4.16,7.28c.21.38.59.64,1.14.8.55.16,1.18.18,1.91.07.72-.11,1.44-.37,2.15-.77.92-.52,1.54-1.21,1.88-2.05.33-.84.34-1.54.02-2.11l-4.13-7.22,1.21-.2-8.84,5.06.5-.87Z"/>
      <path class="st6" d="M1290.69,274.3l-19.65,2.97c-.48.1-.91.06-1.31-.1-.4-.17-.7-.42-.92-.77-.34-.55-.44-1.05-.29-1.51.14-.45.44-.82.89-1.1.18-.11.4-.2.64-.27l23.03-3.66c.51-.09.98-.03,1.41.17s.75.5.95.92c.23.37.33.78.31,1.22s-.18.87-.48,1.25l-13.32,18.61c-.2.27-.42.47-.64.61-.55.34-1.1.43-1.65.28-.55-.16-.95-.45-1.22-.88-.23-.37-.32-.77-.28-1.2s.21-.85.49-1.26l11.3-16.05.73.78ZM1275.37,275.92l4.56-.49,5.1,8.28-3.17,2.75-6.5-10.54Z"/>
      <path class="st6" d="M1311.83,297.03c.12.69-.06,1.27-.53,1.76-.48.49-1.07.71-1.79.67-.53,0-.96-.17-1.3-.54s-.55-.82-.66-1.37c-.13-.62-.33-1.23-.59-1.83-.26-.6-.6-1.17-1.02-1.73-.77-1.04-1.63-1.85-2.56-2.42s-1.92-.93-2.96-1.06-2.08-.03-3.13.28c-1.05.32-2.08.85-3.08,1.59-1.18.87-2.07,1.8-2.69,2.78-.62.98-.99,1.98-1.13,3.01s-.04,2.05.28,3.07.83,2,1.53,2.94c.39.52.82,1.01,1.3,1.45.48.45,1.03.82,1.64,1.12.49.26.86.61,1.09,1.05.24.44.28.92.13,1.45-.2.74-.59,1.25-1.18,1.52-.59.27-1.18.25-1.77-.06-.62-.32-1.21-.68-1.77-1.09-.56-.41-1.08-.85-1.57-1.33-.49-.48-.94-.99-1.35-1.55-1.03-1.39-1.78-2.87-2.26-4.44-.48-1.57-.65-3.17-.5-4.78.14-1.62.66-3.19,1.55-4.71.89-1.52,2.19-2.92,3.9-4.2,1.48-1.1,3.04-1.86,4.67-2.28,1.63-.42,3.25-.5,4.86-.24,1.61.26,3.14.83,4.6,1.72,1.45.89,2.74,2.09,3.85,3.59.63.85,1.15,1.75,1.56,2.7.41.95.69,1.92.86,2.91Z"/>
      <path class="st6" d="M1326.45,310.57c.38.4.58.9.59,1.51,0,.61-.22,1.14-.68,1.59-.16.15-.34.28-.54.4-.21.12-.44.2-.69.25l-14.08,2.31,2.23-1.27-7.4,7.21c-.45.44-.97.65-1.56.64-.59,0-1.08-.21-1.47-.61-.42-.43-.62-.94-.62-1.54,0-.59.24-1.11.68-1.54l7.2-7.01-.62,1.01,1.98-12.78c.06-.39.15-.72.29-.99s.29-.49.47-.66c.46-.45,1.02-.64,1.66-.56.64.08,1.15.3,1.52.68.47.48.64,1.14.51,1.97l-2.01,11.61-.6-.82,11.13-1.94c.87-.14,1.54.04,2.03.54Z"/>
      <path class="st6" d="M1315.46,333.93c-.55-.43-.86-.9-.92-1.42-.07-.52.12-1.06.54-1.61l.38-.48c.43-.55.9-.86,1.42-.92.52-.07,1.06.12,1.61.54l.37.29c.55.43.86.9.92,1.42.06.52-.12,1.06-.54,1.61l-.38.48c-.43.55-.9.86-1.42.92s-1.06-.12-1.61-.54l-.37-.29Z"/>
    </g>
  </g>
</svg>