<?xml version="1.0" encoding="UTF-8"?>
<svg id="Layer_1" xmlns="http://www.w3.org/2000/svg" version="1.1" viewBox="0 0 1315.73 798.24">
  <!-- Generator: Adobe Illustrator 29.7.1, SVG Export Plug-In . SVG Version: 2.1.1 Build 8)  -->
  <defs>
    <style>
      .st0 {
        stroke: #636466;
        stroke-width: .7px;
      }

      .st0, .st1 {
        fill: none;
        stroke-miterlimit: 10;
      }

      .st2 {
        fill: #523cac;
      }

      .st3 {
        fill: #adc716;
      }

      .st4 {
        fill: #6855b7;
      }

      .st5 {
        fill: #33c5b5;
      }

      .st6 {
        fill: #fff;
      }

      .st7 {
        fill: #e44c17;
      }

      .st8 {
        fill: #002f55;
      }

      .st1 {
        stroke: #f7008d;
        stroke-linecap: round;
        stroke-width: 1.21px;
      }

      .st9 {
        fill: #f7008d;
      }

      .st10 {
        fill: #f8209b;
      }

      .st11 {
        fill: #ecaa19;
      }

      .st12 {
        fill: #f9a700;
      }

      /* Simple animations */
      @keyframes float {
        0% { transform: translateY(0px); }
        50% { transform: translateY(-15px); }
        100% { transform: translateY(0px); }
      }

      @keyframes fadeIn {
        from { opacity: 0; }
        to { opacity: 1; }
      }

      @keyframes drawLine {
        from { stroke-dashoffset: 1300; }
        to { stroke-dashoffset: 0; }
      }

      .st0 {
        stroke-dasharray: 1300;
        stroke-dashoffset: 1300;
        animation: drawLine 2.5s ease-out forwards;
      }

      /* Target logical groups (shapes + their text) */
      #Layer_1 > g:not(:first-of-type) {
        animation: fadeIn 1s ease-out, float 5s ease-in-out infinite;
        transform-box: fill-box;
        transform-origin: center;
      }

      /* Staggering the floating effect for each group */
      #Layer_1 > g:nth-of-type(2) { animation-delay: 0.1s; }
      #Layer_1 > g:nth-of-type(3) { animation-delay: 0.6s; }
      #Layer_1 > g:nth-of-type(4) { animation-delay: 1.2s; }
      #Layer_1 > g:nth-of-type(5) { animation-delay: 1.8s; }
      #Layer_1 > g:nth-of-type(6) { animation-delay: 2.4s; }

      /* Arrow specific animation */
      @keyframes arrowMove {
        0% { transform: scale(1) translate(0, 0); opacity: 0.8; }
        50% { transform: scale(1.05) translate(5px, -5px); opacity: 1; }
        100% { transform: scale(1) translate(0, 0); opacity: 0.8; }
      }

      .arrow-path {
        animation: fadeIn 2s ease-out, arrowMove 4s ease-in-out infinite !important;
        transform-box: fill-box;
        transform-origin: center;
      }
    </style>
  </defs>
  <g>
    <line class="st0" x1="58.04" y1="54.73" x2="1256.33" y2="54.73"/>
    <line class="st0" x1="58.04" y1="103.93" x2="1256.33" y2="103.93"/>
    <line class="st0" x1="58.04" y1="153.13" x2="1256.33" y2="153.13"/>
    <line class="st0" x1="58.04" y1="202.33" x2="1256.33" y2="202.33"/>
    <line class="st0" x1="58.04" y1="251.53" x2="1256.33" y2="251.53"/>
    <line class="st0" x1="58.04" y1="300.72" x2="1256.33" y2="300.72"/>
    <line class="st0" x1="58.04" y1="349.92" x2="1256.33" y2="349.92"/>
    <line class="st0" x1="58.04" y1="399.12" x2="1256.33" y2="399.12"/>
    <line class="st0" x1="58.04" y1="448.32" x2="1256.33" y2="448.32"/>
    <line class="st0" x1="58.04" y1="497.51" x2="1256.33" y2="497.51"/>
    <line class="st0" x1="58.04" y1="546.71" x2="1256.33" y2="546.71"/>
    <line class="st0" x1="58.04" y1="595.91" x2="1256.33" y2="595.91"/>
    <line class="st0" x1="58.04" y1="645.11" x2="1256.33" y2="645.11"/>
    <line class="st0" x1="58.04" y1="694.3" x2="1256.33" y2="694.3"/>
    <line class="st0" x1="58.04" y1="743.5" x2="1256.33" y2="743.5"/>
  </g>
  <g>
    <g>
      <path class="st8" d="M292.39,363.45c2.3,0,4.02.54,5.15,1.62s1.69,2.68,1.69,4.79c0,1.13-.28,2.12-.83,2.97-.55.85-1.37,1.51-2.45,1.98s-2.41.7-4,.7l.14-1.62c.74,0,1.6.1,2.56.31.96.2,1.89.56,2.79,1.08.9.52,1.64,1.24,2.23,2.16s.88,2.11.88,3.55c0,1.58-.26,2.88-.77,3.89-.52,1.01-1.19,1.79-2.03,2.34-.84.55-1.74.93-2.7,1.13s-1.88.31-2.77.31h-8.96c-.62,0-1.15-.21-1.57-.63s-.63-.94-.63-1.57v-20.81c0-.62.21-1.15.63-1.57.42-.42.94-.63,1.57-.63h9.07ZM291.74,367.7h-6.41l.47-.58v6.52l-.43-.32h6.48c.7,0,1.32-.23,1.87-.68.55-.46.83-1.12.83-1.98,0-1.03-.26-1.78-.77-2.25-.52-.47-1.19-.7-2.03-.7ZM292.03,377.56h-6.55l.32-.29v7.6l-.36-.36h6.84c1.1,0,1.98-.29,2.63-.88.65-.59.97-1.47.97-2.65,0-1.08-.22-1.86-.65-2.34-.43-.48-.95-.78-1.55-.9-.6-.12-1.15-.18-1.66-.18Z"/>
      <path class="st8" d="M309.2,386.45c0,.62-.23,1.15-.68,1.57-.46.42-.98.63-1.58.63-.67,0-1.21-.21-1.62-.63-.41-.42-.61-.94-.61-1.57v-20.81c0-.62.22-1.15.65-1.57.43-.42.98-.63,1.66-.63.58,0,1.09.21,1.53.63.44.42.67.94.67,1.57v20.81Z"/>
      <path class="st8" d="M326.48,389.01c-1.82,0-3.53-.34-5.11-1.01-1.58-.67-2.98-1.6-4.18-2.79-1.2-1.19-2.14-2.56-2.83-4.12-.68-1.56-1.03-3.24-1.03-5.04s.34-3.48,1.03-5.04c.68-1.56,1.63-2.93,2.83-4.12,1.2-1.19,2.59-2.12,4.18-2.79s3.29-1.01,5.11-1.01c1.13,0,2.22.12,3.28.36,1.06.24,2.03.6,2.92,1.08.36.19.63.45.81.77.18.32.27.65.27.99,0,.58-.19,1.09-.58,1.55s-.88.68-1.48.68c-.19,0-.39-.02-.59-.07-.2-.05-.4-.12-.59-.22-.6-.26-1.24-.47-1.91-.61-.67-.14-1.38-.22-2.12-.22-1.56,0-2.98.39-4.27,1.17-1.28.78-2.3,1.82-3.06,3.13-.76,1.31-1.13,2.75-1.13,4.34s.38,3,1.13,4.32c.76,1.32,1.78,2.37,3.06,3.15,1.28.78,2.71,1.17,4.27,1.17.72,0,1.51-.07,2.38-.22.86-.14,1.57-.34,2.12-.58l-.32,1.08v-6.16l.61.54h-4c-.62,0-1.15-.2-1.57-.61-.42-.41-.63-.92-.63-1.55s.21-1.14.63-1.55.94-.61,1.57-.61h5.9c.62,0,1.14.21,1.55.63.41.42.61.94.61,1.57v7.63c0,.48-.11.88-.34,1.19-.23.31-.49.56-.77.76-1.1.67-2.31,1.21-3.62,1.6-1.31.4-2.68.59-4.12.59Z"/>
      <path class="st8" d="M354.24,386.45c0,.62-.23,1.15-.68,1.57s-.98.63-1.58.63c-.67,0-1.21-.21-1.62-.63s-.61-.94-.61-1.57v-20.81c0-.62.22-1.15.65-1.57.43-.42.98-.63,1.66-.63.58,0,1.09.21,1.53.63.44.42.67.94.67,1.57v20.81Z"/>
      <path class="st8" d="M370.44,363.45c1.73,0,3.26.32,4.61.97,1.34.65,2.48,1.55,3.4,2.72s1.62,2.51,2.09,4.03c.47,1.52.7,3.15.7,4.88,0,2.33-.42,4.45-1.26,6.35s-2.06,3.43-3.65,4.55c-1.6,1.13-3.56,1.69-5.89,1.69h-8.6c-.62,0-1.15-.21-1.57-.63s-.63-.94-.63-1.57v-20.81c0-.62.21-1.15.63-1.57.42-.42.94-.63,1.57-.63h8.6ZM370.08,384.51c1.51,0,2.75-.39,3.71-1.17.96-.78,1.66-1.81,2.11-3.1.44-1.28.67-2.68.67-4.19,0-1.13-.13-2.2-.38-3.22-.25-1.02-.64-1.92-1.17-2.7-.53-.78-1.2-1.4-2.02-1.85-.82-.46-1.79-.68-2.92-.68h-6.3l.36-.32v17.64l-.22-.4h6.16Z"/>
      <path class="st8" d="M387.57,363.45h12.06c.62,0,1.15.2,1.57.59.42.4.63.91.63,1.53s-.21,1.09-.63,1.46-.94.56-1.57.56h-10.08l.32-.61v7.02l-.29-.29h8.42c.62,0,1.15.2,1.57.59.42.4.63.91.63,1.53s-.21,1.09-.63,1.46c-.42.37-.94.56-1.57.56h-8.32l.18-.29v7.27l-.29-.32h10.04c.62,0,1.15.21,1.57.63s.63.91.63,1.46c0,.6-.21,1.09-.63,1.48-.42.38-.94.58-1.57.58h-12.06c-.62,0-1.15-.21-1.57-.63-.42-.42-.63-.94-.63-1.57v-20.81c0-.62.21-1.15.63-1.57s.94-.63,1.57-.63Z"/>
      <path class="st8" d="M415.22,369.1l-7.78,18.29c-.17.46-.43.81-.77,1.06s-.73.38-1.13.38c-.65,0-1.13-.18-1.44-.54-.31-.36-.47-.8-.47-1.33,0-.22.04-.44.11-.68l8.96-21.53c.19-.48.49-.85.88-1.12.4-.26.82-.37,1.28-.32.43,0,.83.13,1.21.38s.64.61.81,1.06l8.86,21.1c.12.31.18.6.18.86,0,.65-.21,1.17-.63,1.55-.42.38-.88.58-1.39.58-.43,0-.82-.13-1.17-.4-.35-.26-.62-.62-.81-1.08l-7.74-18.04,1.04-.22ZM408.56,383l1.98-4.14h9.72l.68,4.14h-12.38Z"/>
      <path class="st8" d="M437.07,389.01c-1.68,0-3.19-.21-4.54-.63-1.34-.42-2.63-1.16-3.85-2.21-.31-.26-.55-.56-.72-.9s-.25-.67-.25-1.01c0-.55.2-1.04.59-1.46.4-.42.89-.63,1.49-.63.46,0,.86.14,1.22.43.91.74,1.82,1.31,2.72,1.69.9.38,2.01.58,3.33.58.89,0,1.7-.14,2.45-.41.74-.28,1.34-.65,1.8-1.12.46-.47.68-1,.68-1.6,0-.72-.22-1.33-.65-1.84-.43-.5-1.09-.93-1.98-1.28-.89-.35-2.02-.62-3.38-.81-1.3-.19-2.44-.49-3.42-.88-.98-.4-1.81-.9-2.47-1.51-.66-.61-1.16-1.33-1.49-2.16s-.5-1.76-.5-2.79c0-1.56.4-2.89,1.21-4s1.89-1.94,3.26-2.52c1.37-.58,2.88-.86,4.54-.86,1.56,0,3.01.23,4.34.7,1.33.47,2.42,1.06,3.26,1.78.7.55,1.04,1.19,1.04,1.91,0,.53-.2,1.01-.61,1.44-.41.43-.89.65-1.44.65-.36,0-.68-.11-.97-.32-.38-.34-.9-.65-1.55-.95-.65-.3-1.33-.55-2.05-.76-.72-.2-1.39-.31-2.02-.31-1.03,0-1.9.13-2.61.4-.71.26-1.24.62-1.6,1.08-.36.46-.54.98-.54,1.58,0,.72.21,1.31.63,1.78s1.03.84,1.82,1.12c.79.28,1.74.52,2.84.74,1.44.26,2.71.58,3.8.94s2,.82,2.72,1.39c.72.56,1.26,1.27,1.62,2.12.36.85.54,1.89.54,3.11,0,1.56-.43,2.9-1.3,4.03-.86,1.13-2,1.99-3.4,2.59-1.4.6-2.92.9-4.55.9Z"/>
      <path class="st8" d="M469.8,369.1l-7.78,18.29c-.17.46-.43.81-.77,1.06s-.73.38-1.13.38c-.65,0-1.13-.18-1.44-.54-.31-.36-.47-.8-.47-1.33,0-.22.04-.44.11-.68l8.96-21.53c.19-.48.49-.85.88-1.12.4-.26.82-.37,1.28-.32.43,0,.83.13,1.21.38s.64.61.81,1.06l8.86,21.1c.12.31.18.6.18.86,0,.65-.21,1.17-.63,1.55-.42.38-.88.58-1.39.58-.43,0-.82-.13-1.17-.4-.35-.26-.62-.62-.81-1.08l-7.74-18.04,1.04-.22ZM463.13,383l1.98-4.14h9.72l.68,4.14h-12.38Z"/>
      <path class="st8" d="M486.14,388.65c-.67,0-1.27-.21-1.8-.63-.53-.42-.79-.94-.79-1.57v-20.81c0-.62.21-1.15.63-1.57.42-.42.94-.63,1.57-.63h10.37c1.25,0,2.42.33,3.51.99,1.09.66,1.97,1.57,2.65,2.74s1.01,2.5,1.01,4.01c0,.91-.19,1.8-.56,2.66s-.88,1.64-1.51,2.34c-.64.7-1.35,1.24-2.14,1.62l.04-.83c.67.36,1.23.79,1.67,1.28s.79,1.02,1.04,1.58c.25.56.4,1.17.45,1.82.1.6.16,1.13.2,1.58.04.46.11.84.22,1.15.11.31.32.55.63.72.53.31.86.76.99,1.35s0,1.11-.41,1.57c-.26.31-.6.51-1.01.59-.41.08-.82.08-1.22,0-.41-.08-.74-.2-1.01-.34-.41-.24-.82-.59-1.22-1.06s-.74-1.1-.99-1.89-.38-1.81-.38-3.06c0-.41-.07-.79-.22-1.13-.14-.35-.35-.65-.61-.9-.26-.25-.6-.44-1.01-.58-.41-.13-.89-.2-1.44-.2h-7.27l.54-.83v7.81c0,.62-.17,1.15-.5,1.57s-.8.63-1.4.63ZM487.54,375.76h8.39c.43,0,.85-.2,1.26-.59.41-.4.74-.94,1.01-1.62.26-.68.4-1.43.4-2.25,0-1.06-.28-1.94-.85-2.65-.56-.71-1.17-1.06-1.82-1.06h-8.32l.43-1.15v10.19l-.5-.86Z"/>
      <path class="st8" d="M510.47,363.45h12.06c.62,0,1.15.2,1.57.59.42.4.63.91.63,1.53s-.21,1.09-.63,1.46-.94.56-1.57.56h-10.08l.32-.61v7.02l-.29-.29h8.42c.62,0,1.15.2,1.57.59.42.4.63.91.63,1.53s-.21,1.09-.63,1.46c-.42.37-.94.56-1.57.56h-8.32l.18-.29v7.27l-.29-.32h10.04c.62,0,1.15.21,1.57.63s.63.91.63,1.46c0,.6-.21,1.09-.63,1.48-.42.38-.94.58-1.57.58h-12.06c-.62,0-1.15-.21-1.57-.63-.42-.42-.63-.94-.63-1.57v-20.81c0-.62.21-1.15.63-1.57s.94-.63,1.57-.63Z"/>
      <path class="st8" d="M550.22,363.45c2.3,0,4.02.54,5.15,1.62,1.13,1.08,1.69,2.68,1.69,4.79,0,1.13-.28,2.12-.83,2.97-.55.85-1.37,1.51-2.45,1.98-1.08.47-2.41.7-4,.7l.14-1.62c.74,0,1.6.1,2.56.31.96.2,1.89.56,2.79,1.08.9.52,1.64,1.24,2.23,2.16.59.92.88,2.11.88,3.55,0,1.58-.26,2.88-.77,3.89-.52,1.01-1.19,1.79-2.03,2.34-.84.55-1.74.93-2.7,1.13s-1.88.31-2.77.31h-8.96c-.62,0-1.15-.21-1.57-.63-.42-.42-.63-.94-.63-1.57v-20.81c0-.62.21-1.15.63-1.57s.94-.63,1.57-.63h9.07ZM549.57,367.7h-6.41l.47-.58v6.52l-.43-.32h6.48c.7,0,1.32-.23,1.87-.68.55-.46.83-1.12.83-1.98,0-1.03-.26-1.78-.77-2.25-.52-.47-1.19-.7-2.03-.7ZM549.86,377.56h-6.55l.32-.29v7.6l-.36-.36h6.84c1.1,0,1.98-.29,2.63-.88.65-.59.97-1.47.97-2.65,0-1.08-.22-1.86-.65-2.34-.43-.48-.95-.78-1.55-.9-.6-.12-1.15-.18-1.66-.18Z"/>
      <path class="st8" d="M565.12,388.65c-.67,0-1.27-.21-1.8-.63-.53-.42-.79-.94-.79-1.57v-20.81c0-.62.21-1.15.63-1.57.42-.42.94-.63,1.57-.63h10.37c1.25,0,2.42.33,3.51.99,1.09.66,1.97,1.57,2.65,2.74s1.01,2.5,1.01,4.01c0,.91-.19,1.8-.56,2.66s-.88,1.64-1.51,2.34c-.64.7-1.35,1.24-2.14,1.62l.04-.83c.67.36,1.23.79,1.67,1.28s.79,1.02,1.04,1.58.4,1.17.45,1.82c.1.6.16,1.13.2,1.58.04.46.11.84.22,1.15.11.31.32.55.63.72.53.31.86.76.99,1.35s0,1.11-.41,1.57c-.26.31-.6.51-1.01.59-.41.08-.82.08-1.22,0-.41-.08-.74-.2-1.01-.34-.41-.24-.82-.59-1.22-1.06-.41-.47-.74-1.1-.99-1.89s-.38-1.81-.38-3.06c0-.41-.07-.79-.22-1.13-.14-.35-.35-.65-.61-.9-.26-.25-.6-.44-1.01-.58-.41-.13-.89-.2-1.44-.2h-7.27l.54-.83v7.81c0,.62-.17,1.15-.5,1.57-.34.42-.8.63-1.4.63ZM566.53,375.76h8.39c.43,0,.85-.2,1.26-.59.41-.4.74-.94,1.01-1.62.26-.68.4-1.43.4-2.25,0-1.06-.28-1.94-.85-2.65-.56-.71-1.17-1.06-1.82-1.06h-8.32l.43-1.15v10.19l-.5-.86Z"/>
      <path class="st8" d="M610.09,376.05c0,1.8-.3,3.48-.9,5.04-.6,1.56-1.45,2.93-2.54,4.12-1.09,1.19-2.39,2.12-3.89,2.79-1.5.67-3.14,1.01-4.91,1.01s-3.41-.34-4.9-1.01c-1.49-.67-2.78-1.6-3.87-2.79-1.09-1.19-1.94-2.56-2.54-4.12-.6-1.56-.9-3.24-.9-5.04s.3-3.48.9-5.04c.6-1.56,1.45-2.93,2.54-4.12,1.09-1.19,2.38-2.12,3.87-2.79,1.49-.67,3.12-1.01,4.9-1.01s3.41.34,4.91,1.01,2.8,1.6,3.89,2.79c1.09,1.19,1.94,2.56,2.54,4.12.6,1.56.9,3.24.9,5.04ZM605.41,376.05c0-1.61-.32-3.07-.97-4.37-.65-1.31-1.54-2.35-2.66-3.11-1.13-.77-2.44-1.15-3.92-1.15s-2.8.38-3.92,1.15c-1.13.77-2.01,1.8-2.65,3.1-.64,1.3-.95,2.76-.95,4.39s.32,3.07.95,4.37c.64,1.31,1.52,2.35,2.65,3.11,1.13.77,2.44,1.15,3.92,1.15s2.8-.38,3.92-1.15c1.13-.77,2.02-1.81,2.66-3.11.65-1.31.97-2.77.97-4.37Z"/>
      <path class="st8" d="M632.12,363.41c.62,0,1.13.21,1.51.63.38.42.58.94.58,1.57v13.03c0,1.99-.43,3.76-1.28,5.29-.85,1.54-2.02,2.74-3.51,3.6s-3.22,1.3-5.18,1.3-3.7-.43-5.2-1.3-2.68-2.06-3.53-3.6c-.85-1.54-1.28-3.3-1.28-5.29v-13.03c0-.62.22-1.15.65-1.57.43-.42.98-.63,1.66-.63.55,0,1.05.21,1.49.63.44.42.67.94.67,1.57v13.03c0,1.2.26,2.24.77,3.11.52.88,1.2,1.55,2.05,2.03.85.48,1.76.72,2.72.72,1.03,0,1.99-.24,2.88-.72.89-.48,1.61-1.16,2.16-2.03.55-.88.83-1.91.83-3.11v-13.03c0-.62.18-1.15.54-1.57.36-.42.85-.63,1.48-.63Z"/>
      <path class="st8" d="M651.49,389.01c-1.82,0-3.53-.34-5.11-1.01-1.58-.67-2.98-1.6-4.18-2.79-1.2-1.19-2.14-2.56-2.83-4.12-.68-1.56-1.03-3.24-1.03-5.04s.34-3.48,1.03-5.04c.68-1.56,1.63-2.93,2.83-4.12,1.2-1.19,2.59-2.12,4.18-2.79s3.29-1.01,5.11-1.01c1.13,0,2.22.12,3.28.36,1.06.24,2.03.6,2.92,1.08.36.19.63.45.81.77.18.32.27.65.27.99,0,.58-.19,1.09-.58,1.55-.38.46-.88.68-1.48.68-.19,0-.39-.02-.59-.07-.2-.05-.4-.12-.59-.22-.6-.26-1.24-.47-1.91-.61-.67-.14-1.38-.22-2.12-.22-1.56,0-2.98.39-4.27,1.17-1.28.78-2.3,1.82-3.06,3.13-.76,1.31-1.13,2.75-1.13,4.34s.38,3,1.13,4.32c.76,1.32,1.78,2.37,3.06,3.15,1.28.78,2.71,1.17,4.27,1.17.72,0,1.51-.07,2.38-.22.86-.14,1.57-.34,2.12-.58l-.32,1.08v-6.16l.61.54h-4c-.62,0-1.15-.2-1.57-.61-.42-.41-.63-.92-.63-1.55s.21-1.14.63-1.55.94-.61,1.57-.61h5.9c.62,0,1.14.21,1.55.63.41.42.61.94.61,1.57v7.63c0,.48-.11.88-.34,1.19s-.49.56-.77.76c-1.1.67-2.31,1.21-3.62,1.6-1.31.4-2.68.59-4.12.59Z"/>
      <path class="st8" d="M666.96,363.45c.58,0,1.09.21,1.53.63.44.42.67.94.67,1.57v20.81c0,.62-.23,1.15-.68,1.57s-.98.63-1.58.63c-.67,0-1.21-.21-1.62-.63s-.61-.94-.61-1.57v-20.81c0-.62.22-1.15.65-1.57.43-.42.98-.63,1.66-.63ZM666.86,373.93h16.06v4.14h-16.06v-4.14ZM682.91,363.45c.67,0,1.21.21,1.62.63.41.42.61.94.61,1.57v20.81c0,.62-.21,1.15-.63,1.57s-.98.63-1.67.63c-.58,0-1.09-.21-1.53-.63s-.67-.94-.67-1.57v-20.81c0-.62.23-1.15.68-1.57.46-.42.98-.63,1.58-.63Z"/>
      <path class="st8" d="M691.12,367.59c-.62,0-1.15-.19-1.57-.58s-.63-.89-.63-1.51.21-1.12.63-1.49.94-.56,1.57-.56h15.98c.62,0,1.15.19,1.57.58s.63.89.63,1.51-.21,1.12-.63,1.49-.94.56-1.57.56h-15.98ZM699.08,388.65c-.67,0-1.22-.21-1.66-.63-.43-.42-.65-.94-.65-1.57v-20.88h4.68v20.88c0,.62-.22,1.15-.67,1.57-.44.42-1.01.63-1.71.63Z"/>
      <path class="st8" d="M723.74,367.59c-.62,0-1.15-.19-1.57-.58s-.63-.89-.63-1.51.21-1.12.63-1.49.94-.56,1.57-.56h15.98c.62,0,1.15.19,1.57.58s.63.89.63,1.51-.21,1.12-.63,1.49-.94.56-1.57.56h-15.98ZM731.69,388.65c-.67,0-1.22-.21-1.66-.63-.43-.42-.65-.94-.65-1.57v-20.88h4.68v20.88c0,.62-.22,1.15-.67,1.57-.44.42-1.01.63-1.71.63Z"/>
      <path class="st8" d="M768.16,376.05c0,1.8-.3,3.48-.9,5.04-.6,1.56-1.45,2.93-2.54,4.12-1.09,1.19-2.39,2.12-3.89,2.79-1.5.67-3.14,1.01-4.91,1.01s-3.41-.34-4.9-1.01c-1.49-.67-2.78-1.6-3.87-2.79-1.09-1.19-1.94-2.56-2.54-4.12-.6-1.56-.9-3.24-.9-5.04s.3-3.48.9-5.04c.6-1.56,1.45-2.93,2.54-4.12,1.09-1.19,2.38-2.12,3.87-2.79,1.49-.67,3.12-1.01,4.9-1.01s3.41.34,4.91,1.01,2.8,1.6,3.89,2.79c1.09,1.19,1.94,2.56,2.54,4.12.6,1.56.9,3.24.9,5.04ZM763.48,376.05c0-1.61-.32-3.07-.97-4.37-.65-1.31-1.54-2.35-2.66-3.11-1.13-.77-2.44-1.15-3.92-1.15s-2.8.38-3.92,1.15c-1.13.77-2.01,1.8-2.65,3.1-.64,1.3-.95,2.76-.95,4.39s.32,3.07.95,4.37c.64,1.31,1.52,2.35,2.65,3.11,1.13.77,2.44,1.15,3.92,1.15s2.8-.38,3.92-1.15c1.13-.77,2.02-1.81,2.66-3.11.65-1.31.97-2.77.97-4.37Z"/>
      <path class="st8" d="M796.28,384.44c.62,0,1.15.2,1.57.59.42.4.63.91.63,1.53s-.21,1.1-.63,1.49c-.42.4-.94.59-1.57.59h-11.7c-.62,0-1.15-.21-1.57-.63s-.63-.94-.63-1.57v-20.81c0-.62.22-1.15.65-1.57.43-.42.98-.63,1.66-.63.58,0,1.09.21,1.53.63.44.42.67.94.67,1.57v19.4l-.79-.61h10.19Z"/>
      <path class="st8" d="M807.11,386.45c0,.62-.23,1.15-.68,1.57s-.98.63-1.58.63c-.67,0-1.21-.21-1.62-.63s-.61-.94-.61-1.57v-20.81c0-.62.22-1.15.65-1.57.43-.42.98-.63,1.66-.63.58,0,1.09.21,1.53.63.44.42.67.94.67,1.57v20.81Z"/>
      <path class="st8" d="M814.78,388.65c-.67,0-1.22-.21-1.64-.63s-.63-.94-.63-1.57v-20.81c0-.62.21-1.15.63-1.57.42-.42.94-.63,1.57-.63h11.7c.62,0,1.15.2,1.57.59.42.4.63.91.63,1.53,0,.53-.21,1-.63,1.4s-.94.61-1.57.61h-9.72l.32-.43v7.24l-.25-.47h8.03c.62,0,1.15.2,1.57.59.42.4.63.91.63,1.53,0,.53-.21,1-.63,1.4-.42.41-.94.61-1.57.61h-8.1l.32-.32v8.71c0,.62-.22,1.15-.67,1.57-.44.42-.97.63-1.57.63Z"/>
      <path class="st8" d="M834.94,363.45h12.06c.62,0,1.15.2,1.57.59.42.4.63.91.63,1.53s-.21,1.09-.63,1.46c-.42.37-.94.56-1.57.56h-10.08l.32-.61v7.02l-.29-.29h8.42c.62,0,1.15.2,1.57.59.42.4.63.91.63,1.53s-.21,1.09-.63,1.46c-.42.37-.94.56-1.57.56h-8.32l.18-.29v7.27l-.29-.32h10.04c.62,0,1.15.21,1.57.63.42.42.63.91.63,1.46,0,.6-.21,1.09-.63,1.48-.42.38-.94.58-1.57.58h-12.06c-.62,0-1.15-.21-1.57-.63s-.63-.94-.63-1.57v-20.81c0-.62.21-1.15.63-1.57.42-.42.94-.63,1.57-.63Z"/>
      <path class="st8" d="M863.99,367.59c-.62,0-1.15-.19-1.57-.58s-.63-.89-.63-1.51.21-1.12.63-1.49.94-.56,1.57-.56h15.98c.62,0,1.15.19,1.57.58s.63.89.63,1.51-.21,1.12-.63,1.49-.94.56-1.57.56h-15.98ZM871.95,388.65c-.67,0-1.22-.21-1.66-.63-.43-.42-.65-.94-.65-1.57v-20.88h4.68v20.88c0,.62-.22,1.15-.67,1.57-.44.42-1.01.63-1.71.63Z"/>
      <path class="st8" d="M888.26,363.45c.58,0,1.09.21,1.53.63.44.42.67.94.67,1.57v20.81c0,.62-.23,1.15-.68,1.57s-.98.63-1.58.63c-.67,0-1.21-.21-1.62-.63s-.61-.94-.61-1.57v-20.81c0-.62.22-1.15.65-1.57.43-.42.98-.63,1.66-.63ZM888.15,373.93h16.06v4.14h-16.06v-4.14ZM904.2,363.45c.67,0,1.21.21,1.62.63.41.42.61.94.61,1.57v20.81c0,.62-.21,1.15-.63,1.57s-.98.63-1.67.63c-.58,0-1.09-.21-1.53-.63s-.67-.94-.67-1.57v-20.81c0-.62.23-1.15.68-1.57.46-.42.98-.63,1.58-.63Z"/>
      <path class="st8" d="M914.43,388.65c-.67,0-1.27-.21-1.8-.63-.53-.42-.79-.94-.79-1.57v-20.81c0-.62.21-1.15.63-1.57.42-.42.94-.63,1.57-.63h10.37c1.25,0,2.42.33,3.51.99,1.09.66,1.97,1.57,2.65,2.74s1.01,2.5,1.01,4.01c0,.91-.19,1.8-.56,2.66s-.88,1.64-1.51,2.34c-.64.7-1.35,1.24-2.14,1.62l.04-.83c.67.36,1.23.79,1.67,1.28s.79,1.02,1.04,1.58.4,1.17.45,1.82c.1.6.16,1.13.2,1.58.04.46.11.84.22,1.15.11.31.32.55.63.72.53.31.86.76.99,1.35s0,1.11-.41,1.57c-.26.31-.6.51-1.01.59-.41.08-.82.08-1.22,0-.41-.08-.74-.2-1.01-.34-.41-.24-.82-.59-1.22-1.06-.41-.47-.74-1.1-.99-1.89s-.38-1.81-.38-3.06c0-.41-.07-.79-.22-1.13-.14-.35-.35-.65-.61-.9-.26-.25-.6-.44-1.01-.58-.41-.13-.89-.2-1.44-.2h-7.27l.54-.83v7.81c0,.62-.17,1.15-.5,1.57-.34.42-.8.63-1.4.63ZM915.83,375.76h8.39c.43,0,.85-.2,1.26-.59.41-.4.74-.94,1.01-1.62.26-.68.4-1.43.4-2.25,0-1.06-.28-1.94-.85-2.65-.56-.71-1.17-1.06-1.82-1.06h-8.32l.43-1.15v10.19l-.5-.86Z"/>
      <path class="st8" d="M959.39,376.05c0,1.8-.3,3.48-.9,5.04-.6,1.56-1.45,2.93-2.54,4.12-1.09,1.19-2.39,2.12-3.89,2.79-1.5.67-3.14,1.01-4.91,1.01s-3.41-.34-4.9-1.01c-1.49-.67-2.78-1.6-3.87-2.79-1.09-1.19-1.94-2.56-2.54-4.12-.6-1.56-.9-3.24-.9-5.04s.3-3.48.9-5.04c.6-1.56,1.45-2.93,2.54-4.12,1.09-1.19,2.38-2.12,3.87-2.79,1.49-.67,3.12-1.01,4.9-1.01s3.41.34,4.91,1.01,2.8,1.6,3.89,2.79c1.09,1.19,1.94,2.56,2.54,4.12.6,1.56.9,3.24.9,5.04ZM954.71,376.05c0-1.61-.32-3.07-.97-4.37-.65-1.31-1.54-2.35-2.66-3.11-1.13-.77-2.44-1.15-3.92-1.15s-2.8.38-3.92,1.15c-1.13.77-2.01,1.8-2.65,3.1-.64,1.3-.95,2.76-.95,4.39s.32,3.07.95,4.37c.64,1.31,1.52,2.35,2.65,3.11,1.13.77,2.44,1.15,3.92,1.15s2.8-.38,3.92-1.15c1.13-.77,2.02-1.81,2.66-3.11.65-1.31.97-2.77.97-4.37Z"/>
      <path class="st8" d="M981.42,363.41c.62,0,1.13.21,1.51.63.38.42.58.94.58,1.57v13.03c0,1.99-.43,3.76-1.28,5.29-.85,1.54-2.02,2.74-3.51,3.6s-3.22,1.3-5.18,1.3-3.7-.43-5.2-1.3-2.68-2.06-3.53-3.6c-.85-1.54-1.28-3.3-1.28-5.29v-13.03c0-.62.22-1.15.65-1.57.43-.42.98-.63,1.66-.63.55,0,1.05.21,1.49.63.44.42.67.94.67,1.57v13.03c0,1.2.26,2.24.77,3.11.52.88,1.2,1.55,2.05,2.03.85.48,1.76.72,2.72.72,1.03,0,1.99-.24,2.88-.72.89-.48,1.61-1.16,2.16-2.03.55-.88.83-1.91.83-3.11v-13.03c0-.62.18-1.15.54-1.57.36-.42.85-.63,1.48-.63Z"/>
      <path class="st8" d="M1000.79,389.01c-1.82,0-3.53-.34-5.11-1.01-1.58-.67-2.98-1.6-4.18-2.79-1.2-1.19-2.14-2.56-2.83-4.12-.68-1.56-1.03-3.24-1.03-5.04s.34-3.48,1.03-5.04c.68-1.56,1.63-2.93,2.83-4.12,1.2-1.19,2.59-2.12,4.18-2.79s3.29-1.01,5.11-1.01c1.13,0,2.22.12,3.28.36,1.06.24,2.03.6,2.92,1.08.36.19.63.45.81.77.18.32.27.65.27.99,0,.58-.19,1.09-.58,1.55-.38.46-.88.68-1.48.68-.19,0-.39-.02-.59-.07-.2-.05-.4-.12-.59-.22-.6-.26-1.24-.47-1.91-.61-.67-.14-1.38-.22-2.12-.22-1.56,0-2.98.39-4.27,1.17-1.28.78-2.3,1.82-3.06,3.13-.76,1.31-1.13,2.75-1.13,4.34s.38,3,1.13,4.32c.76,1.32,1.78,2.37,3.06,3.15,1.28.78,2.71,1.17,4.27,1.17.72,0,1.51-.07,2.38-.22.86-.14,1.57-.34,2.12-.58l-.32,1.08v-6.16l.61.54h-4c-.62,0-1.15-.2-1.57-.61-.42-.41-.63-.92-.63-1.55s.21-1.14.63-1.55.94-.61,1.57-.61h5.9c.62,0,1.14.21,1.55.63.41.42.61.94.61,1.57v7.63c0,.48-.11.88-.34,1.19s-.49.56-.77.76c-1.1.67-2.31,1.21-3.62,1.6-1.31.4-2.68.59-4.12.59Z"/>
      <path class="st8" d="M1016.27,363.45c.58,0,1.09.21,1.53.63.44.42.67.94.67,1.57v20.81c0,.62-.23,1.15-.68,1.57s-.98.63-1.58.63c-.67,0-1.21-.21-1.62-.63s-.61-.94-.61-1.57v-20.81c0-.62.22-1.15.65-1.57.43-.42.98-.63,1.66-.63ZM1016.16,373.93h16.06v4.14h-16.06v-4.14ZM1032.22,363.45c.67,0,1.21.21,1.62.63.41.42.61.94.61,1.57v20.81c0,.62-.21,1.15-.63,1.57s-.98.63-1.67.63c-.58,0-1.09-.21-1.53-.63s-.67-.94-.67-1.57v-20.81c0-.62.23-1.15.68-1.57.46-.42.98-.63,1.58-.63Z"/>
    </g>
    <g>
      <g>
        <g>
          <path class="st2" d="M1179.73,582.93c-107.12-5.18-213.41,9.03-320.14,15.56-8.87.51-16.13-5.84-16.13-14.02v-24.19c0-8.18,7.26-15.21,16.13-15.72,106.73-6.53,213.02-20.74,320.14-15.56,8.87.51,16.13,7.79,16.13,15.97v24.19c0,8.18-7.26,14.29-16.13,13.78Z"/>
          <path class="st7" d="M1242.42,583.15c-9.24-1.37-13.85-1.96-23.09-3-6.69-.75-12.16-6.3-12.16-12.47v-18.25c0-6.17,5.47-10.71,12.16-9.96,9.23,1.04,13.85,1.63,23.09,3,6.69.99,12.16,6.97,12.16,13.14,0,7.3,0,10.95,0,18.25,0,6.17-5.47,10.28-12.16,9.29Z"/>
          <g>
            <path class="st6" d="M873.79,577.67c-.45.03-.85-.07-1.2-.31-.35-.23-.53-.54-.53-.92v-12.74c0-.38.14-.71.42-.98.28-.27.62-.43,1.04-.45,2.75-.18,4.13-.27,6.88-.46.83-.06,1.61.09,2.33.45.73.35,1.31.87,1.76,1.55.45.68.67,1.48.67,2.41,0,.56-.12,1.11-.37,1.66-.25.55-.58,1.05-1,1.5-.42.46-.9.82-1.42,1.09,0-.2.01-.31.02-.51.45.19.82.43,1.11.71.29.28.53.59.69.92.17.33.25.72.3,1.09.04.35.11.68.13.96.02.28.07.51.14.7.07.19.21.32.42.41.35.17.57.43.66.78.09.35,0,.68-.28.98-.18.2-.4.34-.67.41-.27.07-.54.09-.81.06-.27-.03-.49-.09-.67-.16-.27-.13-.54-.33-.81-.59-.27-.27-.49-.64-.66-1.11-.17-.47-.25-1.09-.25-1.86,0-.25-.05-.48-.14-.68-.1-.21-.23-.38-.41-.52-.18-.14-.4-.25-.67-.31-.27-.06-.59-.08-.96-.06-1.93.13-2.9.19-4.83.32.14-.21.21-.32.36-.53v4.78c0,.38-.11.71-.33.98-.22.27-.53.42-.93.45ZM874.72,569.72c2.23-.15,3.34-.22,5.57-.37.29-.02.56-.16.84-.42.27-.26.49-.61.67-1.04.17-.43.26-.9.26-1.39,0-.65-.19-1.17-.56-1.58-.37-.41-.78-.6-1.21-.57-2.21.15-3.31.22-5.52.37.11-.29.17-.43.29-.72v6.24c-.13-.2-.2-.3-.33-.51Z"/>
            <path class="st6" d="M900.52,569.9c0,1.2-.29,2.29-.87,3.25-.58.96-1.36,1.74-2.34,2.32-.98.59-2.08.92-3.29,1.01-1.21.09-2.31-.09-3.29-.53-.98-.44-1.76-1.1-2.34-1.98s-.87-1.92-.87-3.12.29-2.29.87-3.25c.58-.96,1.36-1.73,2.34-2.33s2.07-.93,3.29-1.02c1.21-.09,2.31.09,3.29.54.98.45,1.76,1.11,2.34,1.98.58.88.87,1.91.87,3.12ZM897.66,570.12c0-.75-.16-1.39-.49-1.91-.33-.53-.76-.92-1.31-1.19-.55-.27-1.16-.38-1.83-.33-.67.05-1.28.25-1.83.6-.55.35-.99.81-1.31,1.38-.33.57-.49,1.24-.49,1.99s.16,1.37.49,1.89c.33.53.76.93,1.31,1.19.55.27,1.16.38,1.83.33.67-.05,1.28-.25,1.83-.6.55-.35.99-.81,1.31-1.39.33-.58.49-1.23.49-1.96Z"/>
            <path class="st6" d="M906.14,574.02c0,.38-.14.71-.42.99s-.62.43-1.04.47c-.4.03-.73-.07-1-.31s-.41-.55-.41-.93v-13.62c0-.38.14-.71.42-.99.28-.28.62-.43,1.04-.47.41-.03.75.07,1.02.31.26.24.39.55.39.93v13.62Z"/>
            <path class="st6" d="M915.27,574.87c-1.35.11-2.53-.06-3.52-.5-1-.44-1.76-1.09-2.29-1.95-.53-.85-.8-1.85-.8-2.98,0-1.32.29-2.47.87-3.45.58-.98,1.34-1.75,2.28-2.33.94-.57,1.94-.9,2.99-.98.81-.06,1.58.03,2.31.28.72.25,1.37.62,1.92,1.11.56.49,1,1.08,1.33,1.76s.51,1.43.49,2.21c0,.35-.17.65-.45.9-.29.24-.62.38-1,.41-3.65.29-5.48.44-9.13.72-.29-.86-.43-1.29-.72-2.15,3.51-.27,5.26-.41,8.77-.69-.21.19-.32.29-.53.48v-.59c-.03-.42-.2-.79-.49-1.11-.29-.31-.66-.55-1.1-.72-.44-.16-.9-.23-1.4-.19-.48.04-.92.13-1.34.28-.41.15-.77.38-1.07.68-.3.3-.54.7-.72,1.18-.17.48-.26,1.09-.26,1.8,0,.79.18,1.45.54,1.97.36.52.82.9,1.39,1.15.57.24,1.17.34,1.8.29.59-.05,1.06-.13,1.41-.24.35-.12.63-.24.85-.39.21-.14.41-.26.58-.37.29-.15.56-.24.81-.26.35-.03.64.06.87.26.23.2.35.45.35.74,0,.4-.24.77-.67,1.13-.41.34-1,.69-1.74.99-.75.3-1.52.49-2.32.55Z"/>
            <path class="st6" d="M924.44,568.47c-.42.03-.76-.06-1.04-.29-.28-.23-.42-.53-.42-.91s.14-.71.42-.97c.28-.26.62-.41,1.04-.45,1.66-.14,2.49-.2,4.16-.34.41-.03.76.07,1.04.3.28.23.42.54.42.92s-.14.68-.42.95c-.28.27-.62.41-1.04.45-1.66.14-2.49.2-4.16.34Z"/>
            <path class="st6" d="M939.42,560.66c1.12-.09,2.11.08,3,.53.88.45,1.59,1.11,2.1,1.97.52.87.78,1.9.78,3.11s-.26,2.29-.78,3.25c-.52.96-1.21,1.74-2.08,2.33s-1.84.94-2.93,1.03c-.64.05-1.24,0-1.79-.14-.56-.14-1.05-.35-1.47-.6-.42-.26-.75-.53-.98-.81s-.35-.53-.35-.73c.3-.14.44-.21.74-.35v5.8c0,.38-.14.71-.41.99-.27.28-.61.44-1.03.47-.42.03-.76-.06-1.03-.29-.27-.23-.41-.54-.41-.94v-13.51c0-.38.13-.71.41-.99.27-.28.61-.44,1.03-.47.41-.03.76.07,1.03.3.27.23.41.54.41.92v1.08c-.16-.07-.24-.1-.41-.16,0-.19.11-.43.33-.72.22-.29.53-.59.91-.89.38-.3.83-.56,1.33-.78.5-.22,1.03-.35,1.59-.4ZM939.06,563.12c-.7.06-1.32.27-1.84.64-.53.37-.94.84-1.23,1.41-.3.58-.44,1.22-.44,1.92s.15,1.31.44,1.85c.29.54.71.95,1.23,1.23.53.28,1.14.39,1.84.33s1.31-.27,1.83-.64c.52-.37.92-.84,1.22-1.43.29-.59.44-1.23.44-1.92s-.15-1.32-.44-1.85c-.29-.53-.7-.93-1.22-1.21-.52-.28-1.13-.39-1.83-.33Z"/>
            <path class="st6" d="M950.92,570.37c0,.38-.14.71-.42.99-.28.28-.63.44-1.04.47-.4.03-.73-.07-1-.3-.27-.23-.41-.54-.41-.92v-13.62c0-.38.14-.71.42-.99.28-.28.62-.44,1.04-.47.41-.03.75.07,1.02.3.26.24.4.54.4.93v13.62Z"/>
            <path class="st6" d="M964.73,558.54c.41-.03.76.06,1.03.29.27.23.41.54.41.93v9.32c0,.38-.14.71-.41.99-.27.28-.61.44-1.03.47s-.76-.07-1.03-.3c-.27-.23-.41-.54-.41-.92v-1.08c.21.06.32.09.53.15,0,.19-.11.43-.33.72-.22.29-.53.58-.91.88-.38.3-.83.56-1.35.79-.52.23-1.08.37-1.68.42-1.1.09-2.09-.08-2.99-.53-.89-.45-1.6-1.11-2.11-1.98-.52-.87-.78-1.91-.78-3.1s.26-2.29.78-3.25c.52-.96,1.21-1.74,2.09-2.34.88-.6,1.85-.94,2.92-1.03.69-.06,1.31-.02,1.89.13.57.14,1.07.34,1.49.6.42.26.75.53.98.81.23.28.35.53.35.73-.34.14-.52.22-.86.36v-1.61c0-.38.13-.71.41-.99.27-.28.61-.44,1.03-.47ZM959.9,568.75c.7-.06,1.31-.27,1.84-.64.53-.37.94-.84,1.23-1.42.29-.58.44-1.22.44-1.91s-.15-1.32-.44-1.86c-.29-.53-.71-.94-1.23-1.22-.52-.28-1.14-.39-1.84-.33-.69.06-1.29.27-1.82.64-.53.37-.94.84-1.23,1.43-.3.58-.44,1.23-.44,1.93s.15,1.3.44,1.84c.29.53.71.94,1.23,1.22.53.28,1.13.39,1.82.33Z"/>
            <path class="st6" d="M978.75,557.59c.41-.03.76.07,1.03.3.27.23.41.54.41.92v9.36c0,1.35-.28,2.45-.82,3.3-.55.85-1.29,1.48-2.21,1.91s-1.96.69-3.11.79c-.51.04-1.05.05-1.62.03-.57-.03-1.04-.1-1.41-.21-.48-.15-.81-.36-.99-.63s-.22-.57-.11-.91c.14-.44.37-.75.69-.93.32-.18.66-.22,1-.14.25.06.59.14,1,.26s.89.16,1.43.11c.73-.06,1.34-.2,1.83-.43.49-.23.85-.56,1.1-1.02.25-.45.37-1.06.37-1.8v-1.48c.2.19.3.29.5.49-.27.51-.61.94-1.01,1.29-.41.35-.89.63-1.45.84-.56.21-1.19.34-1.91.4-.84.07-1.58-.05-2.21-.36-.63-.31-1.12-.77-1.47-1.38-.35-.61-.53-1.33-.53-2.15v-6.43c0-.38.14-.71.41-.99.27-.28.61-.44,1.03-.47s.76.07,1.03.3.41.54.41.92v5.64c0,.96.23,1.61.68,1.96.45.35,1.09.49,1.9.43.56-.05,1.03-.19,1.41-.42.38-.23.68-.55.88-.95.21-.41.31-.89.31-1.45v-5.64c0-.38.14-.71.41-.99.27-.28.61-.44,1.03-.47Z"/>
            <path class="st6" d="M982.31,567.25c-.16-.19-.23-.45-.21-.78s.22-.62.62-.89c.26-.17.53-.25.81-.25.29,0,.56.11.84.34.46.39.95.68,1.46.87.51.19,1.17.28,1.91.2.23-.03.5-.09.79-.16.29-.07.54-.21.75-.41.21-.2.32-.49.32-.87,0-.32-.12-.57-.36-.74-.24-.17-.55-.31-.94-.41-.39-.1-.83-.19-1.3-.27-.49-.09-1-.2-1.52-.32-.52-.12-.99-.29-1.42-.51-.43-.22-.78-.53-1.05-.94-.27-.4-.41-.93-.41-1.58,0-.73.22-1.38.67-1.93.45-.55,1.02-.99,1.73-1.33s1.45-.54,2.23-.6c.49-.04,1.01-.03,1.55.04.54.07,1.06.2,1.55.4s.91.49,1.24.86c.18.21.28.46.31.77.03.31-.12.6-.45.87-.24.2-.52.3-.84.3-.32,0-.58-.07-.79-.23-.27-.3-.63-.53-1.09-.68-.45-.15-.98-.21-1.57-.16-.24.02-.5.07-.78.14-.28.07-.52.2-.73.39-.21.19-.31.46-.31.83,0,.34.12.6.36.78.24.18.56.31.97.41.41.09.84.18,1.3.26.48.08.96.18,1.46.3.49.12.95.3,1.36.53.41.23.75.55,1,.94.25.4.38.92.38,1.57,0,.75-.24,1.41-.72,1.97-.48.57-1.08,1.02-1.79,1.35s-1.45.53-2.2.59c-.94.08-1.88,0-2.82-.22-.94-.22-1.72-.69-2.34-1.41Z"/>
            <path class="st6" d="M1011.73,554.74c.41-.03.76.07,1.03.3.27.23.41.54.41.94v9.32c0,.38-.14.71-.41.99-.27.28-.61.43-1.03.46s-.76-.07-1.03-.31c-.27-.24-.41-.55-.41-.93v-1.08c.21.06.32.1.53.16,0,.19-.11.43-.33.72-.22.29-.53.58-.91.87-.38.29-.83.55-1.35.78-.52.22-1.08.36-1.68.4-1.1.08-2.09-.1-2.99-.55-.89-.45-1.6-1.12-2.11-1.99-.52-.88-.78-1.91-.78-3.1s.26-2.29.78-3.25c.52-.96,1.21-1.73,2.09-2.32.88-.59,1.85-.93,2.92-1.01.69-.05,1.31,0,1.89.14.57.15,1.07.35,1.49.61.42.26.75.53.98.82.23.28.35.53.35.73-.34.14-.52.21-.86.35v-1.61c0-.38.13-.71.41-.99.27-.28.61-.43,1.03-.46ZM1006.9,564.91c.7-.05,1.31-.26,1.84-.63.53-.36.94-.84,1.23-1.42.29-.58.44-1.22.44-1.91s-.15-1.33-.44-1.86c-.29-.54-.71-.95-1.23-1.23-.52-.28-1.14-.4-1.84-.34-.69.05-1.29.26-1.82.62-.53.36-.94.84-1.23,1.42-.3.58-.44,1.22-.44,1.93s.15,1.3.44,1.84c.29.53.71.94,1.23,1.23.53.28,1.13.4,1.82.35Z"/>
            <path class="st6" d="M1023.1,553.9c1.18-.08,2.07.08,2.69.49.61.41,1.04.99,1.27,1.73.23.74.35,1.57.35,2.5v5.64c0,.38-.14.71-.41.99-.27.28-.61.43-1.03.46-.41.03-.76-.08-1.03-.31-.27-.24-.41-.55-.41-.93v-5.64c0-.49-.07-.92-.2-1.3-.14-.38-.38-.67-.73-.88-.35-.21-.85-.29-1.5-.24-.64.05-1.18.2-1.61.47-.44.27-.77.6-1,1.01-.23.41-.35.85-.35,1.34v5.64c0,.38-.14.71-.41.99s-.61.43-1.03.46c-.41.03-.76-.07-1.03-.31-.27-.24-.41-.55-.41-.93v-9.1c0-.38.14-.71.41-.99.27-.28.61-.43,1.03-.46.41-.03.76.07,1.03.31.27.24.41.55.41.93v.95c-.14-.02-.22-.02-.36-.04.14-.26.35-.54.62-.85.27-.31.59-.6.96-.87.37-.28.78-.51,1.24-.7.46-.19.96-.3,1.5-.34Z"/>
            <path class="st6" d="M1040.97,548.39c.41-.03.76.08,1.03.31.27.23.41.55.41.94v13.62c0,.38-.14.71-.41.98-.27.27-.61.42-1.03.45-.41.03-.76-.08-1.03-.32s-.41-.55-.41-.93v-1.08c.21.07.32.1.53.16,0,.19-.11.43-.33.72-.22.29-.53.57-.91.86-.38.29-.83.54-1.35.76-.52.22-1.08.35-1.68.39-1.1.07-2.09-.12-2.99-.58-.89-.46-1.6-1.13-2.11-2.02-.52-.88-.78-1.92-.78-3.11s.26-2.28.78-3.24c.52-.95,1.21-1.72,2.09-2.3.88-.58,1.85-.91,2.92-.98.69-.05,1.31,0,1.89.16.57.15,1.07.36,1.49.63.42.27.75.54.98.83s.35.53.35.74c-.34.14-.52.21-.86.34v-5.91c0-.38.13-.71.41-.99.27-.27.61-.43,1.03-.45ZM1036.15,562.81c.7-.05,1.31-.25,1.84-.61.53-.36.94-.82,1.23-1.4.29-.58.44-1.21.44-1.9s-.15-1.33-.44-1.87c-.29-.54-.71-.95-1.23-1.24-.52-.29-1.14-.41-1.84-.36-.69.05-1.29.25-1.82.61-.53.36-.94.83-1.23,1.41-.3.58-.44,1.22-.44,1.93s.15,1.3.44,1.84c.29.54.71.95,1.23,1.24.53.29,1.13.41,1.82.36Z"/>
            <path class="st6" d="M1058.92,551.62c1.27-.07,2.21.16,2.82.7.61.53,1,1.24,1.2,2.13-.16-.07-.24-.11-.41-.18.08-.15.11-.22.19-.36.19-.35.49-.73.88-1.14.4-.41.88-.77,1.45-1.07.57-.3,1.2-.47,1.9-.5,1.15-.06,2.02.13,2.62.56.6.43,1.01,1.01,1.23,1.76.22.75.33,1.58.33,2.51v5.64c0,.38-.14.71-.41.98-.27.27-.61.41-1.03.43-.41.02-.76-.09-1.03-.34-.27-.24-.41-.56-.41-.94v-5.64c0-.49-.06-.92-.19-1.3-.13-.38-.36-.68-.69-.9-.33-.22-.81-.31-1.43-.28-.61.03-1.12.17-1.55.43-.43.26-.75.59-.97.99-.21.4-.32.84-.32,1.33v5.64c0,.38-.14.71-.41.98s-.61.42-1.03.44c-.42.02-.76-.09-1.03-.33-.27-.24-.41-.55-.41-.94v-5.64c0-.49-.06-.92-.19-1.3-.13-.38-.36-.68-.69-.9-.33-.22-.81-.31-1.43-.27-.6.03-1.12.18-1.55.44-.43.26-.75.59-.97.99-.21.4-.32.84-.32,1.33v5.64c0,.38-.14.71-.41.98-.27.27-.61.42-1.03.44-.42.02-.76-.09-1.03-.33-.27-.24-.41-.55-.41-.93v-9.1c0-.38.13-.71.41-.98.27-.27.61-.42,1.03-.45.41-.02.76.09,1.03.33.27.24.41.55.41.94v.95c-.14-.02-.21-.03-.36-.05.14-.26.34-.54.6-.84.25-.3.57-.59.93-.86.37-.27.77-.5,1.22-.67.45-.18.93-.28,1.46-.31Z"/>
            <path class="st6" d="M1086.63,556.49c0,1.2-.29,2.28-.87,3.22-.58.94-1.36,1.69-2.34,2.24-.98.55-2.07.85-3.29.9-1.21.05-2.31-.16-3.29-.63-.98-.47-1.76-1.15-2.34-2.05s-.87-1.94-.87-3.14.29-2.28.87-3.22c.58-.94,1.36-1.7,2.34-2.26.98-.56,2.08-.87,3.29-.92,1.21-.05,2.31.17,3.29.65.98.48,1.76,1.17,2.34,2.07.58.9.87,1.95.87,3.15ZM1083.77,556.59c0-.75-.16-1.39-.49-1.93-.33-.54-.76-.95-1.31-1.24-.55-.29-1.16-.42-1.83-.39-.67.03-1.28.21-1.83.54-.55.33-.99.78-1.31,1.34-.33.56-.49,1.22-.49,1.97s.16,1.37.49,1.91c.33.54.76.95,1.31,1.23.55.29,1.16.41,1.83.39.67-.03,1.28-.21,1.83-.54.55-.33.99-.78,1.31-1.34.33-.56.49-1.21.49-1.95Z"/>
            <path class="st6" d="M1089.6,550.48c.3-.01.58.05.84.18.25.13.45.33.57.61,1.41,2.92,2.11,4.37,3.51,7.29-.21.09-.32.14-.53.24,1.43-3.08,2.15-4.63,3.58-7.71.27-.6.71-.87,1.27-.87.39,0,.72.1.97.32.25.22.37.5.37.84,0,.1-.02.21-.06.33-.04.12-.08.23-.13.33-1.79,3.68-2.68,5.52-4.47,9.2-.25.54-.69.81-1.22.87-.29.04-.59.01-.87-.13-.28-.14-.49-.36-.63-.66-1.78-3.58-2.67-5.36-4.44-8.93-.03-.07-.07-.17-.11-.28-.04-.12-.06-.25-.06-.42,0-.26.13-.53.38-.8.25-.27.6-.41,1.03-.42Z"/>
            <path class="st6" d="M1108.35,561.99c-1.35.03-2.53-.21-3.52-.71-1-.5-1.76-1.19-2.29-2.08-.53-.88-.8-1.89-.8-3.02,0-1.32.29-2.46.87-3.4.58-.95,1.34-1.68,2.28-2.2.94-.52,1.94-.79,2.99-.81.81-.02,1.58.12,2.31.42.72.3,1.37.71,1.92,1.24.56.53,1,1.14,1.33,1.84s.51,1.47.49,2.24c0,.35-.17.64-.45.87-.29.22-.62.34-1,.35-3.65.06-5.48.09-9.13.17-.29-.88-.43-1.31-.72-2.19,3.51-.08,5.26-.12,8.77-.17-.21.18-.32.27-.53.45v-.59c-.03-.43-.2-.81-.49-1.14-.29-.33-.66-.59-1.1-.78-.44-.19-.9-.28-1.4-.27-.48,0-.92.08-1.34.2-.41.13-.77.33-1.07.62-.3.29-.54.67-.72,1.14-.17.47-.26,1.07-.26,1.79,0,.79.18,1.46.54,2.01.36.54.82.95,1.39,1.23.57.27,1.17.41,1.8.39.59-.01,1.06-.06,1.41-.16.35-.09.63-.21.85-.33.21-.13.41-.24.58-.33.29-.14.56-.21.81-.21.35,0,.64.1.87.32.23.22.35.47.35.77,0,.4-.24.76-.67,1.09-.41.32-1,.62-1.74.88-.75.26-1.52.39-2.32.41Z"/>
            <path class="st6" d="M1123.14,549.58c1.27,0,2.21.27,2.82.84.6.56,1,1.29,1.19,2.19-.16-.08-.24-.12-.41-.2.08-.14.11-.21.19-.35.19-.34.49-.7.88-1.09.4-.39.88-.72,1.45-.99.57-.27,1.2-.41,1.9-.41,1.15,0,2.02.24,2.62.69.6.46,1.01,1.07,1.23,1.82.22.76.33,1.6.33,2.53v5.64c0,.38-.14.7-.41.96-.27.26-.61.38-1.03.38s-.76-.13-1.03-.39c-.27-.26-.41-.58-.41-.96v-5.64c0-.49-.06-.92-.19-1.31-.13-.39-.36-.7-.69-.94-.33-.24-.81-.35-1.43-.36-.61,0-1.12.12-1.55.35-.43.23-.75.55-.97.94-.21.39-.32.83-.32,1.31v5.64c0,.38-.14.7-.41.96-.27.26-.61.39-1.03.39-.41,0-.76-.13-1.03-.38s-.41-.57-.41-.96v-5.64c0-.49-.06-.92-.19-1.31-.13-.39-.36-.7-.69-.93-.33-.23-.81-.35-1.43-.34-.61,0-1.12.13-1.55.36-.43.24-.75.55-.97.94-.22.39-.32.83-.32,1.31v5.64c0,.38-.14.7-.41.96-.27.26-.61.39-1.03.4s-.76-.12-1.03-.37c-.27-.25-.41-.57-.41-.95v-9.1c0-.38.14-.7.41-.96.27-.26.61-.39,1.03-.4s.76.12,1.03.38c.27.25.41.57.41.95v.95c-.14-.02-.22-.04-.36-.06.14-.25.34-.52.6-.81.25-.29.56-.56.93-.81.37-.25.77-.46,1.22-.62.45-.16.93-.24,1.46-.24Z"/>
            <path class="st6" d="M1144.48,561.92c-1.35-.02-2.53-.3-3.53-.83-1-.53-1.76-1.25-2.29-2.15-.53-.9-.8-1.92-.8-3.05,0-1.32.29-2.45.87-3.37.58-.93,1.34-1.63,2.28-2.12.94-.49,1.93-.72,2.99-.71.81.01,1.58.18,2.31.5.72.32,1.37.76,1.92,1.3.56.55,1,1.18,1.33,1.89.33.71.51,1.48.49,2.26,0,.34-.17.64-.45.85-.29.21-.62.32-1,.31-3.65-.08-5.48-.1-9.13-.14-.29-.88-.43-1.33-.72-2.21,3.51.04,5.26.06,8.77.13-.21.17-.32.26-.53.43v-.59c-.03-.43-.2-.81-.49-1.16-.29-.34-.66-.62-1.1-.82-.44-.21-.9-.31-1.4-.32-.48,0-.92.04-1.34.16-.41.11-.77.3-1.07.58-.3.28-.54.65-.72,1.11-.17.47-.26,1.06-.26,1.78,0,.79.18,1.47.54,2.02.36.56.82.98,1.39,1.27.57.29,1.17.45,1.8.46.59,0,1.06-.03,1.41-.11.35-.08.63-.18.85-.3.21-.12.41-.22.59-.31.29-.13.56-.19.81-.18.35,0,.64.12.87.35.23.23.35.48.35.78,0,.4-.24.75-.67,1.07-.41.3-1,.59-1.74.81-.75.23-1.52.34-2.32.32Z"/>
            <path class="st6" d="M1159.39,550.06c1.18.04,2.07.3,2.69.78s1.04,1.1,1.27,1.86c.23.77.35,1.61.35,2.54v5.64c0,.38-.14.7-.41.94-.27.25-.61.36-1.03.35s-.76-.16-1.03-.42c-.27-.27-.41-.59-.41-.97v-5.64c0-.49-.07-.93-.2-1.32-.13-.39-.38-.71-.73-.96-.35-.25-.85-.38-1.5-.4-.64-.02-1.17.08-1.61.3-.44.22-.77.53-1,.91-.23.38-.35.82-.35,1.3v5.64c0,.38-.14.7-.41.95-.27.25-.61.37-1.03.36s-.76-.15-1.03-.41-.41-.59-.41-.97v-9.1c0-.38.13-.7.41-.95.27-.25.61-.37,1.03-.36.41.01.76.15,1.03.41.27.26.41.59.41.97v.95c-.14-.03-.21-.05-.36-.08.14-.25.35-.51.62-.79.27-.28.59-.54.96-.78.37-.24.78-.43,1.24-.57.46-.14.96-.2,1.51-.18Z"/>
            <path class="st6" d="M1166.94,550.78c2.26.09,3.4.15,5.66.26.38.02.7.15.96.4.25.25.38.55.38.9s-.13.61-.38.83c-.26.21-.57.31-.96.29-2.27-.11-3.4-.16-5.66-.26-.38-.02-.7-.15-.96-.39-.25-.24-.38-.54-.38-.9s.13-.62.38-.83c.25-.22.57-.32.96-.3ZM1169.5,548.13c.41.02.75.16,1.02.43.26.27.39.59.39.98v9.81c0,.21.04.38.13.51.09.14.21.24.36.3.15.07.31.1.49.11.19,0,.37-.01.53-.07.16-.06.34-.08.55-.07.22.01.43.12.61.32.18.2.28.47.28.81,0,.41-.24.74-.73.98-.49.24-1.01.35-1.57.32-.33-.02-.71-.06-1.11-.13-.41-.07-.79-.21-1.15-.43-.36-.21-.66-.53-.9-.95-.24-.42-.36-.99-.36-1.71v-9.92c0-.38.14-.7.42-.94.28-.24.62-.36,1.04-.34Z"/>
          </g>
        </g>
        <path class="st5" d="M693.24,568.61c0,8.79-7.73,15.07-17.26,13.73-9.53-1.33-17.26-9.78-17.26-18.57s7.73-14.59,17.26-13.26c9.53,1.33,17.26,9.31,17.26,18.1Z"/>
        <path class="st11" d="M829.23,579.47c-41.29,1.35-82.31.88-123.48-2.62-1.99-.19-3.63-1.86-3.63-3.7v-6.02c0-1.84,1.63-3.18,3.63-2.99,41.18,3.5,82.19,3.97,123.48,2.62,1.99-.08,3.63,1.36,3.63,3.2v6.02c0,1.84-1.63,3.41-3.63,3.49Z"/>
      </g>
      <path class="st8 arrow-path" d="M1043.76,407.07c12.28,7.48,22.94,17.32,31.89,28.54,9.05,11.34,16.33,24.06,22.21,37.3,3.33,7.51,6.19,15.24,8.65,23.08l1.85-1.85c-4.31-1.81-8.62-3.62-12.94-5.43l-.8,2.89c4.45,1.64,8.73,3.69,13.26,5.11.73.23,1.69-.27,1.85-1.05,1.06-5.46,2.94-10.72,3.93-16.21.34-1.89-2.55-2.7-2.89-.8-.99,5.49-2.88,10.74-3.93,16.21l1.85-1.05c-4.53-1.42-8.81-3.47-13.26-5.11-1.84-.68-2.53,2.17-.8,2.89,4.31,1.81,8.62,3.62,12.94,5.43,1.07.45,2.16-.85,1.85-1.85-4.46-14.18-10.22-28.01-17.6-40.94s-16.21-24.72-26.94-34.81c-6-5.64-12.56-10.68-19.6-14.96-1.65-1.01-3.16,1.59-1.51,2.59h0Z"/>
    </g>
    <g>
      <g>
        <g>
          <path class="st9" d="M952.54,139.2l-.9-6.44c-.2-1.44-1.9-2.12-3.04-1.21l-16.67,13.33c-1.68,1.35-.15,4.01,1.86,3.22l17.57-6.89c.81-.32,1.3-1.15,1.18-2.01Z"/>
          <path class="st9" d="M868.04,144.46l.9,6.45c.12.86.82,1.53,1.68,1.61l18.79,1.8c2.15.21,2.89-2.77.91-3.61l-19.7-8.25c-1.34-.56-2.79.55-2.59,2Z"/>
          <path class="st9" d="M869.98,218.09l43.97,4.22c3.06.29,5.59-2.35,5.16-5.39l-7.48-53.44c-.31-2.18-2.07-3.86-4.26-4.07l-51.06-4.88c-3.3-.32-5.91,2.77-5.04,5.97l14.58,54.1c.52,1.91,2.16,3.31,4.14,3.5Z"/>
          <path class="st9" d="M914.94,163.01l7.48,53.44c.43,3.04,3.58,4.89,6.45,3.77l41.11-16.14c1.84-.72,3.05-2.52,3.02-4.5l-.85-56.02c-.05-3.32-3.4-5.57-6.49-4.35l-47.74,18.72c-2.05.8-3.28,2.91-2.97,5.09Z"/>
          <path class="st2" d="M893.96,132.33l-2.28-1.53c-.58-.39-.45-1.28.21-1.49l2.62-.84c.27-.09.47-.3.55-.57l.75-2.64c.19-.67,1.07-.83,1.48-.26l1.61,2.23c.16.23.43.36.71.35l2.75-.1c.7-.03,1.12.77.7,1.33l-1.63,2.22c-.17.23-.21.52-.11.78l.94,2.58c.24.66-.38,1.3-1.05,1.08l-2.61-.86c-.27-.09-.56-.04-.78.14l-2.16,1.7c-.55.43-1.36.04-1.35-.66v-2.75c.01-.28-.13-.54-.36-.7Z"/>
          <path class="st2" d="M911.31,117.92l-2.47-3.48c-.63-.88.04-2.1,1.13-2.05l4.26.22c.43.02.85-.17,1.11-.52l2.55-3.42c.65-.87,2.01-.61,2.3.44l1.11,4.12c.11.42.43.75.84.89l4.04,1.36c1.03.35,1.2,1.73.29,2.32l-3.58,2.33c-.36.24-.59.64-.59,1.07l-.05,4.27c-.01,1.08-1.27,1.68-2.11.99l-3.32-2.68c-.34-.27-.79-.36-1.2-.23l-4.07,1.27c-1.04.32-1.99-.69-1.6-1.7l1.53-3.98c.16-.41.1-.86-.15-1.22Z"/>
          <path class="st2" d="M896.59,104.39l-2.63-1.63c-.67-.42-.56-1.42.18-1.69l2.91-1.05c.3-.11.52-.35.59-.66l.74-3c.19-.76,1.18-.97,1.66-.35l1.9,2.44c.19.25.5.38.81.36l3.09-.22c.78-.06,1.29.82.85,1.47l-1.74,2.56c-.18.26-.21.59-.09.88l1.17,2.86c.3.73-.38,1.48-1.13,1.26l-2.97-.86c-.3-.09-.63-.02-.87.18l-2.36,2c-.6.51-1.52.1-1.55-.69l-.1-3.09c-.01-.31-.18-.6-.44-.77Z"/>
        </g>
        <g>
          <rect class="st5" x="883.11" y="179.43" width="341.67" height="58.75" rx="16.2" ry="16.2"/>
          <g>
            <path class="st6" d="M911.97,216.69c-1.12,0-2.13-.14-3.02-.42-.9-.28-1.75-.77-2.57-1.48-.21-.18-.37-.38-.48-.6-.11-.22-.17-.45-.17-.67,0-.37.13-.69.4-.97.26-.28.6-.42,1-.42.3,0,.58.1.82.29.61.5,1.21.87,1.81,1.13.6.26,1.34.38,2.22.38.59,0,1.14-.09,1.63-.28s.9-.43,1.2-.74c.3-.31.46-.67.46-1.07,0-.48-.14-.89-.43-1.22s-.73-.62-1.32-.85c-.59-.23-1.34-.41-2.26-.54-.86-.13-1.62-.32-2.28-.59-.66-.26-1.2-.6-1.64-1.01-.44-.41-.77-.89-1-1.44-.22-.55-.34-1.17-.34-1.86,0-1.04.27-1.93.8-2.66.54-.74,1.26-1.3,2.17-1.68s1.92-.58,3.02-.58c1.04,0,2,.16,2.89.47.89.31,1.61.71,2.17,1.19.46.37.7.79.7,1.27,0,.35-.14.67-.41.96-.27.29-.59.43-.96.43-.24,0-.46-.07-.65-.22-.26-.22-.6-.44-1.03-.64-.43-.2-.89-.37-1.37-.5-.48-.14-.93-.2-1.34-.2-.69,0-1.27.09-1.74.26-.47.18-.83.42-1.07.72s-.36.66-.36,1.06c0,.48.14.88.42,1.19.28.31.68.56,1.21.74.53.18,1.16.35,1.9.49.96.18,1.8.38,2.53.62.73.24,1.33.55,1.81.92.48.38.84.85,1.08,1.42.24.57.36,1.26.36,2.08,0,1.04-.29,1.94-.86,2.69-.58.75-1.33,1.33-2.27,1.73-.94.4-1.95.6-3.04.6Z"/>
            <path class="st6" d="M920.8,203.85h5.69c.38,0,.7.13.96.38s.38.58.38.96-.13.68-.38.92-.58.37-.96.37h-5.69c-.38,0-.71-.13-.96-.38-.26-.26-.38-.58-.38-.96s.13-.68.38-.92c.25-.25.58-.37.96-.37ZM923.37,200.85c.42,0,.76.14,1.02.42.26.28.4.63.4,1.04v10.68c0,.22.04.41.13.55.09.14.21.25.36.31s.32.1.49.1c.19,0,.37-.04.53-.11.16-.07.34-.11.55-.11.22,0,.43.1.61.31.18.21.28.5.28.86,0,.45-.24.82-.73,1.1-.49.29-1.01.43-1.57.43-.34,0-.71-.03-1.12-.08-.41-.06-.79-.19-1.15-.41-.36-.22-.66-.55-.9-1-.24-.45-.36-1.06-.36-1.85v-10.8c0-.42.14-.76.42-1.04s.63-.42,1.04-.42Z"/>
            <path class="st6" d="M942.81,210.04c0,1.31-.29,2.47-.88,3.47-.58,1-1.37,1.78-2.35,2.34-.98.56-2.08.84-3.3.84s-2.32-.28-3.3-.84c-.98-.56-1.77-1.34-2.35-2.34-.58-1-.88-2.16-.88-3.47s.29-2.47.88-3.47,1.37-1.78,2.35-2.35c.98-.57,2.08-.85,3.3-.85s2.32.28,3.3.85c.98.57,1.77,1.35,2.35,2.35s.88,2.16.88,3.47ZM939.93,210.04c0-.82-.16-1.52-.49-2.12-.33-.6-.77-1.07-1.32-1.4-.55-.34-1.16-.5-1.84-.5s-1.28.17-1.84.5c-.55.34-.99.8-1.32,1.4-.33.6-.49,1.31-.49,2.12s.16,1.5.49,2.1c.33.6.77,1.07,1.32,1.4.55.34,1.16.5,1.84.5s1.28-.17,1.84-.5c.55-.34.99-.8,1.32-1.4.33-.6.49-1.3.49-2.1Z"/>
            <path class="st6" d="M946.77,216.45c-.42,0-.76-.14-1.03-.42-.27-.28-.41-.63-.41-1.04v-9.91c0-.42.14-.76.41-1.04.27-.28.62-.42,1.03-.42s.76.14,1.03.42c.27.28.41.63.41,1.04v2.26l-.17-1.61c.18-.38.4-.72.68-1.02.28-.3.6-.54.95-.74.35-.2.73-.35,1.13-.44.4-.1.8-.14,1.2-.14.48,0,.88.14,1.21.41s.49.59.49.96c0,.53-.14.91-.41,1.14-.27.23-.57.35-.89.35-.3,0-.58-.06-.83-.17-.25-.11-.53-.17-.85-.17-.29,0-.58.07-.88.2-.3.14-.57.35-.82.64s-.45.64-.6,1.07c-.15.42-.23.92-.23,1.5v5.69c0,.42-.14.76-.41,1.04-.27.28-.62.42-1.03.42Z"/>
            <path class="st6" d="M956.99,202.05c-.54,0-.93-.09-1.15-.26-.22-.18-.34-.49-.34-.94v-.46c0-.46.12-.78.37-.95s.63-.25,1.14-.25c.56,0,.95.09,1.18.26.22.18.34.49.34.94v.46c0,.46-.12.78-.36.95-.24.17-.63.25-1.18.25ZM958.45,214.98c0,.42-.14.76-.41,1.04-.27.28-.62.42-1.03.42s-.76-.14-1.03-.42c-.27-.28-.41-.63-.41-1.04v-9.91c0-.42.14-.76.41-1.04.27-.28.62-.42,1.03-.42s.76.14,1.03.42c.27.28.41.63.41,1.04v9.91Z"/>
            <path class="st6" d="M967.45,216.69c-1.36,0-2.54-.28-3.54-.85-1-.57-1.77-1.34-2.3-2.32-.54-.98-.8-2.08-.8-3.31,0-1.44.29-2.67.88-3.68s1.35-1.8,2.29-2.34,1.94-.82,3-.82c.82,0,1.59.17,2.32.5.73.34,1.37.8,1.93,1.38.56.58,1,1.26,1.33,2.03s.49,1.58.49,2.45c-.02.38-.17.7-.46.94s-.62.36-1.01.36h-9.17l-.72-2.4h8.81l-.53.48v-.65c-.03-.46-.2-.88-.49-1.25-.3-.37-.67-.66-1.1-.88-.44-.22-.91-.32-1.4-.32s-.93.06-1.34.19-.78.34-1.08.65-.54.71-.72,1.22c-.18.51-.26,1.16-.26,1.94,0,.86.18,1.6.54,2.2.36.6.82,1.06,1.39,1.37.57.31,1.17.47,1.81.47.59,0,1.06-.05,1.42-.14.35-.1.64-.21.85-.35s.41-.25.59-.35c.29-.14.56-.22.82-.22.35,0,.64.12.88.36.23.24.35.52.35.84,0,.43-.22.82-.67,1.18-.42.35-1,.66-1.75.92-.75.26-1.53.4-2.33.4Z"/>
            <path class="st6" d="M974.82,214.46c-.16-.22-.23-.51-.22-.86.02-.35.22-.66.62-.91.26-.16.53-.23.82-.2.29.02.57.17.84.44.46.46.95.82,1.46,1.08.51.26,1.15.38,1.92.38.24-.02.5-.05.79-.11s.54-.18.76-.38.32-.51.32-.92c0-.35-.12-.63-.36-.84-.24-.21-.56-.38-.95-.53-.39-.14-.83-.28-1.31-.41-.5-.14-1-.3-1.52-.48-.52-.18-1-.4-1.43-.68s-.78-.65-1.06-1.12c-.27-.46-.41-1.05-.41-1.75,0-.8.22-1.48.67-2.04.45-.56,1.03-.99,1.74-1.3.71-.3,1.46-.46,2.24-.46.5,0,1.02.06,1.56.18.54.12,1.06.31,1.56.58.5.26.91.61,1.25,1.04.18.24.28.53.31.86.03.34-.12.64-.46.91-.24.19-.52.28-.84.25-.32-.02-.58-.13-.79-.32-.27-.35-.64-.63-1.09-.84-.46-.21-.98-.31-1.57-.31-.24,0-.5.03-.78.08-.28.06-.52.18-.73.36-.21.18-.31.48-.31.88,0,.37.12.66.36.88.24.22.56.39.97.53s.84.27,1.31.4c.48.13.97.28,1.46.46.5.18.95.41,1.37.7s.75.66,1.01,1.12c.25.46.38,1.04.38,1.74,0,.82-.24,1.51-.72,2.09-.48.58-1.08,1.01-1.8,1.31-.72.3-1.46.44-2.21.44-.94,0-1.89-.16-2.83-.49s-1.73-.91-2.35-1.74Z"/>
            <path class="st6" d="M990.78,216.26c0,.53-.15,1.06-.44,1.6-.3.54-.68.98-1.15,1.34-.47.36-.97.54-1.5.54-.18,0-.36-.07-.56-.22-.2-.14-.3-.39-.3-.74s.12-.59.35-.66c.23-.07.43-.15.59-.23.21-.11.37-.24.49-.4s.18-.34.18-.56c0-.18-.08-.33-.25-.47s-.39-.2-.66-.2c-.1,0-.21.01-.34.04-.13.02-.24.07-.34.13-.16-.08-.3-.18-.42-.3s-.18-.32-.18-.59c0-.5.23-.92.68-1.28.46-.36.99-.54,1.6-.54.69,0,1.24.23,1.64.7s.61,1.08.61,1.85Z"/>
            <path class="st6" d="M999.71,214.46c-.16-.22-.23-.51-.22-.86.02-.35.22-.66.62-.91.26-.16.53-.23.82-.2.29.02.57.17.84.44.46.46.95.82,1.46,1.08.51.26,1.15.38,1.92.38.24-.02.5-.05.79-.11s.54-.18.76-.38.32-.51.32-.92c0-.35-.12-.63-.36-.84-.24-.21-.56-.38-.95-.53-.39-.14-.83-.28-1.31-.41-.5-.14-1-.3-1.52-.48-.52-.18-1-.4-1.43-.68s-.78-.65-1.06-1.12c-.27-.46-.41-1.05-.41-1.75,0-.8.22-1.48.67-2.04.45-.56,1.03-.99,1.74-1.3.71-.3,1.46-.46,2.24-.46.5,0,1.02.06,1.56.18.54.12,1.06.31,1.56.58.5.26.91.61,1.25,1.04.18.24.28.53.31.86.03.34-.12.64-.46.91-.24.19-.52.28-.84.25-.32-.02-.58-.13-.79-.32-.27-.35-.64-.63-1.09-.84-.46-.21-.98-.31-1.57-.31-.24,0-.5.03-.78.08-.28.06-.52.18-.73.36-.21.18-.31.48-.31.88,0,.37.12.66.36.88.24.22.56.39.97.53s.84.27,1.31.4c.48.13.97.28,1.46.46.5.18.95.41,1.37.7s.75.66,1.01,1.12c.25.46.38,1.04.38,1.74,0,.82-.24,1.51-.72,2.09-.48.58-1.08,1.01-1.8,1.31-.72.3-1.46.44-2.21.44-.94,0-1.89-.16-2.83-.49s-1.73-.91-2.35-1.74Z"/>
            <path class="st6" d="M1024.48,210.04c0,1.31-.29,2.47-.88,3.47-.58,1-1.37,1.78-2.35,2.34-.98.56-2.08.84-3.3.84s-2.32-.28-3.3-.84c-.98-.56-1.77-1.34-2.35-2.34-.58-1-.88-2.16-.88-3.47s.29-2.47.88-3.47,1.37-1.78,2.35-2.35c.98-.57,2.08-.85,3.3-.85s2.32.28,3.3.85c.98.57,1.77,1.35,2.35,2.35s.88,2.16.88,3.47ZM1021.6,210.04c0-.82-.16-1.52-.49-2.12-.33-.6-.77-1.07-1.32-1.4-.55-.34-1.16-.5-1.84-.5s-1.28.17-1.84.5c-.55.34-.99.8-1.32,1.4-.33.6-.49,1.31-.49,2.12s.16,1.5.49,2.1c.33.6.77,1.07,1.32,1.4.55.34,1.16.5,1.84.5s1.28-.17,1.84-.5c.55-.34.99-.8,1.32-1.4.33-.6.49-1.3.49-2.1Z"/>
            <path class="st6" d="M1033.86,203.37c1.18,0,2.08.25,2.7.74.62.5,1.04,1.16,1.27,1.98.23.82.35,1.74.35,2.75v6.14c0,.42-.14.76-.41,1.04-.27.28-.62.42-1.03.42s-.76-.14-1.03-.42-.41-.63-.41-1.04v-6.14c0-.53-.07-1-.2-1.43-.14-.42-.38-.76-.73-1.02-.35-.26-.86-.38-1.51-.38s-1.18.13-1.62.38c-.44.26-.78.6-1.01,1.02-.23.42-.35.9-.35,1.43v6.14c0,.42-.14.76-.41,1.04-.27.28-.62.42-1.03.42s-.76-.14-1.03-.42c-.27-.28-.41-.63-.41-1.04v-9.91c0-.42.14-.76.41-1.04.27-.28.62-.42,1.03-.42s.76.14,1.03.42c.27.28.41.63.41,1.04v1.03l-.36-.07c.14-.27.35-.56.62-.88.27-.31.59-.6.96-.88.37-.27.78-.49,1.25-.66.46-.17.97-.25,1.51-.25Z"/>
            <path class="st6" d="M1046.63,203.37c.67,0,1.29.1,1.85.31.56.21,1.04.47,1.45.79s.73.64.96.97c.23.33.35.6.35.83l-.62.31v-1.75c0-.42.14-.76.41-1.04.27-.28.62-.42,1.03-.42s.76.14,1.03.41c.27.27.41.62.41,1.06v10.68c0,1.39-.3,2.51-.9,3.35-.6.84-1.39,1.45-2.36,1.82-.98.38-2.02.56-3.14.56-.32,0-.74-.04-1.25-.12-.51-.08-1-.18-1.46-.29-.46-.11-.82-.22-1.06-.31-.48-.21-.81-.47-1-.78-.18-.31-.22-.64-.11-1,.14-.46.38-.78.7-.95s.66-.19,1.01-.06c.16.05.42.14.79.29s.77.28,1.21.4c.44.12.83.18,1.16.18,1.2,0,2.09-.24,2.66-.72.58-.48.86-1.14.86-1.99v-2.09l.29.22c0,.21-.11.46-.32.76s-.51.59-.89.88-.82.53-1.33.73c-.51.2-1.06.3-1.63.3-1.14,0-2.16-.28-3.07-.85-.91-.57-1.63-1.35-2.16-2.35-.53-1-.79-2.15-.79-3.44s.26-2.47.79-3.47c.53-1,1.24-1.78,2.14-2.35.9-.57,1.9-.85,3-.85ZM1047.09,206.01c-.72,0-1.35.18-1.9.53-.54.35-.97.83-1.27,1.44-.3.61-.46,1.3-.46,2.06s.15,1.43.46,2.04c.3.61.73,1.09,1.27,1.44s1.18.53,1.9.53,1.38-.18,1.92-.53c.54-.35.97-.83,1.27-1.44.3-.61.46-1.29.46-2.04s-.15-1.46-.46-2.06-.73-1.09-1.27-1.44c-.54-.35-1.18-.53-1.92-.53Z"/>
            <path class="st6" d="M1055.63,214.46c-.16-.22-.23-.51-.22-.86.02-.35.22-.66.62-.91.26-.16.53-.23.82-.2.29.02.57.17.84.44.46.46.95.82,1.46,1.08.51.26,1.15.38,1.92.38.24-.02.5-.05.79-.11s.54-.18.76-.38.32-.51.32-.92c0-.35-.12-.63-.36-.84-.24-.21-.56-.38-.95-.53-.39-.14-.83-.28-1.31-.41-.5-.14-1-.3-1.52-.48-.52-.18-1-.4-1.43-.68s-.78-.65-1.06-1.12c-.27-.46-.41-1.05-.41-1.75,0-.8.22-1.48.67-2.04.45-.56,1.03-.99,1.74-1.3.71-.3,1.46-.46,2.24-.46.5,0,1.02.06,1.56.18.54.12,1.06.31,1.56.58.5.26.91.61,1.25,1.04.18.24.28.53.31.86.03.34-.12.64-.46.91-.24.19-.52.28-.84.25-.32-.02-.58-.13-.79-.32-.27-.35-.64-.63-1.09-.84-.46-.21-.98-.31-1.57-.31-.24,0-.5.03-.78.08-.28.06-.52.18-.73.36-.21.18-.31.48-.31.88,0,.37.12.66.36.88.24.22.56.39.97.53s.84.27,1.31.4c.48.13.97.28,1.46.46.5.18.95.41,1.37.7s.75.66,1.01,1.12c.25.46.38,1.04.38,1.74,0,.82-.24,1.51-.72,2.09-.48.58-1.08,1.01-1.8,1.31-.72.3-1.46.44-2.21.44-.94,0-1.89-.16-2.83-.49s-1.73-.91-2.35-1.74Z"/>
            <path class="st6" d="M1071.59,216.26c0,.53-.15,1.06-.44,1.6-.3.54-.68.98-1.15,1.34-.47.36-.97.54-1.5.54-.18,0-.36-.07-.56-.22-.2-.14-.3-.39-.3-.74s.12-.59.35-.66c.23-.07.43-.15.59-.23.21-.11.37-.24.49-.4.12-.15.18-.34.18-.56,0-.18-.08-.33-.25-.47s-.39-.2-.66-.2c-.1,0-.21.01-.34.04-.13.02-.24.07-.34.13-.16-.08-.3-.18-.42-.3s-.18-.32-.18-.59c0-.5.23-.92.68-1.28.46-.36.99-.54,1.6-.54.69,0,1.24.23,1.64.7.41.46.61,1.08.61,1.85Z"/>
            <path class="st6" d="M1091.77,203.37c.42,0,.76.14,1.03.41.27.27.41.62.41,1.06v10.15c0,.42-.14.76-.41,1.04-.27.28-.62.42-1.03.42s-.76-.14-1.03-.42-.41-.63-.41-1.04v-1.18l.53.22c0,.21-.11.46-.34.76-.22.3-.53.59-.91.88s-.84.53-1.36.73c-.52.2-1.08.3-1.69.3-1.1,0-2.1-.28-3-.85-.9-.57-1.6-1.35-2.12-2.35-.52-1-.78-2.15-.78-3.44s.26-2.47.78-3.47c.52-1,1.22-1.78,2.1-2.35.88-.57,1.86-.85,2.93-.85.69,0,1.32.1,1.9.31s1.08.47,1.5.79.75.64.98.97c.23.33.35.6.35.83l-.86.31v-1.75c0-.42.14-.76.41-1.04.27-.28.62-.42,1.03-.42ZM1086.92,214.05c.7,0,1.32-.18,1.85-.53s.94-.83,1.24-1.44c.3-.61.44-1.29.44-2.04s-.15-1.46-.44-2.06c-.3-.61-.71-1.09-1.24-1.44-.53-.35-1.14-.53-1.85-.53s-1.3.18-1.82.53c-.53.35-.94.83-1.24,1.44s-.44,1.3-.44,2.06.15,1.43.44,2.04c.3.61.71,1.09,1.24,1.44s1.14.53,1.82.53Z"/>
            <path class="st6" d="M1103.2,203.37c1.18,0,2.08.25,2.7.74s1.04,1.16,1.27,1.98c.23.82.35,1.74.35,2.75v6.14c0,.42-.14.76-.41,1.04-.27.28-.62.42-1.03.42s-.76-.14-1.03-.42c-.27-.28-.41-.63-.41-1.04v-6.14c0-.53-.07-1-.2-1.43s-.38-.76-.73-1.02c-.35-.26-.86-.38-1.51-.38s-1.18.13-1.62.38c-.44.26-.78.6-1.01,1.02-.23.42-.35.9-.35,1.43v6.14c0,.42-.14.76-.41,1.04-.27.28-.62.42-1.03.42s-.76-.14-1.03-.42c-.27-.28-.41-.63-.41-1.04v-9.91c0-.42.14-.76.41-1.04.27-.28.62-.42,1.03-.42s.76.14,1.03.42c.27.28.41.63.41,1.04v1.03l-.36-.07c.14-.27.35-.56.62-.88s.59-.6.96-.88c.37-.27.78-.49,1.25-.66s.97-.25,1.51-.25Z"/>
            <path class="st6" d="M1121.15,198.69c.42,0,.76.14,1.03.41s.41.62.41,1.06v14.83c0,.42-.14.76-.41,1.04-.27.28-.62.42-1.03.42s-.76-.14-1.03-.42-.41-.63-.41-1.04v-1.18l.53.22c0,.21-.11.46-.34.76-.22.3-.53.59-.91.88s-.84.53-1.36.73c-.52.2-1.08.3-1.69.3-1.1,0-2.1-.28-3-.85-.9-.57-1.6-1.35-2.12-2.35-.52-1-.78-2.15-.78-3.44s.26-2.47.78-3.47c.52-1,1.22-1.78,2.1-2.35.88-.57,1.86-.85,2.93-.85.69,0,1.32.1,1.9.31s1.08.47,1.5.79.75.64.98.97c.23.33.35.6.35.83l-.86.31v-6.43c0-.42.14-.76.41-1.04s.62-.42,1.03-.42ZM1116.3,214.05c.7,0,1.32-.18,1.85-.53s.94-.83,1.24-1.44c.3-.61.44-1.29.44-2.04s-.15-1.46-.44-2.06c-.3-.61-.71-1.09-1.24-1.44-.53-.35-1.14-.53-1.85-.53s-1.3.18-1.82.53c-.53.35-.94.83-1.24,1.44s-.44,1.3-.44,2.06.15,1.43.44,2.04c.3.61.71,1.09,1.24,1.44s1.14.53,1.82.53Z"/>
            <path class="st6" d="M1138.14,203.37c.91,0,1.71.1,2.39.29.68.19,1.21.46,1.58.8.38.34.56.76.56,1.24,0,.32-.1.62-.29.9-.19.28-.47.42-.84.42-.26,0-.47-.04-.64-.11s-.32-.16-.44-.28c-.13-.11-.28-.22-.46-.31-.16-.1-.4-.17-.73-.23-.33-.06-.57-.08-.73-.08-.82,0-1.51.18-2.08.53-.57.35-1,.83-1.31,1.43-.3.6-.46,1.29-.46,2.08s.16,1.45.47,2.05c.31.6.74,1.08,1.3,1.43s1.19.53,1.91.53c.4,0,.74-.02,1.03-.07.29-.05.53-.12.72-.22.22-.13.42-.26.6-.41.18-.14.44-.22.79-.22.42,0,.73.13.96.4s.34.59.34.97-.22.76-.67,1.09-1.04.59-1.76.79c-.73.2-1.52.3-2.36.3-1.26,0-2.36-.29-3.29-.88-.93-.58-1.64-1.38-2.15-2.39-.5-1.01-.76-2.14-.76-3.38,0-1.31.27-2.47.8-3.47s1.28-1.78,2.23-2.35c.95-.57,2.04-.85,3.28-.85Z"/>
            <path class="st6" d="M1151.65,203.37c1.15,0,2.03.25,2.63.74.6.5,1.01,1.16,1.24,1.98.22.82.34,1.74.34,2.75v6.14c0,.42-.14.76-.41,1.04-.27.28-.62.42-1.03.42s-.76-.14-1.03-.42c-.27-.28-.41-.63-.41-1.04v-6.14c0-.53-.06-1-.19-1.43s-.36-.76-.7-1.02-.82-.38-1.44-.38-1.13.13-1.56.38c-.43.26-.76.6-.97,1.02-.22.42-.32.9-.32,1.43v6.14c0,.42-.14.76-.41,1.04-.27.28-.62.42-1.03.42s-.76-.14-1.03-.42-.41-.63-.41-1.04v-14.83c0-.42.14-.76.41-1.04s.62-.42,1.03-.42.76.14,1.03.42c.27.28.41.63.41,1.04v5.95l-.36-.07c.14-.27.34-.56.6-.88s.57-.6.94-.88c.37-.27.78-.49,1.22-.66s.94-.25,1.46-.25Z"/>
            <path class="st6" d="M1169.48,203.37c.42,0,.76.14,1.03.41.27.27.41.62.41,1.06v10.15c0,.42-.14.76-.41,1.04-.27.28-.62.42-1.03.42s-.76-.14-1.03-.42c-.27-.28-.41-.63-.41-1.04v-1.18l.53.22c0,.21-.11.46-.34.76-.22.3-.53.59-.91.88s-.84.53-1.36.73c-.52.2-1.08.3-1.69.3-1.1,0-2.1-.28-3-.85-.9-.57-1.6-1.35-2.12-2.35-.52-1-.78-2.15-.78-3.44s.26-2.47.78-3.47c.52-1,1.22-1.78,2.1-2.35.88-.57,1.86-.85,2.93-.85.69,0,1.32.1,1.9.31s1.08.47,1.5.79.75.64.98.97c.23.33.35.6.35.83l-.86.31v-1.75c0-.42.14-.76.41-1.04.27-.28.62-.42,1.03-.42ZM1164.63,214.05c.7,0,1.32-.18,1.85-.53.53-.35.94-.83,1.24-1.44.3-.61.44-1.29.44-2.04s-.15-1.46-.44-2.06-.71-1.09-1.24-1.44c-.53-.35-1.14-.53-1.85-.53s-1.3.18-1.82.53c-.53.35-.94.83-1.24,1.44s-.44,1.3-.44,2.06.15,1.43.44,2.04c.3.61.71,1.09,1.24,1.44.53.35,1.14.53,1.82.53Z"/>
            <path class="st6" d="M1180.91,203.37c1.18,0,2.08.25,2.7.74s1.04,1.16,1.27,1.98c.23.82.35,1.74.35,2.75v6.14c0,.42-.14.76-.41,1.04-.27.28-.62.42-1.03.42s-.76-.14-1.03-.42c-.27-.28-.41-.63-.41-1.04v-6.14c0-.53-.07-1-.2-1.43-.14-.42-.38-.76-.73-1.02s-.86-.38-1.51-.38-1.18.13-1.62.38-.78.6-1.01,1.02c-.23.42-.35.9-.35,1.43v6.14c0,.42-.14.76-.41,1.04-.27.28-.62.42-1.03.42s-.76-.14-1.03-.42-.41-.63-.41-1.04v-9.91c0-.42.14-.76.41-1.04s.62-.42,1.03-.42.76.14,1.03.42c.27.28.41.63.41,1.04v1.03l-.36-.07c.14-.27.35-.56.62-.88.27-.31.59-.6.96-.88.37-.27.78-.49,1.25-.66.46-.17.97-.25,1.51-.25Z"/>
            <path class="st6" d="M1188.49,203.85h5.69c.38,0,.7.13.96.38s.38.58.38.96-.13.68-.38.92-.58.37-.96.37h-5.69c-.38,0-.7-.13-.96-.38s-.38-.58-.38-.96.13-.68.38-.92.58-.37.96-.37ZM1191.06,200.85c.42,0,.76.14,1.02.42s.4.63.4,1.04v10.68c0,.22.04.41.13.55.09.14.21.25.36.31s.32.1.49.1c.19,0,.37-.04.53-.11.16-.07.34-.11.55-.11.22,0,.43.1.61.31.18.21.28.5.28.86,0,.45-.24.82-.73,1.1-.49.29-1.01.43-1.57.43-.34,0-.71-.03-1.12-.08-.41-.06-.79-.19-1.15-.41-.36-.22-.66-.55-.9-1-.24-.45-.36-1.06-.36-1.85v-10.8c0-.42.14-.76.42-1.04.28-.28.63-.42,1.04-.42Z"/>
            <path class="st6" d="M1197.9,214.46c-.16-.22-.23-.51-.22-.86.02-.35.22-.66.62-.91.26-.16.53-.23.82-.2.29.02.57.17.84.44.46.46.95.82,1.46,1.08.51.26,1.15.38,1.92.38.24-.02.5-.05.79-.11s.54-.18.76-.38c.22-.2.32-.51.32-.92,0-.35-.12-.63-.36-.84-.24-.21-.56-.38-.95-.53-.39-.14-.83-.28-1.31-.41-.5-.14-1-.3-1.52-.48-.52-.18-1-.4-1.43-.68-.43-.28-.78-.65-1.06-1.12-.27-.46-.41-1.05-.41-1.75,0-.8.22-1.48.67-2.04.45-.56,1.03-.99,1.74-1.3s1.46-.46,2.24-.46c.5,0,1.02.06,1.56.18.54.12,1.06.31,1.56.58.5.26.91.61,1.25,1.04.18.24.28.53.31.86.03.34-.12.64-.46.91-.24.19-.52.28-.84.25-.32-.02-.58-.13-.79-.32-.27-.35-.64-.63-1.09-.84s-.98-.31-1.57-.31c-.24,0-.5.03-.78.08-.28.06-.52.18-.73.36-.21.18-.31.48-.31.88,0,.37.12.66.36.88.24.22.56.39.97.53.41.14.84.27,1.31.4.48.13.97.28,1.46.46.5.18.95.41,1.37.7s.75.66,1.01,1.12.38,1.04.38,1.74c0,.82-.24,1.51-.72,2.09-.48.58-1.08,1.01-1.8,1.31s-1.46.44-2.21.44c-.94,0-1.89-.16-2.83-.49s-1.73-.91-2.35-1.74Z"/>
          </g>
        </g>
        <g>
          <path class="st3" d="M1196.68,149.89c1.67-.06,2.99,1.4,2.76,3.06l-3.66,26.7c-.16,1.16-1.71,2.77-2.68,3.37-5.75,3.58-13.62-3.08-9.2-8.61,2.58-3.22,7.74-3.08,10.5-.14l2.3-16.74-21.29.71-3.04,22.14c-1.98,8.02-15.31,4.84-12.88-3.17,1.41-4.66,8.44-5.31,11.44-1.82l3.08-22.47c.18-1.3,1.27-2.28,2.58-2.33l20.09-.69Z"/>
          <path class="st2" d="M1215.36,137.08c.16.57.46,1.15.78,1.64,2.17,3.29,5.53,2.15,8.38,3.99,1.39.9,2.94,2.86,3.25,4.51.14.75-.47,1.08-1.06.6-1.37-1.1-1.85-2.03-3.66-2.85-2.05-.94-3.73-.46-5.82-1l7.24,26.57c.48,1.75-.93,4.53-2.23,5.69-6.05,5.44-15.61-1.05-10.81-7.86,2.04-2.9,6.2-3.92,9.41-2.51l-7.68-28.19,2.19-.6Z"/>
          <path class="st9" d="M1248.85,141.35c-.01.59.1,1.23.27,1.8,1.12,3.78,4.66,3.67,6.86,6.26,1.07,1.26,1.98,3.59,1.79,5.26-.08.76-.76.9-1.19.27-.99-1.45-1.18-2.48-2.67-3.8-1.69-1.5-3.44-1.53-5.28-2.65l-.83,27.53c-.05,1.82-2.21,4.06-3.79,4.79-7.38,3.44-14.63-5.56-8.05-10.67,2.8-2.18,7.08-1.94,9.73.35l.88-29.21,2.27.07Z"/>
        </g>
      </g>
      <path class="st8 arrow-path" d="M855.06,342.7c7.89-8.89,13.09-19.99,17.45-30.94,4.45-11.16,7.96-22.68,10.93-34.32,1.2-4.69,2.3-9.39,3.29-14.13l-2.95-.4c0,.93.77,1.52,1.65,1.55.13,0-.19-.16-.07-.01s.49.45.71.75c1.79,2.52,2.14,5.83,3.29,8.64.71,1.75,3.59,1.02,2.89-.8-1.06-2.76-1.65-5.64-2.95-8.31-.95-1.94-2.16-4.01-4.32-4.77-2.36-.83-5.21.32-7.25,1.53-2.24,1.33-4.03,3.23-5.47,5.38-1.08,1.61,1.52,3.11,2.59,1.51s2.51-3.15,4.23-4.21c1.36-.83,3.75-2.1,5.3-1.2,1.29.75,1.98,2.52,2.58,3.82,1.05,2.26,1.5,4.73,2.39,7.05l2.89-.8c-1.2-2.95-1.67-6.19-3.32-8.95-.51-.86-1.16-1.74-2.05-2.24-.26-.15-.56-.26-.85-.33s-.97-.27-.33-.03l.9.69.2.72c.01-1.65-2.59-2.09-2.95-.4-1.96,9.4-4.34,18.72-7.11,27.91-3.56,11.8-7.74,23.53-13.44,34.48-2.89,5.55-6.18,10.97-10.35,15.67-1.28,1.44.84,3.57,2.12,2.12h0Z"/>
    </g>
    <g>
      <g>
        <g>
          <rect class="st2" x="57.78" y="173.28" width="161.91" height="58.75" rx="16.2" ry="16.2"/>
          <g>
            <path class="st6" d="M111.35,192.75c.42,0,.78.14,1.09.41.31.28.46.62.46,1.04,0,.22-.05.44-.15.67l-6.17,14.45c-.15.33-.36.58-.64.74-.27.16-.55.24-.84.24-.27-.02-.53-.1-.78-.26-.25-.16-.44-.39-.58-.69l-6.17-14.5c-.05-.1-.08-.2-.1-.31s-.03-.21-.03-.31c0-.48.17-.85.53-1.11.35-.26.68-.39,1-.39.63,0,1.09.33,1.38.98l5.47,12.88-.88.02,5.03-12.9c.28-.63.74-.95,1.38-.95Z"/>
            <path class="st6" d="M116.58,195.29c-.57,0-.97-.09-1.2-.28-.23-.18-.35-.51-.35-.97v-.47c0-.48.13-.81.39-.99.26-.17.65-.26,1.19-.26.58,0,.99.09,1.22.27.23.18.35.51.35.98v.47c0,.48-.12.81-.38.99s-.66.26-1.22.26ZM118.1,208.77c0,.43-.14.8-.43,1.09-.28.29-.64.44-1.07.44s-.79-.15-1.08-.44c-.28-.29-.42-.65-.42-1.09v-10.32c0-.43.14-.8.42-1.09.28-.29.64-.44,1.08-.44s.79.15,1.07.44c.28.29.43.65.43,1.09v10.32Z"/>
            <path class="st6" d="M120.4,208.22c-.17-.23-.24-.53-.23-.9.02-.37.23-.68.65-.95.27-.17.55-.24.85-.21.3.03.59.18.88.46.48.48.99.86,1.53,1.12.53.27,1.2.4,2,.4.25-.02.52-.05.83-.11.3-.06.56-.19.79-.4.22-.21.34-.53.34-.96,0-.37-.12-.66-.38-.88s-.58-.4-.99-.55c-.41-.15-.86-.29-1.36-.42-.52-.15-1.05-.32-1.59-.5-.54-.18-1.04-.42-1.49-.71-.45-.29-.82-.68-1.1-1.16s-.42-1.09-.42-1.83c0-.83.23-1.54.7-2.12.47-.58,1.07-1.03,1.81-1.35.74-.32,1.52-.47,2.34-.47.52,0,1.06.06,1.62.19s1.11.33,1.62.6c.52.28.95.64,1.3,1.09.18.25.29.55.33.9.03.35-.12.67-.47.95-.25.2-.54.29-.88.26-.33-.02-.61-.14-.83-.34-.28-.37-.66-.66-1.14-.88-.47-.22-1.02-.33-1.64-.33-.25,0-.52.03-.81.09-.29.06-.55.18-.76.38-.22.19-.33.5-.33.91,0,.38.12.69.38.91.25.23.59.41,1.01.55.42.14.88.28,1.36.41.5.13,1.01.29,1.52.47.52.18.99.42,1.43.73.43.3.78.69,1.05,1.16s.4,1.08.4,1.81c0,.85-.25,1.58-.75,2.17-.5.6-1.12,1.05-1.88,1.36-.75.31-1.52.46-2.3.46-.98,0-1.97-.17-2.95-.51-.98-.34-1.8-.95-2.45-1.81Z"/>
            <path class="st6" d="M143.15,196.92c.43,0,.79.15,1.08.44.28.29.42.65.42,1.09v6.35c0,1.77-.49,3.17-1.47,4.2s-2.4,1.55-4.25,1.55-3.26-.52-4.24-1.55c-.98-1.03-1.46-2.43-1.46-4.2v-6.35c0-.43.14-.8.42-1.09.28-.29.64-.44,1.08-.44s.79.15,1.08.44c.28.29.42.65.42,1.09v6.35c0,1.02.23,1.77.67,2.26.45.49,1.12.74,2.03.74s1.6-.25,2.05-.74.67-1.25.67-2.26v-6.35c0-.43.14-.8.43-1.09.28-.29.64-.44,1.07-.44Z"/>
            <path class="st6" d="M158.85,196.67c.43,0,.79.14,1.08.42.28.28.42.65.42,1.1v10.57c0,.43-.14.8-.42,1.09-.28.29-.64.44-1.08.44s-.79-.15-1.08-.44c-.28-.29-.42-.65-.42-1.09v-1.22l.55.22c0,.22-.12.48-.35.79s-.55.61-.95.91-.87.55-1.41.76c-.54.21-1.13.31-1.76.31-1.15,0-2.19-.3-3.12-.89-.93-.59-1.67-1.41-2.21-2.45-.54-1.04-.81-2.24-.81-3.59s.27-2.57.81-3.61c.54-1.04,1.27-1.86,2.19-2.45s1.93-.89,3.05-.89c.72,0,1.38.11,1.98.33.6.22,1.12.49,1.56.83.44.33.78.67,1.02,1.01.24.34.36.63.36.86l-.9.32v-1.82c0-.43.14-.8.42-1.09.28-.29.64-.44,1.08-.44ZM153.8,207.79c.73,0,1.38-.18,1.92-.55s.98-.87,1.29-1.5.46-1.34.46-2.12-.15-1.52-.46-2.15c-.31-.63-.74-1.13-1.29-1.5-.55-.37-1.19-.55-1.92-.55s-1.35.18-1.9.55c-.55.37-.98.87-1.29,1.5-.31.63-.46,1.35-.46,2.15s.15,1.49.46,2.12c.31.63.74,1.13,1.29,1.5s1.18.55,1.9.55Z"/>
            <path class="st6" d="M166.85,208.77c0,.43-.15.8-.44,1.09s-.65.44-1.09.44-.77-.15-1.05-.44c-.28-.29-.42-.65-.42-1.09v-15.45c0-.43.15-.8.44-1.09s.65-.44,1.09-.44.79.15,1.06.44c.28.29.41.65.41,1.09v15.45Z"/>
            <path class="st6" d="M169.58,208.22c-.17-.23-.24-.53-.22-.9.02-.37.23-.68.65-.95.27-.17.55-.24.85-.21.3.03.59.18.88.46.48.48.99.86,1.52,1.12s1.2.4,2,.4c.25-.02.53-.05.83-.11.3-.06.56-.19.79-.4.22-.21.34-.53.34-.96,0-.37-.12-.66-.38-.88s-.58-.4-.99-.55c-.41-.15-.86-.29-1.36-.42-.52-.15-1.05-.32-1.59-.5s-1.04-.42-1.49-.71c-.45-.29-.82-.68-1.1-1.16-.28-.48-.43-1.09-.43-1.83,0-.83.23-1.54.7-2.12s1.07-1.03,1.81-1.35c.74-.32,1.52-.47,2.34-.47.52,0,1.06.06,1.62.19.57.12,1.11.33,1.62.6.52.28.95.64,1.3,1.09.18.25.29.55.33.9.03.35-.12.67-.48.95-.25.2-.54.29-.88.26-.33-.02-.61-.14-.82-.34-.28-.37-.66-.66-1.14-.88-.48-.22-1.02-.33-1.64-.33-.25,0-.52.03-.81.09-.29.06-.55.18-.76.38-.22.19-.33.5-.33.91,0,.38.12.69.38.91.25.23.59.41,1.01.55.42.14.88.28,1.36.41.5.13,1.01.29,1.53.47.52.18.99.42,1.42.73.43.3.78.69,1.05,1.16s.4,1.08.4,1.81c0,.85-.25,1.58-.75,2.17-.5.6-1.12,1.05-1.88,1.36-.75.31-1.52.46-2.3.46-.98,0-1.97-.17-2.95-.51-.98-.34-1.8-.95-2.45-1.81Z"/>
          </g>
        </g>
        <g>
          <g>
            <rect class="st7" x="391.8" y="137.12" width="202.13" height="58.75" rx="16.2" ry="16.2"/>
            <g>
              <path class="st6" d="M435.17,161.02c.4,0,.73.13,1,.39s.4.59.4.99-.13.73-.4.99c-.27.26-.6.39-1,.39h-6.62c-.4,0-.73-.13-1-.39-.27-.26-.4-.59-.4-.99s.13-.73.4-.99.6-.39,1-.39h6.62ZM434.89,155.64c.37,0,.73.05,1.08.15.35.1.64.26.88.49.23.22.35.52.35.89,0,.42-.12.75-.36.99s-.52.36-.84.36c-.15,0-.38-.04-.68-.11-.3-.08-.59-.11-.88-.11-.42,0-.74.09-.96.27-.23.18-.38.4-.46.64-.08.24-.12.45-.12.64v12.77c0,.43-.14.8-.42,1.09-.28.29-.64.44-1.08.44s-.79-.15-1.08-.44c-.28-.29-.42-.65-.42-1.09v-12.75c0-1.18.42-2.18,1.25-3,.83-.82,2.08-1.22,3.75-1.22ZM442.19,172.62c0,.43-.15.8-.44,1.09-.29.29-.65.44-1.09.44s-.77-.15-1.05-.44c-.28-.29-.43-.65-.43-1.09v-15.45c0-.43.15-.8.44-1.09.29-.29.65-.44,1.09-.44s.79.15,1.06.44c.28.29.41.65.41,1.09v15.45Z"/>
              <path class="st6" d="M458.67,167.47c0,1.37-.3,2.57-.91,3.61-.61,1.04-1.42,1.85-2.45,2.44-1.02.58-2.17.88-3.44.88s-2.41-.29-3.44-.88c-1.02-.58-1.84-1.4-2.45-2.44-.61-1.04-.91-2.25-.91-3.61s.3-2.57.91-3.61c.61-1.04,1.42-1.86,2.45-2.45,1.03-.59,2.17-.89,3.44-.89s2.41.3,3.44.89c1.03.59,1.84,1.41,2.45,2.45.61,1.04.91,2.25.91,3.61ZM455.67,167.47c0-.85-.17-1.59-.51-2.21-.34-.62-.8-1.11-1.38-1.46-.58-.35-1.21-.53-1.91-.53s-1.34.17-1.91.53c-.58.35-1.03.84-1.38,1.46s-.51,1.36-.51,2.21.17,1.56.51,2.19.8,1.11,1.38,1.46c.58.35,1.21.53,1.91.53s1.34-.17,1.91-.53c.58-.35,1.03-.84,1.38-1.46.34-.62.51-1.35.51-2.19Z"/>
              <path class="st6" d="M476.69,160.77c.38,0,.72.15,1,.44.28.29.42.66.42,1.11,0,.12,0,.22-.03.31-.02.09-.04.18-.07.26l-3.83,10.3c-.12.33-.33.59-.62.76s-.62.24-.95.19c-.57-.03-.99-.35-1.28-.95l-2.47-7.12.65.03-2.33,7.1c-.28.6-.71.92-1.28.95-.32.05-.63-.01-.94-.19s-.52-.43-.64-.76l-3.82-10.3c-.07-.18-.1-.38-.1-.58,0-.4.13-.76.4-1.08.27-.32.63-.47,1.1-.47.32,0,.6.08.85.22.25.15.42.39.52.73l3.03,8.2-.62-.05,2.27-6.17c.27-.62.73-.92,1.38-.92.37,0,.65.08.84.24.19.16.35.39.46.69l2.27,6.17-.75.1,3.08-8.25c.2-.63.68-.95,1.45-.95Z"/>
              <path class="st6" d="M486.44,160.52c.95,0,1.78.1,2.49.3.71.2,1.26.48,1.65.84s.59.79.59,1.29c0,.33-.1.65-.3.94-.2.29-.49.44-.88.44-.27,0-.49-.04-.66-.11-.17-.08-.33-.17-.46-.29-.13-.12-.29-.23-.48-.33-.17-.1-.42-.18-.76-.24-.34-.06-.6-.09-.76-.09-.85,0-1.57.18-2.16.55-.59.37-1.05.86-1.36,1.49s-.47,1.35-.47,2.16.16,1.51.49,2.14.78,1.12,1.35,1.49c.58.37,1.24.55,1.99.55.42,0,.77-.03,1.07-.08.3-.05.55-.12.75-.22.23-.13.44-.28.62-.42.18-.15.46-.23.83-.23.43,0,.77.14,1,.41.23.27.35.61.35,1.01s-.23.8-.7,1.14c-.47.34-1.08.62-1.84.83s-1.58.31-2.46.31c-1.32,0-2.46-.3-3.43-.91s-1.71-1.44-2.24-2.49c-.52-1.05-.79-2.22-.79-3.52,0-1.37.28-2.57.84-3.61.56-1.04,1.33-1.86,2.33-2.45s2.13-.89,3.41-.89Z"/>
              <path class="st6" d="M500.52,160.52c1.2,0,2.11.26,2.74.78s1.05,1.2,1.29,2.06.35,1.81.35,2.86v6.4c0,.43-.14.8-.42,1.09-.28.29-.64.44-1.08.44s-.79-.15-1.07-.44c-.28-.29-.43-.65-.43-1.09v-6.4c0-.55-.07-1.05-.2-1.49-.13-.44-.38-.8-.73-1.06-.35-.27-.85-.4-1.5-.4s-1.17.13-1.62.4-.79.62-1.01,1.06c-.22.44-.34.94-.34,1.49v6.4c0,.43-.14.8-.42,1.09-.28.29-.64.44-1.08.44s-.79-.15-1.08-.44c-.28-.29-.42-.65-.42-1.09v-15.45c0-.43.14-.8.42-1.09.28-.29.64-.44,1.08-.44s.79.15,1.08.44c.28.29.42.65.42,1.09v6.2l-.38-.07c.15-.28.36-.59.62-.91s.59-.63.97-.91.81-.51,1.28-.69c.47-.17.97-.26,1.52-.26Z"/>
              <path class="st6" d="M519.09,160.52c.43,0,.79.14,1.08.42.28.28.42.65.42,1.1v10.57c0,.43-.14.8-.42,1.09-.28.29-.64.44-1.08.44s-.79-.15-1.08-.44c-.28-.29-.42-.65-.42-1.09v-1.22l.55.22c0,.22-.12.48-.35.79s-.55.61-.95.91-.87.55-1.41.76c-.54.21-1.13.31-1.76.31-1.15,0-2.19-.3-3.12-.89-.93-.59-1.67-1.41-2.21-2.45-.54-1.04-.81-2.24-.81-3.59s.27-2.57.81-3.61c.54-1.04,1.27-1.86,2.19-2.45s1.93-.89,3.05-.89c.72,0,1.38.11,1.98.33.6.22,1.12.49,1.56.83.44.33.78.67,1.02,1.01.24.34.36.63.36.86l-.9.32v-1.82c0-.43.14-.8.42-1.09.28-.29.64-.44,1.08-.44ZM514.04,171.64c.73,0,1.38-.18,1.92-.55s.98-.87,1.29-1.5.46-1.34.46-2.12-.15-1.52-.46-2.15c-.31-.63-.74-1.13-1.29-1.5-.55-.37-1.19-.55-1.92-.55s-1.35.18-1.9.55c-.55.37-.98.87-1.29,1.5-.31.63-.46,1.35-.46,2.15s.15,1.49.46,2.12c.31.63.74,1.13,1.29,1.5s1.18.55,1.9.55Z"/>
              <path class="st6" d="M525.34,174.14c-.43,0-.79-.15-1.08-.44-.28-.29-.42-.65-.42-1.09v-10.32c0-.43.14-.8.42-1.09.28-.29.64-.44,1.08-.44s.79.15,1.08.44c.28.29.42.65.42,1.09v2.35l-.17-1.67c.18-.4.42-.75.71-1.06s.62-.57.99-.78c.37-.21.76-.36,1.18-.46.42-.1.83-.15,1.25-.15.5,0,.92.14,1.26.42.34.28.51.62.51,1,0,.55-.14.95-.42,1.19-.28.24-.59.36-.92.36s-.6-.06-.86-.17c-.26-.12-.55-.17-.89-.17-.3,0-.6.07-.91.21s-.59.36-.85.66c-.26.3-.47.67-.62,1.11-.16.44-.24.96-.24,1.56v5.92c0,.43-.14.8-.42,1.09-.28.29-.64.44-1.08.44Z"/>
              <path class="st6" d="M534.84,161.02h5.93c.4,0,.73.13,1,.4.27.27.4.6.4,1s-.13.7-.4.96c-.27.26-.6.39-1,.39h-5.93c-.4,0-.73-.13-1-.4-.27-.27-.4-.6-.4-1s.13-.7.4-.96.6-.39,1-.39ZM537.52,157.89c.43,0,.79.15,1.06.44.27.29.41.65.41,1.09v11.12c0,.23.05.42.14.57.09.15.22.26.38.33.16.07.33.1.51.1.2,0,.38-.04.55-.11.17-.07.36-.11.58-.11.23,0,.45.11.64.33s.29.52.29.9c0,.47-.25.85-.76,1.15-.51.3-1.05.45-1.64.45-.35,0-.74-.03-1.16-.09-.42-.06-.83-.2-1.2-.42-.38-.22-.69-.57-.94-1.04s-.38-1.11-.38-1.92v-11.25c0-.43.15-.8.44-1.09s.65-.44,1.09-.44Z"/>
              <path class="st6" d="M544.64,172.07c-.17-.23-.24-.53-.22-.9.02-.37.23-.68.65-.95.27-.17.55-.24.85-.21.3.03.59.18.88.46.48.48.99.86,1.52,1.12s1.2.4,2,.4c.25-.02.53-.05.83-.11.3-.06.56-.19.79-.4.22-.21.34-.53.34-.96,0-.37-.12-.66-.38-.88s-.58-.4-.99-.55c-.41-.15-.86-.29-1.36-.42-.52-.15-1.05-.32-1.59-.5s-1.04-.42-1.49-.71c-.45-.29-.82-.68-1.1-1.16-.28-.48-.43-1.09-.43-1.83,0-.83.23-1.54.7-2.12s1.07-1.03,1.81-1.35c.74-.32,1.52-.47,2.34-.47.52,0,1.06.06,1.62.19.57.12,1.11.33,1.62.6.52.28.95.64,1.3,1.09.18.25.29.55.33.9.03.35-.12.67-.48.95-.25.2-.54.29-.88.26-.33-.02-.61-.14-.82-.34-.28-.37-.66-.66-1.14-.88-.48-.22-1.02-.33-1.64-.33-.25,0-.52.03-.81.09-.29.06-.55.18-.76.38-.22.19-.33.5-.33.91,0,.38.12.69.38.91.25.23.59.41,1.01.55.42.14.88.28,1.36.41.5.13,1.01.29,1.53.47.52.18.99.42,1.42.73.43.3.78.69,1.05,1.16s.4,1.08.4,1.81c0,.85-.25,1.58-.75,2.17-.5.6-1.12,1.05-1.88,1.36-.75.31-1.52.46-2.3.46-.98,0-1.97-.17-2.95-.51-.98-.34-1.8-.95-2.45-1.81Z"/>
              <path class="st6" d="M561.27,173.94c0,.55-.15,1.1-.46,1.66-.31.56-.71,1.02-1.2,1.4-.49.38-1.01.56-1.56.56-.18,0-.38-.08-.59-.22-.21-.15-.31-.41-.31-.78s.12-.61.36-.69.45-.15.61-.24c.22-.12.39-.25.51-.41.12-.16.19-.35.19-.59,0-.18-.09-.35-.26-.49-.17-.14-.4-.21-.69-.21-.1,0-.22.01-.35.04-.13.02-.25.07-.35.14-.17-.08-.31-.19-.44-.31s-.19-.33-.19-.61c0-.52.24-.96.71-1.34.48-.38,1.03-.56,1.66-.56.72,0,1.29.24,1.71.72s.64,1.12.64,1.92Z"/>
            </g>
          </g>
          <g>
            <rect class="st3" x="391.8" y="209.43" width="160.41" height="58.75" rx="16.2" ry="16.2"/>
            <g>
              <path class="st6" d="M433.16,232.82c1.17,0,2.21.3,3.14.89s1.66,1.4,2.2,2.44c.54,1.03.81,2.23.81,3.6s-.27,2.57-.81,3.61c-.54,1.04-1.27,1.86-2.18,2.45-.91.59-1.93.89-3.06.89-.67,0-1.29-.11-1.88-.33-.58-.22-1.1-.49-1.54-.83-.44-.33-.78-.67-1.03-1.01-.24-.34-.36-.63-.36-.86l.78-.32v6.57c0,.43-.14.8-.42,1.09-.28.29-.64.44-1.08.44s-.79-.14-1.08-.42c-.28-.28-.42-.65-.42-1.1v-15.32c0-.43.14-.8.42-1.09.28-.29.64-.44,1.08-.44s.79.15,1.08.44c.28.29.42.65.42,1.09v1.22l-.42-.22c0-.22.12-.48.35-.79.23-.31.55-.62.95-.92.4-.31.86-.56,1.39-.76.52-.2,1.08-.3,1.66-.3ZM432.78,235.57c-.73,0-1.38.18-1.92.55-.55.37-.98.86-1.29,1.49s-.46,1.34-.46,2.14.15,1.5.46,2.14.74,1.15,1.29,1.51,1.19.55,1.92.55,1.37-.18,1.91-.55c.54-.37.97-.87,1.28-1.51s.46-1.35.46-2.14-.15-1.51-.46-2.14-.73-1.12-1.28-1.49c-.54-.37-1.18-.55-1.91-.55Z"/>
              <path class="st6" d="M443.23,231.45c-.57,0-.97-.09-1.2-.28-.23-.18-.35-.51-.35-.97v-.47c0-.48.13-.81.39-.99.26-.17.65-.26,1.19-.26.58,0,.99.09,1.22.27.23.18.35.51.35.98v.47c0,.48-.12.81-.38.99s-.66.26-1.23.26ZM444.76,244.92c0,.43-.14.8-.42,1.09-.28.29-.64.44-1.08.44s-.79-.15-1.08-.44c-.28-.29-.42-.65-.42-1.09v-10.32c0-.43.14-.8.42-1.09.28-.29.64-.44,1.08-.44s.79.15,1.08.44c.28.29.42.65.42,1.09v10.32Z"/>
              <path class="st6" d="M453.78,232.82c.95,0,1.78.1,2.49.3.71.2,1.26.48,1.65.84s.59.79.59,1.29c0,.33-.1.65-.3.94-.2.29-.49.44-.88.44-.27,0-.49-.04-.66-.11-.17-.08-.33-.17-.46-.29-.13-.12-.29-.23-.48-.33-.17-.1-.42-.18-.76-.24-.34-.06-.6-.09-.76-.09-.85,0-1.57.18-2.16.55-.59.37-1.05.86-1.36,1.49s-.47,1.35-.47,2.16.16,1.51.49,2.14.78,1.12,1.35,1.49c.58.37,1.24.55,1.99.55.42,0,.77-.03,1.07-.08.3-.05.55-.12.75-.22.23-.13.44-.28.62-.42.18-.15.46-.23.83-.23.43,0,.77.14,1,.41.23.27.35.61.35,1.01s-.23.8-.7,1.14c-.47.34-1.08.62-1.84.83s-1.58.31-2.46.31c-1.32,0-2.46-.3-3.43-.91s-1.71-1.44-2.24-2.49c-.52-1.05-.79-2.22-.79-3.52,0-1.37.28-2.57.84-3.61.56-1.04,1.33-1.86,2.33-2.45s2.13-.89,3.41-.89Z"/>
              <path class="st6" d="M460.98,233.32h5.92c.4,0,.73.13,1,.4s.4.6.4,1-.13.7-.4.96c-.27.26-.6.39-1,.39h-5.92c-.4,0-.73-.13-1-.4-.27-.27-.4-.6-.4-1s.13-.7.4-.96.6-.39,1-.39ZM463.65,230.2c.43,0,.79.15,1.06.44.28.29.41.65.41,1.09v11.12c0,.23.05.42.14.57.09.15.22.26.38.33.16.07.33.1.51.1.2,0,.38-.04.55-.11.17-.07.36-.11.58-.11.23,0,.45.11.64.33.19.22.29.52.29.9,0,.47-.25.85-.76,1.15-.51.3-1.05.45-1.64.45-.35,0-.74-.03-1.16-.09-.42-.06-.83-.2-1.2-.42-.38-.22-.69-.57-.94-1.04s-.38-1.11-.38-1.92v-11.25c0-.43.15-.8.44-1.09.29-.29.65-.44,1.09-.44Z"/>
              <path class="st6" d="M480.98,233.07c.43,0,.79.15,1.08.44.28.29.42.65.42,1.09v6.35c0,1.77-.49,3.17-1.47,4.2-.98,1.03-2.4,1.55-4.25,1.55s-3.26-.52-4.24-1.55c-.97-1.03-1.46-2.43-1.46-4.2v-6.35c0-.43.14-.8.42-1.09.28-.29.64-.44,1.08-.44s.79.15,1.08.44c.28.29.42.65.42,1.09v6.35c0,1.02.22,1.77.67,2.26s1.12.74,2.03.74,1.6-.25,2.05-.74.67-1.25.67-2.26v-6.35c0-.43.14-.8.42-1.09.28-.29.64-.44,1.08-.44Z"/>
              <path class="st6" d="M487.23,246.45c-.43,0-.79-.15-1.08-.44-.28-.29-.42-.65-.42-1.09v-10.32c0-.43.14-.8.42-1.09.28-.29.64-.44,1.08-.44s.79.15,1.08.44c.28.29.42.65.42,1.09v2.35l-.17-1.67c.18-.4.42-.75.71-1.06s.62-.57.99-.78c.37-.21.76-.36,1.18-.46.42-.1.83-.15,1.25-.15.5,0,.92.14,1.26.42.34.28.51.62.51,1,0,.55-.14.95-.42,1.19-.28.24-.59.36-.92.36s-.6-.06-.86-.17c-.26-.12-.55-.17-.89-.17-.3,0-.6.07-.91.21s-.59.36-.85.66c-.26.3-.47.67-.62,1.11-.16.44-.24.96-.24,1.56v5.92c0,.43-.14.8-.42,1.09-.28.29-.64.44-1.08.44Z"/>
              <path class="st6" d="M502.33,246.7c-1.42,0-2.65-.3-3.69-.89-1.04-.59-1.84-1.4-2.4-2.41s-.84-2.17-.84-3.45c0-1.5.3-2.78.91-3.84.61-1.06,1.4-1.87,2.39-2.44.98-.57,2.03-.85,3.12-.85.85,0,1.65.17,2.41.53.76.35,1.43.83,2.01,1.44s1.05,1.31,1.39,2.11.51,1.65.51,2.55c-.02.4-.17.72-.48.97-.3.25-.65.38-1.05.38h-9.55l-.75-2.5h9.17l-.55.5v-.67c-.03-.48-.2-.92-.51-1.3-.31-.38-.69-.69-1.15-.91-.46-.23-.95-.34-1.46-.34s-.97.07-1.4.2-.81.36-1.12.67-.57.74-.75,1.28-.27,1.21-.27,2.02c0,.9.19,1.66.56,2.29s.86,1.1,1.45,1.42c.59.33,1.22.49,1.89.49.62,0,1.11-.05,1.48-.15.37-.1.66-.22.89-.36.22-.14.43-.26.61-.36.3-.15.58-.22.85-.22.37,0,.67.12.91.38.24.25.36.54.36.88,0,.45-.23.86-.7,1.22-.43.37-1.04.69-1.83.96-.78.27-1.59.41-2.42.41Z"/>
              <path class="st6" d="M510,244.37c-.17-.23-.24-.53-.22-.9.02-.37.23-.68.65-.95.27-.17.55-.24.85-.21.3.03.59.18.88.46.48.48.99.86,1.52,1.12s1.2.4,2,.4c.25-.02.53-.05.83-.11.3-.06.56-.19.79-.4.22-.21.34-.53.34-.96,0-.37-.12-.66-.38-.88s-.58-.4-.99-.55c-.41-.15-.86-.29-1.36-.42-.52-.15-1.05-.32-1.59-.5s-1.04-.42-1.49-.71c-.45-.29-.82-.68-1.1-1.16-.28-.48-.43-1.09-.43-1.83,0-.83.23-1.54.7-2.12s1.07-1.03,1.81-1.35c.74-.32,1.52-.47,2.34-.47.52,0,1.06.06,1.62.19.57.12,1.11.33,1.62.6.52.28.95.64,1.3,1.09.18.25.29.55.33.9.03.35-.12.67-.48.95-.25.2-.54.29-.88.26-.33-.02-.61-.14-.82-.34-.28-.37-.66-.66-1.14-.88-.48-.22-1.02-.33-1.64-.33-.25,0-.52.03-.81.09-.29.06-.55.18-.76.38-.22.19-.33.5-.33.91,0,.38.12.69.38.91.25.23.59.41,1.01.55.42.14.88.28,1.36.41.5.13,1.01.29,1.53.47.52.18.99.42,1.42.73.43.3.78.69,1.05,1.16s.4,1.08.4,1.81c0,.85-.25,1.58-.75,2.17-.5.6-1.12,1.05-1.88,1.36-.75.31-1.52.46-2.3.46-.98,0-1.97-.17-2.95-.51-.98-.34-1.8-.95-2.45-1.81Z"/>
            </g>
          </g>
        </g>
        <rect class="st9" x="260.2" y="179.66" width="78.36" height="45.99" rx="12.68" ry="12.68"/>
        <g>
          <path class="st6" d="M284.2,208.77c0,.43-.15.8-.44,1.09s-.65.44-1.09.44-.77-.15-1.05-.44c-.28-.29-.42-.65-.42-1.09v-15.45c0-.43.15-.8.44-1.09s.65-.44,1.09-.44.79.15,1.06.44c.28.29.41.65.41,1.09v15.45Z"/>
          <path class="st6" d="M289,195.3c-.57,0-.97-.09-1.2-.28-.23-.18-.35-.51-.35-.97v-.47c0-.48.13-.81.39-.99.26-.17.65-.26,1.19-.26.58,0,.99.09,1.22.27.23.18.35.51.35.98v.47c0,.48-.12.81-.38.99s-.66.26-1.23.26ZM290.52,208.77c0,.43-.14.8-.42,1.09-.28.29-.64.44-1.08.44s-.79-.15-1.08-.44c-.28-.29-.42-.65-.42-1.09v-10.32c0-.43.14-.8.42-1.09.28-.29.64-.44,1.08-.44s.79.15,1.08.44c.28.29.42.65.42,1.09v10.32Z"/>
          <path class="st6" d="M295.35,210.3c-.43,0-.79-.15-1.08-.44-.28-.29-.42-.65-.42-1.09v-15.45c0-.43.14-.8.42-1.09.28-.29.64-.44,1.08-.44s.79.15,1.08.44c.28.29.42.65.42,1.09v15.45c0,.43-.14.8-.42,1.09-.28.29-.64.44-1.08.44ZM303.3,196.92c.38,0,.72.16,1,.47.28.32.42.62.42.93,0,.4-.2.77-.6,1.12l-7.52,6.92-.12-3.45,5.72-5.53c.32-.32.68-.47,1.1-.47ZM303.67,210.27c-.43,0-.8-.17-1.1-.5l-4.62-4.9,2.28-2.1,4.5,4.9c.32.33.47.71.47,1.12s-.17.79-.51,1.06-.68.41-1.01.41Z"/>
          <path class="st6" d="M313.57,210.55c-1.42,0-2.65-.3-3.69-.89-1.04-.59-1.84-1.4-2.4-2.41s-.84-2.17-.84-3.45c0-1.5.3-2.78.91-3.84.61-1.06,1.4-1.87,2.39-2.44.98-.57,2.03-.85,3.12-.85.85,0,1.65.17,2.41.53.76.35,1.43.83,2.01,1.44s1.05,1.31,1.39,2.11.51,1.65.51,2.55c-.02.4-.17.72-.48.97-.3.25-.65.38-1.05.38h-9.55l-.75-2.5h9.17l-.55.5v-.67c-.03-.48-.2-.92-.51-1.3-.31-.38-.69-.69-1.15-.91-.46-.23-.95-.34-1.46-.34s-.97.07-1.4.2-.81.36-1.12.67-.57.74-.75,1.28-.27,1.21-.27,2.02c0,.9.19,1.66.56,2.29s.86,1.1,1.45,1.42c.59.33,1.22.49,1.89.49.62,0,1.11-.05,1.48-.15.37-.1.66-.22.89-.36.22-.14.43-.26.61-.36.3-.15.58-.22.85-.22.37,0,.67.12.91.38.24.25.36.54.36.88,0,.45-.23.86-.7,1.22-.43.37-1.04.69-1.83.96-.78.27-1.59.41-2.42.41Z"/>
        </g>
        <polygon class="st4" points="218.8 203.2 253.98 203.2 253.98 208.41 260.47 201.92 253.98 195.43 253.98 200.63 218.8 200.63 218.8 203.2"/>
        <path class="st10" d="M338.67,203.2h23.42c1.02-.02,2.04-.02,2.97-.43,1.88-.74,3.19-2.68,3.23-4.68.03-.5.04-1.01.04-1.53v-24.3c-.02-.68.01-1.4.34-2.01.3-.62.81-1.13,1.43-1.44.61-.33,1.32-.38,2.01-.36h13.59v5.2l6.49-6.49-6.49-6.49v5.2h-11.37c-.78,0-1.93-.01-2.92.01-1.01.01-2.02.16-2.9.67-.88.48-1.62,1.22-2.09,2.11-.5.89-.63,1.9-.65,2.91v5.49s-.01,10.3-.01,10.3v9.86c.08,1.39-.82,2.76-2.13,3.22-.65.26-1.36.19-2.04.2h-22.91v2.57Z"/>
        <path class="st10" d="M338.67,203.1h22.91c.68.01,1.39-.06,2.04.2,1.32.46,2.21,1.83,2.13,3.22v25.64c.02,1.01.16,2.02.66,2.91.47.89,1.21,1.63,2.09,2.11.88.5,1.89.66,2.9.67.99.02,2.14,0,2.92.01h11.37v5.2l6.49-6.49-6.49-6.49v5.2h-13.59c-.68.02-1.39-.02-2.01-.36-.61-.31-1.12-.82-1.43-1.44-.33-.61-.36-1.33-.34-2.01v-24.3c0-.51,0-1.03-.04-1.53-.04-2.01-1.35-3.94-3.23-4.68-.93-.41-1.94-.41-2.97-.43h-2.83s-20.59,0-20.59,0v2.57Z"/>
      </g>
      <path class="st8 arrow-path" d="M246,358.34c-4.39-1.47-8.45-4.46-12.03-7.42-5.02-4.16-9.58-8.87-13.84-13.8-9.16-10.62-17.34-22.61-22.81-35.57-2.48-5.89-4.54-12.27-4.59-18.72-.01-1.55-1.98-1.96-2.8-.76-3.15,4.67-6.31,9.33-9.46,14l2.59,1.51c3.11-4.74,6.31-9.41,9.42-14.14l-2.05.54c4.01,2.49,7.55,5.59,11.15,8.63,1.47,1.24,3.6-.87,2.12-2.12-3.79-3.2-7.54-6.48-11.76-9.1-.71-.44-1.62-.12-2.05.54-3.11,4.74-6.31,9.41-9.42,14.14-1.07,1.62,1.52,3.1,2.59,1.51,3.15-4.67,6.31-9.33,9.46-14l-2.8-.76c.04,5.93,1.68,11.79,3.8,17.29,2.55,6.61,5.88,12.92,9.61,18.93,7.48,12.06,16.6,23.57,27.37,32.86,4.35,3.75,9.17,7.47,14.68,9.32,1.83.62,2.62-2.28.8-2.89h0Z"/>
    </g>
    <g>
      <g>
        <g>
          <g>
            <path class="st12" d="M372.76,595.29c-1.31-7.72-2.6-15.45-3.86-23.18-2.52-15.46-4.92-30.94-7.21-46.43-1.87-12.64-3.66-25.29-5.38-37.95-.88-6.46-1.77-12.93-2.57-19.4-.03-.24-.06-.49-.09-.74l-19.52-7.96c-25.92,4.67-52.05,10.13-78.12,13.03-5.22.87-9.5.44-8.41,6.64,4.63,26.29,9.17,52.56,13.43,78.9,1.91,11.79,3.78,23.58,5.62,35.38.92,5.9,1.83,11.8,2.73,17.7.48,3.15.12,12.7,3.19,14.56.73.44,1.66.37,2.52.28,30.77-3.19,61.28-8.04,91.83-12.78,1.78-.28,3.63-.58,5.06-1.64.76-.56,1.31-1.25,1.71-2.02,2.05-4.05-.29-10.56-.94-14.38Z"/>
            <g>
              <path class="st1" d="M281.48,611.24c25.86-3.75,51.91-6.89,77.64-11.4"/>
              <path class="st1" d="M280.3,603.15c25.86-3.75,51.91-6.89,77.64-11.4"/>
              <path class="st1" d="M279.13,595.06c25.86-3.75,51.91-6.89,77.64-11.4"/>
              <path class="st1" d="M277.96,586.97c25.86-3.75,51.91-6.89,77.64-11.4"/>
              <path class="st1" d="M276.79,578.88c25.86-3.75,51.91-6.89,77.64-11.4"/>
              <path class="st1" d="M275.62,570.79c25.86-3.75,51.91-6.89,77.64-11.4"/>
              <path class="st1" d="M274.44,562.7c25.86-3.75,51.91-6.89,77.64-11.4"/>
              <path class="st1" d="M273.27,554.61c25.86-3.75,51.91-6.89,77.64-11.4"/>
              <path class="st1" d="M271.91,545.96c25.86-3.75,51.91-6.89,77.64-11.4"/>
              <path class="st1" d="M270.54,537.31c25.86-3.75,51.91-6.89,77.64-11.4"/>
              <path class="st1" d="M269.17,528.66c25.86-3.75,51.91-6.89,77.64-11.4"/>
              <path class="st1" d="M264.58,494.61c8.51-.99,16.97-2.41,25.45-3.7"/>
              <path class="st1" d="M263.41,486.53c11.11-1.32,22.18-2.95,33.2-4.91"/>
            </g>
          </g>
          <path class="st9" d="M334.03,459.69c.39-.94,16.4,3.21,19.38,7.56,2.94,4.29-28.48,14.65-19.38-7.56Z"/>
        </g>
        <g>
          <rect class="st9" x="57.78" y="555.23" width="248.65" height="58.75" rx="16.2" ry="16.2"/>
          <g>
            <path class="st6" d="M86.9,578.21c-.42,0-.76-.13-1.04-.38-.28-.26-.42-.59-.42-1.01s.14-.75.42-1c.28-.25.63-.37,1.04-.37h10.66c.42,0,.76.13,1.04.38s.42.59.42,1.01-.14.75-.42,1-.63.37-1.04.37h-10.66ZM92.21,592.25c-.45,0-.82-.14-1.1-.42s-.43-.63-.43-1.04v-13.92h3.12v13.92c0,.42-.15.76-.44,1.04s-.68.42-1.14.42Z"/>
            <path class="st6" d="M109.42,579.17c.42,0,.76.14,1.03.41.27.27.41.62.41,1.06v10.15c0,.42-.14.76-.41,1.04-.27.28-.62.42-1.03.42s-.76-.14-1.03-.42c-.27-.28-.41-.63-.41-1.04v-1.18l.53.22c0,.21-.11.46-.34.76-.22.3-.53.59-.91.88s-.84.53-1.36.73c-.52.2-1.08.3-1.69.3-1.1,0-2.1-.28-3-.85-.9-.57-1.6-1.35-2.12-2.35-.52-1-.78-2.15-.78-3.44s.26-2.47.78-3.47c.52-1,1.22-1.78,2.1-2.35.88-.57,1.86-.85,2.93-.85.69,0,1.32.1,1.9.31s1.08.47,1.5.79.75.64.98.97c.23.33.35.6.35.83l-.86.31v-1.75c0-.42.14-.76.41-1.04.27-.28.62-.42,1.03-.42ZM104.57,589.85c.7,0,1.32-.18,1.85-.53.53-.35.94-.83,1.24-1.44.3-.61.44-1.29.44-2.04s-.15-1.46-.44-2.06-.71-1.09-1.24-1.44c-.53-.35-1.14-.53-1.85-.53s-1.3.18-1.82.53c-.53.35-.94.83-1.24,1.44s-.44,1.3-.44,2.06.15,1.43.44,2.04c.3.61.71,1.09,1.24,1.44.53.35,1.14.53,1.82.53Z"/>
            <path class="st6" d="M115.65,592.25c-.42,0-.76-.14-1.03-.42-.27-.28-.41-.63-.41-1.04v-14.83c0-.42.14-.76.41-1.04.27-.28.62-.42,1.03-.42s.76.14,1.03.42c.27.28.41.63.41,1.04v14.83c0,.42-.14.76-.41,1.04-.27.28-.62.42-1.03.42ZM123.29,579.41c.37,0,.69.15.96.46.27.3.41.6.41.89,0,.38-.19.74-.58,1.08l-7.22,6.65-.12-3.31,5.5-5.3c.3-.3.66-.46,1.06-.46ZM123.65,592.22c-.42,0-.77-.16-1.06-.48l-4.44-4.7,2.18-2.02,4.32,4.7c.3.32.46.68.46,1.08s-.16.76-.49,1.02-.65.4-.97.4Z"/>
            <path class="st6" d="M133.15,592.49c-1.36,0-2.54-.28-3.54-.85-1-.57-1.77-1.34-2.3-2.32s-.8-2.08-.8-3.31c0-1.44.29-2.67.88-3.68s1.35-1.8,2.29-2.34,1.94-.82,3-.82c.82,0,1.59.17,2.32.5.73.34,1.37.8,1.93,1.38.56.58,1,1.26,1.33,2.03s.49,1.58.49,2.45c-.02.38-.17.7-.46.94s-.62.36-1.01.36h-9.17l-.72-2.4h8.81l-.53.48v-.65c-.03-.46-.2-.88-.49-1.25-.3-.37-.66-.66-1.1-.88-.44-.22-.91-.32-1.4-.32s-.93.06-1.34.19-.78.34-1.08.65c-.3.3-.54.71-.72,1.22-.18.51-.26,1.16-.26,1.94,0,.86.18,1.6.54,2.2.36.6.82,1.06,1.39,1.37.57.31,1.17.47,1.81.47.59,0,1.06-.05,1.42-.14s.64-.21.85-.35c.22-.14.41-.25.59-.35.29-.14.56-.22.82-.22.35,0,.64.12.88.36.23.24.35.52.35.84,0,.43-.22.82-.67,1.18-.42.35-1,.66-1.75.92-.75.26-1.53.4-2.33.4Z"/>
            <path class="st6" d="M142.37,586.32c-.42,0-.76-.14-1.04-.41-.28-.27-.42-.62-.42-1.03s.14-.76.42-1.02c.28-.26.63-.4,1.04-.4h4.18c.42,0,.76.14,1.04.42.28.28.42.63.42,1.04s-.14.73-.42,1c-.28.26-.63.4-1.04.4h-4.18Z"/>
            <path class="st6" d="M157.51,579.17c1.15,0,2.03.25,2.63.74.6.5,1.01,1.16,1.24,1.98.22.82.34,1.74.34,2.75v6.14c0,.42-.14.76-.41,1.04-.27.28-.62.42-1.03.42s-.76-.14-1.03-.42c-.27-.28-.41-.63-.41-1.04v-6.14c0-.53-.06-1-.19-1.43s-.36-.76-.7-1.02-.82-.38-1.44-.38-1.13.13-1.56.38c-.43.26-.76.6-.97,1.02-.22.42-.32.9-.32,1.43v6.14c0,.42-.14.76-.41,1.04-.27.28-.62.42-1.03.42s-.76-.14-1.03-.42-.41-.63-.41-1.04v-14.83c0-.42.14-.76.41-1.04s.62-.42,1.03-.42.76.14,1.03.42c.27.28.41.63.41,1.04v5.95l-.36-.07c.14-.27.34-.56.6-.88s.57-.6.94-.88c.37-.27.78-.49,1.22-.66s.94-.25,1.46-.25Z"/>
            <path class="st6" d="M177.29,585.84c0,1.31-.29,2.47-.88,3.47-.58,1-1.37,1.78-2.35,2.34-.98.56-2.08.84-3.3.84s-2.32-.28-3.3-.84c-.98-.56-1.77-1.34-2.35-2.34-.58-1-.88-2.16-.88-3.47s.29-2.47.88-3.47,1.37-1.78,2.35-2.35c.98-.57,2.08-.85,3.3-.85s2.32.28,3.3.85c.98.57,1.77,1.35,2.35,2.35s.88,2.16.88,3.47ZM174.41,585.84c0-.82-.16-1.52-.49-2.12-.33-.6-.77-1.07-1.32-1.4-.55-.34-1.16-.5-1.84-.5s-1.28.17-1.84.5c-.55.34-.99.8-1.32,1.4-.33.6-.49,1.31-.49,2.12s.16,1.5.49,2.1c.33.6.77,1.07,1.32,1.4.55.34,1.16.5,1.84.5s1.28-.17,1.84-.5.99-.8,1.32-1.4c.33-.6.49-1.3.49-2.1Z"/>
            <path class="st6" d="M186.55,579.17c1.28,0,2.22.31,2.83.92.61.62,1.01,1.41,1.2,2.39l-.41-.22.19-.38c.19-.37.49-.76.89-1.19s.88-.78,1.45-1.08c.57-.3,1.2-.44,1.91-.44,1.15,0,2.03.25,2.63.74s1.01,1.16,1.24,1.98c.22.82.34,1.74.34,2.75v6.14c0,.42-.14.76-.41,1.04-.27.28-.62.42-1.03.42s-.76-.14-1.03-.42c-.27-.28-.41-.63-.41-1.04v-6.14c0-.53-.06-1-.19-1.43s-.36-.76-.7-1.02-.82-.38-1.44-.38-1.13.13-1.56.38c-.43.26-.76.6-.97,1.02s-.32.9-.32,1.43v6.14c0,.42-.14.76-.41,1.04-.27.28-.62.42-1.03.42s-.76-.14-1.03-.42c-.27-.28-.41-.63-.41-1.04v-6.14c0-.53-.06-1-.19-1.43s-.36-.76-.7-1.02-.82-.38-1.44-.38-1.13.13-1.56.38c-.43.26-.76.6-.97,1.02-.22.42-.32.9-.32,1.43v6.14c0,.42-.14.76-.41,1.04-.27.28-.62.42-1.03.42s-.76-.14-1.03-.42-.41-.63-.41-1.04v-9.91c0-.42.14-.76.41-1.04s.62-.42,1.03-.42.76.14,1.03.42c.27.28.41.63.41,1.04v1.03l-.36-.07c.14-.27.34-.56.6-.88s.57-.6.94-.88c.37-.27.78-.49,1.22-.66s.94-.25,1.46-.25Z"/>
            <path class="st6" d="M207.98,592.49c-1.36,0-2.54-.28-3.54-.85-1-.57-1.77-1.34-2.3-2.32s-.8-2.08-.8-3.31c0-1.44.29-2.67.88-3.68s1.35-1.8,2.29-2.34,1.94-.82,3-.82c.82,0,1.59.17,2.32.5.73.34,1.37.8,1.93,1.38.56.58,1,1.26,1.33,2.03s.49,1.58.49,2.45c-.02.38-.17.7-.46.94s-.62.36-1.01.36h-9.17l-.72-2.4h8.81l-.53.48v-.65c-.03-.46-.2-.88-.49-1.25-.3-.37-.66-.66-1.1-.88-.44-.22-.91-.32-1.4-.32s-.93.06-1.34.19-.78.34-1.08.65c-.3.3-.54.71-.72,1.22-.18.51-.26,1.16-.26,1.94,0,.86.18,1.6.54,2.2.36.6.82,1.06,1.39,1.37.57.31,1.17.47,1.81.47.59,0,1.06-.05,1.42-.14s.64-.21.85-.35c.22-.14.41-.25.59-.35.29-.14.56-.22.82-.22.35,0,.64.12.88.36.23.24.35.52.35.84,0,.43-.22.82-.67,1.18-.42.35-1,.66-1.75.92-.75.26-1.53.4-2.33.4Z"/>
            <path class="st6" d="M222.96,579.65h5.69c.38,0,.7.13.96.38s.38.58.38.96-.13.68-.38.92-.58.37-.96.37h-5.69c-.38,0-.7-.13-.96-.38s-.38-.58-.38-.96.13-.68.38-.92.58-.37.96-.37ZM225.53,576.65c.42,0,.76.14,1.02.42s.4.63.4,1.04v10.68c0,.22.04.41.13.55.09.14.21.25.36.31s.32.1.49.1c.19,0,.37-.04.53-.11.16-.07.34-.11.55-.11.22,0,.43.1.61.31.18.21.28.5.28.86,0,.45-.24.82-.73,1.1-.49.29-1.01.43-1.57.43-.34,0-.71-.03-1.12-.08-.41-.06-.79-.19-1.15-.41-.36-.22-.66-.55-.9-1-.24-.45-.36-1.06-.36-1.85v-10.8c0-.42.14-.76.42-1.04.28-.28.63-.42,1.04-.42Z"/>
            <path class="st6" d="M244.97,585.84c0,1.31-.29,2.47-.88,3.47-.58,1-1.37,1.78-2.35,2.34-.98.56-2.08.84-3.3.84s-2.32-.28-3.3-.84c-.98-.56-1.77-1.34-2.35-2.34-.58-1-.88-2.16-.88-3.47s.29-2.47.88-3.47,1.37-1.78,2.35-2.35c.98-.57,2.08-.85,3.3-.85s2.32.28,3.3.85c.98.57,1.77,1.35,2.35,2.35s.88,2.16.88,3.47ZM242.09,585.84c0-.82-.16-1.52-.49-2.12-.33-.6-.77-1.07-1.32-1.4-.55-.34-1.16-.5-1.84-.5s-1.28.17-1.84.5c-.55.34-.99.8-1.32,1.4-.33.6-.49,1.31-.49,2.12s.16,1.5.49,2.1c.33.6.77,1.07,1.32,1.4.55.34,1.16.5,1.84.5s1.28-.17,1.84-.5.99-.8,1.32-1.4c.33-.6.49-1.3.49-2.1Z"/>
            <path class="st6" d="M259.94,585.84c0,1.31-.29,2.47-.88,3.47-.58,1-1.37,1.78-2.35,2.34-.98.56-2.08.84-3.3.84s-2.32-.28-3.3-.84c-.98-.56-1.77-1.34-2.35-2.34-.58-1-.88-2.16-.88-3.47s.29-2.47.88-3.47,1.37-1.78,2.35-2.35c.98-.57,2.08-.85,3.3-.85s2.32.28,3.3.85c.98.57,1.77,1.35,2.35,2.35s.88,2.16.88,3.47ZM257.06,585.84c0-.82-.16-1.52-.49-2.12-.33-.6-.77-1.07-1.32-1.4-.55-.34-1.16-.5-1.84-.5s-1.28.17-1.84.5c-.55.34-.99.8-1.32,1.4-.33.6-.49,1.31-.49,2.12s.16,1.5.49,2.1c.33.6.77,1.07,1.32,1.4.55.34,1.16.5,1.84.5s1.28-.17,1.84-.5.99-.8,1.32-1.4c.33-.6.49-1.3.49-2.1Z"/>
            <path class="st6" d="M265.58,590.78c0,.42-.14.76-.42,1.04s-.63.42-1.04.42-.74-.14-1.01-.42c-.27-.28-.41-.63-.41-1.04v-14.83c0-.42.14-.76.42-1.04s.63-.42,1.04-.42.76.14,1.02.42c.26.28.4.63.4,1.04v14.83Z"/>
            <path class="st6" d="M268.2,590.25c-.16-.22-.23-.51-.22-.86.02-.35.22-.66.62-.91.26-.16.53-.23.82-.2.29.02.57.17.84.44.46.46.95.82,1.46,1.08.51.26,1.15.38,1.92.38.24-.02.5-.05.79-.11s.54-.18.76-.38c.22-.2.32-.51.32-.92,0-.35-.12-.63-.36-.84-.24-.21-.56-.38-.95-.53-.39-.14-.83-.28-1.31-.41-.5-.14-1-.3-1.52-.48-.52-.18-1-.4-1.43-.68-.43-.28-.78-.65-1.06-1.12-.27-.46-.41-1.05-.41-1.75,0-.8.22-1.48.67-2.04.45-.56,1.03-.99,1.74-1.3s1.46-.46,2.24-.46c.5,0,1.02.06,1.56.18.54.12,1.06.31,1.56.58.5.26.91.61,1.25,1.04.18.24.28.53.31.86.03.34-.12.64-.46.91-.24.19-.52.28-.84.25-.32-.02-.58-.13-.79-.32-.27-.35-.64-.63-1.09-.84s-.98-.31-1.57-.31c-.24,0-.5.03-.78.08-.28.06-.52.18-.73.36-.21.18-.31.48-.31.88,0,.37.12.66.36.88.24.22.56.39.97.53.41.14.84.27,1.31.4.48.13.97.28,1.46.46.5.18.95.41,1.37.7s.75.66,1.01,1.12.38,1.04.38,1.74c0,.82-.24,1.51-.72,2.09-.48.58-1.08,1.01-1.8,1.31s-1.46.44-2.21.44c-.94,0-1.89-.16-2.83-.49s-1.73-.91-2.35-1.74Z"/>
          </g>
        </g>
      </g>
      <path class="st8 arrow-path" d="M489.98,441.3c.35,4.75-.81,9.56-2.16,14.08-1.86,6.21-4.41,12.19-7.3,17.99-6.3,12.66-14.22,24.91-24.15,35.03-4.52,4.61-9.61,8.94-15.6,11.5-1.18.5-.84,2.5.36,2.74,5.52,1.1,11.04,2.21,16.57,3.31l.8-2.89c-5.57-1.03-11.12-2.18-16.69-3.22l1.05,1.85c.77-4.79,2.3-9.38,3.75-13.99.58-1.85-2.32-2.64-2.89-.8-1.45,4.61-2.98,9.21-3.75,13.99-.12.75.18,1.68,1.05,1.85,5.57,1.03,11.12,2.18,16.69,3.22,1.88.35,2.7-2.51.8-2.89-5.52-1.1-11.04-2.21-16.57-3.31l.36,2.74c5.4-2.31,10.12-6.09,14.33-10.12,5.11-4.89,9.61-10.42,13.72-16.18,8.23-11.54,15.25-24.36,19.7-37.85,1.78-5.39,3.37-11.3,2.95-17.04-.14-1.91-3.14-1.93-3,0h0Z"/>
    </g>
  </g>
</svg>