<?xml version="1.0" encoding="UTF-8"?>
<svg id="Layer_1" xmlns="http://www.w3.org/2000/svg" version="1.1" viewBox="0 0 829 589.51">
  <!-- Generator: Adobe Illustrator 29.7.1, SVG Export Plug-In . SVG Version: 2.1.1 Build 8)  -->
  <defs>
    <style>
      .st0 {
        fill: #fff;
      }

      .st1 {
        fill: #f7008d;
      }

      .st2 {
        fill: none;
        stroke: #f7008d;
        stroke-linecap: round;
        stroke-miterlimit: 10;
        stroke-width: 2.76px;
      }

      .st3 {
        fill: #05d4bd;
      }

      .st4 {
        fill: #f9a700;
      }
    </style>
  </defs>
  <path class="st1" d="M698.8,249.08l-19.64,5.8c-4.44,1.31-8.53-2.89-7.11-7.29l6.3-19.48c.55-1.7.28-3.55-.73-5.03l-11.59-16.88c-2.62-3.82.11-9,4.74-9.01l20.48-.03c1.78,0,3.47-.83,4.55-2.25l12.48-16.24c2.82-3.67,8.6-2.68,10.03,1.72l6.36,19.46c.55,1.7,1.86,3.04,3.55,3.64l19.3,6.85c4.36,1.55,5.2,7.35,1.46,10.07l-16.55,12.06c-1.44,1.05-2.31,2.71-2.36,4.5l-.55,20.47c-.12,4.63-5.38,7.22-9.13,4.51l-16.59-12.01c-1.45-1.05-3.29-1.36-5.01-.86Z"/>
  <path class="st3" d="M740.09,496.75c-5.24.28-10.77-.21-16.02-.4-71.96-2.41-159.5-5.46-231.46-7.87-122.72-4.11-39.64-1.33-162.37-5.44-93.03-3.11,31.74,1.06-61.28-2.05-44.41-1.49-88.82-2.97-133.23-4.46-10.29-.34-53.37-1.79-63.65-2.13-13.21-.44-23.56-11.51-23.12-24.71.58-17.46,2.01-42.8,25.35-42.02,33.77,1.13,100.34,3.36,134.11,4.49,121.95,4.08,26.11.87,148.06,4.96,58.58,1.96,117.15,3.92,175.73,5.88,117.17,3.92,28.54.95,145.72,4.86,13.68.46,42.94,1.44,56.63,1.89,15.52.52,31.5,6.56,30.88,25-.34,10.16-.1,22.01-5.24,31.15-4.57,8.14-12,10.42-20.11,10.85Z"/>
  <g>
    <path class="st0" d="M345.25,444.94c1.54,0,2.68.36,3.43,1.09.75.72,1.12,1.79,1.12,3.19,0,.75-.19,1.41-.56,1.98-.37.57-.91,1.01-1.63,1.32s-1.61.46-2.67.46l.1-1.08c.5,0,1.06.07,1.7.21s1.26.38,1.86.72c.6.35,1.09.83,1.48,1.44.39.62.59,1.4.58,2.36,0,1.06-.18,1.92-.52,2.59-.35.67-.8,1.19-1.36,1.56-.56.37-1.16.62-1.8.75-.64.13-1.26.2-1.85.2h-5.98c-.42-.01-.76-.15-1.04-.43-.28-.28-.42-.63-.42-1.04l.03-13.87c0-.42.14-.76.42-1.04.28-.28.63-.42,1.04-.42h6.05ZM344.82,447.77h-4.27s.31-.39.31-.39v4.34s-.3-.22-.3-.22h4.32c.46,0,.88-.14,1.25-.45.37-.3.55-.74.55-1.32,0-.69-.17-1.19-.51-1.5-.34-.31-.79-.47-1.35-.47ZM345,454.35h-4.37s.22-.2.22-.2v5.06s-.25-.24-.25-.24h4.56c.74,0,1.32-.19,1.75-.58.43-.39.65-.98.65-1.76,0-.72-.14-1.24-.43-1.56s-.63-.52-1.03-.6c-.4-.08-.77-.12-1.1-.12Z"/>
    <path class="st0" d="M365.63,455.37c0,1.31-.3,2.47-.88,3.47-.59,1-1.37,1.78-2.36,2.34-.98.56-2.09.84-3.3.83s-2.32-.29-3.3-.85c-.98-.56-1.77-1.34-2.35-2.35-.58-1-.87-2.16-.87-3.47,0-1.31.3-2.47.88-3.46.59-1,1.37-1.78,2.36-2.35.99-.57,2.09-.85,3.3-.85s2.32.29,3.3.86c.98.57,1.77,1.36,2.35,2.36.58,1,.87,2.16.87,3.47ZM362.75,455.36c0-.81-.16-1.52-.49-2.12-.33-.6-.77-1.07-1.32-1.4-.55-.34-1.16-.51-1.84-.51-.67,0-1.28.17-1.84.5-.55.33-.99.8-1.32,1.4-.33.6-.49,1.31-.5,2.12,0,.8.16,1.5.49,2.1.33.6.77,1.07,1.32,1.41.55.34,1.16.51,1.83.51.67,0,1.28-.17,1.84-.5.55-.34.99-.8,1.32-1.4.33-.6.49-1.3.5-2.1Z"/>
    <path class="st0" d="M368.31,449.18h5.69c.38.01.7.14.96.4.26.26.38.58.38.96,0,.37-.13.68-.39.92-.26.25-.58.37-.96.37h-5.69c-.38-.01-.7-.14-.96-.4-.26-.26-.38-.58-.38-.96,0-.37.13-.68.39-.92.26-.25.58-.37.96-.37ZM370.88,446.19c.42,0,.76.14,1.02.42s.39.63.39,1.04l-.02,10.68c0,.22.04.41.13.55.09.14.21.25.36.31.15.06.32.1.49.1.19,0,.37-.04.53-.11.16-.07.34-.11.55-.11.22,0,.43.11.61.31.18.21.28.5.27.87,0,.45-.25.82-.73,1.1-.49.29-1.01.43-1.57.43-.34,0-.71-.03-1.12-.09s-.79-.19-1.15-.41c-.36-.22-.66-.55-.9-1-.24-.45-.36-1.06-.36-1.85l.02-10.8c0-.42.14-.76.42-1.04.28-.28.63-.42,1.04-.42Z"/>
    <path class="st0" d="M384.73,448.73c1.15,0,2.03.25,2.63.75.6.5,1.01,1.16,1.23,1.98s.33,1.74.33,2.75v6.14c-.01.42-.15.76-.42,1.04-.27.28-.62.42-1.03.42-.42,0-.76-.14-1.03-.42-.27-.28-.41-.63-.41-1.04v-6.14c.01-.53-.05-1-.18-1.43-.13-.42-.36-.76-.69-1.02-.34-.26-.81-.38-1.44-.39-.61,0-1.13.13-1.56.38-.43.25-.76.59-.97,1.02-.22.42-.33.9-.33,1.43v6.14c-.01.42-.15.76-.42,1.04-.27.28-.62.42-1.03.42-.42,0-.76-.14-1.03-.42-.27-.28-.41-.63-.41-1.04l.03-14.83c0-.42.14-.76.41-1.04.27-.28.62-.42,1.03-.42.42,0,.76.14,1.03.42.27.28.41.63.41,1.04v5.95s-.37-.07-.37-.07c.15-.27.35-.56.6-.87.26-.31.57-.6.94-.88.37-.27.78-.49,1.23-.66.45-.17.94-.25,1.46-.25Z"/>
    <path class="st0" d="M405.51,448.77c1.28,0,2.22.31,2.83.93.61.62,1.01,1.41,1.2,2.39l-.41-.22.19-.38c.19-.37.49-.76.89-1.19.4-.42.89-.78,1.45-1.08s1.2-.44,1.91-.44c1.15,0,2.03.25,2.63.75s1.01,1.16,1.23,1.98.33,1.74.33,2.75v6.14c-.01.42-.15.76-.42,1.04-.27.28-.62.42-1.03.42-.42,0-.76-.14-1.03-.42-.27-.28-.41-.63-.41-1.04v-6.14c.01-.53-.05-1-.18-1.43-.13-.42-.36-.76-.69-1.02-.34-.26-.81-.38-1.44-.39-.61,0-1.13.13-1.56.38-.43.26-.76.6-.97,1.02-.22.42-.33.9-.33,1.43v6.14c-.01.42-.15.76-.42,1.04-.27.28-.62.42-1.03.42-.42,0-.76-.14-1.03-.42-.27-.28-.41-.63-.41-1.04v-6.14c.01-.53-.05-1-.18-1.43-.13-.42-.36-.76-.69-1.02-.34-.26-.81-.39-1.44-.39-.61,0-1.13.13-1.56.38-.43.25-.76.59-.97,1.02-.22.42-.33.9-.33,1.43v6.14c-.01.42-.15.76-.42,1.04-.27.28-.62.42-1.03.42-.42,0-.76-.14-1.03-.42-.27-.28-.41-.63-.41-1.04l.02-9.91c0-.42.14-.76.41-1.04.27-.28.62-.42,1.03-.42.42,0,.76.14,1.03.42.27.28.41.63.41,1.04v1.03s-.36-.07-.36-.07c.15-.27.35-.56.6-.88.26-.31.57-.6.94-.88.37-.27.78-.49,1.23-.66.45-.17.94-.25,1.46-.25Z"/>
    <path class="st0" d="M431.41,448.82c.42,0,.76.14,1.03.41.27.27.41.62.41,1.06l-.02,10.15c0,.42-.14.76-.41,1.04-.27.28-.62.42-1.03.42-.42,0-.76-.14-1.03-.42-.27-.28-.41-.63-.41-1.04v-1.18s.53.22.53.22c0,.21-.11.46-.34.76-.23.29-.53.59-.91.87-.38.29-.84.53-1.36.73-.52.2-1.08.3-1.69.3-1.1,0-2.1-.29-3-.86-.9-.57-1.6-1.35-2.12-2.36-.52-1-.78-2.15-.77-3.45,0-1.31.26-2.47.79-3.47.52-1,1.22-1.78,2.1-2.35.88-.57,1.86-.85,2.93-.85.69,0,1.32.11,1.9.31.58.21,1.07.47,1.5.79.42.32.75.65.98.97.23.33.35.61.35.83l-.87.31v-1.75c0-.42.14-.76.41-1.04.27-.28.62-.42,1.03-.42ZM426.54,459.49c.7,0,1.32-.17,1.85-.52.53-.35.94-.83,1.24-1.44.3-.61.45-1.29.45-2.04,0-.77-.15-1.46-.44-2.06-.3-.61-.71-1.09-1.23-1.44s-1.14-.53-1.85-.53c-.69,0-1.3.17-1.83.52-.53.35-.94.83-1.24,1.44-.3.61-.45,1.29-.45,2.06,0,.75.14,1.43.44,2.04.29.61.71,1.09,1.23,1.44.53.35,1.13.53,1.82.53Z"/>
    <path class="st0" d="M436.11,449.31h5.69c.38.01.7.14.96.4s.38.58.38.96c0,.37-.13.68-.39.92-.26.25-.58.37-.96.37h-5.69c-.38-.01-.7-.14-.96-.4-.26-.26-.38-.58-.38-.96,0-.37.13-.67.39-.92.26-.25.58-.37.96-.37ZM438.68,446.31c.42,0,.76.14,1.02.42s.4.63.39,1.04l-.02,10.68c0,.22.04.41.13.55.09.14.21.25.36.31.15.06.32.1.49.1.19,0,.37-.04.53-.11.16-.07.34-.11.55-.11.22,0,.43.11.61.31.18.21.27.5.27.86,0,.45-.25.82-.73,1.1-.49.29-1.01.43-1.57.43-.34,0-.71-.03-1.12-.09-.41-.06-.79-.2-1.15-.41-.36-.22-.66-.55-.9-1-.24-.45-.36-1.06-.36-1.85l.02-10.8c0-.42.14-.76.42-1.04.28-.28.63-.42,1.05-.42Z"/>
    <path class="st0" d="M445.93,449.33h5.69c.38.01.7.14.96.4.26.26.38.58.38.96,0,.37-.13.67-.39.92-.26.25-.58.37-.96.37h-5.69c-.38-.01-.7-.14-.96-.4s-.38-.58-.38-.96c0-.37.13-.68.39-.92.26-.25.58-.37.96-.37ZM448.5,446.33c.42,0,.75.14,1.02.42.26.28.4.63.39,1.04l-.02,10.68c0,.22.04.41.13.55.09.14.21.25.36.31.15.06.32.1.49.1.19,0,.37-.04.53-.11.16-.07.34-.11.55-.11.22,0,.43.11.61.31.18.21.27.5.27.87,0,.45-.25.82-.73,1.1s-1.01.43-1.57.43c-.34,0-.71-.03-1.12-.09-.41-.06-.79-.19-1.15-.41-.36-.22-.66-.55-.9-1-.24-.45-.36-1.06-.36-1.85l.02-10.8c0-.42.14-.76.42-1.04.28-.28.63-.42,1.05-.42Z"/>
    <path class="st0" d="M461.5,462.2c-1.36,0-2.54-.29-3.54-.86-1-.57-1.77-1.34-2.3-2.32s-.8-2.08-.8-3.31c0-1.44.3-2.67.88-3.68.59-1.01,1.35-1.79,2.3-2.33.95-.54,1.95-.81,3-.81.82,0,1.59.17,2.32.51.73.34,1.37.8,1.93,1.38.56.59,1,1.26,1.33,2.03.33.77.49,1.58.49,2.45-.02.38-.17.7-.46.93-.29.24-.62.36-1.01.36l-9.17-.02-.72-2.4,8.81.02-.53.48v-.65c-.03-.46-.19-.88-.49-1.25-.29-.37-.66-.66-1.1-.88s-.91-.33-1.4-.33c-.48,0-.93.06-1.34.19-.42.13-.78.34-1.08.65s-.54.71-.72,1.22c-.18.51-.27,1.16-.27,1.94,0,.86.18,1.6.54,2.2.36.6.82,1.06,1.39,1.37.57.31,1.17.47,1.81.47.59,0,1.06-.05,1.42-.14.35-.1.64-.21.85-.35.22-.13.41-.25.59-.35.29-.14.56-.21.82-.21.35,0,.64.12.88.36s.35.52.35.84c0,.43-.23.82-.67,1.18-.42.35-1,.66-1.75.92-.75.26-1.53.39-2.33.39Z"/>
    <path class="st0" d="M471.05,461.97c-.42,0-.76-.14-1.03-.42-.27-.28-.41-.63-.41-1.04l.02-9.91c0-.42.14-.76.41-1.04.27-.28.62-.42,1.03-.42.42,0,.76.14,1.03.42.27.28.41.63.41,1.04v2.26s-.17-1.61-.17-1.61c.18-.38.41-.72.69-1.02s.6-.54.95-.74c.35-.2.73-.35,1.13-.44.4-.1.8-.14,1.2-.14.48,0,.88.14,1.21.41.33.27.49.59.49.96,0,.53-.14.91-.41,1.14-.27.23-.57.35-.89.35-.3,0-.58-.06-.83-.17-.25-.11-.53-.17-.85-.17-.29,0-.58.07-.88.2-.3.13-.57.35-.82.63-.25.29-.45.64-.6,1.07s-.23.92-.23,1.5v5.69c-.01.42-.15.76-.42,1.04s-.62.42-1.03.42Z"/>
  </g>
  <path class="st1" d="M496.97,225.25c-15.34-2.5-29.57,11.15-29.48,28.47.44,84.23,54.69,156.73,131.99,169.33,77.31,12.6,151.76-38.94,178.92-118.67,5.58-16.39-3.58-33.85-18.92-36.35l-262.52-42.78Z"/>
  <g>
    <path class="st0" d="M574.63,300.6c.83,0,1.61.24,2.34.72.73.48,1.31,1.13,1.76,1.95.45.82.67,1.73.67,2.74,0,.99-.23,1.9-.68,2.71-.45.82-1.04,1.47-1.77,1.95-.73.49-1.51.73-2.34.73h-4.42s.24-.44.24-.44v4.97c-.01.42-.14.76-.4,1.04-.26.28-.59.42-1.01.42-.4,0-.73-.14-.98-.42-.26-.28-.38-.63-.38-1.04l.03-13.87c0-.42.14-.76.42-1.04.28-.28.63-.42,1.04-.42h5.47ZM574.61,308.67c.3,0,.6-.13.89-.38.29-.26.53-.59.72-1s.29-.83.29-1.28c0-.46-.09-.9-.29-1.3-.19-.4-.43-.72-.72-.97-.29-.25-.58-.37-.89-.37h-4.46s.29-.44.29-.44v6.12s-.27-.39-.27-.39h4.44Z"/>
    <path class="st0" d="M583.33,317.42c-.42,0-.76-.14-1.03-.42-.27-.28-.41-.63-.41-1.04l.02-9.91c0-.42.14-.76.41-1.04.27-.28.62-.42,1.03-.42s.76.14,1.03.42c.27.28.41.63.41,1.04v2.26s-.17-1.61-.17-1.61c.18-.38.4-.72.69-1.02.28-.3.6-.54.95-.74.35-.2.73-.35,1.13-.44.4-.1.8-.14,1.2-.14.48,0,.88.14,1.21.41.33.27.49.59.49.96,0,.53-.14.91-.41,1.14-.27.23-.57.35-.89.35-.3,0-.58-.06-.83-.17s-.53-.17-.85-.17c-.29,0-.58.07-.88.2s-.57.35-.82.63c-.25.29-.45.64-.6,1.07-.15.42-.23.92-.23,1.5v5.69c-.01.42-.15.76-.42,1.04-.27.28-.62.42-1.03.42Z"/>
    <path class="st0" d="M598.84,317.69c-1.36,0-2.54-.29-3.54-.86-1-.57-1.77-1.34-2.3-2.32-.53-.98-.8-2.08-.8-3.31,0-1.44.3-2.67.88-3.68s1.35-1.79,2.3-2.34,1.95-.81,3-.81c.82,0,1.59.17,2.32.51.73.34,1.37.8,1.93,1.38.56.59,1,1.26,1.33,2.03.33.77.49,1.58.49,2.45-.02.38-.17.69-.46.93-.29.24-.62.36-1.01.36l-9.17-.02-.72-2.4,8.81.02-.53.48v-.65c-.03-.46-.19-.88-.49-1.25s-.66-.66-1.1-.88c-.44-.22-.91-.33-1.4-.33-.48,0-.93.06-1.34.19s-.78.34-1.08.65c-.31.3-.55.71-.72,1.22-.18.51-.27,1.16-.27,1.94,0,.86.18,1.6.54,2.2.36.6.82,1.06,1.39,1.37.57.31,1.17.47,1.81.47.59,0,1.06-.05,1.42-.14.35-.09.64-.21.85-.35.22-.14.41-.25.59-.35.29-.14.56-.21.82-.21.35,0,.64.12.88.36.23.24.35.52.35.84,0,.43-.23.82-.67,1.17-.42.35-1,.66-1.75.92-.75.26-1.53.39-2.33.39Z"/>
    <path class="st0" d="M614.1,304.4c1.12,0,2.12.29,3.01.86.89.57,1.59,1.35,2.11,2.34.52.99.78,2.15.77,3.46,0,1.31-.27,2.47-.79,3.47-.52,1-1.22,1.78-2.09,2.35-.87.57-1.85.85-2.94.85-.64,0-1.24-.11-1.8-.32-.56-.21-1.05-.47-1.47-.79-.42-.32-.75-.64-.98-.97-.23-.33-.35-.6-.35-.83l.75-.31v6.31c-.01.42-.15.76-.42,1.04-.27.28-.62.42-1.03.42s-.76-.14-1.03-.41c-.27-.27-.41-.62-.41-1.06l.03-14.71c0-.42.14-.76.41-1.04.27-.28.62-.42,1.03-.42s.76.14,1.03.42c.27.28.41.63.41,1.04v1.18s-.41-.22-.41-.22c0-.21.11-.46.34-.75.22-.3.53-.59.91-.89.38-.3.83-.54,1.33-.73.5-.19,1.04-.29,1.6-.29ZM613.74,307.04c-.7,0-1.32.17-1.85.52-.53.35-.94.83-1.24,1.43-.3.6-.45,1.28-.45,2.05,0,.75.14,1.44.44,2.05.29.62.71,1.1,1.23,1.45.53.35,1.14.53,1.85.53.7,0,1.32-.17,1.84-.52s.93-.83,1.23-1.45c.3-.62.45-1.3.45-2.05,0-.77-.15-1.45-.44-2.05-.3-.6-.7-1.08-1.22-1.43-.52-.35-1.13-.53-1.83-.53Z"/>
    <path class="st0" d="M633.04,304.43c.42,0,.76.14,1.03.41.27.27.41.62.41,1.06l-.02,10.15c0,.42-.14.76-.41,1.04-.27.28-.62.42-1.03.42-.42,0-.76-.14-1.03-.42-.27-.28-.41-.63-.41-1.04v-1.18s.53.22.53.22c0,.21-.11.46-.34.76-.22.29-.53.59-.91.87-.38.29-.84.53-1.36.73-.52.2-1.08.3-1.69.3-1.1,0-2.1-.29-3-.86-.9-.57-1.6-1.35-2.12-2.36-.52-1-.78-2.15-.77-3.45,0-1.31.26-2.47.79-3.47.52-1,1.22-1.78,2.1-2.35.88-.57,1.86-.85,2.93-.85.69,0,1.32.11,1.9.32.58.21,1.08.47,1.5.79.42.32.75.65.98.97.23.33.35.61.35.83l-.87.31v-1.75c0-.42.14-.76.41-1.04.27-.28.62-.42,1.03-.42ZM628.17,315.11c.7,0,1.32-.17,1.85-.52.53-.35.94-.83,1.24-1.44.3-.61.45-1.29.45-2.04,0-.77-.15-1.46-.44-2.06-.29-.61-.71-1.09-1.23-1.44-.53-.35-1.14-.53-1.85-.53-.69,0-1.3.17-1.82.52-.53.35-.94.83-1.24,1.44-.3.61-.45,1.29-.45,2.06,0,.75.15,1.43.44,2.04.29.61.71,1.09,1.23,1.44.53.35,1.13.53,1.82.53Z"/>
    <path class="st0" d="M639.01,317.53c-.42,0-.76-.14-1.03-.42-.27-.28-.41-.63-.41-1.04l.02-9.91c0-.42.14-.76.41-1.04.27-.28.62-.42,1.03-.42.42,0,.76.14,1.03.42.27.28.41.63.41,1.04v2.26s-.17-1.61-.17-1.61c.18-.38.4-.72.69-1.02.28-.29.6-.54.95-.74.35-.2.73-.35,1.13-.44.4-.1.8-.14,1.2-.14.48,0,.88.14,1.21.41.33.27.49.59.49.96,0,.53-.14.91-.41,1.14-.27.23-.57.35-.89.35-.3,0-.58-.06-.83-.17-.25-.11-.53-.17-.85-.17-.29,0-.58.07-.88.2s-.57.35-.82.63c-.25.29-.45.64-.6,1.07-.15.42-.23.92-.23,1.5v5.69c-.01.42-.15.76-.42,1.04-.27.28-.62.42-1.03.42Z"/>
    <path class="st0" d="M649.26,303.14c-.54,0-.93-.09-1.15-.27-.22-.18-.33-.49-.33-.94v-.46c0-.46.13-.78.38-.95.25-.17.63-.25,1.14-.25.56,0,.95.09,1.17.27s.33.49.33.94v.46c0,.46-.12.78-.36.95-.24.17-.63.25-1.18.25ZM650.7,316.08c0,.42-.14.76-.41,1.04-.27.28-.62.42-1.03.42-.42,0-.76-.14-1.03-.42-.27-.28-.41-.63-.41-1.04l.02-9.91c0-.42.14-.76.41-1.04.27-.28.62-.42,1.03-.42.42,0,.76.14,1.03.42.27.28.41.63.41,1.04l-.02,9.91Z"/>
    <path class="st0" d="M660.54,304.49c1.18,0,2.08.25,2.7.75.62.5,1.04,1.16,1.27,1.98s.34,1.74.34,2.75v6.14c-.01.42-.15.76-.42,1.04-.27.28-.62.42-1.03.42s-.76-.14-1.03-.42c-.27-.28-.41-.63-.41-1.04v-6.14c.01-.53-.05-1-.19-1.43-.14-.42-.38-.76-.73-1.02-.35-.26-.86-.39-1.51-.39-.64,0-1.18.13-1.62.38-.44.25-.78.59-1.01,1.02-.23.42-.35.9-.35,1.43v6.14c-.01.42-.15.76-.42,1.04-.27.28-.62.42-1.03.42s-.76-.14-1.03-.42c-.27-.28-.41-.63-.41-1.04l.02-9.91c0-.42.14-.76.41-1.04.27-.28.62-.42,1.03-.42s.76.14,1.03.42c.27.28.41.63.41,1.04v1.03s-.36-.07-.36-.07c.14-.27.35-.56.63-.88.27-.31.59-.6.96-.87.37-.27.78-.49,1.25-.66.46-.17.97-.25,1.51-.25Z"/>
    <path class="st0" d="M673.31,304.51c.67,0,1.29.11,1.85.32.56.21,1.04.47,1.45.79.41.32.73.65.96.97.23.33.35.61.35.83l-.62.31v-1.75c0-.42.14-.76.41-1.04.27-.28.62-.42,1.03-.42.42,0,.76.14,1.03.41.27.27.41.62.41,1.06l-.02,10.68c0,1.39-.3,2.51-.91,3.35-.6.84-1.39,1.45-2.37,1.82-.98.37-2.03.56-3.15.56-.32,0-.74-.04-1.25-.12s-1-.18-1.46-.29c-.46-.11-.82-.22-1.06-.31-.48-.21-.81-.47-.99-.78-.18-.31-.22-.65-.11-1,.15-.46.38-.78.7-.95.32-.17.66-.19,1.01-.06.16.05.42.14.79.29s.77.28,1.21.4c.44.12.83.18,1.16.18,1.2,0,2.09-.24,2.67-.71.58-.48.87-1.14.87-1.99v-2.09s.29.22.29.22c0,.21-.11.46-.33.76-.22.29-.51.59-.89.87-.38.29-.82.53-1.33.73-.51.2-1.06.3-1.63.3-1.14,0-2.16-.29-3.07-.86-.91-.57-1.63-1.35-2.16-2.36s-.79-2.15-.79-3.45c0-1.31.27-2.47.8-3.47s1.24-1.78,2.14-2.35c.9-.57,1.9-.85,3-.85ZM673.76,307.15c-.72,0-1.35.17-1.9.52-.54.35-.97.83-1.27,1.44-.31.61-.46,1.29-.46,2.06,0,.75.15,1.43.45,2.04.3.61.73,1.09,1.27,1.44.54.35,1.17.53,1.89.53.74,0,1.38-.17,1.92-.52.54-.35.97-.83,1.28-1.44.3-.61.46-1.29.46-2.04,0-.77-.15-1.46-.45-2.06-.3-.61-.73-1.09-1.27-1.44-.54-.35-1.18-.53-1.92-.53Z"/>
    <path class="st0" d="M574.25,334.8c.38,0,.7.13.96.37.25.25.38.56.38.95s-.13.7-.39.95c-.26.25-.58.37-.96.37h-6.36c-.38-.01-.7-.14-.96-.39-.25-.25-.38-.57-.38-.95s.13-.7.39-.95c.26-.25.58-.37.96-.37h6.36ZM574,329.64c.35,0,.7.05,1.03.15s.62.25.84.47c.22.22.33.5.33.85,0,.4-.12.72-.35.95s-.5.35-.8.35c-.14,0-.36-.04-.65-.11s-.57-.11-.84-.11c-.4,0-.71.09-.92.26-.22.18-.37.38-.44.61-.08.23-.12.44-.12.61l-.02,12.26c0,.42-.14.76-.41,1.04-.27.28-.62.42-1.03.42s-.76-.14-1.03-.42c-.27-.28-.41-.63-.41-1.04l.02-12.24c0-1.14.4-2.1,1.2-2.88.8-.78,2-1.17,3.6-1.17Z"/>
    <path class="st0" d="M589.6,341.02c0,1.31-.3,2.47-.88,3.47-.59,1-1.37,1.78-2.36,2.34-.99.56-2.08.84-3.3.83-1.22,0-2.32-.28-3.3-.85-.98-.56-1.77-1.34-2.35-2.35-.58-1-.87-2.16-.87-3.47,0-1.31.3-2.47.88-3.47.59-1,1.37-1.78,2.36-2.35.98-.57,2.08-.85,3.3-.85,1.22,0,2.32.29,3.3.86.98.57,1.76,1.35,2.35,2.36s.87,2.16.87,3.47ZM586.72,341.02c0-.82-.16-1.52-.49-2.12-.33-.6-.77-1.07-1.32-1.41-.55-.34-1.16-.51-1.83-.51-.67,0-1.28.17-1.84.5-.55.33-.99.8-1.32,1.4-.33.6-.5,1.31-.5,2.12,0,.8.16,1.5.49,2.1.33.6.77,1.07,1.32,1.41.55.34,1.16.51,1.83.51.67,0,1.28-.17,1.84-.5.55-.33.99-.8,1.32-1.4.33-.6.5-1.3.5-2.1Z"/>
    <path class="st0" d="M593.55,347.44c-.42,0-.76-.14-1.03-.42-.27-.28-.41-.63-.41-1.04l.02-9.91c0-.42.14-.76.41-1.04.27-.28.62-.42,1.03-.42s.76.14,1.03.42c.27.28.41.63.41,1.04v2.26s-.17-1.61-.17-1.61c.18-.38.4-.72.69-1.02.28-.29.6-.54.95-.74.35-.2.73-.35,1.13-.44.4-.1.8-.14,1.2-.14.48,0,.88.14,1.21.41.33.27.49.59.49.96,0,.53-.14.91-.41,1.14-.27.23-.57.35-.89.35-.3,0-.58-.06-.83-.17-.25-.11-.53-.17-.85-.17-.29,0-.58.07-.88.2s-.57.35-.82.63c-.25.29-.45.64-.6,1.07-.15.42-.23.92-.23,1.5v5.69c-.01.42-.15.76-.42,1.04-.27.28-.62.42-1.03.42Z"/>
    <path class="st0" d="M612.37,346.01c0,.42-.14.76-.42,1.04-.28.28-.63.42-1.04.42-.4,0-.74-.14-1.01-.42-.27-.28-.41-.63-.41-1.04l.03-14.83c0-.42.14-.76.42-1.04.28-.28.63-.42,1.04-.42.42,0,.76.14,1.02.42.26.28.39.63.39,1.04l-.03,14.83Z"/>
    <path class="st0" d="M617,333.08c-.54,0-.93-.09-1.15-.27s-.33-.49-.33-.94v-.46c0-.46.13-.78.38-.95.25-.17.63-.25,1.14-.25.56,0,.95.09,1.18.27.22.18.33.49.33.94v.46c0,.46-.12.78-.36.95-.24.17-.63.25-1.18.25ZM618.44,346.02c0,.42-.14.76-.41,1.04-.27.28-.62.42-1.03.42s-.76-.14-1.03-.42c-.27-.28-.41-.63-.41-1.04l.02-9.91c0-.42.14-.76.41-1.04.27-.28.62-.42,1.03-.42s.76.14,1.03.42c.27.28.41.63.41,1.04l-.02,9.91Z"/>
    <path class="st0" d="M629.23,334.91c.38,0,.7.12.96.37.25.25.38.56.38.95s-.13.7-.39.95c-.26.25-.58.37-.96.37h-6.36c-.38-.01-.7-.14-.96-.39-.25-.25-.38-.57-.38-.95s.13-.7.39-.95c.26-.25.58-.37.96-.37h6.36ZM628.98,329.75c.35,0,.7.05,1.03.15.34.1.62.25.84.47s.33.5.33.85c0,.4-.12.72-.35.95-.23.23-.5.35-.8.35-.14,0-.36-.04-.65-.11-.29-.07-.57-.11-.84-.11-.4,0-.71.09-.92.26s-.37.38-.44.61c-.08.23-.12.43-.12.61l-.02,12.26c0,.42-.14.76-.41,1.04-.27.28-.62.42-1.03.42s-.76-.14-1.03-.42c-.27-.28-.41-.63-.41-1.04l.02-12.24c0-1.14.4-2.09,1.2-2.88.8-.78,2-1.17,3.6-1.17Z"/>
    <path class="st0" d="M639.84,347.77c-1.36,0-2.54-.29-3.54-.86-1-.57-1.77-1.34-2.3-2.32s-.8-2.08-.8-3.31c0-1.44.3-2.67.88-3.68s1.35-1.79,2.3-2.33c.95-.54,1.95-.81,3-.81.82,0,1.59.17,2.32.51.73.34,1.37.8,1.93,1.38.56.59,1,1.26,1.33,2.03.33.77.49,1.58.49,2.45-.02.38-.17.7-.46.93-.29.24-.62.36-1.01.36l-9.17-.02-.72-2.4,8.81.02-.53.48v-.65c-.03-.46-.19-.88-.49-1.25-.29-.37-.66-.66-1.1-.88-.44-.22-.91-.33-1.4-.33-.48,0-.93.06-1.34.19s-.78.34-1.08.65c-.31.3-.55.71-.72,1.22-.18.51-.27,1.16-.27,1.94,0,.86.18,1.6.54,2.2.36.6.82,1.06,1.39,1.37.57.31,1.17.47,1.81.47.59,0,1.06-.05,1.42-.14.35-.1.64-.21.85-.35.22-.13.41-.25.59-.35.29-.14.56-.21.82-.21.35,0,.64.12.88.36.23.24.35.52.35.84,0,.43-.23.82-.67,1.17-.42.35-1,.66-1.75.92-.75.26-1.53.39-2.33.39Z"/>
  </g>
  <path class="st4" d="M337.82,409.41c-1.2,1.59-2.73,2.92-4.66,3.87-3.64,1.8-7.95,1.74-12.06,1.65-70.73-1.65-141.4-3.05-211.99-8.28-1.97-.15-4.11-.36-5.56-1.65-6.15-5.43-1.48-26.79-1.3-34.09.35-13.66.68-27.32.99-40.98.62-27.32,1.16-54.64,1.62-81.96,1.03-61.04,1.41-122.05,1.59-183.12.04-14.42,9.51-11.71,21.62-11.56,67.47,4.5,136.42,1.7,204.04,2.27,3.33.03,6.77.08,9.78,1.45,9.98,4.53,8.48,17.41,8.02,25.99-.8,14.9-1.41,29.82-2.05,44.73-1.25,29.21-2.32,58.42-3.21,87.64-1.1,35.82-1.93,71.66-2.5,107.5-.28,17.92-.5,35.84-.65,53.76-.08,8.86,2.57,24.47-3.69,32.77Z"/>
  <g>
    <path class="st0" d="M142.05,156.22c.83,0,1.61.24,2.34.72.73.48,1.31,1.13,1.76,1.95.45.82.67,1.73.67,2.74,0,.99-.23,1.9-.68,2.71-.45.82-1.04,1.47-1.77,1.95-.73.49-1.51.73-2.34.73h-4.42s.24-.44.24-.44v4.97c-.01.42-.14.76-.4,1.04-.26.28-.59.42-1.01.42-.4,0-.73-.14-.98-.42-.26-.28-.38-.63-.38-1.04l.03-13.87c0-.42.14-.76.42-1.04.28-.28.63-.42,1.04-.42h5.47ZM142.03,164.29c.3,0,.6-.13.89-.38s.53-.59.72-1c.19-.41.29-.83.29-1.28,0-.46-.09-.9-.29-1.3-.19-.4-.43-.72-.72-.97s-.58-.37-.89-.37h-4.46s.29-.44.29-.44v6.12s-.27-.38-.27-.38h4.44Z"/>
    <path class="st0" d="M150.75,173.04c-.42,0-.76-.14-1.03-.42-.27-.28-.41-.63-.41-1.04l.02-9.91c0-.42.14-.76.41-1.04.27-.28.62-.42,1.03-.42s.76.14,1.03.42c.27.28.41.63.41,1.04v2.26s-.17-1.61-.17-1.61c.18-.38.4-.72.69-1.02s.6-.54.95-.74c.35-.2.73-.35,1.13-.44.4-.1.8-.14,1.2-.14.48,0,.88.14,1.21.41.33.27.49.59.49.96,0,.53-.14.91-.41,1.14s-.57.35-.89.35c-.3,0-.58-.06-.83-.17-.25-.11-.53-.17-.85-.17-.29,0-.58.07-.88.2-.3.14-.57.35-.82.64-.25.29-.45.64-.6,1.07-.15.42-.23.92-.23,1.5v5.69c-.01.42-.15.76-.42,1.04-.27.28-.62.42-1.03.42Z"/>
    <path class="st0" d="M165.25,173.31c-1.36,0-2.54-.29-3.54-.86-1-.57-1.77-1.34-2.3-2.32-.53-.98-.8-2.08-.8-3.31,0-1.44.3-2.67.88-3.68s1.35-1.79,2.3-2.33c.95-.54,1.95-.81,3-.81.82,0,1.59.17,2.31.51.73.34,1.37.8,1.93,1.38.56.59,1,1.26,1.33,2.03.33.77.49,1.58.49,2.45-.02.38-.17.7-.46.93-.29.24-.62.36-1.01.36l-9.17-.02-.72-2.4,8.81.02-.53.48v-.65c-.03-.46-.19-.88-.49-1.25-.3-.37-.66-.66-1.1-.88-.44-.22-.91-.33-1.4-.33-.48,0-.93.06-1.34.19-.42.13-.78.34-1.08.65-.3.3-.55.71-.72,1.22-.18.51-.27,1.16-.27,1.94,0,.86.18,1.6.54,2.2.36.6.82,1.06,1.39,1.37.57.31,1.17.47,1.81.47.59,0,1.06-.05,1.42-.14.35-.1.64-.21.85-.35.22-.13.41-.25.59-.35.29-.14.56-.21.82-.21.35,0,.64.12.88.36.23.24.35.52.35.84,0,.43-.23.82-.67,1.17-.42.35-1,.66-1.75.92-.75.26-1.53.39-2.33.39Z"/>
    <path class="st0" d="M180.03,160.01c1.12,0,2.12.29,3.01.86.89.57,1.59,1.35,2.11,2.34.52.99.78,2.14.77,3.46,0,1.31-.27,2.47-.79,3.47s-1.22,1.78-2.09,2.35c-.87.57-1.85.85-2.94.85-.64,0-1.24-.11-1.8-.32s-1.05-.47-1.47-.79c-.42-.32-.75-.65-.98-.97-.23-.33-.35-.6-.35-.83l.74-.31v6.31c-.01.42-.15.76-.42,1.04-.27.28-.62.42-1.03.42s-.76-.14-1.03-.41-.41-.62-.41-1.06l.03-14.71c0-.42.14-.76.41-1.04.27-.28.62-.42,1.03-.42s.76.14,1.03.42c.27.28.41.63.41,1.04v1.18s-.41-.22-.41-.22c0-.21.11-.46.34-.76.22-.29.53-.59.91-.89.38-.29.83-.54,1.33-.73.5-.19,1.04-.29,1.6-.29ZM179.67,162.65c-.7,0-1.32.17-1.85.53-.53.35-.94.83-1.24,1.42-.3.6-.45,1.28-.45,2.05,0,.75.15,1.44.44,2.05.29.62.71,1.1,1.23,1.46.53.35,1.14.53,1.85.53.7,0,1.32-.17,1.84-.52s.93-.83,1.23-1.45c.3-.62.45-1.3.45-2.05,0-.77-.15-1.45-.44-2.05-.3-.6-.7-1.08-1.22-1.43-.52-.35-1.13-.53-1.83-.53Z"/>
    <path class="st0" d="M198.97,160.05c.42,0,.76.14,1.03.41.27.27.41.62.41,1.06l-.02,10.15c0,.42-.14.76-.41,1.04-.27.28-.62.42-1.03.42-.42,0-.76-.14-1.03-.42-.27-.28-.41-.63-.41-1.04v-1.18s.53.22.53.22c0,.21-.11.46-.34.75-.23.3-.53.59-.91.87-.38.29-.84.53-1.36.73-.52.2-1.08.3-1.69.3-1.1,0-2.1-.29-3-.86-.89-.57-1.6-1.36-2.12-2.36-.52-1-.78-2.15-.77-3.45,0-1.31.26-2.47.79-3.47.52-1,1.22-1.78,2.1-2.35.88-.57,1.86-.85,2.93-.85.69,0,1.32.11,1.9.32.58.21,1.08.47,1.5.79s.75.64.98.97c.23.33.35.6.35.83l-.86.31v-1.75c0-.42.14-.76.41-1.04.27-.28.62-.42,1.03-.42ZM194.1,170.72c.7,0,1.32-.17,1.85-.52.53-.35.94-.83,1.24-1.44.3-.61.45-1.29.45-2.04,0-.77-.15-1.46-.44-2.06-.3-.61-.71-1.09-1.23-1.44-.53-.35-1.14-.53-1.85-.53-.69,0-1.3.17-1.83.53-.53.35-.94.83-1.24,1.44-.3.61-.45,1.29-.45,2.06,0,.75.14,1.43.44,2.04.29.61.71,1.09,1.23,1.44.53.35,1.13.53,1.82.53Z"/>
    <path class="st0" d="M204.94,173.14c-.42,0-.76-.14-1.03-.42-.27-.28-.41-.63-.41-1.04l.02-9.91c0-.42.14-.76.41-1.04.27-.28.62-.42,1.03-.42s.76.14,1.03.42c.27.28.41.63.41,1.04v2.26s-.17-1.61-.17-1.61c.18-.38.41-.72.69-1.02.28-.3.6-.54.95-.74.35-.2.73-.35,1.13-.44.4-.1.8-.14,1.2-.14.48,0,.88.14,1.21.41.33.27.49.59.49.96,0,.53-.14.91-.41,1.14s-.57.35-.89.35c-.3,0-.58-.06-.83-.17-.25-.11-.53-.17-.85-.17-.29,0-.58.07-.88.2-.3.14-.57.35-.82.63-.25.29-.45.64-.6,1.07-.15.42-.23.92-.23,1.5v5.69c-.01.42-.15.76-.42,1.04-.27.28-.62.42-1.03.42Z"/>
    <path class="st0" d="M215.19,158.76c-.54,0-.93-.09-1.15-.27-.22-.18-.33-.49-.33-.94v-.46c0-.46.13-.78.38-.95.25-.17.63-.25,1.14-.25.56,0,.95.09,1.18.27.22.18.34.49.33.94v.46c0,.46-.12.78-.36.95-.24.17-.63.25-1.18.25ZM216.63,171.7c0,.42-.14.76-.41,1.04-.27.28-.62.42-1.03.42-.42,0-.76-.14-1.03-.42-.27-.28-.41-.63-.41-1.04l.02-9.91c0-.42.14-.76.41-1.04.27-.28.62-.42,1.03-.42.42,0,.76.14,1.03.42.27.28.41.63.41,1.04l-.02,9.91Z"/>
    <path class="st0" d="M226.47,160.1c1.18,0,2.08.25,2.7.75.61.5,1.04,1.16,1.27,1.98.23.83.34,1.74.34,2.75v6.14c-.01.42-.15.76-.42,1.04-.27.28-.62.42-1.03.42-.42,0-.76-.14-1.03-.42-.27-.28-.41-.63-.41-1.04v-6.14c.01-.53-.05-1-.19-1.43-.14-.42-.38-.76-.73-1.02-.35-.26-.86-.39-1.51-.39-.64,0-1.18.13-1.62.38-.44.25-.78.59-1.01,1.02-.23.42-.35.9-.35,1.43v6.14c-.01.42-.15.76-.42,1.04-.27.28-.62.42-1.03.42s-.76-.14-1.03-.42c-.27-.28-.41-.63-.41-1.04l.02-9.91c0-.42.14-.76.41-1.04.27-.28.62-.42,1.03-.42s.76.14,1.03.42c.27.28.41.63.41,1.04v1.03s-.36-.07-.36-.07c.14-.27.35-.56.63-.87.27-.31.59-.6.96-.88.37-.27.78-.49,1.25-.66.46-.17.97-.25,1.51-.25Z"/>
    <path class="st0" d="M239.24,160.13c.67,0,1.29.11,1.85.32.56.21,1.04.47,1.45.79.41.32.73.64.96.97.23.33.35.6.35.83l-.62.31v-1.75c0-.42.14-.76.41-1.04s.62-.42,1.03-.42c.42,0,.76.14,1.03.41.27.27.41.62.41,1.06l-.02,10.68c0,1.39-.3,2.51-.91,3.35-.6.84-1.39,1.45-2.37,1.82-.98.37-2.03.56-3.15.56-.32,0-.74-.04-1.25-.12-.51-.08-1-.18-1.46-.29-.46-.11-.82-.22-1.06-.31-.48-.21-.81-.47-.99-.78-.18-.31-.22-.64-.11-1,.15-.46.38-.78.7-.95.32-.17.66-.19,1.01-.06.16.05.42.15.79.29.37.14.77.28,1.21.4.44.12.83.18,1.16.18,1.2,0,2.09-.24,2.66-.71.58-.48.87-1.14.87-1.99v-2.09s.29.22.29.22c0,.21-.11.46-.33.75-.22.3-.51.59-.89.87-.38.29-.82.53-1.33.73-.51.2-1.06.3-1.63.3-1.14,0-2.16-.29-3.07-.86-.91-.57-1.63-1.35-2.16-2.36-.53-1-.79-2.15-.79-3.45,0-1.31.27-2.47.8-3.47.53-1,1.24-1.78,2.14-2.35.9-.57,1.9-.85,3-.85ZM239.69,162.77c-.72,0-1.35.17-1.9.53-.54.35-.97.83-1.27,1.44-.31.61-.46,1.29-.46,2.06,0,.75.15,1.43.45,2.04.3.61.73,1.09,1.27,1.44.54.35,1.17.53,1.9.53.74,0,1.38-.17,1.92-.52.54-.35.97-.83,1.27-1.44.3-.61.46-1.29.46-2.04,0-.77-.15-1.46-.45-2.06-.3-.61-.73-1.09-1.27-1.44-.54-.35-1.18-.53-1.92-.53Z"/>
    <path class="st0" d="M141.67,190.42c.38,0,.7.12.96.37.26.25.38.56.38.95,0,.38-.13.7-.39.95-.26.25-.58.37-.96.37h-6.36c-.38-.01-.7-.14-.96-.39-.26-.25-.38-.57-.38-.95,0-.38.13-.7.39-.95.26-.25.58-.37.96-.37h6.36ZM141.42,185.26c.35,0,.7.05,1.03.15.34.1.62.25.84.47.22.22.33.5.33.85,0,.4-.12.72-.35.95-.23.23-.5.35-.8.35-.14,0-.36-.04-.65-.11-.29-.07-.57-.11-.84-.11-.4,0-.71.09-.92.26-.22.18-.37.38-.45.61-.08.23-.12.43-.12.61l-.02,12.26c0,.42-.14.76-.41,1.04-.27.28-.62.42-1.03.42-.42,0-.76-.14-1.03-.42-.27-.28-.41-.63-.41-1.04l.02-12.24c0-1.14.4-2.09,1.21-2.88.8-.78,2-1.17,3.6-1.17Z"/>
    <path class="st0" d="M157.02,196.64c0,1.31-.3,2.47-.88,3.47-.59,1-1.37,1.78-2.36,2.34-.98.56-2.09.84-3.3.83-1.22,0-2.32-.29-3.3-.85s-1.77-1.34-2.35-2.34c-.58-1-.87-2.16-.87-3.47,0-1.31.3-2.47.88-3.47s1.37-1.78,2.36-2.35,2.09-.85,3.3-.85c1.22,0,2.32.29,3.3.86.98.57,1.77,1.36,2.35,2.36.58,1,.87,2.16.87,3.47ZM154.14,196.64c0-.82-.16-1.52-.49-2.12-.33-.6-.77-1.07-1.32-1.41-.55-.34-1.16-.51-1.84-.51-.67,0-1.28.17-1.84.5-.55.33-.99.8-1.32,1.4-.33.6-.49,1.31-.5,2.12,0,.8.16,1.5.49,2.1.33.6.77,1.07,1.32,1.41.55.34,1.16.51,1.83.51.67,0,1.28-.17,1.84-.5.55-.33.99-.8,1.32-1.4.33-.6.49-1.3.5-2.1Z"/>
    <path class="st0" d="M160.97,203.06c-.42,0-.76-.14-1.03-.42-.27-.28-.41-.63-.41-1.04l.02-9.91c0-.42.14-.76.41-1.04.27-.28.62-.42,1.03-.42s.76.14,1.03.42c.27.28.41.63.41,1.04v2.26s-.17-1.61-.17-1.61c.18-.38.41-.72.69-1.02.28-.3.6-.54.95-.74s.73-.35,1.13-.44c.4-.1.8-.14,1.2-.14.48,0,.88.14,1.21.41.33.27.49.59.49.96,0,.53-.14.91-.41,1.14s-.57.35-.89.35c-.3,0-.58-.06-.83-.17-.25-.11-.53-.17-.85-.17-.29,0-.58.07-.88.2-.3.14-.57.35-.82.63-.25.29-.45.64-.6,1.07-.15.42-.23.92-.23,1.5v5.69c-.01.42-.15.76-.42,1.04-.27.28-.62.42-1.03.42Z"/>
    <path class="st0" d="M182.71,203.34c-1.36,0-2.54-.29-3.54-.86-1-.57-1.77-1.34-2.3-2.32-.53-.98-.8-2.08-.8-3.31,0-1.44.3-2.67.88-3.68s1.35-1.79,2.3-2.34c.94-.54,1.95-.81,3-.81.82,0,1.59.17,2.32.51.73.34,1.37.8,1.93,1.38.56.59,1,1.26,1.33,2.03.33.77.49,1.58.49,2.45-.02.38-.17.7-.46.93-.29.24-.62.36-1.01.36l-9.17-.02-.72-2.4,8.81.02-.53.48v-.65c-.03-.46-.19-.88-.49-1.25-.3-.37-.66-.66-1.1-.88-.44-.22-.91-.33-1.4-.33-.48,0-.93.06-1.34.19-.42.13-.78.34-1.08.65-.3.3-.55.71-.72,1.22-.18.51-.27,1.16-.27,1.94,0,.86.18,1.6.54,2.2.36.6.82,1.06,1.39,1.37.57.31,1.17.47,1.81.47.59,0,1.06-.05,1.42-.14.35-.1.64-.21.85-.35.22-.13.41-.25.59-.35.29-.14.56-.21.82-.21.35,0,.64.12.88.36.23.24.35.52.35.84,0,.43-.23.82-.67,1.17-.42.35-1,.66-1.75.92-.75.26-1.53.39-2.33.39Z"/>
    <path class="st0" d="M191.11,190.28c.46,0,.85.2,1.17.6l8,9.97c.21.26.31.54.31.87,0,.4-.15.74-.46,1.03-.3.29-.64.43-1.01.43-.46,0-.86-.21-1.17-.63l-8-9.98c-.21-.26-.31-.54-.31-.86,0-.42.15-.76.45-1.03.3-.27.64-.41,1.02-.41ZM191.11,203.14c-.32,0-.64-.12-.95-.37-.31-.25-.47-.55-.47-.9,0-.32.12-.62.36-.91l3.68-4.48,1.44,2.4-2.91,3.67c-.3.4-.69.6-1.15.6ZM199.13,190.29c.38,0,.71.13.97.4s.4.57.39.9c0,.16-.02.32-.07.48-.05.16-.14.31-.27.46l-3.63,4.41-1.51-2.09,2.96-3.91c.32-.43.71-.65,1.15-.65Z"/>
    <path class="st0" d="M213.05,190.08c.42,0,.76.14,1.03.41.27.27.41.62.41,1.06l-.02,10.15c0,.42-.14.76-.41,1.04-.27.28-.62.42-1.03.42s-.76-.14-1.03-.42c-.27-.28-.41-.63-.41-1.04v-1.18s.53.22.53.22c0,.21-.11.46-.34.75-.23.3-.53.59-.91.88-.38.29-.84.53-1.36.73-.52.2-1.08.3-1.69.3-1.1,0-2.1-.29-3-.86-.9-.57-1.6-1.35-2.12-2.36-.52-1-.78-2.15-.77-3.45,0-1.31.26-2.47.79-3.47.52-1,1.22-1.78,2.1-2.35.88-.57,1.86-.85,2.93-.85.69,0,1.32.11,1.9.32s1.07.47,1.5.79c.42.32.75.65.98.97.23.33.35.61.35.83l-.86.31v-1.75c0-.42.14-.76.41-1.04.27-.28.62-.42,1.03-.42ZM208.18,200.75c.7,0,1.32-.17,1.85-.52.53-.35.94-.83,1.24-1.44.3-.61.45-1.29.45-2.04,0-.77-.15-1.46-.44-2.06-.3-.61-.71-1.09-1.23-1.44-.53-.35-1.14-.53-1.85-.53-.69,0-1.3.17-1.83.53-.53.35-.94.83-1.24,1.44-.3.61-.45,1.29-.45,2.06,0,.75.14,1.43.44,2.04.29.61.71,1.09,1.23,1.44.53.35,1.13.53,1.82.53Z"/>
    <path class="st0" d="M224.35,190.1c1.28,0,2.22.31,2.83.93.61.62,1,1.41,1.2,2.39l-.41-.22.19-.38c.19-.37.49-.76.89-1.19.4-.42.89-.78,1.45-1.08s1.2-.44,1.91-.44c1.15,0,2.03.25,2.63.75.6.5,1.01,1.16,1.23,1.98s.33,1.74.33,2.75v6.14c-.01.42-.15.76-.42,1.04-.27.28-.62.42-1.03.42-.42,0-.76-.14-1.03-.42-.27-.28-.41-.63-.41-1.04v-6.14c.01-.53-.05-1-.18-1.43-.13-.42-.36-.76-.69-1.02-.34-.26-.82-.39-1.44-.39-.61,0-1.13.13-1.56.38-.43.26-.76.59-.97,1.02-.22.42-.33.9-.33,1.43v6.14c-.01.42-.15.76-.42,1.04-.27.28-.62.42-1.03.42s-.76-.14-1.03-.42c-.27-.28-.41-.63-.41-1.04v-6.14c.01-.53-.05-1-.18-1.43-.13-.42-.36-.76-.69-1.02-.34-.26-.82-.39-1.44-.39-.61,0-1.13.13-1.56.38-.43.25-.76.59-.97,1.02-.22.42-.33.9-.33,1.43v6.14c-.01.42-.15.76-.42,1.04-.27.28-.62.42-1.03.42-.42,0-.76-.14-1.03-.42-.27-.28-.41-.63-.41-1.04l.02-9.91c0-.42.14-.76.41-1.04.27-.28.62-.42,1.03-.42.42,0,.76.14,1.03.42.27.28.41.63.41,1.04v1.03s-.36-.07-.36-.07c.14-.27.34-.56.6-.88.26-.31.57-.6.94-.87.37-.27.78-.49,1.23-.66.45-.17.94-.25,1.46-.25Z"/>
    <path class="st0" d="M238.97,201.21c-.16-.22-.23-.51-.21-.86.02-.35.22-.66.63-.91.26-.16.53-.23.82-.2s.57.17.84.45c.46.47.95.83,1.46,1.08.51.26,1.15.39,1.92.39.24-.02.5-.05.79-.11.29-.05.54-.18.76-.38.22-.2.33-.51.33-.92,0-.35-.12-.63-.36-.84s-.56-.39-.95-.53c-.39-.15-.83-.28-1.31-.41-.5-.15-1-.31-1.52-.48-.52-.18-1-.41-1.43-.69-.43-.28-.78-.65-1.05-1.12-.27-.46-.41-1.05-.4-1.75,0-.8.23-1.48.68-2.04.45-.56,1.03-.99,1.74-1.29.71-.3,1.46-.45,2.24-.45.5,0,1.02.06,1.56.18.54.12,1.06.31,1.56.58.5.27.91.61,1.25,1.05.18.24.28.53.31.87.03.34-.12.64-.46.91-.24.19-.52.28-.84.25-.32-.02-.58-.13-.79-.33-.27-.35-.64-.63-1.09-.84-.46-.21-.98-.31-1.57-.32-.24,0-.5.03-.78.08-.28.05-.52.17-.73.36-.21.18-.31.48-.31.88,0,.37.12.66.36.88.24.22.56.39.97.53.41.14.84.27,1.31.4.48.13.97.28,1.46.46.5.18.95.41,1.37.7.42.29.75.66,1.01,1.12.25.46.38,1.04.38,1.74,0,.82-.24,1.51-.72,2.09-.48.58-1.08,1.01-1.8,1.3-.72.29-1.46.44-2.21.44-.94,0-1.89-.17-2.83-.5-.94-.33-1.73-.91-2.35-1.75Z"/>
  </g>
  <g>
    <path class="st2" d="M129.47,375.72c59.76,1.99,119.69,5.43,179.47,5.66"/>
    <path class="st2" d="M130.09,357.03c59.76,1.99,119.69,5.43,179.47,5.66"/>
    <path class="st2" d="M130.72,338.34c59.76,1.99,119.69,5.43,179.47,5.66"/>
    <path class="st2" d="M131.34,319.64c59.76,1.99,119.69,5.43,179.47,5.66"/>
    <path class="st2" d="M131.97,300.95c59.76,1.99,119.69,5.43,179.47,5.66"/>
    <path class="st2" d="M132.6,282.25c59.76,1.99,119.69,5.43,179.47,5.66"/>
    <path class="st2" d="M133.22,263.56c59.76,1.99,119.69,5.43,179.47,5.66"/>
    <path class="st2" d="M133.85,244.86c59.76,1.99,119.69,5.43,179.47,5.66"/>
    <path class="st2" d="M138.49,106.22c19.57,1.21,39.2,1.42,58.81,1.93"/>
    <path class="st2" d="M139.12,87.55c25.56,1.52,51.16,2.31,76.76,2.35"/>
  </g>
  <circle class="st3" cx="415.86" cy="510.53" r="25.98"/>
</svg>