<?xml version="1.0" encoding="UTF-8"?>
<svg id="Layer_1" xmlns="http://www.w3.org/2000/svg" version="1.1" viewBox="0 0 829 589.51">
  <!-- Generator: Adobe Illustrator 29.7.1, SVG Export Plug-In . SVG Version: 2.1.1 Build 8)  -->
  <defs>
    <style>
      .st0 {
        fill: #573bb4;
      }

      .st1 {
        fill: #fff;
      }

      .st2 {
        fill: #f7008d;
      }

      .st3 {
        fill: #010834;
      }

      .st4 {
        fill: #05d4bd;
      }

      .st5 {
        fill: #f9a700;
      }
    </style>
  </defs>
  <g>
    <path class="st2" d="M577,393.67c-82.25-2.99-146.72-72.34-143.73-154.58,1.89-51.87,31.56-99.95,76.91-125.14,49.38-27.43,112.75-23.83,158.72,8.97,40.54,28.92,68.07,59.88,66.91,128.24-1.4,82.29-76.57,145.51-158.82,142.52Z"/>
    <g>
      <path class="st1" d="M504.18,218.47c-1.12,0-2.13-.14-3.02-.42-.9-.28-1.75-.77-2.57-1.48-.21-.18-.37-.38-.48-.6s-.17-.45-.17-.67c0-.37.13-.69.4-.97.26-.28.6-.42,1-.42.3,0,.58.1.82.29.61.5,1.21.87,1.81,1.13.6.26,1.34.38,2.22.38.59,0,1.14-.09,1.63-.28s.9-.43,1.2-.74c.3-.31.46-.67.46-1.07,0-.48-.14-.89-.43-1.22s-.73-.62-1.32-.85c-.59-.23-1.34-.41-2.26-.54-.86-.13-1.62-.32-2.28-.59-.66-.26-1.2-.6-1.64-1.01-.44-.41-.77-.89-1-1.44-.22-.55-.34-1.17-.34-1.86,0-1.04.27-1.93.8-2.66.54-.74,1.26-1.3,2.17-1.68s1.92-.58,3.02-.58c1.04,0,2,.16,2.89.47.89.31,1.61.71,2.17,1.19.46.37.7.79.7,1.27,0,.35-.14.67-.41.96-.27.29-.59.43-.96.43-.24,0-.46-.07-.65-.22-.26-.22-.6-.44-1.03-.64-.43-.2-.89-.37-1.37-.5-.48-.14-.93-.2-1.34-.2-.69,0-1.27.09-1.74.26-.47.18-.83.42-1.07.72s-.36.66-.36,1.06c0,.48.14.88.42,1.19.28.31.68.56,1.21.74.53.18,1.16.35,1.9.49.96.18,1.8.38,2.53.62.73.24,1.33.55,1.81.92.48.38.84.85,1.08,1.42.24.57.36,1.26.36,2.08,0,1.04-.29,1.94-.86,2.69s-1.33,1.33-2.27,1.73c-.94.4-1.95.6-3.04.6Z"/>
      <path class="st1" d="M513.01,205.63h5.69c.38,0,.7.13.96.38s.38.58.38.96-.13.68-.38.92-.58.37-.96.37h-5.69c-.38,0-.7-.13-.96-.38s-.38-.58-.38-.96.13-.68.38-.92.58-.37.96-.37ZM515.58,202.63c.42,0,.76.14,1.02.42s.4.63.4,1.04v10.68c0,.22.04.41.13.55.09.14.21.25.36.31s.32.1.49.1c.19,0,.37-.04.53-.11.16-.07.34-.11.55-.11.22,0,.43.1.61.31.18.21.28.5.28.86,0,.45-.24.82-.73,1.1-.49.29-1.01.43-1.57.43-.34,0-.71-.03-1.12-.08-.41-.06-.79-.19-1.15-.41-.36-.22-.66-.55-.9-1-.24-.45-.36-1.06-.36-1.85v-10.8c0-.42.14-.76.42-1.04.28-.28.63-.42,1.04-.42Z"/>
      <path class="st1" d="M533.2,205.15c.42,0,.76.14,1.03.41.27.27.41.62.41,1.06v10.15c0,.42-.14.76-.41,1.04-.27.28-.62.42-1.03.42s-.76-.14-1.03-.42c-.27-.28-.41-.63-.41-1.04v-1.18l.53.22c0,.21-.11.46-.34.76-.22.3-.53.59-.91.88s-.84.53-1.36.73c-.52.2-1.08.3-1.69.3-1.1,0-2.1-.28-3-.85-.9-.57-1.6-1.35-2.12-2.35-.52-1-.78-2.15-.78-3.44s.26-2.47.78-3.47c.52-1,1.22-1.78,2.1-2.35.88-.57,1.86-.85,2.93-.85.69,0,1.32.1,1.9.31s1.08.47,1.5.79.75.64.98.97c.23.33.35.6.35.83l-.86.31v-1.75c0-.42.14-.76.41-1.04.27-.28.62-.42,1.03-.42ZM528.35,215.83c.7,0,1.32-.18,1.85-.53.53-.35.94-.83,1.24-1.44.3-.61.44-1.29.44-2.04s-.15-1.46-.44-2.06-.71-1.09-1.24-1.44c-.53-.35-1.14-.53-1.85-.53s-1.3.18-1.82.53c-.53.35-.94.83-1.24,1.44s-.44,1.3-.44,2.06.15,1.43.44,2.04c.3.61.71,1.09,1.24,1.44.53.35,1.14.53,1.82.53Z"/>
      <path class="st1" d="M547.28,205.39c.42,0,.76.14,1.03.42.27.28.41.63.41,1.04v10.2c0,1.47-.28,2.64-.83,3.52s-1.29,1.5-2.22,1.88c-.93.38-1.97.58-3.12.58-.51,0-1.06-.04-1.63-.12-.58-.08-1.05-.2-1.42-.36-.48-.21-.81-.47-1-.78-.18-.31-.22-.64-.11-1,.14-.46.38-.78.7-.95.32-.17.66-.19,1.01-.06.26.08.59.2,1.01.37s.9.25,1.44.25c.74,0,1.35-.1,1.84-.3.49-.2.86-.54,1.1-1.01.25-.47.37-1.12.37-1.93v-1.61l.5.58c-.27.53-.61.96-1.02,1.31s-.89.6-1.45.78c-.56.18-1.2.26-1.92.26-.85,0-1.59-.2-2.22-.59-.63-.39-1.12-.94-1.48-1.63-.35-.7-.53-1.49-.53-2.39v-7.01c0-.42.14-.76.41-1.04s.62-.42,1.03-.42.76.14,1.03.42c.27.28.41.63.41,1.04v6.14c0,1.04.23,1.77.68,2.2s1.09.64,1.91.64c.56,0,1.03-.11,1.42-.32.38-.22.68-.54.89-.96s.31-.94.31-1.55v-6.14c0-.42.14-.76.41-1.04.27-.28.62-.42,1.03-.42Z"/>
      <path class="st1" d="M553.09,203.83c-.54,0-.93-.09-1.15-.26-.22-.18-.34-.49-.34-.94v-.46c0-.46.12-.78.37-.95.25-.17.63-.25,1.14-.25.56,0,.95.09,1.18.26.22.18.34.49.34.94v.46c0,.46-.12.78-.36.95-.24.17-.63.25-1.18.25ZM554.56,216.77c0,.42-.14.76-.41,1.04-.27.28-.62.42-1.03.42s-.76-.14-1.03-.42-.41-.63-.41-1.04v-9.91c0-.42.14-.76.41-1.04s.62-.42,1.03-.42.76.14,1.03.42c.27.28.41.63.41,1.04v9.91Z"/>
      <path class="st1" d="M564.37,205.15c1.18,0,2.08.25,2.7.74s1.04,1.16,1.27,1.98c.23.82.35,1.74.35,2.75v6.14c0,.42-.14.76-.41,1.04-.27.28-.62.42-1.03.42s-.76-.14-1.03-.42c-.27-.28-.41-.63-.41-1.04v-6.14c0-.53-.07-1-.2-1.43-.14-.42-.38-.76-.73-1.02s-.86-.38-1.51-.38-1.18.13-1.62.38-.78.6-1.01,1.02c-.23.42-.35.9-.35,1.43v6.14c0,.42-.14.76-.41,1.04-.27.28-.62.42-1.03.42s-.76-.14-1.03-.42-.41-.63-.41-1.04v-9.91c0-.42.14-.76.41-1.04s.62-.42,1.03-.42.76.14,1.03.42c.27.28.41.63.41,1.04v1.03l-.36-.07c.14-.27.35-.56.62-.88.27-.31.59-.6.96-.88.37-.27.78-.49,1.25-.66.46-.17.97-.25,1.51-.25Z"/>
      <path class="st1" d="M577.14,205.15c.67,0,1.29.1,1.85.31.56.21,1.04.47,1.45.79.41.32.73.64.96.97.23.33.35.6.35.83l-.62.31v-1.75c0-.42.14-.76.41-1.04.27-.28.62-.42,1.03-.42s.76.14,1.03.41.41.62.41,1.06v10.68c0,1.39-.3,2.51-.9,3.35-.6.84-1.39,1.45-2.36,1.82-.98.38-2.02.56-3.14.56-.32,0-.74-.04-1.25-.12s-1-.18-1.46-.29c-.46-.11-.82-.22-1.06-.31-.48-.21-.81-.47-1-.78-.18-.31-.22-.64-.11-1,.14-.46.38-.78.7-.95s.66-.19,1.01-.06c.16.05.42.14.79.29s.77.28,1.21.4c.44.12.83.18,1.16.18,1.2,0,2.09-.24,2.66-.72.58-.48.86-1.14.86-1.99v-2.09l.29.22c0,.21-.11.46-.32.76s-.51.59-.89.88-.82.53-1.33.73c-.51.2-1.06.3-1.63.3-1.14,0-2.16-.28-3.07-.85-.91-.57-1.63-1.35-2.16-2.35s-.79-2.15-.79-3.44.26-2.47.79-3.47,1.24-1.78,2.14-2.35c.9-.57,1.9-.85,3-.85ZM577.59,207.79c-.72,0-1.35.18-1.9.53-.54.35-.97.83-1.27,1.44s-.46,1.3-.46,2.06.15,1.43.46,2.04c.3.61.73,1.09,1.27,1.44s1.18.53,1.9.53,1.38-.18,1.92-.53.97-.83,1.27-1.44c.3-.61.46-1.29.46-2.04s-.15-1.46-.46-2.06c-.3-.61-.73-1.09-1.27-1.44-.54-.35-1.18-.53-1.92-.53Z"/>
      <path class="st1" d="M593.1,216.24c-.16-.22-.23-.51-.22-.86.02-.35.22-.66.62-.91.26-.16.53-.23.82-.2.29.02.57.17.84.44.46.46.95.82,1.46,1.08.51.26,1.15.38,1.92.38.24-.02.5-.05.79-.11s.54-.18.76-.38c.22-.2.32-.51.32-.92,0-.35-.12-.63-.36-.84-.24-.21-.56-.38-.95-.53-.39-.14-.83-.28-1.31-.41-.5-.14-1-.3-1.52-.48-.52-.18-1-.4-1.43-.68-.43-.28-.78-.65-1.06-1.12-.27-.46-.41-1.05-.41-1.75,0-.8.22-1.48.67-2.04.45-.56,1.03-.99,1.74-1.3s1.46-.46,2.24-.46c.5,0,1.02.06,1.56.18.54.12,1.06.31,1.56.58.5.26.91.61,1.25,1.04.18.24.28.53.31.86.03.34-.12.64-.46.91-.24.19-.52.28-.84.25-.32-.02-.58-.13-.79-.32-.27-.35-.64-.63-1.09-.84s-.98-.31-1.57-.31c-.24,0-.5.03-.78.08-.28.06-.52.18-.73.36-.21.18-.31.48-.31.88,0,.37.12.66.36.88.24.22.56.39.97.53.41.14.84.27,1.31.4.48.13.97.28,1.46.46.5.18.95.41,1.37.7s.75.66,1.01,1.12.38,1.04.38,1.74c0,.82-.24,1.51-.72,2.09-.48.58-1.08,1.01-1.8,1.31s-1.46.44-2.21.44c-.94,0-1.89-.16-2.83-.49s-1.73-.91-2.35-1.74Z"/>
      <path class="st1" d="M605.55,205.63h5.69c.38,0,.7.13.96.38s.38.58.38.96-.13.68-.38.92-.58.37-.96.37h-5.69c-.38,0-.7-.13-.96-.38s-.38-.58-.38-.96.13-.68.38-.92.58-.37.96-.37ZM608.12,202.63c.42,0,.76.14,1.02.42s.4.63.4,1.04v10.68c0,.22.04.41.13.55.09.14.21.25.36.31s.32.1.49.1c.19,0,.37-.04.53-.11.16-.07.34-.11.55-.11.22,0,.43.1.61.31.18.21.28.5.28.86,0,.45-.24.82-.73,1.1-.49.29-1.01.43-1.57.43-.34,0-.71-.03-1.12-.08-.41-.06-.79-.19-1.15-.41-.36-.22-.66-.55-.9-1-.24-.45-.36-1.06-.36-1.85v-10.8c0-.42.14-.76.42-1.04.28-.28.63-.42,1.04-.42Z"/>
      <path class="st1" d="M621.16,218.47c-1.36,0-2.54-.28-3.54-.85-1-.57-1.77-1.34-2.3-2.32s-.8-2.08-.8-3.31c0-1.44.29-2.67.88-3.68s1.35-1.8,2.29-2.34,1.94-.82,3-.82c.82,0,1.59.17,2.32.5.73.34,1.37.8,1.93,1.38.56.58,1,1.26,1.33,2.03s.49,1.58.49,2.45c-.02.38-.17.7-.46.94s-.62.36-1.01.36h-9.17l-.72-2.4h8.81l-.53.48v-.65c-.03-.46-.2-.88-.49-1.25-.3-.37-.66-.66-1.1-.88-.44-.22-.91-.32-1.4-.32s-.93.06-1.34.19-.78.34-1.08.65c-.3.3-.54.71-.72,1.22-.18.51-.26,1.16-.26,1.94,0,.86.18,1.6.54,2.2.36.6.82,1.06,1.39,1.37.57.31,1.17.47,1.81.47.59,0,1.06-.05,1.42-.14s.64-.21.85-.35c.22-.14.41-.25.59-.35.29-.14.56-.22.82-.22.35,0,.64.12.88.36.23.24.35.52.35.84,0,.43-.22.82-.67,1.18-.42.35-1,.66-1.75.92-.75.26-1.53.4-2.33.4Z"/>
      <path class="st1" d="M639.88,205.15c.42,0,.76.14,1.03.41.27.27.41.62.41,1.06v10.15c0,.42-.14.76-.41,1.04-.27.28-.62.42-1.03.42s-.76-.14-1.03-.42c-.27-.28-.41-.63-.41-1.04v-1.18l.53.22c0,.21-.11.46-.34.76-.22.3-.53.59-.91.88s-.84.53-1.36.73c-.52.2-1.08.3-1.69.3-1.1,0-2.1-.28-3-.85-.9-.57-1.6-1.35-2.12-2.35-.52-1-.78-2.15-.78-3.44s.26-2.47.78-3.47c.52-1,1.22-1.78,2.1-2.35.88-.57,1.86-.85,2.93-.85.69,0,1.32.1,1.9.31s1.08.47,1.5.79.75.64.98.97c.23.33.35.6.35.83l-.86.31v-1.75c0-.42.14-.76.41-1.04.27-.28.62-.42,1.03-.42ZM635.03,215.83c.7,0,1.32-.18,1.85-.53.53-.35.94-.83,1.24-1.44.3-.61.44-1.29.44-2.04s-.15-1.46-.44-2.06-.71-1.09-1.24-1.44c-.53-.35-1.14-.53-1.85-.53s-1.3.18-1.82.53c-.53.35-.94.83-1.24,1.44s-.44,1.3-.44,2.06.15,1.43.44,2.04c.3.61.71,1.09,1.24,1.44.53.35,1.14.53,1.82.53Z"/>
      <path class="st1" d="M654.95,200.47c.42,0,.76.14,1.03.41.27.27.41.62.41,1.06v14.83c0,.42-.14.76-.41,1.04-.27.28-.62.42-1.03.42s-.76-.14-1.03-.42c-.27-.28-.41-.63-.41-1.04v-1.18l.53.22c0,.21-.11.46-.34.76-.22.3-.53.59-.91.88s-.84.53-1.36.73c-.52.2-1.08.3-1.69.3-1.1,0-2.1-.28-3-.85-.9-.57-1.6-1.35-2.12-2.35-.52-1-.78-2.15-.78-3.44s.26-2.47.78-3.47c.52-1,1.22-1.78,2.1-2.35.88-.57,1.86-.85,2.93-.85.69,0,1.32.1,1.9.31s1.08.47,1.5.79.75.64.98.97c.23.33.35.6.35.83l-.86.31v-6.43c0-.42.14-.76.41-1.04.27-.28.62-.42,1.03-.42ZM650.1,215.83c.7,0,1.32-.18,1.85-.53.53-.35.94-.83,1.24-1.44.3-.61.44-1.29.44-2.04s-.15-1.46-.44-2.06-.71-1.09-1.24-1.44c-.53-.35-1.14-.53-1.85-.53s-1.3.18-1.82.53c-.53.35-.94.83-1.24,1.44s-.44,1.3-.44,2.06.15,1.43.44,2.04c.3.61.71,1.09,1.24,1.44.53.35,1.14.53,1.82.53Z"/>
      <path class="st1" d="M669.03,205.39c.42,0,.76.14,1.03.42.27.28.41.63.41,1.04v10.2c0,1.47-.28,2.64-.83,3.52s-1.29,1.5-2.22,1.88c-.93.38-1.97.58-3.12.58-.51,0-1.06-.04-1.63-.12-.58-.08-1.05-.2-1.42-.36-.48-.21-.81-.47-1-.78-.18-.31-.22-.64-.11-1,.14-.46.38-.78.7-.95.32-.17.66-.19,1.01-.06.26.08.59.2,1.01.37s.9.25,1.44.25c.74,0,1.35-.1,1.84-.3.49-.2.86-.54,1.1-1.01.25-.47.37-1.12.37-1.93v-1.61l.5.58c-.27.53-.61.96-1.02,1.31s-.89.6-1.45.78c-.56.18-1.2.26-1.92.26-.85,0-1.59-.2-2.22-.59-.63-.39-1.12-.94-1.48-1.63-.35-.7-.53-1.49-.53-2.39v-7.01c0-.42.14-.76.41-1.04s.62-.42,1.03-.42.76.14,1.03.42c.27.28.41.63.41,1.04v6.14c0,1.04.23,1.77.68,2.2s1.09.64,1.91.64c.56,0,1.03-.11,1.42-.32.38-.22.68-.54.89-.96s.31-.94.31-1.55v-6.14c0-.42.14-.76.41-1.04.27-.28.62-.42,1.03-.42Z"/>
      <path class="st1" d="M498.68,239.63h5.69c.38,0,.7.13.96.38s.38.58.38.96-.13.68-.38.92-.58.37-.96.37h-5.69c-.38,0-.7-.13-.96-.38s-.38-.58-.38-.96.13-.68.38-.92.58-.37.96-.37ZM501.25,236.63c.42,0,.76.14,1.02.42s.4.63.4,1.04v10.68c0,.22.04.41.13.55.09.14.21.25.36.31s.32.1.49.1c.19,0,.37-.04.53-.11.16-.07.34-.11.55-.11.22,0,.43.1.61.31.18.21.28.5.28.86,0,.45-.24.82-.73,1.1-.49.29-1.01.43-1.57.43-.34,0-.71-.03-1.12-.08-.41-.06-.79-.19-1.15-.41-.36-.22-.66-.55-.9-1-.24-.45-.36-1.06-.36-1.85v-10.8c0-.42.14-.76.42-1.04.28-.28.63-.42,1.04-.42Z"/>
      <path class="st1" d="M515.1,239.15c1.15,0,2.03.25,2.63.74.6.5,1.01,1.16,1.24,1.98.22.82.34,1.74.34,2.75v6.14c0,.42-.14.76-.41,1.04-.27.28-.62.42-1.03.42s-.76-.14-1.03-.42c-.27-.28-.41-.63-.41-1.04v-6.14c0-.53-.06-1-.19-1.43s-.36-.76-.7-1.02-.82-.38-1.44-.38-1.13.13-1.56.38c-.43.26-.76.6-.97,1.02-.22.42-.32.9-.32,1.43v6.14c0,.42-.14.76-.41,1.04-.27.28-.62.42-1.03.42s-.76-.14-1.03-.42-.41-.63-.41-1.04v-14.83c0-.42.14-.76.41-1.04s.62-.42,1.03-.42.76.14,1.03.42c.27.28.41.63.41,1.04v5.95l-.36-.07c.14-.27.34-.56.6-.88s.57-.6.94-.88c.37-.27.78-.49,1.22-.66s.94-.25,1.46-.25Z"/>
      <path class="st1" d="M523.86,252.23c-.42,0-.76-.14-1.03-.42s-.41-.63-.41-1.04v-9.91c0-.42.14-.76.41-1.04s.62-.42,1.03-.42.76.14,1.03.42c.27.28.41.63.41,1.04v2.26l-.17-1.61c.18-.38.4-.72.68-1.02.28-.3.6-.54.95-.74.35-.2.73-.35,1.13-.44.4-.1.8-.14,1.2-.14.48,0,.88.14,1.21.41.33.27.49.59.49.96,0,.53-.14.91-.41,1.14-.27.23-.57.35-.89.35-.3,0-.58-.06-.83-.17-.25-.11-.53-.17-.85-.17-.29,0-.58.07-.88.2-.3.14-.57.35-.82.64s-.45.64-.6,1.07c-.15.42-.23.92-.23,1.5v5.69c0,.42-.14.76-.41,1.04-.27.28-.62.42-1.03.42Z"/>
      <path class="st1" d="M544.76,245.83c0,1.31-.29,2.47-.88,3.47-.58,1-1.37,1.78-2.35,2.34-.98.56-2.08.84-3.3.84s-2.32-.28-3.3-.84c-.98-.56-1.77-1.34-2.35-2.34-.58-1-.88-2.16-.88-3.47s.29-2.47.88-3.47,1.37-1.78,2.35-2.35c.98-.57,2.08-.85,3.3-.85s2.32.28,3.3.85c.98.57,1.77,1.35,2.35,2.35s.88,2.16.88,3.47ZM541.88,245.83c0-.82-.16-1.52-.49-2.12-.33-.6-.77-1.07-1.32-1.4-.55-.34-1.16-.5-1.84-.5s-1.28.17-1.84.5c-.55.34-.99.8-1.32,1.4-.33.6-.49,1.31-.49,2.12s.16,1.5.49,2.1c.33.6.77,1.07,1.32,1.4.55.34,1.16.5,1.84.5s1.28-.17,1.84-.5.99-.8,1.32-1.4c.33-.6.49-1.3.49-2.1Z"/>
      <path class="st1" d="M556.81,239.39c.42,0,.76.14,1.03.42.27.28.41.63.41,1.04v6.1c0,1.7-.47,3.04-1.42,4.03-.94.99-2.3,1.49-4.08,1.49s-3.13-.5-4.07-1.49c-.94-.99-1.4-2.34-1.4-4.03v-6.1c0-.42.14-.76.41-1.04s.62-.42,1.03-.42.76.14,1.03.42c.27.28.41.63.41,1.04v6.1c0,.98.22,1.7.65,2.17.43.47,1.08.71,1.94.71s1.54-.24,1.97-.71c.43-.47.65-1.2.65-2.17v-6.1c0-.42.14-.76.41-1.04.27-.28.62-.42,1.03-.42Z"/>
      <path class="st1" d="M566.46,239.15c.67,0,1.29.1,1.85.31.56.21,1.04.47,1.45.79.41.32.73.64.96.97.23.33.35.6.35.83l-.62.31v-1.75c0-.42.14-.76.41-1.04.27-.28.62-.42,1.03-.42s.76.14,1.03.41.41.62.41,1.06v10.68c0,1.39-.3,2.51-.9,3.35-.6.84-1.39,1.45-2.36,1.82-.98.38-2.02.56-3.14.56-.32,0-.74-.04-1.25-.12s-1-.18-1.46-.29c-.46-.11-.82-.22-1.06-.31-.48-.21-.81-.47-1-.78-.18-.31-.22-.64-.11-1,.14-.46.38-.78.7-.95s.66-.19,1.01-.06c.16.05.42.14.79.29s.77.28,1.21.4c.44.12.83.18,1.16.18,1.2,0,2.09-.24,2.66-.72.58-.48.86-1.14.86-1.99v-2.09l.29.22c0,.21-.11.46-.32.76s-.51.59-.89.88-.82.53-1.33.73c-.51.2-1.06.3-1.63.3-1.14,0-2.16-.28-3.07-.85-.91-.57-1.63-1.35-2.16-2.35s-.79-2.15-.79-3.44.26-2.47.79-3.47,1.24-1.78,2.14-2.35c.9-.57,1.9-.85,3-.85ZM566.92,241.79c-.72,0-1.35.18-1.9.53-.54.35-.97.83-1.27,1.44s-.46,1.3-.46,2.06.15,1.43.46,2.04c.3.61.73,1.09,1.27,1.44s1.18.53,1.9.53,1.38-.18,1.92-.53.97-.83,1.27-1.44c.3-.61.46-1.29.46-2.04s-.15-1.46-.46-2.06c-.3-.61-.73-1.09-1.27-1.44-.54-.35-1.18-.53-1.92-.53Z"/>
      <path class="st1" d="M583.19,239.15c1.15,0,2.03.25,2.63.74.6.5,1.01,1.16,1.24,1.98.22.82.34,1.74.34,2.75v6.14c0,.42-.14.76-.41,1.04-.27.28-.62.42-1.03.42s-.76-.14-1.03-.42c-.27-.28-.41-.63-.41-1.04v-6.14c0-.53-.06-1-.19-1.43s-.36-.76-.7-1.02-.82-.38-1.44-.38-1.13.13-1.56.38c-.43.26-.76.6-.97,1.02-.22.42-.32.9-.32,1.43v6.14c0,.42-.14.76-.41,1.04-.27.28-.62.42-1.03.42s-.76-.14-1.03-.42-.41-.63-.41-1.04v-14.83c0-.42.14-.76.41-1.04s.62-.42,1.03-.42.76.14,1.03.42c.27.28.41.63.41,1.04v5.95l-.36-.07c.14-.27.34-.56.6-.88s.57-.6.94-.88c.37-.27.78-.49,1.22-.66s.94-.25,1.46-.25Z"/>
      <path class="st1" d="M600.35,250.77c0,.42-.14.76-.42,1.04s-.63.42-1.04.42-.74-.14-1.01-.42c-.27-.28-.41-.63-.41-1.04v-14.83c0-.42.14-.76.42-1.04s.63-.42,1.04-.42.76.14,1.02.42c.26.28.4.63.4,1.04v14.83Z"/>
      <path class="st1" d="M604.96,237.83c-.54,0-.93-.09-1.15-.26-.22-.18-.34-.49-.34-.94v-.46c0-.46.12-.78.37-.95.25-.17.63-.25,1.14-.25.56,0,.95.09,1.18.26.22.18.34.49.34.94v.46c0,.46-.12.78-.36.95-.24.17-.63.25-1.18.25ZM606.42,250.77c0,.42-.14.76-.41,1.04-.27.28-.62.42-1.03.42s-.76-.14-1.03-.42-.41-.63-.41-1.04v-9.91c0-.42.14-.76.41-1.04s.62-.42,1.03-.42.76.14,1.03.42c.27.28.41.63.41,1.04v9.91Z"/>
      <path class="st1" d="M616.24,239.63c.38,0,.7.12.96.37s.38.56.38.95-.13.7-.38.95-.58.37-.96.37h-6.36c-.38,0-.71-.12-.96-.37s-.38-.56-.38-.95.13-.7.38-.95.58-.37.96-.37h6.36ZM615.97,234.47c.35,0,.7.05,1.03.14.34.1.62.25.84.47.22.22.34.5.34.85,0,.4-.12.72-.35.95s-.5.35-.8.35c-.14,0-.36-.04-.65-.11-.29-.07-.57-.11-.84-.11-.4,0-.71.09-.92.26-.22.18-.36.38-.44.61-.08.23-.12.44-.12.61v12.26c0,.42-.14.76-.41,1.04-.27.28-.62.42-1.03.42s-.76-.14-1.03-.42c-.27-.28-.41-.63-.41-1.04v-12.24c0-1.14.4-2.1,1.2-2.88.8-.78,2-1.18,3.6-1.18Z"/>
      <path class="st1" d="M625.19,252.47c-1.36,0-2.54-.28-3.54-.85-1-.57-1.77-1.34-2.3-2.32s-.8-2.08-.8-3.31c0-1.44.29-2.67.88-3.68s1.35-1.8,2.29-2.34,1.94-.82,3-.82c.82,0,1.59.17,2.32.5.73.34,1.37.8,1.93,1.38.56.58,1,1.26,1.33,2.03s.49,1.58.49,2.45c-.02.38-.17.7-.46.94s-.62.36-1.01.36h-9.17l-.72-2.4h8.81l-.53.48v-.65c-.03-.46-.2-.88-.49-1.25-.3-.37-.66-.66-1.1-.88-.44-.22-.91-.32-1.4-.32s-.93.06-1.34.19-.78.34-1.08.65c-.3.3-.54.71-.72,1.22-.18.51-.26,1.16-.26,1.94,0,.86.18,1.6.54,2.2.36.6.82,1.06,1.39,1.37.57.31,1.17.47,1.81.47.59,0,1.06-.05,1.42-.14s.64-.21.85-.35c.22-.14.41-.25.59-.35.29-.14.56-.22.82-.22.35,0,.64.12.88.36.23.24.35.52.35.84,0,.43-.22.82-.67,1.18-.42.35-1,.66-1.75.92-.75.26-1.53.4-2.33.4Z"/>
      <path class="st1" d="M636.95,237.86c0,.53-.15,1.06-.44,1.6-.3.54-.68.98-1.15,1.34-.47.36-.97.54-1.5.54-.18,0-.36-.07-.56-.22-.2-.14-.3-.39-.3-.74s.12-.59.35-.66c.23-.07.43-.15.59-.23.21-.11.37-.24.49-.4s.18-.34.18-.56c0-.18-.08-.33-.25-.47-.17-.14-.39-.2-.66-.2-.1,0-.21.01-.34.04-.13.02-.24.07-.34.13-.16-.08-.3-.18-.42-.3-.12-.12-.18-.32-.18-.59,0-.5.23-.92.68-1.28.46-.36.99-.54,1.6-.54.69,0,1.24.23,1.64.7.41.46.61,1.08.61,1.85Z"/>
      <path class="st1" d="M639.16,250.24c-.16-.22-.23-.51-.22-.86.02-.35.22-.66.62-.91.26-.16.53-.23.82-.2.29.02.57.17.84.44.46.46.95.82,1.46,1.08.51.26,1.15.38,1.92.38.24-.02.5-.05.79-.11s.54-.18.76-.38c.22-.2.32-.51.32-.92,0-.35-.12-.63-.36-.84-.24-.21-.56-.38-.95-.53-.39-.14-.83-.28-1.31-.41-.5-.14-1-.3-1.52-.48-.52-.18-1-.4-1.43-.68-.43-.28-.78-.65-1.06-1.12-.27-.46-.41-1.05-.41-1.75,0-.8.22-1.48.67-2.04.45-.56,1.03-.99,1.74-1.3s1.46-.46,2.24-.46c.5,0,1.02.06,1.56.18.54.12,1.06.31,1.56.58.5.26.91.61,1.25,1.04.18.24.28.53.31.86.03.34-.12.64-.46.91-.24.19-.52.28-.84.25-.32-.02-.58-.13-.79-.32-.27-.35-.64-.63-1.09-.84s-.98-.31-1.57-.31c-.24,0-.5.03-.78.08-.28.06-.52.18-.73.36-.21.18-.31.48-.31.88,0,.37.12.66.36.88.24.22.56.39.97.53.41.14.84.27,1.31.4.48.13.97.28,1.46.46.5.18.95.41,1.37.7s.75.66,1.01,1.12.38,1.04.38,1.74c0,.82-.24,1.51-.72,2.09-.48.58-1.08,1.01-1.8,1.31s-1.46.44-2.21.44c-.94,0-1.89-.16-2.83-.49s-1.73-.91-2.35-1.74Z"/>
      <path class="st1" d="M504.25,273.15c.91,0,1.71.1,2.39.29.68.19,1.21.46,1.58.8.38.34.56.76.56,1.24,0,.32-.1.62-.29.9-.19.28-.47.42-.84.42-.26,0-.47-.04-.64-.11s-.32-.16-.44-.28c-.13-.11-.28-.22-.46-.31-.16-.1-.4-.17-.73-.23-.33-.06-.57-.08-.73-.08-.82,0-1.51.18-2.08.53-.57.35-1,.83-1.31,1.43-.3.6-.46,1.29-.46,2.08s.16,1.45.47,2.05c.31.6.74,1.08,1.3,1.43.55.35,1.19.53,1.91.53.4,0,.74-.02,1.03-.07s.53-.12.72-.22c.22-.13.42-.26.6-.41.18-.14.44-.22.79-.22.42,0,.74.13.96.4.22.26.34.59.34.97s-.22.76-.67,1.09c-.45.33-1.04.59-1.76.79-.73.2-1.52.3-2.36.3-1.26,0-2.36-.29-3.29-.88-.93-.58-1.64-1.38-2.15-2.39-.5-1.01-.76-2.14-.76-3.38,0-1.31.27-2.47.8-3.47s1.28-1.78,2.23-2.35c.95-.57,2.04-.85,3.28-.85Z"/>
      <path class="st1" d="M517.76,273.15c1.15,0,2.03.25,2.63.74.6.5,1.01,1.16,1.24,1.98.22.82.34,1.74.34,2.75v6.14c0,.42-.14.76-.41,1.04-.27.28-.62.42-1.03.42s-.76-.14-1.03-.42c-.27-.28-.41-.63-.41-1.04v-6.14c0-.53-.06-1-.19-1.43s-.36-.76-.7-1.02-.82-.38-1.44-.38-1.13.13-1.56.38c-.43.26-.76.6-.97,1.02-.22.42-.32.9-.32,1.43v6.14c0,.42-.14.76-.41,1.04-.27.28-.62.42-1.03.42s-.76-.14-1.03-.42-.41-.63-.41-1.04v-14.83c0-.42.14-.76.41-1.04s.62-.42,1.03-.42.76.14,1.03.42c.27.28.41.63.41,1.04v5.95l-.36-.07c.14-.27.34-.56.6-.88s.57-.6.94-.88c.37-.27.78-.49,1.22-.66s.94-.25,1.46-.25Z"/>
      <path class="st1" d="M535.6,273.15c.42,0,.76.14,1.03.41.27.27.41.62.41,1.06v10.15c0,.42-.14.76-.41,1.04-.27.28-.62.42-1.03.42s-.76-.14-1.03-.42c-.27-.28-.41-.63-.41-1.04v-1.18l.53.22c0,.21-.11.46-.34.76-.22.3-.53.59-.91.88s-.84.53-1.36.73c-.52.2-1.08.3-1.69.3-1.1,0-2.1-.28-3-.85-.9-.57-1.6-1.35-2.12-2.35-.52-1-.78-2.15-.78-3.44s.26-2.47.78-3.47c.52-1,1.22-1.78,2.1-2.35.88-.57,1.86-.85,2.93-.85.69,0,1.32.1,1.9.31s1.08.47,1.5.79.75.64.98.97c.23.33.35.6.35.83l-.86.31v-1.75c0-.42.14-.76.41-1.04.27-.28.62-.42,1.03-.42ZM530.75,283.83c.7,0,1.32-.18,1.85-.53.53-.35.94-.83,1.24-1.44.3-.61.44-1.29.44-2.04s-.15-1.46-.44-2.06-.71-1.09-1.24-1.44c-.53-.35-1.14-.53-1.85-.53s-1.3.18-1.82.53c-.53.35-.94.83-1.24,1.44s-.44,1.3-.44,2.06.15,1.43.44,2.04c.3.61.71,1.09,1.24,1.44.53.35,1.14.53,1.82.53Z"/>
      <path class="st1" d="M543.28,284.77c0,.42-.14.76-.42,1.04s-.63.42-1.04.42-.74-.14-1.01-.42c-.27-.28-.41-.63-.41-1.04v-14.83c0-.42.14-.76.42-1.04s.63-.42,1.04-.42.76.14,1.02.42c.26.28.4.63.4,1.04v14.83Z"/>
      <path class="st1" d="M549.76,284.77c0,.42-.14.76-.42,1.04s-.63.42-1.04.42-.74-.14-1.01-.42c-.27-.28-.41-.63-.41-1.04v-14.83c0-.42.14-.76.42-1.04s.63-.42,1.04-.42.76.14,1.02.42c.26.28.4.63.4,1.04v14.83Z"/>
      <path class="st1" d="M558.92,286.47c-1.36,0-2.54-.28-3.54-.85-1-.57-1.77-1.34-2.3-2.32s-.8-2.08-.8-3.31c0-1.44.29-2.67.88-3.68s1.35-1.8,2.29-2.34,1.94-.82,3-.82c.82,0,1.59.17,2.32.5.73.34,1.37.8,1.93,1.38.56.58,1,1.26,1.33,2.03s.49,1.58.49,2.45c-.02.38-.17.7-.46.94s-.62.36-1.01.36h-9.17l-.72-2.4h8.81l-.53.48v-.65c-.03-.46-.2-.88-.49-1.25-.3-.37-.66-.66-1.1-.88-.44-.22-.91-.32-1.4-.32s-.93.06-1.34.19-.78.34-1.08.65c-.3.3-.54.71-.72,1.22-.18.51-.26,1.16-.26,1.94,0,.86.18,1.6.54,2.2.36.6.82,1.06,1.39,1.37.57.31,1.17.47,1.81.47.59,0,1.06-.05,1.42-.14s.64-.21.85-.35c.22-.14.41-.25.59-.35.29-.14.56-.22.82-.22.35,0,.64.12.88.36.23.24.35.52.35.84,0,.43-.22.82-.67,1.18-.42.35-1,.66-1.75.92-.75.26-1.53.4-2.33.4Z"/>
      <path class="st1" d="M573.9,273.15c1.18,0,2.08.25,2.7.74s1.04,1.16,1.27,1.98c.23.82.35,1.74.35,2.75v6.14c0,.42-.14.76-.41,1.04-.27.28-.62.42-1.03.42s-.76-.14-1.03-.42c-.27-.28-.41-.63-.41-1.04v-6.14c0-.53-.07-1-.2-1.43-.14-.42-.38-.76-.73-1.02s-.86-.38-1.51-.38-1.18.13-1.62.38-.78.6-1.01,1.02c-.23.42-.35.9-.35,1.43v6.14c0,.42-.14.76-.41,1.04-.27.28-.62.42-1.03.42s-.76-.14-1.03-.42-.41-.63-.41-1.04v-9.91c0-.42.14-.76.41-1.04s.62-.42,1.03-.42.76.14,1.03.42c.27.28.41.63.41,1.04v1.03l-.36-.07c.14-.27.35-.56.62-.88.27-.31.59-.6.96-.88.37-.27.78-.49,1.25-.66.46-.17.97-.25,1.51-.25Z"/>
      <path class="st1" d="M586.67,273.15c.67,0,1.29.1,1.85.31.56.21,1.04.47,1.45.79.41.32.73.64.96.97.23.33.35.6.35.83l-.62.31v-1.75c0-.42.14-.76.41-1.04.27-.28.62-.42,1.03-.42s.76.14,1.03.41.41.62.41,1.06v10.68c0,1.39-.3,2.51-.9,3.35-.6.84-1.39,1.45-2.36,1.82-.98.38-2.02.56-3.14.56-.32,0-.74-.04-1.25-.12s-1-.18-1.46-.29c-.46-.11-.82-.22-1.06-.31-.48-.21-.81-.47-1-.78-.18-.31-.22-.64-.11-1,.14-.46.38-.78.7-.95s.66-.19,1.01-.06c.16.05.42.14.79.29s.77.28,1.21.4c.44.12.83.18,1.16.18,1.2,0,2.09-.24,2.66-.72.58-.48.86-1.14.86-1.99v-2.09l.29.22c0,.21-.11.46-.32.76s-.51.59-.89.88-.82.53-1.33.73c-.51.2-1.06.3-1.63.3-1.14,0-2.16-.28-3.07-.85-.91-.57-1.63-1.35-2.16-2.35s-.79-2.15-.79-3.44.26-2.47.79-3.47,1.24-1.78,2.14-2.35c.9-.57,1.9-.85,3-.85ZM587.12,275.79c-.72,0-1.35.18-1.9.53-.54.35-.97.83-1.27,1.44s-.46,1.3-.46,2.06.15,1.43.46,2.04c.3.61.73,1.09,1.27,1.44s1.18.53,1.9.53,1.38-.18,1.92-.53.97-.83,1.27-1.44c.3-.61.46-1.29.46-2.04s-.15-1.46-.46-2.06c-.3-.61-.73-1.09-1.27-1.44-.54-.35-1.18-.53-1.92-.53Z"/>
      <path class="st1" d="M602.22,286.47c-1.36,0-2.54-.28-3.54-.85-1-.57-1.77-1.34-2.3-2.32s-.8-2.08-.8-3.31c0-1.44.29-2.67.88-3.68s1.35-1.8,2.29-2.34,1.94-.82,3-.82c.82,0,1.59.17,2.32.5.73.34,1.37.8,1.93,1.38.56.58,1,1.26,1.33,2.03s.49,1.58.49,2.45c-.02.38-.17.7-.46.94s-.62.36-1.01.36h-9.17l-.72-2.4h8.81l-.53.48v-.65c-.03-.46-.2-.88-.49-1.25-.3-.37-.66-.66-1.1-.88-.44-.22-.91-.32-1.4-.32s-.93.06-1.34.19-.78.34-1.08.65c-.3.3-.54.71-.72,1.22-.18.51-.26,1.16-.26,1.94,0,.86.18,1.6.54,2.2.36.6.82,1.06,1.39,1.37.57.31,1.17.47,1.81.47.59,0,1.06-.05,1.42-.14s.64-.21.85-.35c.22-.14.41-.25.59-.35.29-.14.56-.22.82-.22.35,0,.64.12.88.36.23.24.35.52.35.84,0,.43-.22.82-.67,1.18-.42.35-1,.66-1.75.92-.75.26-1.53.4-2.33.4Z"/>
      <path class="st1" d="M609.59,284.24c-.16-.22-.23-.51-.22-.86.02-.35.22-.66.62-.91.26-.16.53-.23.82-.2.29.02.57.17.84.44.46.46.95.82,1.46,1.08.51.26,1.15.38,1.92.38.24-.02.5-.05.79-.11s.54-.18.76-.38c.22-.2.32-.51.32-.92,0-.35-.12-.63-.36-.84-.24-.21-.56-.38-.95-.53-.39-.14-.83-.28-1.31-.41-.5-.14-1-.3-1.52-.48-.52-.18-1-.4-1.43-.68-.43-.28-.78-.65-1.06-1.12-.27-.46-.41-1.05-.41-1.75,0-.8.22-1.48.67-2.04.45-.56,1.03-.99,1.74-1.3s1.46-.46,2.24-.46c.5,0,1.02.06,1.56.18.54.12,1.06.31,1.56.58.5.26.91.61,1.25,1.04.18.24.28.53.31.86.03.34-.12.64-.46.91-.24.19-.52.28-.84.25-.32-.02-.58-.13-.79-.32-.27-.35-.64-.63-1.09-.84s-.98-.31-1.57-.31c-.24,0-.5.03-.78.08-.28.06-.52.18-.73.36-.21.18-.31.48-.31.88,0,.37.12.66.36.88.24.22.56.39.97.53.41.14.84.27,1.31.4.48.13.97.28,1.46.46.5.18.95.41,1.37.7s.75.66,1.01,1.12.38,1.04.38,1.74c0,.82-.24,1.51-.72,2.09-.48.58-1.08,1.01-1.8,1.31s-1.46.44-2.21.44c-.94,0-1.89-.16-2.83-.49s-1.73-.91-2.35-1.74Z"/>
    </g>
    <path class="st4" d="M752.55,468.57c-5.33.27-10.94-.25-16.27-.45-73.1-2.66-162.02-6.02-235.12-8.68-124.66-4.54-40.27-1.47-164.93-6-94.5-3.44,32.25,1.17-62.25-2.27-45.11-1.64-90.23-3.28-135.34-4.92-10.45-.38-54.21-1.97-64.66-2.35-13.42-.49-23.9-11.76-23.41-25.18.64-17.73,2.16-43.47,25.88-42.61,34.31,1.25,101.93,3.71,136.23,4.96,123.88,4.51,26.52.96,150.4,5.47,59.5,2.17,119.01,4.33,178.51,6.5,119.02,4.33,28.99,1.05,148.02,5.37,13.9.5,43.62,1.58,57.52,2.09,15.77.57,31.98,6.76,31.3,25.48-.37,10.32-.17,22.36-5.41,31.63-4.67,8.25-12.22,10.55-20.47,10.97Z"/>
    <g>
      <path class="st5" d="M176.99,83.23h86.2c48.29,0,87.49,39.2,87.49,87.49v198.18c0,6.85-5.56,12.41-12.41,12.41H101.9c-6.85,0-12.41-5.56-12.41-12.41v-198.18c0-48.29,39.2-87.49,87.49-87.49Z" transform="translate(8.59 -7.85) rotate(2.08)"/>
      <g>
        <path class="st1" d="M152.92,178.9c-1.12,0-2.13-.14-3.02-.42s-1.75-.77-2.57-1.48c-.21-.18-.37-.38-.48-.6s-.17-.45-.17-.67c0-.37.13-.69.4-.97s.6-.42,1-.42c.3,0,.58.1.82.29.61.5,1.21.87,1.81,1.13s1.34.38,2.22.38c.59,0,1.14-.09,1.63-.28.5-.18.9-.43,1.2-.74.3-.31.46-.67.46-1.07,0-.48-.14-.89-.43-1.22s-.73-.62-1.32-.85c-.59-.23-1.34-.41-2.26-.54-.86-.13-1.62-.32-2.28-.59-.66-.26-1.2-.6-1.64-1.01-.44-.41-.77-.89-1-1.44-.22-.55-.34-1.17-.34-1.86,0-1.04.27-1.93.8-2.66.54-.74,1.26-1.3,2.17-1.68.91-.38,1.92-.58,3.02-.58,1.04,0,2,.16,2.89.47.89.31,1.61.71,2.17,1.19.46.37.7.79.7,1.27,0,.35-.14.67-.41.96-.27.29-.59.43-.96.43-.24,0-.46-.07-.65-.22-.26-.22-.6-.44-1.03-.64s-.89-.37-1.37-.5c-.48-.14-.93-.2-1.34-.2-.69,0-1.27.09-1.74.26-.47.18-.83.42-1.07.72-.24.3-.36.66-.36,1.06,0,.48.14.88.42,1.19.28.31.68.56,1.21.74.53.18,1.16.35,1.9.49.96.18,1.8.38,2.53.62.73.24,1.33.55,1.81.92.48.38.84.85,1.08,1.42.24.57.36,1.26.36,2.08,0,1.04-.29,1.94-.86,2.69-.58.75-1.33,1.33-2.27,1.73-.94.4-1.95.6-3.04.6Z"/>
        <path class="st1" d="M161.75,166.06h5.69c.38,0,.7.13.96.38.26.26.38.58.38.96s-.13.68-.38.92c-.26.25-.58.37-.96.37h-5.69c-.38,0-.7-.13-.96-.38-.26-.26-.38-.58-.38-.96s.13-.68.38-.92c.26-.25.58-.37.96-.37ZM164.32,163.06c.42,0,.76.14,1.02.42.26.28.4.63.4,1.04v10.68c0,.22.04.41.13.55s.21.25.36.31c.15.06.32.1.49.1.19,0,.37-.04.53-.11.16-.07.34-.11.55-.11.22,0,.43.1.61.31s.28.5.28.86c0,.45-.24.82-.73,1.1-.49.29-1.01.43-1.57.43-.34,0-.71-.03-1.12-.08-.41-.06-.79-.19-1.15-.41-.36-.22-.66-.55-.9-1-.24-.45-.36-1.06-.36-1.85v-10.8c0-.42.14-.76.42-1.04s.63-.42,1.04-.42Z"/>
        <path class="st1" d="M181.93,165.58c.42,0,.76.14,1.03.41.27.27.41.62.41,1.06v10.15c0,.42-.14.76-.41,1.04-.27.28-.62.42-1.03.42s-.76-.14-1.03-.42c-.27-.28-.41-.63-.41-1.04v-1.18l.53.22c0,.21-.11.46-.34.76-.22.3-.53.59-.91.88-.38.29-.84.53-1.36.73-.52.2-1.08.3-1.69.3-1.1,0-2.1-.28-3-.85s-1.6-1.35-2.12-2.35c-.52-1-.78-2.15-.78-3.44s.26-2.47.78-3.47c.52-1,1.22-1.78,2.1-2.35.88-.57,1.86-.85,2.93-.85.69,0,1.32.1,1.9.31.58.21,1.08.47,1.5.79.42.32.75.64.98.97.23.33.35.6.35.83l-.86.31v-1.75c0-.42.14-.76.41-1.04.27-.28.62-.42,1.03-.42ZM177.09,176.26c.7,0,1.32-.18,1.85-.53.53-.35.94-.83,1.24-1.44.3-.61.44-1.29.44-2.04s-.15-1.46-.44-2.06c-.3-.61-.71-1.09-1.24-1.44-.53-.35-1.14-.53-1.85-.53s-1.3.18-1.82.53c-.53.35-.94.83-1.24,1.44-.3.61-.44,1.3-.44,2.06s.15,1.43.44,2.04c.3.61.71,1.09,1.24,1.44.53.35,1.14.53,1.82.53Z"/>
        <path class="st1" d="M196.02,165.82c.42,0,.76.14,1.03.42.27.28.41.63.41,1.04v10.2c0,1.47-.28,2.64-.83,3.52-.55.87-1.29,1.5-2.22,1.88-.93.38-1.97.58-3.12.58-.51,0-1.06-.04-1.63-.12-.58-.08-1.05-.2-1.42-.36-.48-.21-.81-.47-1-.78-.18-.31-.22-.64-.11-1,.14-.46.38-.78.7-.95s.66-.19,1.01-.06c.26.08.59.2,1.01.37s.9.25,1.44.25c.74,0,1.35-.1,1.84-.3s.86-.54,1.1-1.01c.25-.47.37-1.12.37-1.93v-1.61l.5.58c-.27.53-.61.96-1.02,1.31-.41.34-.89.6-1.45.78-.56.18-1.2.26-1.92.26-.85,0-1.59-.2-2.22-.59-.63-.39-1.12-.94-1.48-1.63s-.53-1.49-.53-2.39v-7.01c0-.42.14-.76.41-1.04.27-.28.62-.42,1.03-.42s.76.14,1.03.42c.27.28.41.63.41,1.04v6.14c0,1.04.23,1.77.68,2.2.46.42,1.09.64,1.91.64.56,0,1.03-.11,1.42-.32.38-.22.68-.54.89-.96.21-.42.31-.94.31-1.55v-6.14c0-.42.14-.76.41-1.04.27-.28.62-.42,1.03-.42Z"/>
        <path class="st1" d="M201.83,164.26c-.54,0-.93-.09-1.15-.26-.22-.18-.34-.49-.34-.94v-.46c0-.46.12-.78.37-.95s.63-.25,1.14-.25c.56,0,.95.09,1.18.26.22.18.34.49.34.94v.46c0,.46-.12.78-.36.95-.24.17-.63.25-1.18.25ZM203.29,177.19c0,.42-.14.76-.41,1.04-.27.28-.62.42-1.03.42s-.76-.14-1.03-.42c-.27-.28-.41-.63-.41-1.04v-9.91c0-.42.14-.76.41-1.04.27-.28.62-.42,1.03-.42s.76.14,1.03.42c.27.28.41.63.41,1.04v9.91Z"/>
        <path class="st1" d="M213.11,165.58c1.18,0,2.08.25,2.7.74.62.5,1.04,1.16,1.27,1.98.23.82.35,1.74.35,2.75v6.14c0,.42-.14.76-.41,1.04-.27.28-.62.42-1.03.42s-.76-.14-1.03-.42c-.27-.28-.41-.63-.41-1.04v-6.14c0-.53-.07-1-.2-1.43-.14-.42-.38-.76-.73-1.02-.35-.26-.86-.38-1.51-.38s-1.18.13-1.62.38c-.44.26-.78.6-1.01,1.02-.23.42-.35.9-.35,1.43v6.14c0,.42-.14.76-.41,1.04-.27.28-.62.42-1.03.42s-.76-.14-1.03-.42c-.27-.28-.41-.63-.41-1.04v-9.91c0-.42.14-.76.41-1.04.27-.28.62-.42,1.03-.42s.76.14,1.03.42c.27.28.41.63.41,1.04v1.03l-.36-.07c.14-.27.35-.56.62-.88.27-.31.59-.6.96-.88.37-.27.78-.49,1.25-.66.46-.17.97-.25,1.51-.25Z"/>
        <path class="st1" d="M225.88,165.58c.67,0,1.29.1,1.85.31.56.21,1.04.47,1.45.79.41.32.73.64.96.97.23.33.35.6.35.83l-.62.31v-1.75c0-.42.14-.76.41-1.04.27-.28.62-.42,1.03-.42s.76.14,1.03.41c.27.27.41.62.41,1.06v10.68c0,1.39-.3,2.51-.9,3.35-.6.84-1.39,1.45-2.36,1.82s-2.02.56-3.14.56c-.32,0-.74-.04-1.25-.12-.51-.08-1-.18-1.46-.29-.46-.11-.82-.22-1.06-.31-.48-.21-.81-.47-1-.78-.18-.31-.22-.64-.11-1,.14-.46.38-.78.7-.95.32-.17.66-.19,1.01-.06.16.05.42.14.79.29s.77.28,1.21.4c.44.12.83.18,1.16.18,1.2,0,2.09-.24,2.66-.72.58-.48.86-1.14.86-1.99v-2.09l.29.22c0,.21-.11.46-.32.76-.22.3-.51.59-.89.88-.38.29-.82.53-1.33.73-.51.2-1.06.3-1.63.3-1.14,0-2.16-.28-3.07-.85s-1.63-1.35-2.16-2.35-.79-2.15-.79-3.44.26-2.47.79-3.47,1.24-1.78,2.14-2.35c.9-.57,1.9-.85,3-.85ZM226.33,168.22c-.72,0-1.35.18-1.9.53-.54.35-.97.83-1.27,1.44-.3.61-.46,1.3-.46,2.06s.15,1.43.46,2.04c.3.61.73,1.09,1.27,1.44.54.35,1.18.53,1.9.53s1.38-.18,1.92-.53c.54-.35.97-.83,1.27-1.44.3-.61.46-1.29.46-2.04s-.15-1.46-.46-2.06c-.3-.61-.73-1.09-1.27-1.44-.54-.35-1.18-.53-1.92-.53Z"/>
        <path class="st1" d="M241.84,176.67c-.16-.22-.23-.51-.22-.86.02-.35.22-.66.62-.91.26-.16.53-.23.82-.2s.57.17.84.44c.46.46.95.82,1.46,1.08.51.26,1.15.38,1.92.38.24-.02.5-.05.79-.11s.54-.18.76-.38c.22-.2.32-.51.32-.92,0-.35-.12-.63-.36-.84-.24-.21-.56-.38-.95-.53-.39-.14-.83-.28-1.31-.41-.5-.14-1-.3-1.52-.48-.52-.18-1-.4-1.43-.68-.43-.28-.78-.65-1.06-1.12-.27-.46-.41-1.05-.41-1.75,0-.8.22-1.48.67-2.04.45-.56,1.03-.99,1.74-1.3.71-.3,1.46-.46,2.24-.46.5,0,1.02.06,1.56.18s1.06.31,1.56.58c.5.26.91.61,1.25,1.04.18.24.28.53.31.86.03.34-.12.64-.46.91-.24.19-.52.28-.84.25-.32-.02-.58-.13-.79-.32-.27-.35-.64-.63-1.09-.84-.46-.21-.98-.31-1.57-.31-.24,0-.5.03-.78.08-.28.06-.52.18-.73.36-.21.18-.31.48-.31.88,0,.37.12.66.36.88.24.22.56.39.97.53.41.14.84.27,1.31.4.48.13.97.28,1.46.46.5.18.95.41,1.37.7s.75.66,1.01,1.12.38,1.04.38,1.74c0,.82-.24,1.51-.72,2.09-.48.58-1.08,1.01-1.8,1.31s-1.46.44-2.21.44c-.94,0-1.89-.16-2.83-.49-.94-.33-1.73-.91-2.35-1.74Z"/>
        <path class="st1" d="M264.85,165.58c.42,0,.76.14,1.03.41.27.27.41.62.41,1.06v10.15c0,.42-.14.76-.41,1.04-.27.28-.62.42-1.03.42s-.76-.14-1.03-.42c-.27-.28-.41-.63-.41-1.04v-1.18l.53.22c0,.21-.11.46-.34.76-.22.3-.53.59-.91.88s-.84.53-1.36.73c-.52.2-1.08.3-1.69.3-1.1,0-2.1-.28-3-.85-.9-.57-1.6-1.35-2.12-2.35-.52-1-.78-2.15-.78-3.44s.26-2.47.78-3.47c.52-1,1.22-1.78,2.1-2.35.88-.57,1.86-.85,2.93-.85.69,0,1.32.1,1.9.31.58.21,1.08.47,1.5.79.42.32.75.64.98.97.23.33.35.6.35.83l-.86.31v-1.75c0-.42.14-.76.41-1.04.27-.28.62-.42,1.03-.42ZM260,176.26c.7,0,1.32-.18,1.85-.53.53-.35.94-.83,1.24-1.44.3-.61.44-1.29.44-2.04s-.15-1.46-.44-2.06c-.3-.61-.71-1.09-1.24-1.44-.53-.35-1.14-.53-1.85-.53s-1.3.18-1.82.53c-.53.35-.94.83-1.24,1.44-.3.61-.44,1.3-.44,2.06s.15,1.43.44,2.04c.3.61.71,1.09,1.24,1.44.53.35,1.14.53,1.82.53Z"/>
        <path class="st1" d="M276.28,166.06c.38,0,.7.12.96.37s.38.56.38.95-.13.7-.38.95-.58.37-.96.37h-6.36c-.38,0-.71-.12-.96-.37s-.38-.56-.38-.95.13-.7.38-.95.58-.37.96-.37h6.36ZM276.01,160.9c.35,0,.7.05,1.03.14.34.1.62.25.84.47.22.22.34.5.34.85,0,.4-.12.72-.35.95-.23.23-.5.35-.8.35-.14,0-.36-.04-.65-.11-.29-.07-.57-.11-.84-.11-.4,0-.71.09-.92.26-.22.18-.36.38-.44.61-.08.23-.12.44-.12.61v12.26c0,.42-.14.76-.41,1.04-.27.28-.62.42-1.03.42s-.76-.14-1.03-.42c-.27-.28-.41-.63-.41-1.04v-12.24c0-1.14.4-2.1,1.2-2.88.8-.78,2-1.18,3.6-1.18Z"/>
        <path class="st1" d="M285.23,178.9c-1.36,0-2.54-.28-3.54-.85-1-.57-1.77-1.34-2.3-2.32-.54-.98-.8-2.08-.8-3.31,0-1.44.29-2.67.88-3.68s1.35-1.8,2.29-2.34c.94-.54,1.94-.82,3-.82.82,0,1.59.17,2.32.5.73.34,1.37.8,1.93,1.38.56.58,1,1.26,1.33,2.03s.49,1.58.49,2.45c-.02.38-.17.7-.46.94-.29.24-.62.36-1.01.36h-9.17l-.72-2.4h8.81l-.53.48v-.65c-.03-.46-.2-.88-.49-1.25-.3-.37-.66-.66-1.1-.88-.44-.22-.91-.32-1.4-.32s-.93.06-1.34.19c-.42.13-.78.34-1.08.65-.3.3-.54.71-.72,1.22-.18.51-.26,1.16-.26,1.94,0,.86.18,1.6.54,2.2.36.6.82,1.06,1.39,1.37.57.31,1.17.47,1.81.47.59,0,1.06-.05,1.42-.14.35-.1.64-.21.85-.35.22-.14.41-.25.59-.35.29-.14.56-.22.82-.22.35,0,.64.12.88.36.23.24.35.52.35.84,0,.43-.22.82-.67,1.18-.42.35-1,.66-1.75.92-.75.26-1.53.4-2.33.4Z"/>
        <path class="st1" d="M148.53,198.26c-.54,0-.93-.09-1.15-.26-.22-.18-.34-.49-.34-.94v-.46c0-.46.12-.78.37-.95s.63-.25,1.14-.25c.56,0,.95.09,1.18.26.22.18.34.49.34.94v.46c0,.46-.12.78-.36.95-.24.17-.63.25-1.18.25ZM149.99,211.19c0,.42-.14.76-.41,1.04-.27.28-.62.42-1.03.42s-.76-.14-1.03-.42c-.27-.28-.41-.63-.41-1.04v-9.91c0-.42.14-.76.41-1.04.27-.28.62-.42,1.03-.42s.76.14,1.03.42c.27.28.41.63.41,1.04v9.91Z"/>
        <path class="st1" d="M159.81,199.58c1.18,0,2.08.25,2.7.74.62.5,1.04,1.16,1.27,1.98.23.82.35,1.74.35,2.75v6.14c0,.42-.14.76-.41,1.04-.27.28-.62.42-1.03.42s-.76-.14-1.03-.42c-.27-.28-.41-.63-.41-1.04v-6.14c0-.53-.07-1-.2-1.43-.14-.42-.38-.76-.73-1.02-.35-.26-.86-.38-1.51-.38s-1.18.13-1.62.38c-.44.26-.78.6-1.01,1.02-.23.42-.35.9-.35,1.43v6.14c0,.42-.14.76-.41,1.04-.27.28-.62.42-1.03.42s-.76-.14-1.03-.42c-.27-.28-.41-.63-.41-1.04v-9.91c0-.42.14-.76.41-1.04.27-.28.62-.42,1.03-.42s.76.14,1.03.42c.27.28.41.63.41,1.04v1.03l-.36-.07c.14-.27.35-.56.62-.88.27-.31.59-.6.96-.88.37-.27.78-.49,1.25-.66.46-.17.97-.25,1.51-.25Z"/>
        <path class="st1" d="M188.75,199.82c.37,0,.69.14.96.42.27.28.41.64.41,1.07,0,.11,0,.21-.02.3-.02.09-.04.17-.07.25l-3.67,9.89c-.11.32-.31.56-.6.73-.29.17-.59.23-.91.18-.54-.03-.95-.34-1.22-.91l-2.38-6.84.62.02-2.23,6.82c-.27.58-.68.88-1.22.91-.3.05-.6-.01-.9-.18-.3-.17-.5-.41-.61-.73l-3.67-9.89c-.06-.18-.1-.36-.1-.55,0-.38.13-.73.38-1.03.26-.3.61-.46,1.06-.46.3,0,.58.07.82.22.24.14.41.38.5.7l2.9,7.87-.6-.05,2.18-5.93c.26-.59.7-.89,1.32-.89.35,0,.62.08.8.23.18.15.33.37.44.66l2.18,5.93-.72.1,2.95-7.92c.19-.61.66-.91,1.39-.91Z"/>
        <path class="st1" d="M203,199.58c.42,0,.76.14,1.03.41.27.27.41.62.41,1.06v10.15c0,.42-.14.76-.41,1.04-.27.28-.62.42-1.03.42s-.76-.14-1.03-.42c-.27-.28-.41-.63-.41-1.04v-1.18l.53.22c0,.21-.11.46-.34.76-.22.3-.53.59-.91.88-.38.29-.84.53-1.36.73-.52.2-1.08.3-1.69.3-1.1,0-2.1-.28-3-.85s-1.6-1.35-2.12-2.35c-.52-1-.78-2.15-.78-3.44s.26-2.47.78-3.47c.52-1,1.22-1.78,2.1-2.35.88-.57,1.86-.85,2.93-.85.69,0,1.32.1,1.9.31.58.21,1.08.47,1.5.79.42.32.75.64.98.97.23.33.35.6.35.83l-.86.31v-1.75c0-.42.14-.76.41-1.04.27-.28.62-.42,1.03-.42ZM198.16,210.26c.7,0,1.32-.18,1.85-.53.53-.35.94-.83,1.24-1.44.3-.61.44-1.29.44-2.04s-.15-1.46-.44-2.06c-.3-.61-.71-1.09-1.24-1.44-.53-.35-1.14-.53-1.85-.53s-1.3.18-1.82.53c-.53.35-.94.83-1.24,1.44-.3.61-.44,1.3-.44,2.06s.15,1.43.44,2.04c.3.61.71,1.09,1.24,1.44.53.35,1.14.53,1.82.53Z"/>
        <path class="st1" d="M207.71,200.06h5.69c.38,0,.7.13.96.38.26.26.38.58.38.96s-.13.68-.38.92c-.26.25-.58.37-.96.37h-5.69c-.38,0-.7-.13-.96-.38-.26-.26-.38-.58-.38-.96s.13-.68.38-.92c.26-.25.58-.37.96-.37ZM210.28,197.06c.42,0,.76.14,1.02.42.26.28.4.63.4,1.04v10.68c0,.22.04.41.13.55s.21.25.36.31c.15.06.32.1.49.1.19,0,.37-.04.53-.11.16-.07.34-.11.55-.11.22,0,.43.1.61.31s.28.5.28.86c0,.45-.24.82-.73,1.1-.49.29-1.01.43-1.57.43-.34,0-.71-.03-1.12-.08-.41-.06-.79-.19-1.15-.41-.36-.22-.66-.55-.9-1-.24-.45-.36-1.06-.36-1.85v-10.8c0-.42.14-.76.42-1.04s.63-.42,1.04-.42Z"/>
        <path class="st1" d="M223.31,212.9c-1.36,0-2.54-.28-3.54-.85s-1.77-1.34-2.3-2.32c-.54-.98-.8-2.08-.8-3.31,0-1.44.29-2.67.88-3.68s1.35-1.8,2.29-2.34c.94-.54,1.94-.82,3-.82.82,0,1.59.17,2.32.5s1.37.8,1.93,1.38,1,1.26,1.33,2.03c.33.77.49,1.58.49,2.45-.02.38-.17.7-.46.94-.29.24-.62.36-1.01.36h-9.17l-.72-2.4h8.81l-.53.48v-.65c-.03-.46-.2-.88-.49-1.25-.3-.37-.66-.66-1.1-.88-.44-.22-.91-.32-1.4-.32s-.93.06-1.34.19c-.42.13-.78.34-1.08.65s-.54.71-.72,1.22c-.18.51-.26,1.16-.26,1.94,0,.86.18,1.6.54,2.2.36.6.82,1.06,1.39,1.37s1.17.47,1.81.47c.59,0,1.06-.05,1.42-.14.35-.1.64-.21.85-.35.22-.14.41-.25.59-.35.29-.14.56-.22.82-.22.35,0,.64.12.88.36.23.24.35.52.35.84,0,.43-.22.82-.67,1.18-.42.35-1,.66-1.75.92-.75.26-1.53.4-2.33.4Z"/>
        <path class="st1" d="M232.86,212.66c-.42,0-.76-.14-1.03-.42-.27-.28-.41-.63-.41-1.04v-9.91c0-.42.14-.76.41-1.04.27-.28.62-.42,1.03-.42s.76.14,1.03.42c.27.28.41.63.41,1.04v2.26l-.17-1.61c.18-.38.4-.72.68-1.02.28-.3.6-.54.95-.74.35-.2.73-.35,1.13-.44.4-.1.8-.14,1.2-.14.48,0,.88.14,1.21.41s.49.59.49.96c0,.53-.14.91-.41,1.14s-.57.35-.89.35-.58-.06-.83-.17c-.25-.11-.53-.17-.85-.17-.29,0-.58.07-.88.2-.3.14-.57.35-.82.64-.25.29-.45.64-.6,1.07-.15.42-.23.92-.23,1.5v5.69c0,.42-.14.76-.41,1.04-.27.28-.62.42-1.03.42Z"/>
      </g>
    </g>
    <g>
      <path class="st3" d="M86.99,357.27c.14,0,.52.06.17,0,.16.03.33.07.49.11.54.15.36.09.84.33.81.41,1.58.94,2.3,1.5,1.68,1.3,3.4,2.95,5.04,4.45,3.94,3.61,8.07,7.26,13.09,9.28,2.24.9,4.83,1.51,7.26,1.21s4.4-1.4,6.29-2.7c4.42-3.05,8.1-7.05,12.46-10.18,1.99-1.43,4.15-2.75,6.56-3.32,2.02-.47,3.77-.19,5.61.73,4.64,2.34,8.25,6.45,12.17,9.78,3.66,3.11,8.28,6.71,13.39,6.18s9.4-4.49,13.12-7.73c2.09-1.82,4.15-3.7,6.39-5.34,1.89-1.39,3.95-2.71,6.27-3.23,4.45-1.01,8.71,2.64,11.92,5.42,4.05,3.5,7.92,7.77,12.84,10.05,2.22,1.03,4.53,1.51,6.97,1.1s4.63-1.62,6.61-2.97c4.58-3.13,8.34-7.29,12.85-10.51,1.81-1.29,3.84-2.57,6.08-2.89,1.93-.28,4.06.45,5.85,1.42,4.76,2.6,8.5,6.75,12.65,10.17,3.79,3.11,8.03,5.95,13.15,4.9,5.21-1.07,9.51-5.06,13.36-8.48,1.95-1.73,3.86-3.52,5.94-5.09,1.71-1.29,3.55-2.53,5.65-2.9,1.91-.34,4.61.36,6.58,1.17,2.45,1.02,4.7,2.52,6.8,4.12,3.87,2.93,7.23,6.57,11.29,9.25,1.4.92,3.02,1.74,4.73,1.71,2.01-.04,2.02-3.17,0-3.13-.16,0-.32,0-.47-.02.39.03-.08-.02-.2-.05-.17-.05-.34-.1-.51-.15-.34-.11-.07,0-.35-.14-.83-.39-1.61-.9-2.36-1.44-1.81-1.3-3.51-2.86-5.21-4.34-4.07-3.54-8.32-7.13-13.44-9.04-2.34-.87-5.02-1.4-7.51-.99-2.2.37-4.23,1.56-6.02,2.85-4.37,3.14-8.01,7.17-12.36,10.32-1.98,1.43-4.12,2.74-6.53,3.28-2.01.45-3.78.11-5.62-.84-4.67-2.41-8.32-6.53-12.33-9.85s-8.47-6.57-13.72-5.78-9.23,4.82-12.89,8.03c-2.08,1.82-4.13,3.69-6.38,5.3-1.88,1.35-3.95,2.62-6.26,3.04-4.43.81-8.75-3.06-11.92-5.83-4-3.5-7.9-7.73-12.84-9.89-2.24-.98-4.56-1.36-6.98-.86s-4.63,1.77-6.62,3.16c-4.53,3.18-8.3,7.34-12.86,10.47-1.73,1.19-3.83,2.42-5.85,2.61-2.14.21-4.19-.6-6.04-1.67-4.67-2.71-8.35-6.84-12.49-10.25-3.78-3.11-7.98-5.83-13.07-4.73s-9.53,5.09-13.43,8.49c-1.96,1.7-3.88,3.46-5.99,4.98-.95.68-1.93,1.33-2.98,1.85-.41.21-.7.34-1.13.48-.38.13-1.16.33-1.32.35-2.2.31-4.66-.4-6.64-1.29-2.4-1.07-4.61-2.59-6.66-4.23-3.79-3.05-7.08-6.74-11.06-9.54-1.37-.96-2.95-1.8-4.66-1.83-2.01-.04-2.01,3.08,0,3.13h0Z"/>
      <path class="st3" d="M87.97,340.73c.14,0,.52.06.17,0,.16.03.33.07.49.11.54.15.36.09.84.33.81.41,1.58.94,2.3,1.5,1.68,1.3,3.4,2.95,5.04,4.45,3.94,3.61,8.07,7.26,13.09,9.28,2.24.9,4.83,1.51,7.26,1.21s4.4-1.4,6.29-2.7c4.42-3.05,8.1-7.05,12.46-10.18,1.99-1.43,4.15-2.75,6.56-3.32,2.02-.47,3.77-.19,5.61.73,4.64,2.34,8.25,6.45,12.17,9.78,3.66,3.11,8.28,6.71,13.39,6.18s9.4-4.49,13.12-7.73c2.09-1.82,4.15-3.7,6.39-5.34,1.89-1.39,3.95-2.71,6.27-3.23,4.45-1.01,8.71,2.64,11.92,5.42,4.05,3.5,7.92,7.77,12.84,10.05,2.22,1.03,4.53,1.51,6.97,1.1s4.63-1.62,6.61-2.97c4.58-3.13,8.34-7.29,12.85-10.51,1.81-1.29,3.84-2.57,6.08-2.89,1.93-.28,4.06.45,5.85,1.42,4.76,2.6,8.5,6.75,12.65,10.17,3.79,3.11,8.03,5.95,13.15,4.9s9.51-5.06,13.36-8.48c1.95-1.73,3.86-3.52,5.94-5.09,1.71-1.29,3.55-2.53,5.65-2.9,1.91-.34,4.61.36,6.58,1.17,2.45,1.02,4.7,2.52,6.8,4.12,3.87,2.93,7.23,6.57,11.29,9.25,1.4.92,3.02,1.74,4.73,1.71,2.01-.04,2.02-3.17,0-3.13-.16,0-.32,0-.47-.02.39.03-.08-.02-.2-.05-.17-.05-.34-.1-.51-.15-.34-.11-.07,0-.35-.14-.83-.39-1.61-.9-2.36-1.44-1.81-1.3-3.51-2.86-5.21-4.34-4.07-3.54-8.32-7.13-13.44-9.04-2.34-.87-5.02-1.4-7.51-.99-2.2.37-4.23,1.56-6.02,2.85-4.37,3.14-8.01,7.17-12.36,10.32-1.98,1.43-4.12,2.74-6.53,3.28-2.01.45-3.78.11-5.62-.84-4.67-2.41-8.32-6.53-12.33-9.85s-8.47-6.57-13.72-5.78-9.23,4.82-12.89,8.03c-2.08,1.82-4.13,3.69-6.38,5.3-1.88,1.35-3.95,2.62-6.26,3.04-4.43.81-8.75-3.06-11.92-5.83-4-3.5-7.9-7.73-12.84-9.89-2.24-.98-4.56-1.36-6.98-.86s-4.63,1.77-6.62,3.16c-4.53,3.18-8.3,7.34-12.86,10.47-1.73,1.19-3.83,2.42-5.85,2.61-2.14.21-4.19-.6-6.04-1.67-4.67-2.71-8.35-6.84-12.49-10.25-3.78-3.11-7.98-5.83-13.07-4.73s-9.53,5.09-13.43,8.49c-1.96,1.7-3.88,3.46-5.99,4.98-.95.68-1.93,1.33-2.98,1.85-.41.21-.7.34-1.13.48-.38.13-1.16.33-1.32.35-2.2.31-4.66-.4-6.64-1.29-2.4-1.07-4.61-2.59-6.66-4.23-3.79-3.05-7.08-6.74-11.06-9.54-1.37-.96-2.95-1.8-4.66-1.83-2.01-.04-2.01,3.08,0,3.13h0Z"/>
      <path class="st3" d="M88.94,324.19c.14,0,.52.06.17,0,.16.03.33.07.49.11.54.15.36.09.84.33.81.41,1.58.94,2.3,1.5,1.68,1.3,3.4,2.95,5.04,4.45,3.94,3.61,8.07,7.26,13.09,9.28,2.24.9,4.83,1.51,7.26,1.21s4.4-1.4,6.29-2.7c4.42-3.05,8.1-7.05,12.46-10.18,1.99-1.43,4.15-2.75,6.56-3.32,2.02-.47,3.77-.19,5.61.73,4.64,2.34,8.25,6.45,12.17,9.78,3.66,3.11,8.28,6.71,13.39,6.18s9.4-4.49,13.12-7.73c2.09-1.82,4.15-3.7,6.39-5.34,1.89-1.39,3.95-2.71,6.27-3.23,4.45-1.01,8.71,2.64,11.92,5.42,4.05,3.5,7.92,7.77,12.84,10.05,2.22,1.03,4.53,1.51,6.97,1.1s4.63-1.62,6.61-2.97c4.58-3.13,8.34-7.29,12.85-10.51,1.81-1.29,3.84-2.57,6.08-2.89,1.93-.28,4.06.45,5.85,1.42,4.76,2.6,8.5,6.75,12.65,10.17,3.79,3.11,8.03,5.95,13.15,4.9s9.51-5.06,13.36-8.48c1.95-1.73,3.86-3.52,5.94-5.09,1.71-1.29,3.55-2.53,5.65-2.9,1.91-.34,4.61.36,6.58,1.17,2.45,1.02,4.7,2.52,6.8,4.12,3.87,2.93,7.23,6.57,11.29,9.25,1.4.92,3.02,1.74,4.73,1.71,2.01-.04,2.02-3.17,0-3.13-.16,0-.32,0-.47-.02.39.03-.08-.02-.2-.05-.17-.05-.34-.1-.51-.15-.34-.11-.07,0-.35-.14-.83-.39-1.61-.9-2.36-1.44-1.81-1.3-3.51-2.86-5.21-4.34-4.07-3.54-8.32-7.13-13.44-9.04-2.34-.87-5.02-1.4-7.51-.99-2.2.37-4.23,1.56-6.02,2.85-4.37,3.14-8.01,7.17-12.36,10.32-1.98,1.43-4.12,2.74-6.53,3.28-2.01.45-3.78.11-5.62-.84-4.67-2.41-8.32-6.53-12.33-9.85-3.81-3.17-8.47-6.57-13.72-5.78s-9.23,4.82-12.89,8.03c-2.08,1.82-4.13,3.69-6.38,5.3-1.88,1.35-3.95,2.62-6.26,3.04-4.43.81-8.75-3.06-11.92-5.83-4-3.5-7.9-7.73-12.84-9.89-2.24-.98-4.56-1.36-6.98-.86s-4.63,1.77-6.62,3.16c-4.53,3.18-8.3,7.34-12.86,10.47-1.73,1.19-3.83,2.42-5.85,2.61-2.14.21-4.19-.6-6.04-1.67-4.67-2.71-8.35-6.84-12.49-10.25-3.78-3.11-7.98-5.83-13.07-4.73s-9.53,5.09-13.43,8.49c-1.96,1.7-3.88,3.46-5.99,4.98-.95.68-1.93,1.33-2.98,1.85-.41.21-.7.34-1.13.48-.38.13-1.16.33-1.32.35-2.2.31-4.66-.4-6.64-1.29-2.4-1.07-4.61-2.59-6.66-4.23-3.79-3.05-7.08-6.74-11.06-9.54-1.37-.96-2.95-1.8-4.66-1.83-2.01-.04-2.01,3.08,0,3.13h0Z"/>
      <path class="st3" d="M89.92,307.66c.14,0,.52.06.17,0,.16.03.33.07.49.11.54.15.36.09.84.33.81.41,1.58.94,2.3,1.5,1.68,1.3,3.4,2.95,5.04,4.45,3.94,3.61,8.07,7.26,13.09,9.28,2.24.9,4.83,1.51,7.26,1.21s4.4-1.4,6.29-2.7c4.42-3.05,8.1-7.05,12.46-10.18,1.99-1.43,4.15-2.75,6.56-3.32,2.02-.47,3.77-.19,5.61.73,4.64,2.34,8.25,6.45,12.17,9.78,3.66,3.11,8.28,6.71,13.39,6.18s9.4-4.49,13.12-7.73c2.09-1.82,4.15-3.7,6.39-5.34,1.89-1.39,3.95-2.71,6.27-3.23,4.45-1.01,8.71,2.64,11.92,5.42,4.05,3.5,7.92,7.77,12.84,10.05,2.22,1.03,4.53,1.51,6.97,1.1s4.63-1.62,6.61-2.97c4.58-3.13,8.34-7.29,12.85-10.51,1.81-1.29,3.84-2.57,6.08-2.89,1.93-.28,4.06.45,5.85,1.42,4.76,2.6,8.5,6.75,12.65,10.17,3.79,3.11,8.03,5.95,13.15,4.9s9.51-5.06,13.36-8.48c1.95-1.73,3.86-3.52,5.94-5.09,1.71-1.29,3.55-2.53,5.65-2.9,1.91-.34,4.61.36,6.58,1.17,2.45,1.02,4.7,2.52,6.8,4.12,3.87,2.93,7.23,6.57,11.29,9.25,1.4.92,3.02,1.74,4.73,1.71,2.01-.04,2.02-3.17,0-3.13-.16,0-.32,0-.47-.02.39.03-.08-.02-.2-.05-.17-.05-.34-.1-.51-.15-.34-.11-.07,0-.35-.14-.83-.39-1.61-.9-2.36-1.44-1.81-1.3-3.51-2.86-5.21-4.34-4.07-3.54-8.32-7.13-13.44-9.04-2.34-.87-5.02-1.4-7.51-.99-2.2.37-4.23,1.56-6.02,2.85-4.37,3.14-8.01,7.17-12.36,10.32-1.98,1.43-4.12,2.74-6.53,3.28-2.01.45-3.78.11-5.62-.84-4.67-2.41-8.32-6.53-12.33-9.85-3.81-3.17-8.47-6.57-13.72-5.78s-9.23,4.82-12.89,8.03c-2.08,1.82-4.13,3.69-6.38,5.3-1.88,1.35-3.95,2.62-6.26,3.04-4.43.81-8.75-3.06-11.92-5.83-4-3.5-7.9-7.73-12.84-9.89-2.24-.98-4.56-1.36-6.98-.86s-4.63,1.77-6.62,3.16c-4.53,3.18-8.3,7.34-12.86,10.47-1.73,1.19-3.83,2.42-5.85,2.61-2.14.21-4.19-.6-6.04-1.67-4.67-2.71-8.35-6.84-12.49-10.25-3.78-3.11-7.98-5.83-13.07-4.73s-9.53,5.09-13.43,8.49c-1.96,1.7-3.88,3.46-5.99,4.98-.95.68-1.93,1.33-2.98,1.85-.41.21-.7.34-1.13.48-.38.13-1.16.33-1.32.35-2.2.31-4.66-.4-6.64-1.29-2.4-1.07-4.61-2.59-6.66-4.23-3.79-3.05-7.08-6.74-11.06-9.54-1.37-.96-2.95-1.8-4.66-1.83-2.01-.04-2.01,3.08,0,3.13h0Z"/>
      <path class="st3" d="M90.89,291.12c.14,0,.52.06.17,0,.16.03.33.07.49.11.54.15.36.09.84.33.81.41,1.58.94,2.3,1.5,1.68,1.3,3.4,2.95,5.04,4.45,3.94,3.61,8.07,7.26,13.09,9.28,2.24.9,4.83,1.51,7.26,1.21s4.4-1.4,6.29-2.7c4.42-3.05,8.1-7.05,12.46-10.18,1.99-1.43,4.15-2.75,6.56-3.32,2.02-.47,3.77-.19,5.61.73,4.64,2.34,8.25,6.45,12.17,9.78,3.66,3.11,8.28,6.71,13.39,6.18s9.4-4.49,13.12-7.73c2.09-1.82,4.15-3.7,6.39-5.34,1.89-1.39,3.95-2.71,6.27-3.23,4.45-1.01,8.71,2.64,11.92,5.42,4.05,3.5,7.92,7.77,12.84,10.05,2.22,1.03,4.53,1.51,6.97,1.1s4.63-1.62,6.61-2.97c4.58-3.13,8.34-7.29,12.85-10.51,1.81-1.29,3.84-2.57,6.08-2.89,1.93-.28,4.06.45,5.85,1.42,4.76,2.6,8.5,6.75,12.65,10.17,3.79,3.11,8.03,5.95,13.15,4.9s9.51-5.06,13.36-8.48c1.95-1.73,3.86-3.52,5.94-5.09,1.71-1.29,3.55-2.53,5.65-2.9,1.91-.34,4.61.36,6.58,1.17,2.45,1.02,4.7,2.52,6.8,4.12,3.87,2.93,7.23,6.57,11.29,9.25,1.4.92,3.02,1.74,4.73,1.71,2.01-.04,2.02-3.17,0-3.13-.16,0-.32,0-.47-.02.39.03-.08-.02-.2-.05-.17-.05-.34-.1-.51-.15-.34-.11-.07,0-.35-.14-.83-.39-1.61-.9-2.36-1.44-1.81-1.3-3.51-2.86-5.21-4.34-4.07-3.54-8.32-7.13-13.44-9.04-2.34-.87-5.02-1.4-7.51-.99-2.2.37-4.23,1.56-6.02,2.85-4.37,3.14-8.01,7.17-12.36,10.32-1.98,1.43-4.12,2.74-6.53,3.28-2.01.45-3.78.11-5.62-.84-4.67-2.41-8.32-6.53-12.33-9.85s-8.47-6.57-13.72-5.78c-5.03.76-9.23,4.82-12.89,8.03-2.08,1.82-4.13,3.69-6.38,5.3-1.88,1.35-3.95,2.62-6.26,3.04-4.43.81-8.75-3.06-11.92-5.83-4-3.5-7.9-7.73-12.84-9.89-2.24-.98-4.56-1.36-6.98-.86s-4.63,1.77-6.62,3.16c-4.53,3.18-8.3,7.34-12.86,10.47-1.73,1.19-3.83,2.42-5.85,2.61-2.14.21-4.19-.6-6.04-1.67-4.67-2.71-8.35-6.84-12.49-10.25-3.78-3.11-7.98-5.83-13.07-4.73s-9.53,5.09-13.43,8.49c-1.96,1.7-3.88,3.46-5.99,4.98-.95.68-1.93,1.33-2.98,1.85-.41.21-.7.34-1.13.48-.38.13-1.16.33-1.32.35-2.2.31-4.66-.4-6.64-1.29-2.4-1.07-4.61-2.59-6.66-4.23-3.79-3.05-7.08-6.74-11.06-9.54-1.37-.96-2.95-1.8-4.66-1.83-2.01-.04-2.01,3.08,0,3.13h0Z"/>
      <path class="st3" d="M91.56,274.22c.14,0,.52.06.17,0,.16.03.33.07.49.11.54.15.36.09.84.33.81.41,1.58.94,2.3,1.5,1.68,1.3,3.4,2.95,5.04,4.45,3.94,3.61,8.07,7.26,13.09,9.28,2.24.9,4.83,1.51,7.26,1.21s4.4-1.4,6.29-2.7c4.42-3.05,8.1-7.05,12.46-10.18,1.99-1.43,4.15-2.75,6.56-3.32,2.02-.47,3.77-.19,5.61.73,4.64,2.34,8.25,6.45,12.17,9.78,3.66,3.11,8.28,6.71,13.39,6.18s9.4-4.49,13.12-7.73c2.09-1.82,4.15-3.7,6.39-5.34,1.89-1.39,3.95-2.71,6.27-3.23,4.45-1.01,8.71,2.64,11.92,5.42,4.05,3.5,7.92,7.77,12.84,10.05,2.22,1.03,4.53,1.51,6.97,1.1s4.63-1.62,6.61-2.97c4.58-3.13,8.34-7.29,12.85-10.51,1.81-1.29,3.84-2.57,6.08-2.89,1.93-.28,4.06.45,5.85,1.42,4.76,2.6,8.5,6.75,12.65,10.17,3.79,3.11,8.03,5.95,13.15,4.9s9.51-5.06,13.36-8.48c1.95-1.73,3.86-3.52,5.94-5.09,1.71-1.29,3.55-2.53,5.65-2.9,1.91-.34,4.61.36,6.58,1.17,2.45,1.02,4.7,2.52,6.8,4.12,3.87,2.93,7.23,6.57,11.29,9.25,1.4.92,3.02,1.74,4.73,1.71,2.01-.04,2.02-3.17,0-3.13-.16,0-.32,0-.47-.02.39.03-.08-.02-.2-.05-.17-.05-.34-.1-.51-.15-.34-.11-.07,0-.35-.14-.83-.39-1.61-.9-2.36-1.44-1.81-1.3-3.51-2.86-5.21-4.34-4.07-3.54-8.32-7.13-13.44-9.04-2.34-.87-5.02-1.4-7.51-.99-2.2.37-4.23,1.56-6.02,2.85-4.37,3.14-8.01,7.17-12.36,10.32-1.98,1.43-4.12,2.74-6.53,3.28-2.01.45-3.78.11-5.62-.84-4.67-2.41-8.32-6.53-12.33-9.85s-8.47-6.57-13.72-5.78-9.23,4.82-12.89,8.03c-2.08,1.82-4.13,3.69-6.38,5.3-1.88,1.35-3.95,2.62-6.26,3.04-4.43.81-8.75-3.06-11.92-5.83-4-3.5-7.9-7.73-12.84-9.89-2.24-.98-4.56-1.36-6.98-.86s-4.63,1.77-6.62,3.16c-4.53,3.18-8.3,7.34-12.86,10.47-1.73,1.19-3.83,2.42-5.85,2.61-2.14.21-4.19-.6-6.04-1.67-4.67-2.71-8.35-6.84-12.49-10.25-3.78-3.11-7.98-5.83-13.07-4.73s-9.53,5.09-13.43,8.49c-1.96,1.7-3.88,3.46-5.99,4.98-.95.68-1.93,1.33-2.98,1.85-.41.21-.7.34-1.13.48-.38.13-1.16.33-1.32.35-2.2.31-4.66-.4-6.64-1.29-2.4-1.07-4.61-2.59-6.66-4.23-3.79-3.05-7.08-6.74-11.06-9.54-1.37-.96-2.95-1.8-4.66-1.83-2.01-.04-2.01,3.08,0,3.13h0Z"/>
    </g>
    <path class="st0" d="M521.29,129.71s-.56.22-.35.11c-.72.36-.06-.07-.13-.02.06-.04.31.18,0-.02.05.03.11.05.16.08.38.22.64.41.9.62.91.75,1.74,1.6,2.55,2.44,1.85,1.91,3.6,3.91,5.48,5.79.99.99,2.96,3.32,4.58,2.39s.77-3.73.44-5.11c-.64-2.64-1.51-5.22-2.28-7.82-.33-1.12-.66-2.25-.89-3.4-.1-.48-.12-.52-.14-.9,0-.14.02-.29,0-.43,0,.05.04.16-.2.39-.02.02-.48.25-.31.2-.82.26-.1,0-.14.04-.27.24-.18-.19-.04.02.05.08.04.04-.05-.03.27.17.75.45.9.57.93.71,1.77,1.56,2.59,2.38,1.89,1.89,3.68,3.89,5.6,5.76,1,.98,3,3.33,4.63,2.4s.82-3.75.51-5.15c-.58-2.66-1.4-5.26-2.12-7.88-.31-1.13-.6-2.26-.82-3.41-.07-.39-.09-.46-.11-.94,0-.16-.07-.34,0-.25.08.11-.07.08.02-.03-.17.2.01.13-.19.31-.23.21-.69.22-.73.24-.01,0-.12-.1.12.07.2.15.44.33.78.67.83.81,1.56,1.72,2.29,2.63,1.67,2.08,3.24,4.26,4.96,6.31.92,1.1,2.76,3.66,4.48,2.74,1.51-.8,1.15-3.57,1.1-4.95-.11-2.74-.41-5.46-.55-8.2-.06-1.14-.1-2.29-.02-3.43.03-.38.01-.41.15-.87.08-.27-.12.03.06-.12-.22.19-.31.31-.77.34-.23.01-.29-.04-.35-.14.06.1.2.2.28.3-.18-.2.13.19.18.27.14.21.28.44.41.66.6,1.02,1.11,2.09,1.62,3.16,1.16,2.42,2.23,4.89,3.52,7.24.68,1.24,1.99,3.91,3.82,3.37,1.73-.5,1.75-3.54,1.9-4.92.29-2.67.42-5.37.69-8.04.11-1.09.23-2.18.49-3.25.05-.2.1-.39.16-.59.02-.07.04-.14.07-.21.12-.32-.09.22.03-.07.02-.04.07-.11.08-.15.03-.25.2.02-.02,0-.05,0,.52-.28-.11.07.04-.02-.32.08-.48.07-.05,0-.44-.06-.26-.07-.61.03.03-.2-.07-.05-.02.03.12.13.1.1.25.35.44.73.63,1.11.5,1.01.91,2.07,1.32,3.12.99,2.54,1.89,5.12,3,7.62.62,1.4,1.64,4.04,3.59,3.69s3.17-2.73,3.92-4.42c1.16-2.6,1.99-5.32,2.95-7.99.42-1.15.84-2.3,1.4-3.39.21-.41.44-.84.73-1.21.1-.14.45-.41.52-.49-.02.02.02,0-.03,0,.36.08.02-.05.27.03.16.05.48.25.71.46.82.75,1.44,1.7,2.03,2.65,1.51,2.44,2.72,5.05,4.13,7.55.97,1.73,2.23,4.3,4.26,4.98s3.82-1.33,4.9-2.83c1.65-2.27,2.87-4.84,4.2-7.31.94-1.75,2.18-4.46,3.71-5.44.07-.04.15-.07.22-.12-.22.15-.02.04.02,0-.03.03,0,0-.03-.01.21.11-.08-.11.22.09-.1-.07.14.11.26.25.42.46.9,1.61,1.18,2.42.89,2.61,1.4,5.35,2.06,8.02.54,2.18,1.06,4.8,2.57,6.55,1.43,1.66,3.44,1.09,5.05.04,2.29-1.49,4.24-3.52,6.22-5.38,1.67-1.57,3.68-3.72,5.71-4.53.19-.07.38-.14.58-.18.26-.05-.03,0,.31-.01-.06,0,.08.05.04.01.05.05.1.12.05.02.18.39.21.33.33.84s.14.89.17,1.44c.13,2.77-.23,5.56-.41,8.32-.22,3.48-.72,11.28,5,9.4,2.49-.82,4.75-2.35,6.97-3.7s4.45-2.9,6.92-3.6c.5-.14.68-.18,1.09-.17.23,0,.01-.06.32.05-.18-.06.32.22.09.03.15.12,0-.17.03.03,0,.05.07.11.09.16-.09-.26.06.22.08.31.07.27.09.8.08,1.28-.06,2.65-.75,5.29-1.24,7.89-.59,3.14-2.6,11.85,3.3,10.84,2.4-.41,4.69-1.79,6.81-2.92,2.4-1.27,4.81-2.74,7.41-3.54.36-.11.96-.26,1.16-.28.58-.06.54-.01.97.07-.08-.02,0,.04-.01,0,0-.03-.14-.23-.16-.24,0,0,.04.13.04.15.05-.07,0-.24-.01.02,0,.06,0,.13,0,.19-.02.37,0,.15-.06.48-.49,2.46-1.58,4.82-2.51,7.13s-1.95,4.47-2.37,6.82c-.14.81-.24,1.74.23,2.46.55.84,1.55.93,2.45.74,2.15-.46,4.19-1.94,6.02-3.07,2.26-1.4,4.48-2.94,6.88-4.1.41-.2.6-.3,1.06-.44.15-.05.3-.09.45-.12.19-.04-.28.07-.01,0,.29-.07,0,.07-.02-.03-.03-.09.47.34-.05-.04-.24-.18-.18-.14-.11-.08,0,0-.33-.43-.17-.25.1.1-.03,0,0-.1-.02.07-.02.51.02.22-.03.22-.09.44-.15.66-.66,2.34-2.01,4.53-3.14,6.66-.88,1.68-6.34,10.62-.99,10.21,2.24-.17,4.47-1.44,6.45-2.38,2.37-1.12,4.71-2.39,7.19-3.27.42-.15.85-.28,1.29-.38.32-.07,0,0,.3-.05.05,0,.13.01.18,0,.13-.04-.05-.08-.01,0s-.52-.54-.35-.47c.06.03-.11.39.01,0-.02.06-.02.12-.04.18-.06.21-.12.41-.21.62-.8,1.97-2.56,4.24-3.89,6.15-1.12,1.61-7.64,9.81-2.21,10.08,2.15.11,4.48-.84,6.49-1.5,2.55-.83,5.08-1.79,7.7-2.37.44-.1.88-.18,1.16-.2.18-.01.35-.02.53-.01.06,0,.12.01.19.01-.34,0-.03-.03.03.03-.02-.01-.24-.12-.32-.25.06.1-.1-.37-.09-.35,0,0,0,.13,0,.14-.06-.03.08-.3-.01-.01-.02.05-.03.12-.05.17,0-.01-.07.16-.2.38-1.18,2.09-3.03,3.86-4.63,5.62-1.27,1.4-8.86,8.7-3.76,9.8,2.14.46,4.64-.23,6.74-.62,2.59-.48,5.19-1.12,7.82-1.35.46-.04.92-.07,1.38-.05.1,0,.62.05.33.02.06,0,.13.02.18.04.27.07.05.01.06,0,.06-.07.25.35-.04-.06.12.17-.08-.16-.1-.19-.06-.11,0-.26-.03-.32.01.03-.04.16-.05.18.14-.18.06-.13.02-.05-.1.19-.21.36-.33.53-1.23,1.71-3.5,3.44-5.24,4.93-1.85,1.59-3.85,3.15-5.39,5.06-1.01,1.25-1.93,3.58.38,4.04,2.04.4,4.44-.26,6.45-.59,2.57-.42,5.13-.95,7.72-1.19.44-.04.89-.08,1.33-.07.17,0,.35,0,.52.02.07,0,.23,0-.06-.01.06,0,.19.02.24.06-.13-.08-.37-.18-.48-.58-.01-.05-.03-.54-.05-.43.09-.72.08-.04.03-.11,0,0,.19-.16.03-.05-.06.04-.1.11-.15.15-.14.12-.28.25-.42.37-1.62,1.29-4.12,2.57-6.11,3.71s-4.28,2.34-6.17,3.84c-.6.48-1.28,1.1-1.3,1.93-.02.92.72,1.44,1.52,1.63,2.04.49,4.42.09,6.47-.07,2.62-.2,5.24-.5,7.87-.51.43,0,.86,0,1.29.05.05,0,.24.03,0,0,.09.01.18.03.27.05.28.05.24.17.14.03-.16-.22-.42-.43-.38-.86.02-.26.22-.39.11-.33-.35.19-.22.23-.64.5-2.06,1.34-4.4,2.31-6.62,3.36-2.08.98-4.3,1.89-6.2,3.22-.66.46-1.42,1.06-1.44,1.95s.78,1.44,1.58,1.67c2.07.57,4.47.38,6.58.37,2.61,0,5.23-.12,7.83.08.48.04.71.05,1.03.12.14.03.3.09.44.11.05,0-.05,0-.11-.09-.24-.33-.19-.73-.14-1.06.03-.2.16-.09-.07.04.16-.09-.04.04-.2.13-.18.11-.36.22-.55.32-2.16,1.16-4.55,1.95-6.84,2.82-2.14.82-4.47,1.55-6.43,2.77-.67.41-1.41.99-1.42,1.86,0,.94.83,1.44,1.62,1.71,2.05.7,4.44.71,6.57.87,2.5.2,5.1.29,7.54.69.4.07.79.15,1.17.25.09.02.56.14.2.05.3.07.04.05-.07-.16-.19-.36-.1-.63.04-.97.04-.1-.14.07.01-.02-.14.08-.26.16-.4.23-.09.05-.5.24-.41.19-2.31.98-4.83,1.55-7.24,2.23-2.22.62-4.57,1.16-6.65,2.18-.71.35-1.47.89-1.49,1.77s.67,1.4,1.37,1.72c2.04.94,4.42,1.25,6.6,1.66,2.52.48,5.08.86,7.54,1.57.2.06.41.12.61.19.08.03.56.23.3.11.11.05.24.16.36.19.16.04-.07,0-.09-.07.05.17-.23-.6-.21-.58.08.07-.15.62-.23.76-.23.43-.48.72-.83,1.07-1.92,1.93-4.56,3.16-6.92,4.43s-5.04,2.62-7.21,4.43c-1.7,1.42-2.9,3.37-2.15,5.63.82,2.45,2.87,4.43,4.67,6.2,2.16,2.13,4.49,4.11,6.46,6.42.68.79,1.42,1.75,1.73,2.68.26.79.26,1.14-.22,1.78-.44.58-1.46,1.15-2.29,1.54-1.19.56-2.46.94-3.72,1.32-2.76.82-5.58,1.44-8.3,2.4-2.03.72-4.57,1.69-5.57,3.77-1.04,2.19.13,4.78,1.16,6.75,1.39,2.68,3.16,5.14,4.73,7.71,1.07,1.74,2.83,4.38,2.56,6.33-.03.22-.18.58-.23.64-.3.4-.56.54-1,.75-.93.45-2.14.64-3.21.75-3,.31-6.02.19-9.03.3-2.47.09-5.39.13-7.56,1.47s-2.34,3.61-2.05,5.83c.38,2.9,1.39,5.69,2.28,8.47.79,2.48,1.8,5.17,1.69,7.8-.03.77-.31,1.43-.71,1.73-.64.47-1.69.48-2.61.44-2.83-.14-5.62-1.04-8.35-1.74s-5.49-1.51-8.24-1.35c-2.38.14-4.07,1.32-4.77,3.63-.79,2.6-.57,5.53-.46,8.2.12,2.84.42,5.79.02,8.62-.12.9-.4,2.04-.86,2.6-.5.61-.98.69-1.91.58-2.38-.28-4.92-1.9-7.04-3.09-2.58-1.45-5.15-3.02-7.94-4.04-1.58-.57-4.8-1.39-5.84.53-.4.74-.38,1.69-.35,2.51.05,1.23.23,2.45.4,3.66.38,2.63.9,5.24,1.18,7.88.1.92.23,1.91.09,2.84.05-.33-.07.16-.06.21.01.05.08-.14.09-.14.33-.27.48-.15.72-.21-.14.03-.18-.19.03.02-.05-.06-.15-.07-.21-.12-.23-.2.02.05-.24-.18-.15-.14-.3-.28-.44-.42-.39-.39-.75-.81-1.1-1.23-.8-.95-1.54-1.95-2.29-2.95-1.57-2.1-3.07-4.29-4.85-6.22-1-1.09-3.09-2.89-4.27-.94-.96,1.59-.48,4.19-.33,5.92.23,2.7.59,5.38.74,8.09.03.53.05,1.06.05,1.59,0,.23,0,.45-.02.68,0,.1-.01.2-.02.3-.03.31.04-.14-.01.11-.03.15-.08.29-.11.44-.04.19.13-.09,0-.02-.12.06.04-.06.08-.1.23-.2.36-.13.73-.18-.3.04.17-.12.04.03,0,0-.19-.12-.2-.12-.19-.2.13.11,0-.01-.07-.06-.13-.11-.19-.18-.14-.14-.28-.28-.41-.43-.33-.37-.62-.75-.92-1.15-.75-1.03-1.45-2.11-2.15-3.18-1.44-2.22-2.81-4.5-4.45-6.58-.92-1.17-2.77-3.11-4.16-1.37-.53.67-.64,1.59-.73,2.41-.13,1.14-.14,2.3-.14,3.45,0,2.71.16,5.42.1,8.13-.02.98-.03,1.95-.23,2.74-.04.15-.09.3-.14.45.07-.21-.18.07.06-.1.22-.16.37-.15.73-.17-.14,0,.13-.03.06.03-.05.04-.27-.28,0,.01-1.3-1.46-2.36-3.49-3.35-5.4-1.19-2.28-2.3-4.63-3.69-6.8-.79-1.23-2.49-3.58-4.11-1.96-1.29,1.29-1.32,3.97-1.5,5.64-.3,2.71-.44,5.44-.79,8.14-.12.91-.27,1.82-.52,2.71-.03.1-.06.2-.1.3.09-.23.03-.08.01-.03,0,.02-.12.21-.12.21.09.12-.12-.08.06-.08-.16,0,.22-.12.06-.04.14-.07.25-.11.41-.11.71-.04-.29.08.34.09-.04,0,.01.08.02.03.02-.12-.32-.38-.46-.62-.26-.44-.48-.9-.7-1.37-.51-1.12-.94-2.28-1.37-3.44-.92-2.48-1.75-5-2.85-7.41-.59-1.29-1.78-3.76-3.6-2.8-1.5.79-1.97,3.27-2.39,4.74-.71,2.53-1.26,5.1-1.93,7.63-.28,1.03-.56,2.08-.95,3.07-.08.22-.23.54-.42.86-.13.23-.02.14-.11.14.09,0,.18-.14.42-.15-1.54.05-1.55,2.45,0,2.4,1.93-.06,2.55-2.87,2.98-4.31.78-2.62,1.33-5.3,2.03-7.94.29-1.11.59-2.22,1-3.3.12-.32.21-.51.43-.9.12-.22.13-.12.11-.17-.04-.09.4-.1-.07.04.16-.05-.29.07-.35.07.21,0-.38-.11-.35-.1,0,0,.11.06.11.07-.05.04-.22-.21-.02,0,.04.04.08.08.11.13-.16-.24.12.18.17.26.13.21.25.44.37.66.52,1,.93,2.06,1.33,3.12.99,2.59,1.85,5.23,2.94,7.78.56,1.31,1.45,3.87,3.25,3.81,1.98-.06,2.24-3.09,2.43-4.52.38-2.73.54-5.48.82-8.22.11-1.1.23-2.2.46-3.29.08-.4.18-.8.32-1.18.09-.25-.07.08.1-.21.06-.11.04,0-.11.06-.21.11-.45.06-.6.05-.02,0-.09-.07.01.02.3.28.48.51.63.73.66.94,1.22,1.95,1.77,2.96,1.31,2.41,2.49,4.88,3.85,7.26.74,1.28,2,3.9,3.84,3.65,1.95-.26,1.9-3.23,1.96-4.67.1-2.72-.06-5.44-.08-8.16-.01-1.2-.02-2.41.09-3.61.04-.4.06-.55.16-1.03.02-.09.15-.56.05-.23.09-.29.09-.09-.04-.03-.29.15-.5.11-.61.15-.14.04-.12-.13.1.07-.12-.11.07.05.2.18.15.15.31.31.45.47.72.82,1.33,1.73,1.94,2.64,1.53,2.27,2.93,4.63,4.52,6.87.85,1.2,2.4,3.84,4.24,3.39s1.61-3.3,1.55-4.72c-.12-2.72-.49-5.42-.73-8.13-.11-1.2-.21-2.4-.2-3.6,0-.22,0-.45.02-.67,0-.1.08-.61.03-.36.03-.15.08-.3.1-.45,0-.05.01.03-.07.09-.16.13-.47.19-.59.21-.03,0-.14-.04-.02.03.17.1.27.19.23.15.17.14.33.29.48.44.81.79,1.51,1.69,2.21,2.58,1.69,2.17,3.25,4.42,4.97,6.56.92,1.14,2.57,3.55,4.35,3.09,1.88-.49,1.49-3.35,1.35-4.77-.27-2.75-.8-5.47-1.21-8.2-.17-1.15-.33-2.3-.39-3.45-.02-.42-.03-.83,0-1.25,0-.06.04-.24,0,.02.02-.09.03-.17.05-.26.06-.22-.01-.02-.02-.02-.26.25-.28.15-.05.15.27,0,.24-.06.45-.08.54-.03.95.04,1.46.17,1.22.3,2.36.82,3.48,1.37,2.75,1.37,5.35,3.03,8.09,4.4,2.05,1.03,4.69,2.35,7.05,1.69s3.07-2.99,3.35-5.08c.41-2.97.15-6.01.03-8.99-.1-2.52-.44-5.5.49-7.92.28-.72.64-1.12,1.29-1.33.97-.31,2.07-.23,3.11-.11,2.94.35,5.81,1.28,8.68,1.99,2.55.63,5.41,1.4,8.04.88,5.81-1.15,2.97-9.04,1.82-12.65-.87-2.73-1.95-5.52-2.3-8.37-.07-.53-.1-1.08-.06-1.62.02-.31.14-.84.23-1.03.16-.32.34-.51.56-.67.4-.29.78-.43,1.23-.58,2.63-.83,5.57-.7,8.29-.73,2.88-.04,5.89.04,8.7-.68,2.12-.54,4.05-1.83,4.17-4.2.12-2.5-1.43-5.02-2.67-7.08-1.58-2.62-3.38-5.11-4.82-7.81-.56-1.04-1.1-2.14-1.31-3.31-.03-.17-.05-.29-.06-.53,0-.12.03-.57.01-.46.07-.39.19-.6.35-.81,1.34-1.65,4.15-2.31,6.15-2.89,2.82-.82,5.71-1.46,8.47-2.48,2.02-.75,4.5-1.77,5.37-3.92s-.57-4.48-1.93-6.16c-1.89-2.33-4.21-4.31-6.36-6.39-1.64-1.59-3.94-3.56-4.58-5.8-.21-.74-.15-1.16.39-1.9s1.55-1.51,2.41-2.09c2.49-1.67,5.21-2.96,7.82-4.43,2.18-1.23,4.68-2.61,6.09-4.75.48-.73.97-1.86.69-2.75s-1.18-1.21-1.94-1.48c-4.55-1.62-9.56-1.58-14.12-3.16-.32-.11-.12-.03-.3-.12-.1-.05-.25-.18-.35-.2.12.02.18.17.24.41.08.35-.11.75-.11.76,0-.09-.16.08-.02.01.05-.02.09-.06.14-.09.15-.07.29-.16.45-.23.27-.13.76-.31,1.21-.46,2.52-.87,5.11-1.51,7.67-2.24,1.91-.55,4.33-1,5.94-2.24.67-.52,1.06-1.38.56-2.17-.43-.69-1.33-.93-2.08-1.09-2.42-.52-4.96-.61-7.42-.79-2.3-.17-4.72-.2-6.94-.78-.16-.04-.32-.09-.48-.14-.07-.03-.21-.04.06.03-.04-.01-.15-.06-.18-.1.15.19.36.29.35.7,0,.17-.09.28-.11.44.06-.1.03-.06-.09.11.02-.03.04-.05.07-.07.01,0,.12-.1.15-.12.15-.1.3-.19.46-.28.42-.24.85-.44,1.28-.64,2.39-1.09,4.88-1.94,7.32-2.9,1.19-.47,2.38-.94,3.54-1.48.75-.35,1.59-.73,2.19-1.33.64-.64.81-1.62.13-2.31-.57-.58-1.49-.68-2.26-.77-2.45-.3-4.96-.18-7.42-.17-1.35,0-2.7.02-4.05-.01-.93-.02-2.16-.05-2.82-.2-.15-.03-.3-.07-.44-.11-.1-.03.11.17-.08-.05.29.33.51.57.4.98-.04.16-.26.37-.04.15s.23-.21.66-.49.86-.52,1.31-.76c2.37-1.28,4.84-2.36,7.26-3.52,1.67-.8,3.92-1.62,5.15-3.08.64-.77.62-1.86-.28-2.43-.65-.41-1.51-.44-2.26-.47-2.52-.09-5.06.22-7.57.42-1.33.11-2.66.22-3.99.28-.52.02-1.05.04-1.57.04-.22,0-.44,0-.66-.02-.12,0-.72-.08-.44-.03-.12-.02-.28-.09-.4-.09-.08,0,.18.12.18.12.36.41.2.72.18,1.03,0-.17-.11.07.11-.13.61-.58,1.2-.96,2.01-1.47,2.29-1.45,4.68-2.73,7.02-4.1,1.01-.59,2.03-1.19,2.99-1.86.65-.45,1.41-.96,1.81-1.67.48-.86.13-1.83-.76-2.22-.71-.32-1.57-.27-2.33-.22-2.6.16-5.19.69-7.75,1.12-2.08.35-4.38.95-6.5.76-.23-.02.04.01.07.01-.04,0-.17-.02-.2-.05.03.03.41.29.52.57,0,.01,0,.18.01.18.01,0,.03-.13.05-.15-.2.26.05-.07.09-.13.46-.69,1.11-1.37,1.81-2.04,1.97-1.9,4.11-3.6,6.15-5.42,1.37-1.22,3.52-2.81,3.95-4.71.51-2.26-2.14-2.57-3.72-2.47-2.64.17-5.25.78-7.84,1.28-1.27.24-2.54.49-3.82.67-.51.07-1.03.12-1.55.15-.22.01-.44.02-.66.01-.28,0-.44-.02-.44-.02-.06,0-.12-.03-.18-.04-.27-.06-.05.04-.01.01-.11.06-.05-.11.1.14.11.19.1.22.06.12.2.46-.07.09.03.05.14-.06-.12.29,0,.09.02-.04.15-.43.04-.15.34-.83.95-1.58,1.51-2.27,1.72-2.12,3.63-4.08,5.43-6.14.82-.94,1.63-1.9,2.35-2.92.5-.72,1.04-1.56,1.08-2.46.11-2.27-2.49-2.15-4.03-1.86-2.54.47-4.99,1.42-7.44,2.22-2.07.68-4.54,1.64-6.53,1.67-.29,0-.18-.05-.07.07.17.18.19.38.18.38,0,0-.03-.05.04-.27.24-.75.68-1.55,1.18-2.37,1.42-2.33,3.06-4.51,4.57-6.78,1.04-1.56,2.76-3.68,2.73-5.67-.03-2.3-2.58-2.02-4.1-1.53-2.49.81-4.84,2.06-7.2,3.19-1.18.56-2.36,1.14-3.57,1.63-.49.2-.98.39-1.49.56-.21.07-.43.14-.65.19-.1.03-.71.12-.46.1-.14.01-.31-.02-.45,0,.32-.06.15.08.07,0-.11-.11.26.16.08.03.18.14.33.33.29.31.24.11-.09.26.01.06.03-.06,0-.24.01-.31-.03.3.06-.22.08-.31.05-.21.12-.41.19-.61.17-.49.37-.97.59-1.44,1.12-2.45,2.47-4.8,3.68-7.2.87-1.72,2.25-3.94,2.1-5.95-.19-2.46-2.83-1.83-4.35-1.14-2.31,1.05-4.44,2.52-6.59,3.86-1.9,1.19-3.96,2.66-6.04,3.24-.36.1.1.01-.22.04-.24.02.02,0,.14.07.06.03.18.27.25.34-.07-.08.03-.21-.03-.06-.06.16,0-.11,0-.18.03-.44.02-.41.14-.94s.3-1.09.47-1.62c.85-2.55,1.95-5.01,2.91-7.52.69-1.8,1.92-4.28,1.46-6.27-.51-2.19-3.33-1.87-4.95-1.38-2.61.8-5.03,2.21-7.42,3.48-2.08,1.11-4.42,2.65-6.8,2.98.17-.02-.3.01-.37.01-.35,0,.05-.07-.26-.05.15-.01.15.09,0,0-.13-.08.17.22-.01,0-.15-.19-.1,0-.22-.34.07.19-.09-.3-.11-.38-.06-.22-.07-.34-.08-.48-.06-.58-.04-1.17-.01-1.75.16-2.74.83-5.44,1.33-8.13.42-2.28,1.13-5,.51-7.31s-2.76-2.52-4.7-1.96c-2.52.73-4.84,2.25-7.06,3.6s-4.39,2.93-6.83,3.71c-.42.13-.78.2-.98.21-.25,0-.28-.02-.33-.11-.03-.05-.06-.02-.19-.27s-.07-.11-.16-.39c-.15-.47-.24-.96-.28-1.43-.27-2.75.08-5.57.28-8.31.22-3,1.15-11.79-4.51-9.49-2.38.97-4.35,2.98-6.2,4.71-1.95,1.82-3.83,3.86-6.06,5.33-.28.19-.94.56-1.05.61-.17.07-.36.13-.54.16.07-.01-.34-.03-.13,0-.26-.04,0,.08-.2-.1.21.18-.16-.16-.21-.22s-.09-.1-.23-.33-.27-.47-.39-.72c-1.07-2.26-1.51-4.92-2.08-7.35-.6-2.56-2.23-12.08-6.84-9.26-1.94,1.19-3.13,3.71-4.18,5.63-1.36,2.49-2.59,5.08-4.19,7.44-.52.77-1.24,1.68-1.88,2.1-.33.21-.36.22-.56.19.38.07-.25-.18,0-.01-.22-.14-.31-.19-.37-.25-1.74-1.51-2.78-4.03-3.84-6.04-1.29-2.46-2.52-5.01-4.25-7.2-1.15-1.46-3.06-3.08-4.98-1.91-1.81,1.1-2.63,3.76-3.33,5.62-.99,2.63-1.78,5.35-2.88,7.94-.43,1-.9,2.06-1.58,2.92-.16.2-.43.45-.6.57-.05.03-.23.17-.26.11l-.09.02c.13-.04.26-.03.39,0-.14-.03.17-.03.07.03.04-.03.07.13-.1-.12-.02-.03-.02,0-.18-.24-.26-.41-.5-.84-.71-1.28-.53-1.08-.98-2.21-1.42-3.33-.96-2.47-1.84-4.99-2.91-7.42-.56-1.27-1.72-4.05-3.59-2.99-1.59.9-1.65,3.82-1.83,5.37-.31,2.65-.44,5.33-.69,7.99-.1,1.04-.19,2.04-.42,3.06-.04.18-.09.35-.14.53-.02.09-.07.17-.09.26.04-.15,0-.11.02-.07.06.13-.35.18.05-.03-.07.04-.18.07.13-.09.43-.22.44,0,.7-.03-.1,0-.13-.17-.06-.03.06.13-.01-.01-.07-.07-.12-.12-.23-.24-.34-.37.1.12-.2-.28-.24-.35-.16-.24-.31-.48-.46-.73-.64-1.07-1.19-2.19-1.74-3.32-1.14-2.35-2.18-4.76-3.41-7.07-.64-1.21-1.97-3.89-3.75-2.81-1.58.96-1.2,3.97-1.14,5.5.1,2.69.39,5.36.54,8.04.06,1.09.11,2.19.04,3.29-.02.37-.1.29-.13.76,0,.08.1-.16.1-.16.19-.16.35-.23.59-.25.27-.03.12-.02.1,0,.03-.03.28.13.06.01-.06-.03-.12-.07-.18-.11-.03-.02-.02,0-.23-.19-.36-.34-.71-.69-1.04-1.06-.84-.93-1.62-1.92-2.39-2.91-1.61-2.06-3.15-4.2-4.9-6.14-.93-1.03-3.22-3.41-4.49-1.44-.41.63-.34,1.44-.25,2.15.14,1.13.42,2.24.7,3.34.68,2.59,1.48,5.15,2.12,7.75.25,1.01.51,2.11.57,3.01.01.18.01.36.01.54,0,.33-.1-.07-.02.19.04.13.12-.09.02-.04-.13.08.06-.09.09-.11.21-.17.35-.17.59-.25.87-.29-.03.15.1,0-.04.04.15.08.02,0-.05-.03-.1-.05-.15-.08-.14-.1-.28-.18-.42-.28-.11-.08-.7-.59-.99-.86-.93-.86-1.81-1.78-2.68-2.69-1.83-1.9-3.6-3.89-5.6-5.63-1.04-.91-3.47-2.92-4.6-.99-.42.72-.27,1.66-.14,2.44.18,1.08.48,2.14.78,3.19.74,2.6,1.61,5.17,2.3,7.78.23.9.52,2.05.57,2.77.01.18.02.35.02.52,0,.25,0,.17-.02.17.09,0-.35.39.04-.08-.13.16.13-.15.17-.17.28-.2.53-.13.64-.17-.09.03.12.09-.12-.06-.14-.09-.28-.18-.41-.27-.07-.05-.6-.51-.84-.73-.85-.79-1.66-1.64-2.46-2.48-1.77-1.88-3.48-3.82-5.35-5.6-1.11-1.06-2.87-2.95-4.57-2.13-1.39.67-.18,2.74,1.21,2.07h0Z"/>
    <g>
      <path class="st1" d="M352.53,413.12c1.54,0,2.68.36,3.43,1.08.75.72,1.13,1.78,1.13,3.19,0,.75-.18,1.41-.55,1.98-.37.57-.91,1.01-1.63,1.32-.72.31-1.61.47-2.66.47l.1-1.08c.5,0,1.06.07,1.7.2.64.14,1.26.38,1.86.72.6.34,1.1.82,1.49,1.44.39.62.59,1.4.59,2.36,0,1.06-.17,1.92-.52,2.59-.34.67-.8,1.19-1.36,1.56-.56.37-1.16.62-1.8.76s-1.26.2-1.85.2h-5.98c-.42,0-.76-.14-1.04-.42s-.42-.63-.42-1.04v-13.87c0-.42.14-.76.42-1.04s.63-.42,1.04-.42h6.05ZM352.1,415.95h-4.27l.31-.38v4.34l-.29-.22h4.32c.46,0,.88-.15,1.25-.46s.55-.74.55-1.32c0-.69-.17-1.19-.52-1.5-.34-.31-.8-.47-1.36-.47ZM352.29,422.53h-4.37l.22-.19v5.06l-.24-.24h4.56c.74,0,1.32-.2,1.75-.59.43-.39.65-.98.65-1.76,0-.72-.14-1.24-.43-1.56s-.63-.52-1.03-.6c-.4-.08-.77-.12-1.1-.12Z"/>
      <path class="st1" d="M372.93,423.51c0,1.31-.29,2.47-.88,3.47-.58,1-1.37,1.78-2.35,2.34-.98.56-2.08.84-3.3.84s-2.32-.28-3.3-.84c-.98-.56-1.77-1.34-2.35-2.34-.58-1-.88-2.16-.88-3.47s.29-2.47.88-3.47,1.37-1.78,2.35-2.35c.98-.57,2.08-.85,3.3-.85s2.32.28,3.3.85c.98.57,1.77,1.35,2.35,2.35s.88,2.16.88,3.47ZM370.05,423.51c0-.82-.16-1.52-.49-2.12-.33-.6-.77-1.07-1.32-1.4-.55-.34-1.16-.5-1.84-.5s-1.28.17-1.84.5c-.55.34-.99.8-1.32,1.4-.33.6-.49,1.31-.49,2.12s.16,1.5.49,2.1c.33.6.77,1.07,1.32,1.4.55.34,1.16.5,1.84.5s1.28-.17,1.84-.5.99-.8,1.32-1.4c.33-.6.49-1.3.49-2.1Z"/>
      <path class="st1" d="M375.6,417.32h5.69c.38,0,.7.13.96.38s.38.58.38.96-.13.68-.38.92-.58.37-.96.37h-5.69c-.38,0-.7-.13-.96-.38s-.38-.58-.38-.96.13-.68.38-.92.58-.37.96-.37ZM378.16,414.32c.42,0,.76.14,1.02.42s.4.63.4,1.04v10.68c0,.22.04.41.13.55.09.14.21.25.36.31s.32.1.49.1c.19,0,.37-.04.53-.11.16-.07.34-.11.55-.11.22,0,.43.1.61.31.18.21.28.5.28.86,0,.45-.24.82-.73,1.1-.49.29-1.01.43-1.57.43-.34,0-.71-.03-1.12-.08-.41-.06-.79-.19-1.15-.41-.36-.22-.66-.55-.9-1-.24-.45-.36-1.06-.36-1.85v-10.8c0-.42.14-.76.42-1.04.28-.28.63-.42,1.04-.42Z"/>
      <path class="st1" d="M392.01,416.84c1.15,0,2.03.25,2.63.74.6.5,1.01,1.16,1.24,1.98.22.82.34,1.74.34,2.75v6.14c0,.42-.14.76-.41,1.04-.27.28-.62.42-1.03.42s-.76-.14-1.03-.42c-.27-.28-.41-.63-.41-1.04v-6.14c0-.53-.06-1-.19-1.43s-.36-.76-.7-1.02-.82-.38-1.44-.38-1.13.13-1.56.38c-.43.26-.76.6-.97,1.02-.22.42-.32.9-.32,1.43v6.14c0,.42-.14.76-.41,1.04-.27.28-.62.42-1.03.42s-.76-.14-1.03-.42-.41-.63-.41-1.04v-14.83c0-.42.14-.76.41-1.04s.62-.42,1.03-.42.76.14,1.03.42c.27.28.41.63.41,1.04v5.95l-.36-.07c.14-.27.34-.56.6-.88s.57-.6.94-.88c.37-.27.78-.49,1.22-.66s.94-.25,1.46-.25Z"/>
      <path class="st1" d="M412.8,416.84c1.28,0,2.22.31,2.83.92.61.62,1.01,1.41,1.2,2.39l-.41-.22.19-.38c.19-.37.49-.76.89-1.19s.88-.78,1.45-1.08c.57-.3,1.2-.44,1.91-.44,1.15,0,2.03.25,2.63.74s1.01,1.16,1.24,1.98c.22.82.34,1.74.34,2.75v6.14c0,.42-.14.76-.41,1.04-.27.28-.62.42-1.03.42s-.76-.14-1.03-.42c-.27-.28-.41-.63-.41-1.04v-6.14c0-.53-.06-1-.19-1.43s-.36-.76-.7-1.02-.82-.38-1.44-.38-1.13.13-1.56.38c-.43.26-.76.6-.97,1.02s-.32.9-.32,1.43v6.14c0,.42-.14.76-.41,1.04-.27.28-.62.42-1.03.42s-.76-.14-1.03-.42c-.27-.28-.41-.63-.41-1.04v-6.14c0-.53-.06-1-.19-1.43s-.36-.76-.7-1.02-.82-.38-1.44-.38-1.13.13-1.56.38c-.43.26-.76.6-.97,1.02-.22.42-.32.9-.32,1.43v6.14c0,.42-.14.76-.41,1.04-.27.28-.62.42-1.03.42s-.76-.14-1.03-.42-.41-.63-.41-1.04v-9.91c0-.42.14-.76.41-1.04s.62-.42,1.03-.42.76.14,1.03.42c.27.28.41.63.41,1.04v1.03l-.36-.07c.14-.27.34-.56.6-.88s.57-.6.94-.88c.37-.27.78-.49,1.22-.66s.94-.25,1.46-.25Z"/>
      <path class="st1" d="M438.69,416.84c.42,0,.76.14,1.03.41.27.27.41.62.41,1.06v10.15c0,.42-.14.76-.41,1.04-.27.28-.62.42-1.03.42s-.76-.14-1.03-.42c-.27-.28-.41-.63-.41-1.04v-1.18l.53.22c0,.21-.11.46-.34.76-.22.3-.53.59-.91.88s-.84.53-1.36.73c-.52.2-1.08.3-1.69.3-1.1,0-2.1-.28-3-.85-.9-.57-1.6-1.35-2.12-2.35-.52-1-.78-2.15-.78-3.44s.26-2.47.78-3.47c.52-1,1.22-1.78,2.1-2.35.88-.57,1.86-.85,2.93-.85.69,0,1.32.1,1.9.31s1.08.47,1.5.79.75.64.98.97c.23.33.35.6.35.83l-.86.31v-1.75c0-.42.14-.76.41-1.04.27-.28.62-.42,1.03-.42ZM433.84,427.52c.7,0,1.32-.18,1.85-.53.53-.35.94-.83,1.24-1.44.3-.61.44-1.29.44-2.04s-.15-1.46-.44-2.06-.71-1.09-1.24-1.44c-.53-.35-1.14-.53-1.85-.53s-1.3.18-1.82.53c-.53.35-.94.83-1.24,1.44s-.44,1.3-.44,2.06.15,1.43.44,2.04c.3.61.71,1.09,1.24,1.44.53.35,1.14.53,1.82.53Z"/>
      <path class="st1" d="M443.4,417.32h5.69c.38,0,.7.13.96.38s.38.58.38.96-.13.68-.38.92-.58.37-.96.37h-5.69c-.38,0-.7-.13-.96-.38s-.38-.58-.38-.96.13-.68.38-.92.58-.37.96-.37ZM445.96,414.32c.42,0,.76.14,1.02.42s.4.63.4,1.04v10.68c0,.22.04.41.13.55.09.14.21.25.36.31s.32.1.49.1c.19,0,.37-.04.53-.11.16-.07.34-.11.55-.11.22,0,.43.1.61.31.18.21.28.5.28.86,0,.45-.24.82-.73,1.1-.49.29-1.01.43-1.57.43-.34,0-.71-.03-1.12-.08-.41-.06-.79-.19-1.15-.41-.36-.22-.66-.55-.9-1-.24-.45-.36-1.06-.36-1.85v-10.8c0-.42.14-.76.42-1.04.28-.28.63-.42,1.04-.42Z"/>
      <path class="st1" d="M453.21,417.32h5.69c.38,0,.7.13.96.38s.38.58.38.96-.13.68-.38.92-.58.37-.96.37h-5.69c-.38,0-.7-.13-.96-.38s-.38-.58-.38-.96.13-.68.38-.92.58-.37.96-.37ZM455.78,414.32c.42,0,.76.14,1.02.42s.4.63.4,1.04v10.68c0,.22.04.41.13.55.09.14.21.25.36.31s.32.1.49.1c.19,0,.37-.04.53-.11.16-.07.34-.11.55-.11.22,0,.43.1.61.31.18.21.28.5.28.86,0,.45-.24.82-.73,1.1-.49.29-1.01.43-1.57.43-.34,0-.71-.03-1.12-.08-.41-.06-.79-.19-1.15-.41-.36-.22-.66-.55-.9-1-.24-.45-.36-1.06-.36-1.85v-10.8c0-.42.14-.76.42-1.04.28-.28.63-.42,1.04-.42Z"/>
      <path class="st1" d="M468.81,430.16c-1.36,0-2.54-.28-3.54-.85-1-.57-1.77-1.34-2.3-2.32s-.8-2.08-.8-3.31c0-1.44.29-2.67.88-3.68s1.35-1.8,2.29-2.34,1.94-.82,3-.82c.82,0,1.59.17,2.32.5.73.34,1.37.8,1.93,1.38.56.58,1,1.26,1.33,2.03s.49,1.58.49,2.45c-.02.38-.17.7-.46.94s-.62.36-1.01.36h-9.17l-.72-2.4h8.81l-.53.48v-.65c-.03-.46-.2-.88-.49-1.25-.3-.37-.66-.66-1.1-.88-.44-.22-.91-.32-1.4-.32s-.93.06-1.34.19-.78.34-1.08.65c-.3.3-.54.71-.72,1.22-.18.51-.26,1.16-.26,1.94,0,.86.18,1.6.54,2.2.36.6.82,1.06,1.39,1.37.57.31,1.17.47,1.81.47.59,0,1.06-.05,1.42-.14s.64-.21.85-.35c.22-.14.41-.25.59-.35.29-.14.56-.22.82-.22.35,0,.64.12.88.36.23.24.35.52.35.84,0,.43-.22.82-.67,1.18-.42.35-1,.66-1.75.92-.75.26-1.53.4-2.33.4Z"/>
      <path class="st1" d="M478.36,429.92c-.42,0-.76-.14-1.03-.42s-.41-.63-.41-1.04v-9.91c0-.42.14-.76.41-1.04s.62-.42,1.03-.42.76.14,1.03.42c.27.28.41.63.41,1.04v2.26l-.17-1.61c.18-.38.4-.72.68-1.02.28-.3.6-.54.95-.74.35-.2.73-.35,1.13-.44.4-.1.8-.14,1.2-.14.48,0,.88.14,1.21.41.33.27.49.59.49.96,0,.53-.14.91-.41,1.14-.27.23-.57.35-.89.35-.3,0-.58-.06-.83-.17-.25-.11-.53-.17-.85-.17-.29,0-.58.07-.88.2-.3.14-.57.35-.82.64s-.45.64-.6,1.07c-.15.42-.23.92-.23,1.5v5.69c0,.42-.14.76-.41,1.04-.27.28-.62.42-1.03.42Z"/>
    </g>
  </g>
  <circle class="st4" cx="422.58" cy="481.42" r="26.39"/>
</svg>