<?xml version="1.0" encoding="UTF-8"?>
<svg id="Layer_1" xmlns="http://www.w3.org/2000/svg" version="1.1" viewBox="0 0 829 589.51">
  <!-- Generator: Adobe Illustrator 29.7.1, SVG Export Plug-In . SVG Version: 2.1.1 Build 8)  -->
  <defs>
    <style>
      .st0 {
        fill: #573bb4;
      }

      .st1 {
        fill: #fff;
      }

      .st2 {
        fill: #f93800;
      }

      .st3 {
        fill: #05d4bd;
      }

      .st4 {
        fill: #f9a700;
      }
    </style>
  </defs>
  <g>
    <path class="st3" d="M761.66,455.4c-5.29.66-10.93.56-16.26.75-73.1,2.76-162.02,5.99-235.12,8.75-124.66,4.7-40.27,1.52-164.92,6.22-94.49,3.56,32.24-1.22-62.25,2.35-45.11,1.7-90.22,3.4-135.33,5.1-10.45.39-54.21,2.04-64.65,2.44-13.42.51-24.7-9.96-25.21-23.37-.67-17.73-1.06-43.51,22.65-44.41,34.31-1.29,101.92-3.84,136.23-5.14,123.87-4.67,26.52-1,150.39-5.67,59.5-2.24,119-4.49,178.5-6.73,119.02-4.49,28.99-1.1,148.01-5.6,13.9-.53,43.62-1.65,57.52-2.17,15.77-.6,32.39,4.37,33.1,23.1.39,10.32,1.49,22.31-3.06,31.94-4.05,8.58-11.4,11.43-19.6,12.45h0Z"/>
    <g>
      <path class="st1" d="M359.25,426.45c1.54,0,2.68.36,3.43,1.08s1.13,1.78,1.13,3.19c0,.75-.18,1.41-.55,1.98s-.91,1.01-1.63,1.32-1.61.47-2.66.47l.1-1.08c.5,0,1.06.07,1.7.2.64.14,1.26.38,1.86.72.6.34,1.1.82,1.49,1.44.39.62.59,1.4.59,2.36,0,1.06-.17,1.92-.52,2.59-.34.67-.8,1.19-1.36,1.56s-1.16.62-1.8.76-1.26.2-1.85.2h-5.98c-.42,0-.76-.14-1.04-.42s-.42-.63-.42-1.04v-13.87c0-.42.14-.76.42-1.04s.63-.42,1.04-.42h6.05ZM358.82,429.28h-4.27l.31-.38v4.34l-.29-.22h4.32c.46,0,.88-.15,1.25-.46s.55-.74.55-1.32c0-.69-.17-1.19-.52-1.5-.34-.31-.8-.47-1.36-.47h0ZM359.01,435.86h-4.37l.22-.19v5.06l-.24-.24h4.56c.74,0,1.32-.2,1.75-.59.43-.39.65-.98.65-1.76,0-.72-.14-1.24-.43-1.56s-.63-.52-1.03-.6c-.4-.08-.77-.12-1.1-.12h-.01Z"/>
      <path class="st1" d="M379.65,436.84c0,1.31-.29,2.47-.88,3.47-.58,1-1.37,1.78-2.35,2.34s-2.08.84-3.3.84-2.32-.28-3.3-.84c-.98-.56-1.77-1.34-2.35-2.34-.58-1-.88-2.16-.88-3.47s.29-2.47.88-3.47,1.37-1.78,2.35-2.35,2.08-.85,3.3-.85,2.32.28,3.3.85c.98.57,1.77,1.35,2.35,2.35s.88,2.16.88,3.47ZM376.77,436.84c0-.82-.16-1.52-.49-2.12s-.77-1.07-1.32-1.4c-.55-.34-1.16-.5-1.84-.5s-1.28.17-1.84.5c-.55.34-.99.8-1.32,1.4-.33.6-.49,1.31-.49,2.12s.16,1.5.49,2.1.77,1.07,1.32,1.4c.55.34,1.16.5,1.84.5s1.28-.17,1.84-.5.99-.8,1.32-1.4c.33-.6.49-1.3.49-2.1Z"/>
      <path class="st1" d="M382.31,430.65h5.69c.38,0,.7.13.96.38s.38.58.38.96-.13.68-.38.92-.58.37-.96.37h-5.69c-.38,0-.7-.13-.96-.38s-.38-.58-.38-.96.13-.68.38-.92.58-.37.96-.37ZM384.88,427.65c.42,0,.76.14,1.02.42s.4.63.4,1.04v10.68c0,.22.04.41.13.55.09.14.21.25.36.31s.32.1.49.1c.19,0,.37-.04.53-.11.16-.07.34-.11.55-.11s.43.1.61.31.28.5.28.86c0,.45-.24.82-.73,1.1-.49.29-1.01.43-1.57.43-.34,0-.71-.03-1.12-.08-.41-.06-.79-.19-1.15-.41s-.66-.55-.9-1-.36-1.06-.36-1.85v-10.8c0-.42.14-.76.42-1.04s.63-.42,1.04-.42v.02h0Z"/>
      <path class="st1" d="M398.73,430.17c1.15,0,2.03.25,2.63.74.6.5,1.01,1.16,1.24,1.98.22.82.34,1.74.34,2.75v6.14c0,.42-.14.76-.41,1.04s-.62.42-1.03.42-.76-.14-1.03-.42-.41-.63-.41-1.04v-6.14c0-.53-.06-1-.19-1.43s-.36-.76-.7-1.02-.82-.38-1.44-.38-1.13.13-1.56.38c-.43.26-.76.6-.97,1.02-.22.42-.32.9-.32,1.43v6.14c0,.42-.14.76-.41,1.04s-.62.42-1.03.42-.76-.14-1.03-.42-.41-.63-.41-1.04v-14.83c0-.42.14-.76.41-1.04s.62-.42,1.03-.42.76.14,1.03.42.41.63.41,1.04v5.95l-.36-.07c.14-.27.34-.56.6-.88s.57-.6.94-.88c.37-.27.78-.49,1.22-.66s.94-.25,1.46-.25h0Z"/>
      <path class="st1" d="M419.51,430.17c1.28,0,2.22.31,2.83.92.61.62,1.01,1.41,1.2,2.39l-.41-.22.19-.38c.19-.37.49-.76.89-1.19s.88-.78,1.45-1.08,1.2-.44,1.91-.44c1.15,0,2.03.25,2.63.74s1.01,1.16,1.24,1.98c.22.82.34,1.74.34,2.75v6.14c0,.42-.14.76-.41,1.04s-.62.42-1.03.42-.76-.14-1.03-.42-.41-.63-.41-1.04v-6.14c0-.53-.06-1-.19-1.43s-.36-.76-.7-1.02-.82-.38-1.44-.38-1.13.13-1.56.38c-.43.26-.76.6-.97,1.02s-.32.9-.32,1.43v6.14c0,.42-.14.76-.41,1.04s-.62.42-1.03.42-.76-.14-1.03-.42-.41-.63-.41-1.04v-6.14c0-.53-.06-1-.19-1.43s-.36-.76-.7-1.02-.82-.38-1.44-.38-1.13.13-1.56.38c-.43.26-.76.6-.97,1.02-.22.42-.32.9-.32,1.43v6.14c0,.42-.14.76-.41,1.04s-.62.42-1.03.42-.76-.14-1.03-.42-.41-.63-.41-1.04v-9.91c0-.42.14-.76.41-1.04s.62-.42,1.03-.42.76.14,1.03.42.41.63.41,1.04v1.03l-.36-.07c.14-.27.34-.56.6-.88s.57-.6.94-.88c.37-.27.78-.49,1.22-.66s.94-.25,1.46-.25h0Z"/>
      <path class="st1" d="M445.41,430.17c.42,0,.76.14,1.03.41s.41.62.41,1.06v10.15c0,.42-.14.76-.41,1.04s-.62.42-1.03.42-.76-.14-1.03-.42-.41-.63-.41-1.04v-1.18l.53.22c0,.21-.11.46-.34.76-.22.3-.53.59-.91.88s-.84.53-1.36.73-1.08.3-1.69.3c-1.1,0-2.1-.28-3-.85s-1.6-1.35-2.12-2.35-.78-2.15-.78-3.44.26-2.47.78-3.47,1.22-1.78,2.1-2.35,1.86-.85,2.93-.85c.69,0,1.32.1,1.9.31s1.08.47,1.5.79.75.64.98.97.35.6.35.83l-.86.31v-1.75c0-.42.14-.76.41-1.04s.62-.42,1.03-.42v-.02h-.01ZM440.56,440.85c.7,0,1.32-.18,1.85-.53s.94-.83,1.24-1.44c.3-.61.44-1.29.44-2.04s-.15-1.46-.44-2.06-.71-1.09-1.24-1.44-1.14-.53-1.85-.53-1.3.18-1.82.53c-.53.35-.94.83-1.24,1.44s-.44,1.3-.44,2.06.15,1.43.44,2.04c.3.61.71,1.09,1.24,1.44s1.14.53,1.82.53Z"/>
      <path class="st1" d="M450.11,430.65h5.69c.38,0,.7.13.96.38s.38.58.38.96-.13.68-.38.92-.58.37-.96.37h-5.69c-.38,0-.7-.13-.96-.38s-.38-.58-.38-.96.13-.68.38-.92.58-.37.96-.37ZM452.68,427.65c.42,0,.76.14,1.02.42s.4.63.4,1.04v10.68c0,.22.04.41.13.55.09.14.21.25.36.31s.32.1.49.1c.19,0,.37-.04.53-.11.16-.07.34-.11.55-.11s.43.1.61.31.28.5.28.86c0,.45-.24.82-.73,1.1-.49.29-1.01.43-1.57.43-.34,0-.71-.03-1.12-.08-.41-.06-.79-.19-1.15-.41s-.66-.55-.9-1-.36-1.06-.36-1.85v-10.8c0-.42.14-.76.42-1.04s.63-.42,1.04-.42v.02h0Z"/>
      <path class="st1" d="M459.93,430.65h5.69c.38,0,.7.13.96.38s.38.58.38.96-.13.68-.38.92-.58.37-.96.37h-5.69c-.38,0-.7-.13-.96-.38s-.38-.58-.38-.96.13-.68.38-.92.58-.37.96-.37ZM462.5,427.65c.42,0,.76.14,1.02.42s.4.63.4,1.04v10.68c0,.22.04.41.13.55.09.14.21.25.36.31s.32.1.49.1c.19,0,.37-.04.53-.11.16-.07.34-.11.55-.11s.43.1.61.31.28.5.28.86c0,.45-.24.82-.73,1.1-.49.29-1.01.43-1.57.43-.34,0-.71-.03-1.12-.08-.41-.06-.79-.19-1.15-.41s-.66-.55-.9-1-.36-1.06-.36-1.85v-10.8c0-.42.14-.76.42-1.04s.63-.42,1.04-.42v.02h0Z"/>
      <path class="st1" d="M475.53,443.49c-1.36,0-2.54-.28-3.54-.85s-1.77-1.34-2.3-2.32-.8-2.08-.8-3.31c0-1.44.29-2.67.88-3.68s1.35-1.8,2.29-2.34,1.94-.82,3-.82c.82,0,1.59.17,2.32.5.73.34,1.37.8,1.93,1.38.56.58,1,1.26,1.33,2.03s.49,1.58.49,2.45c-.02.38-.17.7-.46.94s-.62.36-1.01.36h-9.17l-.72-2.4h8.81l-.53.48v-.65c-.03-.46-.2-.88-.49-1.25-.3-.37-.66-.66-1.1-.88s-.91-.32-1.4-.32-.93.06-1.34.19-.78.34-1.08.65c-.3.3-.54.71-.72,1.22s-.26,1.16-.26,1.94c0,.86.18,1.6.54,2.2.36.6.82,1.06,1.39,1.37s1.17.47,1.81.47c.59,0,1.06-.05,1.42-.14s.64-.21.85-.35c.22-.14.41-.25.59-.35.29-.14.56-.22.82-.22.35,0,.64.12.88.36.23.24.35.52.35.84,0,.43-.22.82-.67,1.18-.42.35-1,.66-1.75.92s-1.53.4-2.33.4h-.03Z"/>
      <path class="st1" d="M485.08,443.25c-.42,0-.76-.14-1.03-.42s-.41-.63-.41-1.04v-9.91c0-.42.14-.76.41-1.04s.62-.42,1.03-.42.76.14,1.03.42.41.63.41,1.04v2.26l-.17-1.61c.18-.38.4-.72.68-1.02s.6-.54.95-.74c.35-.2.73-.35,1.13-.44.4-.1.8-.14,1.2-.14.48,0,.88.14,1.21.41s.49.59.49.96c0,.53-.14.91-.41,1.14s-.57.35-.89.35c-.3,0-.58-.06-.83-.17-.25-.11-.53-.17-.85-.17-.29,0-.58.07-.88.2-.3.14-.57.35-.82.64s-.45.64-.6,1.07c-.15.42-.23.92-.23,1.5v5.69c0,.42-.14.76-.41,1.04s-.62.42-1.03.42l.02-.02h0Z"/>
    </g>
  </g>
  <circle class="st3" cx="417.31" cy="493.41" r="26.39"/>
  <g>
    <path class="st0" d="M207.5,408.19c-94.41,3.56-174.12-70.35-177.68-164.77-3.56-94.41,70.35-174.12,164.77-177.68,94.41-3.56,174.12,70.35,177.68,164.77,3.56,94.41-70.35,174.12-164.77,177.68h0Z"/>
    <path class="st4" d="M206.54,382.59c-80.3,3.03-148.09-59.84-151.12-140.14S115.26,94.36,195.56,91.33c80.3-3.03,148.09,59.84,151.12,140.14,3.03,80.3-59.84,148.09-140.14,151.12Z"/>
    <circle class="st2" cx="201.05" cy="236.96" r="120.12"/>
    <g>
      <path class="st1" d="M142.09,207.7c.42,0,.76.13,1.04.4.28.26.42.6.42,1.02s-.14.73-.42,1c-.28.26-.63.4-1.04.4h-7.8c-.42,0-.76-.14-1.04-.42s-.42-.63-.42-1.04v-13.87c0-.42.14-.76.43-1.04s.66-.42,1.1-.42c.38,0,.72.14,1.02.42s.44.63.44,1.04v12.94l-.53-.41h6.79v-.02h0Z"/>
      <path class="st1" d="M152.12,210.75c-1.36,0-2.54-.28-3.54-.85s-1.77-1.34-2.3-2.32c-.54-.98-.8-2.08-.8-3.31,0-1.44.29-2.67.88-3.68s1.35-1.8,2.29-2.34c.94-.54,1.94-.82,3-.82.82,0,1.59.17,2.32.5s1.37.8,1.93,1.38,1,1.26,1.33,2.03.49,1.58.49,2.45c-.02.38-.17.7-.46.94-.29.24-.62.36-1.01.36h-9.17l-.72-2.4h8.81l-.53.48v-.65c-.03-.46-.2-.88-.49-1.25-.3-.37-.66-.66-1.1-.88s-.91-.32-1.4-.32-.93.06-1.34.19c-.42.13-.78.34-1.08.65s-.54.71-.72,1.22c-.18.51-.26,1.16-.26,1.94,0,.86.18,1.6.54,2.2.36.6.82,1.06,1.39,1.37s1.17.47,1.81.47c.59,0,1.06-.05,1.42-.14.35-.1.64-.21.85-.35.22-.14.41-.25.59-.35.29-.14.56-.22.82-.22.35,0,.64.12.88.36.23.24.35.52.35.84,0,.43-.22.82-.67,1.18-.42.35-1,.66-1.75.92s-1.53.4-2.33.4h-.03Z"/>
      <path class="st1" d="M170.84,197.43c.42,0,.76.14,1.03.41s.41.62.41,1.06v10.15c0,.42-.14.76-.41,1.04s-.62.42-1.03.42-.76-.14-1.03-.42-.41-.63-.41-1.04v-1.18l.53.22c0,.21-.11.46-.34.76-.22.3-.53.59-.91.88-.38.29-.84.53-1.36.73s-1.08.3-1.69.3c-1.1,0-2.1-.28-3-.85s-1.6-1.35-2.12-2.35c-.52-1-.78-2.15-.78-3.44s.26-2.47.78-3.47,1.22-1.78,2.1-2.35,1.86-.85,2.93-.85c.69,0,1.32.1,1.9.31.58.21,1.08.47,1.5.79.42.32.75.64.98.97s.35.6.35.83l-.86.31v-1.75c0-.42.14-.76.41-1.04s.62-.42,1.03-.42v-.02h0ZM165.99,208.11c.7,0,1.32-.18,1.85-.53s.94-.83,1.24-1.44.44-1.29.44-2.04-.15-1.46-.44-2.06c-.3-.61-.71-1.09-1.24-1.44s-1.14-.53-1.85-.53-1.3.18-1.82.53c-.53.35-.94.83-1.24,1.44s-.44,1.3-.44,2.06.15,1.43.44,2.04c.3.61.71,1.09,1.24,1.44s1.14.53,1.82.53Z"/>
      <path class="st1" d="M176.84,210.51c-.42,0-.76-.14-1.03-.42s-.41-.63-.41-1.04v-9.91c0-.42.14-.76.41-1.04s.62-.42,1.03-.42.76.14,1.03.42.41.63.41,1.04v2.26l-.17-1.61c.18-.38.4-.72.68-1.02s.6-.54.95-.74c.35-.2.73-.35,1.13-.44.4-.1.8-.14,1.2-.14.48,0,.88.14,1.21.41s.49.59.49.96c0,.53-.14.91-.41,1.14s-.57.35-.89.35-.58-.06-.83-.17-.53-.17-.85-.17c-.29,0-.58.07-.88.2-.3.14-.57.35-.82.64s-.45.64-.6,1.07c-.15.42-.23.92-.23,1.5v5.69c0,.42-.14.76-.41,1.04s-.62.42-1.03.42l.02-.02h0Z"/>
      <path class="st1" d="M192.68,197.43c1.18,0,2.08.25,2.7.74.62.5,1.04,1.16,1.27,1.98.23.82.35,1.74.35,2.75v6.14c0,.42-.14.76-.41,1.04s-.62.42-1.03.42-.76-.14-1.03-.42-.41-.63-.41-1.04v-6.14c0-.53-.07-1-.2-1.43-.14-.42-.38-.76-.73-1.02-.35-.26-.86-.38-1.51-.38s-1.18.13-1.62.38c-.44.26-.78.6-1.01,1.02s-.35.9-.35,1.43v6.14c0,.42-.14.76-.41,1.04s-.62.42-1.03.42-.76-.14-1.03-.42-.41-.63-.41-1.04v-9.91c0-.42.14-.76.41-1.04s.62-.42,1.03-.42.76.14,1.03.42.41.63.41,1.04v1.03l-.36-.07c.14-.27.35-.56.62-.88.27-.31.59-.6.96-.88.37-.27.78-.49,1.25-.66.46-.17.97-.25,1.51-.25h0Z"/>
      <path class="st1" d="M201.37,196.11c-.54,0-.93-.09-1.15-.26-.22-.18-.34-.49-.34-.94v-.46c0-.46.12-.78.37-.95s.63-.25,1.14-.25c.56,0,.95.09,1.18.26.22.18.34.49.34.94v.46c0,.46-.12.78-.36.95s-.63.25-1.18.25ZM202.83,209.05c0,.42-.14.76-.41,1.04s-.62.42-1.03.42-.76-.14-1.03-.42-.41-.63-.41-1.04v-9.91c0-.42.14-.76.41-1.04s.62-.42,1.03-.42.76.14,1.03.42.41.63.41,1.04v9.91Z"/>
      <path class="st1" d="M212.65,197.43c1.18,0,2.08.25,2.7.74.62.5,1.04,1.16,1.27,1.98.23.82.35,1.74.35,2.75v6.14c0,.42-.14.76-.41,1.04s-.62.42-1.03.42-.76-.14-1.03-.42-.41-.63-.41-1.04v-6.14c0-.53-.07-1-.2-1.43-.14-.42-.38-.76-.73-1.02-.35-.26-.86-.38-1.51-.38s-1.18.13-1.62.38c-.44.26-.78.6-1.01,1.02s-.35.9-.35,1.43v6.14c0,.42-.14.76-.41,1.04s-.62.42-1.03.42-.76-.14-1.03-.42-.41-.63-.41-1.04v-9.91c0-.42.14-.76.41-1.04s.62-.42,1.03-.42.76.14,1.03.42.41.63.41,1.04v1.03l-.36-.07c.14-.27.35-.56.62-.88.27-.31.59-.6.96-.88.37-.27.78-.49,1.25-.66.46-.17.97-.25,1.51-.25h0Z"/>
      <path class="st1" d="M225.42,197.43c.67,0,1.29.1,1.85.31.56.21,1.04.47,1.45.79.41.32.73.64.96.97.23.33.35.6.35.83l-.62.31v-1.75c0-.42.14-.76.41-1.04s.62-.42,1.03-.42.76.14,1.03.41.41.62.41,1.06v10.68c0,1.39-.3,2.51-.9,3.35-.6.84-1.39,1.45-2.36,1.82s-2.02.56-3.14.56c-.32,0-.74-.04-1.25-.12s-1-.18-1.46-.29-.82-.22-1.06-.31c-.48-.21-.81-.47-1-.78-.18-.31-.22-.64-.11-1,.14-.46.38-.78.7-.95.32-.17.66-.19,1.01-.06.16.05.42.14.79.29s.77.28,1.21.4.83.18,1.16.18c1.2,0,2.09-.24,2.66-.72.58-.48.86-1.14.86-1.99v-2.09l.29.22c0,.21-.11.46-.32.76-.22.3-.51.59-.89.88-.38.29-.82.53-1.33.73s-1.06.3-1.63.3c-1.14,0-2.16-.28-3.07-.85s-1.63-1.35-2.16-2.35-.79-2.15-.79-3.44.26-2.47.79-3.47,1.24-1.78,2.14-2.35,1.9-.85,3-.85v-.02h0ZM225.87,200.07c-.72,0-1.35.18-1.9.53-.54.35-.97.83-1.27,1.44s-.46,1.3-.46,2.06.15,1.43.46,2.04c.3.61.73,1.09,1.27,1.44.54.35,1.18.53,1.9.53s1.38-.18,1.92-.53.97-.83,1.27-1.44.46-1.29.46-2.04-.15-1.46-.46-2.06c-.3-.61-.73-1.09-1.27-1.44-.54-.35-1.18-.53-1.92-.53Z"/>
      <path class="st1" d="M132.73,231.91h5.69c.38,0,.7.13.96.38.26.26.38.58.38.96s-.13.68-.38.92c-.26.25-.58.37-.96.37h-5.69c-.38,0-.7-.13-.96-.38-.26-.25-.38-.58-.38-.96s.13-.68.38-.92c.26-.25.58-.37.96-.37ZM135.3,228.91c.42,0,.76.14,1.02.42.26.28.4.63.4,1.04v10.68c0,.22.04.41.13.55.09.14.21.25.36.31s.32.1.49.1c.19,0,.37-.04.53-.11s.34-.11.55-.11.43.1.61.31.28.5.28.86c0,.45-.24.82-.73,1.1-.49.29-1.01.43-1.57.43-.34,0-.71-.03-1.12-.08-.41-.06-.79-.19-1.15-.41s-.66-.55-.9-1c-.24-.45-.36-1.06-.36-1.85v-10.8c0-.42.14-.76.42-1.04s.63-.42,1.04-.42v.02h0Z"/>
      <path class="st1" d="M149.15,231.43c1.15,0,2.03.25,2.63.74s1.01,1.16,1.24,1.98c.22.82.34,1.74.34,2.75v6.14c0,.42-.14.76-.41,1.04s-.62.42-1.03.42-.76-.14-1.03-.42-.41-.63-.41-1.04v-6.14c0-.53-.06-1-.19-1.43-.13-.42-.36-.76-.7-1.02-.34-.25-.82-.38-1.44-.38s-1.13.13-1.56.38c-.43.26-.76.6-.97,1.02-.22.42-.32.9-.32,1.43v6.14c0,.42-.14.76-.41,1.04s-.62.42-1.03.42-.76-.14-1.03-.42-.41-.63-.41-1.04v-14.83c0-.42.14-.76.41-1.04s.62-.42,1.03-.42.76.14,1.03.42.41.63.41,1.04v5.95l-.36-.07c.14-.27.34-.56.6-.88.26-.31.57-.6.94-.88.37-.27.78-.49,1.22-.66s.94-.25,1.46-.25h-.01Z"/>
      <path class="st1" d="M162.51,244.75c-1.36,0-2.54-.28-3.54-.85s-1.77-1.34-2.3-2.32c-.54-.98-.8-2.08-.8-3.31,0-1.44.29-2.67.88-3.68.58-1.02,1.35-1.8,2.29-2.34.94-.54,1.94-.82,3-.82.82,0,1.59.17,2.32.5s1.37.8,1.93,1.38,1,1.26,1.33,2.03.49,1.58.49,2.45c-.02.38-.17.7-.46.94s-.62.36-1.01.36h-9.17l-.72-2.4h8.81l-.53.48v-.65c-.03-.46-.2-.88-.49-1.25-.3-.37-.66-.66-1.1-.88s-.91-.32-1.4-.32-.93.06-1.34.19c-.42.13-.78.34-1.08.65-.3.3-.54.71-.72,1.22-.18.51-.26,1.16-.26,1.94,0,.86.18,1.6.54,2.2.36.6.82,1.06,1.39,1.37.57.31,1.17.47,1.81.47.59,0,1.06-.05,1.42-.14.35-.1.64-.21.85-.35.22-.14.41-.25.59-.35.29-.14.56-.22.82-.22.35,0,.64.12.88.36.23.24.35.52.35.84,0,.43-.22.82-.67,1.18-.42.35-1,.66-1.75.92s-1.53.4-2.33.4h-.03Z"/>
      <path class="st1" d="M180.47,243.05c0,.42-.14.76-.42,1.04s-.63.42-1.04.42-.74-.14-1.01-.42c-.27-.28-.41-.63-.41-1.04v-14.83c0-.42.14-.76.42-1.04s.63-.42,1.04-.42.76.14,1.02.42c.26.28.4.63.4,1.04v14.83Z"/>
      <path class="st1" d="M194.34,231.43c.42,0,.76.14,1.03.41s.41.62.41,1.06v10.15c0,.42-.14.76-.41,1.04s-.62.42-1.03.42-.76-.14-1.03-.42-.41-.63-.41-1.04v-1.18l.53.22c0,.21-.11.46-.34.76-.22.3-.53.59-.91.88-.38.29-.84.53-1.36.73s-1.08.3-1.69.3c-1.1,0-2.1-.28-3-.85s-1.6-1.35-2.12-2.35c-.52-1-.78-2.15-.78-3.44s.26-2.47.78-3.47,1.22-1.78,2.1-2.35,1.86-.85,2.93-.85c.69,0,1.32.1,1.9.31.58.21,1.08.47,1.5.79.42.32.75.64.98.97s.35.6.35.83l-.86.31v-1.75c0-.42.14-.76.41-1.04s.62-.42,1.03-.42v-.02h0ZM189.49,242.11c.7,0,1.32-.18,1.85-.53s.94-.83,1.24-1.44.44-1.29.44-2.04-.15-1.46-.44-2.06c-.3-.61-.71-1.09-1.24-1.44s-1.14-.53-1.85-.53-1.3.18-1.82.53c-.53.35-.94.83-1.24,1.44s-.44,1.3-.44,2.06.15,1.43.44,2.04c.3.61.71,1.09,1.24,1.44s1.14.53,1.82.53Z"/>
      <path class="st1" d="M208.43,231.67c.42,0,.76.14,1.03.42s.41.63.41,1.04v10.2c0,1.47-.28,2.64-.83,3.52-.55.87-1.29,1.5-2.22,1.88-.93.38-1.97.58-3.12.58-.51,0-1.06-.04-1.63-.12s-1.05-.2-1.42-.36c-.48-.21-.81-.47-1-.78-.18-.31-.22-.64-.11-1,.14-.46.38-.78.7-.95s.66-.19,1.01-.06c.26.08.59.2,1.01.37s.9.25,1.44.25c.74,0,1.35-.1,1.84-.3s.86-.54,1.1-1.01.37-1.12.37-1.93v-1.61l.5.58c-.27.53-.61.96-1.02,1.31-.41.34-.89.6-1.45.78s-1.2.26-1.92.26c-.85,0-1.59-.2-2.22-.59s-1.12-.94-1.48-1.63c-.35-.7-.53-1.49-.53-2.39v-7.01c0-.42.14-.76.41-1.04s.62-.42,1.03-.42.76.14,1.03.42.41.63.41,1.04v6.14c0,1.04.23,1.77.68,2.2s1.09.64,1.91.64c.56,0,1.03-.11,1.42-.32.38-.22.68-.54.89-.96.21-.42.31-.94.31-1.55v-6.14c0-.42.14-.76.41-1.04s.62-.42,1.03-.42h.01Z"/>
      <path class="st1" d="M218.91,244.75c-1.36,0-2.54-.28-3.54-.85s-1.77-1.34-2.3-2.32c-.54-.98-.8-2.08-.8-3.31,0-1.44.29-2.67.88-3.68.58-1.02,1.35-1.8,2.29-2.34.94-.54,1.94-.82,3-.82.82,0,1.59.17,2.32.5s1.37.8,1.93,1.38,1,1.26,1.33,2.03.49,1.58.49,2.45c-.02.38-.17.7-.46.94s-.62.36-1.01.36h-9.17l-.72-2.4h8.81l-.53.48v-.65c-.03-.46-.2-.88-.49-1.25-.3-.37-.66-.66-1.1-.88s-.91-.32-1.4-.32-.93.06-1.34.19c-.42.13-.78.34-1.08.65-.3.3-.54.71-.72,1.22-.18.51-.26,1.16-.26,1.94,0,.86.18,1.6.54,2.2.36.6.82,1.06,1.39,1.37.57.31,1.17.47,1.81.47.59,0,1.06-.05,1.42-.14.35-.1.64-.21.85-.35.22-.14.41-.25.59-.35.29-.14.56-.22.82-.22.35,0,.64.12.88.36.23.24.35.52.35.84,0,.43-.22.82-.67,1.18-.42.35-1,.66-1.75.92s-1.53.4-2.33.4h-.03Z"/>
      <path class="st1" d="M228.47,244.51c-.42,0-.76-.14-1.03-.42s-.41-.63-.41-1.04v-9.91c0-.42.14-.76.41-1.04s.62-.42,1.03-.42.76.14,1.03.42.41.63.41,1.04v2.26l-.17-1.61c.18-.38.4-.72.68-1.02s.6-.54.95-.74.73-.35,1.13-.44c.4-.1.8-.14,1.2-.14.48,0,.88.14,1.21.41s.49.59.49.96c0,.53-.14.91-.41,1.14s-.57.35-.89.35-.58-.06-.83-.17-.53-.17-.85-.17c-.29,0-.58.07-.88.2-.3.14-.57.35-.82.64s-.45.64-.6,1.07c-.15.42-.23.92-.23,1.5v5.69c0,.42-.14.76-.41,1.04s-.62.42-1.03.42l.02-.02h0Z"/>
      <path class="st1" d="M236.7,242.52c-.16-.22-.23-.51-.22-.86.02-.35.22-.66.62-.91.26-.16.53-.23.82-.2.29.02.57.17.84.44.46.46.95.82,1.46,1.08s1.15.38,1.92.38c.24-.02.5-.05.79-.11s.54-.18.76-.38c.22-.2.32-.51.32-.92,0-.35-.12-.63-.36-.84-.24-.21-.56-.38-.95-.53-.39-.14-.83-.28-1.31-.41-.5-.14-1-.3-1.52-.48s-1-.4-1.43-.68-.78-.65-1.06-1.12c-.27-.46-.41-1.05-.41-1.75,0-.8.22-1.48.67-2.04s1.03-.99,1.74-1.3,1.46-.46,2.24-.46c.5,0,1.02.06,1.56.18s1.06.31,1.56.58.91.61,1.25,1.04c.18.24.28.53.31.86.03.34-.12.64-.46.91-.24.19-.52.28-.84.25-.32-.02-.58-.13-.79-.32-.27-.35-.64-.63-1.09-.84s-.98-.31-1.57-.31c-.24,0-.5.03-.78.08-.28.06-.52.18-.73.36s-.31.48-.31.88c0,.37.12.66.36.88s.56.39.97.53.84.27,1.31.4c.48.13.97.28,1.46.46.5.18.95.41,1.37.7s.75.66,1.01,1.12.38,1.04.38,1.74c0,.82-.24,1.51-.72,2.09s-1.08,1.01-1.8,1.31-1.46.44-2.21.44c-.94,0-1.89-.17-2.83-.49-.94-.33-1.73-.91-2.35-1.74l.02-.02Z"/>
      <path class="st1" d="M145.04,272.1c0,1.31-.29,2.47-.88,3.47-.58,1-1.37,1.78-2.35,2.34-.98.56-2.08.84-3.3.84s-2.32-.28-3.3-.84-1.77-1.34-2.35-2.34-.88-2.16-.88-3.47.29-2.47.88-3.47,1.37-1.78,2.35-2.35c.98-.57,2.08-.85,3.3-.85s2.32.28,3.3.85,1.77,1.35,2.35,2.35.88,2.16.88,3.47ZM142.16,272.1c0-.82-.16-1.52-.49-2.12s-.77-1.07-1.32-1.4c-.55-.34-1.16-.5-1.84-.5s-1.28.17-1.84.5c-.55.34-.99.8-1.32,1.4s-.49,1.31-.49,2.12.16,1.5.49,2.1.77,1.07,1.32,1.4c.55.34,1.16.5,1.84.5s1.28-.17,1.84-.5c.55-.34.99-.8,1.32-1.4s.49-1.3.49-2.1Z"/>
      <path class="st1" d="M154.43,265.91c.38,0,.7.12.96.37s.38.56.38.95-.13.7-.38.95-.58.37-.96.37h-6.36c-.38,0-.7-.12-.96-.37-.26-.25-.38-.56-.38-.95s.13-.7.38-.95c.26-.25.58-.37.96-.37h6.36ZM154.16,260.75c.35,0,.7.05,1.03.14.34.1.62.25.84.47s.34.5.34.85c0,.4-.12.72-.35.95-.23.23-.5.35-.8.35-.14,0-.36-.04-.65-.11-.29-.07-.57-.11-.84-.11-.4,0-.71.09-.92.26-.22.18-.36.38-.44.61-.08.23-.12.44-.12.61v12.26c0,.42-.14.76-.41,1.04s-.62.42-1.03.42-.76-.14-1.03-.42-.41-.63-.41-1.04v-12.24c0-1.14.4-2.1,1.2-2.88s2-1.18,3.6-1.18v.02h0Z"/>
      <path class="st1" d="M164.91,265.91h5.69c.38,0,.7.13.96.38.26.26.38.58.38.96s-.13.68-.38.92c-.26.25-.58.37-.96.37h-5.69c-.38,0-.7-.13-.96-.38-.26-.26-.38-.58-.38-.96s.13-.68.38-.92c.26-.25.58-.37.96-.37ZM167.48,262.91c.42,0,.76.14,1.02.42s.4.63.4,1.04v10.68c0,.22.04.41.13.55.09.14.21.25.36.31s.32.1.49.1c.19,0,.37-.04.53-.11.16-.07.34-.11.55-.11s.43.1.61.31c.18.21.28.5.28.86,0,.45-.24.82-.73,1.1-.49.29-1.01.43-1.57.43-.34,0-.71-.03-1.12-.08-.41-.06-.79-.19-1.15-.41s-.66-.55-.9-1c-.24-.45-.36-1.06-.36-1.85v-10.8c0-.42.14-.76.42-1.04s.63-.42,1.04-.42v.02h0Z"/>
      <path class="st1" d="M181.33,265.43c1.15,0,2.03.25,2.63.74s1.01,1.16,1.24,1.98c.22.82.34,1.74.34,2.75v6.14c0,.42-.14.76-.41,1.04s-.62.42-1.03.42-.76-.14-1.03-.42-.41-.63-.41-1.04v-6.14c0-.53-.06-1-.19-1.43-.13-.42-.36-.76-.7-1.02s-.82-.38-1.44-.38-1.13.13-1.56.38c-.43.26-.76.6-.97,1.02-.22.42-.32.9-.32,1.43v6.14c0,.42-.14.76-.41,1.04s-.62.42-1.03.42-.76-.14-1.03-.42-.41-.63-.41-1.04v-14.83c0-.42.14-.76.41-1.04s.62-.42,1.03-.42.76.14,1.03.42.41.63.41,1.04v5.95l-.36-.07c.14-.27.34-.56.6-.88.26-.31.57-.6.94-.88.37-.27.78-.49,1.22-.66s.94-.25,1.46-.25h-.01Z"/>
      <path class="st1" d="M194.7,278.75c-1.36,0-2.54-.28-3.54-.85s-1.77-1.34-2.3-2.32c-.54-.98-.8-2.08-.8-3.31,0-1.44.29-2.67.88-3.68s1.35-1.8,2.29-2.34c.94-.54,1.94-.82,3-.82.82,0,1.59.17,2.32.5s1.37.8,1.93,1.38c.56.58,1,1.26,1.33,2.03s.49,1.58.49,2.45c-.02.38-.17.7-.46.94s-.62.36-1.01.36h-9.17l-.72-2.4h8.81l-.53.48v-.65c-.03-.46-.2-.88-.49-1.25-.3-.37-.66-.66-1.1-.88s-.91-.32-1.4-.32-.93.06-1.34.19c-.42.13-.78.34-1.08.65-.3.3-.54.71-.72,1.22-.18.51-.26,1.16-.26,1.94,0,.86.18,1.6.54,2.2s.82,1.06,1.39,1.37c.57.31,1.17.47,1.81.47.59,0,1.06-.05,1.42-.14s.64-.21.85-.35c.22-.14.41-.25.59-.35.29-.14.56-.22.82-.22.35,0,.64.12.88.36.23.24.35.52.35.84,0,.43-.22.82-.67,1.18-.42.35-1,.66-1.75.92s-1.53.4-2.33.4h-.03Z"/>
      <path class="st1" d="M211.23,261.71h8.04c.42,0,.76.13,1.04.4.28.26.42.6.42,1.02s-.14.72-.42.97-.63.37-1.04.37h-6.72l.22-.41v4.68l-.19-.19h5.62c.42,0,.76.13,1.04.4.28.26.42.6.42,1.02s-.14.72-.42.97-.63.37-1.04.37h-5.54l.12-.19v4.85l-.19-.22h6.7c.42,0,.76.14,1.04.42s.42.6.42.97c0,.4-.14.73-.42.98-.28.26-.63.38-1.04.38h-8.04c-.42,0-.76-.14-1.04-.42s-.42-.63-.42-1.04v-13.87c0-.42.14-.76.42-1.04s.63-.42,1.04-.42h-.02,0Z"/>
      <path class="st1" d="M233.77,265.43c.42,0,.76.14,1.03.41s.41.62.41,1.06v10.15c0,.42-.14.76-.41,1.04s-.62.42-1.03.42-.76-.14-1.03-.42-.41-.63-.41-1.04v-1.18l.53.22c0,.21-.11.46-.34.76-.22.3-.53.59-.91.88s-.84.53-1.36.73-1.08.3-1.69.3c-1.1,0-2.1-.28-3-.85s-1.6-1.35-2.12-2.35c-.52-1-.78-2.15-.78-3.44s.26-2.47.78-3.47,1.22-1.78,2.1-2.35,1.86-.85,2.93-.85c.69,0,1.32.1,1.9.31s1.08.47,1.5.79.75.64.98.97.35.6.35.83l-.86.31v-1.75c0-.42.14-.76.41-1.04s.62-.42,1.03-.42v-.02h0ZM228.92,276.11c.7,0,1.32-.18,1.85-.53s.94-.83,1.24-1.44c.3-.61.44-1.29.44-2.04s-.15-1.46-.44-2.06c-.3-.61-.71-1.09-1.24-1.44s-1.14-.53-1.85-.53-1.3.18-1.82.53c-.53.35-.94.83-1.24,1.44-.3.61-.44,1.3-.44,2.06s.15,1.43.44,2.04c.3.61.71,1.09,1.24,1.44s1.14.53,1.82.53Z"/>
      <path class="st1" d="M239.77,278.51c-.42,0-.76-.14-1.03-.42s-.41-.63-.41-1.04v-9.91c0-.42.14-.76.41-1.04s.62-.42,1.03-.42.76.14,1.03.42.41.63.41,1.04v2.26l-.17-1.61c.18-.38.4-.72.68-1.02s.6-.54.95-.74c.35-.2.73-.35,1.13-.44.4-.1.8-.14,1.2-.14.48,0,.88.14,1.21.41s.49.59.49.96c0,.53-.14.91-.41,1.14s-.57.35-.89.35c-.3,0-.58-.06-.83-.17-.25-.11-.53-.17-.85-.17-.29,0-.58.07-.88.2-.3.14-.57.35-.82.64s-.45.64-.6,1.07c-.15.42-.23.92-.23,1.5v5.69c0,.42-.14.76-.41,1.04s-.62.42-1.03.42l.02-.02h0Z"/>
      <path class="st1" d="M248.89,265.91h5.69c.38,0,.7.13.96.38s.38.58.38.96-.13.68-.38.92-.58.37-.96.37h-5.69c-.38,0-.7-.13-.96-.38s-.38-.58-.38-.96.13-.68.38-.92.58-.37.96-.37ZM251.46,262.91c.42,0,.76.14,1.02.42s.4.63.4,1.04v10.68c0,.22.04.41.13.55.09.14.21.25.36.31s.32.1.49.1c.19,0,.37-.04.53-.11.16-.07.34-.11.55-.11s.43.1.61.31c.18.21.28.5.28.86,0,.45-.24.82-.73,1.1-.49.29-1.01.43-1.57.43-.34,0-.71-.03-1.12-.08-.41-.06-.79-.19-1.15-.41s-.66-.55-.9-1c-.24-.45-.36-1.06-.36-1.85v-10.8c0-.42.14-.76.42-1.04s.63-.42,1.04-.42v.02h0Z"/>
      <path class="st1" d="M265.31,265.43c1.15,0,2.03.25,2.63.74.6.5,1.01,1.16,1.24,1.98.22.82.34,1.74.34,2.75v6.14c0,.42-.14.76-.41,1.04s-.62.42-1.03.42-.76-.14-1.03-.42-.41-.63-.41-1.04v-6.14c0-.53-.06-1-.19-1.43s-.36-.76-.7-1.02-.82-.38-1.44-.38-1.13.13-1.56.38c-.43.26-.76.6-.97,1.02-.22.42-.32.9-.32,1.43v6.14c0,.42-.14.76-.41,1.04s-.62.42-1.03.42-.76-.14-1.03-.42-.41-.63-.41-1.04v-14.83c0-.42.14-.76.41-1.04s.62-.42,1.03-.42.76.14,1.03.42.41.63.41,1.04v5.95l-.36-.07c.14-.27.34-.56.6-.88s.57-.6.94-.88c.37-.27.78-.49,1.22-.66s.94-.25,1.46-.25h0Z"/>
    </g>
  </g>
  <g>
    <path class="st2" d="M632.18,392.17c-94.41,3.56-177.9-71.41-182.6-165.77-5.45-109.37,75.27-173.12,169.69-176.68,94.41-3.56,174.12,70.35,177.68,164.77,3.56,94.41-70.35,174.12-164.77,177.68Z"/>
    <path class="st4" d="M627.15,380.63c-82.24,3.1-151.67-61.28-154.77-143.53-1.96-51.87,24.08-102.01,67.44-130.49,47.21-31.01,110.67-32.11,158.95-2.8,42.57,25.84,72.32,54.68,76.22,122.93,4.7,82.17-65.59,150.78-147.84,153.88h0Z"/>
    <path class="st0" d="M692.62,126.16l-15.33,5.74c-3.46,1.3-6.97-1.82-6.08-5.41l3.91-15.9c.34-1.39.02-2.85-.87-3.97l-10.2-12.81c-2.3-2.89-.43-7.19,3.26-7.46l16.33-1.19c1.42-.1,2.72-.86,3.5-2.05l9.03-13.66c2.04-3.09,6.7-2.63,8.1.8l6.18,15.16c.54,1.32,1.66,2.32,3.03,2.7l15.78,4.37c3.57.99,4.57,5.56,1.74,7.95l-12.51,10.56c-1.09.92-1.69,2.29-1.63,3.72l.72,16.36c.16,3.7-3.88,6.06-7.02,4.11l-13.91-8.64c-1.21-.75-2.7-.9-4.04-.4v.02h.01Z"/>
    <path class="st0" d="M741.93,236.09c2.61,69.27-51.43,127.55-120.7,130.16s-127.55-51.43-130.16-120.7c-2.61-69.27,50.89-135.65,120.2-134.15,67.13,1.45,128.05,55.42,130.67,124.69h0Z"/>
    <g>
      <path class="st1" d="M562.21,192.6c.42,0,.76.13,1.04.4.28.26.42.6.42,1.02s-.14.73-.42,1c-.28.26-.63.4-1.04.4h-7.8c-.42,0-.76-.14-1.04-.42s-.42-.63-.42-1.04v-13.87c0-.42.14-.76.43-1.04s.66-.42,1.1-.42c.38,0,.72.14,1.02.42.3.28.44.63.44,1.04v12.94l-.53-.41h6.79v-.02h.01Z"/>
      <path class="st1" d="M572.24,195.64c-1.36,0-2.54-.28-3.54-.85s-1.77-1.34-2.3-2.32-.8-2.08-.8-3.31c0-1.44.29-2.67.88-3.68s1.35-1.8,2.29-2.34,1.94-.82,3-.82c.82,0,1.59.17,2.32.5.73.34,1.37.8,1.93,1.38s1,1.26,1.33,2.03.49,1.58.49,2.45c-.02.38-.17.7-.46.94s-.62.36-1.01.36h-9.17l-.72-2.4h8.81l-.53.48v-.65c-.03-.46-.2-.88-.49-1.25-.3-.37-.66-.66-1.1-.88s-.91-.32-1.4-.32-.93.06-1.34.19-.78.34-1.08.65c-.3.3-.54.71-.72,1.22s-.26,1.16-.26,1.94c0,.86.18,1.6.54,2.2.36.6.82,1.06,1.39,1.37s1.17.47,1.81.47c.59,0,1.06-.05,1.42-.14s.64-.21.85-.35c.22-.14.41-.25.59-.35.29-.14.56-.22.82-.22.35,0,.64.12.88.36.23.24.35.52.35.84,0,.43-.22.82-.67,1.18-.42.35-1,.66-1.75.92s-1.53.4-2.33.4h-.03,0Z"/>
      <path class="st1" d="M590.96,182.32c.42,0,.76.14,1.03.41s.41.62.41,1.06v10.15c0,.42-.14.76-.41,1.04-.27.28-.62.42-1.03.42s-.76-.14-1.03-.42-.41-.63-.41-1.04v-1.18l.53.22c0,.21-.11.46-.34.76-.22.3-.53.59-.91.88s-.84.53-1.36.73c-.52.2-1.08.3-1.69.3-1.1,0-2.1-.28-3-.85s-1.6-1.35-2.12-2.35-.78-2.15-.78-3.44.26-2.47.78-3.47,1.22-1.78,2.1-2.35,1.86-.85,2.93-.85c.69,0,1.32.1,1.9.31s1.08.47,1.5.79.75.64.98.97.35.6.35.83l-.86.31v-1.75c0-.42.14-.76.41-1.04.27-.28.62-.42,1.03-.42v-.02h-.01ZM586.11,193c.7,0,1.32-.18,1.85-.53.53-.35.94-.83,1.24-1.44s.44-1.29.44-2.04-.15-1.46-.44-2.06-.71-1.09-1.24-1.44c-.53-.35-1.14-.53-1.85-.53s-1.3.18-1.82.53c-.53.35-.94.83-1.24,1.44s-.44,1.3-.44,2.06.15,1.43.44,2.04c.3.61.71,1.09,1.24,1.44.53.35,1.14.53,1.82.53Z"/>
      <path class="st1" d="M596.96,195.4c-.42,0-.76-.14-1.03-.42s-.41-.63-.41-1.04v-9.91c0-.42.14-.76.41-1.04s.62-.42,1.03-.42.76.14,1.03.42.41.63.41,1.04v2.26l-.17-1.61c.18-.38.4-.72.68-1.02.28-.3.6-.54.95-.74.35-.2.73-.35,1.13-.44.4-.1.8-.14,1.2-.14.48,0,.88.14,1.21.41s.49.59.49.96c0,.53-.14.91-.41,1.14-.27.23-.57.35-.89.35-.3,0-.58-.06-.83-.17s-.53-.17-.85-.17c-.29,0-.58.07-.88.2-.3.14-.57.35-.82.64s-.45.64-.6,1.07c-.15.42-.23.92-.23,1.5v5.69c0,.42-.14.76-.41,1.04-.27.28-.62.42-1.03.42l.02-.02h0Z"/>
      <path class="st1" d="M612.8,182.32c1.18,0,2.08.25,2.7.74s1.04,1.16,1.27,1.98c.23.82.35,1.74.35,2.75v6.14c0,.42-.14.76-.41,1.04-.27.28-.62.42-1.03.42s-.76-.14-1.03-.42-.41-.63-.41-1.04v-6.14c0-.53-.07-1-.2-1.43-.14-.42-.38-.76-.73-1.02s-.86-.38-1.51-.38-1.18.13-1.62.38-.78.6-1.01,1.02-.35.9-.35,1.43v6.14c0,.42-.14.76-.41,1.04-.27.28-.62.42-1.03.42s-.76-.14-1.03-.42-.41-.63-.41-1.04v-9.91c0-.42.14-.76.41-1.04s.62-.42,1.03-.42.76.14,1.03.42.41.63.41,1.04v1.03l-.36-.07c.14-.27.35-.56.62-.88.27-.31.59-.6.96-.88.37-.27.78-.49,1.25-.66.46-.17.97-.25,1.51-.25h0Z"/>
      <path class="st1" d="M621.49,181c-.54,0-.93-.09-1.15-.26-.22-.18-.34-.49-.34-.94v-.46c0-.46.12-.78.37-.95s.63-.25,1.14-.25c.56,0,.95.09,1.18.26.22.18.34.49.34.94v.46c0,.46-.12.78-.36.95s-.63.25-1.18.25ZM622.95,193.94c0,.42-.14.76-.41,1.04-.27.28-.62.42-1.03.42s-.76-.14-1.03-.42-.41-.63-.41-1.04v-9.91c0-.42.14-.76.41-1.04s.62-.42,1.03-.42.76.14,1.03.42.41.63.41,1.04v9.91Z"/>
      <path class="st1" d="M632.77,182.32c1.18,0,2.08.25,2.7.74s1.04,1.16,1.27,1.98c.23.82.35,1.74.35,2.75v6.14c0,.42-.14.76-.41,1.04-.27.28-.62.42-1.03.42s-.76-.14-1.03-.42-.41-.63-.41-1.04v-6.14c0-.53-.07-1-.2-1.43-.14-.42-.38-.76-.73-1.02s-.86-.38-1.51-.38-1.18.13-1.62.38-.78.6-1.01,1.02-.35.9-.35,1.43v6.14c0,.42-.14.76-.41,1.04-.27.28-.62.42-1.03.42s-.76-.14-1.03-.42-.41-.63-.41-1.04v-9.91c0-.42.14-.76.41-1.04s.62-.42,1.03-.42.76.14,1.03.42.41.63.41,1.04v1.03l-.36-.07c.14-.27.35-.56.62-.88.27-.31.59-.6.96-.88.37-.27.78-.49,1.25-.66.46-.17.97-.25,1.51-.25h0Z"/>
      <path class="st1" d="M645.53,182.32c.67,0,1.29.1,1.85.31.56.21,1.04.47,1.45.79.41.32.73.64.96.97.23.33.35.6.35.83l-.62.31v-1.75c0-.42.14-.76.41-1.04.27-.28.62-.42,1.03-.42s.76.14,1.03.41.41.62.41,1.06v10.68c0,1.39-.3,2.51-.9,3.35-.6.84-1.39,1.45-2.36,1.82-.98.38-2.02.56-3.14.56-.32,0-.74-.04-1.25-.12s-1-.18-1.46-.29-.82-.22-1.06-.31c-.48-.21-.81-.47-1-.78-.18-.31-.22-.64-.11-1,.14-.46.38-.78.7-.95s.66-.19,1.01-.06c.16.05.42.14.79.29s.77.28,1.21.4.83.18,1.16.18c1.2,0,2.09-.24,2.66-.72.58-.48.86-1.14.86-1.99v-2.09l.29.22c0,.21-.11.46-.32.76s-.51.59-.89.88-.82.53-1.33.73-1.06.3-1.63.3c-1.14,0-2.16-.28-3.07-.85-.91-.57-1.63-1.35-2.16-2.35s-.79-2.15-.79-3.44.26-2.47.79-3.47,1.24-1.78,2.14-2.35,1.9-.85,3-.85v-.02h0ZM645.99,184.96c-.72,0-1.35.18-1.9.53-.54.35-.97.83-1.27,1.44s-.46,1.3-.46,2.06.15,1.43.46,2.04c.3.61.73,1.09,1.27,1.44s1.18.53,1.9.53,1.38-.18,1.92-.53.97-.83,1.27-1.44c.3-.61.46-1.29.46-2.04s-.15-1.46-.46-2.06c-.3-.61-.73-1.09-1.27-1.44-.54-.35-1.18-.53-1.92-.53Z"/>
      <path class="st1" d="M552.85,216.8h5.69c.38,0,.7.13.96.38s.38.58.38.96-.13.68-.38.92-.58.37-.96.37h-5.69c-.38,0-.7-.13-.96-.38s-.38-.58-.38-.96.13-.68.38-.92.58-.37.96-.37ZM555.41,213.81c.42,0,.76.14,1.02.42s.4.63.4,1.04v10.68c0,.22.04.41.13.55s.21.25.36.31.32.1.49.1c.19,0,.37-.04.53-.11.16-.07.34-.11.55-.11s.43.1.61.31c.18.21.28.5.28.86,0,.45-.24.82-.73,1.1-.49.29-1.01.43-1.57.43-.34,0-.71-.03-1.12-.08-.41-.06-.79-.19-1.15-.41-.36-.22-.66-.55-.9-1-.24-.45-.36-1.06-.36-1.85v-10.8c0-.42.14-.76.42-1.04.28-.28.63-.42,1.04-.42v.02h0Z"/>
      <path class="st1" d="M569.26,216.32c1.15,0,2.03.25,2.63.74.6.5,1.01,1.16,1.24,1.98.22.82.34,1.74.34,2.75v6.14c0,.42-.14.76-.41,1.04-.27.28-.62.42-1.03.42s-.76-.14-1.03-.42-.41-.63-.41-1.04v-6.14c0-.53-.06-1-.19-1.43s-.36-.76-.7-1.02-.82-.38-1.44-.38-1.13.13-1.56.38c-.43.26-.76.6-.97,1.02-.22.42-.32.9-.32,1.43v6.14c0,.42-.14.76-.41,1.04-.27.28-.62.42-1.03.42s-.76-.14-1.03-.42-.41-.63-.41-1.04v-14.83c0-.42.14-.76.41-1.04s.62-.42,1.03-.42.76.14,1.03.42.41.63.41,1.04v5.95l-.36-.07c.14-.27.34-.56.6-.88s.57-.6.94-.88c.37-.27.78-.49,1.22-.66s.94-.25,1.46-.25h-.01Z"/>
      <path class="st1" d="M582.63,229.64c-1.36,0-2.54-.28-3.54-.85s-1.77-1.34-2.3-2.32-.8-2.08-.8-3.31c0-1.44.29-2.67.88-3.68s1.35-1.8,2.29-2.34,1.94-.82,3-.82c.82,0,1.59.17,2.32.5.73.34,1.37.8,1.93,1.38s1,1.26,1.33,2.03.49,1.58.49,2.45c-.02.38-.17.7-.46.94s-.62.36-1.01.36h-9.17l-.72-2.4h8.81l-.53.48v-.65c-.03-.46-.2-.88-.49-1.25-.3-.37-.66-.66-1.1-.88s-.91-.32-1.4-.32-.93.06-1.34.19-.78.34-1.08.65c-.3.3-.54.71-.72,1.22s-.26,1.16-.26,1.94c0,.86.18,1.6.54,2.2.36.6.82,1.06,1.39,1.37s1.17.47,1.81.47c.59,0,1.06-.05,1.42-.14s.64-.21.85-.35c.22-.14.41-.25.59-.35.29-.14.56-.22.82-.22.35,0,.64.12.88.36.23.24.35.52.35.84,0,.43-.22.82-.67,1.18-.42.35-1,.66-1.75.92s-1.53.4-2.33.4h-.03,0Z"/>
      <path class="st1" d="M600.58,227.94c0,.42-.14.76-.42,1.04s-.63.42-1.04.42-.74-.14-1.01-.42-.41-.63-.41-1.04v-14.83c0-.42.14-.76.42-1.04s.63-.42,1.04-.42.76.14,1.02.42.4.63.4,1.04v14.83h0Z"/>
      <path class="st1" d="M614.45,216.32c.42,0,.76.14,1.03.41s.41.62.41,1.06v10.15c0,.42-.14.76-.41,1.04-.27.28-.62.42-1.03.42s-.76-.14-1.03-.42-.41-.63-.41-1.04v-1.18l.53.22c0,.21-.11.46-.34.76-.22.3-.53.59-.91.88s-.84.53-1.36.73c-.52.2-1.08.3-1.69.3-1.1,0-2.1-.28-3-.85s-1.6-1.35-2.12-2.35-.78-2.15-.78-3.44.26-2.47.78-3.47,1.22-1.78,2.1-2.35,1.86-.85,2.93-.85c.69,0,1.32.1,1.9.31s1.08.47,1.5.79.75.64.98.97.35.6.35.83l-.86.31v-1.75c0-.42.14-.76.41-1.04.27-.28.62-.42,1.03-.42v-.02h-.01ZM609.61,227c.7,0,1.32-.18,1.85-.53.53-.35.94-.83,1.24-1.44s.44-1.29.44-2.04-.15-1.46-.44-2.06-.71-1.09-1.24-1.44c-.53-.35-1.14-.53-1.85-.53s-1.3.18-1.82.53c-.53.35-.94.83-1.24,1.44s-.44,1.3-.44,2.06.15,1.43.44,2.04c.3.61.71,1.09,1.24,1.44.53.35,1.14.53,1.82.53Z"/>
      <path class="st1" d="M628.54,216.56c.42,0,.76.14,1.03.42s.41.63.41,1.04v10.2c0,1.47-.28,2.64-.83,3.52s-1.29,1.5-2.22,1.88-1.97.58-3.12.58c-.51,0-1.06-.04-1.63-.12-.58-.08-1.05-.2-1.42-.36-.48-.21-.81-.47-1-.78-.18-.31-.22-.64-.11-1,.14-.46.38-.78.7-.95s.66-.19,1.01-.06c.26.08.59.2,1.01.37s.9.25,1.44.25c.74,0,1.35-.1,1.84-.3.49-.2.86-.54,1.1-1.01.25-.47.37-1.12.37-1.93v-1.61l.5.58c-.27.53-.61.96-1.02,1.31s-.89.6-1.45.78-1.2.26-1.92.26c-.85,0-1.59-.2-2.22-.59-.63-.39-1.12-.94-1.48-1.63-.35-.7-.53-1.49-.53-2.39v-7.01c0-.42.14-.76.41-1.04s.62-.42,1.03-.42.76.14,1.03.42.41.63.41,1.04v6.14c0,1.04.23,1.77.68,2.2s1.09.64,1.91.64c.56,0,1.03-.11,1.42-.32.38-.22.68-.54.89-.96s.31-.94.31-1.55v-6.14c0-.42.14-.76.41-1.04.27-.28.62-.42,1.03-.42h0Z"/>
      <path class="st1" d="M639.03,229.64c-1.36,0-2.54-.28-3.54-.85s-1.77-1.34-2.3-2.32-.8-2.08-.8-3.31c0-1.44.29-2.67.88-3.68s1.35-1.8,2.29-2.34,1.94-.82,3-.82c.82,0,1.59.17,2.32.5.73.34,1.37.8,1.93,1.38s1,1.26,1.33,2.03.49,1.58.49,2.45c-.02.38-.17.7-.46.94s-.62.36-1.01.36h-9.17l-.72-2.4h8.81l-.53.48v-.65c-.03-.46-.2-.88-.49-1.25-.3-.37-.66-.66-1.1-.88s-.91-.32-1.4-.32-.93.06-1.34.19-.78.34-1.08.65c-.3.3-.54.71-.72,1.22s-.26,1.16-.26,1.94c0,.86.18,1.6.54,2.2.36.6.82,1.06,1.39,1.37s1.17.47,1.81.47c.59,0,1.06-.05,1.42-.14s.64-.21.85-.35c.22-.14.41-.25.59-.35.29-.14.56-.22.82-.22.35,0,.64.12.88.36.23.24.35.52.35.84,0,.43-.22.82-.67,1.18-.42.35-1,.66-1.75.92s-1.53.4-2.33.4h-.03,0Z"/>
      <path class="st1" d="M648.58,229.4c-.42,0-.76-.14-1.03-.42s-.41-.63-.41-1.04v-9.91c0-.42.14-.76.41-1.04s.62-.42,1.03-.42.76.14,1.03.42.41.63.41,1.04v2.26l-.17-1.61c.18-.38.4-.72.68-1.02.28-.3.6-.54.95-.74.35-.2.73-.35,1.13-.44.4-.1.8-.14,1.2-.14.48,0,.88.14,1.21.41s.49.59.49.96c0,.53-.14.91-.41,1.14-.27.23-.57.35-.89.35-.3,0-.58-.06-.83-.17s-.53-.17-.85-.17c-.29,0-.58.07-.88.2-.3.14-.57.35-.82.64s-.45.64-.6,1.07c-.15.42-.23.92-.23,1.5v5.69c0,.42-.14.76-.41,1.04-.27.28-.62.42-1.03.42l.02-.02h0Z"/>
      <path class="st1" d="M656.81,227.41c-.16-.22-.23-.51-.22-.86.02-.35.22-.66.62-.91.26-.16.53-.23.82-.2.29.02.57.17.84.44.46.46.95.82,1.46,1.08s1.15.38,1.92.38c.24-.02.5-.05.79-.11s.54-.18.76-.38c.22-.2.32-.51.32-.92,0-.35-.12-.63-.36-.84-.24-.21-.56-.38-.95-.53-.39-.14-.83-.28-1.31-.41-.5-.14-1-.3-1.52-.48s-1-.4-1.43-.68-.78-.65-1.06-1.12c-.27-.46-.41-1.05-.41-1.75,0-.8.22-1.48.67-2.04s1.03-.99,1.74-1.3,1.46-.46,2.24-.46c.5,0,1.02.06,1.56.18s1.06.31,1.56.58c.5.26.91.61,1.25,1.04.18.24.28.53.31.86.03.34-.12.64-.46.91-.24.19-.52.28-.84.25-.32-.02-.58-.13-.79-.32-.27-.35-.64-.63-1.09-.84s-.98-.31-1.57-.31c-.24,0-.5.03-.78.08-.28.06-.52.18-.73.36-.21.18-.31.48-.31.88,0,.37.12.66.36.88s.56.39.97.53.84.27,1.31.4c.48.13.97.28,1.46.46.5.18.95.41,1.37.7s.75.66,1.01,1.12.38,1.04.38,1.74c0,.82-.24,1.51-.72,2.09s-1.08,1.01-1.8,1.31-1.46.44-2.21.44c-.94,0-1.89-.16-2.83-.49s-1.73-.91-2.35-1.74l.02-.02Z"/>
      <path class="st1" d="M565.16,257c0,1.31-.29,2.47-.88,3.47-.58,1-1.37,1.78-2.35,2.34s-2.08.84-3.3.84-2.32-.28-3.3-.84-1.77-1.34-2.35-2.34c-.58-1-.88-2.16-.88-3.47s.29-2.47.88-3.47,1.37-1.78,2.35-2.35,2.08-.85,3.3-.85,2.32.28,3.3.85,1.77,1.35,2.35,2.35.88,2.16.88,3.47ZM562.28,257c0-.82-.16-1.52-.49-2.12-.33-.6-.77-1.07-1.32-1.4-.55-.34-1.16-.5-1.84-.5s-1.28.17-1.84.5c-.55.34-.99.8-1.32,1.4-.33.6-.49,1.31-.49,2.12s.16,1.5.49,2.1.77,1.07,1.32,1.4c.55.34,1.16.5,1.84.5s1.28-.17,1.84-.5.99-.8,1.32-1.4.49-1.3.49-2.1Z"/>
      <path class="st1" d="M574.54,250.8c.38,0,.7.12.96.37s.38.56.38.95-.13.7-.38.95-.58.37-.96.37h-6.36c-.38,0-.71-.12-.96-.37s-.38-.56-.38-.95.13-.7.38-.95.58-.37.96-.37h6.36ZM574.28,245.64c.35,0,.7.05,1.03.14.34.1.62.25.84.47.22.22.34.5.34.85,0,.4-.12.72-.35.95s-.5.35-.8.35c-.14,0-.36-.04-.65-.11-.29-.07-.57-.11-.84-.11-.4,0-.71.09-.92.26-.22.18-.36.38-.44.61s-.12.44-.12.61v12.26c0,.42-.14.76-.41,1.04-.27.28-.62.42-1.03.42s-.76-.14-1.03-.42-.41-.63-.41-1.04v-12.24c0-1.14.4-2.1,1.2-2.88s2-1.18,3.6-1.18v.02h-.01Z"/>
      <path class="st1" d="M585.03,250.8h5.69c.38,0,.7.13.96.38s.38.58.38.96-.13.68-.38.92-.58.37-.96.37h-5.69c-.38,0-.7-.13-.96-.38s-.38-.58-.38-.96.13-.68.38-.92.58-.37.96-.37ZM587.6,247.8c.42,0,.76.14,1.02.42s.4.63.4,1.04v10.68c0,.22.04.41.13.55.09.14.21.25.36.31s.32.1.49.1c.19,0,.37-.04.53-.11.16-.07.34-.11.55-.11s.43.1.61.31.28.5.28.86c0,.45-.24.82-.73,1.1-.49.29-1.01.43-1.57.43-.34,0-.71-.03-1.12-.08-.41-.06-.79-.19-1.15-.41-.36-.22-.66-.55-.9-1-.24-.45-.36-1.06-.36-1.85v-10.8c0-.42.14-.76.42-1.04.28-.28.63-.42,1.04-.42v.02h0Z"/>
      <path class="st1" d="M601.45,250.32c1.15,0,2.03.25,2.63.74.6.5,1.01,1.16,1.24,1.98.22.82.34,1.74.34,2.75v6.14c0,.42-.14.76-.41,1.04-.27.28-.62.42-1.03.42s-.76-.14-1.03-.42-.41-.63-.41-1.04v-6.14c0-.53-.06-1-.19-1.43s-.36-.76-.7-1.02-.82-.38-1.44-.38-1.13.13-1.56.38c-.43.26-.76.6-.97,1.02-.22.42-.32.9-.32,1.43v6.14c0,.42-.14.76-.41,1.04-.27.28-.62.42-1.03.42s-.76-.14-1.03-.42-.41-.63-.41-1.04v-14.83c0-.42.14-.76.41-1.04s.62-.42,1.03-.42.76.14,1.03.42.41.63.41,1.04v5.95l-.36-.07c.14-.27.34-.56.6-.88s.57-.6.94-.88c.37-.27.78-.49,1.22-.66s.94-.25,1.46-.25h-.01Z"/>
      <path class="st1" d="M614.81,263.64c-1.36,0-2.54-.28-3.54-.85s-1.77-1.34-2.3-2.32-.8-2.08-.8-3.31c0-1.44.29-2.67.88-3.68s1.35-1.8,2.29-2.34,1.94-.82,3-.82c.82,0,1.59.17,2.32.5.73.34,1.37.8,1.93,1.38s1,1.26,1.33,2.03.49,1.58.49,2.45c-.02.38-.17.7-.46.94s-.62.36-1.01.36h-9.17l-.72-2.4h8.81l-.53.48v-.65c-.03-.46-.2-.88-.49-1.25-.3-.37-.66-.66-1.1-.88s-.91-.32-1.4-.32-.93.06-1.34.19-.78.34-1.08.65c-.3.3-.54.71-.72,1.22s-.26,1.16-.26,1.94c0,.86.18,1.6.54,2.2s.82,1.06,1.39,1.37,1.17.47,1.81.47c.59,0,1.06-.05,1.42-.14s.64-.21.85-.35c.22-.14.41-.25.59-.35.29-.14.56-.22.82-.22.35,0,.64.12.88.36.23.24.35.52.35.84,0,.43-.22.82-.67,1.18-.42.35-1,.66-1.75.92s-1.53.4-2.33.4h-.03,0Z"/>
      <path class="st1" d="M624.17,249c-.54,0-.93-.09-1.15-.26-.22-.18-.34-.49-.34-.94v-.46c0-.46.12-.78.37-.95s.63-.25,1.14-.25c.56,0,.95.09,1.18.26.22.18.34.49.34.94v.46c0,.46-.12.78-.36.95s-.63.25-1.18.25ZM625.64,261.94c0,.42-.14.76-.41,1.04-.27.28-.62.42-1.03.42s-.76-.14-1.03-.42-.41-.63-.41-1.04v-9.91c0-.42.14-.76.41-1.04s.62-.42,1.03-.42.76.14,1.03.42.41.63.41,1.04v9.91Z"/>
      <path class="st1" d="M630.03,263.4c-.42,0-.76-.14-1.03-.42s-.41-.63-.41-1.04v-9.91c0-.42.14-.76.41-1.04s.62-.42,1.03-.42.76.14,1.03.42.41.63.41,1.04v2.26l-.17-1.61c.18-.38.4-.72.68-1.02.28-.3.6-.54.95-.74.35-.2.73-.35,1.13-.44.4-.1.8-.14,1.2-.14.48,0,.88.14,1.21.41s.49.59.49.96c0,.53-.14.91-.41,1.14-.27.23-.57.35-.89.35-.3,0-.58-.06-.83-.17s-.53-.17-.85-.17c-.29,0-.58.07-.88.2-.3.14-.57.35-.82.64s-.45.64-.6,1.07c-.15.42-.23.92-.23,1.5v5.69c0,.42-.14.76-.41,1.04-.27.28-.62.42-1.03.42l.02-.02h0Z"/>
      <path class="st1" d="M553.95,283c-.54,0-.93-.09-1.15-.26-.22-.18-.34-.49-.34-.94v-.46c0-.46.12-.78.37-.95s.63-.25,1.14-.25c.56,0,.95.09,1.18.26.22.18.34.49.34.94v.46c0,.46-.12.78-.36.95s-.63.25-1.18.25ZM555.41,295.94c0,.42-.14.76-.41,1.04-.27.28-.62.42-1.03.42s-.76-.14-1.03-.42-.41-.63-.41-1.04v-9.91c0-.42.14-.76.41-1.04s.62-.42,1.03-.42.76.14,1.03.42.41.63.41,1.04v9.91Z"/>
      <path class="st1" d="M565.23,284.32c1.18,0,2.08.25,2.7.74s1.04,1.16,1.27,1.98c.23.82.35,1.74.35,2.75v6.14c0,.42-.14.76-.41,1.04-.27.28-.62.42-1.03.42s-.76-.14-1.03-.42-.41-.63-.41-1.04v-6.14c0-.53-.07-1-.2-1.43-.14-.42-.38-.76-.73-1.02s-.86-.38-1.51-.38-1.18.13-1.62.38-.78.6-1.01,1.02c-.23.42-.35.9-.35,1.43v6.14c0,.42-.14.76-.41,1.04-.27.28-.62.42-1.03.42s-.76-.14-1.03-.42-.41-.63-.41-1.04v-9.91c0-.42.14-.76.41-1.04s.62-.42,1.03-.42.76.14,1.03.42.41.63.41,1.04v1.03l-.36-.07c.14-.27.35-.56.62-.88.27-.31.59-.6.96-.88.37-.27.78-.49,1.25-.66.46-.17.97-.25,1.51-.25h0Z"/>
      <path class="st1" d="M579.53,284.32c1.18,0,2.08.25,2.7.74s1.04,1.16,1.27,1.98c.23.82.35,1.74.35,2.75v6.14c0,.42-.14.76-.41,1.04-.27.28-.62.42-1.03.42s-.76-.14-1.03-.42-.41-.63-.41-1.04v-6.14c0-.53-.07-1-.2-1.43-.14-.42-.38-.76-.73-1.02s-.86-.38-1.51-.38-1.18.13-1.62.38-.78.6-1.01,1.02c-.23.42-.35.9-.35,1.43v6.14c0,.42-.14.76-.41,1.04-.27.28-.62.42-1.03.42s-.76-.14-1.03-.42-.41-.63-.41-1.04v-9.91c0-.42.14-.76.41-1.04s.62-.42,1.03-.42.76.14,1.03.42.41.63.41,1.04v1.03l-.36-.07c.14-.27.35-.56.62-.88.27-.31.59-.6.96-.88.37-.27.78-.49,1.25-.66.46-.17.97-.25,1.51-.25h0Z"/>
      <path class="st1" d="M593.02,297.64c-1.36,0-2.54-.28-3.54-.85s-1.77-1.34-2.3-2.32-.8-2.08-.8-3.31c0-1.44.29-2.67.88-3.68s1.35-1.8,2.29-2.34,1.94-.82,3-.82c.82,0,1.59.17,2.32.5.73.34,1.37.8,1.93,1.38.56.58,1,1.26,1.33,2.03s.49,1.58.49,2.45c-.02.38-.17.7-.46.94s-.62.36-1.01.36h-9.17l-.72-2.4h8.81l-.53.48v-.65c-.03-.46-.2-.88-.49-1.25-.3-.37-.66-.66-1.1-.88s-.91-.32-1.4-.32-.93.06-1.34.19-.78.34-1.08.65c-.3.3-.54.71-.72,1.22s-.26,1.16-.26,1.94c0,.86.18,1.6.54,2.2s.82,1.06,1.39,1.37,1.17.47,1.81.47c.59,0,1.06-.05,1.42-.14s.64-.21.85-.35c.22-.14.41-.25.59-.35.29-.14.56-.22.82-.22.35,0,.64.12.88.36.23.24.35.52.35.84,0,.43-.22.82-.67,1.18-.42.35-1,.66-1.75.92s-1.53.4-2.33.4h-.03,0Z"/>
      <path class="st1" d="M602.57,297.4c-.42,0-.76-.14-1.03-.42s-.41-.63-.41-1.04v-9.91c0-.42.14-.76.41-1.04s.62-.42,1.03-.42.76.14,1.03.42.41.63.41,1.04v2.26l-.17-1.61c.18-.38.4-.72.68-1.02.28-.3.6-.54.95-.74.35-.2.73-.35,1.13-.44.4-.1.8-.14,1.2-.14.48,0,.88.14,1.21.41s.49.59.49.96c0,.53-.14.91-.41,1.14-.27.23-.57.35-.89.35-.3,0-.58-.06-.83-.17-.25-.11-.53-.17-.85-.17-.29,0-.58.07-.88.2-.3.14-.57.35-.82.64s-.45.64-.6,1.07c-.15.42-.23.92-.23,1.5v5.69c0,.42-.14.76-.41,1.04-.27.28-.62.42-1.03.42l.02-.02h0Z"/>
      <path class="st1" d="M633.05,284.56c.37,0,.69.14.96.42s.41.64.41,1.07c0,.11,0,.21-.02.3s-.04.17-.07.25l-3.67,9.89c-.11.32-.31.56-.6.73s-.59.23-.91.18c-.54-.03-.95-.34-1.22-.91l-2.38-6.84.62.02-2.23,6.82c-.27.58-.68.88-1.22.91-.3.05-.6-.01-.9-.18s-.5-.41-.61-.73l-3.67-9.89c-.06-.18-.1-.36-.1-.55,0-.38.13-.73.38-1.03s.61-.46,1.06-.46c.3,0,.58.07.82.22.24.14.41.38.5.7l2.9,7.87-.6-.05,2.18-5.93c.26-.59.7-.89,1.32-.89.35,0,.62.08.8.23.18.15.33.37.44.66l2.18,5.93-.72.1,2.95-7.92c.19-.61.66-.91,1.39-.91h0Z"/>
      <path class="st1" d="M649.16,291c0,1.31-.29,2.47-.88,3.47-.58,1-1.37,1.78-2.35,2.34s-2.08.84-3.3.84-2.32-.28-3.3-.84-1.77-1.34-2.35-2.34c-.58-1-.88-2.16-.88-3.47s.29-2.47.88-3.47,1.37-1.78,2.35-2.35,2.08-.85,3.3-.85,2.32.28,3.3.85,1.77,1.35,2.35,2.35.88,2.16.88,3.47ZM646.28,291c0-.82-.16-1.52-.49-2.12s-.77-1.07-1.32-1.4c-.55-.34-1.16-.5-1.84-.5s-1.28.17-1.84.5c-.55.34-.99.8-1.32,1.4s-.49,1.31-.49,2.12.16,1.5.49,2.1.77,1.07,1.32,1.4c.55.34,1.16.5,1.84.5s1.28-.17,1.84-.5.99-.8,1.32-1.4.49-1.3.49-2.1Z"/>
      <path class="st1" d="M653.12,297.4c-.42,0-.76-.14-1.03-.42s-.41-.63-.41-1.04v-9.91c0-.42.14-.76.41-1.04s.62-.42,1.03-.42.76.14,1.03.42.41.63.41,1.04v2.26l-.17-1.61c.18-.38.4-.72.68-1.02.28-.3.6-.54.95-.74.35-.2.73-.35,1.13-.44.4-.1.8-.14,1.2-.14.48,0,.88.14,1.21.41s.49.59.49.96c0,.53-.14.91-.41,1.14-.27.23-.57.35-.89.35-.3,0-.58-.06-.83-.17-.25-.11-.53-.17-.85-.17-.29,0-.58.07-.88.2-.3.14-.57.35-.82.64s-.45.64-.6,1.07c-.15.42-.23.92-.23,1.5v5.69c0,.42-.14.76-.41,1.04-.27.28-.62.42-1.03.42l.02-.02h0Z"/>
      <path class="st1" d="M665.21,295.94c0,.42-.14.76-.42,1.04s-.63.42-1.04.42-.74-.14-1.01-.42-.41-.63-.41-1.04v-14.83c0-.42.14-.76.42-1.04s.63-.42,1.04-.42.76.14,1.02.42.4.63.4,1.04v14.83h0Z"/>
      <path class="st1" d="M678.85,279.64c.42,0,.76.14,1.03.41s.41.62.41,1.06v14.83c0,.42-.14.76-.41,1.04-.27.28-.62.42-1.03.42s-.76-.14-1.03-.42-.41-.63-.41-1.04v-1.18l.53.22c0,.21-.11.46-.34.76-.22.3-.53.59-.91.88s-.84.53-1.36.73c-.52.2-1.08.3-1.69.3-1.1,0-2.1-.28-3-.85s-1.6-1.35-2.12-2.35-.78-2.15-.78-3.44.26-2.47.78-3.47,1.22-1.78,2.1-2.35,1.86-.85,2.93-.85c.69,0,1.32.1,1.9.31s1.08.47,1.5.79.75.64.98.97.35.6.35.83l-.86.31v-6.43c0-.42.14-.76.41-1.04.27-.28.62-.42,1.03-.42v-.02h-.01ZM674,295c.7,0,1.32-.18,1.85-.53.53-.35.94-.83,1.24-1.44.3-.61.44-1.29.44-2.04s-.15-1.46-.44-2.06-.71-1.09-1.24-1.44c-.53-.35-1.14-.53-1.85-.53s-1.3.18-1.82.53c-.53.35-.94.83-1.24,1.44s-.44,1.3-.44,2.06.15,1.43.44,2.04c.3.61.71,1.09,1.24,1.44.53.35,1.14.53,1.82.53Z"/>
    </g>
  </g>
</svg>