<?xml version="1.0" encoding="UTF-8"?>
<svg id="Layer_1" xmlns="http://www.w3.org/2000/svg" version="1.1" viewBox="0 0 829 589.51">
  <!-- Generator: Adobe Illustrator 29.7.1, SVG Export Plug-In . SVG Version: 2.1.1 Build 8)  -->
  <defs>
    <style>
      .st0 {
        fill: none;
        stroke: #fff;
        stroke-linecap: round;
        stroke-miterlimit: 10;
        stroke-width: 1.4px;
      }

      .st1 {
        fill: #a7c900;
      }

      .st2 {
        fill: #fff;
      }

      .st3 {
        fill: #e44c17;
      }

      .st4 {
        fill: #05d4bd;
      }
    </style>
  </defs>
  <g>
    <path class="st4" d="M741.45,423.29c-5.29.65-10.93.55-16.26.73-73.1,2.66-162.03,5.78-235.13,8.45-124.66,4.54-40.27,1.47-164.93,6.01-94.5,3.44,32.25-1.18-62.25,2.27-45.11,1.64-90.23,3.29-135.34,4.93-10.45.38-54.21,1.98-64.66,2.36-13.42.49-24.69-9.99-25.18-23.41-.65-17.73-1-43.52,22.71-44.38,34.31-1.25,101.93-3.71,136.23-4.96,123.88-4.51,26.52-.97,150.4-5.48,59.5-2.17,119.01-4.34,178.51-6.51,119.02-4.34,28.99-1.06,148.02-5.41,13.9-.51,43.62-1.59,57.52-2.1,15.77-.58,32.38,4.42,33.07,23.14.38,10.32,1.46,22.31-3.1,31.94-4.06,8.57-11.42,11.41-19.61,12.43Z"/>
    <g>
      <path class="st2" d="M282.19,394.61c1.54,0,2.68.36,3.43,1.08.75.72,1.13,1.78,1.13,3.19,0,.75-.18,1.41-.55,1.98-.37.57-.91,1.01-1.63,1.32-.72.31-1.61.47-2.66.47l.1-1.08c.5,0,1.06.07,1.7.2.64.14,1.26.38,1.86.72.6.34,1.1.82,1.49,1.44.39.62.59,1.4.59,2.36,0,1.06-.17,1.92-.52,2.59-.34.67-.8,1.19-1.36,1.56-.56.37-1.16.62-1.8.76s-1.26.2-1.85.2h-5.98c-.42,0-.76-.14-1.04-.42s-.42-.63-.42-1.04v-13.87c0-.42.14-.76.42-1.04s.63-.42,1.04-.42h6.05ZM281.75,397.44h-4.27l.31-.38v4.34l-.29-.22h4.32c.46,0,.88-.15,1.25-.46s.55-.74.55-1.32c0-.69-.17-1.19-.52-1.5-.34-.31-.8-.47-1.36-.47ZM281.95,404.01h-4.37l.22-.19v5.06l-.24-.24h4.56c.74,0,1.32-.2,1.75-.59.43-.39.65-.98.65-1.76,0-.72-.14-1.24-.43-1.56s-.63-.52-1.03-.6c-.4-.08-.77-.12-1.1-.12Z"/>
      <path class="st2" d="M302.59,405c0,1.31-.29,2.47-.88,3.47-.58,1-1.37,1.78-2.35,2.34-.98.56-2.08.84-3.3.84s-2.32-.28-3.3-.84c-.98-.56-1.77-1.34-2.35-2.34-.58-1-.88-2.16-.88-3.47s.29-2.47.88-3.47,1.37-1.78,2.35-2.35c.98-.57,2.08-.85,3.3-.85s2.32.28,3.3.85c.98.57,1.77,1.35,2.35,2.35s.88,2.16.88,3.47ZM299.71,405c0-.82-.16-1.52-.49-2.12-.33-.6-.77-1.07-1.32-1.4-.55-.34-1.16-.5-1.84-.5s-1.28.17-1.84.5c-.55.34-.99.8-1.32,1.4-.33.6-.49,1.31-.49,2.12s.16,1.5.49,2.1c.33.6.77,1.07,1.32,1.4.55.34,1.16.5,1.84.5s1.28-.17,1.84-.5.99-.8,1.32-1.4c.33-.6.49-1.3.49-2.1Z"/>
      <path class="st2" d="M305.25,398.81h5.69c.38,0,.7.13.96.38s.38.58.38.96-.13.68-.38.92-.58.37-.96.37h-5.69c-.38,0-.7-.13-.96-.38s-.38-.58-.38-.96.13-.68.38-.92.58-.37.96-.37ZM307.82,395.81c.42,0,.76.14,1.02.42s.4.63.4,1.04v10.68c0,.22.04.41.13.55.09.14.21.25.36.31s.32.1.49.1c.19,0,.37-.04.53-.11.16-.07.34-.11.55-.11.22,0,.43.1.61.31.18.21.28.5.28.86,0,.45-.24.82-.73,1.1-.49.29-1.01.43-1.57.43-.34,0-.71-.03-1.12-.08-.41-.06-.79-.19-1.15-.41-.36-.22-.66-.55-.9-1-.24-.45-.36-1.06-.36-1.85v-10.8c0-.42.14-.76.42-1.04.28-.28.63-.42,1.04-.42Z"/>
      <path class="st2" d="M321.67,398.32c1.15,0,2.03.25,2.63.74.6.5,1.01,1.16,1.24,1.98.22.82.34,1.74.34,2.75v6.14c0,.42-.14.76-.41,1.04-.27.28-.62.42-1.03.42s-.76-.14-1.03-.42c-.27-.28-.41-.63-.41-1.04v-6.14c0-.53-.06-1-.19-1.43s-.36-.76-.7-1.02-.82-.38-1.44-.38-1.13.13-1.56.38c-.43.26-.76.6-.97,1.02-.22.42-.32.9-.32,1.43v6.14c0,.42-.14.76-.41,1.04-.27.28-.62.42-1.03.42s-.76-.14-1.03-.42-.41-.63-.41-1.04v-14.83c0-.42.14-.76.41-1.04s.62-.42,1.03-.42.76.14,1.03.42c.27.28.41.63.41,1.04v5.95l-.36-.07c.14-.27.34-.56.6-.88s.57-.6.94-.88c.37-.27.78-.49,1.22-.66s.94-.25,1.46-.25Z"/>
      <path class="st2" d="M341.42,398.32c.91,0,1.71.1,2.39.29.68.19,1.21.46,1.58.8.38.34.56.76.56,1.24,0,.32-.1.62-.29.9-.19.28-.47.42-.84.42-.26,0-.47-.04-.64-.11s-.32-.16-.44-.28c-.13-.11-.28-.22-.46-.31-.16-.1-.4-.17-.73-.23-.33-.06-.57-.08-.73-.08-.82,0-1.51.18-2.08.53-.57.35-1,.83-1.31,1.43-.3.6-.46,1.29-.46,2.08s.16,1.45.47,2.05c.31.6.74,1.08,1.3,1.43.55.35,1.19.53,1.91.53.4,0,.74-.02,1.03-.07s.53-.12.72-.22c.22-.13.42-.26.6-.41.18-.14.44-.22.79-.22.42,0,.74.13.96.4.22.26.34.59.34.97s-.22.76-.67,1.09c-.45.33-1.04.59-1.76.79-.73.2-1.52.3-2.36.3-1.26,0-2.36-.29-3.29-.88-.93-.58-1.64-1.38-2.15-2.39-.5-1.01-.76-2.14-.76-3.38,0-1.31.27-2.47.8-3.47s1.28-1.78,2.23-2.35c.95-.57,2.04-.85,3.28-.85Z"/>
      <path class="st2" d="M360.64,405c0,1.31-.29,2.47-.88,3.47-.58,1-1.37,1.78-2.35,2.34-.98.56-2.08.84-3.3.84s-2.32-.28-3.3-.84c-.98-.56-1.77-1.34-2.35-2.34-.58-1-.88-2.16-.88-3.47s.29-2.47.88-3.47,1.37-1.78,2.35-2.35c.98-.57,2.08-.85,3.3-.85s2.32.28,3.3.85c.98.57,1.77,1.35,2.35,2.35s.88,2.16.88,3.47ZM357.76,405c0-.82-.16-1.52-.49-2.12-.33-.6-.77-1.07-1.32-1.4-.55-.34-1.16-.5-1.84-.5s-1.28.17-1.84.5c-.55.34-.99.8-1.32,1.4-.33.6-.49,1.31-.49,2.12s.16,1.5.49,2.1c.33.6.77,1.07,1.32,1.4.55.34,1.16.5,1.84.5s1.28-.17,1.84-.5.99-.8,1.32-1.4c.33-.6.49-1.3.49-2.1Z"/>
      <path class="st2" d="M372.69,398.57c.42,0,.76.14,1.03.42.27.28.41.63.41,1.04v6.1c0,1.7-.47,3.04-1.42,4.03-.94.99-2.3,1.49-4.08,1.49s-3.13-.5-4.07-1.49c-.94-.99-1.4-2.34-1.4-4.03v-6.1c0-.42.14-.76.41-1.04s.62-.42,1.03-.42.76.14,1.03.42c.27.28.41.63.41,1.04v6.1c0,.98.22,1.7.65,2.17.43.47,1.08.71,1.94.71s1.54-.24,1.97-.71c.43-.47.65-1.2.65-2.17v-6.1c0-.42.14-.76.41-1.04.27-.28.62-.42,1.03-.42Z"/>
      <path class="st2" d="M380.37,409.94c0,.42-.14.76-.42,1.04s-.63.42-1.04.42-.74-.14-1.01-.42c-.27-.28-.41-.63-.41-1.04v-14.83c0-.42.14-.76.42-1.04s.63-.42,1.04-.42.76.14,1.02.42c.26.28.4.63.4,1.04v14.83Z"/>
      <path class="st2" d="M394,393.65c.42,0,.76.14,1.03.41.27.27.41.62.41,1.06v14.83c0,.42-.14.76-.41,1.04-.27.28-.62.42-1.03.42s-.76-.14-1.03-.42c-.27-.28-.41-.63-.41-1.04v-1.18l.53.22c0,.21-.11.46-.34.76-.22.3-.53.59-.91.88s-.84.53-1.36.73c-.52.2-1.08.3-1.69.3-1.1,0-2.1-.28-3-.85-.9-.57-1.6-1.35-2.12-2.35-.52-1-.78-2.15-.78-3.44s.26-2.47.78-3.47c.52-1,1.22-1.78,2.1-2.35.88-.57,1.86-.85,2.93-.85.69,0,1.32.1,1.9.31s1.08.47,1.5.79.75.64.98.97c.23.33.35.6.35.83l-.86.31v-6.43c0-.42.14-.76.41-1.04.27-.28.62-.42,1.03-.42ZM389.15,409c.7,0,1.32-.18,1.85-.53.53-.35.94-.83,1.24-1.44.3-.61.44-1.29.44-2.04s-.15-1.46-.44-2.06-.71-1.09-1.24-1.44c-.53-.35-1.14-.53-1.85-.53s-1.3.18-1.82.53c-.53.35-.94.83-1.24,1.44s-.44,1.3-.44,2.06.15,1.43.44,2.04c.3.61.71,1.09,1.24,1.44.53.35,1.14.53,1.82.53Z"/>
      <path class="st2" d="M411.93,398.32c1.12,0,2.12.28,3.01.85.89.57,1.59,1.35,2.11,2.34.52.99.78,2.14.78,3.46s-.26,2.47-.78,3.47c-.52,1-1.22,1.78-2.09,2.35-.87.57-1.85.85-2.94.85-.64,0-1.24-.1-1.8-.31-.56-.21-1.05-.47-1.48-.79-.42-.32-.75-.64-.98-.97-.23-.33-.35-.6-.35-.83l.74-.31v1.75c0,.42-.14.76-.41,1.04-.27.28-.62.42-1.03.42s-.76-.14-1.03-.41-.41-.62-.41-1.06v-15.07c0-.42.14-.76.41-1.04s.62-.42,1.03-.42.76.14,1.03.42c.27.28.41.63.41,1.04v6.1l-.41-.22c0-.21.11-.46.34-.76.22-.3.53-.59.91-.89s.83-.54,1.33-.73,1.04-.29,1.6-.29ZM411.57,400.96c-.7,0-1.32.18-1.85.53-.53.35-.94.83-1.24,1.43-.3.6-.44,1.28-.44,2.05s.15,1.44.44,2.05.71,1.1,1.24,1.45,1.14.53,1.85.53,1.32-.18,1.84-.53c.52-.35.93-.84,1.22-1.45.3-.62.44-1.3.44-2.05s-.15-1.45-.44-2.05c-.3-.6-.7-1.08-1.22-1.43-.52-.35-1.13-.53-1.84-.53Z"/>
      <path class="st2" d="M426.4,411.65c-1.36,0-2.54-.28-3.54-.85-1-.57-1.77-1.34-2.3-2.32s-.8-2.08-.8-3.31c0-1.44.29-2.67.88-3.68s1.35-1.8,2.29-2.34,1.94-.82,3-.82c.82,0,1.59.17,2.32.5.73.34,1.37.8,1.93,1.38.56.58,1,1.26,1.33,2.03s.49,1.58.49,2.45c-.02.38-.17.7-.46.94s-.62.36-1.01.36h-9.17l-.72-2.4h8.81l-.53.48v-.65c-.03-.46-.2-.88-.49-1.25-.3-.37-.66-.66-1.1-.88-.44-.22-.91-.32-1.4-.32s-.93.06-1.34.19-.78.34-1.08.65c-.3.3-.54.71-.72,1.22-.18.51-.26,1.16-.26,1.94,0,.86.18,1.6.54,2.2.36.6.82,1.06,1.39,1.37.57.31,1.17.47,1.81.47.59,0,1.06-.05,1.42-.14s.64-.21.85-.35c.22-.14.41-.25.59-.35.29-.14.56-.22.82-.22.35,0,.64.12.88.36.23.24.35.52.35.84,0,.43-.22.82-.67,1.18-.42.35-1,.66-1.75.92-.75.26-1.53.4-2.33.4Z"/>
      <path class="st2" d="M444.35,409.94c0,.42-.14.76-.42,1.04s-.63.42-1.04.42-.74-.14-1.01-.42c-.27-.28-.41-.63-.41-1.04v-14.83c0-.42.14-.76.42-1.04s.63-.42,1.04-.42.76.14,1.02.42c.26.28.4.63.4,1.04v14.83Z"/>
      <path class="st2" d="M453.52,411.65c-1.36,0-2.54-.28-3.54-.85-1-.57-1.77-1.34-2.3-2.32s-.8-2.08-.8-3.31c0-1.44.29-2.67.88-3.68s1.35-1.8,2.29-2.34,1.94-.82,3-.82c.82,0,1.59.17,2.32.5.73.34,1.37.8,1.93,1.38.56.58,1,1.26,1.33,2.03s.49,1.58.49,2.45c-.02.38-.17.7-.46.94s-.62.36-1.01.36h-9.17l-.72-2.4h8.81l-.53.48v-.65c-.03-.46-.2-.88-.49-1.25-.3-.37-.66-.66-1.1-.88-.44-.22-.91-.32-1.4-.32s-.93.06-1.34.19-.78.34-1.08.65c-.3.3-.54.71-.72,1.22-.18.51-.26,1.16-.26,1.94,0,.86.18,1.6.54,2.2.36.6.82,1.06,1.39,1.37.57.31,1.17.47,1.81.47.59,0,1.06-.05,1.42-.14s.64-.21.85-.35c.22-.14.41-.25.59-.35.29-.14.56-.22.82-.22.35,0,.64.12.88.36.23.24.35.52.35.84,0,.43-.22.82-.67,1.18-.42.35-1,.66-1.75.92-.75.26-1.53.4-2.33.4Z"/>
      <path class="st2" d="M472.24,398.32c.42,0,.76.14,1.03.41.27.27.41.62.41,1.06v10.15c0,.42-.14.76-.41,1.04-.27.28-.62.42-1.03.42s-.76-.14-1.03-.42c-.27-.28-.41-.63-.41-1.04v-1.18l.53.22c0,.21-.11.46-.34.76-.22.3-.53.59-.91.88s-.84.53-1.36.73c-.52.2-1.08.3-1.69.3-1.1,0-2.1-.28-3-.85-.9-.57-1.6-1.35-2.12-2.35-.52-1-.78-2.15-.78-3.44s.26-2.47.78-3.47c.52-1,1.22-1.78,2.1-2.35.88-.57,1.86-.85,2.93-.85.69,0,1.32.1,1.9.31s1.08.47,1.5.79.75.64.98.97c.23.33.35.6.35.83l-.86.31v-1.75c0-.42.14-.76.41-1.04.27-.28.62-.42,1.03-.42ZM467.39,409c.7,0,1.32-.18,1.85-.53.53-.35.94-.83,1.24-1.44.3-.61.44-1.29.44-2.04s-.15-1.46-.44-2.06-.71-1.09-1.24-1.44c-.53-.35-1.14-.53-1.85-.53s-1.3.18-1.82.53c-.53.35-.94.83-1.24,1.44s-.44,1.3-.44,2.06.15,1.43.44,2.04c.3.61.71,1.09,1.24,1.44.53.35,1.14.53,1.82.53Z"/>
      <path class="st2" d="M478.24,411.4c-.42,0-.76-.14-1.03-.42s-.41-.63-.41-1.04v-9.91c0-.42.14-.76.41-1.04s.62-.42,1.03-.42.76.14,1.03.42c.27.28.41.63.41,1.04v2.26l-.17-1.61c.18-.38.4-.72.68-1.02.28-.3.6-.54.95-.74.35-.2.73-.35,1.13-.44.4-.1.8-.14,1.2-.14.48,0,.88.14,1.21.41.33.27.49.59.49.96,0,.53-.14.91-.41,1.14-.27.23-.57.35-.89.35-.3,0-.58-.06-.83-.17-.25-.11-.53-.17-.85-.17-.29,0-.58.07-.88.2-.3.14-.57.35-.82.64s-.45.64-.6,1.07c-.15.42-.23.92-.23,1.5v5.69c0,.42-.14.76-.41,1.04-.27.28-.62.42-1.03.42Z"/>
      <path class="st2" d="M494.08,398.32c1.18,0,2.08.25,2.7.74s1.04,1.16,1.27,1.98c.23.82.35,1.74.35,2.75v6.14c0,.42-.14.76-.41,1.04-.27.28-.62.42-1.03.42s-.76-.14-1.03-.42c-.27-.28-.41-.63-.41-1.04v-6.14c0-.53-.07-1-.2-1.43-.14-.42-.38-.76-.73-1.02s-.86-.38-1.51-.38-1.18.13-1.62.38-.78.6-1.01,1.02c-.23.42-.35.9-.35,1.43v6.14c0,.42-.14.76-.41,1.04-.27.28-.62.42-1.03.42s-.76-.14-1.03-.42-.41-.63-.41-1.04v-9.91c0-.42.14-.76.41-1.04s.62-.42,1.03-.42.76.14,1.03.42c.27.28.41.63.41,1.04v1.03l-.36-.07c.14-.27.35-.56.62-.88.27-.31.59-.6.96-.88.37-.27.78-.49,1.25-.66.46-.17.97-.25,1.51-.25Z"/>
      <path class="st2" d="M507.57,411.65c-1.36,0-2.54-.28-3.54-.85-1-.57-1.77-1.34-2.3-2.32s-.8-2.08-.8-3.31c0-1.44.29-2.67.88-3.68s1.35-1.8,2.29-2.34,1.94-.82,3-.82c.82,0,1.59.17,2.32.5.73.34,1.37.8,1.93,1.38.56.58,1,1.26,1.33,2.03s.49,1.58.49,2.45c-.02.38-.17.7-.46.94s-.62.36-1.01.36h-9.17l-.72-2.4h8.81l-.53.48v-.65c-.03-.46-.2-.88-.49-1.25-.3-.37-.66-.66-1.1-.88-.44-.22-.91-.32-1.4-.32s-.93.06-1.34.19-.78.34-1.08.65c-.3.3-.54.71-.72,1.22-.18.51-.26,1.16-.26,1.94,0,.86.18,1.6.54,2.2.36.6.82,1.06,1.39,1.37.57.31,1.17.47,1.81.47.59,0,1.06-.05,1.42-.14s.64-.21.85-.35c.22-.14.41-.25.59-.35.29-.14.56-.22.82-.22.35,0,.64.12.88.36.23.24.35.52.35.84,0,.43-.22.82-.67,1.18-.42.35-1,.66-1.75.92-.75.26-1.53.4-2.33.4Z"/>
      <path class="st2" d="M526.19,393.65c.42,0,.76.14,1.03.41.27.27.41.62.41,1.06v14.83c0,.42-.14.76-.41,1.04-.27.28-.62.42-1.03.42s-.76-.14-1.03-.42c-.27-.28-.41-.63-.41-1.04v-1.18l.53.22c0,.21-.11.46-.34.76-.22.3-.53.59-.91.88s-.84.53-1.36.73c-.52.2-1.08.3-1.69.3-1.1,0-2.1-.28-3-.85-.9-.57-1.6-1.35-2.12-2.35-.52-1-.78-2.15-.78-3.44s.26-2.47.78-3.47c.52-1,1.22-1.78,2.1-2.35.88-.57,1.86-.85,2.93-.85.69,0,1.32.1,1.9.31s1.08.47,1.5.79.75.64.98.97c.23.33.35.6.35.83l-.86.31v-6.43c0-.42.14-.76.41-1.04.27-.28.62-.42,1.03-.42ZM521.34,409c.7,0,1.32-.18,1.85-.53.53-.35.94-.83,1.24-1.44.3-.61.44-1.29.44-2.04s-.15-1.46-.44-2.06-.71-1.09-1.24-1.44c-.53-.35-1.14-.53-1.85-.53s-1.3.18-1.82.53c-.53.35-.94.83-1.24,1.44s-.44,1.3-.44,2.06.15,1.43.44,2.04c.3.61.71,1.09,1.24,1.44.53.35,1.14.53,1.82.53Z"/>
    </g>
    <g>
      <g>
        <path class="st1" d="M324.15,237.63c-.35-.43-.75-.63-1.2-.61l-.5.02c-2.63.11-4.7-.65-6.21-2.27-1.51-1.62-2.6-3.74-3.27-6.35s-1.05-5.34-1.14-8.2l-.28-8.67c-.12-3.66-.61-6.88-1.48-9.67-.87-2.78-2.49-5.13-4.85-7.05-6.2-5.05-13.48-3.87-20.44-3.77-15.64.22-31.27,1.28-46.9,1.93-11.43.48-22.85.95-34.28,1.43-12.41.52-24.82,1.04-37.23,1.55-12.38.52-24.75,1.03-37.13,1.55l-33.96,1.42c-9.25.39-18.5.77-27.74,1.16-2.95.12-5.92.12-8.87.37-9.99.84-21.12-1.54-29.28,7.52-1.41,1.56-2.49,3.59-3.25,6.07-.76,2.49-1.08,5.63-.96,9.44l.28,8.67c.09,2.85-.09,5.61-.54,8.27-.45,2.66-1.37,4.86-2.77,6.6-1.4,1.74-3.47,2.67-6.21,2.79l-.5.02c-.45.02-.83.22-1.16.6-.32.38-.48.86-.46,1.45.02.59.2,1.09.55,1.52s.75.63,1.2.61l.5-.02c2.63-.11,4.7.65,6.21,2.27,1.51,1.62,2.6,3.74,3.27,6.35.67,2.61,1.05,5.34,1.14,8.2l.28,8.67c.12,3.66.61,6.88,1.48,9.67.87,2.78,2.5,5.12,4.89,7,7.9,6.23,16.65,3.89,25.26,3.54,3.41-.14,6.85-.18,10.27-.33,8.91-.37,17.82-.74,26.72-1.11,11.02-.46,22.04-.92,33.06-1.38,12.15-.51,24.3-1.01,36.45-1.52,12.3-.51,24.6-1.03,36.91-1.54,11.47-.48,22.95-.96,34.42-1.44,9.66-.4,19.33-.81,28.99-1.21,7.2-.3,14.41-.48,21.61-.8,3.59-.16,7.59.23,11.11-.63,2.51-.61,5.22-3.58,7.42-5.32,2.02-1.59,3.61-3.16,4.76-4.71,1.15-1.55,1.97-3.29,2.44-5.21.47-1.93.66-4.24.58-6.95l-.28-8.67c-.09-2.85.09-5.61.54-8.27.45-2.66,1.37-4.86,2.77-6.6,1.4-1.74,3.47-2.67,6.21-2.79l.5-.02c.45-.02.83-.24,1.16-.65.32-.42.48-.88.46-1.39-.02-.58-.2-1.09-.55-1.52Z"/>
        <g>
          <path class="st2" d="M73.31,233.38c.42,0,.76.13,1.04.4.28.26.42.6.42,1.02s-.14.73-.42,1c-.28.26-.63.4-1.04.4h-7.8c-.42,0-.76-.14-1.04-.42s-.42-.63-.42-1.04v-13.87c0-.42.14-.76.43-1.04.29-.28.66-.42,1.1-.42.38,0,.72.14,1.02.42.3.28.44.63.44,1.04v12.94l-.53-.41h6.79Z"/>
          <path class="st2" d="M83.34,236.42c-1.36,0-2.54-.28-3.54-.85-1-.57-1.77-1.34-2.3-2.32s-.8-2.08-.8-3.31c0-1.44.29-2.67.88-3.68s1.35-1.8,2.29-2.34,1.94-.82,3-.82c.82,0,1.59.17,2.32.5.73.34,1.37.8,1.93,1.38.56.58,1,1.26,1.33,2.03s.49,1.58.49,2.45c-.02.38-.17.7-.46.94s-.62.36-1.01.36h-9.17l-.72-2.4h8.81l-.53.48v-.65c-.03-.46-.2-.88-.49-1.25-.3-.37-.66-.66-1.1-.88-.44-.22-.91-.32-1.4-.32s-.93.06-1.34.19-.78.34-1.08.65c-.3.3-.54.71-.72,1.22-.18.51-.26,1.16-.26,1.94,0,.86.18,1.6.54,2.2.36.6.82,1.06,1.39,1.37.57.31,1.17.47,1.81.47.59,0,1.06-.05,1.42-.14s.64-.21.85-.35c.22-.14.41-.25.59-.35.29-.14.56-.22.82-.22.35,0,.64.12.88.36.23.24.35.52.35.84,0,.43-.22.82-.67,1.18-.42.35-1,.66-1.75.92-.75.26-1.53.4-2.33.4Z"/>
          <path class="st2" d="M102.06,223.1c.42,0,.76.14,1.03.41.27.27.41.62.41,1.06v10.15c0,.42-.14.76-.41,1.04-.27.28-.62.42-1.03.42s-.76-.14-1.03-.42c-.27-.28-.41-.63-.41-1.04v-1.18l.53.22c0,.21-.11.46-.34.76-.22.3-.53.59-.91.88s-.84.53-1.36.73c-.52.2-1.08.3-1.69.3-1.1,0-2.1-.28-3-.85-.9-.57-1.6-1.35-2.12-2.35-.52-1-.78-2.15-.78-3.44s.26-2.47.78-3.47c.52-1,1.22-1.78,2.1-2.35.88-.57,1.86-.85,2.93-.85.69,0,1.32.1,1.9.31s1.08.47,1.5.79.75.64.98.97c.23.33.35.6.35.83l-.86.31v-1.75c0-.42.14-.76.41-1.04.27-.28.62-.42,1.03-.42ZM97.22,233.78c.7,0,1.32-.18,1.85-.53.53-.35.94-.83,1.24-1.44.3-.61.44-1.29.44-2.04s-.15-1.46-.44-2.06-.71-1.09-1.24-1.44c-.53-.35-1.14-.53-1.85-.53s-1.3.18-1.82.53c-.53.35-.94.83-1.24,1.44s-.44,1.3-.44,2.06.15,1.43.44,2.04c.3.61.71,1.09,1.24,1.44.53.35,1.14.53,1.82.53Z"/>
          <path class="st2" d="M108.06,236.18c-.42,0-.76-.14-1.03-.42s-.41-.63-.41-1.04v-9.91c0-.42.14-.76.41-1.04s.62-.42,1.03-.42.76.14,1.03.42c.27.28.41.63.41,1.04v2.26l-.17-1.61c.18-.38.4-.72.68-1.02.28-.3.6-.54.95-.74.35-.2.73-.35,1.13-.44.4-.1.8-.14,1.2-.14.48,0,.88.14,1.21.41.33.27.49.59.49.96,0,.53-.14.91-.41,1.14-.27.23-.57.35-.89.35-.3,0-.58-.06-.83-.17-.25-.11-.53-.17-.85-.17-.29,0-.58.07-.88.2-.3.14-.57.35-.82.64s-.45.64-.6,1.07c-.15.42-.23.92-.23,1.5v5.69c0,.42-.14.76-.41,1.04-.27.28-.62.42-1.03.42Z"/>
          <path class="st2" d="M123.9,223.1c1.18,0,2.08.25,2.7.74s1.04,1.16,1.27,1.98c.23.82.35,1.74.35,2.75v6.14c0,.42-.14.76-.41,1.04-.27.28-.62.42-1.03.42s-.76-.14-1.03-.42c-.27-.28-.41-.63-.41-1.04v-6.14c0-.53-.07-1-.2-1.43-.14-.42-.38-.76-.73-1.02s-.86-.38-1.51-.38-1.18.13-1.62.38-.78.6-1.01,1.02c-.23.42-.35.9-.35,1.43v6.14c0,.42-.14.76-.41,1.04-.27.28-.62.42-1.03.42s-.76-.14-1.03-.42-.41-.63-.41-1.04v-9.91c0-.42.14-.76.41-1.04s.62-.42,1.03-.42.76.14,1.03.42c.27.28.41.63.41,1.04v1.03l-.36-.07c.14-.27.35-.56.62-.88.27-.31.59-.6.96-.88.37-.27.78-.49,1.25-.66.46-.17.97-.25,1.51-.25Z"/>
          <path class="st2" d="M132.59,221.78c-.54,0-.93-.09-1.15-.26-.22-.18-.34-.49-.34-.94v-.46c0-.46.12-.78.37-.95.25-.17.63-.25,1.14-.25.56,0,.95.09,1.18.26.22.18.34.49.34.94v.46c0,.46-.12.78-.36.95-.24.17-.63.25-1.18.25ZM134.06,234.72c0,.42-.14.76-.41,1.04-.27.28-.62.42-1.03.42s-.76-.14-1.03-.42-.41-.63-.41-1.04v-9.91c0-.42.14-.76.41-1.04s.62-.42,1.03-.42.76.14,1.03.42c.27.28.41.63.41,1.04v9.91Z"/>
          <path class="st2" d="M143.87,223.1c1.18,0,2.08.25,2.7.74s1.04,1.16,1.27,1.98c.23.82.35,1.74.35,2.75v6.14c0,.42-.14.76-.41,1.04-.27.28-.62.42-1.03.42s-.76-.14-1.03-.42c-.27-.28-.41-.63-.41-1.04v-6.14c0-.53-.07-1-.2-1.43-.14-.42-.38-.76-.73-1.02s-.86-.38-1.51-.38-1.18.13-1.62.38-.78.6-1.01,1.02c-.23.42-.35.9-.35,1.43v6.14c0,.42-.14.76-.41,1.04-.27.28-.62.42-1.03.42s-.76-.14-1.03-.42-.41-.63-.41-1.04v-9.91c0-.42.14-.76.41-1.04s.62-.42,1.03-.42.76.14,1.03.42c.27.28.41.63.41,1.04v1.03l-.36-.07c.14-.27.35-.56.62-.88.27-.31.59-.6.96-.88.37-.27.78-.49,1.25-.66.46-.17.97-.25,1.51-.25Z"/>
          <path class="st2" d="M156.64,223.1c.67,0,1.29.1,1.85.31.56.21,1.04.47,1.45.79.41.32.73.64.96.97.23.33.35.6.35.83l-.62.31v-1.75c0-.42.14-.76.41-1.04.27-.28.62-.42,1.03-.42s.76.14,1.03.41.41.62.41,1.06v10.68c0,1.39-.3,2.51-.9,3.35-.6.84-1.39,1.45-2.36,1.82-.98.38-2.02.56-3.14.56-.32,0-.74-.04-1.25-.12s-1-.18-1.46-.29c-.46-.11-.82-.22-1.06-.31-.48-.21-.81-.47-1-.78-.18-.31-.22-.64-.11-1,.14-.46.38-.78.7-.95s.66-.19,1.01-.06c.16.05.42.14.79.29s.77.28,1.21.4c.44.12.83.18,1.16.18,1.2,0,2.09-.24,2.66-.72.58-.48.86-1.14.86-1.99v-2.09l.29.22c0,.21-.11.46-.32.76s-.51.59-.89.88-.82.53-1.33.73c-.51.2-1.06.3-1.63.3-1.14,0-2.16-.28-3.07-.85-.91-.57-1.63-1.35-2.16-2.35s-.79-2.15-.79-3.44.26-2.47.79-3.47,1.24-1.78,2.14-2.35c.9-.57,1.9-.85,3-.85ZM157.09,225.74c-.72,0-1.35.18-1.9.53-.54.35-.97.83-1.27,1.44s-.46,1.3-.46,2.06.15,1.43.46,2.04c.3.61.73,1.09,1.27,1.44s1.18.53,1.9.53,1.38-.18,1.92-.53.97-.83,1.27-1.44c.3-.61.46-1.29.46-2.04s-.15-1.46-.46-2.06c-.3-.61-.73-1.09-1.27-1.44-.54-.35-1.18-.53-1.92-.53Z"/>
          <path class="st2" d="M180.21,223.58c.38,0,.7.12.96.37s.38.56.38.95-.13.7-.38.95-.58.37-.96.37h-6.36c-.38,0-.71-.12-.96-.37s-.38-.56-.38-.95.13-.7.38-.95.58-.37.96-.37h6.36ZM179.94,218.42c.35,0,.7.05,1.03.14.34.1.62.25.84.47.22.22.34.5.34.85,0,.4-.12.72-.35.95s-.5.35-.8.35c-.14,0-.36-.04-.65-.11-.29-.07-.57-.11-.84-.11-.4,0-.71.09-.92.26-.22.18-.36.38-.44.61-.08.23-.12.44-.12.61v12.26c0,.42-.14.76-.41,1.04-.27.28-.62.42-1.03.42s-.76-.14-1.03-.42c-.27-.28-.41-.63-.41-1.04v-12.24c0-1.14.4-2.1,1.2-2.88.8-.78,2-1.18,3.6-1.18Z"/>
          <path class="st2" d="M195.57,229.78c0,1.31-.29,2.47-.88,3.47-.58,1-1.37,1.78-2.35,2.34-.98.56-2.08.84-3.3.84s-2.32-.28-3.3-.84c-.98-.56-1.77-1.34-2.35-2.34-.58-1-.88-2.16-.88-3.47s.29-2.47.88-3.47,1.37-1.78,2.35-2.35c.98-.57,2.08-.85,3.3-.85s2.32.28,3.3.85c.98.57,1.77,1.35,2.35,2.35s.88,2.16.88,3.47ZM192.69,229.78c0-.82-.16-1.52-.49-2.12-.33-.6-.77-1.07-1.32-1.4-.55-.34-1.16-.5-1.84-.5s-1.28.17-1.84.5c-.55.34-.99.8-1.32,1.4-.33.6-.49,1.31-.49,2.12s.16,1.5.49,2.1c.33.6.77,1.07,1.32,1.4.55.34,1.16.5,1.84.5s1.28-.17,1.84-.5.99-.8,1.32-1.4c.33-.6.49-1.3.49-2.1Z"/>
          <path class="st2" d="M199.53,236.18c-.42,0-.76-.14-1.03-.42s-.41-.63-.41-1.04v-9.91c0-.42.14-.76.41-1.04s.62-.42,1.03-.42.76.14,1.03.42c.27.28.41.63.41,1.04v2.26l-.17-1.61c.18-.38.4-.72.68-1.02.28-.3.6-.54.95-.74.35-.2.73-.35,1.13-.44.4-.1.8-.14,1.2-.14.48,0,.88.14,1.21.41.33.27.49.59.49.96,0,.53-.14.91-.41,1.14-.27.23-.57.35-.89.35-.3,0-.58-.06-.83-.17-.25-.11-.53-.17-.85-.17-.29,0-.58.07-.88.2-.3.14-.57.35-.82.64s-.45.64-.6,1.07c-.15.42-.23.92-.23,1.5v5.69c0,.42-.14.76-.41,1.04-.27.28-.62.42-1.03.42Z"/>
          <path class="st2" d="M215.25,223.1c1.28,0,2.22.31,2.83.92.61.62,1.01,1.41,1.2,2.39l-.41-.22.19-.38c.19-.37.49-.76.89-1.19s.88-.78,1.45-1.08c.57-.3,1.2-.44,1.91-.44,1.15,0,2.03.25,2.63.74s1.01,1.16,1.24,1.98c.22.82.34,1.74.34,2.75v6.14c0,.42-.14.76-.41,1.04-.27.28-.62.42-1.03.42s-.76-.14-1.03-.42c-.27-.28-.41-.63-.41-1.04v-6.14c0-.53-.06-1-.19-1.43s-.36-.76-.7-1.02-.82-.38-1.44-.38-1.13.13-1.56.38c-.43.26-.76.6-.97,1.02s-.32.9-.32,1.43v6.14c0,.42-.14.76-.41,1.04-.27.28-.62.42-1.03.42s-.76-.14-1.03-.42c-.27-.28-.41-.63-.41-1.04v-6.14c0-.53-.06-1-.19-1.43s-.36-.76-.7-1.02-.82-.38-1.44-.38-1.13.13-1.56.38c-.43.26-.76.6-.97,1.02-.22.42-.32.9-.32,1.43v6.14c0,.42-.14.76-.41,1.04-.27.28-.62.42-1.03.42s-.76-.14-1.03-.42-.41-.63-.41-1.04v-9.91c0-.42.14-.76.41-1.04s.62-.42,1.03-.42.76.14,1.03.42c.27.28.41.63.41,1.04v1.03l-.36-.07c.14-.27.34-.56.6-.88s.57-.6.94-.88c.37-.27.78-.49,1.22-.66s.94-.25,1.46-.25Z"/>
          <path class="st2" d="M240.16,223.34c.42,0,.76.14,1.03.42.27.28.41.63.41,1.04v6.1c0,1.7-.47,3.04-1.42,4.03-.94.99-2.3,1.49-4.08,1.49s-3.13-.5-4.07-1.49c-.94-.99-1.4-2.34-1.4-4.03v-6.1c0-.42.14-.76.41-1.04s.62-.42,1.03-.42.76.14,1.03.42c.27.28.41.63.41,1.04v6.1c0,.98.22,1.7.65,2.17.43.47,1.08.71,1.94.71s1.54-.24,1.97-.71c.43-.47.65-1.2.65-2.17v-6.1c0-.42.14-.76.41-1.04.27-.28.62-.42,1.03-.42Z"/>
          <path class="st2" d="M247.84,234.72c0,.42-.14.76-.42,1.04s-.63.42-1.04.42-.74-.14-1.01-.42c-.27-.28-.41-.63-.41-1.04v-14.83c0-.42.14-.76.42-1.04s.63-.42,1.04-.42.76.14,1.02.42c.26.28.4.63.4,1.04v14.83Z"/>
          <path class="st2" d="M261.71,223.1c.42,0,.76.14,1.03.41.27.27.41.62.41,1.06v10.15c0,.42-.14.76-.41,1.04-.27.28-.62.42-1.03.42s-.76-.14-1.03-.42c-.27-.28-.41-.63-.41-1.04v-1.18l.53.22c0,.21-.11.46-.34.76-.22.3-.53.59-.91.88s-.84.53-1.36.73c-.52.2-1.08.3-1.69.3-1.1,0-2.1-.28-3-.85-.9-.57-1.6-1.35-2.12-2.35-.52-1-.78-2.15-.78-3.44s.26-2.47.78-3.47c.52-1,1.22-1.78,2.1-2.35.88-.57,1.86-.85,2.93-.85.69,0,1.32.1,1.9.31s1.08.47,1.5.79.75.64.98.97c.23.33.35.6.35.83l-.86.31v-1.75c0-.42.14-.76.41-1.04.27-.28.62-.42,1.03-.42ZM256.86,233.78c.7,0,1.32-.18,1.85-.53.53-.35.94-.83,1.24-1.44.3-.61.44-1.29.44-2.04s-.15-1.46-.44-2.06-.71-1.09-1.24-1.44c-.53-.35-1.14-.53-1.85-.53s-1.3.18-1.82.53c-.53.35-.94.83-1.24,1.44s-.44,1.3-.44,2.06.15,1.43.44,2.04c.3.61.71,1.09,1.24,1.44.53.35,1.14.53,1.82.53Z"/>
          <path class="st2" d="M265.53,234.19c-.16-.22-.23-.51-.22-.86.02-.35.22-.66.62-.91.26-.16.53-.23.82-.2.29.02.57.17.84.44.46.46.95.82,1.46,1.08.51.26,1.15.38,1.92.38.24-.02.5-.05.79-.11s.54-.18.76-.38c.22-.2.32-.51.32-.92,0-.35-.12-.63-.36-.84-.24-.21-.56-.38-.95-.53-.39-.14-.83-.28-1.31-.41-.5-.14-1-.3-1.52-.48-.52-.18-1-.4-1.43-.68-.43-.28-.78-.65-1.06-1.12-.27-.46-.41-1.05-.41-1.75,0-.8.22-1.48.67-2.04.45-.56,1.03-.99,1.74-1.3s1.46-.46,2.24-.46c.5,0,1.02.06,1.56.18.54.12,1.06.31,1.56.58.5.26.91.61,1.25,1.04.18.24.28.53.31.86.03.34-.12.64-.46.91-.24.19-.52.28-.84.25-.32-.02-.58-.13-.79-.32-.27-.35-.64-.63-1.09-.84s-.98-.31-1.57-.31c-.24,0-.5.03-.78.08-.28.06-.52.18-.73.36-.21.18-.31.48-.31.88,0,.37.12.66.36.88.24.22.56.39.97.53.41.14.84.27,1.31.4.48.13.97.28,1.46.46.5.18.95.41,1.37.7s.75.66,1.01,1.12.38,1.04.38,1.74c0,.82-.24,1.51-.72,2.09-.48.58-1.08,1.01-1.8,1.31s-1.46.44-2.21.44c-.94,0-1.89-.16-2.83-.49s-1.73-.91-2.35-1.74Z"/>
          <path class="st2" d="M74.32,257.1c.42,0,.76.14,1.03.41.27.27.41.62.41,1.06v10.15c0,.42-.14.76-.41,1.04-.27.28-.62.42-1.03.42s-.76-.14-1.03-.42c-.27-.28-.41-.63-.41-1.04v-1.18l.53.22c0,.21-.11.46-.34.76-.22.3-.53.59-.91.88s-.84.53-1.36.73c-.52.2-1.08.3-1.69.3-1.1,0-2.1-.28-3-.85-.9-.57-1.6-1.35-2.12-2.35-.52-1-.78-2.15-.78-3.44s.26-2.47.78-3.47c.52-1,1.22-1.78,2.1-2.35.88-.57,1.86-.85,2.93-.85.69,0,1.32.1,1.9.31s1.08.47,1.5.79.75.64.98.97c.23.33.35.6.35.83l-.86.31v-1.75c0-.42.14-.76.41-1.04.27-.28.62-.42,1.03-.42ZM69.47,267.78c.7,0,1.32-.18,1.85-.53.53-.35.94-.83,1.24-1.44.3-.61.44-1.29.44-2.04s-.15-1.46-.44-2.06-.71-1.09-1.24-1.44c-.53-.35-1.14-.53-1.85-.53s-1.3.18-1.82.53c-.53.35-.94.83-1.24,1.44s-.44,1.3-.44,2.06.15,1.43.44,2.04c.3.61.71,1.09,1.24,1.44.53.35,1.14.53,1.82.53Z"/>
          <path class="st2" d="M85.74,257.1c1.18,0,2.08.25,2.7.74s1.04,1.16,1.27,1.98c.23.82.35,1.74.35,2.75v6.14c0,.42-.14.76-.41,1.04-.27.28-.62.42-1.03.42s-.76-.14-1.03-.42c-.27-.28-.41-.63-.41-1.04v-6.14c0-.53-.07-1-.2-1.43-.14-.42-.38-.76-.73-1.02s-.86-.38-1.51-.38-1.18.13-1.62.38-.78.6-1.01,1.02c-.23.42-.35.9-.35,1.43v6.14c0,.42-.14.76-.41,1.04-.27.28-.62.42-1.03.42s-.76-.14-1.03-.42-.41-.63-.41-1.04v-9.91c0-.42.14-.76.41-1.04s.62-.42,1.03-.42.76.14,1.03.42c.27.28.41.63.41,1.04v1.03l-.36-.07c.14-.27.35-.56.62-.88.27-.31.59-.6.96-.88.37-.27.78-.49,1.25-.66.46-.17.97-.25,1.51-.25Z"/>
          <path class="st2" d="M103.7,252.42c.42,0,.76.14,1.03.41.27.27.41.62.41,1.06v14.83c0,.42-.14.76-.41,1.04-.27.28-.62.42-1.03.42s-.76-.14-1.03-.42c-.27-.28-.41-.63-.41-1.04v-1.18l.53.22c0,.21-.11.46-.34.76-.22.3-.53.59-.91.88s-.84.53-1.36.73c-.52.2-1.08.3-1.69.3-1.1,0-2.1-.28-3-.85-.9-.57-1.6-1.35-2.12-2.35-.52-1-.78-2.15-.78-3.44s.26-2.47.78-3.47c.52-1,1.22-1.78,2.1-2.35.88-.57,1.86-.85,2.93-.85.69,0,1.32.1,1.9.31s1.08.47,1.5.79.75.64.98.97c.23.33.35.6.35.83l-.86.31v-6.43c0-.42.14-.76.41-1.04.27-.28.62-.42,1.03-.42ZM98.85,267.78c.7,0,1.32-.18,1.85-.53.53-.35.94-.83,1.24-1.44.3-.61.44-1.29.44-2.04s-.15-1.46-.44-2.06-.71-1.09-1.24-1.44c-.53-.35-1.14-.53-1.85-.53s-1.3.18-1.82.53c-.53.35-.94.83-1.24,1.44s-.44,1.3-.44,2.06.15,1.43.44,2.04c.3.61.71,1.09,1.24,1.44.53.35,1.14.53,1.82.53Z"/>
          <path class="st2" d="M121.02,270.42c-1.36,0-2.54-.28-3.54-.85-1-.57-1.77-1.34-2.3-2.32s-.8-2.08-.8-3.31c0-1.44.29-2.67.88-3.68s1.35-1.8,2.29-2.34,1.94-.82,3-.82c.82,0,1.59.17,2.32.5.73.34,1.37.8,1.93,1.38.56.58,1,1.26,1.33,2.03s.49,1.58.49,2.45c-.02.38-.17.7-.46.94s-.62.36-1.01.36h-9.17l-.72-2.4h8.81l-.53.48v-.65c-.03-.46-.2-.88-.49-1.25-.3-.37-.66-.66-1.1-.88-.44-.22-.91-.32-1.4-.32s-.93.06-1.34.19-.78.34-1.08.65c-.3.3-.54.71-.72,1.22-.18.51-.26,1.16-.26,1.94,0,.86.18,1.6.54,2.2.36.6.82,1.06,1.39,1.37.57.31,1.17.47,1.81.47.59,0,1.06-.05,1.42-.14s.64-.21.85-.35c.22-.14.41-.25.59-.35.29-.14.56-.22.82-.22.35,0,.64.12.88.36.23.24.35.52.35.84,0,.43-.22.82-.67,1.18-.42.35-1,.66-1.75.92-.75.26-1.53.4-2.33.4Z"/>
          <path class="st2" d="M139.65,257.34c.42,0,.76.14,1.03.41.27.27.41.62.41,1.06v14.71c0,.42-.14.76-.41,1.04-.27.28-.62.42-1.03.42s-.76-.14-1.03-.42c-.27-.28-.41-.63-.41-1.04v-5.98l.53.22c0,.21-.11.46-.34.76-.22.3-.53.59-.91.88s-.84.53-1.36.73c-.52.2-1.08.3-1.69.3-1.1,0-2.1-.28-3-.85-.9-.57-1.6-1.35-2.12-2.35-.52-1-.78-2.15-.78-3.44s.26-2.47.78-3.47c.52-1,1.22-1.78,2.1-2.35.88-.57,1.86-.85,2.93-.85.69,0,1.32.1,1.9.31s1.08.47,1.5.79.75.64.98.97c.23.33.35.6.35.83l-.86.31v-1.51c0-.42.14-.76.41-1.04.27-.28.62-.42,1.03-.42ZM134.8,267.78c.7,0,1.32-.18,1.85-.53.53-.35.94-.83,1.24-1.44.3-.61.44-1.29.44-2.04s-.15-1.46-.44-2.06-.71-1.09-1.24-1.44c-.53-.35-1.14-.53-1.85-.53s-1.3.18-1.82.53c-.53.35-.94.83-1.24,1.44s-.44,1.3-.44,2.06.15,1.43.44,2.04c.3.61.71,1.09,1.24,1.44.53.35,1.14.53,1.82.53Z"/>
          <path class="st2" d="M153.74,257.34c.42,0,.76.14,1.03.42.27.28.41.63.41,1.04v6.1c0,1.7-.47,3.04-1.42,4.03-.94.99-2.3,1.49-4.08,1.49s-3.13-.5-4.07-1.49c-.94-.99-1.4-2.34-1.4-4.03v-6.1c0-.42.14-.76.41-1.04s.62-.42,1.03-.42.76.14,1.03.42c.27.28.41.63.41,1.04v6.1c0,.98.22,1.7.65,2.17.43.47,1.08.71,1.94.71s1.54-.24,1.97-.71c.43-.47.65-1.2.65-2.17v-6.1c0-.42.14-.76.41-1.04.27-.28.62-.42,1.03-.42Z"/>
          <path class="st2" d="M168.81,257.1c.42,0,.76.14,1.03.41.27.27.41.62.41,1.06v10.15c0,.42-.14.76-.41,1.04-.27.28-.62.42-1.03.42s-.76-.14-1.03-.42c-.27-.28-.41-.63-.41-1.04v-1.18l.53.22c0,.21-.11.46-.34.76-.22.3-.53.59-.91.88s-.84.53-1.36.73c-.52.2-1.08.3-1.69.3-1.1,0-2.1-.28-3-.85-.9-.57-1.6-1.35-2.12-2.35-.52-1-.78-2.15-.78-3.44s.26-2.47.78-3.47c.52-1,1.22-1.78,2.1-2.35.88-.57,1.86-.85,2.93-.85.69,0,1.32.1,1.9.31s1.08.47,1.5.79.75.64.98.97c.23.33.35.6.35.83l-.86.31v-1.75c0-.42.14-.76.41-1.04.27-.28.62-.42,1.03-.42ZM163.96,267.78c.7,0,1.32-.18,1.85-.53.53-.35.94-.83,1.24-1.44.3-.61.44-1.29.44-2.04s-.15-1.46-.44-2.06-.71-1.09-1.24-1.44c-.53-.35-1.14-.53-1.85-.53s-1.3.18-1.82.53c-.53.35-.94.83-1.24,1.44s-.44,1.3-.44,2.06.15,1.43.44,2.04c.3.61.71,1.09,1.24,1.44.53.35,1.14.53,1.82.53Z"/>
          <path class="st2" d="M173.51,257.58h5.69c.38,0,.7.13.96.38s.38.58.38.96-.13.68-.38.92-.58.37-.96.37h-5.69c-.38,0-.7-.13-.96-.38s-.38-.58-.38-.96.13-.68.38-.92.58-.37.96-.37ZM176.08,254.58c.42,0,.76.14,1.02.42s.4.63.4,1.04v10.68c0,.22.04.41.13.55.09.14.21.25.36.31s.32.1.49.1c.19,0,.37-.04.53-.11.16-.07.34-.11.55-.11.22,0,.43.1.61.31.18.21.28.5.28.86,0,.45-.24.82-.73,1.1-.49.29-1.01.43-1.57.43-.34,0-.71-.03-1.12-.08-.41-.06-.79-.19-1.15-.41-.36-.22-.66-.55-.9-1-.24-.45-.36-1.06-.36-1.85v-10.8c0-.42.14-.76.42-1.04.28-.28.63-.42,1.04-.42Z"/>
          <path class="st2" d="M184.43,255.78c-.54,0-.93-.09-1.15-.26-.22-.18-.34-.49-.34-.94v-.46c0-.46.12-.78.37-.95.25-.17.63-.25,1.14-.25.56,0,.95.09,1.18.26.22.18.34.49.34.94v.46c0,.46-.12.78-.36.95-.24.17-.63.25-1.18.25ZM185.89,268.72c0,.42-.14.76-.41,1.04-.27.28-.62.42-1.03.42s-.76-.14-1.03-.42-.41-.63-.41-1.04v-9.91c0-.42.14-.76.41-1.04s.62-.42,1.03-.42.76.14,1.03.42c.27.28.41.63.41,1.04v9.91Z"/>
          <path class="st2" d="M201.3,263.78c0,1.31-.29,2.47-.88,3.47-.58,1-1.37,1.78-2.35,2.34-.98.56-2.08.84-3.3.84s-2.32-.28-3.3-.84c-.98-.56-1.77-1.34-2.35-2.34-.58-1-.88-2.16-.88-3.47s.29-2.47.88-3.47,1.37-1.78,2.35-2.35c.98-.57,2.08-.85,3.3-.85s2.32.28,3.3.85c.98.57,1.77,1.35,2.35,2.35s.88,2.16.88,3.47ZM198.42,263.78c0-.82-.16-1.52-.49-2.12-.33-.6-.77-1.07-1.32-1.4-.55-.34-1.16-.5-1.84-.5s-1.28.17-1.84.5c-.55.34-.99.8-1.32,1.4-.33.6-.49,1.31-.49,2.12s.16,1.5.49,2.1c.33.6.77,1.07,1.32,1.4.55.34,1.16.5,1.84.5s1.28-.17,1.84-.5.99-.8,1.32-1.4c.33-.6.49-1.3.49-2.1Z"/>
          <path class="st2" d="M210.69,257.1c1.18,0,2.08.25,2.7.74s1.04,1.16,1.27,1.98c.23.82.35,1.74.35,2.75v6.14c0,.42-.14.76-.41,1.04-.27.28-.62.42-1.03.42s-.76-.14-1.03-.42c-.27-.28-.41-.63-.41-1.04v-6.14c0-.53-.07-1-.2-1.43-.14-.42-.38-.76-.73-1.02s-.86-.38-1.51-.38-1.18.13-1.62.38-.78.6-1.01,1.02c-.23.42-.35.9-.35,1.43v6.14c0,.42-.14.76-.41,1.04-.27.28-.62.42-1.03.42s-.76-.14-1.03-.42-.41-.63-.41-1.04v-9.91c0-.42.14-.76.41-1.04s.62-.42,1.03-.42.76.14,1.03.42c.27.28.41.63.41,1.04v1.03l-.36-.07c.14-.27.35-.56.62-.88.27-.31.59-.6.96-.88.37-.27.78-.49,1.25-.66.46-.17.97-.25,1.51-.25Z"/>
          <path class="st2" d="M217.38,268.19c-.16-.22-.23-.51-.22-.86.02-.35.22-.66.62-.91.26-.16.53-.23.82-.2.29.02.57.17.84.44.46.46.95.82,1.46,1.08.51.26,1.15.38,1.92.38.24-.02.5-.05.79-.11s.54-.18.76-.38c.22-.2.32-.51.32-.92,0-.35-.12-.63-.36-.84-.24-.21-.56-.38-.95-.53-.39-.14-.83-.28-1.31-.41-.5-.14-1-.3-1.52-.48-.52-.18-1-.4-1.43-.68-.43-.28-.78-.65-1.06-1.12-.27-.46-.41-1.05-.41-1.75,0-.8.22-1.48.67-2.04.45-.56,1.03-.99,1.74-1.3s1.46-.46,2.24-.46c.5,0,1.02.06,1.56.18.54.12,1.06.31,1.56.58.5.26.91.61,1.25,1.04.18.24.28.53.31.86.03.34-.12.64-.46.91-.24.19-.52.28-.84.25-.32-.02-.58-.13-.79-.32-.27-.35-.64-.63-1.09-.84s-.98-.31-1.57-.31c-.24,0-.5.03-.78.08-.28.06-.52.18-.73.36-.21.18-.31.48-.31.88,0,.37.12.66.36.88.24.22.56.39.97.53.41.14.84.27,1.31.4.48.13.97.28,1.46.46.5.18.95.41,1.37.7s.75.66,1.01,1.12.38,1.04.38,1.74c0,.82-.24,1.51-.72,2.09-.48.58-1.08,1.01-1.8,1.31s-1.46.44-2.21.44c-.94,0-1.89-.16-2.83-.49s-1.73-.91-2.35-1.74Z"/>
        </g>
        <rect class="st1" x="166.62" y="280.85" width="11.22" height="105.24" rx="5.61" ry="5.61" transform="translate(-12.03 6.49) rotate(-2.09)"/>
        <line class="st0" x1="42.8" y1="246.52" x2="295.79" y2="246.52"/>
      </g>
      <g>
        <g>
          <path class="st3" d="M717.61,327.53c-.88,18.67-16.57,22.13-24.87,23.65-15.56,2.86-31.26,5.41-46.94,6.79-20.73,1.82-41.57,1.56-62.39-.75-7.43-.83-55.68-.21-51.5-23.67,4.11-23.11,37.7-22.1,49.19-24.45,12-2.45,138.32-21.04,136.51,18.39,0,.01,0,.02,0,.04Z"/>
          <path class="st3" d="M510.77,152.78c2.14,18.36,17.18,20.67,25.11,21.59,14.87,1.72,29.85,3.14,44.74,3.39,19.67.33,39.3-1.38,58.77-5.14,6.95-1.34,52.48-4.12,46.89-26.98-5.5-22.51-37.1-19.15-48.1-20.66-11.49-1.57-131.88-11.03-127.41,27.76,0,.01,0,.02,0,.04Z"/>
          <path class="st3" d="M698.42,143.03c-.13,9.93,2.08,19.78,7.43,26.72,3.65,4.73,8.31,6.94,12.88,8.58,20.4,7.35,41.9,5.62,61.34-4.94,4.26-2.31,8.55-5.18,11.62-10.32,7.51-12.62,4.5-35.01-3.71-47.39-18.53-27.91-59.71-27.02-79.06-5.37-6.26,7-10.32,19.92-10.49,32.71Z"/>
          <path class="st3" d="M460.49,224.22c2.4,22.2,18.67,25.06,27.26,26.2,16.09,2.15,32.29,3.93,48.39,4.31,21.28.49,42.5-1.49,63.53-5.93,7.51-1.59,56.73-4.74,50.58-32.39-6.06-27.23-40.2-23.32-52.11-25.19-12.43-1.95-142.67-13.94-137.65,32.95,0,.01,0,.03,0,.05Z"/>
          <path class="st3" d="M624.88,266.2c1.95,18.37,15.11,20.75,22.04,21.7,13,1.79,26.1,3.28,39.1,3.6,17.19.42,34.34-1.2,51.33-4.86,6.07-1.31,45.83-3.88,40.85-26.77-4.91-22.54-32.5-19.32-42.12-20.88-10.04-1.62-115.29-11.63-111.2,27.17,0,.01,0,.02,0,.04Z"/>
          <path class="st3" d="M683.31,145.65c4.64-.17,9.28-.34,13.93-.51,1.54-.06,1.55-2.46,0-2.4-4.64.17-9.28.34-13.93.51-1.54.06-1.55,2.46,0,2.4h0Z"/>
          <path class="st3" d="M744.49,182.8c-.45,8.11-2.21,16.81-9.01,22.04-3.55,2.73-7.98,3.89-12.27,4.87-2.89.66-5.81,1.16-8.73,1.6-15.16,2.27-30.58,3.11-45.89,3.61-7.23.23-14.48.37-21.72.17-1.54-.04-1.54,2.36,0,2.4,14.61.42,29.31-.26,43.88-1.31,7.71-.56,15.43-1.27,23.08-2.36,3.11-.44,6.22-.95,9.29-1.62,4.21-.92,8.59-2.02,12.26-4.36,8.57-5.48,10.98-15.48,11.51-25.02.09-1.54-2.31-1.54-2.4,0h0Z"/>
          <path class="st3" d="M537.82,252.37c-3.7,4.96-.45,11.3,3.77,14.72,4.93,4,11.44,4.86,17.54,5.61,14.63,1.82,29.41,1.92,44.12,1.39,8.35-.3,16.7-.79,25.05-1.27,1.54-.09,1.55-2.49,0-2.4-13.9.79-27.81,1.63-41.74,1.54-7-.05-14.01-.33-20.98-.97-3.36-.31-6.72-.67-10.05-1.19-2.88-.45-5.82-1.03-8.5-2.21-4.87-2.14-11.25-8.49-7.12-14.02.92-1.24-1.16-2.44-2.07-1.21h0Z"/>
          <path class="st3" d="M745.47,284.75c2.38,4.02,4.71,8.05,6.04,12.56s1.77,9.38.38,13.96c-2.79,9.22-12.4,12.55-21.04,13.75-5.92.82-11.91,1.11-17.81,2.12-1.52.26-.88,2.57.64,2.31,5.61-.96,11.31-1.26,16.95-2.01,4.79-.64,9.53-1.65,13.82-3.97,4.14-2.24,7.48-5.65,9.23-10.05s1.82-9.81.72-14.58c-1.28-5.55-3.98-10.45-6.86-15.31-.79-1.33-2.86-.12-2.07,1.21h0Z"/>
        </g>
        <g>
          <path class="st2" d="M558.35,155.39c.42,0,.76.13,1.04.4.28.26.42.6.42,1.02s-.14.73-.42,1c-.28.26-.63.4-1.04.4h-7.8c-.42,0-.76-.14-1.04-.42s-.42-.63-.42-1.04v-13.87c0-.42.14-.76.43-1.04.29-.28.66-.42,1.1-.42.38,0,.72.14,1.02.42.3.28.44.63.44,1.04v12.94l-.53-.41h6.79Z"/>
          <path class="st2" d="M568.38,158.44c-1.36,0-2.54-.28-3.54-.85-1-.57-1.77-1.34-2.3-2.32s-.8-2.08-.8-3.31c0-1.44.29-2.67.88-3.68s1.35-1.8,2.29-2.34,1.94-.82,3-.82c.82,0,1.59.17,2.32.5.73.34,1.37.8,1.93,1.38.56.58,1,1.26,1.33,2.03s.49,1.58.49,2.45c-.02.38-.17.7-.46.94s-.62.36-1.01.36h-9.17l-.72-2.4h8.81l-.53.48v-.65c-.03-.46-.2-.88-.49-1.25-.3-.37-.66-.66-1.1-.88-.44-.22-.91-.32-1.4-.32s-.93.06-1.34.19-.78.34-1.08.65c-.3.3-.54.71-.72,1.22-.18.51-.26,1.16-.26,1.94,0,.86.18,1.6.54,2.2.36.6.82,1.06,1.39,1.37.57.31,1.17.47,1.81.47.59,0,1.06-.05,1.42-.14s.64-.21.85-.35c.22-.14.41-.25.59-.35.29-.14.56-.22.82-.22.35,0,.64.12.88.36.23.24.35.52.35.84,0,.43-.22.82-.67,1.18-.42.35-1,.66-1.75.92-.75.26-1.53.4-2.33.4Z"/>
          <path class="st2" d="M587.1,145.12c.42,0,.76.14,1.03.41.27.27.41.62.41,1.06v10.15c0,.42-.14.76-.41,1.04-.27.28-.62.42-1.03.42s-.76-.14-1.03-.42c-.27-.28-.41-.63-.41-1.04v-1.18l.53.22c0,.21-.11.46-.34.76-.22.3-.53.59-.91.88s-.84.53-1.36.73c-.52.2-1.08.3-1.69.3-1.1,0-2.1-.28-3-.85-.9-.57-1.6-1.35-2.12-2.35-.52-1-.78-2.15-.78-3.44s.26-2.47.78-3.47c.52-1,1.22-1.78,2.1-2.35.88-.57,1.86-.85,2.93-.85.69,0,1.32.1,1.9.31s1.08.47,1.5.79.75.64.98.97c.23.33.35.6.35.83l-.86.31v-1.75c0-.42.14-.76.41-1.04.27-.28.62-.42,1.03-.42ZM582.25,155.8c.7,0,1.32-.18,1.85-.53.53-.35.94-.83,1.24-1.44.3-.61.44-1.29.44-2.04s-.15-1.46-.44-2.06-.71-1.09-1.24-1.44c-.53-.35-1.14-.53-1.85-.53s-1.3.18-1.82.53c-.53.35-.94.83-1.24,1.44s-.44,1.3-.44,2.06.15,1.43.44,2.04c.3.61.71,1.09,1.24,1.44.53.35,1.14.53,1.82.53Z"/>
          <path class="st2" d="M593.1,158.2c-.42,0-.76-.14-1.03-.42s-.41-.63-.41-1.04v-9.91c0-.42.14-.76.41-1.04s.62-.42,1.03-.42.76.14,1.03.42c.27.28.41.63.41,1.04v2.26l-.17-1.61c.18-.38.4-.72.68-1.02.28-.3.6-.54.95-.74.35-.2.73-.35,1.13-.44.4-.1.8-.14,1.2-.14.48,0,.88.14,1.21.41.33.27.49.59.49.96,0,.53-.14.91-.41,1.14-.27.23-.57.35-.89.35-.3,0-.58-.06-.83-.17-.25-.11-.53-.17-.85-.17-.29,0-.58.07-.88.2-.3.14-.57.35-.82.64s-.45.64-.6,1.07c-.15.42-.23.92-.23,1.5v5.69c0,.42-.14.76-.41,1.04-.27.28-.62.42-1.03.42Z"/>
          <path class="st2" d="M608.94,145.12c1.18,0,2.08.25,2.7.74s1.04,1.16,1.27,1.98c.23.82.35,1.74.35,2.75v6.14c0,.42-.14.76-.41,1.04-.27.28-.62.42-1.03.42s-.76-.14-1.03-.42c-.27-.28-.41-.63-.41-1.04v-6.14c0-.53-.07-1-.2-1.43-.14-.42-.38-.76-.73-1.02s-.86-.38-1.51-.38-1.18.13-1.62.38-.78.6-1.01,1.02c-.23.42-.35.9-.35,1.43v6.14c0,.42-.14.76-.41,1.04-.27.28-.62.42-1.03.42s-.76-.14-1.03-.42-.41-.63-.41-1.04v-9.91c0-.42.14-.76.41-1.04s.62-.42,1.03-.42.76.14,1.03.42c.27.28.41.63.41,1.04v1.03l-.36-.07c.14-.27.35-.56.62-.88.27-.31.59-.6.96-.88.37-.27.78-.49,1.25-.66.46-.17.97-.25,1.51-.25Z"/>
          <path class="st2" d="M617.63,143.8c-.54,0-.93-.09-1.15-.26-.22-.18-.34-.49-.34-.94v-.46c0-.46.12-.78.37-.95.25-.17.63-.25,1.14-.25.56,0,.95.09,1.18.26.22.18.34.49.34.94v.46c0,.46-.12.78-.36.95-.24.17-.63.25-1.18.25ZM619.09,156.73c0,.42-.14.76-.41,1.04-.27.28-.62.42-1.03.42s-.76-.14-1.03-.42-.41-.63-.41-1.04v-9.91c0-.42.14-.76.41-1.04s.62-.42,1.03-.42.76.14,1.03.42c.27.28.41.63.41,1.04v9.91Z"/>
          <path class="st2" d="M628.91,145.12c1.18,0,2.08.25,2.7.74s1.04,1.16,1.27,1.98c.23.82.35,1.74.35,2.75v6.14c0,.42-.14.76-.41,1.04-.27.28-.62.42-1.03.42s-.76-.14-1.03-.42c-.27-.28-.41-.63-.41-1.04v-6.14c0-.53-.07-1-.2-1.43-.14-.42-.38-.76-.73-1.02s-.86-.38-1.51-.38-1.18.13-1.62.38-.78.6-1.01,1.02c-.23.42-.35.9-.35,1.43v6.14c0,.42-.14.76-.41,1.04-.27.28-.62.42-1.03.42s-.76-.14-1.03-.42-.41-.63-.41-1.04v-9.91c0-.42.14-.76.41-1.04s.62-.42,1.03-.42.76.14,1.03.42c.27.28.41.63.41,1.04v1.03l-.36-.07c.14-.27.35-.56.62-.88.27-.31.59-.6.96-.88.37-.27.78-.49,1.25-.66.46-.17.97-.25,1.51-.25Z"/>
          <path class="st2" d="M641.68,145.12c.67,0,1.29.1,1.85.31.56.21,1.04.47,1.45.79.41.32.73.64.96.97.23.33.35.6.35.83l-.62.31v-1.75c0-.42.14-.76.41-1.04.27-.28.62-.42,1.03-.42s.76.14,1.03.41.41.62.41,1.06v10.68c0,1.39-.3,2.51-.9,3.35-.6.84-1.39,1.45-2.36,1.82-.98.38-2.02.56-3.14.56-.32,0-.74-.04-1.25-.12s-1-.18-1.46-.29c-.46-.11-.82-.22-1.06-.31-.48-.21-.81-.47-1-.78-.18-.31-.22-.64-.11-1,.14-.46.38-.78.7-.95s.66-.19,1.01-.06c.16.05.42.14.79.29s.77.28,1.21.4c.44.12.83.18,1.16.18,1.2,0,2.09-.24,2.66-.72.58-.48.86-1.14.86-1.99v-2.09l.29.22c0,.21-.11.46-.32.76s-.51.59-.89.88-.82.53-1.33.73c-.51.2-1.06.3-1.63.3-1.14,0-2.16-.28-3.07-.85-.91-.57-1.63-1.35-2.16-2.35s-.79-2.15-.79-3.44.26-2.47.79-3.47,1.24-1.78,2.14-2.35c.9-.57,1.9-.85,3-.85ZM642.13,147.76c-.72,0-1.35.18-1.9.53-.54.35-.97.83-1.27,1.44s-.46,1.3-.46,2.06.15,1.43.46,2.04c.3.61.73,1.09,1.27,1.44s1.18.53,1.9.53,1.38-.18,1.92-.53.97-.83,1.27-1.44c.3-.61.46-1.29.46-2.04s-.15-1.46-.46-2.06c-.3-.61-.73-1.09-1.27-1.44-.54-.35-1.18-.53-1.92-.53Z"/>
        </g>
        <g>
          <path class="st2" d="M731.77,134.44c1.15,0,2.03.25,2.63.74.6.5,1.01,1.16,1.24,1.98.22.82.34,1.74.34,2.75v6.14c0,.42-.14.76-.41,1.04-.27.28-.62.42-1.03.42s-.76-.14-1.03-.42c-.27-.28-.41-.63-.41-1.04v-6.14c0-.53-.06-1-.19-1.43s-.36-.76-.7-1.02-.82-.38-1.44-.38-1.13.13-1.56.38c-.43.26-.76.6-.97,1.02-.22.42-.32.9-.32,1.43v6.14c0,.42-.14.76-.41,1.04-.27.28-.62.42-1.03.42s-.76-.14-1.03-.42-.41-.63-.41-1.04v-14.83c0-.42.14-.76.41-1.04s.62-.42,1.03-.42.76.14,1.03.42c.27.28.41.63.41,1.04v5.95l-.36-.07c.14-.27.34-.56.6-.88s.57-.6.94-.88c.37-.27.78-.49,1.22-.66s.94-.25,1.46-.25Z"/>
          <path class="st2" d="M751.55,141.11c0,1.31-.29,2.47-.88,3.47-.58,1-1.37,1.78-2.35,2.34-.98.56-2.08.84-3.3.84s-2.32-.28-3.3-.84c-.98-.56-1.77-1.34-2.35-2.34-.58-1-.88-2.16-.88-3.47s.29-2.47.88-3.47,1.37-1.78,2.35-2.35c.98-.57,2.08-.85,3.3-.85s2.32.28,3.3.85c.98.57,1.77,1.35,2.35,2.35s.88,2.16.88,3.47ZM748.67,141.11c0-.82-.16-1.52-.49-2.12-.33-.6-.77-1.07-1.32-1.4-.55-.34-1.16-.5-1.84-.5s-1.28.17-1.84.5c-.55.34-.99.8-1.32,1.4-.33.6-.49,1.31-.49,2.12s.16,1.5.49,2.1c.33.6.77,1.07,1.32,1.4.55.34,1.16.5,1.84.5s1.28-.17,1.84-.5.99-.8,1.32-1.4c.33-.6.49-1.3.49-2.1Z"/>
          <path class="st2" d="M768.85,134.68c.37,0,.69.14.96.42.27.28.41.64.41,1.07,0,.11,0,.21-.02.3-.02.09-.04.17-.07.25l-3.67,9.89c-.11.32-.31.56-.6.73s-.59.23-.91.18c-.54-.03-.95-.34-1.22-.91l-2.38-6.84.62.02-2.23,6.82c-.27.58-.68.88-1.22.91-.3.05-.6-.01-.9-.18s-.5-.41-.61-.73l-3.67-9.89c-.06-.18-.1-.36-.1-.55,0-.38.13-.73.38-1.03s.61-.46,1.06-.46c.3,0,.58.07.82.22.24.14.41.38.5.7l2.9,7.87-.6-.05,2.18-5.93c.26-.59.7-.89,1.32-.89.35,0,.62.08.8.23.18.15.33.37.44.66l2.18,5.93-.72.1,2.95-7.92c.19-.61.66-.91,1.39-.91Z"/>
        </g>
        <g>
          <path class="st2" d="M509.32,216.02h5.69c.38,0,.7.13.96.38s.38.58.38.96-.13.68-.38.92-.58.37-.96.37h-5.69c-.38,0-.7-.13-.96-.38s-.38-.58-.38-.96.13-.68.38-.92.58-.37.96-.37ZM511.89,213.02c.42,0,.76.14,1.02.42s.4.63.4,1.04v10.68c0,.22.04.41.13.55.09.14.21.25.36.31s.32.1.49.1c.19,0,.37-.04.53-.11.16-.07.34-.11.55-.11.22,0,.43.1.61.31.18.21.28.5.28.86,0,.45-.24.82-.73,1.1-.49.29-1.01.43-1.57.43-.34,0-.71-.03-1.12-.08-.41-.06-.79-.19-1.15-.41-.36-.22-.66-.55-.9-1-.24-.45-.36-1.06-.36-1.85v-10.8c0-.42.14-.76.42-1.04.28-.28.63-.42,1.04-.42Z"/>
          <path class="st2" d="M531.33,222.21c0,1.31-.29,2.47-.88,3.47-.58,1-1.37,1.78-2.35,2.34-.98.56-2.08.84-3.3.84s-2.32-.28-3.3-.84c-.98-.56-1.77-1.34-2.35-2.34-.58-1-.88-2.16-.88-3.47s.29-2.47.88-3.47,1.37-1.78,2.35-2.35c.98-.57,2.08-.85,3.3-.85s2.32.28,3.3.85c.98.57,1.77,1.35,2.35,2.35s.88,2.16.88,3.47ZM528.45,222.21c0-.82-.16-1.52-.49-2.12-.33-.6-.77-1.07-1.32-1.4-.55-.34-1.16-.5-1.84-.5s-1.28.17-1.84.5c-.55.34-.99.8-1.32,1.4-.33.6-.49,1.31-.49,2.12s.16,1.5.49,2.1c.33.6.77,1.07,1.32,1.4.55.34,1.16.5,1.84.5s1.28-.17,1.84-.5.99-.8,1.32-1.4c.33-.6.49-1.3.49-2.1Z"/>
          <path class="st2" d="M547.31,215.54c1.28,0,2.22.31,2.83.92.61.62,1.01,1.41,1.2,2.39l-.41-.22.19-.38c.19-.37.49-.76.89-1.19s.88-.78,1.45-1.08c.57-.3,1.2-.44,1.91-.44,1.15,0,2.03.25,2.63.74s1.01,1.16,1.24,1.98c.22.82.34,1.74.34,2.75v6.14c0,.42-.14.76-.41,1.04-.27.28-.62.42-1.03.42s-.76-.14-1.03-.42c-.27-.28-.41-.63-.41-1.04v-6.14c0-.53-.06-1-.19-1.43-.13-.42-.36-.76-.7-1.02s-.82-.38-1.44-.38-1.13.13-1.56.38c-.43.26-.76.6-.97,1.02-.22.42-.32.9-.32,1.43v6.14c0,.42-.14.76-.41,1.04-.27.28-.62.42-1.03.42s-.76-.14-1.03-.42c-.27-.28-.41-.63-.41-1.04v-6.14c0-.53-.06-1-.19-1.43-.13-.42-.36-.76-.7-1.02s-.82-.38-1.44-.38-1.13.13-1.56.38c-.43.26-.76.6-.97,1.02-.22.42-.32.9-.32,1.43v6.14c0,.42-.14.76-.41,1.04-.27.28-.62.42-1.03.42s-.76-.14-1.03-.42-.41-.63-.41-1.04v-9.91c0-.42.14-.76.41-1.04s.62-.42,1.03-.42.76.14,1.03.42c.27.28.41.63.41,1.04v1.03l-.36-.07c.14-.27.34-.56.6-.88s.57-.6.94-.88c.37-.27.78-.49,1.22-.66s.94-.25,1.46-.25Z"/>
          <path class="st2" d="M573.21,215.54c.42,0,.76.14,1.03.41.27.27.41.62.41,1.06v10.15c0,.42-.14.76-.41,1.04-.27.28-.62.42-1.03.42s-.76-.14-1.03-.42c-.27-.28-.41-.63-.41-1.04v-1.18l.53.22c0,.21-.11.46-.34.76-.22.3-.53.59-.91.88s-.84.53-1.36.73c-.52.2-1.08.3-1.69.3-1.1,0-2.1-.28-3-.85-.9-.57-1.6-1.35-2.12-2.35-.52-1-.78-2.15-.78-3.44s.26-2.47.78-3.47c.52-1,1.22-1.78,2.1-2.35.88-.57,1.86-.85,2.93-.85.69,0,1.32.1,1.9.31s1.08.47,1.5.79.75.64.98.97c.23.33.35.6.35.83l-.86.31v-1.75c0-.42.14-.76.41-1.04.27-.28.62-.42,1.03-.42ZM568.36,226.22c.7,0,1.32-.18,1.85-.53.53-.35.94-.83,1.24-1.44.3-.61.44-1.29.44-2.04s-.15-1.46-.44-2.06c-.3-.61-.71-1.09-1.24-1.44-.53-.35-1.14-.53-1.85-.53s-1.3.18-1.82.53c-.53.35-.94.83-1.24,1.44-.3.61-.44,1.3-.44,2.06s.15,1.43.44,2.04c.3.61.71,1.09,1.24,1.44.53.35,1.14.53,1.82.53Z"/>
          <path class="st2" d="M579.45,228.62c-.42,0-.76-.14-1.03-.42-.27-.28-.41-.63-.41-1.04v-14.83c0-.42.14-.76.41-1.04.27-.28.62-.42,1.03-.42s.76.14,1.03.42c.27.28.41.63.41,1.04v14.83c0,.42-.14.76-.41,1.04-.27.28-.62.42-1.03.42ZM587.08,215.78c.37,0,.69.15.96.46.27.3.41.6.41.89,0,.38-.19.74-.58,1.08l-7.22,6.65-.12-3.31,5.5-5.3c.3-.3.66-.46,1.06-.46ZM587.44,228.59c-.42,0-.77-.16-1.06-.48l-4.44-4.7,2.18-2.02,4.32,4.7c.3.32.46.68.46,1.08s-.16.76-.49,1.02-.65.4-.97.4Z"/>
          <path class="st2" d="M596.94,228.86c-1.36,0-2.54-.28-3.54-.85-1-.57-1.77-1.34-2.3-2.32s-.8-2.08-.8-3.31c0-1.44.29-2.67.88-3.68s1.35-1.8,2.29-2.34,1.94-.82,3-.82c.82,0,1.59.17,2.32.5.73.34,1.37.8,1.93,1.38.56.58,1,1.26,1.33,2.03.33.77.49,1.58.49,2.45-.02.38-.17.7-.46.94s-.62.36-1.01.36h-9.17l-.72-2.4h8.81l-.53.48v-.65c-.03-.46-.2-.88-.49-1.25-.3-.37-.66-.66-1.1-.88-.44-.22-.91-.32-1.4-.32s-.93.06-1.34.19-.78.34-1.08.65c-.3.3-.54.71-.72,1.22-.18.51-.26,1.16-.26,1.94,0,.86.18,1.6.54,2.2.36.6.82,1.06,1.39,1.37.57.31,1.17.47,1.81.47.59,0,1.06-.05,1.42-.14s.64-.21.85-.35c.22-.14.41-.25.59-.35.29-.14.56-.22.82-.22.35,0,.64.12.88.36.23.24.35.52.35.84,0,.43-.22.82-.67,1.18-.42.35-1,.66-1.75.92-.75.26-1.53.4-2.33.4Z"/>
        </g>
        <g>
          <path class="st2" d="M659.06,272.68c-.42,0-.76-.14-1.03-.42s-.41-.63-.41-1.04v-9.91c0-.42.14-.76.41-1.04s.62-.42,1.03-.42.76.14,1.03.42c.27.28.41.63.41,1.04v2.26l-.17-1.61c.18-.38.4-.72.68-1.02.28-.3.6-.54.95-.74.35-.2.73-.35,1.13-.44.4-.1.8-.14,1.2-.14.48,0,.88.14,1.21.41.33.27.49.59.49.96,0,.53-.14.91-.41,1.14-.27.23-.57.35-.89.35-.3,0-.58-.06-.83-.17-.25-.11-.53-.17-.85-.17-.29,0-.58.07-.88.2-.3.14-.57.35-.82.64s-.45.64-.6,1.07c-.15.42-.23.92-.23,1.5v5.69c0,.42-.14.76-.41,1.04-.27.28-.62.42-1.03.42Z"/>
          <path class="st2" d="M673.55,272.92c-1.36,0-2.54-.28-3.54-.85-1-.57-1.77-1.34-2.3-2.32s-.8-2.08-.8-3.31c0-1.44.29-2.67.88-3.68s1.35-1.8,2.29-2.34,1.94-.82,3-.82c.82,0,1.59.17,2.32.5.73.34,1.37.8,1.93,1.38.56.58,1,1.26,1.33,2.03s.49,1.58.49,2.45c-.02.38-.17.7-.46.94s-.62.36-1.01.36h-9.17l-.72-2.4h8.81l-.53.48v-.65c-.03-.46-.2-.88-.49-1.25-.3-.37-.66-.66-1.1-.88-.44-.22-.91-.32-1.4-.32s-.93.06-1.34.19-.78.34-1.08.65c-.3.3-.54.71-.72,1.22-.18.51-.26,1.16-.26,1.94,0,.86.18,1.6.54,2.2.36.6.82,1.06,1.39,1.37.57.31,1.17.47,1.81.47.59,0,1.06-.05,1.42-.14s.64-.21.85-.35c.22-.14.41-.25.59-.35.29-.14.56-.22.82-.22.35,0,.64.12.88.36.23.24.35.52.35.84,0,.43-.22.82-.67,1.18-.42.35-1,.66-1.75.92-.75.26-1.53.4-2.33.4Z"/>
          <path class="st2" d="M692.27,259.6c.42,0,.76.14,1.03.41.27.27.41.62.41,1.06v10.15c0,.42-.14.76-.41,1.04-.27.28-.62.42-1.03.42s-.76-.14-1.03-.42c-.27-.28-.41-.63-.41-1.04v-1.18l.53.22c0,.21-.11.46-.34.76-.22.3-.53.59-.91.88s-.84.53-1.36.73c-.52.2-1.08.3-1.69.3-1.1,0-2.1-.28-3-.85-.9-.57-1.6-1.35-2.12-2.35-.52-1-.78-2.15-.78-3.44s.26-2.47.78-3.47c.52-1,1.22-1.78,2.1-2.35.88-.57,1.86-.85,2.93-.85.69,0,1.32.1,1.9.31s1.08.47,1.5.79.75.64.98.97c.23.33.35.6.35.83l-.86.31v-1.75c0-.42.14-.76.41-1.04.27-.28.62-.42,1.03-.42ZM687.43,270.28c.7,0,1.32-.18,1.85-.53.53-.35.94-.83,1.24-1.44.3-.61.44-1.29.44-2.04s-.15-1.46-.44-2.06-.71-1.09-1.24-1.44c-.53-.35-1.14-.53-1.85-.53s-1.3.18-1.82.53c-.53.35-.94.83-1.24,1.44s-.44,1.3-.44,2.06.15,1.43.44,2.04c.3.61.71,1.09,1.24,1.44.53.35,1.14.53,1.82.53Z"/>
          <path class="st2" d="M699.95,271.21c0,.42-.14.76-.42,1.04s-.63.42-1.04.42-.74-.14-1.01-.42c-.27-.28-.41-.63-.41-1.04v-14.83c0-.42.14-.76.42-1.04s.63-.42,1.04-.42.76.14,1.02.42c.26.28.4.63.4,1.04v14.83Z"/>
          <path class="st2" d="M704.42,266.75c-.42,0-.76-.14-1.04-.41-.28-.27-.42-.62-.42-1.03s.14-.76.42-1.02c.28-.26.63-.4,1.04-.4h4.18c.42,0,.76.14,1.04.42.28.28.42.63.42,1.04s-.14.73-.42,1c-.28.26-.63.4-1.04.4h-4.18Z"/>
          <path class="st2" d="M715.94,271.21c0,.42-.14.76-.42,1.04s-.63.42-1.04.42-.74-.14-1.01-.42c-.27-.28-.41-.63-.41-1.04v-14.83c0-.42.14-.76.42-1.04s.63-.42,1.04-.42.76.14,1.02.42c.26.28.4.63.4,1.04v14.83Z"/>
          <path class="st2" d="M720.54,258.28c-.54,0-.93-.09-1.15-.26-.22-.18-.34-.49-.34-.94v-.46c0-.46.12-.78.37-.95.25-.17.63-.25,1.14-.25.56,0,.95.09,1.18.26.22.18.34.49.34.94v.46c0,.46-.12.78-.36.95-.24.17-.63.25-1.18.25ZM722.01,271.21c0,.42-.14.76-.41,1.04-.27.28-.62.42-1.03.42s-.76-.14-1.03-.42-.41-.63-.41-1.04v-9.91c0-.42.14-.76.41-1.04s.62-.42,1.03-.42.76.14,1.03.42c.27.28.41.63.41,1.04v9.91Z"/>
          <path class="st2" d="M731.83,260.08c.38,0,.7.12.96.37s.38.56.38.95-.13.7-.38.95-.58.37-.96.37h-6.36c-.38,0-.71-.12-.96-.37s-.38-.56-.38-.95.13-.7.38-.95.58-.37.96-.37h6.36ZM731.56,254.92c.35,0,.7.05,1.03.14.34.1.62.25.84.47.22.22.34.5.34.85,0,.4-.12.72-.35.95s-.5.35-.8.35c-.14,0-.36-.04-.65-.11-.29-.07-.57-.11-.84-.11-.4,0-.71.09-.92.26-.22.18-.36.38-.44.61-.08.23-.12.44-.12.61v12.26c0,.42-.14.76-.41,1.04-.27.28-.62.42-1.03.42s-.76-.14-1.03-.42c-.27-.28-.41-.63-.41-1.04v-12.24c0-1.14.4-2.1,1.2-2.88.8-.78,2-1.18,3.6-1.18Z"/>
          <path class="st2" d="M740.78,272.92c-1.36,0-2.54-.28-3.54-.85-1-.57-1.77-1.34-2.3-2.32s-.8-2.08-.8-3.31c0-1.44.29-2.67.88-3.68s1.35-1.8,2.29-2.34,1.94-.82,3-.82c.82,0,1.59.17,2.32.5.73.34,1.37.8,1.93,1.38.56.58,1,1.26,1.33,2.03s.49,1.58.49,2.45c-.02.38-.17.7-.46.94s-.62.36-1.01.36h-9.17l-.72-2.4h8.81l-.53.48v-.65c-.03-.46-.2-.88-.49-1.25-.3-.37-.66-.66-1.1-.88-.44-.22-.91-.32-1.4-.32s-.93.06-1.34.19-.78.34-1.08.65c-.3.3-.54.71-.72,1.22-.18.51-.26,1.16-.26,1.94,0,.86.18,1.6.54,2.2.36.6.82,1.06,1.39,1.37.57.31,1.17.47,1.81.47.59,0,1.06-.05,1.42-.14s.64-.21.85-.35c.22-.14.41-.25.59-.35.29-.14.56-.22.82-.22.35,0,.64.12.88.36.23.24.35.52.35.84,0,.43-.22.82-.67,1.18-.42.35-1,.66-1.75.92-.75.26-1.53.4-2.33.4Z"/>
        </g>
        <g>
          <path class="st2" d="M583.98,322.59c.42,0,.76.14,1.03.41.27.27.41.62.41,1.06v14.83c0,.42-.14.76-.41,1.04-.27.28-.62.42-1.03.42s-.76-.14-1.03-.42c-.27-.28-.41-.63-.41-1.04v-1.18l.53.22c0,.21-.11.46-.34.76-.22.3-.53.59-.91.88s-.84.53-1.36.73c-.52.2-1.08.3-1.69.3-1.1,0-2.1-.28-3-.85-.9-.57-1.6-1.35-2.12-2.35-.52-1-.78-2.15-.78-3.44s.26-2.47.78-3.47c.52-1,1.22-1.78,2.1-2.35.88-.57,1.86-.85,2.93-.85.69,0,1.32.1,1.9.31s1.08.47,1.5.79.75.64.98.97c.23.33.35.6.35.83l-.86.31v-6.43c0-.42.14-.76.41-1.04.27-.28.62-.42,1.03-.42ZM579.13,337.95c.7,0,1.32-.18,1.85-.53.53-.35.94-.83,1.24-1.44.3-.61.44-1.29.44-2.04s-.15-1.46-.44-2.06-.71-1.09-1.24-1.44c-.53-.35-1.14-.53-1.85-.53s-1.3.18-1.82.53c-.53.35-.94.83-1.24,1.44s-.44,1.3-.44,2.06.15,1.43.44,2.04c.3.61.71,1.09,1.24,1.44.53.35,1.14.53,1.82.53Z"/>
          <path class="st2" d="M594.59,340.59c-1.36,0-2.54-.28-3.54-.85-1-.57-1.77-1.34-2.3-2.32s-.8-2.08-.8-3.31c0-1.44.29-2.67.88-3.68s1.35-1.8,2.29-2.34,1.94-.82,3-.82c.82,0,1.59.17,2.32.5.73.34,1.37.8,1.93,1.38.56.58,1,1.26,1.33,2.03s.49,1.58.49,2.45c-.02.38-.17.7-.46.94s-.62.36-1.01.36h-9.17l-.72-2.4h8.81l-.53.48v-.65c-.03-.46-.2-.88-.49-1.25-.3-.37-.66-.66-1.1-.88-.44-.22-.91-.32-1.4-.32s-.93.06-1.34.19-.78.34-1.08.65c-.3.3-.54.71-.72,1.22-.18.51-.26,1.16-.26,1.94,0,.86.18,1.6.54,2.2.36.6.82,1.06,1.39,1.37.57.31,1.17.47,1.81.47.59,0,1.06-.05,1.42-.14s.64-.21.85-.35c.22-.14.41-.25.59-.35.29-.14.56-.22.82-.22.35,0,.64.12.88.36.23.24.35.52.35.84,0,.43-.22.82-.67,1.18-.42.35-1,.66-1.75.92-.75.26-1.53.4-2.33.4Z"/>
          <path class="st2" d="M608.41,327.27c.91,0,1.71.1,2.39.29.68.19,1.21.46,1.58.8.38.34.56.76.56,1.24,0,.32-.1.62-.29.9-.19.28-.47.42-.84.42-.26,0-.47-.04-.64-.11s-.32-.16-.44-.28c-.13-.11-.28-.22-.46-.31-.16-.1-.4-.17-.73-.23-.33-.06-.57-.08-.73-.08-.82,0-1.51.18-2.08.53-.57.35-1,.83-1.31,1.43-.3.6-.46,1.29-.46,2.08s.16,1.45.47,2.05c.31.6.74,1.08,1.3,1.43.55.35,1.19.53,1.91.53.4,0,.74-.02,1.03-.07s.53-.12.72-.22c.22-.13.42-.26.6-.41.18-.14.44-.22.79-.22.42,0,.74.13.96.4.22.26.34.59.34.97s-.22.76-.67,1.09c-.45.33-1.04.59-1.76.79-.73.2-1.52.3-2.36.3-1.26,0-2.36-.29-3.29-.88-.93-.58-1.64-1.38-2.15-2.39-.5-1.01-.76-2.14-.76-3.38,0-1.31.27-2.47.8-3.47s1.28-1.78,2.23-2.35c.95-.57,2.04-.85,3.28-.85Z"/>
          <path class="st2" d="M616.43,325.95c-.54,0-.93-.09-1.15-.26-.22-.18-.34-.49-.34-.94v-.46c0-.46.12-.78.37-.95.25-.17.63-.25,1.14-.25.56,0,.95.09,1.18.26.22.18.34.49.34.94v.46c0,.46-.12.78-.36.95-.24.17-.63.25-1.18.25ZM617.89,338.89c0,.42-.14.76-.41,1.04-.27.28-.62.42-1.03.42s-.76-.14-1.03-.42-.41-.63-.41-1.04v-9.91c0-.42.14-.76.41-1.04s.62-.42,1.03-.42.76.14,1.03.42c.27.28.41.63.41,1.04v9.91Z"/>
          <path class="st2" d="M620.1,338.36c-.16-.22-.23-.51-.22-.86.02-.35.22-.66.62-.91.26-.16.53-.23.82-.2.29.02.57.17.84.44.46.46.95.82,1.46,1.08.51.26,1.15.38,1.92.38.24-.02.5-.05.79-.11s.54-.18.76-.38c.22-.2.32-.51.32-.92,0-.35-.12-.63-.36-.84-.24-.21-.56-.38-.95-.53-.39-.14-.83-.28-1.31-.41-.5-.14-1-.3-1.52-.48-.52-.18-1-.4-1.43-.68-.43-.28-.78-.65-1.06-1.12-.27-.46-.41-1.05-.41-1.75,0-.8.22-1.48.67-2.04.45-.56,1.03-.99,1.74-1.3s1.46-.46,2.24-.46c.5,0,1.02.06,1.56.18.54.12,1.06.31,1.56.58.5.26.91.61,1.25,1.04.18.24.28.53.31.86.03.34-.12.64-.46.91-.24.19-.52.28-.84.25-.32-.02-.58-.13-.79-.32-.27-.35-.64-.63-1.09-.84s-.98-.31-1.57-.31c-.24,0-.5.03-.78.08-.28.06-.52.18-.73.36-.21.18-.31.48-.31.88,0,.37.12.66.36.88.24.22.56.39.97.53.41.14.84.27,1.31.4.48.13.97.28,1.46.46.5.18.95.41,1.37.7s.75.66,1.01,1.12.38,1.04.38,1.74c0,.82-.24,1.51-.72,2.09-.48.58-1.08,1.01-1.8,1.31s-1.46.44-2.21.44c-.94,0-1.89-.16-2.83-.49s-1.73-.91-2.35-1.74Z"/>
          <path class="st2" d="M633.66,325.95c-.54,0-.93-.09-1.15-.26-.22-.18-.34-.49-.34-.94v-.46c0-.46.12-.78.37-.95.25-.17.63-.25,1.14-.25.56,0,.95.09,1.18.26.22.18.34.49.34.94v.46c0,.46-.12.78-.36.95-.24.17-.63.25-1.18.25ZM635.12,338.89c0,.42-.14.76-.41,1.04-.27.28-.62.42-1.03.42s-.76-.14-1.03-.42-.41-.63-.41-1.04v-9.91c0-.42.14-.76.41-1.04s.62-.42,1.03-.42.76.14,1.03.42c.27.28.41.63.41,1.04v9.91Z"/>
          <path class="st2" d="M650.53,333.94c0,1.31-.29,2.47-.88,3.47-.58,1-1.37,1.78-2.35,2.34-.98.56-2.08.84-3.3.84s-2.32-.28-3.3-.84c-.98-.56-1.77-1.34-2.35-2.34-.58-1-.88-2.16-.88-3.47s.29-2.47.88-3.47,1.37-1.78,2.35-2.35c.98-.57,2.08-.85,3.3-.85s2.32.28,3.3.85c.98.57,1.77,1.35,2.35,2.35s.88,2.16.88,3.47ZM647.65,333.94c0-.82-.16-1.52-.49-2.12-.33-.6-.77-1.07-1.32-1.4-.55-.34-1.16-.5-1.84-.5s-1.28.17-1.84.5c-.55.34-.99.8-1.32,1.4-.33.6-.49,1.31-.49,2.12s.16,1.5.49,2.1c.33.6.77,1.07,1.32,1.4.55.34,1.16.5,1.84.5s1.28-.17,1.84-.5.99-.8,1.32-1.4c.33-.6.49-1.3.49-2.1Z"/>
          <path class="st2" d="M659.92,327.27c1.18,0,2.08.25,2.7.74s1.04,1.16,1.27,1.98c.23.82.35,1.74.35,2.75v6.14c0,.42-.14.76-.41,1.04-.27.28-.62.42-1.03.42s-.76-.14-1.03-.42c-.27-.28-.41-.63-.41-1.04v-6.14c0-.53-.07-1-.2-1.43-.14-.42-.38-.76-.73-1.02s-.86-.38-1.51-.38-1.18.13-1.62.38-.78.6-1.01,1.02c-.23.42-.35.9-.35,1.43v6.14c0,.42-.14.76-.41,1.04-.27.28-.62.42-1.03.42s-.76-.14-1.03-.42-.41-.63-.41-1.04v-9.91c0-.42.14-.76.41-1.04s.62-.42,1.03-.42.76.14,1.03.42c.27.28.41.63.41,1.04v1.03l-.36-.07c.14-.27.35-.56.62-.88.27-.31.59-.6.96-.88.37-.27.78-.49,1.25-.66.46-.17.97-.25,1.51-.25Z"/>
          <path class="st2" d="M666.61,338.36c-.16-.22-.23-.51-.22-.86.02-.35.22-.66.62-.91.26-.16.53-.23.82-.2.29.02.57.17.84.44.46.46.95.82,1.46,1.08.51.26,1.15.38,1.92.38.24-.02.5-.05.79-.11s.54-.18.76-.38c.22-.2.32-.51.32-.92,0-.35-.12-.63-.36-.84-.24-.21-.56-.38-.95-.53-.39-.14-.83-.28-1.31-.41-.5-.14-1-.3-1.52-.48-.52-.18-1-.4-1.43-.68-.43-.28-.78-.65-1.06-1.12-.27-.46-.41-1.05-.41-1.75,0-.8.22-1.48.67-2.04.45-.56,1.03-.99,1.74-1.3s1.46-.46,2.24-.46c.5,0,1.02.06,1.56.18.54.12,1.06.31,1.56.58.5.26.91.61,1.25,1.04.18.24.28.53.31.86.03.34-.12.64-.46.91-.24.19-.52.28-.84.25-.32-.02-.58-.13-.79-.32-.27-.35-.64-.63-1.09-.84s-.98-.31-1.57-.31c-.24,0-.5.03-.78.08-.28.06-.52.18-.73.36-.21.18-.31.48-.31.88,0,.37.12.66.36.88.24.22.56.39.97.53.41.14.84.27,1.31.4.48.13.97.28,1.46.46.5.18.95.41,1.37.7s.75.66,1.01,1.12.38,1.04.38,1.74c0,.82-.24,1.51-.72,2.09-.48.58-1.08,1.01-1.8,1.31s-1.46.44-2.21.44c-.94,0-1.89-.16-2.83-.49s-1.73-.91-2.35-1.74Z"/>
        </g>
      </g>
    </g>
  </g>
  <circle class="st4" cx="398.85" cy="460.83" r="26.39"/>
</svg>