<?xml version="1.0" encoding="UTF-8"?>
<svg id="Layer_1" xmlns="http://www.w3.org/2000/svg" version="1.1" viewBox="0 0 465.29 311.71">
  <!-- Generator: Adobe Illustrator 29.7.1, SVG Export Plug-In . SVG Version: 2.1.1 Build 8)  -->
  <defs>
    <style>
      .st0 {
        fill: #fff7f0;
        stroke: #ecaa19;
        stroke-miterlimit: 10;
        stroke-width: 2.34px;
      }

      .st1 {
        fill: #fff;
      }

      .st2 {
        fill: #ecaa19;
      }
    </style>
  </defs>
  <rect class="st0" x="43.76" y="40.46" width="377.77" height="230.79" rx="23.53" ry="23.53"/>
  <g>
    <path class="st2" d="M173.61,146.1c0,2.19-.54,4.18-1.62,5.96-1.08,1.79-2.52,3.29-4.32,4.49.95.19,1.77.52,2.47.97.7.46,1.27,1.02,1.73,1.69.46.67.81,1.42,1.05,2.26s.36,1.72.36,2.64c0,1.81-.42,3.38-1.26,4.73-.84,1.35-1.92,2.46-3.26,3.33-1.33.87-2.81,1.52-4.44,1.95-1.63.43-3.26.64-4.87.64-.89,0-1.77-.06-2.66-.19-.89-.13-1.73-.35-2.52-.67-.28-.1-.52-.48-.71-1.16-.19-.68-.34-1.51-.45-2.49-.11-.98-.2-2.04-.26-3.18-.06-1.14-.11-2.23-.14-3.28-.03-1.05-.05-1.96-.05-2.76v-5.01c0-1.12.03-2.24.1-3.35,0-.28,0-.73.02-1.33.02-.6.03-1.27.05-2.02.02-.74.05-1.53.1-2.35.05-.82.11-1.59.19-2.3.08-.71.19-1.32.33-1.83.14-.51.31-.82.5-.95.73-.48,1.54-.93,2.42-1.35.89-.43,1.81-.8,2.76-1.12.95-.32,1.9-.57,2.85-.76.95-.19,1.85-.28,2.71-.28,1.17,0,2.31.17,3.4.5s2.04.83,2.85,1.5c.81.67,1.46,1.48,1.95,2.45.49.97.74,2.07.74,3.3ZM165.72,148.62c0-.54-.17-.93-.5-1.19-.33-.25-.77-.38-1.31-.38-.44,0-.91.09-1.4.28-.49.19-.91.44-1.26.76-.1.1-.18.36-.26.81-.08.44-.14.94-.19,1.5-.05.55-.08,1.08-.1,1.57-.02.49-.02.82-.02.97v.31c0,.14,0,.29.02.45.02.16.04.3.07.43.03.13.08.19.14.19.54,0,1.09-.2,1.66-.59.57-.4,1.09-.89,1.54-1.47.46-.59.84-1.21,1.14-1.88.3-.67.45-1.25.45-1.76ZM165.53,162.35c0-.54-.19-.92-.57-1.14-.38-.22-.81-.33-1.28-.33-.44,0-.91.1-1.4.31-.49.21-.9.45-1.21.74-.1.06-.17.22-.21.48-.05.25-.08.53-.1.83-.02.3-.03.59-.05.86-.02.27-.02.45-.02.55v.38c0,.19,0,.39.02.59.02.21.05.4.1.57.05.17.1.26.17.26.44,0,.93-.13,1.47-.38.54-.25,1.04-.57,1.5-.95.46-.38.84-.82,1.14-1.31.3-.49.45-.97.45-1.45Z"/>
    <path class="st2" d="M206.55,125.91c-1.61-.12-2.99-.65-4.12-1.59-1.14-.94-2.07-2.11-2.79-3.49-.72-1.39-1.23-2.91-1.52-4.57-.29-1.66-.38-3.28-.26-4.86.12-1.67.46-3.39,1-5.14.54-1.75,1.29-3.34,2.26-4.74.96-1.41,2.14-2.53,3.54-3.36,1.4-.83,3.01-1.18,4.84-1.05s3.24.72,4.42,1.78c1.18,1.06,2.09,2.33,2.74,3.82.65,1.49,1.07,3.11,1.26,4.83.19,1.73.18,3.35-.02,4.86-.22,1.67-.6,3.34-1.16,5.01-.55,1.68-1.29,3.16-2.21,4.46-.92,1.3-2.05,2.33-3.37,3.09-1.33.76-2.86,1.08-4.6.95Z"/>
    <path class="st2" d="M220.27,160.6c0,1.74-.17,3.47-.52,5.18-.35,1.71-.93,3.24-1.76,4.59-.82,1.35-1.92,2.43-3.3,3.26-1.38.82-3.1,1.24-5.16,1.24s-3.72-.4-5.09-1.21c-1.36-.81-2.45-1.88-3.26-3.21-.81-1.33-1.38-2.83-1.71-4.51-.33-1.68-.5-3.39-.5-5.13,0-1.9.22-3.79.67-5.66.1-.51.28-1.21.55-2.12.27-.9.62-1.79,1.05-2.66.43-.87.92-1.62,1.47-2.26.55-.63,1.16-.95,1.83-.95s1.14.17,1.52.52c.38.35.68.78.9,1.31.22.52.36,1.08.43,1.66.06.59.1,1.12.1,1.59,0,.73-.06,1.44-.17,2.14-.11.7-.23,1.39-.36,2.09-.13.95-.25,1.9-.36,2.85-.11.95-.17,1.9-.17,2.85,0,.48.02,1.01.07,1.59.05.59.17,1.15.36,1.69.19.54.46.99.81,1.35.35.36.84.55,1.47.55.82,0,1.48-.22,1.97-.67.49-.44.86-1,1.09-1.66.24-.67.39-1.38.45-2.14.06-.76.09-1.46.09-2.09,0-1.39-.09-2.76-.28-4.11-.19-1.35-.36-2.72-.52-4.11-.03-.16-.05-.38-.05-.67,0-.48.08-.95.24-1.43.16-.48.38-.9.67-1.28.28-.38.63-.69,1.05-.93.41-.24.87-.36,1.38-.36.7,0,1.31.25,1.85.74.54.49.99,1.13,1.35,1.9.36.78.67,1.65.9,2.61.24.97.43,1.92.57,2.85.14.93.24,1.81.29,2.64.05.82.07,1.47.07,1.95Z"/>
    <path class="st2" d="M237.64,175.52c-.54,0-.97-.25-1.28-.74-.32-.49-.55-1.05-.71-1.69-.16-.63-.26-1.28-.31-1.93-.05-.65-.07-1.15-.07-1.5,0-.95.06-1.9.17-2.85.11-.95.24-1.9.38-2.85s.27-1.9.38-2.85c.11-.95.17-1.9.17-2.85,0-.38-.02-.79-.05-1.24-.03-.44-.1-.86-.21-1.26-.11-.4-.29-.72-.55-.97-.25-.25-.59-.38-1-.38-.29,0-.6.23-.95.69-.35.46-.67.98-.97,1.57-.3.59-.55,1.17-.76,1.76-.21.59-.31,1.02-.31,1.31,0,.7,0,1.4.02,2.12.02.71.02,1.43.02,2.16v2.76c-.03.57-.08,1.16-.14,1.76-.06.6-.16,1.19-.29,1.76-.1.57-.24,1.12-.43,1.64-.19.52-.44.98-.74,1.38-.3.4-.66.72-1.07.97-.41.25-.9.38-1.47.38-.63,0-1.16-.21-1.57-.62-.41-.41-.74-.94-1-1.59-.25-.65-.44-1.38-.55-2.19-.11-.81-.19-1.6-.24-2.38-.05-.78-.06-1.49-.05-2.14.02-.65.02-1.16.02-1.54v-2.23c0-1.2-.02-2.39-.07-3.56-.05-1.17-.07-2.34-.07-3.52,0-.63,0-1.44.02-2.42.02-.98.13-1.94.36-2.87.22-.93.59-1.73,1.09-2.4.51-.67,1.25-1,2.23-1,.44,0,.84.14,1.19.43.35.29.66.63.93,1.05.27.41.49.86.67,1.33.17.48.31.89.4,1.24.32-.44.69-.87,1.12-1.28.43-.41.91-.78,1.45-1.09.54-.32,1.14-.57,1.81-.76.67-.19,1.43-.28,2.28-.28,1.62,0,2.88.39,3.78,1.16.9.78,1.57,1.74,2,2.9.43,1.16.69,2.4.78,3.73s.14,2.53.14,3.61c0,.54-.05,1.34-.14,2.4-.1,1.06-.25,2.23-.45,3.52-.21,1.28-.48,2.6-.83,3.94-.35,1.35-.76,2.57-1.24,3.68-.48,1.11-1.04,2.01-1.69,2.71-.65.7-1.39,1.05-2.21,1.05Z"/>
    <path class="st2" d="M265.47,155.94c0,.16-.02.32-.05.5-.03.17-.08.34-.14.5-.28.73-.73,1.34-1.33,1.83-.6.49-1.32.74-2.14.74-1.24,0-2.08-.62-2.52-1.85-.06-.16-.09-.34-.09-.55s-.02-.42-.05-.64v-1.38c-.06-.44-.17-.79-.33-1.05-.16-.25-.43-.38-.81-.38-.54,0-1.05.34-1.54,1.02-.49.68-.92,1.49-1.28,2.42-.36.93-.66,1.89-.88,2.88-.22.98-.33,1.77-.33,2.38,0,.48.03,1.05.1,1.73.06.68.19,1.34.38,1.97.19.63.45,1.18.78,1.64.33.46.77.69,1.31.69s1.04-.17,1.5-.5c.46-.33.91-.72,1.35-1.17.41-.38.86-.78,1.35-1.19.49-.41,1.05-.62,1.69-.62.79,0,1.42.29,1.88.86.46.57.69,1.22.69,1.95,0,1.08-.29,2.08-.86,3.02s-1.28,1.74-2.14,2.42c-.86.68-1.81,1.22-2.85,1.62-1.05.4-2.04.59-2.99.59-1.71,0-3.16-.43-4.35-1.28-1.19-.86-2.15-1.94-2.88-3.26-.73-1.31-1.25-2.75-1.57-4.3-.32-1.55-.48-3.03-.48-4.42,0-1.62.22-3.37.67-5.25.44-1.88,1.12-3.64,2.04-5.25.92-1.62,2.1-2.96,3.54-4.04,1.44-1.08,3.16-1.62,5.16-1.62,1.24,0,2.31.27,3.21.81.9.54,1.65,1.24,2.23,2.12.59.87,1.03,1.85,1.33,2.92.3,1.08.45,2.14.45,3.18v.48c0,.16-.02.32-.05.48Z"/>
    <path class="st2" d="M289.02,165.73c0,1.08-.34,2.13-1.02,3.16-.68,1.03-1.54,1.95-2.57,2.76-1.03.81-2.13,1.46-3.3,1.95-1.17.49-2.25.74-3.23.74-1.68,0-3.18-.42-4.49-1.26-1.32-.84-2.42-1.91-3.3-3.21-.89-1.3-1.56-2.73-2.02-4.3-.46-1.57-.69-3.1-.69-4.59,0-1.58.22-3.28.67-5.09.44-1.81,1.12-3.47,2.02-4.99.9-1.52,2.04-2.79,3.42-3.8,1.38-1.01,3.02-1.52,4.92-1.52,1.08,0,2.11.18,3.09.55.98.36,1.84.88,2.57,1.54.73.67,1.31,1.46,1.76,2.38.44.92.67,1.95.67,3.09,0,1.49-.32,2.88-.95,4.18-.63,1.3-1.47,2.42-2.52,3.37-1.05.95-2.25,1.72-3.61,2.31-1.36.59-2.76.91-4.18.97.13.92.5,1.58,1.12,2,.62.41,1.35.62,2.21.62.63,0,1.25-.16,1.85-.48.6-.32,1.19-.67,1.76-1.07.57-.4,1.13-.75,1.69-1.07.55-.32,1.12-.48,1.69-.48.63,0,1.2.21,1.71.62.51.41.76.95.76,1.62ZM281.32,154.08c0-.41-.11-.84-.33-1.28-.22-.44-.57-.67-1.05-.67-.7,0-1.28.18-1.76.55-.48.36-.87.82-1.19,1.38-.32.55-.56,1.15-.74,1.78-.17.63-.28,1.22-.31,1.76.44-.1.97-.22,1.59-.38.62-.16,1.2-.37,1.76-.64.55-.27,1.03-.61,1.43-1.02.4-.41.59-.9.59-1.47Z"/>
    <path class="st2" d="M243.14,185.12c0,2.19-.54,4.18-1.62,5.96-1.08,1.79-2.52,3.29-4.32,4.49.95.19,1.77.52,2.47.97.7.46,1.27,1.02,1.73,1.69.46.67.81,1.42,1.05,2.26s.36,1.72.36,2.64c0,1.81-.42,3.38-1.26,4.73-.84,1.35-1.92,2.46-3.26,3.33-1.33.87-2.81,1.52-4.44,1.95-1.63.43-3.26.64-4.87.64-.89,0-1.77-.06-2.66-.19-.89-.13-1.73-.35-2.52-.67-.28-.1-.52-.48-.71-1.16-.19-.68-.34-1.51-.45-2.49-.11-.98-.2-2.04-.26-3.18-.06-1.14-.11-2.23-.14-3.28-.03-1.05-.05-1.96-.05-2.76v-5.01c0-1.12.03-2.24.1-3.35,0-.28,0-.73.02-1.33.02-.6.03-1.27.05-2.02.02-.74.05-1.53.1-2.35.05-.82.11-1.59.19-2.3.08-.71.19-1.32.33-1.83.14-.51.31-.82.5-.95.73-.48,1.54-.93,2.42-1.35.89-.43,1.81-.8,2.76-1.12.95-.32,1.9-.57,2.85-.76.95-.19,1.85-.28,2.71-.28,1.17,0,2.31.17,3.4.5s2.04.83,2.85,1.5c.81.67,1.46,1.48,1.95,2.45.49.97.74,2.07.74,3.3ZM235.26,187.64c0-.54-.17-.93-.5-1.19-.33-.25-.77-.38-1.31-.38-.44,0-.91.09-1.4.28-.49.19-.91.44-1.26.76-.1.1-.18.36-.26.81-.08.44-.14.94-.19,1.5-.05.55-.08,1.08-.1,1.57-.02.49-.02.82-.02.97v.31c0,.14,0,.29.02.45.02.16.04.3.07.43.03.13.08.19.14.19.54,0,1.09-.2,1.66-.59.57-.4,1.09-.89,1.54-1.47.46-.59.84-1.21,1.14-1.88.3-.67.45-1.25.45-1.76ZM235.07,201.37c0-.54-.19-.92-.57-1.14-.38-.22-.81-.33-1.28-.33-.44,0-.91.1-1.4.31-.49.21-.9.45-1.21.74-.1.06-.17.22-.21.48-.05.25-.08.53-.1.83-.02.3-.03.59-.05.86-.02.27-.02.45-.02.55v.38c0,.19,0,.39.02.59.02.21.05.4.1.57.05.17.1.26.17.26.44,0,.93-.13,1.47-.38.54-.25,1.04-.57,1.5-.95.46-.38.84-.82,1.14-1.31.3-.49.45-.97.45-1.45Z"/>
    <path class="st2" d="M266.45,206.51c0,.57-.02,1.32-.07,2.23-.05.92-.18,1.81-.4,2.69-.22.87-.57,1.62-1.05,2.26-.48.63-1.14.95-2,.95-1.17,0-2.08-.38-2.71-1.14-.63-.76-.93-1.71-.9-2.85-1.01.89-2.16,1.58-3.45,2.09-1.28.51-2.59.76-3.92.76-.92,0-1.79-.22-2.61-.67-.82-.44-1.55-1.01-2.19-1.71-.63-.7-1.14-1.48-1.52-2.35-.38-.87-.57-1.73-.57-2.59,0-1.52.47-2.85,1.4-3.99.93-1.14,2.08-2.12,3.45-2.92,1.36-.81,2.81-1.45,4.35-1.92,1.54-.48,2.91-.79,4.11-.95,0-.16,0-.3.02-.43.02-.13.02-.27.02-.43,0-.98-.27-1.77-.81-2.38-.54-.6-1.3-.9-2.28-.9-.79,0-1.47.13-2.04.4-.57.27-1.11.57-1.62.9-.51.33-1.01.63-1.52.9-.51.27-1.08.4-1.71.4-.7,0-1.29-.22-1.78-.67-.49-.44-.74-1.01-.74-1.71,0-1.05.31-2,.93-2.85.62-.85,1.39-1.58,2.33-2.16.93-.59,1.95-1.05,3.04-1.38,1.09-.33,2.1-.5,3.02-.5.86,0,1.71.1,2.57.31.86.21,1.66.52,2.42.95.76.43,1.45.95,2.07,1.57.62.62,1.12,1.34,1.5,2.16.57,1.17,1.03,2.42,1.38,3.73.35,1.31.62,2.66.81,4.04.19,1.38.32,2.76.38,4.13.06,1.38.1,2.72.1,4.02ZM258.85,204.99l-.14-3.23c-.06,0-.13,0-.19-.02-.06-.02-.13-.02-.19-.02-.41,0-.93.1-1.54.31-.62.21-1.21.49-1.78.86s-1.05.77-1.45,1.21c-.4.44-.59.9-.59,1.38,0,.44.16.74.48.9.32.16.68.24,1.09.24.7,0,1.44-.18,2.23-.55.79-.36,1.49-.72,2.09-1.07Z"/>
    <path class="st2" d="M287.91,194.96c0,.16-.02.32-.05.5-.03.17-.08.34-.14.5-.28.73-.73,1.34-1.33,1.83-.6.49-1.32.74-2.14.74-1.24,0-2.08-.62-2.52-1.85-.06-.16-.09-.34-.09-.55s-.02-.42-.05-.64v-1.38c-.06-.44-.17-.79-.33-1.05-.16-.25-.43-.38-.81-.38-.54,0-1.05.34-1.54,1.02-.49.68-.92,1.49-1.28,2.42-.36.93-.66,1.89-.88,2.88-.22.98-.33,1.77-.33,2.38,0,.48.03,1.05.1,1.73.06.68.19,1.34.38,1.97.19.63.45,1.18.78,1.64.33.46.77.69,1.31.69s1.04-.17,1.5-.5c.46-.33.91-.72,1.35-1.17.41-.38.86-.78,1.35-1.19.49-.41,1.05-.62,1.69-.62.79,0,1.42.29,1.88.86.46.57.69,1.22.69,1.95,0,1.08-.29,2.08-.86,3.02s-1.28,1.74-2.14,2.42c-.86.68-1.81,1.22-2.85,1.62-1.05.4-2.04.59-2.99.59-1.71,0-3.16-.43-4.35-1.28-1.19-.86-2.15-1.94-2.88-3.26-.73-1.31-1.25-2.75-1.57-4.3-.32-1.55-.48-3.03-.48-4.42,0-1.62.22-3.37.67-5.25.44-1.88,1.12-3.64,2.04-5.25.92-1.62,2.1-2.96,3.54-4.04,1.44-1.08,3.16-1.62,5.16-1.62,1.24,0,2.31.27,3.21.81.9.54,1.65,1.24,2.23,2.12.59.87,1.03,1.85,1.33,2.92.3,1.08.45,2.14.45,3.18v.48c0,.16-.02.32-.05.48Z"/>
    <path class="st2" d="M312.65,187.64c0,.89-.23,1.79-.69,2.71-.46.92-1.01,1.83-1.66,2.73-.65.9-1.33,1.76-2.04,2.57-.71.81-1.34,1.54-1.88,2.21.44.7,1,1.62,1.66,2.78.67,1.16,1.3,2.38,1.9,3.68.6,1.3,1.12,2.57,1.54,3.8.43,1.24.64,2.27.64,3.09,0,.67-.21,1.28-.62,1.83-.41.55-.98.83-1.71.83-.54,0-1.09-.23-1.64-.69-.55-.46-1.11-1.06-1.66-1.81-.55-.74-1.09-1.58-1.59-2.49-.51-.92-.97-1.82-1.4-2.71-.43-.89-.81-1.72-1.14-2.49-.33-.78-.59-1.4-.78-1.88-.41.41-.85.75-1.31,1.02-.46.27-.91.58-1.35.93,0,.67-.02,1.6-.07,2.8-.05,1.2-.19,2.39-.43,3.56-.24,1.17-.63,2.19-1.16,3.07-.54.87-1.33,1.31-2.38,1.31-.82,0-1.46-.37-1.9-1.12-.44-.74-.77-1.62-.97-2.61-.21-1-.33-2.01-.36-3.04-.03-1.03-.05-1.81-.05-2.35,0-2.34.06-4.69.19-7.03.13-2.34.21-4.69.24-7.03,0-.54,0-1.24.02-2.12.02-.87.07-1.81.17-2.83.1-1.01.24-2.04.43-3.09.19-1.05.46-1.99.81-2.83.35-.84.8-1.52,1.35-2.04.55-.52,1.23-.78,2.02-.78.57,0,1.05.21,1.45.64.4.43.71.97.95,1.64.24.67.41,1.41.52,2.23.11.82.19,1.64.24,2.45.05.81.07,1.56.07,2.26v1.66c0,.29,0,.71-.02,1.26-.02.55-.03,1.13-.05,1.73-.02.6-.02,1.16-.02,1.66s.03.87.1,1.09c.22,0,.55-.21,1-.64.44-.43.96-.97,1.54-1.64.59-.67,1.22-1.37,1.9-2.12.68-.74,1.38-1.45,2.09-2.11.71-.67,1.42-1.21,2.11-1.64.7-.43,1.35-.64,1.95-.64.63,0,1.12.22,1.47.67.35.44.52.95.52,1.52Z"/>
    <ellipse class="st2" cx="186.05" cy="173.8" rx="5.6" ry=".95"/>
    <path class="st1" d="M204.57,113.86l-2.88-1.54c-.66-.35-.66-1.31,0-1.66l2.9-1.51c.26-.13.44-.38.49-.67l.57-3.22c.13-.74,1.04-1.03,1.58-.51l2.33,2.29c.21.2.5.3.78.26l3.24-.45c.75-.1,1.3.67.97,1.34l-1.46,2.93c-.13.26-.13.57,0,.83l1.43,2.94c.33.68-.23,1.45-.98,1.34l-3.23-.48c-.29-.04-.58.05-.79.25l-2.35,2.27c-.54.52-1.45.22-1.57-.52l-.54-3.22c-.05-.29-.23-.53-.48-.67Z"/>
    <path class="st2" d="M186.64,168.8c-1.83-1.82-3.59-3.77-4.85-6.04-.47-.85-1.93-3.51-.8-4.39.87-.68,2.68-.17,3.63.04,1.49.32,2.94.85,4.44,1.11,1.93.33,3.91-.26,4.54-2.3s-.16-4.25-.61-6.19c-.99-4.27-2.1-8.59-2.13-13-.03-5.23,1.93-9.72,5.93-13.12.92-.78-.42-2.09-1.33-1.32-3.58,3.04-5.8,7.03-6.34,11.71s.44,9.14,1.44,13.54c.49,2.18,1.38,4.56,1.37,6.8,0,3.08-3.15,1.91-5.07,1.4-2.13-.57-6.16-1.87-7.66.55-1.04,1.68-.09,4.02.69,5.59,1.31,2.64,3.36,4.89,5.43,6.96.85.85,2.17-.48,1.32-1.33h0Z"/>
  </g>
</svg>