<?xml version="1.0" encoding="UTF-8"?>
<svg id="Layer_1" xmlns="http://www.w3.org/2000/svg" version="1.1" viewBox="0 0 465.29 311.71">
  <!-- Generator: Adobe Illustrator 29.7.1, SVG Export Plug-In . SVG Version: 2.1.1 Build 8)  -->
  <defs>
    <style>
      .st0 {
        fill: #fff7f0;
        stroke: #e44c17;
        stroke-miterlimit: 10;
        stroke-width: 2.34px;
      }

      .st1 {
        fill: #e44c17;
      }

      .st2 {
        fill: #fdf6ef;
      }
    </style>
  </defs>
  <rect class="st0" x="43.76" y="40.46" width="377.77" height="230.79" rx="23.6" ry="23.6"/>
  <g>
    <path class="st1" d="M168.17,126.95c0,.67-.08,1.37-.24,2.1s-.41,1.42-.76,2.05c-.35.63-.81,1.16-1.37,1.58-.56.42-1.24.63-2.05.63-1.23,0-2.14-.22-2.73-.66-.6-.44-1.02-.99-1.26-1.66-.25-.67-.38-1.37-.39-2.13-.02-.75-.04-1.46-.08-2.13-.03-.67-.15-1.22-.34-1.66-.19-.44-.6-.66-1.24-.66-.7,0-1.31.25-1.84.76-.53.51-.98,1.17-1.37,1.97-.39.81-.71,1.72-.97,2.73-.26,1.02-.47,2.02-.63,3.02s-.27,1.95-.34,2.84c-.07.89-.11,1.62-.11,2.18,0,.74.03,1.61.08,2.63.05,1.02.22,1.99.5,2.92.28.93.7,1.72,1.26,2.37.56.65,1.37.97,2.42.97.7,0,1.38-.09,2.05-.26.67-.18,1.33-.38,2-.6.67-.23,1.34-.43,2.02-.6.68-.17,1.37-.26,2.08-.26.81,0,1.47.32,2,.97.53.65.79,1.38.79,2.18,0,1.12-.35,2.16-1.05,3.13-.7.96-1.57,1.81-2.6,2.55-1.03.74-2.16,1.31-3.36,1.74-1.21.42-2.31.63-3.29.63-2.52,0-4.66-.57-6.41-1.71-1.75-1.14-3.17-2.61-4.26-4.42-1.09-1.8-1.87-3.82-2.34-6.05-.47-2.23-.71-4.44-.71-6.65,0-1.47.14-3.08.42-4.84.28-1.75.7-3.51,1.26-5.28.56-1.77,1.27-3.48,2.13-5.13s1.87-3.1,3.02-4.36c1.16-1.26,2.46-2.28,3.92-3.05,1.45-.77,3.06-1.16,4.81-1.16s3.15.43,4.31,1.29c1.16.86,2.08,1.94,2.79,3.26.7,1.31,1.19,2.75,1.47,4.31.28,1.56.42,3.04.42,4.44Z"/>
    <path class="st1" d="M195.22,140.09c0,.6,0,1.48-.03,2.66-.02,1.17-.07,2.4-.16,3.68-.09,1.28-.2,2.49-.34,3.63s-.32,1.97-.53,2.5c-.28.67-.65,1.24-1.1,1.74-.46.49-1.07.74-1.84.74-1.19,0-2.05-.47-2.58-1.42-.53-.95-.88-2.12-1.05-3.52-.18-1.4-.25-2.93-.21-4.57.03-1.65.02-3.17-.05-4.57-.07-1.4-.26-2.58-.58-3.52-.32-.95-.89-1.42-1.73-1.42-1.16,0-2.04.18-2.66.55-.61.37-1.05.85-1.31,1.45-.26.6-.42,1.28-.47,2.05-.05.77-.11,1.58-.18,2.42-.07.81-.12,1.89-.16,3.26s-.19,2.72-.47,4.05c-.28,1.33-.75,2.48-1.39,3.44s-1.6,1.45-2.86,1.45c-.77,0-1.39-.3-1.87-.89-.47-.6-.85-1.37-1.13-2.31-.28-.95-.48-2-.6-3.15s-.19-2.29-.21-3.39c-.02-1.1-.02-2.11,0-3.02.02-.91.03-1.59.03-2.05,0-.7.03-1.86.08-3.47.05-1.61.17-3.41.34-5.39.17-1.98.4-4.02.68-6.12.28-2.1.65-4.02,1.1-5.76.46-1.74,1.01-3.15,1.66-4.23.65-1.09,1.41-1.61,2.29-1.58.56.03,1.04.28,1.45.74.4.46.74,1.04,1,1.76.26.72.48,1.5.66,2.34.18.84.31,1.67.39,2.5.09.82.14,1.59.16,2.29.02.7.03,1.24.03,1.63,0,.91-.02,1.82-.05,2.73-.04.91-.09,1.82-.16,2.73.81-1.09,1.88-1.98,3.23-2.68,1.35-.7,2.71-1.05,4.07-1.05,1.75,0,3.08.48,3.97,1.45.89.96,1.53,2.16,1.92,3.58.39,1.42.6,2.93.63,4.52.03,1.6.05,3.02.05,4.28Z"/>
    <path class="st1" d="M296.46,124.79c0,1.02-.34,1.77-1.02,2.26-.68.49-1.45.95-2.29,1.39-.84.44-1.6.96-2.29,1.55-.68.6-1.02,1.49-1.02,2.68,0,.63.15,1.17.45,1.63.3.46.67.87,1.1,1.24.44.37.92.75,1.45,1.13.53.39,1.01.82,1.45,1.31.44.49.81,1.09,1.1,1.79.3.7.45,1.56.45,2.58,0,1.47-.38,2.92-1.13,4.34-.75,1.42-1.72,2.68-2.89,3.78-1.17,1.1-2.5,1.99-3.97,2.66-1.47.67-2.93,1-4.36,1-.6,0-1.19-.04-1.79-.13-.6-.09-1.13-.25-1.6-.5-.47-.24-.87-.59-1.18-1.02-.32-.44-.47-1.01-.47-1.71,0-.98.19-1.74.58-2.29.39-.54.88-.97,1.47-1.29.6-.32,1.24-.56,1.92-.74.68-.17,1.32-.39,1.92-.66.6-.26,1.09-.6,1.47-1.03.39-.42.58-1.02.58-1.79s-.29-1.5-.87-2.29c-.58-.79-1.22-1.63-1.92-2.52-.7-.89-1.34-1.85-1.92-2.87-.58-1.02-.87-2.14-.87-3.36,0-1.51.31-2.9.92-4.18.61-1.28,1.44-2.39,2.47-3.34,1.03-.95,2.22-1.69,3.55-2.23,1.33-.54,2.73-.82,4.21-.82.56,0,1.11.05,1.66.16.54.11,1.02.29,1.45.55.42.26.76.61,1.02,1.05.26.44.39.99.39,1.66Z"/>
    <path class="st1" d="M321.67,144.35c0,1.19-.38,2.36-1.13,3.5-.75,1.14-1.7,2.16-2.84,3.05s-2.36,1.61-3.65,2.16c-1.3.54-2.49.81-3.58.81-1.86,0-3.51-.46-4.97-1.39-1.45-.93-2.67-2.11-3.65-3.55-.98-1.44-1.73-3.02-2.23-4.76-.51-1.73-.76-3.43-.76-5.07,0-1.75.24-3.63.74-5.63.49-2,1.24-3.84,2.23-5.52s2.26-3.08,3.79-4.21c1.52-1.12,3.34-1.68,5.44-1.68,1.19,0,2.33.2,3.42.6,1.09.4,2.03.97,2.84,1.71.81.74,1.45,1.61,1.94,2.63.49,1.02.74,2.16.74,3.42,0,1.65-.35,3.19-1.05,4.63-.7,1.44-1.63,2.68-2.79,3.73-1.16,1.05-2.49,1.9-4,2.55-1.51.65-3.05,1.01-4.63,1.08.14,1.02.55,1.75,1.24,2.21.68.46,1.5.68,2.44.68.7,0,1.38-.17,2.05-.53.67-.35,1.31-.74,1.95-1.18.63-.44,1.25-.83,1.87-1.18.61-.35,1.24-.53,1.87-.53.7,0,1.33.23,1.89.68.56.46.84,1.05.84,1.79ZM313.16,131.47c0-.45-.12-.93-.37-1.42-.25-.49-.63-.74-1.16-.74-.77,0-1.42.2-1.94.6-.53.4-.97.91-1.31,1.52-.35.61-.62,1.27-.82,1.97-.19.7-.31,1.35-.34,1.95.49-.11,1.08-.24,1.76-.42.68-.17,1.33-.41,1.95-.71.61-.3,1.14-.67,1.58-1.13.44-.45.66-1,.66-1.63Z"/>
    <path class="st1" d="M243,194.65c0,.98-.25,1.78-.74,2.39-.49.61-1.24.92-2.26.92-.81,0-1.55-.25-2.23-.74-.68-.49-1.31-1.1-1.89-1.81-.58-.72-1.09-1.48-1.52-2.29-.44-.81-.8-1.51-1.08-2.1-.74-1.47-1.46-2.94-2.18-4.42-.72-1.47-1.43-2.96-2.13-4.47l-3.15,1.94c.03,1.02-.02,2.03-.16,3.05-.14,1.02-.25,2.03-.32,3.05-.07.7-.18,1.46-.34,2.29-.16.82-.41,1.6-.76,2.31-.35.72-.82,1.32-1.42,1.81-.6.49-1.33.74-2.21.74-.81,0-1.47-.17-2-.5-.53-.33-.95-.76-1.29-1.29-.33-.53-.57-1.12-.71-1.79-.14-.67-.21-1.35-.21-2.05v-.42c0-2.07.11-4.14.34-6.23.23-2.08.38-4.18.45-6.28.07-2.77.16-5.54.26-8.31.1-2.77.24-5.54.42-8.31.03-.63.14-1.24.32-1.84.17-.6.44-1.13.79-1.6.35-.47.78-.85,1.29-1.13.51-.28,1.11-.42,1.81-.42,1.09,0,1.9.39,2.44,1.16.54.77.92,1.7,1.13,2.79.21,1.09.31,2.21.29,3.36-.02,1.16-.03,2.12-.03,2.89,0,2.21-.05,4.42-.16,6.62,1.02-.84,2.01-1.81,2.97-2.89.96-1.09,1.81-2.19,2.55-3.31.45-.67.98-1.59,1.58-2.76.6-1.17,1.24-2.31,1.94-3.42.7-1.1,1.47-2.07,2.31-2.89.84-.82,1.73-1.24,2.68-1.24,1.02,0,1.76.29,2.23.87.47.58.71,1.34.71,2.29,0,1.4-.22,2.84-.66,4.31-.44,1.47-1.02,2.92-1.76,4.34-.74,1.42-1.57,2.77-2.5,4.05-.93,1.28-1.87,2.39-2.81,3.34.98,1.65,1.91,3.3,2.79,4.97.88,1.66,1.75,3.34,2.63,5.02.32.56.62,1.17.92,1.84.3.67.57,1.35.82,2.05.24.7.45,1.4.6,2.1.16.7.24,1.37.24,2Z"/>
    <path class="st1" d="M255.07,178.14v1.55c0,.54-.02,1.06-.05,1.55-.03.6-.05,1.39-.05,2.39s-.03,2.08-.1,3.23c-.07,1.16-.18,2.33-.34,3.52-.16,1.19-.41,2.28-.76,3.26-.35.98-.82,1.78-1.39,2.39-.58.61-1.31.94-2.18.97-.67.03-1.23-.23-1.68-.79-.46-.56-.83-1.29-1.13-2.18-.3-.89-.52-1.89-.66-3-.14-1.1-.25-2.17-.32-3.21-.07-1.03-.1-1.99-.1-2.86v-4.34c0-1.03.03-2.15.1-3.34.07-1.19.2-2.4.39-3.63.19-1.23.47-2.35.84-3.36s.85-1.84,1.45-2.47c.6-.63,1.35-.95,2.26-.95s1.66.47,2.16,1.42c.49.95.86,2.05,1.1,3.31.25,1.26.39,2.51.42,3.76.03,1.24.05,2.16.05,2.76ZM254.65,160.27c0,.49-.13.93-.39,1.31-.26.39-.6.73-1.02,1.02-.42.3-.88.53-1.37.68-.49.16-.95.24-1.37.24-.7,0-1.31-.17-1.84-.53-.53-.35-.79-.89-.79-1.63,0-.53.13-.99.39-1.39.26-.4.59-.74.97-1,.39-.26.82-.46,1.31-.6.49-.14.96-.21,1.42-.21.67,0,1.28.16,1.84.47.56.32.84.86.84,1.63Z"/>
    <path class="st1" d="M274.81,198.44c-.6,0-1.07-.27-1.42-.82-.35-.54-.61-1.16-.79-1.87s-.29-1.41-.34-2.13c-.05-.72-.08-1.27-.08-1.66,0-1.05.06-2.1.18-3.15.12-1.05.26-2.1.42-3.15s.3-2.1.42-3.15c.12-1.05.18-2.1.18-3.15,0-.42-.02-.88-.05-1.37-.03-.49-.11-.95-.24-1.39-.12-.44-.32-.8-.6-1.08-.28-.28-.65-.42-1.1-.42-.32,0-.67.25-1.05.76-.39.51-.74,1.09-1.08,1.73-.33.65-.61,1.3-.84,1.95-.23.65-.34,1.13-.34,1.45,0,.77,0,1.55.03,2.34.02.79.03,1.59.03,2.39v3.05c-.03.63-.09,1.28-.16,1.95-.07.67-.18,1.31-.32,1.94-.11.63-.26,1.24-.47,1.81-.21.58-.48,1.09-.81,1.52-.33.44-.73.8-1.18,1.08-.46.28-1,.42-1.63.42-.7,0-1.28-.23-1.74-.68-.46-.45-.82-1.04-1.1-1.76-.28-.72-.48-1.52-.6-2.42-.12-.89-.21-1.77-.26-2.63s-.07-1.65-.05-2.37c.02-.72.03-1.29.03-1.71v-2.47c0-1.33-.03-2.65-.08-3.94-.05-1.3-.08-2.59-.08-3.89,0-.7,0-1.59.03-2.68.02-1.09.15-2.15.39-3.18.24-1.03.65-1.92,1.21-2.66.56-.74,1.38-1.1,2.47-1.1.49,0,.93.16,1.31.47.39.32.73.7,1.02,1.16.3.46.54.95.74,1.47.19.53.34.98.45,1.37.35-.49.76-.96,1.24-1.42.47-.45,1.01-.86,1.6-1.21.6-.35,1.26-.63,2-.84.74-.21,1.58-.32,2.52-.32,1.79,0,3.18.43,4.18,1.29,1,.86,1.73,1.93,2.21,3.21.47,1.28.76,2.66.87,4.13.11,1.47.16,2.8.16,4,0,.6-.05,1.48-.16,2.66-.1,1.17-.27,2.47-.5,3.89-.23,1.42-.53,2.87-.92,4.36-.39,1.49-.84,2.85-1.37,4.07-.53,1.23-1.15,2.23-1.87,3-.72.77-1.53,1.16-2.44,1.16Z"/>
    <path class="st1" d="M308.74,162.37c0,2.56-.1,5.1-.29,7.62-.19,2.52-.29,5.06-.29,7.62,0,2.07.06,4.12.18,6.15.12,2.03.18,4.08.18,6.15,0,.56-.02,1.24-.05,2.02-.03.79-.15,1.55-.34,2.29-.19.74-.51,1.37-.95,1.89-.44.53-1.06.79-1.87.79-1.05,0-1.92-.39-2.6-1.18-.68-.79-1.11-1.67-1.29-2.66-.67,1.26-1.63,2.33-2.89,3.21-1.26.88-2.63,1.31-4.1,1.31-1.58,0-2.94-.54-4.07-1.63-1.14-1.09-2.09-2.4-2.84-3.94-.75-1.54-1.31-3.15-1.68-4.84-.37-1.68-.55-3.14-.55-4.36,0-.88.05-1.87.16-3,.11-1.12.29-2.26.55-3.42.26-1.16.6-2.29,1.03-3.39.42-1.1.95-2.09,1.6-2.97.65-.88,1.42-1.58,2.31-2.1.89-.53,1.92-.79,3.08-.79,1.26,0,2.47.37,3.63,1.1,1.16.74,2.03,1.65,2.63,2.73l.47-8.36c.03-.67.09-1.45.16-2.34.07-.89.22-1.74.45-2.55.23-.81.59-1.49,1.08-2.05.49-.56,1.21-.84,2.16-.84,1.02,0,1.81.25,2.37.74.56.49.97,1.11,1.24,1.87.26.75.42,1.57.47,2.44.05.88.08,1.7.08,2.47ZM300.17,185.72c0-.81-.02-1.59-.05-2.37-.03-.77-.03-1.56,0-2.37-.21-.45-.46-.95-.74-1.5-.28-.54-.62-1.05-1.02-1.52-.4-.47-.85-.87-1.34-1.18-.49-.32-1.02-.47-1.58-.47-.63,0-1.14.19-1.52.58-.39.39-.67.85-.84,1.39-.18.54-.29,1.13-.34,1.76-.05.63-.08,1.17-.08,1.63,0,.42.03,1.04.11,1.87.07.82.2,1.66.39,2.5.19.84.46,1.58.81,2.21.35.63.82.95,1.42.95.45,0,.91-.1,1.37-.29.45-.19.89-.44,1.29-.74.4-.3.79-.63,1.16-1,.37-.37.69-.71.97-1.03v-.42Z"/>
    <path class="st1" d="M263.96,139.92c1.94-.13,4.12.22,6.02-.36,2.58-.79,4.99-2.73,5.53-5.38.34-1.68-.09-3.46-.86-4.95-.34-.66-.84-1.24-1.48-1.62-2.3-1.35-4.46.48-6.24,1.99-.89.76-2.25,2.07-3.55,2.77-.78.42-1.71-.24-1.57-1.11.16-.99.56-1.98.48-2.99-.15-1.78-.94-3.52-2.24-4.74-.72-.67-1.61-1.21-2.59-1.31-1.85-.19-3.57,1.23-4.31,2.94-.7,1.6.37,4.86-1.13,6-1.69,1.28-5.83-1.22-7.58-1.59-2.02-.43-4.43-.13-5.62,1.55-.81,1.13-.88,2.66-.75,4,.11,1.16.42,2.29.91,3.35.39.85.91,1.68,1.7,2.19,1.54,1,3.6.49,5.28-.24,1.15-.5,2.98-1.61,4.36-1.48.39.04.6.49.38.81-.76,1.06-2.01,1.73-2.89,2.71-1.08,1.21-2.02,2.55-2.8,3.98-.61,1.12-1.13,2.37-1,3.64.17,1.67,1.46,3.08,2.99,3.78,1.53.7,3.27.8,4.95.73,1.42-.06,2.96-.28,3.94-1.31.95-.99,1.14-2.49.97-3.85-.27-2.19-2.42-6.8-1.07-6.65,1.91.21,4.02,6.77,5.95,7.96,3.98,2.44,9.72,2.22,12.6-2.47.65-1.07.96-2.31.95-3.56,0-.4-.04-.82-.25-1.16-.33-.55-1-.77-1.63-.9-3.09-.61-6.94.31-9.77-1.26-.68-.38-.43-1.42.35-1.47Z"/>
    <path class="st2" d="M256.53,139.73l-1.9.94c-.46.23-.99-.16-.92-.67l.3-2.1c.03-.2-.04-.39-.17-.54l-1.48-1.52c-.36-.37-.16-.99.35-1.08l2.09-.36c.2-.03.36-.16.46-.33l.99-1.88c.24-.46.89-.46,1.13,0l.99,1.88c.09.18.26.3.46.33l2.09.36c.51.09.71.71.35,1.08l-1.48,1.52c-.14.14-.2.34-.17.54l.3,2.1c.07.51-.45.89-.92.67l-1.9-.94c-.18-.09-.39-.09-.57,0Z"/>
    <path class="st1" d="M224.51,139.92c1.94-.13,4.12.22,6.02-.36,2.58-.79,4.99-2.73,5.53-5.38.34-1.68-.09-3.46-.86-4.95-.34-.66-.84-1.24-1.48-1.62-2.3-1.35-4.46.48-6.24,1.99-.89.76-2.25,2.07-3.55,2.77-.78.42-1.71-.24-1.57-1.11.16-.99.56-1.98.48-2.99-.15-1.78-.94-3.52-2.24-4.74-.72-.67-1.61-1.21-2.59-1.31-1.85-.19-3.57,1.23-4.31,2.94-.7,1.6.37,4.86-1.13,6-1.69,1.28-5.83-1.22-7.58-1.59-2.02-.43-4.43-.13-5.62,1.55-.81,1.13-.88,2.66-.75,4,.11,1.16.42,2.29.91,3.35.39.85.91,1.68,1.7,2.19,1.54,1,3.6.49,5.28-.24,1.15-.5,2.98-1.61,4.36-1.48.39.04.6.49.38.81-.76,1.06-2.01,1.73-2.89,2.71-1.08,1.21-2.02,2.55-2.8,3.98-.61,1.12-1.13,2.37-1,3.64.17,1.67,1.46,3.08,2.99,3.78,1.53.7,3.27.8,4.95.73,1.42-.06,2.96-.28,3.94-1.31.95-.99,1.14-2.49.97-3.85-.27-2.19-2.42-6.8-1.07-6.65,1.91.21,4.02,6.77,5.95,7.96,3.98,2.44,9.72,2.22,12.6-2.47.65-1.07.96-2.31.95-3.56,0-.4-.04-.82-.25-1.16-.33-.55-1-.77-1.63-.9-3.09-.61-6.94.31-9.77-1.26-.68-.38-.43-1.42.35-1.47Z"/>
    <path class="st2" d="M217.08,139.73l-1.9.94c-.46.23-.99-.16-.92-.67l.3-2.1c.03-.2-.04-.39-.17-.54l-1.48-1.52c-.36-.37-.16-.99.35-1.08l2.09-.36c.2-.03.36-.16.46-.33l.99-1.88c.24-.46.89-.46,1.13,0l.99,1.88c.09.18.26.3.46.33l2.09.36c.51.09.71.71.35,1.08l-1.48,1.52c-.14.14-.2.34-.17.54l.3,2.1c.07.51-.45.89-.92.67l-1.9-.94c-.18-.09-.39-.09-.57,0Z"/>
  </g>
</svg>