<?xml version="1.0" encoding="UTF-8"?>
<svg id="Layer_1" xmlns="http://www.w3.org/2000/svg" version="1.1" viewBox="0 0 465.29 311.71">
  <!-- Generator: Adobe Illustrator 29.7.1, SVG Export Plug-In . SVG Version: 2.1.1 Build 8)  -->
  <defs>
    <style>
      .st0 {
        fill: #fff7f0;
        stroke: #dd2080;
        stroke-miterlimit: 10;
        stroke-width: 2.23px;
      }

      .st1 {
        fill: #dd2080;
      }
    </style>
  </defs>
  <rect class="st0" x="43.76" y="40.46" width="377.77" height="230.79" rx="22.49" ry="22.49"/>
  <g>
    <path class="st1" d="M173.55,111.06c0,1.3-.45,2.48-1.34,3.54-.89,1.06-1.98,2.01-3.26,2.85-1.28.84-2.63,1.57-4.03,2.18-1.4.62-2.62,1.13-3.65,1.54,0,.72-.02,1.46-.05,2.21-.03.75-.09,1.51-.15,2.26,1.1-.55,2.33-1.06,3.7-1.54,1.37-.48,2.67-.72,3.9-.72.99,0,1.81.2,2.44.62s.95,1.13.95,2.16c0,1.13-.4,2.14-1.21,3.03-.8.89-1.77,1.68-2.9,2.36-1.13.69-2.31,1.27-3.54,1.75-1.23.48-2.28.86-3.13,1.13,0,1.13-.02,2.25-.05,3.36-.03,1.11-.09,2.22-.15,3.31-.03.55-.09,1.23-.18,2.05-.09.82-.26,1.62-.51,2.39-.26.77-.63,1.44-1.1,2-.48.56-1.1.85-1.85.85s-1.34-.35-1.85-1.05c-.51-.7-.95-1.6-1.31-2.7-.36-1.1-.65-2.32-.87-3.67-.22-1.35-.39-2.68-.51-3.98-.12-1.3-.19-2.5-.21-3.59-.02-1.1-.03-1.93-.03-2.52,0-.44,0-1.1.03-1.98.02-.87.03-1.84.05-2.9.02-1.06.05-2.17.1-3.34.05-1.16.11-2.27.18-3.31.07-1.04.16-1.97.28-2.77.12-.8.26-1.39.44-1.77.38-.75,1.28-1.5,2.7-2.23,1.42-.74,3-1.39,4.75-1.95,1.75-.56,3.45-1.03,5.11-1.39,1.66-.36,2.93-.54,3.83-.54.41,0,.81.03,1.21.08s.76.16,1.1.33c.34.17.62.41.82.72.21.31.31.72.31,1.23Z"/>
    <path class="st1" d="M183.74,129.75v1.52c0,.53-.02,1.04-.05,1.52-.03.58-.05,1.36-.05,2.34s-.03,2.03-.1,3.16c-.07,1.13-.18,2.28-.33,3.44-.15,1.16-.4,2.23-.74,3.18-.34.96-.8,1.74-1.36,2.34-.56.6-1.28.92-2.13.95-.65.03-1.2-.22-1.64-.77-.45-.55-.81-1.26-1.1-2.13-.29-.87-.51-1.85-.64-2.93-.14-1.08-.24-2.12-.31-3.13-.07-1.01-.1-1.94-.1-2.8v-4.24c0-1.01.03-2.1.1-3.26.07-1.16.2-2.34.39-3.54.19-1.2.46-2.29.82-3.29s.83-1.8,1.41-2.41c.58-.62,1.32-.92,2.21-.92s1.63.46,2.11,1.39c.48.92.84,2,1.08,3.24.24,1.23.38,2.46.41,3.67.03,1.22.05,2.11.05,2.7ZM183.33,112.29c0,.48-.13.91-.39,1.28-.26.38-.59.71-1,1-.41.29-.86.51-1.33.67-.48.15-.92.23-1.34.23-.68,0-1.28-.17-1.8-.51-.51-.34-.77-.87-.77-1.59,0-.51.13-.97.39-1.36.26-.39.57-.72.95-.98.38-.26.8-.45,1.28-.59.48-.14.94-.21,1.39-.21.65,0,1.25.15,1.8.46.55.31.82.84.82,1.59Z"/>
    <path class="st1" d="M203.02,149.57c-.58,0-1.05-.27-1.39-.8-.34-.53-.6-1.14-.77-1.82-.17-.68-.28-1.38-.33-2.08-.05-.7-.08-1.24-.08-1.62,0-1.03.06-2.05.18-3.08.12-1.03.26-2.05.41-3.08s.29-2.05.41-3.08c.12-1.03.18-2.05.18-3.08,0-.41-.02-.86-.05-1.34-.03-.48-.11-.93-.23-1.36-.12-.43-.32-.78-.59-1.05-.27-.27-.63-.41-1.08-.41-.31,0-.65.25-1.03.74-.38.5-.73,1.06-1.05,1.69-.33.63-.6,1.27-.82,1.9-.22.63-.33,1.1-.33,1.41,0,.75,0,1.52.03,2.29.02.77.03,1.55.03,2.34v2.98c-.03.62-.09,1.25-.15,1.9-.07.65-.17,1.28-.31,1.9-.1.62-.26,1.21-.46,1.77-.21.56-.47,1.06-.8,1.49-.33.43-.71.78-1.16,1.05-.45.27-.98.41-1.59.41-.69,0-1.25-.22-1.69-.67-.45-.44-.8-1.02-1.08-1.72-.27-.7-.47-1.49-.59-2.36-.12-.87-.21-1.73-.26-2.57-.05-.84-.07-1.61-.05-2.31.02-.7.03-1.26.03-1.67v-2.41c0-1.3-.03-2.58-.08-3.85-.05-1.27-.08-2.53-.08-3.8,0-.68,0-1.56.03-2.62.02-1.06.15-2.1.39-3.11.24-1.01.63-1.87,1.18-2.59.55-.72,1.35-1.08,2.41-1.08.48,0,.91.15,1.28.46.38.31.71.69,1,1.13.29.45.53.92.72,1.44.19.51.33.96.44,1.34.34-.48.74-.94,1.21-1.39.46-.44.98-.84,1.57-1.18.58-.34,1.23-.62,1.95-.82.72-.2,1.54-.31,2.46-.31,1.75,0,3.11.42,4.08,1.26.98.84,1.69,1.88,2.16,3.13.46,1.25.74,2.59.85,4.03.1,1.44.15,2.74.15,3.9,0,.58-.05,1.45-.15,2.59-.1,1.15-.27,2.41-.49,3.8-.22,1.39-.52,2.81-.9,4.26-.38,1.46-.82,2.78-1.33,3.98-.51,1.2-1.12,2.17-1.82,2.93-.7.75-1.5,1.13-2.39,1.13Z"/>
    <path class="st1" d="M236.17,114.34c0,2.5-.09,4.98-.28,7.45-.19,2.47-.28,4.95-.28,7.45,0,2.02.06,4.02.18,6.01.12,1.99.18,3.99.18,6.01,0,.55-.02,1.21-.05,1.98-.03.77-.15,1.52-.33,2.23-.19.72-.5,1.33-.92,1.85-.43.51-1.04.77-1.82.77-1.03,0-1.87-.39-2.54-1.15-.67-.77-1.09-1.64-1.26-2.59-.65,1.23-1.59,2.28-2.82,3.13-1.23.86-2.57,1.28-4.01,1.28-1.54,0-2.87-.53-3.98-1.59-1.11-1.06-2.04-2.34-2.77-3.85-.74-1.51-1.28-3.08-1.64-4.72s-.54-3.06-.54-4.26c0-.86.05-1.83.15-2.93.1-1.1.28-2.21.54-3.34s.59-2.23,1-3.31c.41-1.08.93-2.05,1.57-2.9.63-.86,1.39-1.54,2.26-2.05.87-.51,1.87-.77,3-.77,1.23,0,2.41.36,3.54,1.08,1.13.72,1.99,1.61,2.57,2.67l.46-8.17c.03-.65.09-1.41.15-2.28.07-.87.21-1.7.44-2.49.22-.79.57-1.45,1.05-2,.48-.55,1.18-.82,2.11-.82.99,0,1.76.24,2.31.72.55.48.95,1.09,1.21,1.82.26.74.41,1.53.46,2.39.05.86.08,1.66.08,2.41ZM227.8,137.14c0-.79-.02-1.56-.05-2.31-.03-.75-.03-1.52,0-2.31-.21-.44-.45-.93-.72-1.46-.27-.53-.61-1.03-1-1.49-.39-.46-.83-.85-1.31-1.15-.48-.31-.99-.46-1.54-.46-.62,0-1.11.19-1.49.56-.38.38-.65.83-.82,1.36-.17.53-.28,1.1-.33,1.72-.05.62-.08,1.15-.08,1.59,0,.41.03,1.02.1,1.82.07.81.2,1.62.38,2.44.19.82.45,1.54.8,2.16.34.62.8.92,1.39.92.45,0,.89-.09,1.34-.28.44-.19.86-.43,1.26-.72.39-.29.77-.62,1.13-.98s.68-.69.95-1v-.41Z"/>
    <path class="st1" d="M262.47,144.06c-1.8,0-3.19-.23-4.19-.7-1-.47-1.74-1.13-2.24-1.99-.49-.86-.79-1.9-.89-3.11-.1-1.21-.15-2.57-.15-4.06,0-1.19.04-2.38.11-3.58.08-1.2.19-2.48.34-3.85-.35,0-.63,0-.83.02-.2.01-.37.02-.49.02-.81,0-1.51-.18-2.1-.53-.59-.35-.89-.9-.89-1.63,0-.46.17-.86.51-1.21.34-.35.78-.66,1.31-.91.53-.25,1.11-.46,1.73-.61.62-.15,1.21-.25,1.76-.3,0-.71.05-1.49.15-2.35.1-.86.28-1.66.55-2.41.27-.75.63-1.37,1.08-1.88.46-.51,1.04-.76,1.74-.76.4,0,.76.12,1.08.36.32.24.57.54.78.91.2.37.35.78.46,1.23.1.46.15.9.15,1.33,0,.51-.04,1.02-.11,1.55s-.22,1.19-.42,1.97c.43-.05.72-.08.87-.09.15-.01.29-.02.42-.02.43,0,.88.04,1.35.11.47.08.9.2,1.29.38.39.18.71.41.97.7.25.29.38.64.38,1.04,0,.46-.18.86-.55,1.21-.37.35-.83.66-1.38.91-.56.25-1.15.45-1.78.59-.63.14-1.23.23-1.78.28-.15,1.04-.26,1.99-.32,2.86-.06.87-.13,1.75-.21,2.64-.05.43-.09.87-.13,1.31-.04.44-.06.89-.06,1.35,0,.33.01.71.04,1.16.03.44.11.87.27,1.27.15.4.39.75.72,1.04.33.29.78.44,1.37.44.35,0,.72-.03,1.1-.09.38-.06.76-.09,1.14-.09.66,0,1.13.23,1.42.68.29.46.44,1.04.44,1.74,0,.53-.16.99-.47,1.38-.32.39-.71.71-1.19.95-.48.24-1.02.42-1.61.55-.59.13-1.16.19-1.69.19Z"/>
    <path class="st1" d="M286.19,132.88c0,.43,0,1.07-.02,1.91-.01.85-.05,1.73-.11,2.65-.06.92-.15,1.8-.25,2.62-.1.82-.23,1.42-.38,1.8-.2.48-.47.9-.8,1.25-.33.35-.77.53-1.33.53-.86,0-1.48-.34-1.86-1.02s-.63-1.53-.76-2.54c-.13-1.01-.18-2.11-.15-3.3.03-1.19.01-2.29-.04-3.3-.05-1.01-.19-1.86-.42-2.54s-.64-1.02-1.25-1.02c-.83,0-1.47.13-1.91.4-.44.27-.76.61-.95,1.04-.19.43-.3.92-.34,1.48-.04.56-.08,1.14-.13,1.74-.05.58-.09,1.37-.11,2.35-.03.99-.14,1.96-.34,2.92-.2.96-.54,1.79-1,2.48-.47.69-1.16,1.04-2.07,1.04-.56,0-1-.22-1.35-.64s-.61-.99-.82-1.67c-.2-.68-.35-1.44-.44-2.28-.09-.83-.14-1.65-.15-2.45-.01-.8-.01-1.52,0-2.18.01-.66.02-1.15.02-1.48,0-.51.02-1.34.06-2.5.04-1.16.12-2.46.25-3.89.13-1.43.29-2.9.49-4.42.2-1.52.47-2.9.8-4.15.33-1.25.73-2.27,1.19-3.05.47-.78,1.02-1.16,1.65-1.14.4.03.75.2,1.04.53.29.33.53.75.72,1.27.19.52.35,1.08.47,1.69.13.61.22,1.21.28,1.8.06.59.1,1.14.11,1.65.01.51.02.9.02,1.18,0,.66-.01,1.32-.04,1.97-.03.66-.06,1.32-.11,1.97.58-.78,1.36-1.43,2.33-1.93.97-.51,1.95-.76,2.94-.76,1.26,0,2.22.35,2.86,1.04.64.7,1.11,1.55,1.38,2.58.28,1.02.43,2.11.46,3.26.03,1.15.04,2.18.04,3.09Z"/>
    <path class="st1" d="M305.55,135.95c0,.86-.27,1.7-.82,2.52-.54.82-1.23,1.55-2.05,2.2-.82.64-1.7,1.16-2.64,1.55-.94.39-1.8.59-2.58.59-1.34,0-2.53-.33-3.58-1-1.05-.67-1.93-1.52-2.64-2.56-.71-1.04-1.25-2.18-1.61-3.43-.37-1.25-.55-2.47-.55-3.66,0-1.26.18-2.62.53-4.06.35-1.44.89-2.77,1.61-3.98s1.63-2.22,2.73-3.03c1.1-.81,2.41-1.21,3.92-1.21.86,0,1.68.15,2.46.44.78.29,1.47.7,2.05,1.23.58.53,1.05,1.16,1.4,1.9.35.73.53,1.55.53,2.46,0,1.19-.25,2.3-.76,3.34-.51,1.04-1.18,1.93-2.01,2.69-.83.76-1.8,1.37-2.88,1.84-1.09.47-2.2.73-3.34.78.1.73.4,1.26.89,1.59.49.33,1.08.49,1.76.49.51,0,1-.13,1.48-.38.48-.25.95-.54,1.4-.85.46-.32.9-.6,1.35-.85.44-.25.89-.38,1.35-.38.51,0,.96.16,1.37.49.4.33.61.76.61,1.29ZM299.4,126.66c0-.33-.09-.67-.27-1.02-.18-.35-.46-.53-.83-.53-.56,0-1.02.15-1.4.44-.38.29-.7.66-.95,1.1-.25.44-.45.92-.59,1.42-.14.51-.22.97-.25,1.4.35-.08.78-.18,1.27-.3.49-.13.96-.3,1.4-.51.44-.21.82-.49,1.14-.82.32-.33.47-.72.47-1.18Z"/>
    <path class="st1" d="M225.27,179.91c-.31,1.54-.8,3.14-1.46,4.8-.67,1.66-1.52,3.18-2.57,4.54-1.05,1.37-2.29,2.49-3.72,3.36s-3.08,1.31-4.93,1.31c-1.37,0-2.6-.27-3.7-.82-1.1-.55-2.09-1.28-2.98-2.21s-1.66-1.98-2.31-3.18c-.65-1.2-1.19-2.44-1.62-3.72-.43-1.28-.74-2.56-.95-3.83-.21-1.27-.31-2.45-.31-3.54,0-1.54.15-3.19.44-4.96.29-1.76.73-3.51,1.31-5.24.58-1.73,1.32-3.39,2.21-4.98s1.94-3,3.16-4.21,2.58-2.19,4.11-2.93c1.52-.74,3.23-1.1,5.11-1.1,1.2,0,2.31.23,3.34.69,1.03.46,1.92,1.08,2.67,1.85.75.77,1.34,1.69,1.77,2.75.43,1.06.64,2.17.64,3.34v.46c0,.62-.03,1.38-.08,2.29-.05.91-.21,1.77-.49,2.59-.27.82-.69,1.53-1.23,2.13-.55.6-1.32.9-2.31.9-1.2,0-2.11-.27-2.72-.82-.62-.55-.92-1.45-.92-2.72,0-.48.02-.96.05-1.44.03-.48.05-.96.05-1.44,0-.72-.12-1.27-.36-1.67-.24-.39-.74-.59-1.49-.59-.86,0-1.63.27-2.31.82-.69.55-1.28,1.27-1.8,2.16-.51.89-.96,1.9-1.34,3.03-.38,1.13-.69,2.27-.92,3.41-.24,1.15-.41,2.25-.51,3.31-.1,1.06-.15,1.97-.15,2.72,0,.62.03,1.33.1,2.13.07.81.21,1.58.44,2.31.22.74.56,1.36,1,1.87.44.51,1.03.77,1.75.77,1.23,0,2.23-.39,2.98-1.16.75-.77,1.27-1.75,1.54-2.95-.48-.07-.95-.18-1.41-.33-.46-.15-.89-.38-1.28-.67-.39-.29-.71-.65-.95-1.08-.24-.43-.36-.93-.36-1.51,0-1.06.36-1.89,1.08-2.49.72-.6,1.57-1.05,2.54-1.36.98-.31,1.98-.51,3-.59,1.03-.08,1.85-.13,2.47-.13.44,0,1.1.03,1.95.1.86.07,1.7.21,2.54.44.84.22,1.57.54,2.18.95.62.41.92.94.92,1.59,0,1.3-.35,2.42-1.05,3.36-.7.94-1.74,1.5-3.11,1.67Z"/>
    <path class="st1" d="M312.65,158.44c0,2.5-.09,4.98-.28,7.45-.19,2.47-.28,4.95-.28,7.45,0,2.02.06,4.02.18,6.01.12,1.99.18,3.99.18,6.01,0,.55-.02,1.21-.05,1.98-.03.77-.15,1.52-.33,2.23-.19.72-.5,1.33-.92,1.85-.43.51-1.04.77-1.82.77-1.03,0-1.87-.39-2.54-1.15-.67-.77-1.09-1.64-1.26-2.59-.65,1.23-1.59,2.28-2.82,3.13-1.23.86-2.57,1.28-4.01,1.28-1.54,0-2.87-.53-3.98-1.59-1.11-1.06-2.04-2.34-2.77-3.85-.74-1.51-1.28-3.08-1.64-4.72-.36-1.64-.54-3.06-.54-4.26,0-.86.05-1.83.15-2.93.1-1.1.28-2.21.54-3.34.26-1.13.59-2.23,1-3.31.41-1.08.93-2.05,1.57-2.9.63-.86,1.39-1.54,2.26-2.05.87-.51,1.87-.77,3-.77,1.23,0,2.41.36,3.54,1.08s1.99,1.61,2.57,2.67l.46-8.17c.03-.65.09-1.41.15-2.28.07-.87.21-1.7.44-2.49.22-.79.57-1.45,1.05-2,.48-.55,1.18-.82,2.11-.82.99,0,1.76.24,2.31.72.55.48.95,1.09,1.21,1.82.26.74.41,1.53.46,2.39.05.86.08,1.66.08,2.41ZM303.99,181.12c.18-.34.31-.66.38-.92.69-2.77-.79-6.16-3.17-7.69-.48-.31-.99-.46-1.54-.46-.62,0-1.11.19-1.49.56-.38.38-.65.83-.82,1.36-.17.53-.28,1.1-.33,1.72-.05.62-.08,1.15-.08,1.59,0,.41.03,1.02.1,1.82.07.81.2,1.62.38,2.44.19.82.45,1.54.8,2.16,1.55,2.79,4.65-.43,5.78-2.59Z"/>
    <path class="st1" d="M257.15,175.13l-5.87-3.24c-.43-.24-.73-.66-.8-1.15l-1.02-6.62c-.19-1.27-1.73-1.8-2.66-.92l-4.89,4.58c-.36.34-.86.49-1.35.41l-6.61-1.08c-1.26-.21-2.24,1.09-1.7,2.25l2.84,6.07c.21.45.2.97-.03,1.41l-3.07,5.96c-.59,1.14.34,2.47,1.61,2.31l6.65-.83c.49-.06.98.11,1.33.46l4.72,4.76c.9.91,2.45.44,2.7-.82l1.27-6.58c.09-.49.41-.9.85-1.12l5.99-3.01c1.14-.58,1.18-2.2.05-2.82ZM247.02,178.32c-.1.71-.27,1.37-.51,1.96-.24.6-.56,1.09-.95,1.48-.39.39-.86.58-1.41.58-.51,0-.97-.2-1.36-.6-.39-.4-.73-.91-1-1.52-.27-.61-.49-1.28-.64-2-.15-.73-.23-1.4-.23-2.02,0-.49.07-1.07.21-1.73.14-.66.33-1.29.59-1.89.26-.6.58-1.1.98-1.52.39-.41.85-.62,1.36-.62s.97.19,1.36.58c.39.39.72.88.98,1.48.26.6.45,1.24.59,1.93.14.69.21,1.32.21,1.89,0,.62-.05,1.29-.15,2Z"/>
    <path class="st1" d="M285.55,170.3c.63-1.11-.24-2.48-1.51-2.38l-6.68.55c-.49.04-.98-.15-1.31-.52l-4.51-4.95c-.86-.95-2.43-.54-2.73.71l-1.54,6.52c-.11.48-.44.88-.89,1.09l-6.11,2.76c-1.17.53-1.27,2.15-.17,2.81l5.73,3.48c.42.26.7.69.76,1.19l.74,6.66c.14,1.27,1.65,1.87,2.62,1.03l5.08-4.37c.37-.32.88-.45,1.36-.35l6.56,1.36c1.25.26,2.29-.99,1.79-2.18l-2.59-6.18c-.19-.46-.16-.97.09-1.4l3.32-5.82ZM276.95,178.28c-.05.64-.2,1.21-.46,1.7-.26.49-.65.82-1.17.98-.49.16-.98.1-1.48-.16-.5-.26-.97-.64-1.41-1.14-.45-.5-.85-1.07-1.22-1.72-.37-.64-.64-1.26-.83-1.86-.15-.47-.26-1.04-.33-1.71-.07-.67-.07-1.33,0-1.98.06-.65.22-1.23.47-1.74.25-.51.62-.85,1.11-1.01s.98-.11,1.47.14c.49.25.95.62,1.38,1.11.43.49.81,1.04,1.15,1.66.34.61.59,1.19.77,1.74.19.59.34,1.25.46,1.96.12.71.15,1.39.11,2.03Z"/>
    <path class="st1" d="M242.15,198.02c6.75,4.66,14.78,7.69,22.98,8.35,3.9.32,8.13-.13,11.45-2.35,3.02-2.01,5.12-5.14,5.29-8.82.1-2.25-3.39-2.24-3.49,0-.13,2.86-2.2,5.17-4.64,6.44-3.12,1.62-6.96,1.51-10.35,1.04-7-.98-13.67-3.67-19.48-7.69-1.86-1.28-3.6,1.75-1.76,3.02h0Z"/>
  </g>
</svg>