<?xml version="1.0" encoding="UTF-8"?>
<svg id="Layer_1" xmlns="http://www.w3.org/2000/svg" version="1.1" viewBox="0 0 465.29 311.71">
  <!-- Generator: Adobe Illustrator 29.7.1, SVG Export Plug-In . SVG Version: 2.1.1 Build 8)  -->
  <defs>
    <style>
      .st0, .st1, .st2, .st3, .st4 {
        fill: #523cac;
      }

      .st5 {
        fill: #fff7f0;
        stroke: #523cac;
        stroke-miterlimit: 10;
        stroke-width: 2.34px;
      }

      .st1 {
        opacity: .8;
      }

      .st2 {
        opacity: .4;
      }

      .st3 {
        opacity: .6;
      }

      .st4 {
        opacity: .2;
      }
    </style>
  </defs>
  <rect class="st5" x="43.76" y="40.46" width="377.77" height="230.79" rx="23.53" ry="23.53"/>
  <g>
    <path class="st0" d="M165.14,142.33c0,.88-.22,1.6-.66,2.16-.44.55-1.12.83-2.04.83-.73,0-1.4-.22-2.01-.66-.62-.44-1.18-.99-1.71-1.63-.52-.65-.98-1.33-1.37-2.06-.4-.73-.72-1.36-.97-1.89-.66-1.33-1.32-2.65-1.97-3.98-.65-1.33-1.29-2.67-1.92-4.03l-2.84,1.75c.03.92-.02,1.83-.14,2.75-.13.92-.22,1.83-.28,2.75-.06.63-.17,1.32-.31,2.06-.14.74-.37,1.44-.69,2.08-.32.65-.74,1.19-1.28,1.63-.54.44-1.2.66-1.99.66-.73,0-1.33-.15-1.8-.45-.47-.3-.86-.69-1.16-1.16-.3-.47-.51-1.01-.64-1.61-.13-.6-.19-1.21-.19-1.85v-.38c0-1.86.1-3.73.31-5.61.2-1.88.34-3.76.4-5.66.06-2.49.14-4.99.24-7.48.09-2.49.22-4.99.38-7.48.03-.57.13-1.12.28-1.66.16-.54.39-1.02.71-1.44.32-.43.7-.77,1.16-1.02.46-.25,1-.38,1.63-.38.98,0,1.71.35,2.2,1.04.49.7.83,1.53,1.02,2.51.19.98.28,1.99.26,3.03-.02,1.04-.02,1.91-.02,2.6,0,1.99-.05,3.98-.14,5.97.92-.76,1.81-1.63,2.68-2.61.87-.98,1.63-1.97,2.3-2.98.41-.6.88-1.43,1.42-2.49.54-1.06,1.12-2.08,1.75-3.08.63-.99,1.33-1.86,2.08-2.6.76-.74,1.56-1.11,2.42-1.11.92,0,1.59.26,2.01.78s.64,1.21.64,2.06c0,1.26-.2,2.56-.59,3.88-.4,1.33-.92,2.63-1.59,3.91-.66,1.28-1.41,2.49-2.25,3.65-.84,1.15-1.68,2.15-2.53,3.01.88,1.48,1.72,2.98,2.51,4.48.79,1.5,1.58,3.01,2.37,4.52.28.5.56,1.06.83,1.66.27.6.51,1.22.73,1.85.22.63.4,1.26.54,1.89.14.63.21,1.23.21,1.8Z"/>
    <path class="st0" d="M187.66,135.98c0,1.07-.34,2.12-1.02,3.15-.68,1.03-1.53,1.94-2.56,2.75-1.03.8-2.12,1.45-3.29,1.94-1.17.49-2.24.73-3.22.73-1.67,0-3.17-.42-4.48-1.25-1.31-.84-2.41-1.9-3.29-3.2-.88-1.29-1.56-2.72-2.01-4.29-.46-1.56-.69-3.09-.69-4.57,0-1.58.22-3.27.66-5.07.44-1.8,1.11-3.46,2.01-4.97.9-1.52,2.04-2.78,3.41-3.79,1.37-1.01,3.01-1.51,4.9-1.51,1.07,0,2.1.18,3.08.54.98.36,1.83.88,2.56,1.54.73.66,1.31,1.45,1.75,2.37.44.92.66,1.94.66,3.08,0,1.48-.32,2.87-.95,4.17-.63,1.29-1.47,2.41-2.51,3.36-1.04.95-2.24,1.71-3.6,2.3-1.36.58-2.75.91-4.17.97.13.92.5,1.58,1.11,1.99.62.41,1.35.62,2.2.62.63,0,1.25-.16,1.85-.47.6-.32,1.18-.67,1.75-1.07.57-.39,1.13-.75,1.68-1.07.55-.32,1.11-.47,1.68-.47.63,0,1.2.21,1.71.62.5.41.76.95.76,1.61ZM179.98,124.38c0-.41-.11-.84-.33-1.28-.22-.44-.57-.66-1.04-.66-.69,0-1.28.18-1.75.54-.47.36-.87.82-1.18,1.37-.32.55-.56,1.14-.73,1.78-.17.63-.28,1.22-.31,1.75.44-.1.97-.22,1.59-.38.62-.16,1.2-.37,1.75-.64.55-.27,1.03-.61,1.42-1.02.39-.41.59-.9.59-1.47Z"/>
    <path class="st0" d="M210.36,135.98c0,1.07-.34,2.12-1.02,3.15-.68,1.03-1.53,1.94-2.56,2.75-1.03.8-2.12,1.45-3.29,1.94-1.17.49-2.24.73-3.22.73-1.67,0-3.17-.42-4.48-1.25-1.31-.84-2.41-1.9-3.29-3.2-.88-1.29-1.56-2.72-2.01-4.29-.46-1.56-.69-3.09-.69-4.57,0-1.58.22-3.27.66-5.07.44-1.8,1.11-3.46,2.01-4.97.9-1.52,2.04-2.78,3.41-3.79,1.37-1.01,3.01-1.51,4.9-1.51,1.07,0,2.1.18,3.08.54.98.36,1.83.88,2.56,1.54.73.66,1.31,1.45,1.75,2.37.44.92.66,1.94.66,3.08,0,1.48-.32,2.87-.95,4.17-.63,1.29-1.47,2.41-2.51,3.36-1.04.95-2.24,1.71-3.6,2.3-1.36.58-2.75.91-4.17.97.13.92.5,1.58,1.11,1.99.62.41,1.35.62,2.2.62.63,0,1.25-.16,1.85-.47.6-.32,1.18-.67,1.75-1.07.57-.39,1.13-.75,1.68-1.07.55-.32,1.11-.47,1.68-.47.63,0,1.2.21,1.71.62.5.41.76.95.76,1.61ZM202.69,124.38c0-.41-.11-.84-.33-1.28-.22-.44-.57-.66-1.04-.66-.69,0-1.28.18-1.75.54-.47.36-.87.82-1.18,1.37-.32.55-.56,1.14-.73,1.78-.17.63-.28,1.22-.31,1.75.44-.1.97-.22,1.59-.38.62-.16,1.2-.37,1.75-.64.55-.27,1.03-.61,1.42-1.02.39-.41.59-.9.59-1.47Z"/>
    <path class="st0" d="M234.92,130.3c0,1.39-.15,2.91-.45,4.57-.3,1.66-.8,3.2-1.52,4.62-.71,1.42-1.64,2.61-2.79,3.55-1.15.95-2.6,1.42-4.33,1.42-.44,0-.9-.03-1.37-.1-.47-.06-.92-.17-1.35-.33-.43-.16-.81-.37-1.16-.64-.35-.27-.62-.62-.81-1.07l-.43,6.82c-.03.73-.06,1.59-.07,2.6-.02,1.01-.14,1.97-.38,2.89-.24.92-.63,1.7-1.18,2.34-.55.65-1.35.97-2.39.97-.6,0-1.11-.31-1.52-.92-.41-.62-.73-1.4-.97-2.34-.24-.95-.42-2.01-.54-3.17-.13-1.17-.21-2.29-.24-3.36-.03-1.07-.05-2.05-.05-2.94v-1.94c0-2.11-.02-4.22-.05-6.32-.03-2.1-.05-4.21-.05-6.32v-1.78c0-.8.03-1.68.09-2.63.06-.95.17-1.93.31-2.94.14-1.01.35-1.93.64-2.77.28-.84.65-1.52,1.09-2.04.44-.52.98-.78,1.61-.78.41,0,.78.12,1.11.36.33.24.62.54.85.9.24.36.43.75.59,1.16.16.41.28.79.38,1.14.98-1.1,2.11-1.94,3.39-2.51,1.28-.57,2.64-.85,4.1-.85s2.75.43,3.72,1.28c.96.85,1.72,1.91,2.27,3.17.55,1.26.94,2.61,1.16,4.05.22,1.44.33,2.74.33,3.91ZM228.15,129.92c0-.47-.04-.95-.12-1.44-.08-.49-.22-.95-.43-1.37-.21-.43-.5-.77-.88-1.04-.38-.27-.85-.4-1.42-.4-.76,0-1.56.24-2.39.73-.84.49-1.46,1.05-1.87,1.68-.16.25-.25.66-.28,1.23-.03.57-.05.99-.05,1.28,0,.22,0,.51.02.88.02.36.04.73.07,1.11.03.38.07.74.12,1.09.05.35.12.62.21.8.09.28.3.54.62.78.32.24.66.45,1.04.64.38.19.77.33,1.16.43.39.1.73.14,1.02.14.66,0,1.2-.25,1.61-.76.41-.5.73-1.1.97-1.8.24-.69.39-1.41.47-2.15.08-.74.12-1.35.12-1.82Z"/>
    <path class="st4" d="M228.69,181.89l-4.69,2.3c-1.77.87-3.79-.6-3.5-2.55l.74-5.17c.11-.75-.14-1.51-.67-2.06l-3.64-3.75c-1.37-1.41-.6-3.78,1.34-4.12l5.15-.89c.75-.13,1.39-.6,1.75-1.27l2.44-4.62c.92-1.74,3.41-1.74,4.33,0l2.44,4.62c.35.67,1,1.14,1.75,1.27l5.15.89c1.94.34,2.71,2.71,1.34,4.12l-3.64,3.75c-.53.54-.78,1.3-.67,2.06l.74,5.17c.28,1.95-1.74,3.42-3.5,2.55l-4.69-2.3c-.68-.34-1.48-.34-2.16,0Z"/>
    <path class="st2" d="M233.78,181.89l-4.69,2.3c-1.77.87-3.79-.6-3.5-2.55l.74-5.17c.11-.75-.14-1.51-.67-2.06l-3.64-3.75c-1.37-1.41-.6-3.78,1.34-4.12l5.15-.89c.75-.13,1.39-.6,1.75-1.27l2.44-4.62c.92-1.74,3.41-1.74,4.33,0l2.44,4.62c.35.67,1,1.14,1.75,1.27l5.15.89c1.94.34,2.71,2.71,1.34,4.12l-3.64,3.75c-.53.54-.78,1.3-.67,2.06l.74,5.17c.28,1.95-1.74,3.42-3.5,2.55l-4.69-2.3c-.68-.34-1.48-.34-2.16,0Z"/>
    <path class="st3" d="M238.87,181.89l-4.69,2.3c-1.77.87-3.79-.6-3.5-2.55l.74-5.17c.11-.75-.14-1.51-.67-2.06l-3.64-3.75c-1.37-1.41-.6-3.78,1.34-4.12l5.15-.89c.75-.13,1.39-.6,1.75-1.27l2.44-4.62c.92-1.74,3.41-1.74,4.33,0l2.44,4.62c.35.67,1,1.14,1.75,1.27l5.15.89c1.94.34,2.71,2.71,1.34,4.12l-3.64,3.75c-.53.54-.78,1.3-.67,2.06l.74,5.17c.28,1.95-1.74,3.42-3.5,2.55l-4.69-2.3c-.68-.34-1.48-.34-2.16,0Z"/>
    <path class="st1" d="M243.96,181.89l-4.69,2.3c-1.77.87-3.79-.6-3.5-2.55l.74-5.17c.11-.75-.14-1.51-.67-2.06l-3.64-3.75c-1.37-1.41-.6-3.78,1.34-4.12l5.15-.89c.75-.13,1.39-.6,1.75-1.27l2.44-4.62c.92-1.74,3.41-1.74,4.33,0l2.44,4.62c.35.67,1,1.14,1.75,1.27l5.15.89c1.94.34,2.71,2.71,1.34,4.12l-3.64,3.75c-.53.54-.78,1.3-.67,2.06l.74,5.17c.28,1.95-1.74,3.42-3.5,2.55l-4.69-2.3c-.68-.34-1.48-.34-2.16,0Z"/>
    <path class="st0" d="M249.05,181.89l-4.69,2.3c-1.77.87-3.79-.6-3.5-2.55l.74-5.17c.11-.75-.14-1.51-.67-2.06l-3.64-3.75c-1.37-1.41-.6-3.78,1.34-4.12l5.15-.89c.75-.13,1.39-.6,1.75-1.27l2.44-4.62c.92-1.74,3.41-1.74,4.33,0l2.44,4.62c.35.67,1,1.14,1.75,1.27l5.15.89c1.94.34,2.71,2.71,1.34,4.12l-3.64,3.75c-.53.54-.78,1.3-.67,2.06l.74,5.17c.28,1.95-1.74,3.42-3.5,2.55l-4.69-2.3c-.68-.34-1.48-.34-2.16,0Z"/>
    <path class="st0" d="M209.21,177.15c-.28,1.42-.73,2.9-1.35,4.43-.62,1.53-1.41,2.93-2.37,4.19-.96,1.26-2.11,2.3-3.43,3.1s-2.84,1.21-4.55,1.21c-1.26,0-2.4-.25-3.41-.76-1.01-.5-1.93-1.18-2.75-2.04-.82-.85-1.53-1.83-2.13-2.94-.6-1.1-1.1-2.25-1.49-3.43-.4-1.18-.69-2.36-.88-3.53-.19-1.17-.28-2.26-.28-3.27,0-1.42.13-2.94.4-4.57.27-1.63.67-3.24,1.21-4.83.54-1.59,1.21-3.13,2.04-4.59.82-1.47,1.79-2.76,2.91-3.88,1.12-1.12,2.38-2.02,3.79-2.7,1.4-.68,2.98-1.02,4.71-1.02,1.1,0,2.13.21,3.08.64.95.43,1.77.99,2.46,1.71.69.71,1.24,1.56,1.63,2.53.39.98.59,2.01.59,3.08v.43c0,.57-.02,1.27-.07,2.11-.05.84-.2,1.63-.45,2.39-.25.76-.63,1.41-1.14,1.97-.51.55-1.22.83-2.13.83-1.11,0-1.94-.25-2.51-.76-.57-.5-.85-1.34-.85-2.51,0-.44.02-.88.05-1.33.03-.44.05-.88.05-1.33,0-.66-.11-1.18-.33-1.54-.22-.36-.68-.54-1.37-.54-.79,0-1.5.25-2.13.76-.63.51-1.18,1.17-1.66,1.99-.47.82-.88,1.75-1.23,2.79-.35,1.04-.63,2.09-.85,3.15-.22,1.06-.38,2.08-.47,3.05-.09.98-.14,1.82-.14,2.51,0,.57.03,1.22.09,1.97.06.74.2,1.45.4,2.13.21.68.51,1.25.92,1.73.41.47.95.71,1.61.71,1.14,0,2.05-.36,2.75-1.07.69-.71,1.17-1.62,1.42-2.72-.44-.06-.88-.17-1.3-.31-.43-.14-.82-.35-1.18-.62-.36-.27-.66-.6-.88-.99-.22-.39-.33-.86-.33-1.4,0-.98.33-1.74.99-2.3.66-.55,1.44-.97,2.34-1.25.9-.28,1.82-.47,2.77-.54.95-.08,1.71-.12,2.27-.12.41,0,1.01.03,1.8.09.79.06,1.57.2,2.34.4.77.21,1.44.5,2.01.88.57.38.85.87.85,1.47,0,1.2-.32,2.23-.97,3.1-.65.87-1.6,1.38-2.87,1.54Z"/>
    <path class="st0" d="M274.73,171.56v1.4c0,.49-.02.96-.05,1.4-.03.54-.05,1.25-.05,2.15s-.03,1.87-.09,2.91c-.06,1.04-.17,2.1-.31,3.17-.14,1.07-.37,2.05-.69,2.94-.32.88-.73,1.6-1.25,2.15-.52.55-1.18.84-1.97.88-.6.03-1.11-.2-1.52-.71-.41-.5-.75-1.16-1.02-1.97-.27-.8-.47-1.71-.59-2.7-.13-.99-.22-1.96-.28-2.89-.06-.93-.09-1.79-.09-2.58v-3.91c0-.93.03-1.93.09-3.01.06-1.07.18-2.16.36-3.27.17-1.1.43-2.11.76-3.03s.77-1.66,1.3-2.23c.54-.57,1.21-.85,2.04-.85s1.5.43,1.94,1.28c.44.85.77,1.85.99,2.98.22,1.14.35,2.27.38,3.39.03,1.12.05,1.95.05,2.49ZM274.35,155.46c0,.44-.12.84-.36,1.18s-.54.66-.92.92c-.38.27-.79.47-1.23.62-.44.14-.85.21-1.23.21-.63,0-1.18-.16-1.66-.47-.47-.32-.71-.8-.71-1.47,0-.47.12-.89.35-1.26.24-.36.53-.66.88-.9.35-.24.74-.42,1.18-.54.44-.13.87-.19,1.28-.19.6,0,1.15.14,1.66.43.5.28.76.77.76,1.47Z"/>
    <path class="st0" d="M292.51,189.84c-.54,0-.96-.24-1.28-.73-.32-.49-.55-1.05-.71-1.68-.16-.63-.26-1.27-.31-1.92-.05-.65-.07-1.14-.07-1.49,0-.95.05-1.89.17-2.84.11-.95.24-1.89.38-2.84s.27-1.89.38-2.84c.11-.95.17-1.89.17-2.84,0-.38-.02-.79-.05-1.23-.03-.44-.1-.86-.21-1.25-.11-.39-.29-.72-.54-.97-.25-.25-.58-.38-.99-.38-.28,0-.6.23-.95.69-.35.46-.67.98-.97,1.56-.3.58-.55,1.17-.76,1.75-.21.58-.31,1.02-.31,1.3,0,.7,0,1.4.02,2.11.02.71.02,1.43.02,2.15v2.75c-.03.57-.08,1.15-.14,1.75-.06.6-.16,1.18-.28,1.75-.09.57-.24,1.11-.43,1.63-.19.52-.43.98-.73,1.37-.3.4-.66.72-1.07.97-.41.25-.9.38-1.47.38-.63,0-1.15-.21-1.56-.62-.41-.41-.74-.94-.99-1.59-.25-.65-.43-1.37-.54-2.18-.11-.8-.19-1.59-.24-2.37-.05-.77-.06-1.48-.05-2.13.02-.65.02-1.16.02-1.54v-2.23c0-1.2-.02-2.38-.07-3.55-.05-1.17-.07-2.34-.07-3.5,0-.63,0-1.44.02-2.42.02-.98.13-1.93.36-2.86.22-.93.58-1.73,1.09-2.39.5-.66,1.25-.99,2.23-.99.44,0,.84.14,1.18.43.35.28.65.63.92,1.04.27.41.49.85.66,1.33.17.47.31.88.4,1.23.32-.44.69-.87,1.11-1.28.43-.41.91-.77,1.44-1.09.54-.32,1.14-.57,1.8-.76.66-.19,1.42-.28,2.27-.28,1.61,0,2.87.39,3.76,1.16.9.77,1.56,1.74,1.99,2.89.43,1.15.69,2.39.78,3.72.09,1.33.14,2.53.14,3.6,0,.54-.05,1.33-.14,2.39-.09,1.06-.25,2.23-.45,3.5-.21,1.28-.48,2.59-.83,3.93-.35,1.34-.76,2.57-1.23,3.67-.47,1.11-1.03,2.01-1.68,2.7-.65.69-1.38,1.04-2.2,1.04Z"/>
    <path class="st0" d="M324.12,172.37c0,1.61-.02,3.22-.07,4.83-.05,1.61-.13,3.22-.26,4.83-.09,1.39-.22,2.87-.38,4.45-.16,1.58-.41,3.15-.76,4.71-.35,1.56-.8,3.06-1.37,4.5-.57,1.44-1.32,2.71-2.25,3.81-.93,1.1-2.06,1.99-3.39,2.65-1.33.66-2.91.99-4.74.99-.85,0-1.81-.13-2.86-.4-1.06-.27-2.05-.66-2.98-1.16-.93-.51-1.72-1.13-2.37-1.87-.65-.74-.97-1.6-.97-2.58,0-.73.26-1.4.78-2.01.52-.62,1.19-.92,2.01-.92.5,0,.99.09,1.44.26.46.17.92.37,1.37.59.46.22.9.42,1.33.59s.86.26,1.3.26c1.17,0,2.15-.29,2.94-.88.79-.58,1.42-1.33,1.89-2.23.47-.9.83-1.88,1.07-2.94.24-1.06.4-2.06.5-3.01-.63.73-1.37,1.22-2.2,1.49-.84.27-1.71.4-2.63.4-1.67,0-3.09-.29-4.26-.88-1.17-.58-2.12-1.39-2.84-2.42-.73-1.03-1.26-2.22-1.61-3.58-.35-1.36-.52-2.83-.52-4.4,0-.98.1-2.08.31-3.31.2-1.23.51-2.48.92-3.74.41-1.26.92-2.49,1.54-3.69.62-1.2,1.33-2.26,2.16-3.17.82-.92,1.74-1.66,2.77-2.23,1.03-.57,2.16-.85,3.39-.85s2.27.35,3.2,1.04c.93.7,1.48,1.67,1.63,2.94.35-.66.81-1.32,1.37-1.97s1.26-.97,2.08-.97c.44,0,.81.22,1.11.66.3.44.54,1.02.71,1.73.17.71.31,1.48.4,2.32.09.84.16,1.66.19,2.46.03.8.05,1.54.05,2.2v1.47ZM316.92,175.45c0-.47-.07-1.09-.21-1.85-.14-.76-.35-1.48-.62-2.18-.27-.69-.61-1.29-1.02-1.8-.41-.5-.9-.76-1.47-.76-.73,0-1.37.25-1.92.76-.55.51-1.02,1.11-1.4,1.82-.38.71-.67,1.47-.88,2.27-.21.8-.31,1.49-.31,2.06,0,.41.03.96.09,1.66.06.7.2,1.37.4,2.04.2.66.48,1.23.83,1.71.35.47.8.71,1.37.71.85,0,1.59-.2,2.23-.62.63-.41,1.16-.93,1.59-1.56s.75-1.33.97-2.08c.22-.76.33-1.48.33-2.18Z"/>
  </g>
</svg>