<?xml version="1.0" encoding="UTF-8"?>
<svg id="Layer_1" xmlns="http://www.w3.org/2000/svg" xmlns:xlink="http://www.w3.org/1999/xlink" version="1.1" viewBox="0 0 1549.87 403.06">
  <!-- Generator: Adobe Illustrator 29.7.1, SVG Export Plug-In . SVG Version: 2.1.1 Build 8)  -->
  <defs>
    <style>
      .st0 {
        fill: none;
      }

      .st1 {
        fill: #523cac;
      }

      .st2 {
        fill: #adc716;
      }

      .st3 {
        fill: #33c5b5;
      }

      .st4 {
        fill: #fff;
      }

      .st5 {
        fill: #e44c17;
      }

      .st6 {
        fill: #dd2080;
      }

      .st7 {
        fill: #ecaa19;
      }

      .st8 {
        clip-path: url(#clippath);
      }
    </style>
    <clipPath id="clippath">
      <rect class="st0" x="54.35" y="-26.56" width="1441.18" height="456.18"/>
    </clipPath>
  </defs>
  <g class="st8">
    <path class="st6" d="M26.72,286.8c29.54,14.35,59.5,29.84,91.9,36.58,33.3,6.93,66.53,2.68,97.22-11.95,56.23-26.81,93.28-80.69,147.29-111.05,52.42-29.47,115.4-40.74,174.82-31.41,28.09,4.41,55.12,13.3,80.37,26.33,22.4,11.56,43.45,25.55,64.16,39.86,40.64,28.07,81.11,58.99,128.63,74.49,22.92,7.48,47.4,10.7,71.43,8.07,29.73-3.25,57.91-14.21,83.31-29.79,28.95-17.75,54.3-40.55,82.23-59.76,25.89-17.81,55.65-34.08,87.81-35.07,55.12-1.68,89.1,46.44,113.32,89.42,12.89,22.88,27.7,45.96,47.94,63.07,20.92,17.68,46.22,26.47,73.59,22.28,16.75-2.56,32.63-9.1,48.59-14.49,12.79-4.32,26.58-7.77,39.05-9.17,25.26-2.83,51.44-2.78,76.34,2.68,13.45,2.95,26.39,7.51,38.24,14.58,8.77,5.23,16.74-8.44,7.99-13.67-24.93-14.89-54.5-20.18-83.19-21.06-24.43-.75-49.73,1.2-73.19,8.32-28.54,8.66-57.98,24.59-88.34,15.14-24.09-7.5-42.24-27.73-56.16-47.86-15.14-21.89-26.32-46.15-42.38-67.45-15.45-20.48-34.22-39.14-58.14-49.34-61.65-26.3-122.62,15.02-169.85,51.39-26.29,20.25-52.88,41.36-84.01,53.7-24.05,9.53-49.56,13.94-75.38,11.39-48.13-4.75-90.59-32.71-129.41-59.43-41.98-28.89-83.33-60.17-131.92-77.2-57.93-20.3-122.81-20.22-181.16-1.59-29.37,9.38-57.27,23.44-81.93,41.97-24.87,18.69-46.77,40.82-70.7,60.63s-52.14,37.51-84,43c-31.6,5.45-63.2-3.31-92.16-15.54-15.04-6.35-29.67-13.64-44.34-20.77-9.12-4.43-17.16,9.21-7.99,13.67h0Z"/>
    <path class="st3" d="M26.97,180.61c29.66,14.41,59.75,29.97,92.28,36.74s67.35,2.71,98.44-12.11c56.24-26.81,93.28-80.69,147.29-111.05,52.02-29.24,114.62-40.51,173.6-31.25,27.95,4.39,54.86,13.2,79.99,26.17,22.4,11.56,43.45,25.55,64.16,39.86,40.77,28.15,81.35,59.1,129.01,74.65,23.04,7.52,47.7,10.77,71.85,8.12,30.01-3.29,58.45-14.27,84.11-30,28.95-17.75,54.3-40.55,82.23-59.76,25.65-17.65,55.14-33.88,87.01-34.85,54.52-1.66,88.02,46.17,111.96,88.64,12.95,22.99,27.85,46.2,48.19,63.39,21.39,18.08,47.15,26.97,75.13,22.69,16.75-2.56,32.63-9.1,48.59-14.49,8.26-2.79,16.61-5.36,25.16-7.07,2.68-.54,5.37-.96,8.07-1.36,2.22-.33-.19,0,1.51-.21,1.3-.16,2.6-.32,3.9-.47,25.12-2.82,51.16-2.81,75.92,2.63,13.33,2.92,26.12,7.41,37.87,14.42,10.52,6.28,20.08-10.13,9.59-16.4-25.17-15.03-55.03-20.39-83.99-21.27-24.55-.75-50.03,1.22-73.61,8.37-28.23,8.56-57.47,24.49-87.5,15.14-23.67-7.37-41.54-27.36-55.21-47.13-15.14-21.89-26.32-46.15-42.38-67.45-15.61-20.69-34.53-39.58-58.7-49.91-62.27-26.61-123.65,14.59-171.45,51.39-26.16,20.15-52.65,41.26-83.63,53.54-23.94,9.49-49.25,13.87-74.95,11.33-47.54-4.69-90.05-32.67-128.61-59.21-42.1-28.98-83.56-60.28-132.3-77.35-58.18-20.38-123.41-20.3-182-1.59-29.49,9.42-57.54,23.52-82.31,42.13-24.98,18.77-46.99,40.98-71.02,60.88-24.34,20.15-51.71,37.15-83.3,42.59s-62.4-3.34-90.94-15.38c-15.04-6.35-29.67-13.64-44.34-20.77-4.61-2.24-10.27-1.26-12.99,3.41-2.44,4.17-1.23,10.74,3.41,12.99h0Z"/>
    <path class="st2" d="M25.37,194.58c29.89,14.52,60.25,30.24,93.03,37.06,34.63,7.2,68.98,2.78,100.88-12.43,56.27-26.83,93.32-80.71,147.29-111.05,51.38-28.88,113.49-39.99,171.16-30.94,15.14,2.38,30.08,6.02,44.59,10.96,3.51,1.19,6.99,2.46,10.44,3.8,1.49.58,2.97,1.18,4.45,1.78,1.35.55.2.07-.06-.04.99.42,1.97.85,2.95,1.28,5.71,2.51,11.33,5.22,16.88,8.08,22.4,11.56,43.45,25.55,64.16,39.86,41.02,28.33,81.81,59.32,129.77,74.97,23.28,7.6,48.29,10.91,72.69,8.24,30.59-3.35,59.54-14.39,85.71-30.44,28.95-17.75,54.3-40.55,82.23-59.76,13.41-9.22,27.49-17.9,42.52-24.21,13.91-5.85,28.73-9.77,42.89-10.2,12.43-.38,23.73,1.56,34.79,6.13,10.25,4.24,20.6,11.41,28.7,18.79,19.58,17.84,32.57,38.79,45.73,62.15,13.07,23.2,28.16,46.69,48.68,64.04,22.34,18.89,49.01,27.97,78.21,23.5,16.75-2.56,32.63-9.1,48.59-14.49,8.26-2.79,16.61-5.36,25.16-7.07,2.68-.54,5.37-.96,8.07-1.36,3.22-.48-1.79.19.66-.1,1.3-.15,2.6-.32,3.9-.47,25.12-2.82,51.52-2.66,75.08,2.51,13.66,3,25.44,7.14,37.11,14.1,14.03,8.37,26.78-13.51,12.78-21.87-25.65-15.31-56.08-20.8-85.59-21.71-24.81-.76-50.62,1.26-74.45,8.49-16.72,5.07-32.86,12.01-49.92,15.95-12.6,2.91-23.65,3-35.89-.81-1.44-.45-2.86-.95-4.28-1.47-.24-.09-2.69-1.09-1.48-.57,1.08.46-.85-.4-.85-.4-2.93-1.36-5.77-2.88-8.53-4.56-6.01-3.64-8.73-5.76-13.66-10.22s-9.34-9.11-13.57-14.08-6.92-8.55-10.96-14.39c-15.14-21.89-26.32-46.15-42.38-67.45-15.94-21.12-35.16-40.47-59.84-51.05-28.13-12.05-58.98-10.97-87.6-.92-32.39,11.38-60.11,31.57-87.05,52.31-25.85,19.91-52.89,41.34-82.88,53.22-12.69,5.03-25.88,8.7-39.38,10.75-.29.04-2.49.31-.56.08-.65.08-1.3.16-1.95.22-1.51.15-3.02.31-4.53.43-3.19.26-6.39.41-9.59.47-6.04.11-12.09-.14-18.11-.73-1.43-.14-2.86-.3-4.29-.48-1.5-.19.07,0,.32.04-.81-.12-1.62-.24-2.43-.37-3.03-.49-6.04-1.06-9.03-1.71-5.78-1.25-11.5-2.8-17.13-4.6s-10.85-3.77-16.18-5.91c-2.35-.94-.91-.38-.4-.16-.57-.24-1.14-.49-1.71-.74-1.33-.58-2.65-1.17-3.97-1.78-2.84-1.3-5.66-2.65-8.46-4.04-22.33-11.12-43.21-24.91-63.73-39.03-42.36-29.16-84.03-60.5-133.05-77.67-58.66-20.55-124.6-20.45-183.68-1.59-29.74,9.5-58.09,23.68-83.07,42.45s-47.42,41.3-71.66,61.37c-23.84,19.73-50.84,36.42-81.9,41.77s-60.55-3.33-88.5-15.06c-15.05-6.32-29.67-13.64-44.34-20.77-6.15-2.99-13.69-1.67-17.32,4.54-3.25,5.56-1.63,14.32,4.54,17.32h0Z"/>
    <path class="st5" d="M26.97,196.19c29.66,14.41,59.75,29.97,92.28,36.74,33.74,7.02,67.35,2.71,98.44-12.11,56.24-26.81,93.28-80.69,147.29-111.05,52.02-29.24,114.62-40.51,173.6-31.25,27.95,4.39,54.86,13.2,79.99,26.17,22.4,11.56,43.45,25.55,64.16,39.86,40.77,28.15,81.35,59.1,129.01,74.65,23.04,7.52,47.7,10.77,71.85,8.12,30.01-3.29,58.45-14.27,84.11-30,28.95-17.75,54.3-40.55,82.23-59.76,25.65-17.65,55.14-33.88,87.01-34.85,54.52-1.66,88.02,46.17,111.96,88.64,12.95,22.99,27.85,46.2,48.19,63.39,21.39,18.08,47.15,26.97,75.13,22.69,16.75-2.56,32.63-9.1,48.59-14.49,8.26-2.79,16.61-5.36,25.16-7.07,2.68-.54,5.37-.96,8.07-1.36,2.22-.33-.19,0,1.51-.21,1.3-.16,2.6-.32,3.9-.47,25.12-2.82,51.16-2.81,75.92,2.63,13.33,2.92,26.12,7.41,37.87,14.42,10.52,6.28,20.08-10.13,9.59-16.4-25.17-15.03-55.03-20.39-83.99-21.27-24.55-.75-50.03,1.22-73.61,8.37-28.23,8.56-57.47,24.49-87.5,15.14-23.67-7.37-41.54-27.36-55.21-47.13-15.14-21.89-26.32-46.15-42.38-67.45s-34.53-39.58-58.7-49.91c-62.27-26.61-123.65,14.59-171.45,51.39-26.16,20.15-52.65,41.26-83.63,53.54-23.94,9.49-49.25,13.87-74.95,11.33-47.54-4.69-90.05-32.67-128.61-59.21-42.1-28.98-83.56-60.28-132.3-77.35-58.18-20.38-123.41-20.3-182-1.59-29.49,9.42-57.54,23.52-82.31,42.13-24.98,18.77-46.99,40.98-71.02,60.88s-51.71,37.15-83.3,42.59c-31.14,5.37-62.4-3.34-90.94-15.38-15.04-6.35-29.67-13.64-44.34-20.77-4.61-2.24-10.27-1.26-12.99,3.41-2.44,4.17-1.23,10.74,3.41,12.99h0Z"/>
    <path class="st1" d="M31.03,278.36c29.89,14.52,60.25,30.24,93.03,37.06,34.63,7.2,68.98,2.78,100.88-12.43,56.27-26.83,93.32-80.71,147.29-111.05,51.38-28.88,113.49-39.99,171.16-30.94,15.14,2.38,30.08,6.02,44.59,10.96,3.51,1.19,6.99,2.46,10.44,3.8,1.49.58,2.97,1.18,4.45,1.78,1.35.55.2.07-.06-.04.99.42,1.97.85,2.95,1.28,5.71,2.51,11.33,5.22,16.88,8.08,22.4,11.56,43.45,25.55,64.16,39.86,41.02,28.33,81.81,59.32,129.77,74.97,23.28,7.6,48.29,10.91,72.69,8.24,30.59-3.35,59.54-14.39,85.71-30.44,28.95-17.75,54.3-40.55,82.23-59.76,13.41-9.22,27.49-17.9,42.52-24.21,13.91-5.85,28.73-9.77,42.89-10.2,12.43-.38,23.73,1.56,34.79,6.13,10.25,4.24,20.6,11.41,28.7,18.79,19.58,17.84,32.57,38.79,45.73,62.15,13.07,23.2,28.16,46.69,48.68,64.04,22.34,18.89,49.01,27.97,78.21,23.5,16.75-2.56,32.63-9.1,48.59-14.49,8.26-2.79,16.61-5.36,25.16-7.07,2.68-.54,5.37-.96,8.07-1.36,3.22-.48-1.79.19.66-.1,1.3-.15,2.6-.32,3.9-.47,25.12-2.82,51.52-2.66,75.08,2.51,13.66,3,25.44,7.14,37.11,14.1,14.03,8.37,26.78-13.51,12.78-21.87-25.65-15.31-56.08-20.8-85.59-21.71-24.81-.76-50.62,1.26-74.45,8.49-16.72,5.07-32.86,12.01-49.92,15.95-12.6,2.91-23.65,3-35.89-.81-1.44-.45-2.86-.95-4.28-1.47-.24-.09-2.69-1.09-1.48-.57,1.08.46-.85-.4-.85-.4-2.93-1.36-5.77-2.88-8.53-4.56-6.01-3.64-8.73-5.76-13.66-10.22s-9.34-9.11-13.57-14.08-6.92-8.55-10.96-14.39c-15.14-21.89-26.32-46.15-42.38-67.45-15.94-21.12-35.16-40.47-59.84-51.05-28.13-12.05-58.98-10.97-87.6-.92-32.39,11.38-60.11,31.57-87.05,52.31-25.85,19.91-52.89,41.34-82.88,53.22-12.69,5.03-25.88,8.7-39.38,10.75-.29.04-2.49.31-.56.08-.65.08-1.3.16-1.95.22-1.51.15-3.02.31-4.53.43-3.19.26-6.39.41-9.59.47-6.04.11-12.09-.14-18.11-.73-1.43-.14-2.86-.3-4.29-.48-1.5-.19.07,0,.32.04-.81-.12-1.62-.24-2.43-.37-3.03-.49-6.04-1.06-9.03-1.71-5.78-1.25-11.5-2.8-17.13-4.6s-10.85-3.77-16.18-5.91c-2.35-.94-.91-.38-.4-.16-.57-.24-1.14-.49-1.71-.74-1.33-.58-2.65-1.17-3.97-1.78-2.84-1.3-5.66-2.65-8.46-4.04-22.33-11.12-43.21-24.91-63.73-39.03-42.36-29.16-84.03-60.5-133.05-77.67-58.66-20.55-124.6-20.45-183.68-1.59-29.74,9.5-58.09,23.68-83.07,42.45-25.2,18.93-47.42,41.3-71.66,61.37-23.84,19.73-50.84,36.42-81.9,41.77-30.34,5.23-60.55-3.33-88.5-15.06-15.05-6.32-29.67-13.64-44.34-20.77-6.15-2.99-13.69-1.67-17.32,4.54-3.25,5.56-1.63,14.32,4.54,17.32h0Z"/>
    <path class="st7" d="M12.59,262.4c45.35,22.03,93.03,46.28,144.93,44.09,29.09-1.23,56.8-9.64,82.37-23.43,21.05-11.36,40-26.7,58.02-42.31,18.71-16.21,36.54-33.44,56.08-48.67l-7.69,5.94c18.51-14.28,38.59-26.11,60.09-35.29l-9.07,3.83c23.45-9.85,48.07-16.48,73.27-19.87l-10.1,1.36c24.7-3.18,49.66-3.22,74.35,0l-10.1-1.36c23.21,3.16,45.9,9.17,67.53,18.19l-9.07-3.83c61.99,26.19,111.5,73.57,170.39,105.25,33.12,17.81,68.65,30.3,106.48,31.92,43.17,1.85,86.38-12.66,122.79-35.14,42.9-26.49,78.55-64.08,125.42-84.12l-9.07,3.83c11.87-4.94,24.16-8.65,36.91-10.42l-10.1,1.36c8.93-1.12,17.86-1.24,26.79-.12l-10.1-1.36c8.22,1.14,16.16,3.3,23.83,6.44l-9.07-3.83c8.7,3.7,16.75,8.55,24.26,14.27l-7.69-5.94c11.3,8.8,21.04,19.28,29.78,30.58l-5.94-7.69c11.34,14.86,20.39,30.97,29.76,47.08,10.33,17.77,22.12,34.95,35.89,50.24,15.74,17.48,34.81,30.56,56.69,39.02s48.73,7.53,72.08,1.43c24.11-6.3,46.63-17.16,71.5-20.56l-10.1,1.36c23.02-3.06,46.52-3.43,69.55-.34l-10.1-1.36c13.81,1.95,27.36,5.23,40.26,10.6l-9.07-3.83c5,2.15,9.84,4.59,14.52,7.38,17.08,10.2,42.45,4.39,51.97-13.63,9.69-18.35,4.6-41.09-13.63-51.97-29.86-17.83-65.4-24.34-99.76-25.2-27.75-.7-56.75,2.06-83.24,10.5-18.77,5.98-37.14,14.12-56.8,16.78l10.1-1.36c-6.51.77-12.97.82-19.49.07l10.1,1.36c-6.94-.94-13.62-2.77-20.08-5.45l9.07,3.83c-7.17-3.11-13.8-7.14-20.02-11.86l7.69,5.94c-9.96-7.76-18.54-16.99-26.28-26.93l5.94,7.69c-16.25-21.14-27.47-45.31-42.42-67.29-17.43-25.61-38.49-49.96-65.88-65.28-31.32-17.52-66.94-21.1-101.68-13.1-35.29,8.13-66.89,27.83-95.52,49.29-30.46,22.82-59.66,47.85-95.01,62.93l9.07-3.83c-14.84,6.2-30.28,10.7-46.24,12.85l10.1-1.36c-13.85,1.75-27.77,1.68-41.6-.17l10.1,1.36c-16.67-2.36-32.77-7.22-48.28-13.72l9.07,3.83c-66.59-28.3-118.72-81.52-184.04-112.22-43.82-20.59-91.45-31.45-139.99-30.47-49.67,1-98.6,13.41-142.73,36.19-47.25,24.39-82.35,64.19-123.76,96.46l7.69-5.94c-14.42,11.13-29.72,20.95-46.51,28.14l9.07-3.83c-11.82,4.9-24.04,8.39-36.72,10.15l10.1-1.36c-12.09,1.52-24.19,1.4-36.27-.17l10.1,1.36c-19.17-2.7-37.51-8.84-55.31-16.28l9.07,3.83c-15.56-6.58-30.72-14.05-45.91-21.43-9.3-4.52-19.02-6.65-29.27-3.83-8.81,2.43-18.36,9.24-22.7,17.46-4.66,8.82-6.99,19.5-3.83,29.27,2.91,9,8.64,18.42,17.46,22.7h0Z"/>
    <g>
      <path class="st4" d="M384.67,142.09c.57-.26,1.12-.29,1.67-.11.55.19.95.56,1.21,1.13.25.55.26,1.09.05,1.62s-.61.93-1.18,1.19l-10.65,4.85c-.57.26-1.13.28-1.69.08-.56-.21-.96-.6-1.22-1.16l-8.62-18.94c-.26-.57-.28-1.13-.06-1.69.22-.56.63-.98,1.25-1.26.52-.24,1.08-.26,1.65-.06s1,.58,1.25,1.15l8.04,17.66-.97-.23,9.27-4.22Z"/>
      <path class="st4" d="M385.16,119.25l11.31-4.19c.58-.22,1.14-.21,1.67.01s.91.63,1.12,1.22c.21.56.18,1.09-.08,1.59-.26.5-.69.85-1.27,1.07l-9.45,3.5.09-.69,2.44,6.58-.37-.17,7.9-2.93c.58-.22,1.14-.21,1.67.01.53.23.91.63,1.12,1.22.21.56.18,1.09-.08,1.59-.26.5-.69.85-1.27,1.07l-7.8,2.89.07-.33,2.53,6.82-.38-.2,9.42-3.49c.58-.22,1.15-.2,1.69.05.54.25.91.63,1.1,1.15.21.56.18,1.1-.08,1.6-.26.51-.68.87-1.27,1.08l-11.31,4.19c-.59.22-1.15.2-1.69-.05-.54-.25-.92-.66-1.13-1.25l-7.23-19.51c-.22-.58-.2-1.15.05-1.69.25-.54.67-.92,1.25-1.13Z"/>
      <path class="st4" d="M414.29,115.45l-2.44,19.72c-.04.48-.19.9-.45,1.23-.27.34-.59.56-.99.68-.62.18-1.13.14-1.53-.12-.4-.26-.67-.64-.82-1.15-.06-.21-.09-.44-.08-.69l2.69-23.16c.05-.51.23-.95.54-1.32.31-.36.69-.58,1.14-.66.42-.12.84-.11,1.26.03.43.14.78.41,1.07.8l14.32,17.84c.2.27.34.53.41.78.18.62.12,1.18-.18,1.66-.3.49-.69.8-1.17.94-.42.12-.83.1-1.23-.06-.41-.16-.77-.43-1.08-.82l-12.4-15.21.94-.5ZM411.71,130.64l.76-4.53,9.34-2.67,1.8,3.79-11.91,3.41Z"/>
      <path class="st4" d="M434.99,130.25c-.66.13-1.29.04-1.89-.27s-.96-.77-1.08-1.38l-4.07-20.41c-.12-.61-.02-1.17.31-1.66.33-.49.8-.8,1.41-.92l10.17-2.03c1.22-.24,2.44-.15,3.64.29,1.2.43,2.24,1.16,3.13,2.17.89,1.01,1.48,2.26,1.77,3.74.18.89.17,1.8-.03,2.72s-.54,1.78-1.03,2.59c-.49.81-1.08,1.48-1.78,2.01l-.13-.82c.73.22,1.36.53,1.89.93.53.4.98.85,1.33,1.35s.62,1.07.8,1.7c.21.57.38,1.07.5,1.51.12.44.27.8.44,1.09.17.28.42.48.76.58.58.2.99.58,1.23,1.13.24.55.21,1.09-.1,1.62-.2.36-.49.62-.87.78-.38.16-.78.24-1.2.24-.42,0-.77-.05-1.06-.14-.45-.16-.92-.42-1.41-.8-.49-.38-.94-.93-1.34-1.66-.4-.73-.72-1.7-.97-2.93-.08-.4-.22-.76-.43-1.07-.21-.31-.47-.57-.78-.76-.31-.2-.68-.32-1.1-.37s-.91-.02-1.45.09l-7.13,1.42.37-.92,1.53,7.66c.12.61.06,1.16-.19,1.63-.25.48-.67.78-1.25.89ZM433.85,117.34l8.23-1.64c.42-.08.8-.36,1.12-.83.32-.47.55-1.06.67-1.79.12-.72.11-1.48-.05-2.28-.21-1.04-.66-1.85-1.35-2.43s-1.35-.81-1.99-.69l-8.16,1.62.2-1.21,1.99,9.99-.66-.75Z"/>
      <path class="st4" d="M472.47,99.08c.57-.06,1.06.08,1.46.42.4.34.63.8.69,1.37l2.29,20.86c.07.62-.08,1.16-.46,1.62-.37.46-.87.73-1.49.8-.31.03-.63.01-.97-.06-.33-.07-.59-.19-.78-.37l-16.02-16.32.87-.67,1.87,17.03c.06.57-.07,1.07-.4,1.49-.33.42-.79.67-1.39.73-.57.06-1.06-.08-1.46-.42-.4-.34-.63-.8-.69-1.37l-2.29-20.86c-.07-.62.08-1.16.46-1.62.37-.46.87-.73,1.49-.8.33-.04.69,0,1.06.08s.66.26.85.5l15.54,15.9-.56.5-1.82-16.6c-.06-.57.06-1.07.38-1.49s.77-.66,1.37-.73Z"/>
      <path class="st4" d="M486.57,121.37c.03.62-.17,1.16-.61,1.6-.44.44-.95.67-1.55.7-.67.03-1.22-.15-1.65-.55-.43-.4-.66-.91-.68-1.54l-.98-20.79c-.03-.62.16-1.15.57-1.59.41-.44.95-.67,1.62-.71.58-.03,1.09.16,1.56.56.46.4.71.91.74,1.53l.98,20.79Z"/>
      <path class="st4" d="M511.19,98.33c.58,0,1.04.21,1.39.6s.53.87.52,1.45l-.33,20.99c0,.62-.23,1.14-.65,1.56-.43.41-.95.62-1.58.61-.31,0-.63-.06-.95-.18s-.57-.27-.73-.46l-13.87-18.18.94-.56-.27,17.13c0,.58-.2,1.05-.58,1.43-.38.38-.87.56-1.47.55-.58,0-1.04-.21-1.4-.6-.35-.39-.53-.87-.52-1.45l.33-20.99c0-.62.23-1.14.65-1.56s.95-.62,1.58-.61c.34,0,.68.08,1.04.21.36.14.62.34.78.61l13.44,17.71-.62.42.26-16.7c0-.58.2-1.05.56-1.43.37-.38.85-.56,1.45-.55Z"/>
      <path class="st4" d="M529.36,125.49c-1.81-.19-3.47-.71-4.98-1.54-1.5-.83-2.79-1.91-3.86-3.21-1.07-1.31-1.86-2.77-2.38-4.4-.52-1.62-.68-3.33-.49-5.12s.71-3.42,1.55-4.9c.84-1.48,1.92-2.75,3.24-3.8,1.32-1.05,2.8-1.83,4.45-2.33,1.65-.5,3.38-.66,5.19-.46,1.12.12,2.19.35,3.22.7,1.02.35,1.95.81,2.79,1.38.34.23.58.51.72.85.14.34.2.68.16,1.01-.06.57-.31,1.07-.74,1.48-.43.41-.94.59-1.54.52-.19-.02-.39-.06-.58-.13-.2-.07-.39-.16-.57-.28-.57-.33-1.18-.6-1.83-.81-.65-.21-1.35-.36-2.09-.44-1.55-.17-3.01.07-4.37.71-1.36.64-2.48,1.57-3.37,2.79-.89,1.22-1.42,2.62-1.58,4.19-.16,1.55.06,3.02.67,4.42.61,1.39,1.52,2.54,2.71,3.45,1.19.91,2.57,1.45,4.12,1.61.72.08,1.51.09,2.39.04.87-.05,1.6-.17,2.17-.35l-.44,1.04.65-6.12.55.6-3.97-.42c-.62-.07-1.12-.32-1.49-.77-.38-.45-.53-.99-.46-1.61.07-.62.33-1.11.79-1.47.46-.36,1-.51,1.62-.44l5.87.62c.62.07,1.11.33,1.47.79.36.46.51,1,.44,1.62l-.8,7.59c-.05.48-.21.86-.46,1.15-.26.29-.54.51-.85.67-1.17.55-2.42.96-3.77,1.21-1.34.26-2.73.31-4.16.16Z"/>
      <path class="st4" d="M556.95,108.05c-.61-.14-1.07-.45-1.4-.91-.32-.47-.42-1.01-.27-1.62.14-.61.46-1.05.95-1.31.49-.27,1.04-.33,1.65-.19l15.58,3.59c.61.14,1.07.45,1.4.91.32.47.41,1.01.27,1.62-.14.61-.46,1.05-.95,1.31-.49.27-1.04.33-1.65.19l-15.58-3.59ZM559.97,130.36c-.65-.15-1.15-.48-1.47-.99-.33-.51-.42-1.06-.28-1.67l4.69-20.35,4.56,1.05-4.69,20.35c-.14.61-.47,1.07-1,1.38s-1.13.39-1.81.23Z"/>
      <path class="st4" d="M583.06,110.28c.55.18.97.54,1.26,1.07.29.54.34,1.1.15,1.7l-6.47,19.78c-.19.59-.57,1.02-1.14,1.28-.56.26-1.13.29-1.7.11-.64-.21-1.09-.58-1.34-1.1-.26-.53-.29-1.09-.09-1.68l6.47-19.78c.19-.59.56-1.02,1.1-1.29.54-.26,1.13-.29,1.77-.08ZM579.7,120.2l15.26,4.99-1.29,3.93-15.26-4.99,1.29-3.93ZM598.22,115.24c.64.21,1.09.58,1.34,1.1.26.53.29,1.09.09,1.68l-6.47,19.78c-.19.59-.56,1.02-1.08,1.29-.53.27-1.13.29-1.79.08-.55-.18-.97-.54-1.26-1.07-.29-.54-.34-1.1-.15-1.7l6.47-19.78c.19-.59.57-1.02,1.14-1.28s1.13-.29,1.7-.11Z"/>
      <path class="st4" d="M613.29,127.4l-14.4,13.69c-.34.35-.71.57-1.13.67-.42.09-.82.06-1.19-.1-.59-.26-.96-.61-1.11-1.07-.14-.46-.11-.92.1-1.41.09-.2.21-.39.37-.58l16.78-16.19c.37-.36.78-.59,1.25-.67.47-.08.9-.01,1.3.21.4.17.71.45.96.83s.35.81.32,1.3l-.26,22.88c-.01.33-.07.62-.18.86-.26.59-.66.99-1.19,1.17-.54.19-1.04.18-1.5-.02-.4-.17-.7-.45-.92-.83-.21-.38-.32-.82-.31-1.31l.06-19.63,1.04.22ZM601.65,137.51l3.46-3.01,8.92,3.86-1.02,4.07-11.36-4.92Z"/>
      <path class="st4" d="M623.61,153.97c-.6-.31-.99-.75-1.18-1.32-.19-.57-.14-1.13.14-1.69l9.59-18.55,4.16,2.15-9.59,18.55c-.29.55-.72.92-1.31,1.08-.59.17-1.19.09-1.81-.23ZM626.22,131.61c-.55-.29-.93-.7-1.13-1.23s-.15-1.08.14-1.63c.29-.55.7-.9,1.25-1.04s1.09-.06,1.65.22l14.2,7.34c.55.29.93.7,1.13,1.23.2.53.15,1.08-.14,1.63-.29.55-.7.9-1.25,1.04-.54.14-1.09.06-1.65-.22l-14.2-7.34Z"/>
      <path class="st4" d="M654.17,171.97c-1.55-.96-2.82-2.15-3.81-3.56s-1.68-2.93-2.07-4.58c-.39-1.64-.47-3.31-.22-4.99.24-1.69.84-3.29,1.79-4.82.95-1.53,2.13-2.77,3.53-3.74,1.41-.96,2.93-1.63,4.58-2.01,1.65-.38,3.32-.43,5.02-.16,1.7.27,3.32.88,4.87,1.84.96.6,1.82,1.28,2.59,2.04.77.76,1.4,1.58,1.91,2.46.2.35.3.71.28,1.08s-.12.7-.29.98c-.3.49-.74.83-1.31,1.01-.57.18-1.11.12-1.61-.2-.16-.1-.32-.23-.47-.38-.15-.15-.28-.31-.39-.5-.37-.54-.8-1.05-1.3-1.53-.49-.48-1.06-.91-1.69-1.31-1.33-.82-2.74-1.24-4.24-1.26-1.5-.02-2.92.33-4.25,1.04-1.33.71-2.42,1.74-3.25,3.08-.82,1.33-1.26,2.75-1.32,4.27-.06,1.52.26,2.95.93,4.29.68,1.34,1.68,2.42,3,3.25.61.38,1.32.74,2.13,1.07.81.33,1.51.54,2.11.63l-.85.75,3.25-5.23.23.78-3.39-2.11c-.53-.33-.87-.78-1.01-1.35-.14-.57-.05-1.12.28-1.65.33-.53.78-.86,1.35-.98s1.12-.02,1.65.31l5.01,3.12c.53.33.86.78.98,1.35.12.57.02,1.12-.31,1.65l-4.03,6.48c-.25.41-.56.68-.92.83-.36.14-.71.22-1.06.23-1.29-.01-2.6-.2-3.92-.55-1.32-.35-2.59-.91-3.81-1.67Z"/>
      <path class="st4" d="M691.57,181.11c-1.01,1.49-2.19,2.72-3.56,3.68-1.37.96-2.84,1.63-4.41,2-1.57.38-3.16.42-4.78.14-1.62-.28-3.17-.92-4.64-1.91-1.47-.99-2.64-2.18-3.5-3.57-.86-1.39-1.41-2.88-1.65-4.48-.24-1.6-.18-3.21.2-4.84.37-1.63,1.06-3.19,2.07-4.68s2.19-2.72,3.56-3.68c1.37-.96,2.84-1.63,4.41-2s3.16-.43,4.77-.15c1.61.27,3.15.91,4.62,1.9,1.47.99,2.64,2.19,3.51,3.58.87,1.4,1.42,2.89,1.67,4.49.24,1.59.18,3.21-.2,4.84-.37,1.63-1.06,3.19-2.07,4.68ZM687.69,178.49c.9-1.33,1.44-2.72,1.64-4.17.19-1.45.04-2.8-.47-4.07-.51-1.27-1.38-2.32-2.61-3.15-1.23-.83-2.53-1.24-3.9-1.24-1.37,0-2.67.37-3.92,1.09-1.25.72-2.33,1.76-3.24,3.11-.9,1.33-1.45,2.72-1.65,4.16s-.05,2.79.46,4.06c.51,1.27,1.38,2.32,2.61,3.15,1.23.83,2.53,1.24,3.9,1.24,1.36,0,2.68-.37,3.95-1.09,1.27-.72,2.35-1.75,3.25-3.09Z"/>
      <path class="st4" d="M703.99,174.44l9.9,6.88c.51.36.83.82.95,1.38.12.56,0,1.1-.36,1.62-.34.49-.79.77-1.35.84-.56.07-1.09-.08-1.6-.44l-8.28-5.75.62-.32-4.01,5.76-.07-.4,6.92,4.81c.51.36.83.82.95,1.38.12.56,0,1.1-.36,1.62-.34.49-.79.77-1.35.84-.56.07-1.09-.08-1.6-.44l-6.83-4.75.31-.13-4.15,5.97-.05-.43,8.25,5.73c.51.36.82.83.93,1.41.11.58,0,1.1-.31,1.56-.34.49-.8.78-1.36.85-.56.08-1.1-.06-1.61-.42l-9.9-6.88c-.51-.36-.82-.83-.93-1.41-.11-.58.02-1.13.38-1.65l11.88-17.08c.36-.51.83-.82,1.41-.93.58-.1,1.13.02,1.65.38Z"/>
      <path class="st4" d="M711.13,210.56c-1.38-.96-2.5-1.99-3.37-3.1s-1.5-2.45-1.9-4.01c-.11-.4-.13-.78-.08-1.15s.18-.7.37-.97c.31-.45.75-.74,1.32-.86.56-.12,1.09,0,1.59.33.37.26.63.61.76,1.05.33,1.13.75,2.11,1.27,2.94.52.83,1.32,1.62,2.41,2.37.73.51,1.48.86,2.25,1.06.77.2,1.47.23,2.11.11.64-.12,1.13-.43,1.48-.93.41-.59.58-1.22.51-1.88s-.37-1.39-.9-2.18c-.53-.79-1.3-1.66-2.32-2.59-.96-.9-1.72-1.79-2.31-2.67-.58-.89-.97-1.77-1.16-2.65s-.19-1.75,0-2.63c.2-.87.59-1.73,1.18-2.58.89-1.28,1.98-2.15,3.27-2.59s2.66-.52,4.11-.21,2.86.93,4.22,1.88c1.28.89,2.34,1.91,3.16,3.05.83,1.14,1.38,2.25,1.66,3.32.26.85.18,1.57-.23,2.16-.3.43-.74.71-1.32.83-.58.12-1.1.03-1.55-.29-.3-.21-.5-.48-.61-.82-.12-.49-.37-1.05-.73-1.67-.36-.62-.78-1.21-1.25-1.79-.48-.58-.97-1.04-1.48-1.4-.85-.59-1.64-.98-2.37-1.16s-1.38-.2-1.93-.03-1,.5-1.35.99c-.41.59-.58,1.2-.5,1.82.08.62.36,1.28.86,1.95.49.68,1.13,1.42,1.92,2.23,1.03,1.04,1.89,2.02,2.59,2.93.69.92,1.17,1.81,1.44,2.69.27.87.31,1.76.12,2.67-.19.91-.63,1.86-1.33,2.87-.89,1.28-2.01,2.14-3.36,2.57-1.35.43-2.78.5-4.27.19-1.5-.31-2.91-.93-4.25-1.86Z"/>
      <path class="st4" d="M753.77,208.54c1.93,1.26,3.07,2.65,3.42,4.17.35,1.52-.05,3.17-1.2,4.93-.62.94-1.39,1.62-2.32,2.03s-1.97.52-3.13.32-2.4-.73-3.73-1.6l1.01-1.28c.62.41,1.28.96,1.97,1.65.69.7,1.27,1.51,1.74,2.43.47.92.7,1.93.69,3.03-.01,1.1-.41,2.25-1.2,3.45-.87,1.33-1.79,2.27-2.78,2.83-.98.56-1.98.84-2.98.85-1.01,0-1.97-.17-2.88-.53s-1.74-.78-2.49-1.26l-7.5-4.91c-.52-.34-.84-.8-.97-1.38s-.01-1.13.33-1.66l11.39-17.42c.34-.52.8-.84,1.38-.97.58-.12,1.13-.01,1.66.33l7.59,4.96ZM745.75,220.15l-5.48-3.58.43-.06-4.16,6.36-.1-.5,5.72,3.74c.92.6,1.82.84,2.68.7s1.62-.7,2.26-1.68c.59-.9.84-1.67.74-2.31-.1-.64-.37-1.17-.8-1.6-.44-.43-.87-.78-1.29-1.06ZM750.91,211.74l-5.36-3.51.71-.23-3.57,5.45-.18-.51,5.42,3.55c.58.38,1.23.53,1.94.45.71-.08,1.3-.48,1.78-1.2.56-.86.76-1.63.58-2.31-.18-.67-.62-1.24-1.32-1.7Z"/>
      <path class="st4" d="M765.49,215.98l10.35,6.19c.54.32.88.76,1.04,1.31.16.56.08,1.1-.24,1.64-.31.51-.74.82-1.29.93-.55.1-1.09,0-1.63-.33l-8.65-5.17.59-.36-3.6,6.02-.1-.4,7.23,4.33c.54.32.88.76,1.04,1.31.16.55.08,1.1-.25,1.64-.31.52-.74.82-1.29.93-.55.1-1.09,0-1.63-.33l-7.14-4.27.3-.15-3.73,6.24-.08-.43,8.62,5.16c.54.32.88.77,1.02,1.34.14.58.08,1.1-.21,1.57-.31.52-.74.83-1.3.94-.56.11-1.1.01-1.64-.31l-10.35-6.19c-.54-.32-.88-.77-1.02-1.34-.15-.58-.06-1.13.26-1.67l10.68-17.86c.32-.54.77-.88,1.34-1.02.58-.14,1.13-.06,1.67.26Z"/>
      <path class="st4" d="M795.12,232.4c.49.26.83.67,1.03,1.25.2.58.15,1.15-.15,1.73-.1.19-.23.37-.39.55s-.35.32-.58.45l-12.66,6.58,1.72-1.9-4.79,9.16c-.29.55-.72.92-1.28,1.1-.57.18-1.1.14-1.58-.12-.53-.28-.89-.7-1.06-1.27s-.12-1.13.17-1.68l4.65-8.9-.28,1.16-2.11-12.76c-.07-.39-.08-.73-.03-1.03.05-.3.13-.56.24-.77.3-.57.77-.92,1.4-1.05.63-.13,1.19-.07,1.65.17.6.31.96.88,1.1,1.71l1.71,11.66-.83-.59,9.96-5.31c.78-.41,1.48-.45,2.1-.12Z"/>
      <path class="st4" d="M814.91,254.69c-.69,1.66-1.6,3.1-2.75,4.32-1.15,1.21-2.46,2.16-3.92,2.84-1.46.68-3.02,1.05-4.66,1.1s-3.29-.26-4.93-.94c-1.64-.68-3.02-1.61-4.14-2.8-1.12-1.19-1.96-2.54-2.51-4.05-.56-1.51-.82-3.11-.78-4.78s.4-3.34,1.09-5,1.6-3.1,2.75-4.32c1.15-1.21,2.46-2.16,3.92-2.84,1.46-.68,3.01-1.05,4.64-1.1,1.63-.05,3.27.26,4.91.93,1.64.68,3.03,1.61,4.16,2.81,1.13,1.19,1.97,2.55,2.53,4.06s.82,3.11.78,4.78c-.04,1.67-.4,3.34-1.09,5ZM810.58,252.9c.61-1.49.87-2.96.77-4.41-.1-1.46-.53-2.75-1.28-3.89-.75-1.14-1.81-1.99-3.19-2.56-1.38-.57-2.73-.71-4.07-.43s-2.54.9-3.63,1.85c-1.08.96-1.93,2.19-2.56,3.7-.61,1.49-.88,2.96-.79,4.41.09,1.45.51,2.75,1.26,3.89.75,1.14,1.81,1.99,3.19,2.56s2.73.71,4.07.43c1.33-.28,2.55-.9,3.65-1.86s1.95-2.19,2.57-3.67Z"/>
      <path class="st4" d="M840.92,248.62c.56.14.96.44,1.22.9.25.46.31.97.17,1.53l-5.18,20.34c-.15.61-.49,1.06-1,1.36-.51.3-1.07.38-1.67.22-.3-.08-.6-.21-.88-.39-.29-.18-.49-.39-.6-.62l-9.28-20.9,1.05-.33-4.23,16.61c-.14.56-.44.98-.9,1.26-.46.28-.97.35-1.56.2-.56-.14-.96-.44-1.22-.91-.25-.46-.31-.97-.17-1.53l5.18-20.34c.15-.6.49-1.06,1-1.36.51-.3,1.07-.38,1.67-.22.33.08.65.23.96.45s.52.47.62.77l8.97,20.34-.7.27,4.12-16.19c.14-.56.44-.98.88-1.26.44-.28.96-.35,1.54-.2Z"/>
      <path class="st4" d="M857.32,250.58c1.72.13,3.23.57,4.52,1.32,1.29.75,2.35,1.74,3.18,2.97.83,1.23,1.42,2.62,1.77,4.18s.46,3.19.33,4.92c-.18,2.32-.76,4.4-1.74,6.24-.99,1.84-2.32,3.26-3.99,4.26-1.68,1-3.68,1.41-6,1.24l-8.58-.66c-.62-.05-1.13-.3-1.51-.75s-.56-.99-.51-1.61l1.6-20.75c.05-.62.3-1.13.75-1.51s.99-.56,1.61-.51l8.58.66ZM855.34,271.55c1.51.12,2.77-.18,3.79-.88,1.02-.7,1.8-1.68,2.34-2.92.54-1.25.87-2.62.99-4.13.09-1.12.04-2.21-.13-3.24s-.49-1.96-.96-2.78c-.47-.82-1.09-1.49-1.87-2-.78-.52-1.73-.82-2.85-.91l-6.28-.48.38-.29-1.35,17.59-.19-.41,6.14.47Z"/>
      <path class="st4" d="M881.34,254.48c-.62.1-1.16,0-1.64-.31s-.77-.77-.87-1.39.02-1.14.37-1.58c.35-.44.84-.71,1.45-.81l15.76-2.65c.62-.1,1.16,0,1.64.31.48.31.77.77.87,1.39s-.02,1.14-.37,1.58-.84.71-1.45.81l-15.76,2.65ZM892.69,273.93c-.66.11-1.24,0-1.74-.35-.5-.34-.8-.82-.9-1.44l-3.47-20.59,4.62-.78,3.47,20.59c.1.62-.03,1.17-.4,1.66-.37.49-.9.79-1.58.9Z"/>
      <path class="st4" d="M903.03,246.04c.55-.18,1.1-.14,1.65.12.55.26.93.68,1.13,1.28l6.56,19.75c.2.59.14,1.16-.16,1.7-.3.54-.74.91-1.3,1.1-.64.21-1.22.18-1.74-.09-.52-.27-.88-.7-1.07-1.29l-6.56-19.75c-.2-.59-.16-1.16.12-1.69.28-.53.74-.91,1.37-1.12ZM906.24,256.02l15.24-5.06,1.31,3.93-15.24,5.06-1.3-3.93ZM918.17,241.02c.64-.21,1.22-.18,1.74.09s.88.7,1.08,1.29l6.56,19.75c.2.59.16,1.15-.1,1.69-.27.53-.73.91-1.39,1.12-.55.18-1.1.14-1.65-.12-.55-.26-.93-.68-1.13-1.28l-6.56-19.75c-.2-.59-.15-1.16.16-1.7.3-.54.74-.91,1.3-1.1Z"/>
      <path class="st4" d="M926.15,237.59l10.88-5.2c.56-.27,1.12-.32,1.67-.14.55.18.96.55,1.23,1.11.26.54.28,1.07.06,1.59-.22.52-.61.91-1.17,1.18l-9.09,4.35.03-.69,3.03,6.33-.38-.14,7.6-3.63c.56-.27,1.12-.32,1.67-.14.55.18.96.55,1.23,1.11.26.54.28,1.07.06,1.59-.22.52-.61.91-1.17,1.18l-7.5,3.59.04-.34,3.14,6.56-.4-.17,9.06-4.33c.56-.27,1.12-.3,1.68-.11.56.2.96.55,1.2,1.04.26.54.28,1.08.07,1.6-.21.53-.6.93-1.16,1.2l-10.88,5.2c-.56.27-1.12.31-1.68.11-.56-.2-.97-.58-1.24-1.14l-8.98-18.77c-.27-.56-.3-1.12-.11-1.68.2-.56.58-.97,1.14-1.24Z"/>
      <path class="st4" d="M965.56,216.22c.69-.08,1.27.13,1.73.63.46.5.65,1.11.57,1.82-.02.53-.23.95-.61,1.26-.38.31-.85.5-1.41.58-.63.1-1.24.26-1.85.49-.61.23-1.21.54-1.79.92-1.08.71-1.94,1.52-2.56,2.42-.63.9-1.03,1.87-1.22,2.89s-.15,2.07.11,3.14.73,2.12,1.42,3.16c.81,1.22,1.68,2.17,2.62,2.84.95.67,1.93,1.1,2.94,1.29,1.02.19,2.04.16,3.08-.11,1.03-.26,2.04-.72,3.02-1.37.54-.36,1.05-.76,1.52-1.22.47-.46.88-.98,1.21-1.57.29-.48.66-.82,1.11-1.03.45-.21.93-.23,1.45-.05.73.24,1.22.66,1.46,1.26.24.6.19,1.19-.15,1.76-.35.6-.74,1.17-1.18,1.71-.44.53-.91,1.03-1.41,1.49-.5.46-1.04.88-1.62,1.26-1.44.95-2.96,1.62-4.56,2.01-1.6.39-3.2.47-4.8.23s-3.15-.84-4.62-1.81-2.79-2.35-3.97-4.13c-1.02-1.54-1.69-3.14-2.02-4.79-.33-1.65-.32-3.27.03-4.87.34-1.59,1-3.09,1.98-4.49.97-1.4,2.24-2.62,3.8-3.65.88-.58,1.81-1.05,2.78-1.4s1.96-.58,2.95-.69Z"/>
      <path class="st4" d="M992.1,221.26c.5-.37,1.04-.52,1.61-.45.57.07,1.04.36,1.41.86.36.48.48,1.01.38,1.58-.1.57-.41,1.04-.91,1.41l-9.43,6.93c-.5.37-1.05.51-1.63.42s-1.07-.39-1.43-.89l-12.32-16.77c-.37-.5-.5-1.05-.41-1.65.1-.59.42-1.09.96-1.49.46-.34,1-.47,1.61-.4.61.08,1.09.37,1.46.87l11.49,15.63-1-.02,8.21-6.03Z"/>
      <path class="st4" d="M995.01,199.73l4.99,19.24c.14.46.16.9.03,1.31-.12.41-.35.74-.67.99-.51.4-1,.55-1.47.45-.47-.09-.86-.35-1.18-.77-.13-.17-.24-.37-.33-.61l-6.02-22.53c-.14-.5-.13-.97.02-1.42.15-.45.42-.79.82-1.04.34-.26.74-.41,1.19-.44.45-.03.88.09,1.29.35l19.88,11.32c.29.17.51.37.67.58.39.51.54,1.05.44,1.61-.1.56-.35.99-.75,1.3-.34.26-.73.4-1.17.4s-.87-.12-1.3-.36l-17.13-9.58.7-.81ZM998.2,214.81l-.95-4.49,7.71-5.93,3.07,2.87-9.82,7.55Z"/>
      <path class="st4" d="M1024.42,202.25c-1.34,1.01-2.67,1.76-4,2.24-1.33.48-2.79.66-4.41.56-.41-.02-.78-.12-1.12-.28-.34-.17-.61-.38-.81-.65-.33-.44-.47-.95-.41-1.52.06-.57.33-1.04.81-1.41.36-.27.78-.41,1.24-.39,1.18.04,2.24-.05,3.19-.29.95-.24,1.95-.75,3-1.55.71-.54,1.27-1.14,1.7-1.81.43-.67.68-1.33.76-1.98.08-.65-.06-1.21-.42-1.69-.43-.57-.98-.93-1.62-1.07s-1.43-.08-2.35.18c-.92.26-1.98.73-3.19,1.4-1.15.63-2.24,1.08-3.26,1.36-1.02.28-1.98.37-2.88.28-.9-.09-1.73-.36-2.5-.82-.77-.46-1.46-1.1-2.09-1.92-.94-1.24-1.43-2.55-1.45-3.91-.03-1.36.33-2.69,1.07-3.98.74-1.29,1.77-2.43,3.09-3.43,1.24-.94,2.54-1.63,3.88-2.06,1.34-.43,2.57-.61,3.67-.55.89.02,1.55.32,1.98.89.32.42.45.93.38,1.52s-.32,1.05-.76,1.39c-.29.22-.61.33-.97.33-.51-.04-1.11.02-1.81.17-.7.15-1.39.37-2.09.64-.7.27-1.29.6-1.79.97-.82.62-1.44,1.25-1.84,1.89-.4.64-.61,1.25-.62,1.83s.16,1.11.53,1.59c.44.57.96.92,1.58,1.04.62.12,1.33.05,2.12-.21.8-.26,1.7-.63,2.71-1.13,1.31-.66,2.5-1.18,3.59-1.55,1.09-.37,2.09-.55,3-.54.92.01,1.77.25,2.57.71.8.46,1.57,1.18,2.31,2.16.94,1.24,1.41,2.58,1.4,4,0,1.42-.39,2.79-1.15,4.12-.76,1.33-1.79,2.48-3.09,3.47Z"/>
      <path class="st4" d="M1041.56,189.66c-1.37.97-2.73,1.67-4.07,2.1-1.34.43-2.81.57-4.42.41-.41-.04-.78-.14-1.11-.32-.33-.18-.59-.4-.79-.68-.32-.45-.44-.96-.35-1.53.08-.57.37-1.03.86-1.38.37-.26.79-.38,1.25-.35,1.17.08,2.24.02,3.2-.18.96-.2,1.97-.69,3.05-1.45.73-.51,1.31-1.09,1.76-1.75s.73-1.3.83-1.95c.1-.65-.02-1.21-.36-1.7-.41-.59-.94-.96-1.59-1.13s-1.43-.13-2.35.1c-.93.23-2,.66-3.23,1.29-1.17.59-2.27,1.01-3.3,1.25-1.03.24-1.99.3-2.89.18-.89-.12-1.71-.42-2.46-.91-.75-.48-1.42-1.15-2.02-1.99-.9-1.28-1.34-2.6-1.32-3.96s.43-2.68,1.21-3.94,1.86-2.37,3.21-3.32c1.27-.9,2.59-1.54,3.95-1.92s2.59-.52,3.69-.42c.89.05,1.54.37,1.95.96.3.43.41.94.33,1.53s-.35,1.04-.8,1.36c-.29.21-.62.31-.98.29-.51-.05-1.11-.02-1.81.11s-1.41.32-2.11.56c-.71.25-1.31.55-1.82.91-.84.59-1.48,1.2-1.91,1.83-.43.62-.66,1.23-.69,1.81-.03.58.13,1.12.47,1.61.42.59.93.95,1.54,1.09.61.14,1.32.1,2.13-.13.81-.23,1.72-.58,2.75-1.04,1.33-.61,2.54-1.09,3.64-1.42,1.1-.33,2.11-.48,3.02-.43.91.05,1.76.31,2.55.8.79.49,1.53,1.23,2.24,2.24.9,1.28,1.32,2.62,1.26,4.04s-.49,2.78-1.29,4.08c-.8,1.3-1.87,2.42-3.2,3.36Z"/>
      <path class="st4" d="M1054.22,180.58c-.57.35-1.2.48-1.86.4-.67-.08-1.17-.39-1.49-.92l-10.84-17.76c-.33-.53-.42-1.09-.28-1.67.14-.58.48-1.03,1.01-1.35l8.85-5.4c1.07-.65,2.24-.98,3.51-.98s2.5.31,3.68.96c1.18.64,2.16,1.61,2.95,2.9.48.78.78,1.63.91,2.56s.11,1.86-.07,2.79c-.18.93-.51,1.76-.98,2.5l-.4-.73c.76-.04,1.46.03,2.09.22.64.19,1.21.46,1.72.81.51.35.95.79,1.33,1.32.39.46.73.88.99,1.25s.53.66.79.87c.25.21.56.31.91.29.61,0,1.13.2,1.55.64.42.43.57.95.46,1.55-.06.4-.25.75-.55,1.03-.3.29-.65.5-1.04.64-.39.14-.74.22-1.04.23-.47,0-1.01-.08-1.6-.27-.59-.19-1.2-.55-1.83-1.1-.63-.54-1.27-1.35-1.92-2.41-.21-.35-.47-.63-.78-.86-.3-.22-.63-.37-.99-.45-.36-.08-.74-.07-1.16.03-.42.1-.86.29-1.33.58l-6.21,3.79.03-.99,4.07,6.67c.33.53.45,1.07.39,1.6-.07.53-.36.96-.87,1.27ZM1048.7,168.84l7.16-4.37c.37-.23.62-.61.77-1.16.14-.55.15-1.19.02-1.91-.13-.72-.41-1.43-.83-2.13-.55-.9-1.25-1.51-2.1-1.82-.85-.31-1.55-.3-2.11.04l-7.1,4.33-.23-1.21,5.31,8.69-.88-.47Z"/>
      <path class="st4" d="M1087.91,148.36c.77,1.63,1.21,3.28,1.33,4.94.12,1.67-.06,3.27-.54,4.81s-1.26,2.93-2.33,4.18c-1.07,1.25-2.41,2.25-4.02,3-1.61.76-3.23,1.15-4.86,1.17-1.63.03-3.2-.27-4.69-.88s-2.84-1.49-4.05-2.65-2.19-2.55-2.96-4.18c-.77-1.63-1.21-3.28-1.33-4.94-.12-1.67.06-3.27.54-4.81.48-1.54,1.25-2.93,2.31-4.17,1.06-1.24,2.39-2.24,4-3s3.23-1.15,4.88-1.18c1.64-.03,3.21.26,4.71.87,1.49.61,2.84,1.49,4.05,2.65s2.19,2.55,2.96,4.18ZM1083.68,150.35c-.68-1.45-1.6-2.64-2.74-3.54-1.14-.91-2.39-1.47-3.74-1.68-1.35-.21-2.7,0-4.04.63s-2.37,1.54-3.06,2.71c-.69,1.18-1.05,2.48-1.08,3.93-.02,1.44.31,2.9,1.01,4.38.68,1.46,1.59,2.64,2.72,3.55,1.13.91,2.37,1.48,3.72,1.69,1.35.21,2.69,0,4.04-.63,1.35-.63,2.37-1.54,3.06-2.71.69-1.17,1.06-2.49,1.08-3.95.03-1.46-.3-2.92-.98-4.37Z"/>
      <path class="st4" d="M1115.02,140.07c.5,1.73.68,3.43.54,5.09-.14,1.67-.57,3.22-1.29,4.67-.72,1.45-1.7,2.7-2.96,3.76-1.25,1.06-2.73,1.84-4.44,2.34-1.71.5-3.37.63-4.98.4s-3.11-.76-4.49-1.6c-1.38-.84-2.58-1.92-3.59-3.25-1.01-1.33-1.77-2.86-2.27-4.59-.5-1.73-.68-3.42-.54-5.09.14-1.67.57-3.22,1.29-4.67.72-1.45,1.7-2.7,2.94-3.76,1.24-1.06,2.71-1.84,4.42-2.33,1.71-.5,3.37-.63,5-.4s3.13.76,4.51,1.59c1.38.84,2.58,1.92,3.59,3.25,1.01,1.33,1.77,2.86,2.27,4.59ZM1110.52,141.38c-.45-1.54-1.17-2.85-2.15-3.93-.99-1.08-2.13-1.82-3.43-2.25s-2.66-.43-4.09-.01-2.58,1.15-3.45,2.2c-.87,1.05-1.43,2.29-1.68,3.71s-.15,2.92.31,4.48c.45,1.54,1.16,2.86,2.14,3.93.98,1.08,2.11,1.83,3.41,2.25,1.3.42,2.66.43,4.09.01,1.43-.42,2.58-1.15,3.45-2.2s1.43-2.3,1.69-3.73c.26-1.44.16-2.93-.29-4.47Z"/>
      <path class="st4" d="M1122.01,126.19c.34-.02.69.05,1.08.2s.68.37.89.65l9.6,12.87-1.8.04,8.08-13.94c.41-.68.98-1.04,1.7-1.08.57-.04,1.1.13,1.58.51.48.38.74.89.78,1.54l1.34,20.8c.04.62-.13,1.16-.51,1.6-.38.45-.91.69-1.58.73-.67.04-1.23-.13-1.67-.52-.45-.39-.69-.9-.73-1.52l-1.09-16.92,1.42.23-6.61,11.65c-.2.28-.45.52-.76.73-.31.21-.63.32-.97.32-.31.04-.63-.02-.97-.19-.34-.17-.62-.38-.85-.63l-7.56-10.41.81-1.96,1.17,18.18c.04.62-.12,1.16-.47,1.6-.36.44-.85.69-1.47.73-.6.04-1.1-.14-1.51-.53-.41-.39-.64-.9-.68-1.53l-1.34-20.8c-.04-.6.15-1.13.56-1.59s.93-.71,1.56-.75Z"/>
    </g>
  </g>
</svg>