<?xml version="1.0" encoding="UTF-8"?>
<svg id="Layer_1" xmlns="http://www.w3.org/2000/svg" version="1.1" viewBox="0 0 696.4 361.93">
  <!-- Generator: Adobe Illustrator 29.7.1, SVG Export Plug-In . SVG Version: 2.1.1 Build 8)  -->
  <defs>
    <style>
      .st0 {
        fill: #e44c17;
      }

      .st1 {
        fill: #002f55;
      }

      .st2 {
        fill: #fdf6ef;
      }
    </style>
  </defs>
  <rect class="st1" x="347.73" y="23.38" width="315.17" height="315.17" rx="17.47" ry="17.47"/>
  <rect class="st0" x="33.49" y="23.38" width="315.17" height="315.17" rx="17.47" ry="17.47"/>
  <circle class="st0" cx="376.21" cy="180.97" r="38.16"/>
  <g>
    <path class="st2" d="M446.84,192.65c-2.04,0-3.81-.43-5.31-1.28-1.5-.85-2.65-2.01-3.46-3.47s-1.21-3.12-1.21-4.97c0-2.16.44-4,1.31-5.53.88-1.52,2.02-2.69,3.44-3.51,1.42-.82,2.92-1.22,4.5-1.22,1.22,0,2.38.25,3.47.76,1.09.5,2.06,1.19,2.9,2.07s1.51,1.89,2,3.04.74,2.38.74,3.67c-.02.58-.25,1.04-.68,1.4-.43.36-.94.54-1.51.54h-13.75l-1.08-3.6h13.21l-.79.72v-.97c-.05-.7-.29-1.32-.74-1.87-.44-.55-1-.99-1.66-1.31s-1.36-.49-2.11-.49-1.39.1-2.02.29c-.62.19-1.16.52-1.62.97-.46.46-.82,1.07-1.08,1.84-.26.77-.4,1.74-.4,2.92,0,1.3.27,2.39.81,3.29.54.9,1.24,1.58,2.09,2.05s1.76.7,2.72.7c.89,0,1.6-.07,2.12-.22.53-.14.95-.32,1.28-.52s.62-.38.88-.52c.43-.22.84-.32,1.22-.32.53,0,.97.18,1.31.54.35.36.52.78.52,1.26,0,.65-.34,1.24-1.01,1.76-.62.53-1.5.99-2.63,1.39-1.13.4-2.29.59-3.49.59Z"/>
    <path class="st2" d="M475.5,165.65c.62,0,1.14.2,1.55.61.41.41.61.94.61,1.58v22.25c0,.62-.2,1.15-.61,1.57s-.92.63-1.55.63-1.14-.21-1.55-.63-.61-.94-.61-1.57v-1.76l.79.32c0,.31-.17.69-.5,1.13s-.79.88-1.37,1.31c-.58.43-1.25.8-2.03,1.1-.78.3-1.63.45-2.54.45-1.66,0-3.16-.43-4.5-1.28-1.34-.85-2.41-2.03-3.19-3.53-.78-1.5-1.17-3.22-1.17-5.17s.39-3.7,1.17-5.2c.78-1.5,1.83-2.68,3.15-3.53,1.32-.85,2.78-1.28,4.39-1.28,1.03,0,1.98.16,2.84.47.86.31,1.61.71,2.25,1.19.64.48,1.13.97,1.48,1.46s.52.91.52,1.24l-1.3.47v-9.65c0-.62.2-1.15.61-1.57s.92-.63,1.55-.63ZM468.22,188.69c1.06,0,1.98-.26,2.77-.79.79-.53,1.41-1.25,1.85-2.16.44-.91.67-1.93.67-3.06s-.22-2.18-.67-3.1c-.44-.91-1.06-1.63-1.85-2.16-.79-.53-1.72-.79-2.77-.79s-1.94.26-2.74.79c-.79.53-1.41,1.25-1.85,2.16-.44.91-.67,1.94-.67,3.1s.22,2.15.67,3.06c.44.91,1.06,1.63,1.85,2.16.79.53,1.7.79,2.74.79Z"/>
    <path class="st2" d="M497.92,173.03c.62,0,1.14.21,1.55.63s.61.94.61,1.57v9.14c0,2.54-.71,4.56-2.12,6.05-1.42,1.49-3.46,2.23-6.12,2.23s-4.7-.74-6.1-2.23c-1.4-1.49-2.11-3.5-2.11-6.05v-9.14c0-.62.2-1.15.61-1.57.41-.42.92-.63,1.55-.63s1.14.21,1.55.63.61.94.61,1.57v9.14c0,1.46.32,2.55.97,3.26.65.71,1.62,1.06,2.92,1.06s2.3-.35,2.95-1.06c.65-.71.97-1.79.97-3.26v-9.14c0-.62.2-1.15.61-1.57.41-.42.92-.63,1.55-.63Z"/>
    <path class="st2" d="M514.05,172.67c1.37,0,2.56.14,3.58.43,1.02.29,1.81.69,2.38,1.21.56.52.85,1.13.85,1.85,0,.48-.14.93-.43,1.35-.29.42-.71.63-1.26.63-.38,0-.7-.05-.95-.16-.25-.11-.47-.25-.67-.41s-.42-.32-.68-.47c-.24-.14-.61-.26-1.1-.34-.49-.08-.86-.13-1.1-.13-1.22,0-2.26.26-3.11.79-.85.53-1.51,1.24-1.96,2.14-.46.9-.68,1.94-.68,3.11s.23,2.18.7,3.08c.47.9,1.12,1.61,1.94,2.14.83.53,1.78.79,2.86.79.6,0,1.12-.04,1.55-.11.43-.07.79-.18,1.08-.32.34-.19.64-.4.9-.61.26-.22.66-.32,1.19-.32.62,0,1.1.2,1.44.59.34.4.5.88.5,1.46s-.34,1.15-1.01,1.64c-.67.49-1.55.89-2.65,1.19s-2.27.45-3.55.45c-1.9,0-3.54-.44-4.93-1.31-1.39-.88-2.47-2.07-3.22-3.58-.76-1.51-1.13-3.2-1.13-5.08,0-1.97.4-3.7,1.21-5.2.8-1.5,1.92-2.68,3.35-3.53,1.43-.85,3.07-1.28,4.91-1.28Z"/>
    <path class="st2" d="M540.69,172.67c.62,0,1.14.2,1.55.61s.61.94.61,1.58v15.23c0,.62-.2,1.15-.61,1.57s-.92.63-1.55.63-1.14-.21-1.55-.63-.61-.94-.61-1.57v-1.76l.79.32c0,.31-.17.69-.5,1.13s-.79.88-1.37,1.31c-.58.43-1.25.8-2.03,1.1-.78.3-1.63.45-2.54.45-1.66,0-3.16-.43-4.5-1.28-1.34-.85-2.41-2.03-3.19-3.53-.78-1.5-1.17-3.22-1.17-5.17s.39-3.7,1.17-5.2c.78-1.5,1.83-2.68,3.15-3.53,1.32-.85,2.78-1.28,4.39-1.28,1.03,0,1.98.16,2.84.47.86.31,1.61.71,2.25,1.19.64.48,1.13.97,1.48,1.46s.52.91.52,1.24l-1.3.47v-2.63c0-.62.2-1.15.61-1.57.41-.42.92-.63,1.55-.63ZM533.42,188.69c1.06,0,1.98-.26,2.77-.79.79-.53,1.41-1.25,1.85-2.16.44-.91.67-1.93.67-3.06s-.22-2.18-.67-3.1c-.44-.91-1.06-1.63-1.85-2.16-.79-.53-1.72-.79-2.77-.79s-1.94.26-2.74.79c-.79.53-1.41,1.25-1.85,2.16-.44.91-.67,1.94-.67,3.1s.22,2.15.67,3.06c.44.91,1.06,1.63,1.85,2.16.79.53,1.7.79,2.74.79Z"/>
    <path class="st2" d="M548.47,173.39h8.53c.58,0,1.06.19,1.44.58.38.38.58.86.58,1.44s-.19,1.01-.58,1.39-.86.56-1.44.56h-8.53c-.58,0-1.06-.19-1.44-.58s-.58-.86-.58-1.44.19-1.01.58-1.39.86-.56,1.44-.56ZM552.32,168.89c.62,0,1.13.21,1.53.63.4.42.59.94.59,1.57v16.02c0,.34.07.61.2.83.13.22.31.37.54.47.23.1.47.14.74.14.29,0,.55-.05.79-.16.24-.11.52-.16.83-.16.34,0,.64.16.92.47.28.31.41.74.41,1.3,0,.67-.37,1.22-1.1,1.66-.73.43-1.52.65-2.36.65-.5,0-1.06-.04-1.67-.13s-1.19-.29-1.73-.61c-.54-.32-.99-.82-1.35-1.49-.36-.67-.54-1.6-.54-2.77v-16.2c0-.62.21-1.15.63-1.57s.94-.63,1.57-.63Z"/>
    <path class="st2" d="M565.57,170.69c-.82,0-1.39-.13-1.73-.4-.34-.26-.5-.73-.5-1.4v-.68c0-.7.19-1.17.56-1.42.37-.25.94-.38,1.71-.38.84,0,1.43.13,1.76.4.34.26.5.73.5,1.4v.68c0,.7-.18,1.17-.54,1.42-.36.25-.95.38-1.76.38ZM567.76,190.09c0,.62-.21,1.15-.61,1.57-.41.42-.92.63-1.55.63s-1.14-.21-1.55-.63c-.41-.42-.61-.94-.61-1.57v-14.87c0-.62.2-1.15.61-1.57.41-.42.92-.63,1.55-.63s1.14.21,1.55.63c.41.42.61.94.61,1.57v14.87Z"/>
    <path class="st2" d="M591.59,182.68c0,1.97-.44,3.7-1.31,5.2-.88,1.5-2.05,2.67-3.53,3.51-1.48.84-3.13,1.26-4.95,1.26s-3.47-.42-4.95-1.26c-1.48-.84-2.65-2.01-3.53-3.51-.88-1.5-1.31-3.23-1.31-5.2s.44-3.7,1.31-5.2c.88-1.5,2.05-2.68,3.53-3.53,1.48-.85,3.12-1.28,4.95-1.28s3.47.43,4.95,1.28c1.48.85,2.65,2.03,3.53,3.53.88,1.5,1.31,3.23,1.31,5.2ZM587.27,182.68c0-1.22-.25-2.29-.74-3.19-.49-.9-1.15-1.6-1.98-2.11-.83-.5-1.75-.76-2.75-.76s-1.93.25-2.75.76-1.49,1.21-1.98,2.11c-.49.9-.74,1.96-.74,3.19s.25,2.25.74,3.15c.49.9,1.15,1.6,1.98,2.11.83.5,1.75.76,2.75.76s1.93-.25,2.75-.76c.83-.5,1.49-1.21,1.98-2.11.49-.9.74-1.95.74-3.15Z"/>
    <path class="st2" d="M606.39,172.67c1.78,0,3.13.37,4.05,1.12s1.56,1.73,1.91,2.97c.35,1.24.52,2.61.52,4.12v9.22c0,.62-.2,1.15-.61,1.57s-.92.63-1.55.63-1.14-.21-1.55-.63c-.41-.42-.61-.94-.61-1.57v-9.22c0-.79-.1-1.51-.3-2.14-.21-.64-.57-1.15-1.1-1.53-.53-.38-1.28-.58-2.27-.58s-1.77.19-2.43.58-1.16.89-1.51,1.53-.52,1.35-.52,2.14v9.22c0,.62-.21,1.15-.61,1.57s-.92.63-1.55.63-1.14-.21-1.55-.63-.61-.94-.61-1.57v-14.87c0-.62.2-1.15.61-1.57s.92-.63,1.55-.63,1.14.21,1.55.63.61.94.61,1.57v1.55l-.54-.11c.22-.41.53-.85.94-1.31.41-.47.89-.91,1.44-1.31.55-.41,1.18-.74,1.87-.99s1.45-.38,2.27-.38Z"/>
  </g>
  <g>
    <path class="st2" d="M100.59,172.67c1.68,0,3.19.43,4.52,1.28s2.39,2.02,3.17,3.51c.78,1.49,1.17,3.22,1.17,5.18s-.39,3.7-1.17,5.2c-.78,1.5-1.82,2.68-3.13,3.53-1.31.85-2.78,1.28-4.41,1.28-.96,0-1.86-.16-2.7-.47-.84-.31-1.58-.71-2.21-1.19-.64-.48-1.13-.97-1.48-1.46s-.52-.91-.52-1.24l1.12-.47v9.47c0,.62-.2,1.15-.61,1.57-.41.42-.92.63-1.55.63s-1.14-.2-1.55-.61c-.41-.41-.61-.94-.61-1.58v-22.07c0-.62.2-1.15.61-1.57.41-.42.92-.63,1.55-.63s1.14.21,1.55.63.61.94.61,1.57v1.76l-.61-.32c0-.31.17-.69.5-1.13s.79-.89,1.37-1.33,1.24-.81,2-1.1c.76-.29,1.55-.43,2.39-.43ZM100.05,176.63c-1.06,0-1.98.26-2.77.79-.79.53-1.41,1.24-1.85,2.14-.44.9-.67,1.93-.67,3.08s.22,2.16.67,3.08c.44.92,1.06,1.65,1.85,2.18.79.53,1.72.79,2.77.79s1.97-.26,2.75-.79c.78-.53,1.39-1.25,1.84-2.18.44-.92.67-1.95.67-3.08s-.22-2.18-.67-3.08c-.44-.9-1.06-1.61-1.84-2.14-.78-.53-1.7-.79-2.75-.79Z"/>
    <path class="st2" d="M112.83,189.3c-.24-.34-.35-.77-.32-1.3.02-.53.34-.98.94-1.37.38-.24.79-.34,1.22-.31.43.04.85.26,1.26.67.7.7,1.43,1.24,2.2,1.62.77.38,1.73.58,2.88.58.36-.02.76-.08,1.19-.16.43-.08.81-.28,1.13-.58.32-.3.49-.76.49-1.39,0-.53-.18-.95-.54-1.26-.36-.31-.83-.58-1.42-.79-.59-.22-1.24-.42-1.96-.61-.74-.22-1.51-.46-2.29-.72-.78-.26-1.49-.61-2.14-1.03-.65-.42-1.18-.98-1.58-1.67-.41-.7-.61-1.57-.61-2.63,0-1.2.34-2.22,1.01-3.06.67-.84,1.54-1.49,2.61-1.94,1.07-.46,2.19-.68,3.37-.68.74,0,1.52.09,2.34.27.82.18,1.6.47,2.34.86.74.4,1.37.92,1.87,1.57.26.36.42.79.47,1.3s-.18.96-.68,1.37c-.36.29-.78.41-1.26.38-.48-.04-.88-.2-1.19-.49-.41-.53-.95-.95-1.64-1.26-.68-.31-1.47-.47-2.36-.47-.36,0-.75.04-1.17.13s-.79.26-1.1.54c-.31.28-.47.71-.47,1.31,0,.55.18.99.54,1.31.36.32.85.59,1.46.79.61.2,1.27.4,1.96.59.72.19,1.45.42,2.2.68.74.26,1.43.61,2.05,1.04.62.43,1.13.99,1.51,1.67.38.68.58,1.55.58,2.61,0,1.22-.36,2.27-1.08,3.13-.72.86-1.62,1.52-2.7,1.96-1.08.44-2.18.67-3.31.67-1.42,0-2.83-.25-4.25-.74s-2.59-1.36-3.53-2.61Z"/>
    <path class="st2" d="M146.31,173.03c.62,0,1.14.21,1.55.63s.61.94.61,1.57v15.3c0,2.21-.41,3.96-1.24,5.27-.83,1.31-1.94,2.25-3.33,2.83-1.39.58-2.95.86-4.68.86-.77,0-1.58-.06-2.45-.18s-1.57-.3-2.12-.54c-.72-.31-1.22-.7-1.49-1.17-.28-.47-.33-.97-.16-1.49.22-.7.56-1.17,1.04-1.42.48-.25.98-.28,1.51-.09.38.12.89.31,1.51.56s1.34.38,2.16.38c1.1,0,2.02-.15,2.75-.45.73-.3,1.28-.8,1.66-1.51.37-.71.56-1.67.56-2.9v-2.41l.76.86c-.41.79-.92,1.45-1.53,1.96-.61.52-1.34.91-2.18,1.17s-1.8.4-2.88.4c-1.27,0-2.38-.29-3.33-.88-.95-.59-1.69-1.4-2.21-2.45-.53-1.04-.79-2.24-.79-3.58v-10.51c0-.62.2-1.15.61-1.57.41-.42.92-.63,1.55-.63s1.14.21,1.55.63.61.94.61,1.57v9.22c0,1.56.34,2.66,1.03,3.29.68.64,1.64.95,2.86.95.84,0,1.55-.16,2.12-.49s1.02-.8,1.33-1.44c.31-.64.47-1.41.47-2.32v-9.22c0-.62.2-1.15.61-1.57.41-.42.92-.63,1.55-.63Z"/>
    <path class="st2" d="M162.26,172.67c1.37,0,2.56.14,3.58.43,1.02.29,1.81.69,2.38,1.21.56.52.85,1.13.85,1.85,0,.48-.14.93-.43,1.35-.29.42-.71.63-1.26.63-.38,0-.7-.05-.95-.16-.25-.11-.47-.25-.67-.41s-.42-.32-.68-.47c-.24-.14-.61-.26-1.1-.34-.49-.08-.86-.13-1.1-.13-1.22,0-2.26.26-3.11.79-.85.53-1.51,1.24-1.96,2.14-.46.9-.68,1.94-.68,3.11s.23,2.18.7,3.08c.47.9,1.12,1.61,1.94,2.14.83.53,1.78.79,2.86.79.6,0,1.12-.04,1.55-.11.43-.07.79-.18,1.08-.32.34-.19.64-.4.9-.61.26-.22.66-.32,1.19-.32.62,0,1.1.2,1.44.59.34.4.5.88.5,1.46s-.34,1.15-1.01,1.64c-.67.49-1.55.89-2.65,1.19s-2.27.45-3.55.45c-1.9,0-3.54-.44-4.93-1.31-1.39-.88-2.47-2.07-3.22-3.58-.76-1.51-1.13-3.2-1.13-5.08,0-1.97.4-3.7,1.21-5.2.8-1.5,1.92-2.68,3.35-3.53,1.43-.85,3.07-1.28,4.91-1.28Z"/>
    <path class="st2" d="M183.25,172.67c1.73,0,3.04.37,3.94,1.12.9.74,1.52,1.73,1.85,2.97.34,1.24.5,2.61.5,4.12v9.22c0,.62-.2,1.15-.61,1.57-.41.42-.92.63-1.55.63s-1.14-.21-1.55-.63-.61-.94-.61-1.57v-9.22c0-.79-.1-1.51-.29-2.14-.19-.64-.54-1.15-1.04-1.53s-1.22-.58-2.16-.58-1.69.19-2.34.58c-.65.38-1.13.89-1.46,1.53s-.49,1.35-.49,2.14v9.22c0,.62-.2,1.15-.61,1.57s-.92.63-1.55.63-1.14-.21-1.55-.63-.61-.94-.61-1.57v-22.25c0-.62.2-1.15.61-1.57s.92-.63,1.55-.63,1.14.21,1.55.63.61.94.61,1.57v8.93l-.54-.11c.22-.41.52-.85.9-1.31.38-.47.85-.91,1.4-1.31s1.16-.74,1.84-.99,1.4-.38,2.2-.38Z"/>
    <path class="st2" d="M213.63,182.68c0,1.97-.44,3.7-1.31,5.2-.88,1.5-2.05,2.67-3.53,3.51-1.48.84-3.13,1.26-4.95,1.26s-3.47-.42-4.95-1.26c-1.48-.84-2.65-2.01-3.53-3.51-.88-1.5-1.31-3.23-1.31-5.2s.44-3.7,1.31-5.2c.88-1.5,2.05-2.68,3.53-3.53,1.48-.85,3.12-1.28,4.95-1.28s3.47.43,4.95,1.28c1.48.85,2.65,2.03,3.53,3.53.88,1.5,1.31,3.23,1.31,5.2ZM209.31,182.68c0-1.22-.25-2.29-.74-3.19-.49-.9-1.15-1.6-1.98-2.11-.83-.5-1.75-.76-2.75-.76s-1.93.25-2.75.76-1.49,1.21-1.98,2.11c-.49.9-.74,1.96-.74,3.19s.25,2.25.74,3.15c.49.9,1.15,1.6,1.98,2.11.83.5,1.75.76,2.75.76s1.93-.25,2.75-.76c.83-.5,1.49-1.21,1.98-2.11.49-.9.74-1.95.74-3.15Z"/>
    <path class="st2" d="M222.81,190.09c0,.62-.21,1.15-.63,1.57s-.94.63-1.57.63-1.1-.21-1.51-.63-.61-.94-.61-1.57v-22.25c0-.62.21-1.15.63-1.57.42-.42.94-.63,1.57-.63s1.13.21,1.53.63c.4.42.59.94.59,1.57v22.25Z"/>
    <path class="st2" d="M246.9,182.68c0,1.97-.44,3.7-1.31,5.2-.88,1.5-2.05,2.67-3.53,3.51-1.48.84-3.13,1.26-4.95,1.26s-3.47-.42-4.95-1.26c-1.48-.84-2.65-2.01-3.53-3.51-.88-1.5-1.31-3.23-1.31-5.2s.44-3.7,1.31-5.2c.88-1.5,2.05-2.68,3.53-3.53,1.48-.85,3.12-1.28,4.95-1.28s3.47.43,4.95,1.28c1.48.85,2.65,2.03,3.53,3.53.88,1.5,1.31,3.23,1.31,5.2ZM242.58,182.68c0-1.22-.25-2.29-.74-3.19-.49-.9-1.15-1.6-1.98-2.11-.83-.5-1.75-.76-2.75-.76s-1.93.25-2.75.76-1.49,1.21-1.98,2.11c-.49.9-.74,1.96-.74,3.19s.25,2.25.74,3.15c.49.9,1.15,1.6,1.98,2.11.83.5,1.75.76,2.75.76s1.93-.25,2.75-.76c.83-.5,1.49-1.21,1.98-2.11.49-.9.74-1.95.74-3.15Z"/>
    <path class="st2" d="M259.39,172.67c1.01,0,1.93.16,2.77.47.84.31,1.57.71,2.18,1.19.61.48,1.09.97,1.44,1.46s.52.91.52,1.24l-.94.47v-2.63c0-.62.2-1.15.61-1.57.41-.42.92-.63,1.55-.63s1.14.2,1.55.61.61.94.61,1.58v16.02c0,2.09-.45,3.76-1.35,5.02-.9,1.26-2.08,2.17-3.55,2.74-1.46.56-3.04.85-4.72.85-.48,0-1.1-.06-1.87-.18-.77-.12-1.5-.26-2.2-.43-.7-.17-1.22-.32-1.58-.47-.72-.31-1.22-.7-1.49-1.17-.28-.47-.33-.97-.16-1.49.22-.7.56-1.17,1.04-1.42.48-.25.98-.28,1.51-.09.24.07.64.22,1.19.43.55.22,1.16.41,1.82.59.66.18,1.24.27,1.75.27,1.8,0,3.13-.36,4-1.08s1.3-1.72,1.3-2.99v-3.13l.43.32c0,.31-.16.69-.49,1.13s-.77.88-1.33,1.31c-.56.43-1.23.8-2,1.1-.77.3-1.58.45-2.45.45-1.7,0-3.24-.43-4.61-1.28-1.37-.85-2.45-2.03-3.24-3.53-.79-1.5-1.19-3.22-1.19-5.17s.4-3.7,1.19-5.2c.79-1.5,1.86-2.68,3.2-3.53,1.34-.85,2.84-1.28,4.5-1.28ZM260.07,176.63c-1.08,0-2.03.26-2.84.79-.82.53-1.45,1.25-1.91,2.16s-.68,1.94-.68,3.1.23,2.15.68,3.06,1.09,1.63,1.91,2.16c.82.53,1.76.79,2.84.79s2.06-.26,2.88-.79c.82-.53,1.45-1.25,1.91-2.16s.68-1.93.68-3.06-.23-2.18-.68-3.1-1.09-1.63-1.91-2.16c-.82-.53-1.78-.79-2.88-.79Z"/>
    <path class="st2" d="M289.38,173.03c.62,0,1.14.21,1.55.63s.61.94.61,1.57v15.3c0,2.21-.41,3.96-1.24,5.27-.83,1.31-1.94,2.25-3.33,2.83-1.39.58-2.95.86-4.68.86-.77,0-1.58-.06-2.45-.18s-1.57-.3-2.12-.54c-.72-.31-1.22-.7-1.49-1.17-.28-.47-.33-.97-.16-1.49.22-.7.56-1.17,1.04-1.42.48-.25.98-.28,1.51-.09.38.12.89.31,1.51.56s1.34.38,2.16.38c1.1,0,2.02-.15,2.75-.45.73-.3,1.28-.8,1.66-1.51.37-.71.56-1.67.56-2.9v-2.41l.76.86c-.41.79-.92,1.45-1.53,1.96-.61.52-1.34.91-2.18,1.17s-1.8.4-2.88.4c-1.27,0-2.38-.29-3.33-.88-.95-.59-1.69-1.4-2.21-2.45-.53-1.04-.79-2.24-.79-3.58v-10.51c0-.62.2-1.15.61-1.57.41-.42.92-.63,1.55-.63s1.14.21,1.55.63.61.94.61,1.57v9.22c0,1.56.34,2.66,1.03,3.29.68.64,1.64.95,2.86.95.84,0,1.55-.16,2.12-.49s1.02-.8,1.33-1.44c.31-.64.47-1.41.47-2.32v-9.22c0-.62.2-1.15.61-1.57.41-.42.92-.63,1.55-.63Z"/>
  </g>
  <path class="st2" d="M374.26,190.32c-1.57,0-2.94-.25-4.09-.75-1.15-.5-2.04-1.2-2.66-2.09s-.93-1.94-.93-3.13c0-.71.1-1.38.3-2,.2-.62.49-1.2.88-1.73.39-.54.86-1.04,1.42-1.51.56-.47,1.19-.92,1.9-1.34l1.07-.63-.57.85c-.92-.92-1.59-1.8-2-2.63s-.61-1.68-.61-2.57c0-1.05.25-1.97.75-2.77.5-.8,1.22-1.42,2.14-1.86.92-.44,2-.66,3.24-.66,1.72,0,3.08.44,4.09,1.31,1.01.87,1.51,2.05,1.51,3.54,0,.8-.16,1.55-.47,2.27-.31.71-.82,1.4-1.51,2.05s-1.62,1.29-2.77,1.92l.03-.94,5.35,5.7h-.85c.27-.46.51-.97.72-1.53.21-.56.39-1.15.55-1.79s.28-1.31.36-2c.08-.52.26-.92.54-1.18.27-.26.66-.39,1.16-.39.55,0,.96.15,1.23.46.27.3.38.74.31,1.31-.1.99-.28,1.92-.52,2.82-.24.89-.54,1.72-.9,2.49s-.75,1.47-1.2,2.12l-.03-.98,2.99,3.02c.4.4.6.8.6,1.2s-.15.73-.46.99c-.3.26-.72.39-1.24.39-.46,0-.84-.09-1.13-.27s-.62-.45-.98-.8l-1.95-2.04h.91c-.92.99-2.01,1.76-3.26,2.33s-2.56.85-3.95.85ZM374.48,187.21c1.01,0,1.9-.19,2.69-.58.79-.39,1.5-.97,2.16-1.75l-.09,1.01-6.48-6.7,1.64.16-.91.54c-.71.42-1.29.83-1.73,1.24s-.76.85-.96,1.32-.3,1-.3,1.59c0,.99.35,1.76,1.04,2.33s1.68.85,2.96.85ZM375.11,170.31c-.75,0-1.36.21-1.83.64-.46.43-.69,1.01-.69,1.75,0,.4.06.77.19,1.12.13.35.35.72.66,1.13.32.41.75.91,1.29,1.49l-.88-.06c.88-.5,1.58-.95,2.09-1.35.51-.4.89-.8,1.12-1.2s.35-.84.35-1.32c0-.71-.21-1.26-.63-1.64-.42-.38-.98-.57-1.67-.57Z"/>
</svg>