<?xml version="1.0" encoding="UTF-8"?>
<svg id="Layer_1" xmlns="http://www.w3.org/2000/svg" version="1.1" viewBox="0 0 465.29 311.71">
  <!-- Generator: Adobe Illustrator 29.7.1, SVG Export Plug-In . SVG Version: 2.1.1 Build 8)  -->
  <defs>
    <style>
      .st0 {
        fill: #adc716;
      }

      .st1 {
        fill: #fff7f0;
        stroke: #adc716;
        stroke-miterlimit: 10;
        stroke-width: 2.34px;
      }
    </style>
  </defs>
  <rect class="st1" x="43.76" y="40.46" width="377.77" height="230.79" rx="22.49" ry="22.49"/>
  <g>
    <path class="st0" d="M286.08,88.28l-3.21-3.6c-.95-1.06-.32-2.75,1.09-2.93l4.78-.62c.54-.07,1.02-.39,1.3-.86l2.43-4.17c.72-1.23,2.51-1.15,3.12.13l2.07,4.36c.23.49.69.85,1.22.97l4.71,1.02c1.39.3,1.87,2.03.84,3.01l-3.51,3.31c-.4.38-.6.92-.54,1.46l.48,4.8c.14,1.41-1.36,2.41-2.6,1.73l-4.24-2.31c-.48-.26-1.06-.29-1.56-.07l-4.41,1.94c-1.3.57-2.71-.55-2.45-1.94l.89-4.74c.1-.54-.05-1.09-.42-1.5Z"/>
    <g>
      <path class="st0" d="M175.5,151.31c0,.84-.26,1.57-.79,2.19s-1.16,1.13-1.89,1.53c-.66.4-1.33.83-2.02,1.28-.69.46-1.33.97-1.91,1.53-.58.57-1.06,1.19-1.42,1.89-.36.69-.55,1.47-.55,2.35,0,.76.18,1.46.55,2.08.36.62.81,1.23,1.34,1.83.53.6,1.11,1.22,1.75,1.86.64.64,1.22,1.35,1.75,2.13.53.78.97,1.67,1.34,2.65.36.98.55,2.13.55,3.44,0,.91-.19,1.94-.57,3.09-.38,1.15-.9,2.3-1.56,3.47-.66,1.17-1.43,2.3-2.32,3.39-.89,1.09-1.84,2.07-2.84,2.92s-2.05,1.55-3.14,2.08c-1.09.53-2.15.79-3.17.79-1.13,0-2.13-.31-3.01-.93-.87-.62-1.31-1.55-1.31-2.79,0-.84.2-1.61.6-2.32.4-.71.89-1.39,1.48-2.05.58-.66,1.23-1.29,1.94-1.91.71-.62,1.36-1.24,1.94-1.86.58-.62,1.07-1.26,1.48-1.94.4-.67.6-1.39.6-2.16,0-1.06-.37-2.14-1.12-3.25-.75-1.11-1.58-2.26-2.49-3.44-.91-1.18-1.74-2.4-2.49-3.63-.75-1.24-1.12-2.49-1.12-3.77,0-1.57.42-3.21,1.26-4.94.84-1.73,1.91-3.31,3.22-4.75,1.31-1.44,2.79-2.63,4.43-3.58,1.64-.95,3.26-1.42,4.86-1.42,1.28,0,2.37.38,3.28,1.15s1.37,1.8,1.37,3.11Z"/>
      <path class="st0" d="M191.26,191.63c-2.59,0-4.6-.34-6.04-1.01-1.44-.67-2.51-1.63-3.22-2.87-.71-1.24-1.14-2.73-1.28-4.48-.15-1.75-.22-3.7-.22-5.85,0-1.71.05-3.43.16-5.16s.27-3.58.49-5.55c-.51,0-.91,0-1.2.03-.29.02-.53.03-.71.03-1.17,0-2.18-.25-3.03-.76-.86-.51-1.28-1.29-1.28-2.35,0-.65.25-1.24.74-1.75.49-.51,1.12-.95,1.89-1.31.76-.36,1.59-.66,2.49-.87.89-.22,1.74-.36,2.54-.44,0-1.02.07-2.15.22-3.39.14-1.24.41-2.39.79-3.47s.9-1.98,1.56-2.7c.66-.73,1.49-1.09,2.51-1.09.58,0,1.1.17,1.56.52.45.35.83.78,1.12,1.31.29.53.51,1.12.66,1.78.15.66.22,1.29.22,1.91,0,.73-.05,1.47-.16,2.24-.11.77-.31,1.71-.6,2.84.62-.07,1.04-.12,1.26-.14.22-.02.42-.03.6-.03.62,0,1.27.05,1.94.16.67.11,1.29.29,1.86.55.56.26,1.03.59,1.39,1.01.36.42.55.92.55,1.5,0,.66-.26,1.24-.79,1.75-.53.51-1.19.95-2,1.31-.8.36-1.66.65-2.57.85-.91.2-1.77.34-2.57.41-.22,1.49-.37,2.87-.46,4.12-.09,1.26-.19,2.52-.3,3.8-.07.62-.14,1.25-.19,1.89s-.08,1.28-.08,1.94c0,.47.02,1.03.05,1.67.04.64.16,1.25.38,1.83.22.58.56,1.08,1.04,1.5.47.42,1.13.63,1.97.63.51,0,1.04-.05,1.58-.14.55-.09,1.09-.14,1.64-.14.95,0,1.63.33,2.05.98s.63,1.49.63,2.51c0,.76-.23,1.43-.68,1.99-.46.56-1.03,1.02-1.72,1.37-.69.35-1.47.61-2.32.79-.86.18-1.67.27-2.43.27Z"/>
      <path class="st0" d="M223.85,181.96c0,.66-.03,1.51-.08,2.57-.05,1.06-.21,2.09-.46,3.09-.26,1-.66,1.87-1.2,2.6s-1.31,1.09-2.29,1.09c-1.35,0-2.39-.44-3.11-1.31-.73-.87-1.08-1.97-1.04-3.28-1.17,1.02-2.49,1.82-3.96,2.4-1.48.58-2.98.87-4.51.87-1.06,0-2.06-.25-3.01-.76-.95-.51-1.79-1.17-2.51-1.97s-1.31-1.7-1.75-2.7c-.44-1-.66-1.99-.66-2.98,0-1.75.54-3.28,1.61-4.59,1.07-1.31,2.39-2.43,3.96-3.36,1.57-.93,3.23-1.67,5-2.21,1.77-.55,3.34-.91,4.73-1.09,0-.18,0-.35.03-.49.02-.15.03-.31.03-.49,0-1.13-.31-2.04-.93-2.73-.62-.69-1.49-1.04-2.62-1.04-.91,0-1.69.15-2.35.46s-1.28.66-1.86,1.04-1.17.73-1.75,1.04c-.58.31-1.24.46-1.97.46-.8,0-1.48-.25-2.05-.77-.57-.51-.85-1.17-.85-1.97,0-1.2.36-2.3,1.07-3.28.71-.98,1.6-1.81,2.68-2.49,1.07-.67,2.24-1.2,3.5-1.58,1.26-.38,2.41-.57,3.47-.57.98,0,1.97.12,2.95.35.98.24,1.91.6,2.79,1.09.87.49,1.67,1.09,2.38,1.8.71.71,1.28,1.54,1.72,2.49.66,1.35,1.18,2.78,1.58,4.29.4,1.51.71,3.06.93,4.64.22,1.58.36,3.17.44,4.75.07,1.58.11,3.12.11,4.62ZM215.11,180.21l-.16-3.72c-.07,0-.15,0-.22-.03-.07-.02-.15-.03-.22-.03-.47,0-1.07.12-1.78.36-.71.24-1.39.57-2.05.98-.66.42-1.21.88-1.67,1.39-.46.51-.68,1.04-.68,1.58,0,.51.18.86.55,1.04.36.18.78.27,1.26.27.8,0,1.66-.21,2.57-.63s1.71-.83,2.4-1.23Z"/>
      <path class="st0" d="M243.77,191.19c-.62,0-1.11-.28-1.48-.85-.36-.57-.64-1.21-.82-1.94s-.3-1.47-.35-2.21c-.05-.75-.08-1.32-.08-1.72,0-1.09.06-2.19.19-3.28.13-1.09.27-2.19.44-3.28.16-1.09.31-2.19.44-3.28.13-1.09.19-2.19.19-3.28,0-.44-.02-.91-.05-1.42-.04-.51-.12-.99-.25-1.45-.13-.46-.34-.83-.63-1.12-.29-.29-.67-.44-1.15-.44-.33,0-.69.26-1.09.79-.4.53-.77,1.13-1.12,1.8-.35.67-.64,1.35-.87,2.02-.24.67-.35,1.18-.35,1.5,0,.8,0,1.61.03,2.43.02.82.03,1.65.03,2.49v3.17c-.04.66-.09,1.33-.16,2.02-.07.69-.18,1.37-.33,2.02-.11.65-.27,1.28-.49,1.89-.22.6-.5,1.13-.85,1.58-.35.46-.76.83-1.23,1.12-.47.29-1.04.44-1.69.44-.73,0-1.33-.24-1.8-.71-.47-.47-.86-1.08-1.15-1.83-.29-.75-.5-1.58-.63-2.51-.13-.93-.22-1.84-.27-2.73-.05-.89-.07-1.71-.05-2.46.02-.75.03-1.34.03-1.78v-2.57c0-1.38-.03-2.75-.08-4.1-.05-1.35-.08-2.7-.08-4.04,0-.73,0-1.66.03-2.79.02-1.13.15-2.23.41-3.31.25-1.07.67-1.99,1.26-2.76.58-.76,1.44-1.15,2.57-1.15.51,0,.96.16,1.37.49.4.33.76.73,1.07,1.2.31.47.56.98.76,1.53.2.55.36,1.02.46,1.42.36-.51.79-1,1.28-1.47.49-.47,1.05-.89,1.67-1.26.62-.36,1.31-.66,2.08-.87s1.64-.33,2.62-.33c1.86,0,3.31.45,4.34,1.34s1.8,2,2.29,3.33c.49,1.33.79,2.76.9,4.29.11,1.53.16,2.91.16,4.15,0,.62-.05,1.54-.16,2.76-.11,1.22-.28,2.57-.52,4.04-.24,1.47-.56,2.99-.96,4.53-.4,1.55-.87,2.96-1.42,4.23-.55,1.28-1.19,2.31-1.94,3.11-.75.8-1.59,1.2-2.54,1.2Z"/>
      <path class="st0" d="M279.03,153.71c0,2.66-.1,5.3-.3,7.92-.2,2.62-.3,5.26-.3,7.92,0,2.15.06,4.28.19,6.39.13,2.11.19,4.24.19,6.39,0,.58-.02,1.28-.05,2.1-.04.82-.16,1.61-.36,2.38-.2.76-.53,1.42-.98,1.97-.46.55-1.1.82-1.94.82-1.09,0-1.99-.41-2.7-1.23-.71-.82-1.16-1.74-1.34-2.76-.69,1.31-1.69,2.42-3,3.33-1.31.91-2.73,1.37-4.26,1.37-1.64,0-3.05-.57-4.23-1.69-1.18-1.13-2.17-2.49-2.95-4.1-.78-1.6-1.37-3.28-1.75-5.03-.38-1.75-.57-3.26-.57-4.53,0-.91.05-1.95.16-3.11.11-1.17.3-2.35.57-3.55.27-1.2.63-2.38,1.07-3.52.44-1.15.99-2.18,1.67-3.09s1.48-1.64,2.4-2.19c.93-.55,1.99-.82,3.2-.82,1.31,0,2.57.38,3.77,1.15,1.2.76,2.11,1.71,2.73,2.84l.49-8.69c.04-.69.09-1.5.16-2.43.07-.93.23-1.81.46-2.65.24-.84.61-1.55,1.12-2.13s1.26-.87,2.24-.87c1.06,0,1.88.26,2.46.76.58.51,1.01,1.16,1.28,1.94.27.78.44,1.63.49,2.54.05.91.08,1.77.08,2.57ZM270.13,177.97c0-.84-.02-1.66-.05-2.46-.04-.8-.04-1.62,0-2.46-.22-.47-.47-.99-.76-1.56-.29-.56-.65-1.09-1.07-1.58-.42-.49-.88-.9-1.39-1.23-.51-.33-1.06-.49-1.64-.49-.66,0-1.18.2-1.58.6-.4.4-.69.88-.87,1.45-.18.57-.3,1.18-.35,1.83-.05.66-.08,1.22-.08,1.69,0,.44.04,1.08.11,1.94.07.86.21,1.72.41,2.6.2.87.48,1.64.85,2.29.36.66.86.98,1.48.98.47,0,.95-.1,1.42-.3.47-.2.92-.46,1.34-.76.42-.31.82-.66,1.2-1.04s.72-.74,1.01-1.07v-.44Z"/>
    </g>
    <path class="st0" d="M242.84,197.48c0,.91-.36,1.74-1.07,2.49-.71.75-1.57,1.4-2.57,1.97-1,.57-2.03,1.03-3.09,1.39-1.06.36-1.93.62-2.62.76-.29,2.81-.52,5.6-.68,8.39-.16,2.79-.25,5.58-.25,8.39,0,1.49.04,2.97.11,4.43.07,1.46.11,2.92.11,4.37,0,.66-.06,1.37-.19,2.16-.13.78-.35,1.52-.66,2.21-.31.69-.74,1.27-1.28,1.75-.55.47-1.22.71-2.02.71-.95,0-1.7-.26-2.27-.79-.56-.53-1-1.17-1.31-1.94-.31-.76-.52-1.57-.63-2.43-.11-.86-.16-1.63-.16-2.32-.07-2.19-.13-4.38-.16-6.58-.04-2.2-.05-4.42-.05-6.64,0-1.86,0-3.68.03-5.46.02-1.78.03-3.61.03-5.46-.51.07-1.03.13-1.56.16-.53.04-1.07.05-1.61.05-.44,0-1.01-.05-1.72-.14-.71-.09-1.39-.25-2.05-.49-.66-.24-1.22-.56-1.69-.98-.47-.42-.71-.96-.71-1.61,0-1.09.43-2.05,1.28-2.87.86-.82,1.95-1.53,3.28-2.13,1.33-.6,2.8-1.11,4.43-1.53,1.62-.42,3.22-.75,4.81-.98,1.58-.24,3.04-.41,4.37-.52,1.33-.11,2.36-.16,3.09-.16s1.43.03,2.21.08c.78.05,1.52.21,2.21.46.69.26,1.27.64,1.72,1.15.46.51.68,1.22.68,2.13Z"/>
    <path class="st0" d="M264.34,227.09c0,.66-.03,1.51-.08,2.57-.05,1.06-.21,2.09-.46,3.09-.25,1-.66,1.87-1.2,2.59-.55.73-1.31,1.09-2.29,1.09-1.35,0-2.39-.44-3.11-1.31-.73-.87-1.07-1.97-1.04-3.28-1.17,1.02-2.49,1.82-3.96,2.4-1.47.58-2.98.87-4.51.87-1.06,0-2.06-.25-3.01-.76-.95-.51-1.78-1.17-2.51-1.97-.73-.8-1.31-1.7-1.75-2.7-.44-1-.66-1.99-.66-2.98,0-1.75.54-3.28,1.61-4.59,1.07-1.31,2.39-2.43,3.96-3.36,1.57-.93,3.23-1.67,5-2.21,1.77-.55,3.34-.91,4.73-1.09,0-.18,0-.35.03-.49.02-.15.03-.31.03-.49,0-1.13-.31-2.04-.93-2.73-.62-.69-1.49-1.04-2.62-1.04-.91,0-1.69.15-2.35.46-.66.31-1.28.66-1.86,1.04s-1.17.73-1.75,1.04c-.58.31-1.24.46-1.97.46-.8,0-1.48-.25-2.05-.76-.56-.51-.85-1.17-.85-1.97,0-1.2.36-2.29,1.07-3.28.71-.98,1.6-1.81,2.68-2.49,1.07-.67,2.24-1.2,3.5-1.58,1.26-.38,2.41-.57,3.47-.57.98,0,1.97.12,2.95.36.98.24,1.91.6,2.79,1.09.87.49,1.67,1.09,2.38,1.8.71.71,1.28,1.54,1.72,2.49.66,1.35,1.18,2.78,1.58,4.29.4,1.51.71,3.06.93,4.64.22,1.58.36,3.17.44,4.75.07,1.58.11,3.12.11,4.62ZM255.6,225.34l-.16-3.72c-.07,0-.15,0-.22-.03-.07-.02-.15-.03-.22-.03-.47,0-1.07.12-1.78.36-.71.24-1.39.56-2.05.98-.66.42-1.21.88-1.67,1.39-.46.51-.68,1.04-.68,1.58,0,.51.18.86.55,1.04.36.18.78.27,1.26.27.8,0,1.66-.21,2.57-.63.91-.42,1.71-.83,2.4-1.23Z"/>
    <path class="st0" d="M278.96,201.69c0,1.97-.08,3.94-.25,5.93-.16,1.99-.25,3.98-.25,5.98,0,2.59.08,5.17.25,7.76.16,2.59.25,5.19.25,7.81,0,.66-.04,1.39-.11,2.21-.07.82-.25,1.58-.52,2.27-.27.69-.68,1.27-1.23,1.75-.55.47-1.28.71-2.19.71s-1.63-.43-2.27-1.28c-.64-.86-1.17-1.95-1.58-3.28-.42-1.33-.76-2.81-1.04-4.45-.27-1.64-.47-3.23-.6-4.78-.13-1.55-.22-2.97-.27-4.26-.05-1.29-.08-2.25-.08-2.87,0-.69.03-1.69.08-3.01.05-1.31.17-2.73.36-4.26.18-1.53.43-3.09.74-4.67.31-1.58.72-3.02,1.23-4.32.51-1.29,1.12-2.35,1.83-3.17.71-.82,1.56-1.23,2.54-1.23.8,0,1.41.26,1.83.79.42.53.72,1.17.9,1.91.18.75.29,1.53.33,2.35.04.82.05,1.52.05,2.1Z"/>
    <path class="st0" d="M294.45,111.4c0,1.97-.08,3.94-.25,5.93-.16,1.99-.25,3.98-.25,5.98,0,2.59.08,95.46.25,98.05.16,2.59.25,5.19.25,7.81,0,.66-.04,1.39-.11,2.21-.07.82-.25,1.58-.52,2.27-.27.69-.68,1.27-1.23,1.75-.55.47-1.28.71-2.19.71s-1.63-.43-2.27-1.28c-.64-.86-1.17-1.95-1.58-3.28s-.76-2.81-1.04-4.45c-.27-1.64-.47-3.23-.6-4.78-.13-1.55-.22-2.97-.27-4.26-.05-1.29-.08-92.54-.08-93.16,0-.69.03-1.69.08-3.01.05-1.31.17-2.73.36-4.26.18-1.53.43-3.09.74-4.67.31-1.58.72-3.02,1.23-4.32.51-1.29,1.12-2.35,1.83-3.17.71-.82,1.56-1.23,2.54-1.23.8,0,1.41.26,1.83.79.42.53.72,1.17.9,1.91.18.75.29,1.53.33,2.35.04.82.05,1.52.05,2.1Z"/>
  </g>
</svg>