<?xml version="1.0" encoding="UTF-8"?>
<svg id="Layer_1" xmlns="http://www.w3.org/2000/svg" version="1.1" viewBox="0 0 509.71 491.29">
  <!-- Generator: Adobe Illustrator 29.7.1, SVG Export Plug-In . SVG Version: 2.1.1 Build 8)  -->
  <defs>
    <style>
      .st0 {
        fill: #523cac;
      }

      .st1 {
        fill: #adc716;
      }

      .st2 {
        fill: #33c5b5;
      }

      .st3 {
        fill: #e44c17;
      }

      .st4 {
        fill: #dd2080;
      }

      .st5 {
        fill: #ecaa19;
      }
    </style>
  </defs>
  <path class="st5" d="M249.24,383.27l-109.49,58.62c-8.77,4.69-19.08-2.8-17.33-12.59l21.92-122.25c.7-3.92-.6-7.93-3.47-10.68l-89.59-86.01c-7.17-6.89-3.23-19.02,6.62-20.37l123.04-16.93c3.94-.54,7.35-3.02,9.09-6.6l54.12-111.79c4.33-8.95,17.09-8.95,21.42,0l54.12,111.79c1.73,3.58,5.15,6.06,9.09,6.6l123.04,16.93c9.85,1.36,13.79,13.48,6.62,20.37l-89.59,86.01c-2.87,2.76-4.17,6.77-3.47,10.68l21.92,122.25c1.76,9.79-8.56,17.29-17.33,12.59l-109.49-58.63c-3.51-1.88-7.72-1.88-11.23,0Z"/>
  <path class="st4" d="M265.56,91.93l43.3,89.43c1.73,3.58,5.15,6.06,9.09,6.6l98.43,13.54c9.85,1.36,13.79,13.48,6.62,20.37l-71.67,68.81c-2.87,2.76-4.17,6.77-3.47,10.68l17.54,97.8c1.76,9.79-8.56,17.29-17.33,12.59l-87.59-46.9c-3.51-1.88-7.72-1.88-11.23,0l-87.59,46.9c-8.77,4.69-19.08-2.8-17.33-12.59l17.54-97.8c.7-3.92-.6-7.93-3.47-10.68l-71.67-68.81c-7.17-6.89-3.23-19.02,6.62-20.37l98.43-13.54c3.94-.54,7.35-3.02,9.09-6.6l43.3-89.43c4.33-8.95,17.09-8.95,21.42,0Z"/>
  <path class="st3" d="M175.89,284.99l-53.76-51.61c-7.17-6.89-3.23-19.02,6.62-20.37l73.83-10.16c3.94-.54,7.35-3.02,9.09-6.6l32.47-67.07c4.33-8.95,17.09-8.95,21.42,0l32.47,67.07c1.73,3.58,5.15,6.06,9.09,6.6l73.82,10.16c9.85,1.36,13.79,13.48,6.62,20.37l-53.76,51.61c-2.87,2.76-4.17,6.77-3.47,10.68l13.15,73.35c1.76,9.79-8.56,17.29-17.33,12.59l-65.7-35.18c-3.51-1.88-7.72-1.88-11.23,0l-65.7,35.18c-8.77,4.69-19.08-2.8-17.33-12.59l13.15-73.35c.7-3.92-.6-7.93-3.47-10.68Z"/>
  <path class="st1" d="M194.17,280.04l-39.56-37.98c-5.98-5.74-2.7-15.85,5.52-16.98l54.33-7.47c3.29-.45,6.13-2.52,7.57-5.5l23.9-49.36c3.61-7.46,14.24-7.46,17.85,0l23.9,49.36c1.45,2.99,4.29,5.05,7.57,5.5l54.32,7.47c8.21,1.13,11.5,11.24,5.52,16.98l-39.56,37.98c-2.39,2.3-3.48,5.64-2.89,8.9l9.68,53.97c1.46,8.16-7.13,14.41-14.44,10.49l-48.34-25.88c-2.92-1.57-6.44-1.57-9.36,0l-48.34,25.89c-7.31,3.91-15.91-2.33-14.44-10.49l9.68-53.98c.59-3.27-.5-6.61-2.89-8.9Z"/>
  <path class="st2" d="M211.63,274.3l-21.39-20.54c-6.06-5.82-2.73-16.06,5.59-17.2l29.38-4.04c3.33-.46,6.21-2.55,7.67-5.58l12.92-26.69c3.66-7.56,14.43-7.56,18.09,0l12.92,26.69c1.46,3.03,4.35,5.12,7.67,5.58l29.38,4.04c8.32,1.14,11.65,11.39,5.59,17.2l-21.39,20.54c-2.42,2.33-3.52,5.71-2.93,9.02l5.23,29.19c1.48,8.27-7.23,14.6-14.63,10.63l-26.14-14c-2.96-1.59-6.52-1.59-9.49,0l-26.14,14c-7.4,3.96-16.12-2.36-14.63-10.63l5.23-29.19c.59-3.31-.51-6.69-2.93-9.02Z"/>
  <path class="st0" d="M231,270.39l-12.47-11.97c-3.17-3.04-1.43-8.4,2.92-9l17.12-2.36c1.74-.24,3.25-1.33,4.01-2.92l7.53-15.55c1.91-3.95,7.55-3.95,9.46,0l7.53,15.55c.77,1.58,2.27,2.68,4.01,2.92l17.12,2.36c4.35.6,6.09,5.96,2.92,9l-12.47,11.97c-1.27,1.22-1.84,2.99-1.53,4.72l3.05,17.01c.78,4.32-3.78,7.64-7.65,5.56l-15.24-8.16c-1.55-.83-3.41-.83-4.96,0l-15.24,8.16c-3.87,2.07-8.43-1.24-7.65-5.56l3.05-17.01c.31-1.73-.27-3.5-1.53-4.72Z"/>
</svg>