<?xml version="1.0" encoding="UTF-8"?>
<svg id="Layer_1" xmlns="http://www.w3.org/2000/svg" version="1.1" viewBox="0 0 465.29 311.71">
  <!-- Generator: Adobe Illustrator 29.7.1, SVG Export Plug-In . SVG Version: 2.1.1 Build 8)  -->
  <defs>
    <style>
      .st0 {
        fill: #62d0bc;
      }

      .st1 {
        fill: #fff7f0;
        stroke: #62d0bc;
        stroke-miterlimit: 10;
        stroke-width: 2.34px;
      }
    </style>
  </defs>
  <rect class="st1" x="43.76" y="40.46" width="377.77" height="230.79" rx="23.6" ry="23.6"/>
  <g>
    <path class="st0" d="M182.43,116.83c0,.77-.24,1.44-.73,2.01-.49.57-1.06,1.04-1.73,1.41-.6.37-1.22.76-1.86,1.18-.64.42-1.22.89-1.76,1.41-.54.52-.97,1.1-1.3,1.73-.33.64-.5,1.36-.5,2.16,0,.7.17,1.34.5,1.91.33.57.74,1.13,1.23,1.68.48.55,1.02,1.12,1.61,1.71.58.59,1.12,1.24,1.61,1.96.48.72.9,1.53,1.23,2.43.33.9.5,1.96.5,3.16,0,.84-.18,1.78-.53,2.84-.35,1.05-.83,2.12-1.43,3.19-.6,1.07-1.31,2.11-2.13,3.11-.82,1-1.69,1.9-2.61,2.68-.92.79-1.88,1.42-2.89,1.91-1,.48-1.97.73-2.91.73-1.04,0-1.96-.28-2.76-.85-.8-.57-1.2-1.42-1.2-2.56,0-.77.18-1.48.55-2.13.37-.65.82-1.28,1.36-1.88.53-.6,1.13-1.19,1.78-1.76.65-.57,1.25-1.14,1.78-1.71.53-.57.99-1.16,1.35-1.78.37-.62.55-1.28.55-1.98,0-.97-.34-1.97-1.03-2.99-.69-1.02-1.45-2.07-2.28-3.16-.84-1.09-1.6-2.2-2.28-3.34-.69-1.14-1.03-2.29-1.03-3.46,0-1.44.38-2.95,1.15-4.54.77-1.59,1.76-3.04,2.96-4.37,1.2-1.32,2.56-2.42,4.06-3.29,1.51-.87,2.99-1.31,4.47-1.31,1.17,0,2.17.35,3.01,1.05.84.7,1.25,1.66,1.25,2.86Z"/>
    <path class="st0" d="M196.91,153.86c-2.38,0-4.22-.31-5.55-.93-1.32-.62-2.31-1.5-2.96-2.63-.65-1.14-1.05-2.51-1.18-4.12-.13-1.61-.2-3.39-.2-5.37,0-1.57.05-3.15.15-4.74.1-1.59.25-3.29.45-5.09-.47,0-.84,0-1.1.03-.27.02-.49.03-.65.03-1.07,0-2-.23-2.78-.7-.79-.47-1.18-1.19-1.18-2.16,0-.6.23-1.14.68-1.61.45-.47,1.03-.87,1.73-1.2.7-.33,1.46-.6,2.28-.8.82-.2,1.6-.33,2.33-.4,0-.94.07-1.97.2-3.11.13-1.14.38-2.2.73-3.19.35-.99.83-1.81,1.43-2.48.6-.67,1.37-1,2.31-1,.54,0,1.01.16,1.43.48.42.32.76.72,1.03,1.2.27.49.47,1.03.6,1.63.13.6.2,1.19.2,1.76,0,.67-.05,1.35-.15,2.06-.1.7-.28,1.57-.55,2.61.57-.07.95-.11,1.15-.13.2-.02.38-.02.55-.02.57,0,1.16.05,1.78.15.62.1,1.19.27,1.71.5.52.23.94.54,1.28.93.33.38.5.84.5,1.38,0,.6-.24,1.14-.73,1.61-.48.47-1.1.87-1.83,1.2-.74.33-1.52.59-2.36.78-.84.18-1.62.31-2.36.38-.2,1.37-.34,2.63-.43,3.79-.08,1.15-.18,2.32-.28,3.49-.07.57-.13,1.15-.18,1.73-.05.59-.07,1.18-.07,1.78,0,.44.02.95.05,1.53.03.59.15,1.15.35,1.68.2.54.52,1,.95,1.38.43.38,1.04.58,1.81.58.47,0,.95-.04,1.46-.13.5-.08,1-.13,1.51-.13.87,0,1.5.3,1.88.9.38.6.58,1.37.58,2.31,0,.7-.21,1.31-.63,1.83-.42.52-.95.94-1.58,1.25-.64.32-1.35.56-2.13.73-.79.17-1.53.25-2.23.25Z"/>
    <path class="st0" d="M226.84,144.98c0,.6-.03,1.39-.07,2.36-.05.97-.19,1.92-.43,2.84-.23.92-.6,1.71-1.1,2.38-.5.67-1.2,1-2.11,1-1.24,0-2.19-.4-2.86-1.2-.67-.8-.99-1.81-.95-3.01-1.07.94-2.28,1.67-3.64,2.21-1.35.53-2.73.8-4.14.8-.97,0-1.89-.23-2.76-.7-.87-.47-1.64-1.07-2.31-1.81-.67-.74-1.2-1.56-1.61-2.48-.4-.92-.6-1.83-.6-2.73,0-1.61.49-3.01,1.48-4.22.99-1.2,2.2-2.23,3.64-3.09,1.44-.85,2.97-1.53,4.59-2.03,1.62-.5,3.07-.84,4.34-1,0-.17,0-.32.03-.45.02-.13.03-.28.03-.45,0-1.04-.28-1.87-.85-2.51-.57-.64-1.37-.95-2.41-.95-.84,0-1.56.14-2.16.43-.6.29-1.17.6-1.71.95s-1.07.67-1.61.95c-.54.28-1.14.43-1.81.43-.74,0-1.36-.23-1.88-.7-.52-.47-.78-1.07-.78-1.81,0-1.1.33-2.11.98-3.01.65-.9,1.47-1.66,2.46-2.28.99-.62,2.06-1.1,3.21-1.45,1.15-.35,2.22-.53,3.19-.53.9,0,1.81.11,2.71.33.9.22,1.76.55,2.56,1,.8.45,1.53,1,2.18,1.66.65.65,1.18,1.41,1.58,2.28.6,1.24,1.09,2.55,1.46,3.94.37,1.39.65,2.81.85,4.27.2,1.45.33,2.91.4,4.37.07,1.46.1,2.87.1,4.24ZM218.81,143.37l-.15-3.41c-.07,0-.13,0-.2-.03-.07-.02-.13-.02-.2-.02-.44,0-.98.11-1.63.33-.65.22-1.28.52-1.88.9-.6.38-1.11.81-1.53,1.28-.42.47-.63.95-.63,1.46,0,.47.17.79.5.95.33.17.72.25,1.15.25.74,0,1.52-.19,2.36-.58.84-.38,1.57-.76,2.21-1.13Z"/>
    <path class="st0" d="M241.77,166.66c-.8,0-1.71-.13-2.74-.38-1.02-.25-1.98-.61-2.89-1.08-.9-.47-1.67-1.04-2.28-1.71-.62-.67-.93-1.44-.93-2.31,0-.33.08-.67.25-1,.17-.33.39-.63.68-.88.28-.25.59-.45.93-.6.33-.15.69-.23,1.05-.23.4,0,.79.06,1.18.18.38.12.78.26,1.18.43.43.17.86.32,1.28.45.42.13.86.2,1.33.2.84,0,1.56-.28,2.18-.85.62-.57,1.15-1.31,1.58-2.23.43-.92.79-1.94,1.05-3.06.27-1.12.48-2.23.63-3.34.15-1.1.26-2.14.33-3.11.07-.97.12-1.76.15-2.36-1.17,1.77-2.33,3.14-3.49,4.09-1.15.95-2.57,1.43-4.24,1.43-1.27,0-2.38-.27-3.34-.8-.95-.53-1.76-1.24-2.43-2.11-.67-.87-1.22-1.86-1.66-2.99-.44-1.12-.76-2.28-.98-3.49-.22-1.2-.36-2.38-.43-3.54-.07-1.15-.07-2.22,0-3.19.03-.74.13-1.7.28-2.89.15-1.19.39-2.35.73-3.49.33-1.14.8-2.1,1.41-2.89.6-.79,1.39-1.15,2.36-1.08.64.03,1.15.31,1.56.83s.73,1.16.98,1.93c.25.77.43,1.61.55,2.53.12.92.19,1.83.23,2.74.03.9.04,1.73.03,2.48-.02.75-.03,1.33-.03,1.73,0,.57.02,1.14.05,1.71.03.57.15,1.08.35,1.53.2.45.51.81.93,1.08.42.27,1.01.4,1.78.4.87,0,1.56-.22,2.08-.65.52-.43.9-.98,1.15-1.63.25-.65.41-1.35.48-2.11.07-.75.1-1.46.1-2.13v-1.71c0-.67,0-1.37.03-2.11.02-.74.08-1.46.2-2.18.12-.72.3-1.37.55-1.96.25-.58.59-1.06,1-1.43.42-.37.96-.55,1.63-.55.84,0,1.56.33,2.16.98.6.65,1.11,1.51,1.53,2.56.42,1.05.75,2.22,1,3.49.25,1.27.44,2.53.58,3.79.13,1.25.23,2.41.28,3.46.05,1.05.08,1.88.08,2.48,0,1.41-.05,3-.15,4.79-.1,1.79-.29,3.63-.58,5.52-.28,1.89-.71,3.75-1.28,5.57-.57,1.82-1.31,3.45-2.23,4.89-.92,1.44-2.05,2.59-3.39,3.46-1.34.87-2.94,1.31-4.82,1.31Z"/>
    <path class="st0" d="M227.52,162.97c0,.84-.33,1.6-.98,2.28-.65.69-1.44,1.29-2.36,1.81-.92.52-1.87.95-2.84,1.28-.97.33-1.77.57-2.41.7-.27,2.58-.48,5.14-.63,7.7-.15,2.56-.23,5.13-.23,7.7,0,1.37.03,2.73.1,4.06.07,1.34.1,2.68.1,4.02,0,.6-.06,1.26-.18,1.98-.12.72-.32,1.4-.6,2.03-.28.64-.68,1.17-1.18,1.61-.5.43-1.12.65-1.86.65-.87,0-1.56-.24-2.08-.73-.52-.49-.92-1.08-1.2-1.78-.28-.7-.48-1.45-.58-2.23-.1-.79-.15-1.5-.15-2.13-.07-2.01-.12-4.02-.15-6.05-.03-2.02-.05-4.06-.05-6.1,0-1.71,0-3.38.03-5.02.02-1.64.03-3.31.03-5.02-.47.07-.95.12-1.43.15-.49.03-.98.05-1.48.05-.4,0-.93-.04-1.58-.13-.65-.08-1.28-.23-1.88-.45-.6-.22-1.12-.52-1.56-.9-.43-.38-.65-.88-.65-1.48,0-1,.39-1.88,1.18-2.63.79-.75,1.79-1.41,3.01-1.96,1.22-.55,2.58-1.02,4.06-1.41,1.49-.38,2.96-.69,4.42-.9,1.46-.22,2.79-.38,4.01-.48,1.22-.1,2.17-.15,2.84-.15s1.31.03,2.03.08c.72.05,1.4.19,2.03.43.64.23,1.16.59,1.58,1.05.42.47.63,1.12.63,1.96Z"/>
    <path class="st0" d="M243.35,178.48c-.47.03-.87,0-1.2-.13-.33-.12-.67-.24-1-.38-.3-.13-.6-.26-.9-.38-.3-.12-.64-.16-1-.13-.67.03-1.26.22-1.78.55-.52.33-.99.75-1.41,1.25-.42.5-.78,1.06-1.08,1.68-.3.62-.54,1.23-.7,1.83-.1.4-.18,1.01-.23,1.83-.05.82-.08,1.7-.08,2.63-.03.97-.05,1.89-.05,2.76s-.03,1.56-.1,2.06c-.03.54-.12,1.16-.25,1.88-.13.72-.34,1.4-.63,2.03-.28.64-.66,1.17-1.13,1.61s-1.07.65-1.81.65c-.57,0-1.06-.17-1.48-.5-.42-.33-.77-.78-1.05-1.33-.28-.55-.52-1.2-.7-1.93-.18-.74-.33-1.49-.43-2.26-.1-.8-.18-1.61-.23-2.41-.05-.8-.08-1.56-.1-2.28-.02-.72-.02-1.38,0-1.98.02-.6.03-1.09.03-1.46-.03-1.17-.09-2.35-.18-3.54-.08-1.19-.13-2.37-.13-3.54,0-.74.03-1.56.1-2.46.07-.9.25-1.75.55-2.53.3-.79.74-1.45,1.33-1.98.59-.54,1.4-.8,2.43-.8.57,0,1.05.18,1.45.55.4.37.73.82.98,1.35.25.54.44,1.1.58,1.71.13.6.22,1.15.25,1.66.8-1.3,1.71-2.37,2.71-3.19,1-.82,2.31-1.26,3.91-1.33.8-.03,1.6.04,2.38.23s1.51.48,2.16.9c.65.42,1.19.96,1.61,1.63.42.67.64,1.46.68,2.36.07,1.07-.25,1.89-.95,2.46-.7.57-1.56.87-2.56.9Z"/>
    <path class="st0" d="M300.53,188.31c0,1.14-.36,2.25-1.08,3.34-.72,1.09-1.62,2.06-2.71,2.91s-2.25,1.54-3.49,2.06c-1.24.52-2.38.78-3.41.78-1.77,0-3.35-.44-4.74-1.33-1.39-.89-2.55-2.02-3.49-3.39-.94-1.37-1.65-2.89-2.13-4.54-.49-1.66-.73-3.27-.73-4.84,0-1.67.23-3.46.7-5.37.47-1.91,1.18-3.66,2.13-5.27.95-1.61,2.16-2.94,3.61-4.02,1.46-1.07,3.19-1.61,5.19-1.61,1.14,0,2.22.19,3.26.58,1.04.39,1.94.93,2.71,1.63.77.7,1.39,1.54,1.86,2.51.47.97.7,2.06.7,3.26,0,1.57-.33,3.05-1,4.42-.67,1.37-1.56,2.56-2.66,3.56-1.1,1-2.38,1.82-3.81,2.43-1.44.62-2.91.96-4.42,1.03.13.97.53,1.67,1.18,2.11.65.44,1.43.65,2.33.65.67,0,1.32-.17,1.96-.5.64-.33,1.25-.71,1.86-1.13.6-.42,1.2-.79,1.78-1.13.58-.33,1.18-.5,1.78-.5.67,0,1.27.22,1.81.65.54.44.8,1,.8,1.71ZM292.4,176.02c0-.43-.12-.89-.35-1.36-.23-.47-.6-.7-1.1-.7-.74,0-1.35.19-1.86.58-.5.39-.92.87-1.25,1.46-.33.59-.59,1.21-.78,1.88-.18.67-.29,1.29-.33,1.86.47-.1,1.03-.23,1.68-.4.65-.17,1.27-.39,1.86-.68.58-.28,1.09-.64,1.51-1.08.42-.43.63-.95.63-1.56Z"/>
    <path class="st0" d="M262.13,178.65c-1.29-2.79-2.92-5.64-6.2-6.32-3.49-.73-6.53,1.58-7.19,4.99-.56,2.91.03,6.12.97,8.89,1.01,2.99,2.49,6.11,4.7,8.41s5.72,3.68,8.97,2.66c2.97-.93,5.05-3.41,6.88-5.8,3.46-4.52,5.89-10.15,6.85-15.77.35-2.07.28-4.12-1.13-5.8-1.12-1.34-2.86-2.01-4.59-2.03-1.86-.02-3.55.78-4.94,1.97-1.08.93-1.85,2.14-2.82,3.17-1.12,1.2-1.19,3.1,0,4.29s3.17,1.2,4.29,0c.6-.64,1.12-1.34,1.68-2.01.28-.33.56-.66.89-.95.53-.46.24-.19.15-.13.01,0,.92-.55.4-.23.1-.06.58-.08.05-.04.19-.01.4-.02.58,0-.26-.03-.32-.13.03.06-.14-.08-.25-.16-.39-.24.5.28-.12.04-.06-.04-.13.18-.12.96-.19,1.25-.85,3.99-2.22,7.58-4.38,11.01-1.04,1.66-2.09,2.99-3.5,4.38-.55.54-.95.87-1.44,1.03-.2.06-.44.13-.65.16.41-.05-.14-.02-.18-.03-.21-.02-.63-.09-.79-.16-1.63-.69-2.56-2.45-3.39-4.03-.96-1.84-1.65-3.82-1.99-5.87-.08-.51-.14-1.03-.16-1.58,0-.2-.01-.4-.01-.59,0-.07.06-.84.01-.5s.17-1.22.12-.56c.01-.17.14-.39,0-.07.32-.73.12.21-.08.02h-.09c-.2.03-.12.04.23.03-.39-.18.31.23.08.09.11.07.33.24.61.6-.17-.22.15.26.14.24.18.3.35.61.51.93.26.53.5,1.07.75,1.6.69,1.49,2.83,1.86,4.15,1.09,1.53-.89,1.78-2.66,1.09-4.15h0Z"/>
    <path class="st0" d="M275.1,159.16l-.72-3.24c-.18-.81.63-1.5,1.4-1.19l3.08,1.24c.3.12.64.09.91-.07l2.86-1.68c.72-.42,1.62.13,1.56.96l-.22,3.31c-.02.32.11.63.35.85l2.48,2.2c.63.55.37,1.58-.43,1.78l-3.22.81c-.31.08-.57.3-.7.59l-1.32,3.04c-.33.77-1.39.84-1.83.14l-1.76-2.81c-.17-.27-.46-.45-.78-.48l-3.3-.32c-.83-.08-1.23-1.06-.7-1.7l2.13-2.54c.21-.25.29-.58.22-.89Z"/>
  </g>
</svg>