<?xml version="1.0" encoding="UTF-8"?>
<svg id="Layer_1" xmlns="http://www.w3.org/2000/svg" xmlns:xlink="http://www.w3.org/1999/xlink" version="1.1" viewBox="0 0 1301.26 269.73">
  <!-- Generator: Adobe Illustrator 29.7.1, SVG Export Plug-In . SVG Version: 2.1.1 Build 8)  -->
  <defs>
    <style>
      .st0 {
        fill: none;
      }

      .st1 {
        fill: #523cac;
      }

      .st2 {
        fill: #adc716;
      }

      .st3 {
        fill: #33c5b5;
      }

      .st4 {
        clip-path: url(#clippath-1);
      }

      .st5 {
        clip-path: url(#clippath-2);
      }

      .st6 {
        fill: #e44c17;
      }

      .st7 {
        fill: #002f55;
      }

      .st8 {
        fill: #dd2080;
      }

      .st9 {
        fill: #ecaa19;
      }

      .st10 {
        clip-path: url(#clippath);
      }
    </style>
    <clipPath id="clippath">
      <path class="st0" d="M293.33,37.99v209.48h141.77V37.99h-141.77ZM392.82,117.05c-.7-2.01-1.31-3.99-1.83-5.92,2.61-.75,5.19-1.61,7.73-2.6h0c.48,1.93,1.05,3.87,1.73,5.91-2.22.89-4.39,1.65-6.45,2.27-.39.12-.79.22-1.18.33ZM413.75,144.18c-3.5-1.17-6.95-2.51-10.34-4.03-1.43-2.67-2.6-4.9-3.66-7.03l.2-1.17.27-.26c3.25,1.75,6.59,3.33,10.01,4.71,1.25,2.36,2.51,4.68,3.61,6.69l-.1,1.09Z"/>
    </clipPath>
    <clipPath id="clippath-1">
      <path class="st0" d="M239.81,81.91v126.89h273.24v-126.89H239.81ZM317.36,206.64c-2.14-.3-4.29-.64-6.41-1.06l-.75-.69c2.25-1.99,4.23-4.27,5.86-6.76,2.07.33,4.13.61,6.14.82l.5.35c-1.49,2.68-3.29,5.13-5.34,7.34ZM327.75,124.33c-3.05.25-6.09.55-9.12.93-.73.09-1.46.19-2.2.29-2.22-1.58-4.26-2.96-6.19-4.18l-.45-1.04v-.05c3.78-.67,7.57-1.17,11.38-1.58,1.92,1.35,3.97,2.85,6.21,4.54l.36,1.07v.02ZM426.63,94.59c-2.18.41-4.5.86-7.07,1.38l-1.04-.44-.03-.04c1.75-2.19,3.16-4.63,4.05-7.36.1-.31.19-.64.27-.97,2.38-.45,4.44-.82,6.35-1.15l.33.1c-.37,3.02-1.38,5.84-2.86,8.47ZM508.48,150.51l-.37.48-.66.22-5.94-.15-.81-.45-.4-.61-.1-.92c.41-1.03.78-2.07,1.13-3.13,2.86.03,5.72.07,8.58.13-.42,1.48-.9,2.96-1.43,4.42Z"/>
    </clipPath>
    <clipPath id="clippath-2">
      <path class="st0" d="M344.08,22.25v185.44h138.3V22.25h-138.3ZM410.07,184.3c-1.86,1.13-3.7,2.2-5.5,3.22-2.51-1.59-4.99-3.23-7.45-4.9l.33-.52c1.84-.98,3.68-2.02,5.49-3.07,1.62,1.05,3.24,2.11,4.87,3.14.84.53,1.7,1.06,2.56,1.59l-.3.54Z"/>
    </clipPath>
  </defs>
  <g>
    <g>
      <path class="st6" d="M389.81,86.55c-3.99,38.68,29.22,66.31,36.03,102.3,2.8,14.77.38,32.23-11.51,42.57s-28.51,9.7-41.65,3.76c-32.61-14.76-35.04-57.05-30.1-87.57,3.08-19.04,8.86-37.7,10.77-56.92,1.58-15.94-1.4-34.05-14.76-44.51-13.22-10.35-33.58-7.78-40.8,8.3-7.32,16.32,2.66,34.25,16.71,43.05,3.4,2.13,6.53-3.25,3.14-5.37-12.99-8.14-23.08-27.94-10.29-40.92,5.84-5.92,15.07-6.44,22.41-3.2s12.61,10.39,15.22,17.94c6.24,18.05.16,38.19-3.71,56.11-3.83,17.74-7.68,35.84-7.04,54.09,1.02,29.01,14.79,60.72,45.56,67.93,13.09,3.07,27.53,1.14,38.1-7.59,11.23-9.28,15.62-24.37,15.17-38.51-1.3-40.53-41.31-70.02-37.03-111.46.41-3.98-5.81-3.95-6.22,0h0Z"/>
      <path class="st1" d="M314.51,97.53c20.97,12.24,47.39,8.75,70.18,4.68,25.18-4.5,50.5-12.46,76.29-12.06,11.21.17,23.13,2.52,31.6,10.4,7.39,6.87,11.41,16.84,12.13,26.8,1.64,22.58-13.15,42.27-30.41,55.2-9.53,7.14-20.55,13.03-32.78,12.59s-23.56-6.56-33.69-12.97c-22.18-14.04-43.5-29.71-64.51-45.42-18.06-13.5-36.73-31.17-60.35-32.97-9.62-.73-19.83,1.36-27.67,7.19-8.28,6.16-12.71,15.85-13.38,26.02-1.45,21.86,14.79,41.02,31.9,52.51s38.62,17.22,59.44,17.31c5.33.02,10.64-.35,15.92-1.03,3.91-.51,3.96-6.73,0-6.22-21.1,2.74-43.15,0-62.28-9.63-18.73-9.42-38.85-27.8-38.84-50.4,0-11.34,5.65-21.87,16.18-26.63,9.65-4.37,21.01-3.66,30.8-.23,11.19,3.92,20.94,11.13,30.29,18.23,10.45,7.93,20.92,15.83,31.54,23.54,10.77,7.81,21.66,15.48,32.64,22.99,9.94,6.79,19.89,13.91,30.97,18.74,10.29,4.48,21.41,6.65,32.5,4.08s20.18-8.68,28.58-15.52c16.08-13.08,29.38-31.94,29.5-53.37.11-19.89-10.91-38.17-30.23-44.45-10.4-3.39-21.68-3.37-32.46-2.41-12.79,1.14-25.42,3.58-37.98,6.21-24.32,5.08-50.89,12.44-75.83,7.69-5.98-1.14-11.64-3.12-16.91-6.2-3.46-2.02-6.6,3.35-3.14,5.37h0Z"/>
      <path class="st8" d="M349.99,205.65c33.5-4.71,63.87-22.07,89.19-43.92,22.66-19.56,44.03-47.13,40.9-78.84-2.68-27.21-22.33-53-50.12-57.75-23.55-4.02-51.54,5.52-61.8,28.52-12.5,28.05.72,64.3,25.22,81.32,3.29,2.29,6.41-3.1,3.14-5.37-20.37-14.16-31.57-43-24.94-67.1,6.32-22.95,30.82-33.95,53.19-31.84,25.8,2.43,45.02,24.78,48.77,49.63,4.4,29.17-14.5,55.08-34.93,73.65-25.19,22.89-56.19,40.91-90.27,45.7-3.95.56-2.27,6.55,1.65,6h0Z"/>
    </g>
    <path class="st9" d="M24.01,149.63c51.07-2.63,102.32-3.26,153.45-3.02,25.27.12,50.55.47,75.79,1.78,22.77,1.18,59.07.62,66.66,27.97,3.35,12.06-3.03,24.22-12.95,31.08-10.9,7.55-24.83,8.59-36.27,1.62-3.43-2.09-6.55,3.29-3.14,5.37,20.87,12.73,50.09,1.89,57.88-21.35,4.02-12,.04-24.89-8.53-33.87-10.64-11.15-26.85-14.05-41.52-15.49-24.83-2.44-49.93-2.77-74.85-3.12-30.02-.42-60.04-.28-90.06.19s-57.66,1.14-86.46,2.62c-3.98.21-4.01,6.43,0,6.22h0Z"/>
    <path class="st2" d="M270.7,209.06c-16.95-11.05-20.51-35.27-10.73-52.21,11.88-20.58,36.38-28.83,58.65-31.59,25.08-3.11,50.94-1.11,75.38-8.53,17.09-5.2,41.86-19.39,34.26-41.15-3.12-8.92-11.67-15.88-21.46-13.31s-15.58,13.87-16.87,23.47c-.53,3.91,5.47,5.61,6,1.65,1.07-7.97,5.78-20.11,15.73-19.44,9.26.62,13.39,12.5,10.89,20.2-3.34,10.3-13.93,16.51-23.42,20.25-11.38,4.47-23.58,6.43-35.7,7.49-23.81,2.09-48.56.86-71.41,8.98-17.86,6.35-34.95,18.83-41.3,37.37-6.41,18.71.07,41.25,16.85,52.2,3.36,2.19,6.48-3.19,3.14-5.37h0Z"/>
    <path class="st3" d="M1216.23,147.94c-64.51,8.62-129.68,10.41-194.69,9.51-65.89-.91-131.7-4.51-197.57-6.45-16.4-.48-32.81-.86-49.22-1.07-12.67-.16-28.75-2.11-39.22,6.71-7.38,6.22-10.78,19.24-2.82,26.41,3.56,3.21,9.56,4.31,13.35.84s2.91-9.32.37-13.42c-5.9-9.53-18.79-15.4-29.04-18.72-11.83-3.83-24.42-5.04-36.79-5.29-13.66-.28-27.3.67-40.94,1.18-16.36.61-32.74.91-49.12.89-31.27-.04-62.46-2.55-93.7-2.6-27.39-.04-55.69,1.26-81.98-7.8-6.72-2.32-13.1-5.37-19.18-9.04-3.43-2.08-6.56,3.3-3.14,5.37,22.02,13.31,47.49,16.88,72.8,17.55,12.94.34,25.89.04,38.84.19,14.01.17,27.99,1.21,42,1.72,30.62,1.11,61.28,1.11,91.89,0,24.37-.88,49.81-3.81,73.69,2.65,5.61,1.52,11.06,3.6,16.14,6.44,4.76,2.66,10.73,6.17,13.45,11.08,1.35,2.43,1.92,6.75-2.4,5.54-2.79-.79-4.28-3.71-4.57-6.38-.57-5.33,2.8-10.67,7.24-13.34,5.79-3.48,12.9-3.82,19.48-3.87,7.46-.05,14.92.12,22.38.24,15.09.25,30.17.63,45.25,1.09,61.1,1.87,122.16,5.08,183.28,6.16,60.61,1.07,121.38.03,181.69-6.61,7.52-.83,15.02-1.75,22.52-2.75,3.91-.52,3.96-6.75,0-6.22h0Z"/>
    <g class="st10">
      <path class="st6" d="M389.81,86.55c-3.99,38.68,29.22,66.31,36.03,102.3,2.8,14.77.38,32.23-11.51,42.57s-28.51,9.7-41.65,3.76c-32.61-14.76-35.04-57.05-30.1-87.57,3.08-19.04,8.86-37.7,10.77-56.92,1.58-15.94-1.4-34.05-14.76-44.51-13.22-10.35-33.58-7.78-40.8,8.3-7.32,16.32,2.66,34.25,16.71,43.05,3.4,2.13,6.53-3.25,3.14-5.37-12.99-8.14-23.08-27.94-10.29-40.92,5.84-5.92,15.07-6.44,22.41-3.2s12.61,10.39,15.22,17.94c6.24,18.05.16,38.19-3.71,56.11-3.83,17.74-7.68,35.84-7.04,54.09,1.02,29.01,14.79,60.72,45.56,67.93,13.09,3.07,27.53,1.14,38.1-7.59,11.23-9.28,15.62-24.37,15.17-38.51-1.3-40.53-41.31-70.02-37.03-111.46.41-3.98-5.81-3.95-6.22,0h0Z"/>
    </g>
    <g class="st4">
      <path class="st1" d="M314.51,97.53c20.97,12.24,47.39,8.75,70.18,4.68,25.18-4.5,50.5-12.46,76.29-12.06,11.21.17,23.13,2.52,31.6,10.4,7.39,6.87,11.41,16.84,12.13,26.8,1.64,22.58-13.15,42.27-30.41,55.2-9.53,7.14-20.55,13.03-32.78,12.59s-23.56-6.56-33.69-12.97c-22.18-14.04-43.5-29.71-64.51-45.42-18.06-13.5-36.73-31.17-60.35-32.97-9.62-.73-19.83,1.36-27.67,7.19-8.28,6.16-12.71,15.85-13.38,26.02-1.45,21.86,14.79,41.02,31.9,52.51s38.62,17.22,59.44,17.31c5.33.02,10.64-.35,15.92-1.03,3.91-.51,3.96-6.73,0-6.22-21.1,2.74-43.15,0-62.28-9.63-18.73-9.42-38.85-27.8-38.84-50.4,0-11.34,5.65-21.87,16.18-26.63,9.65-4.37,21.01-3.66,30.8-.23,11.19,3.92,20.94,11.13,30.29,18.23,10.45,7.93,20.92,15.83,31.54,23.54,10.77,7.81,21.66,15.48,32.64,22.99,9.94,6.79,19.89,13.91,30.97,18.74,10.29,4.48,21.41,6.65,32.5,4.08s20.18-8.68,28.58-15.52c16.08-13.08,29.38-31.94,29.5-53.37.11-19.89-10.91-38.17-30.23-44.45-10.4-3.39-21.68-3.37-32.46-2.41-12.79,1.14-25.42,3.58-37.98,6.21-24.32,5.08-50.89,12.44-75.83,7.69-5.98-1.14-11.64-3.12-16.91-6.2-3.46-2.02-6.6,3.35-3.14,5.37h0Z"/>
    </g>
    <g class="st5">
      <path class="st8" d="M349.99,205.65c33.5-4.71,63.87-22.07,89.19-43.92,22.66-19.56,44.03-47.13,40.9-78.84-2.68-27.21-22.33-53-50.12-57.75-23.55-4.02-51.54,5.52-61.8,28.52-12.5,28.05.72,64.3,25.22,81.32,3.29,2.29,6.41-3.1,3.14-5.37-20.37-14.16-31.57-43-24.94-67.1,6.32-22.95,30.82-33.95,53.19-31.84,25.8,2.43,45.02,24.78,48.77,49.63,4.4,29.17-14.5,55.08-34.93,73.65-25.19,22.89-56.19,40.91-90.27,45.7-3.95.56-2.27,6.55,1.65,6h0Z"/>
    </g>
  </g>
  <g>
    <path class="st7" d="M551.86,115.98c.4.02.77.19,1.12.51.35.32.51.74.49,1.26,0,.16-.04.33-.1.52l-5.8,14.83c-.12.31-.31.54-.59.69-.28.15-.56.23-.86.23-.29-.01-.58-.11-.86-.3-.28-.19-.49-.45-.63-.78l-3.45-8.9.23.17-4.18,8.4c-.17.32-.4.56-.7.72-.29.16-.59.23-.88.22-.28-.03-.55-.13-.82-.31-.27-.18-.45-.42-.54-.74l-4.43-15.3c-.04-.19-.06-.37-.05-.52.02-.52.23-.92.61-1.21.39-.29.78-.42,1.18-.4.33.01.63.12.91.3.28.19.46.45.55.78l3.56,12.71-.57-.05,4.09-8.69c.15-.31.36-.54.63-.71.27-.17.57-.24.89-.21.33,0,.62.09.87.29.25.19.43.45.54.77l2.99,8.62-.43.24,4.64-12.18c.12-.32.33-.57.63-.73.3-.16.62-.23.95-.22Z"/>
    <path class="st7" d="M562.47,120.41c1.25.04,2.19.34,2.82.89.63.56,1.06,1.29,1.27,2.18.22.9.31,1.9.27,2.99l-.2,6.65c-.01.45-.17.82-.48,1.12-.3.29-.68.43-1.13.42s-.82-.18-1.1-.49c-.29-.31-.42-.69-.41-1.14l.2-6.65c.02-.57-.04-1.09-.16-1.55-.12-.46-.37-.84-.72-1.13-.35-.29-.87-.44-1.55-.46-.66-.02-1.23.1-1.7.36-.48.26-.84.62-1.09,1.07s-.38.96-.4,1.54l-.2,6.65c-.01.45-.17.82-.48,1.12s-.68.43-1.13.42c-.45-.01-.82-.18-1.1-.49-.29-.31-.42-.69-.41-1.14l.49-16.06c.01-.45.17-.82.48-1.12s.68-.43,1.13-.42c.45.01.82.18,1.1.49.29.31.42.69.41,1.14l-.19,6.44-.39-.09c.17-.29.39-.6.68-.93.29-.33.63-.63,1.04-.92.41-.28.86-.51,1.35-.67.49-.17,1.02-.24,1.59-.23Z"/>
    <path class="st7" d="M581.56,120.84c.45,0,.82.16,1.11.46.29.3.43.68.42,1.15l-.2,11c0,.45-.16.83-.46,1.12-.3.3-.68.44-1.13.43-.45,0-.82-.17-1.11-.47s-.43-.69-.42-1.14l.02-1.27.57.24c0,.23-.13.5-.38.81-.25.32-.58.63-1,.93-.42.3-.92.56-1.48.77-.57.21-1.18.3-1.84.29-1.2-.02-2.27-.35-3.23-.98-.96-.63-1.71-1.5-2.25-2.59-.54-1.09-.8-2.34-.78-3.75.03-1.42.33-2.67.91-3.74.58-1.07,1.36-1.91,2.32-2.51.96-.6,2.03-.89,3.19-.87.75.01,1.43.14,2.05.38s1.16.53,1.61.89c.45.35.8.71,1.05,1.07.25.36.37.66.36.9l-.94.32.03-1.9c0-.45.16-.82.46-1.12.3-.3.67-.44,1.13-.43ZM576.1,132.31c.76.01,1.43-.16,2.01-.54.58-.37,1.03-.88,1.37-1.54.33-.65.51-1.39.52-2.2.02-.83-.13-1.58-.44-2.24-.31-.66-.75-1.19-1.31-1.58-.57-.39-1.23-.59-1.99-.61-.75-.01-1.41.17-1.99.54-.58.37-1.04.88-1.37,1.54-.33.65-.51,1.39-.52,2.23-.01.81.13,1.55.44,2.22.31.66.75,1.19,1.31,1.58.57.39,1.22.59,1.97.61Z"/>
    <path class="st7" d="M586.48,121.41l6.16.05c.42,0,.76.14,1.04.42.27.28.41.63.41,1.04,0,.4-.14.73-.42,1-.28.27-.63.4-1.04.4l-6.16-.05c-.42,0-.76-.14-1.04-.42-.28-.28-.41-.63-.41-1.04,0-.4.14-.73.42-1s.63-.4,1.04-.39ZM589.29,118.19c.45,0,.82.16,1.1.46.28.31.42.68.42,1.13l-.09,11.57c0,.24.04.44.14.6.09.16.22.27.39.34.16.07.34.11.53.11.21,0,.4-.04.57-.11.17-.08.37-.11.6-.11.24,0,.46.12.66.34.2.23.29.54.29.94,0,.49-.27.88-.8,1.19-.53.31-1.1.46-1.71.46-.36,0-.77-.04-1.21-.1-.44-.06-.86-.21-1.25-.45-.39-.24-.71-.6-.97-1.09-.26-.49-.38-1.16-.37-2l.09-11.7c0-.45.16-.83.46-1.13.31-.3.68-.45,1.13-.45Z"/>
    <path class="st7" d="M605.38,119.52c-.59,0-1.01-.09-1.25-.28-.24-.19-.37-.53-.37-1.01v-.49c0-.5.13-.85.4-1.03.27-.18.68-.28,1.23-.28.61,0,1.03.09,1.28.28.24.19.37.53.37,1.01v.49c0,.5-.12.85-.38,1.03-.26.18-.68.28-1.27.28ZM607.03,133.53c0,.45-.14.83-.44,1.13-.29.3-.67.46-1.12.46-.45,0-.82-.15-1.12-.45-.3-.3-.44-.68-.45-1.13l-.04-10.74c0-.45.14-.83.44-1.13.29-.3.67-.46,1.12-.46.45,0,.82.15,1.12.45.29.3.44.68.45,1.13l.04,10.74Z"/>
    <path class="st7" d="M617.5,121.37c.42,0,.76.13,1.04.39.28.27.42.61.43,1.02,0,.42-.13.76-.41,1.03s-.62.41-1.04.41l-6.89.07c-.42,0-.76-.13-1.04-.39s-.42-.61-.43-1.02c0-.42.13-.76.41-1.03s.62-.41,1.04-.41l6.89-.07ZM617.15,115.78c.38,0,.75.04,1.12.14.37.1.67.27.92.5s.37.54.37.92c0,.43-.12.78-.37,1.03-.25.25-.54.38-.87.39-.16,0-.39-.04-.7-.11-.31-.08-.62-.11-.91-.11-.43,0-.77.1-1,.3-.23.19-.39.42-.47.67s-.12.47-.12.66l.14,13.29c0,.45-.14.83-.43,1.14-.29.31-.66.46-1.11.47-.45,0-.83-.14-1.12-.44-.3-.3-.45-.67-.45-1.13l-.14-13.26c-.01-1.23.41-2.28,1.27-3.13.86-.86,2.15-1.3,3.89-1.32Z"/>
    <path class="st7" d="M627.93,132.69c-.18-.24-.27-.55-.26-.93s.22-.72.65-1c.27-.18.57-.26.88-.24.31.02.62.17.92.46.51.49,1.05.87,1.62,1.13.56.26,1.26.38,2.09.36.26-.02.54-.07.85-.14s.58-.21.81-.44c.23-.22.34-.56.33-1.01,0-.38-.15-.68-.41-.9s-.61-.4-1.04-.55c-.43-.15-.9-.28-1.43-.41-.54-.14-1.1-.3-1.66-.48-.57-.18-1.09-.41-1.56-.7-.48-.29-.87-.68-1.17-1.18s-.47-1.12-.49-1.89c-.02-.87.2-1.61.67-2.23.47-.62,1.09-1.1,1.85-1.45.76-.35,1.57-.53,2.42-.55.54-.01,1.1.04,1.69.15.59.12,1.16.31,1.71.58s1,.64,1.38,1.1c.2.25.32.56.36.93.04.36-.11.7-.47,1-.25.21-.56.31-.9.3-.35-.02-.64-.13-.87-.33-.3-.37-.71-.67-1.21-.88-.5-.21-1.07-.31-1.71-.29-.26,0-.54.04-.84.11s-.56.21-.78.41-.32.52-.31.96c0,.4.15.71.41.94.27.23.62.41,1.07.55.45.14.92.27,1.43.39.52.13,1.06.28,1.6.45.54.18,1.04.42,1.5.72.46.3.83.69,1.12,1.18.29.49.44,1.11.46,1.87.02.88-.22,1.64-.72,2.28s-1.14,1.13-1.91,1.47-1.57.52-2.38.54c-1.02.03-2.05-.13-3.08-.46-1.03-.33-1.9-.94-2.59-1.82Z"/>
    <path class="st7" d="M640.95,120.84l6.16-.21c.42-.01.77.11,1.05.38.29.27.44.61.45,1.03.01.4-.11.74-.38,1.01-.27.28-.61.42-1.03.44l-6.16.21c-.42.01-.77-.11-1.05-.38-.29-.27-.44-.61-.45-1.03-.01-.4.11-.74.38-1.01.27-.28.61-.42,1.03-.44ZM643.62,117.5c.45-.01.82.12,1.12.42.3.29.45.67.47,1.12l.4,11.56c0,.24.06.44.16.59.1.15.23.26.4.32s.35.09.54.09c.21,0,.4-.05.57-.14.17-.08.37-.13.59-.14.24,0,.47.1.67.32.21.22.32.53.33.92.02.49-.23.89-.75,1.22s-1.08.5-1.69.53c-.36.01-.77,0-1.21-.05-.44-.05-.86-.18-1.26-.4-.4-.22-.73-.57-1.01-1.04-.28-.48-.43-1.14-.46-1.99l-.4-11.69c-.02-.45.12-.83.42-1.15.29-.31.66-.48,1.11-.49Z"/>
    <path class="st7" d="M653.4,134.05c-.45.02-.83-.12-1.14-.41-.31-.29-.47-.66-.49-1.11l-.46-10.73c-.02-.45.11-.83.39-1.15s.65-.48,1.1-.5c.45-.02.83.12,1.14.41.31.29.47.66.49,1.11l.1,2.44-.26-1.73c.17-.42.4-.8.69-1.13.29-.33.62-.62.99-.85.37-.23.77-.41,1.2-.53.43-.12.86-.19,1.29-.21.52-.02.96.11,1.33.39s.56.62.58,1.02c.02.57-.11.99-.39,1.25-.28.26-.6.4-.94.42-.33.01-.63-.03-.9-.14s-.58-.16-.93-.14c-.31.01-.62.1-.94.26-.31.16-.6.4-.85.73-.25.32-.46.72-.6,1.18-.14.47-.2,1.01-.18,1.63l.26,6.16c.02.45-.11.83-.39,1.15-.28.32-.65.48-1.1.5Z"/>
    <path class="st7" d="M675.76,126.3c.04,1.42-.25,2.68-.85,3.78s-1.43,1.97-2.48,2.6c-1.05.63-2.23.97-3.55,1-1.32.04-2.52-.24-3.6-.82-1.08-.58-1.95-1.4-2.62-2.47s-1.01-2.31-1.05-3.73.25-2.68.85-3.78,1.43-1.97,2.48-2.61c1.05-.64,2.23-.98,3.55-1.02,1.32-.04,2.52.24,3.6.83,1.08.59,1.95,1.41,2.62,2.48.66,1.07,1.01,2.31,1.05,3.73ZM672.64,126.39c-.02-.88-.22-1.65-.59-2.29-.37-.64-.86-1.13-1.47-1.48s-1.27-.51-2-.49c-.73.02-1.38.22-1.97.6-.59.38-1.05.9-1.39,1.56s-.5,1.43-.47,2.31c.02.87.22,1.62.59,2.26s.86,1.13,1.47,1.48c.61.35,1.28.51,2,.49s1.39-.22,1.97-.6c.59-.38,1.05-.9,1.39-1.56s.5-1.42.47-2.29Z"/>
    <path class="st7" d="M685.95,119.02c1.28,0,2.26.25,2.93.79.67.53,1.13,1.25,1.39,2.14.26.89.39,1.88.39,2.98l.04,6.66c0,.45-.14.83-.43,1.13-.29.31-.67.46-1.12.46-.45,0-.82-.15-1.12-.45s-.45-.68-.45-1.13l-.04-6.66c0-.57-.08-1.09-.23-1.55-.15-.46-.42-.83-.8-1.1-.38-.27-.93-.41-1.64-.41-.69,0-1.28.15-1.75.43-.47.28-.84.65-1.08,1.11-.25.46-.37.98-.37,1.55l.04,6.66c0,.45-.14.83-.44,1.13-.29.3-.67.46-1.12.46-.45,0-.82-.15-1.12-.45-.3-.3-.45-.68-.45-1.13l-.06-10.74c0-.45.14-.83.43-1.13.29-.3.67-.46,1.12-.46.45,0,.82.15,1.12.45s.45.68.45,1.13v1.12s-.38-.08-.38-.08c.15-.3.38-.61.67-.95s.64-.66,1.03-.96c.4-.3.85-.54,1.35-.72.5-.18,1.05-.28,1.64-.28Z"/>
    <path class="st7" d="M699.87,119.02c.73,0,1.39.12,2,.35s1.13.52,1.57.87c.44.35.79.7,1.03,1.06.25.36.37.66.37.9l-.68.33v-1.9c.01-.45.16-.83.46-1.13.3-.3.67-.45,1.12-.45.45,0,.82.15,1.12.45.29.3.44.68.44,1.15l-.06,11.57c0,1.51-.34,2.72-.99,3.62-.65.91-1.51,1.56-2.57,1.96-1.06.4-2.2.6-3.41.59-.35,0-.8-.05-1.35-.14-.55-.09-1.08-.2-1.58-.32-.5-.12-.88-.24-1.14-.34-.52-.23-.88-.51-1.08-.85s-.24-.7-.11-1.08c.16-.5.41-.84.76-1.02.35-.18.71-.2,1.09-.06.17.05.46.16.86.32.4.16.83.3,1.31.44.48.13.9.2,1.26.2,1.3,0,2.26-.25,2.89-.77.63-.52.94-1.24.95-2.15v-2.26s.32.24.32.24c0,.22-.12.5-.35.82-.24.32-.56.63-.97.94-.41.31-.89.57-1.45.79s-1.15.32-1.77.32c-1.23,0-2.34-.32-3.32-.94-.99-.62-1.76-1.47-2.33-2.56-.57-1.08-.85-2.33-.84-3.73,0-1.42.3-2.67.88-3.75s1.35-1.93,2.33-2.54c.97-.61,2.06-.91,3.25-.91ZM700.35,121.89c-.78,0-1.47.18-2.06.56-.59.38-1.05.9-1.38,1.55-.33.66-.5,1.4-.51,2.23,0,.81.16,1.55.48,2.21.33.66.78,1.18,1.37,1.57.59.38,1.27.58,2.05.58.8,0,1.49-.18,2.08-.56.59-.38,1.05-.9,1.39-1.55.33-.66.5-1.39.5-2.21,0-.83-.16-1.58-.48-2.24-.33-.66-.78-1.18-1.37-1.57-.59-.38-1.28-.58-2.08-.58Z"/>
    <path class="st7" d="M725.37,119.28c1.25.02,2.19.3,2.84.85.64.55,1.08,1.27,1.31,2.16.23.9.34,1.89.32,2.98l-.09,6.66c0,.45-.16.83-.46,1.12-.3.3-.67.45-1.12.44-.45,0-.82-.16-1.11-.47-.29-.31-.43-.69-.43-1.14l.09-6.66c0-.57-.05-1.09-.19-1.55-.13-.46-.38-.83-.74-1.12s-.88-.43-1.55-.44c-.66,0-1.22.12-1.7.39s-.83.63-1.07,1.09-.36.97-.37,1.54l-.09,6.66c0,.45-.16.83-.46,1.12-.3.3-.67.45-1.12.44-.45,0-.82-.16-1.11-.47-.29-.31-.43-.69-.43-1.14l.23-16.07c0-.45.16-.83.46-1.12s.67-.45,1.12-.44c.45,0,.82.16,1.11.47.29.31.43.69.43,1.14l-.09,6.45-.39-.08c.16-.29.38-.61.66-.94s.62-.65,1.03-.93c.4-.29.85-.52,1.34-.7.49-.17,1.02-.26,1.59-.25Z"/>
    <path class="st7" d="M744.71,119.6c.45,0,.82.16,1.11.46.29.3.43.68.42,1.15l-.2,11c0,.45-.16.83-.46,1.12-.3.3-.68.44-1.13.43-.45,0-.82-.17-1.11-.48-.29-.31-.43-.69-.42-1.14l.02-1.27.57.24c0,.23-.13.5-.38.81-.25.32-.58.63-1,.93s-.92.56-1.48.77c-.57.21-1.18.3-1.84.29-1.2-.02-2.27-.35-3.23-.98-.96-.63-1.71-1.5-2.25-2.59-.54-1.09-.8-2.34-.78-3.75.03-1.42.33-2.67.91-3.74.58-1.07,1.36-1.91,2.32-2.51.96-.6,2.03-.89,3.19-.87.75.01,1.43.14,2.05.38s1.16.53,1.61.89c.45.36.8.71,1.05,1.07.25.36.37.66.36.9l-.94.32.03-1.9c0-.45.16-.82.46-1.12.3-.3.67-.44,1.13-.43ZM739.25,131.08c.76.01,1.43-.16,2.01-.54.58-.37,1.04-.88,1.37-1.54.33-.65.51-1.39.52-2.2.02-.83-.13-1.58-.44-2.24s-.75-1.19-1.31-1.58c-.57-.39-1.23-.59-1.99-.61-.75-.01-1.41.17-1.99.54-.58.37-1.04.88-1.37,1.54-.33.65-.51,1.39-.52,2.23-.02.81.13,1.55.44,2.22.31.67.75,1.19,1.31,1.58.56.39,1.22.59,1.96.61Z"/>
    <path class="st7" d="M756.88,119.86c1.21.03,2.29.36,3.24.99.95.64,1.69,1.5,2.23,2.58.54,1.09.8,2.34.77,3.76s-.34,2.67-.92,3.74-1.36,1.9-2.32,2.5c-.96.6-2.03.88-3.2.86-.69-.01-1.34-.14-1.94-.38-.6-.24-1.13-.54-1.58-.89-.45-.36-.8-.71-1.04-1.08-.24-.36-.36-.66-.36-.91l.81-.32-.04,1.9c0,.45-.17.83-.47,1.12-.3.3-.68.44-1.13.43-.45,0-.82-.17-1.11-.47-.29-.3-.43-.69-.42-1.15l.35-16.32c0-.45.17-.82.47-1.12s.68-.44,1.13-.43c.45,0,.82.17,1.11.48.29.31.43.69.42,1.14l-.14,6.6-.44-.24c0-.23.13-.5.38-.81.25-.32.58-.63,1.01-.94s.91-.57,1.46-.76c.55-.2,1.13-.29,1.74-.27ZM756.42,122.71c-.76-.02-1.43.16-2.01.53s-1.04.88-1.37,1.52c-.33.64-.51,1.38-.53,2.21-.02.81.13,1.56.43,2.23.31.67.74,1.21,1.3,1.6.56.39,1.23.6,1.99.61.76.02,1.43-.16,2-.53s1.02-.88,1.36-1.54c.33-.66.51-1.4.53-2.21.02-.83-.13-1.58-.43-2.23-.31-.66-.74-1.18-1.29-1.58-.56-.39-1.21-.6-1.98-.61Z"/>
    <path class="st7" d="M768.67,132.7c0,.45-.17.82-.47,1.12-.3.3-.68.44-1.13.43-.45,0-.82-.17-1.11-.48-.29-.31-.43-.69-.42-1.14l.24-10.74c0-.45.17-.82.47-1.12.3-.3.68-.44,1.13-.43.45,0,.82.17,1.11.48s.43.69.42,1.14l-.24,10.74ZM767.4,118.66c-.59-.01-1-.12-1.24-.31-.24-.2-.35-.54-.34-1.02v-.49c.02-.5.16-.84.44-1.02s.69-.26,1.24-.25c.61.01,1.03.12,1.27.31.24.2.35.54.34,1.02v.49c-.02.5-.16.84-.42,1.02-.26.18-.69.26-1.28.25Z"/>
    <path class="st7" d="M772.27,120.72l6.16.11c.42,0,.76.15,1.03.43.27.28.4.63.4,1.05,0,.4-.15.73-.43.99-.28.26-.63.39-1.05.38l-6.16-.11c-.42,0-.76-.15-1.03-.43s-.4-.63-.4-1.05c0-.4.15-.73.43-.99.28-.26.63-.39,1.05-.38ZM775.11,117.52c.45,0,.82.17,1.1.47.28.31.42.69.41,1.14l-.21,11.57c0,.24.04.44.13.6.09.16.22.27.38.34s.34.11.53.11c.21,0,.4-.03.57-.11.17-.08.37-.11.6-.11.24,0,.46.12.66.35.19.23.29.54.28.94,0,.49-.28.88-.81,1.18-.53.3-1.1.45-1.71.44-.36,0-.77-.04-1.21-.11-.44-.07-.85-.22-1.24-.46-.39-.24-.7-.61-.96-1.1-.25-.49-.37-1.16-.35-2.01l.21-11.7c0-.45.17-.83.48-1.12.31-.3.69-.44,1.14-.43Z"/>
    <path class="st7" d="M782.22,132.34c-.17-.25-.24-.56-.22-.94s.25-.71.69-.98c.28-.17.58-.24.89-.21.31.03.61.2.9.5.49.51,1.02.91,1.57,1.19.55.29,1.24.44,2.07.45.26-.01.55-.05.86-.1.31-.06.59-.19.83-.4s.36-.54.37-1c0-.38-.12-.69-.38-.92-.26-.23-.6-.42-1.02-.59-.42-.16-.89-.32-1.41-.46-.53-.16-1.08-.35-1.64-.55-.56-.2-1.07-.45-1.53-.77-.46-.31-.84-.72-1.12-1.23-.29-.51-.42-1.14-.41-1.91.01-.87.27-1.6.76-2.2.49-.6,1.13-1.06,1.91-1.37.78-.32,1.59-.47,2.44-.46.54,0,1.1.08,1.69.22.59.14,1.15.36,1.68.65.53.29.98.68,1.33,1.15.19.26.29.58.32.94.03.36-.14.69-.51.98-.26.2-.57.29-.91.26-.35-.03-.63-.15-.85-.36-.29-.39-.68-.7-1.17-.93s-1.06-.36-1.7-.37c-.26,0-.54.02-.85.08-.3.06-.57.18-.8.38s-.35.51-.35.94c0,.4.12.72.38.96.26.24.6.43,1.04.59.44.15.91.3,1.41.45.52.15,1.04.32,1.58.52s1.02.46,1.47.78c.45.32.8.73,1.07,1.23.27.5.4,1.13.39,1.89-.01.88-.29,1.63-.82,2.25-.53.62-1.19,1.08-1.97,1.39-.79.31-1.58.46-2.4.44-1.02-.02-2.04-.21-3.06-.58-1.02-.37-1.86-1.01-2.52-1.92Z"/>
    <path class="st7" d="M816.45,128.36c-.04,1.42-.4,2.66-1.06,3.73s-1.54,1.88-2.62,2.46c-1.08.58-2.28.84-3.6.8-1.32-.04-2.5-.38-3.55-1.02-1.05-.64-1.87-1.51-2.47-2.61-.6-1.1-.88-2.36-.84-3.78s.4-2.66,1.06-3.73c.67-1.06,1.54-1.89,2.62-2.47s2.28-.86,3.6-.82c1.32.04,2.5.38,3.54,1.03,1.05.65,1.87,1.52,2.47,2.62s.88,2.36.84,3.78ZM813.33,128.26c.03-.88-.13-1.66-.46-2.32-.34-.66-.8-1.18-1.38-1.56s-1.24-.58-1.97-.61c-.73-.02-1.4.14-2,.49s-1.1.84-1.47,1.48c-.38.64-.58,1.4-.6,2.28-.03.87.13,1.63.46,2.29.33.66.8,1.18,1.38,1.56s1.24.58,1.97.61c.73.02,1.4-.14,2-.49.61-.35,1.1-.84,1.47-1.48.37-.64.58-1.39.6-2.26Z"/>
    <path class="st7" d="M826.86,122.03c.42.02.76.16,1.02.44.27.28.39.63.38,1.04-.02.42-.17.75-.45,1.01-.29.26-.64.38-1.05.36l-6.89-.26c-.42-.02-.76-.16-1.02-.44-.27-.28-.39-.63-.38-1.04.02-.42.17-.75.45-1.01.29-.26.64-.38,1.05-.36l6.89.26ZM826.79,116.44c.38.01.75.08,1.11.2.36.12.66.3.89.54.23.24.34.56.33.94-.02.43-.16.77-.42,1.01-.26.24-.56.36-.88.34-.16,0-.39-.05-.7-.14-.31-.09-.61-.14-.91-.15-.43-.02-.77.07-1.01.25-.24.18-.41.4-.5.64-.1.25-.15.47-.16.66l-.5,13.28c-.02.45-.18.82-.48,1.11-.31.29-.68.43-1.13.41-.45-.02-.82-.18-1.1-.5-.28-.31-.42-.7-.4-1.15l.5-13.25c.05-1.23.52-2.25,1.42-3.07.9-.82,2.21-1.19,3.95-1.13Z"/>
    <path class="st7" d="M845.48,122.31c1.38.07,2.39.45,3.02,1.14.63.7,1.02,1.58,1.18,2.64l-.43-.25.23-.41c.23-.39.57-.8,1.02-1.24.45-.44,1-.8,1.63-1.09.63-.29,1.33-.42,2.09-.38,1.25.06,2.18.37,2.81.94s1.04,1.3,1.24,2.21c.2.9.28,1.9.22,2.99l-.31,6.65c-.02.45-.19.82-.5,1.11s-.69.42-1.14.4c-.45-.02-.82-.19-1.1-.51-.28-.32-.41-.7-.39-1.15l.31-6.65c.03-.57-.02-1.09-.13-1.55-.12-.47-.35-.85-.7-1.14s-.86-.46-1.54-.49c-.66-.03-1.23.08-1.71.34s-.85.61-1.1,1.05c-.25.45-.4.96-.42,1.53l-.31,6.65c-.02.45-.19.82-.49,1.11-.31.29-.69.42-1.14.4s-.82-.19-1.1-.51-.41-.7-.39-1.15l.31-6.65c.03-.57-.02-1.09-.13-1.55-.12-.46-.35-.84-.7-1.14-.35-.29-.86-.46-1.54-.49-.66-.03-1.23.08-1.71.34-.48.25-.85.61-1.1,1.05-.25.45-.4.96-.42,1.53l-.31,6.65c-.02.45-.19.82-.49,1.11-.31.29-.69.42-1.14.4-.45-.02-.82-.19-1.09-.51-.28-.32-.41-.7-.39-1.15l.5-10.73c.02-.45.19-.82.49-1.11s.69-.42,1.14-.4c.45.02.81.19,1.1.51.28.32.41.7.39,1.15l-.05,1.12-.39-.1c.17-.29.4-.59.69-.92.29-.32.64-.62,1.06-.9.41-.28.86-.49,1.36-.65s1.03-.23,1.6-.2Z"/>
    <path class="st7" d="M864.49,135.84c-.02.45-.19.82-.5,1.11-.31.29-.69.42-1.14.4-.45-.02-.82-.19-1.09-.51-.28-.32-.41-.7-.38-1.15l.54-10.72c.02-.45.19-.82.5-1.11.31-.29.69-.42,1.14-.4.45.02.81.19,1.09.51.28.32.41.7.38,1.15l-.55,10.72ZM863.62,121.76c-.59-.03-1-.15-1.23-.35-.23-.2-.34-.55-.31-1.03l.03-.49c.03-.5.18-.84.45-1.01.28-.17.69-.24,1.25-.21.61.03,1.03.15,1.26.35.23.2.34.55.31,1.03l-.03.49c-.03.5-.17.84-.44,1.01-.27.17-.7.24-1.29.21Z"/>
    <path class="st7" d="M875.73,123.82c1.28.07,2.24.39,2.88.96.64.57,1.06,1.31,1.26,2.21.2.9.28,1.9.22,2.99l-.35,6.65c-.02.45-.19.82-.5,1.11-.31.29-.69.42-1.14.4-.45-.02-.81-.2-1.09-.51-.28-.32-.41-.7-.38-1.15l.35-6.65c.03-.57-.02-1.09-.14-1.56s-.37-.85-.73-1.15-.9-.46-1.61-.5c-.69-.04-1.28.07-1.77.32-.49.25-.87.6-1.15,1.05-.28.45-.43.95-.46,1.53l-.35,6.65c-.02.45-.19.82-.5,1.11-.31.29-.69.42-1.14.4-.45-.02-.81-.2-1.09-.51-.28-.32-.41-.7-.38-1.15l.56-10.72c.02-.45.19-.82.5-1.11.31-.29.69-.42,1.14-.4s.81.2,1.09.51.41.7.38,1.15l-.06,1.12-.38-.1c.17-.29.41-.59.72-.91.31-.32.67-.62,1.09-.89.41-.27.88-.49,1.39-.64s1.06-.22,1.65-.19Z"/>
    <path class="st7" d="M895.45,119.8c.45.02.81.19,1.09.5.28.31.41.7.38,1.17l-.86,16.04c-.02.45-.19.82-.5,1.11s-.69.42-1.14.39c-.45-.02-.81-.2-1.09-.51s-.4-.7-.38-1.15l.07-1.27.56.26c-.01.23-.15.49-.41.8s-.61.61-1.04.89-.94.53-1.51.71c-.57.19-1.19.26-1.85.23-1.19-.06-2.26-.43-3.2-1.1-.94-.67-1.66-1.56-2.16-2.67-.5-1.11-.72-2.37-.64-3.77.08-1.42.42-2.65,1.04-3.71.62-1.05,1.42-1.86,2.41-2.42s2.06-.81,3.22-.75c.74.04,1.42.19,2.03.45.61.26,1.14.57,1.58.94.44.37.78.74,1.01,1.11s.34.67.33.92l-.95.29.37-6.96c.02-.45.19-.82.5-1.11s.69-.42,1.14-.39ZM889.31,136.13c.76.04,1.44-.11,2.03-.46.59-.35,1.06-.85,1.42-1.49.35-.64.55-1.37.6-2.18.04-.83-.08-1.58-.36-2.26-.29-.67-.7-1.22-1.25-1.63s-1.21-.64-1.97-.68c-.74-.04-1.41.12-2,.47-.59.35-1.07.85-1.42,1.49-.36.64-.56,1.38-.6,2.21-.04.81.08,1.56.36,2.23s.7,1.22,1.25,1.63c.55.41,1.2.64,1.94.68Z"/>
    <path class="st7" d="M914.64,125.88c1.25.06,2.18.38,2.8.95s1.03,1.31,1.23,2.21c.2.9.27,1.9.21,2.99l-.34,6.65c-.02.45-.19.82-.5,1.11-.31.29-.69.42-1.14.4s-.81-.19-1.09-.51c-.28-.32-.41-.7-.38-1.15l.34-6.65c.03-.57-.01-1.09-.13-1.56-.12-.47-.35-.85-.7-1.14-.35-.29-.86-.46-1.54-.5-.66-.03-1.23.08-1.71.33-.48.25-.85.6-1.11,1.05-.26.45-.4.96-.43,1.53l-.34,6.65c-.02.45-.19.82-.5,1.11-.31.29-.69.42-1.14.4-.45-.02-.82-.19-1.09-.51-.28-.32-.41-.7-.38-1.15l.83-16.05c.02-.45.19-.82.5-1.11.31-.29.69-.42,1.14-.4.45.02.81.19,1.09.51.28.32.41.7.38,1.15l-.33,6.44-.39-.1c.17-.29.4-.59.7-.91.29-.32.65-.62,1.06-.89.41-.27.87-.49,1.36-.65.49-.16,1.03-.22,1.6-.19Z"/>
    <path class="st7" d="M928.34,141.02c-1.47-.07-2.73-.44-3.79-1.11-1.05-.67-1.84-1.54-2.37-2.63-.53-1.08-.76-2.29-.7-3.63.08-1.56.46-2.87,1.14-3.94.69-1.07,1.55-1.87,2.6-2.41,1.05-.54,2.15-.78,3.29-.73.88.04,1.71.26,2.48.67.77.4,1.44.93,2.02,1.59s1.02,1.42,1.33,2.26c.31.85.45,1.74.4,2.67-.04.42-.22.74-.54.99-.32.24-.69.36-1.11.34l-9.92-.48-.65-2.63,9.53.46-.6.49.03-.7c0-.5-.17-.96-.47-1.38-.3-.41-.68-.75-1.15-1.01s-.97-.4-1.5-.42c-.52-.03-1.01.02-1.46.14-.46.12-.86.33-1.2.64-.34.31-.63.74-.84,1.29-.22.54-.35,1.24-.39,2.09-.04.93.11,1.74.47,2.4.36.67.84,1.19,1.43,1.55.6.37,1.24.57,1.94.6.64.03,1.15,0,1.54-.08.39-.08.7-.2.94-.33.24-.13.46-.25.65-.35.32-.14.62-.2.89-.19.38.02.69.16.93.44.24.27.35.58.33.93-.02.47-.29.88-.79,1.24-.47.36-1.12.66-1.94.91-.83.25-1.67.35-2.54.31Z"/>
    <path class="st7" d="M940.58,139.74c-.02.45-.19.82-.51,1.11-.32.29-.7.42-1.15.4-.43-.02-.79-.19-1.07-.5-.28-.32-.41-.7-.39-1.15l.72-16.05c.02-.45.19-.82.51-1.11.32-.29.7-.42,1.15-.4s.81.19,1.08.5c.27.32.4.7.38,1.15l-.72,16.05Z"/>
    <path class="st7" d="M951.91,127.62c1.21.05,2.29.4,3.22,1.05.94.65,1.66,1.53,2.18,2.63.52,1.1.75,2.35.69,3.77-.06,1.42-.39,2.66-1,3.72-.61,1.06-1.39,1.88-2.36,2.46-.97.58-2.04.84-3.22.79-.69-.03-1.34-.17-1.94-.42-.6-.25-1.12-.56-1.56-.92-.45-.36-.79-.73-1.02-1.09-.24-.37-.35-.67-.34-.91l.82-.3-.28,6.83c-.02.45-.18.82-.49,1.11s-.68.43-1.13.41c-.45-.02-.82-.18-1.1-.49-.28-.31-.41-.69-.4-1.16l.65-15.92c.02-.45.18-.82.49-1.11s.69-.43,1.14-.41c.45.02.82.18,1.1.5.28.32.41.7.4,1.15l-.05,1.27-.43-.25c0-.23.14-.49.4-.8s.6-.62,1.03-.92.92-.55,1.47-.73c.55-.19,1.13-.27,1.74-.24ZM951.4,130.47c-.76-.03-1.44.13-2.02.49s-1.05.85-1.4,1.49c-.35.64-.54,1.37-.57,2.2-.03.81.1,1.56.39,2.24.29.68.72,1.22,1.27,1.63s1.21.62,1.98.65c.76.03,1.43-.13,2.01-.49.58-.36,1.04-.86,1.39-1.52.35-.65.54-1.39.57-2.2.03-.83-.1-1.58-.39-2.24-.29-.66-.72-1.2-1.26-1.6-.55-.4-1.2-.62-1.96-.65Z"/>
    <path class="st7" d="M966.96,142.62c-1.47-.05-2.74-.4-3.8-1.06-1.06-.65-1.86-1.52-2.41-2.6-.54-1.08-.79-2.28-.74-3.62.05-1.56.42-2.88,1.09-3.96.67-1.08,1.53-1.89,2.57-2.45s2.14-.81,3.28-.77c.88.03,1.71.24,2.49.63.78.39,1.46.91,2.04,1.57s1.04,1.4,1.37,2.25.47,1.73.44,2.67c-.03.42-.21.75-.53,1-.32.25-.69.37-1.1.35l-9.93-.35-.69-2.62,9.54.33-.59.5.02-.7c-.02-.5-.18-.96-.49-1.37-.31-.41-.69-.74-1.16-.99-.47-.25-.97-.38-1.51-.4-.52-.02-1.01.03-1.46.16-.46.12-.85.34-1.19.66s-.62.75-.83,1.3-.33,1.25-.36,2.09c-.03.94.13,1.73.5,2.4.37.66.85,1.17,1.46,1.53.6.36,1.25.55,1.94.58.64.02,1.15-.01,1.54-.1.38-.09.7-.21.94-.34s.46-.26.65-.35c.32-.14.61-.21.89-.2.38.01.69.15.93.42s.36.58.35.92c-.02.47-.27.88-.77,1.25-.46.37-1.11.68-1.93.93-.83.26-1.67.37-2.54.34Z"/>
    <path class="st7" d="M987.74,123.8c.45.01.82.17,1.1.48.29.3.42.69.41,1.16l-.52,16.06c-.01.45-.17.82-.48,1.12s-.68.43-1.13.42c-.45-.01-.82-.18-1.1-.49-.29-.31-.42-.69-.41-1.14l.04-1.27.56.25c0,.22-.14.49-.39.81s-.59.62-1.02.92c-.43.3-.92.55-1.49.75-.57.2-1.18.29-1.84.27-1.2-.04-2.27-.38-3.22-1.03-.95-.65-1.69-1.52-2.22-2.62s-.77-2.35-.72-3.76c.05-1.42.37-2.66.97-3.73.6-1.06,1.38-1.89,2.36-2.47.97-.58,2.04-.86,3.2-.82.74.02,1.43.16,2.04.4.62.25,1.15.55,1.6.91.45.36.79.72,1.03,1.09.24.36.36.67.35.91l-.95.31.22-6.96c.01-.45.17-.82.48-1.12.3-.29.68-.43,1.13-.42ZM981.96,140.27c.76.02,1.44-.14,2.02-.51.58-.36,1.05-.87,1.39-1.52s.53-1.38.55-2.19c.03-.83-.11-1.58-.41-2.25-.3-.67-.73-1.2-1.29-1.6s-1.22-.61-1.98-.64c-.75-.02-1.41.15-1.99.51-.58.36-1.05.87-1.39,1.52-.34.65-.53,1.39-.55,2.22-.03.81.11,1.56.41,2.22.3.67.73,1.2,1.29,1.6s1.21.61,1.96.64Z"/>
    <path class="st7" d="M1010,129.76c.45.01.82.17,1.11.48.29.31.42.69.41,1.14l-.29,11.05c-.04,1.59-.37,2.86-1,3.78s-1.44,1.59-2.46,1.98c-1.02.39-2.15.57-3.4.53-.55-.01-1.14-.07-1.76-.18-.62-.1-1.13-.25-1.52-.43-.51-.24-.87-.53-1.06-.87-.19-.34-.22-.7-.09-1.08.17-.5.43-.83.78-1.01s.72-.18,1.09-.04c.27.09.63.24,1.08.43.45.19.96.3,1.55.31.8.02,1.46-.07,2-.27.53-.2.94-.56,1.22-1.06s.43-1.2.46-2.08l.05-1.74.53.64c-.31.56-.69,1.03-1.14,1.39-.45.36-.98.63-1.59.8-.61.17-1.31.25-2.09.23-.92-.02-1.71-.26-2.39-.7-.67-.44-1.19-1.05-1.55-1.81-.36-.76-.53-1.63-.5-2.6l.2-7.59c.01-.45.17-.82.47-1.12.3-.29.68-.44,1.13-.43.45.01.82.17,1.11.48.29.31.42.69.41,1.14l-.18,6.65c-.03,1.13.2,1.93.68,2.4.48.47,1.16.72,2.05.74.61.02,1.12-.09,1.54-.31.42-.22.75-.56.99-1.01s.37-1.01.38-1.67l.18-6.65c.01-.45.17-.82.47-1.12.3-.3.68-.44,1.13-.43Z"/>
    <path class="st7" d="M1028.06,137.14c-.03,1.42-.37,2.67-1.03,3.74-.66,1.07-1.52,1.9-2.6,2.48-1.08.58-2.28.86-3.59.83-1.32-.03-2.5-.36-3.55-.99-1.05-.63-1.88-1.49-2.49-2.59-.61-1.1-.9-2.36-.87-3.78.03-1.42.37-2.67,1.03-3.74.66-1.07,1.52-1.9,2.6-2.49s2.28-.87,3.59-.85c1.32.03,2.5.36,3.55,1s1.88,1.51,2.49,2.6c.61,1.1.9,2.36.87,3.78ZM1024.94,137.08c.02-.88-.14-1.65-.48-2.31-.34-.66-.81-1.17-1.4-1.55s-1.25-.57-1.98-.59c-.73-.02-1.39.15-2,.5-.61.35-1.09.85-1.46,1.49-.37.64-.56,1.4-.58,2.29-.02.87.14,1.63.48,2.29.34.66.81,1.17,1.4,1.55s1.25.57,1.98.59c.73.02,1.4-.15,2-.5.61-.35,1.09-.85,1.46-1.49.37-.64.56-1.4.58-2.26Z"/>
    <path class="st7" d="M1041.19,130.39c.45,0,.82.17,1.11.47.29.31.43.69.42,1.14l-.11,6.6c-.03,1.84-.56,3.29-1.6,4.34-1.04,1.06-2.52,1.57-4.45,1.54-1.92-.03-3.38-.59-4.38-1.68-1-1.09-1.48-2.55-1.45-4.39l.11-6.6c0-.45.16-.83.46-1.12.3-.3.67-.44,1.12-.44.45,0,.82.17,1.11.47.29.31.43.69.42,1.14l-.11,6.6c-.02,1.06.2,1.85.66,2.36s1.16.79,2.09.8c.95.02,1.67-.23,2.14-.73s.72-1.28.74-2.34l.11-6.6c0-.45.16-.83.46-1.12.3-.3.67-.44,1.12-.44Z"/>
    <path class="st7" d="M1047.44,144.38c-.45,0-.82-.16-1.11-.47-.29-.31-.43-.68-.43-1.14l.11-10.74c0-.45.16-.83.45-1.13.3-.3.67-.45,1.12-.44.45,0,.82.16,1.11.47.29.31.43.69.43,1.14l-.03,2.44-.16-1.74c.2-.41.45-.78.75-1.1s.65-.58,1.04-.79.79-.37,1.23-.47c.43-.1.87-.15,1.3-.14.52,0,.96.16,1.31.46.35.3.53.65.52,1.04,0,.57-.16.98-.46,1.23-.3.25-.62.37-.97.37-.33,0-.63-.07-.9-.19-.27-.12-.57-.19-.92-.19-.31,0-.63.07-.95.21-.32.14-.62.37-.89.68-.27.31-.49.69-.66,1.15-.17.46-.26,1-.26,1.62l-.07,6.16c0,.45-.16.83-.45,1.13-.3.3-.67.45-1.12.44Z"/>
    <path class="st7" d="M1070.61,130.36c.99,0,1.85.11,2.59.32s1.31.5,1.71.87c.41.37.61.82.61,1.34,0,.35-.1.67-.31.97-.21.3-.51.45-.91.45-.28,0-.51-.04-.69-.12-.18-.08-.34-.18-.48-.3-.14-.12-.3-.23-.49-.34-.17-.1-.44-.19-.79-.25-.36-.06-.62-.09-.79-.09-.88,0-1.63.19-2.25.57-.62.38-1.09.9-1.42,1.54s-.5,1.4-.5,2.25c0,.83.17,1.57.5,2.22.34.65.8,1.17,1.4,1.55.6.38,1.29.57,2.07.58.43,0,.81-.02,1.12-.08.31-.05.57-.13.78-.23.24-.14.46-.29.65-.44.19-.16.48-.23.86-.23.45,0,.8.14,1.04.43s.36.64.36,1.05c0,.43-.24.83-.73,1.18-.49.35-1.12.64-1.91.86-.79.21-1.64.32-2.56.32-1.37,0-2.56-.32-3.56-.95-1-.63-1.78-1.5-2.32-2.59-.54-1.09-.82-2.32-.81-3.67,0-1.42.29-2.67.88-3.76.58-1.08,1.39-1.93,2.42-2.54,1.03-.61,2.21-.92,3.55-.92Z"/>
    <path class="st7" d="M1085.13,130.32c1.25,0,2.2.26,2.85.79s1.1,1.25,1.35,2.14c.25.89.38,1.88.38,2.97l.04,6.66c0,.45-.14.83-.43,1.13-.29.3-.67.46-1.12.46-.45,0-.82-.15-1.12-.45-.3-.3-.45-.68-.45-1.13l-.04-6.66c0-.57-.08-1.09-.22-1.55-.14-.46-.4-.83-.76-1.1-.37-.27-.89-.41-1.56-.41-.66,0-1.22.15-1.69.43-.47.28-.82.65-1.05,1.11-.23.46-.35.98-.34,1.55l.04,6.66c0,.45-.14.83-.44,1.13s-.67.46-1.12.46c-.45,0-.82-.15-1.12-.45-.3-.3-.45-.68-.45-1.13l-.09-16.07c0-.45.14-.83.43-1.13.29-.31.67-.46,1.12-.46.45,0,.82.15,1.12.45.3.3.45.68.45,1.13l.04,6.45-.39-.08c.15-.3.37-.61.64-.95.27-.34.61-.66,1.01-.96.4-.3.84-.54,1.32-.72.48-.18,1.01-.28,1.58-.28Z"/>
    <path class="st7" d="M1094.28,128.8c-.59,0-1.01-.08-1.25-.27-.25-.19-.37-.52-.38-1.01v-.49c-.01-.5.12-.85.38-1.03s.68-.28,1.23-.29c.61,0,1.03.08,1.28.27.24.19.37.52.38,1.01v.49c.01.5-.11.85-.37,1.03-.26.18-.68.28-1.27.29ZM1096.03,142.8c0,.45-.14.83-.43,1.14-.29.31-.66.46-1.11.47-.45,0-.83-.14-1.12-.44-.3-.3-.45-.67-.46-1.12l-.13-10.74c0-.45.14-.83.43-1.14.29-.31.66-.46,1.11-.47.45,0,.82.14,1.12.44.3.3.45.68.46,1.13l.13,10.74Z"/>
    <path class="st7" d="M1102.58,142.7c0,.45-.14.83-.44,1.14-.3.31-.67.47-1.12.47-.43,0-.8-.14-1.1-.44-.3-.3-.45-.67-.46-1.12l-.25-16.07c0-.45.14-.83.44-1.14.3-.31.67-.47,1.12-.47.45,0,.82.14,1.11.44s.44.67.45,1.12l.25,16.07Z"/>
    <path class="st7" d="M1116.92,124.75c.45,0,.83.13,1.13.42.3.29.46.67.47,1.13l.37,16.06c0,.45-.13.83-.42,1.14s-.66.47-1.11.48c-.45,0-.83-.13-1.13-.43-.3-.3-.46-.67-.47-1.12l-.03-1.27.58.22c0,.23-.11.5-.35.83s-.56.65-.97.97-.89.6-1.45.83c-.56.23-1.17.35-1.82.37-1.2.03-2.29-.26-3.27-.85s-1.77-1.42-2.36-2.5-.9-2.31-.93-3.71c-.03-1.42.22-2.68.76-3.78.54-1.1,1.28-1.96,2.22-2.6.94-.64,1.99-.97,3.15-1,.75-.02,1.43.08,2.06.29.63.21,1.18.49,1.64.82.47.34.83.68,1.09,1.03.26.35.39.65.4.89l-.93.36-.16-6.97c-.01-.45.13-.83.42-1.14.29-.31.66-.47,1.11-.48ZM1112.05,141.5c.76-.02,1.43-.22,1.99-.62.56-.39,1-.92,1.3-1.59s.45-1.41.43-2.22c-.02-.83-.2-1.57-.53-2.22-.34-.65-.79-1.16-1.38-1.53-.58-.37-1.25-.54-2.01-.53-.75.02-1.4.22-1.96.62-.56.39-1,.92-1.3,1.59-.31.67-.45,1.42-.43,2.25.02.82.2,1.55.53,2.2.33.65.79,1.16,1.37,1.53.58.37,1.24.54,1.99.53Z"/>
    <path class="st7" d="M1129.17,129.97l6.16-.23c.42-.01.77.11,1.05.38.29.27.44.61.45,1.02.01.4-.11.74-.38,1.01-.27.28-.61.43-1.02.44l-6.16.22c-.42.02-.77-.11-1.05-.38-.29-.27-.44-.61-.45-1.02-.01-.4.11-.74.38-1.02.27-.28.61-.43,1.02-.44ZM1131.83,126.62c.45-.02.82.12,1.12.41.3.29.45.66.47,1.11l.42,11.56c0,.24.06.44.16.59s.24.26.4.32c.17.06.35.09.54.08.21,0,.4-.05.57-.14.17-.08.37-.13.59-.14.24,0,.47.1.67.31.21.22.32.53.33.92.02.49-.23.89-.75,1.22-.52.33-1.08.51-1.68.53-.36.01-.77,0-1.21-.05-.44-.04-.86-.18-1.26-.4s-.74-.57-1.01-1.04c-.28-.48-.43-1.14-.46-1.99l-.43-11.69c-.02-.45.12-.83.41-1.15s.66-.48,1.11-.5Z"/>
    <path class="st7" d="M1146.75,128.73c1.25-.06,2.21.17,2.88.67s1.15,1.2,1.44,2.08.45,1.87.5,2.96l.3,6.65c.02.45-.11.83-.39,1.15-.28.32-.65.49-1.1.51-.45.02-.83-.11-1.14-.4-.31-.29-.47-.66-.49-1.11l-.31-6.65c-.03-.57-.12-1.08-.28-1.54-.16-.45-.43-.81-.8-1.07-.38-.26-.9-.38-1.58-.34-.66.03-1.21.19-1.67.49-.46.3-.79.68-1,1.15-.21.47-.31.99-.28,1.56l.31,6.65c.02.45-.11.83-.39,1.15-.28.32-.65.49-1.1.51-.45.02-.83-.11-1.14-.4-.31-.29-.47-.66-.49-1.11l-.74-16.05c-.02-.45.11-.83.39-1.15.28-.32.65-.48,1.1-.51.45-.02.83.11,1.14.4.31.29.47.66.49,1.11l.3,6.44-.39-.06c.14-.3.34-.63.61-.98.26-.35.58-.68.97-1,.38-.31.81-.57,1.29-.77.48-.2,1-.32,1.57-.35Z"/>
    <path class="st7" d="M1156.84,142.41c-.45.02-.83-.11-1.14-.39-.31-.29-.48-.65-.5-1.1l-.6-10.72c-.03-.45.1-.83.38-1.15.28-.32.64-.49,1.09-.52s.83.11,1.14.39c.31.29.48.66.5,1.1l.14,2.44-.28-1.73c.17-.43.39-.81.68-1.14.29-.34.61-.62.98-.86.37-.24.77-.42,1.19-.55s.86-.2,1.29-.23c.52-.03.96.09,1.34.37.37.27.57.61.59,1.01.03.57-.09.99-.37,1.26s-.59.41-.94.43c-.33.02-.63-.03-.91-.13-.28-.11-.59-.15-.93-.13-.31.02-.62.11-.94.27-.31.17-.59.41-.84.74-.25.33-.45.72-.58,1.19-.14.47-.19,1.01-.16,1.64l.35,6.15c.03.45-.1.83-.38,1.15-.28.32-.64.49-1.09.52Z"/>
    <path class="st7" d="M1166.89,126.19c-.59.04-1.01-.03-1.26-.21-.25-.17-.4-.5-.43-.99l-.03-.49c-.03-.5.08-.85.34-1.05s.66-.32,1.21-.35c.61-.04,1.04.03,1.29.21.25.17.4.5.43.99l.03.49c.03.5-.08.85-.32,1.05s-.67.32-1.25.35ZM1169.36,140.08c.03.45-.09.83-.37,1.16-.28.32-.64.5-1.09.52-.45.03-.83-.1-1.14-.38-.31-.28-.48-.65-.51-1.1l-.68-10.72c-.03-.45.09-.83.37-1.16.27-.32.64-.5,1.09-.52.45-.03.83.1,1.14.38.31.29.48.65.51,1.1l.68,10.72Z"/>
    <path class="st7" d="M1172.24,127.55c.33-.02.64.04.93.18.29.14.51.38.68.69l4.44,8.44-.55.3,3.25-9.23c.24-.71.68-1.07,1.3-1.08.43-.03.79.08,1.08.33s.45.57.47.97c0,.12,0,.25-.04.39-.03.14-.07.27-.12.4l-4.08,11.03c-.23.64-.65,1-1.25,1.08-.33.08-.64.04-.96-.11-.31-.15-.56-.4-.75-.75l-5.59-10.34c-.04-.08-.09-.19-.14-.33s-.09-.3-.1-.49c-.02-.31.09-.63.35-.95s.62-.5,1.08-.53Z"/>
    <path class="st7" d="M1193.54,140.12c-1.47.12-2.77-.07-3.9-.59s-2.03-1.28-2.7-2.29c-.67-1-1.06-2.17-1.17-3.5-.13-1.55.07-2.91.61-4.06.54-1.15,1.29-2.06,2.26-2.74.97-.67,2.02-1.06,3.16-1.16.88-.08,1.73.04,2.55.33.82.3,1.55.73,2.21,1.31.66.58,1.2,1.27,1.62,2.07.42.8.68,1.67.76,2.6.02.42-.12.77-.41,1.05-.29.29-.64.45-1.06.48l-9.9.84-1-2.53,9.51-.81-.53.57-.06-.7c-.08-.5-.29-.93-.65-1.3-.35-.37-.78-.65-1.27-.84-.5-.19-1.01-.27-1.54-.22-.52.04-1,.15-1.43.33-.44.18-.81.44-1.11.8-.3.36-.52.82-.66,1.39-.14.57-.18,1.28-.11,2.12.08.93.34,1.71.78,2.32.44.61.99,1.06,1.63,1.35.64.29,1.31.4,2,.34.64-.05,1.14-.15,1.52-.29.37-.14.67-.29.89-.45s.42-.31.6-.43c.3-.18.58-.28.86-.31.38-.03.71.07.98.31.27.24.42.53.45.88.04.47-.17.91-.62,1.33-.42.42-1.02.8-1.81,1.16-.79.35-1.61.57-2.48.64Z"/>
    <path class="st7" d="M1203.77,130.69c-.04-.45.07-.84.33-1.17s.62-.52,1.07-.56c.71-.07,1.33-.24,1.88-.51.55-.27.97-.67,1.25-1.18.29-.52.39-1.17.32-1.96-.06-.59-.25-1.09-.58-1.51-.33-.42-.75-.74-1.27-.95-.52-.21-1.09-.29-1.71-.22-.48.05-.93.18-1.33.39-.41.21-.77.49-1.08.81-.25.27-.57.48-.94.63s-.78.1-1.2-.16c-.44-.27-.71-.62-.78-1.05-.08-.43.05-.84.37-1.24.56-.7,1.24-1.27,2.04-1.7s1.68-.7,2.63-.79c1.19-.12,2.29.05,3.3.5s1.85,1.1,2.5,1.96,1.05,1.87,1.16,3.02c.08.86.03,1.64-.16,2.33s-.5,1.29-.93,1.82c-.43.52-.94.96-1.54,1.3-.6.35-1.27.62-2,.81-.03.02-.06.04-.08.06s-.04.05-.03.08l.09.96c.04.45-.07.84-.33,1.17-.26.33-.62.52-1.07.56-.45.04-.83-.07-1.16-.34-.32-.27-.51-.63-.55-1.08l-.19-1.97ZM1206,138.73c-.5.05-.9-.05-1.19-.29-.29-.24-.46-.61-.51-1.11l-.04-.44c-.05-.5.05-.9.29-1.19s.61-.47,1.11-.51l.34-.03c.5-.05.9.05,1.19.29.29.24.46.61.51,1.11l.04.44c.05.5-.05.9-.29,1.19-.24.29-.61.47-1.11.51l-.34.03Z"/>
  </g>
</svg>